<?xml version="1.0" encoding="UTF-8" standalone="no"?>
<!-- Created with Inkscape (http://www.inkscape.org/) -->

<svg
   xmlns:dc="http://purl.org/dc/elements/1.1/"
   xmlns:cc="http://creativecommons.org/ns#"
   xmlns:rdf="http://www.w3.org/1999/02/22-rdf-syntax-ns#"
   xmlns:svg="http://www.w3.org/2000/svg"
   xmlns="http://www.w3.org/2000/svg"
   xmlns:sodipodi="http://sodipodi.sourceforge.net/DTD/sodipodi-0.dtd"
   xmlns:inkscape="http://www.inkscape.org/namespaces/inkscape"
   width="13.79cm"
   height="3.53cm"
   viewBox="0 0 488.62206 125.07874"
   id="svg5000"
   version="1.1"
   inkscape:version="0.91 r13725"
   sodipodi:docname="logos_1.svg">
  <defs
     id="defs5002">
    <pattern
       y="0"
       x="0"
       height="6"
       width="6"
       patternUnits="userSpaceOnUse"
       id="EMFhbasepattern" />
    <clipPath
       clipPathUnits="userSpaceOnUse"
       id="clipPath4166">
      <path
         d="m 0,1195.549 800,0 L 800,0 0,0 0,1195.549 Z"
         id="path4168"
         inkscape:connector-curvature="0" />
    </clipPath>
  </defs>
  <sodipodi:namedview
     id="base"
     pagecolor="#ffffff"
     bordercolor="#666666"
     borderopacity="1.0"
     inkscape:pageopacity="0.0"
     inkscape:pageshadow="2"
     inkscape:zoom="1.1250602"
     inkscape:cx="62.403072"
     inkscape:cy="80"
     inkscape:document-units="px"
     inkscape:current-layer="layer1"
     showgrid="false"
     fit-margin-top="0"
     fit-margin-left="0"
     fit-margin-right="0"
     fit-margin-bottom="0"
     inkscape:window-width="1920"
     inkscape:window-height="1139"
     inkscape:window-x="-9"
     inkscape:window-y="-9"
     inkscape:window-maximized="1"
     units="cm"
     inkscape:snap-page="true"
     showguides="true"
     inkscape:guide-bbox="true" />
  <metadata
     id="metadata5005">
    <rdf:RDF>
      <cc:Work
         rdf:about="">
        <dc:format>image/svg+xml</dc:format>
        <dc:type
           rdf:resource="http://purl.org/dc/dcmitype/StillImage" />
        <dc:title />
      </cc:Work>
    </rdf:RDF>
  </metadata>
  <g
     inkscape:label="Capa 1"
     inkscape:groupmode="layer"
     id="layer1"
     transform="translate(124.78663,-130.61623)">
    <path
       inkscape:connector-curvature="0"
       id="path4318"
       d=""
       style="fill:none;stroke:#000000;stroke-width:3.63904047px;stroke-linecap:round;stroke-linejoin:round;stroke-miterlimit:4;stroke-dasharray:none;stroke-opacity:1" />
    <g
       transform="matrix(3.5312629,0,0,-3.5312629,-219.55302,4289.638)"
       id="g5541">
      <text
         id="text4146"
         style="font-variant:normal;font-weight:900;font-stretch:normal;font-size:22.68350029px;font-family:'Arial Black';-inkscape-font-specification:Arial-Black;writing-mode:lr-tb;fill:#000000;fill-opacity:1;fill-rule:nonzero;stroke:none"
         transform="matrix(0.99999118,0,0,-1,63.2065,1148.6904)">
        <tspan
           id="tspan4148"
           sodipodi:role="line"
           y="0"
           x="0 17.647762">AL</tspan>
      </text>
      <g
         transform="translate(75.6626,1148.6904)"
         id="g4150">
        <path
           inkscape:connector-curvature="0"
           id="path4152"
           style="fill:none;stroke:#000000;stroke-width:0.25;stroke-linecap:butt;stroke-linejoin:miter;stroke-miterlimit:4;stroke-dasharray:none;stroke-opacity:1"
           d="m 0,0 5.254,0 -6.101,16.237 -5.473,0 L -12.423,0 -7.3,0 l 0.792,2.68 5.695,0 L 0,0 Z m -5.419,6.191 1.774,5.837 1.792,-5.837 -3.566,0 z" />
      </g>
      <g
         transform="translate(82.5112,1148.6904)"
         id="g4154">
        <path
           inkscape:connector-curvature="0"
           id="path4156"
           style="fill:none;stroke:#000000;stroke-width:0.25;stroke-linecap:butt;stroke-linejoin:miter;stroke-miterlimit:4;stroke-dasharray:none;stroke-opacity:1"
           d="m 0,0 12.848,0 0,3.999 -7.83,0 0,12.238 L 0,16.237 0,0 Z" />
      </g>
      <text
         id="text4158"
         style="font-variant:normal;font-weight:900;font-stretch:normal;font-size:22.68350029px;font-family:'Arial Black';-inkscape-font-specification:Arial-Black;writing-mode:lr-tb;fill:#7dbe1e;fill-opacity:1;fill-rule:nonzero;stroke:none"
         transform="matrix(0.99999118,0,0,-1,95.9795,1148.6904)">
        <tspan
           id="tspan4160"
           sodipodi:role="line"
           y="0"
           x="0 14.449389 31.68885 49.336613">PACK</tspan>
      </text>
      <g
         id="g4162">
        <g
           clip-path="url(#clipPath4166)"
           id="g4164">
          <g
             transform="translate(97.6187,1148.6904)"
             id="g4170">
            <path
               inkscape:connector-curvature="0"
               id="path4172"
               style="fill:none;stroke:#000000;stroke-width:0.25;stroke-linecap:butt;stroke-linejoin:miter;stroke-miterlimit:10;stroke-dasharray:none;stroke-opacity:1"
               d="m 0,0 5.04,0 0,6.025 2.746,0 c 2.024,0 3.528,0.462 4.514,1.385 0.986,0.923 1.478,2.204 1.478,3.843 0,1.595 -0.452,2.825 -1.357,3.688 -0.904,0.864 -2.264,1.296 -4.081,1.296 L 0,16.237 0,0 Z m 5.04,12.937 1.428,0 c 0.938,0 1.577,-0.178 1.916,-0.532 0.34,-0.354 0.51,-0.786 0.51,-1.296 0,-0.524 -0.196,-0.954 -0.587,-1.29 C 7.916,9.483 7.236,9.315 6.269,9.315 l -1.229,0 0,3.622 z" />
          </g>
          <g
             transform="translate(122.8896,1148.6904)"
             id="g4174">
            <path
               inkscape:connector-curvature="0"
               id="path4176"
               style="fill:none;stroke:#000000;stroke-width:0.25;stroke-linecap:butt;stroke-linejoin:miter;stroke-miterlimit:10;stroke-dasharray:none;stroke-opacity:1"
               d="m 0,0 5.254,0 -6.101,16.237 -5.473,0 L -12.423,0 -7.3,0 l 0.792,2.68 5.695,0 L 0,0 Z m -5.419,6.191 1.774,5.837 1.792,-5.837 -3.566,0 z" />
          </g>
          <g
             transform="translate(139.0698,1152.9878)"
             id="g4178">
            <path
               inkscape:connector-curvature="0"
               id="path4180"
               style="fill:none;stroke:#000000;stroke-width:0.25;stroke-linecap:butt;stroke-linejoin:miter;stroke-miterlimit:10;stroke-dasharray:none;stroke-opacity:1"
               d="m 0,0 c -0.491,-0.539 -1.216,-0.809 -2.176,-0.809 -0.99,0 -1.758,0.334 -2.304,1.002 -0.546,0.667 -0.82,1.901 -0.82,3.7 0,1.453 0.229,2.519 0.687,3.197 0.606,0.915 1.477,1.372 2.614,1.372 0.502,0 0.956,-0.104 1.362,-0.31 C -0.23,7.945 0.113,7.65 0.394,7.266 0.563,7.037 0.726,6.675 0.881,6.181 l 4.43,0.985 c -0.569,1.713 -1.438,2.983 -2.608,3.811 -1.171,0.826 -2.779,1.24 -4.824,1.24 -2.614,0 -4.635,-0.721 -6.064,-2.164 -1.429,-1.443 -2.143,-3.507 -2.143,-6.193 0,-2.015 0.406,-3.668 1.218,-4.959 0.813,-1.291 1.778,-2.193 2.897,-2.706 1.118,-0.513 2.56,-0.769 4.325,-0.769 1.454,0 2.653,0.21 3.594,0.631 0.941,0.421 1.73,1.045 2.365,1.872 0.635,0.827 1.1,1.857 1.395,3.09 L 1.069,2.348 C 0.848,1.322 0.491,0.539 0,0 Z" />
          </g>
          <g
             transform="translate(146.9946,1148.6904)"
             id="g4182">
            <path
               inkscape:connector-curvature="0"
               id="path4184"
               style="fill:none;stroke:#000000;stroke-width:0.25;stroke-linecap:butt;stroke-linejoin:miter;stroke-miterlimit:10;stroke-dasharray:none;stroke-opacity:1"
               d="m 0,0 5.017,0 0,3.962 2.592,2.716 3.424,-6.678 6.179,0 -6.191,10.108 5.925,6.129 -6.673,0 -5.256,-6.136 0,6.136 L 0,16.237 0,0 Z" />
          </g>
        </g>
      </g>
      <g
         transform="translate(32.8682,1162.5693)"
         id="g4186">
        <path
           inkscape:connector-curvature="0"
           id="path4188"
           style="fill:#f9f9f9;fill-opacity:1;fill-rule:nonzero;stroke:none"
           d="M 0,0 0,0 9.635,1.584" />
      </g>
      <g
         transform="translate(30.0176,1156.3481)"
         id="g4190">
        <path
           inkscape:connector-curvature="0"
           id="path4192"
           style="fill:#7dbe1e;fill-opacity:1;fill-rule:nonzero;stroke:none"
           d="m 0,0 -0.091,-2.985 -1.742,1.385 0,2.943 L 0,0 Z" />
      </g>
      <g
         transform="translate(30.0176,1156.3481)"
         id="g4194">
        <path
           inkscape:connector-curvature="0"
           id="path4196"
           style="fill:none;stroke:#020202;stroke-width:0.25;stroke-linecap:butt;stroke-linejoin:miter;stroke-miterlimit:10;stroke-dasharray:none;stroke-opacity:1"
           d="m 0,0 -0.091,-2.985 -1.742,1.385 0,2.943 L 0,0" />
      </g>
      <g
         transform="translate(29.9263,1153.377)"
         id="g4198">
        <path
           inkscape:connector-curvature="0"
           id="path4200"
           style="fill:#000000;fill-opacity:1;fill-rule:nonzero;stroke:none"
           d="M 0,0 1.824,0.414 1.895,1.543 0.087,2.841 0,0 Z" />
      </g>
      <g
         transform="translate(34.4937,1149.7363)"
         id="g4202">
        <path
           inkscape:connector-curvature="0"
           id="path4204"
           style="fill:#000000;fill-opacity:1;fill-rule:nonzero;stroke:none"
           d="M 0,0 1.757,0.488 1.827,1.618 0,2.877 0,0 Z" />
      </g>
      <g
         transform="translate(31.5532,1154.979)"
         id="g4206">
        <path
           inkscape:connector-curvature="0"
           id="path4208"
           style="fill:#7dbe1e;fill-opacity:1;fill-rule:nonzero;stroke:#020202;stroke-width:0.25;stroke-linecap:butt;stroke-linejoin:miter;stroke-miterlimit:10;stroke-dasharray:none;stroke-opacity:1"
           d="m 0,0 0,-2.905 2.94,-2.338 0,2.878 -2.833,2.282" />
      </g>
      <g
         transform="translate(38.2148,1149.6572)"
         id="g4210">
        <path
           inkscape:connector-curvature="0"
           id="path4212"
           style="fill:#7dbe1e;fill-opacity:1;fill-rule:nonzero;stroke:none"
           d="M 0,0 -0.031,-2.858 -2.087,-1.224 -1.999,1.609 0,0 Z" />
      </g>
      <g
         transform="translate(38.2148,1149.6572)"
         id="g4214">
        <path
           inkscape:connector-curvature="0"
           id="path4216"
           style="fill:none;stroke:#020202;stroke-width:0.25;stroke-linecap:butt;stroke-linejoin:miter;stroke-miterlimit:10;stroke-dasharray:none;stroke-opacity:1"
           d="M 0,0 -0.031,-2.858 -2.087,-1.224 -1.999,1.609 0,0" />
      </g>
      <g
         transform="translate(54.4199,1150.5161)"
         id="g4218">
        <path
           inkscape:connector-curvature="0"
           id="path4220"
           style="fill:#85cc28;fill-opacity:1;fill-rule:nonzero;stroke:none"
           d="M 0,0 -2.736,2.171 0,2.784 0,0 Z" />
      </g>
      <g
         transform="translate(54.4199,1150.5161)"
         id="g4222">
        <path
           inkscape:connector-curvature="0"
           id="path4224"
           style="fill:none;stroke:#020202;stroke-width:0.25;stroke-linecap:butt;stroke-linejoin:miter;stroke-miterlimit:10;stroke-dasharray:none;stroke-opacity:1"
           d="M 0,0 -2.736,2.171 0,2.784 0,0" />
      </g>
      <g
         transform="translate(56.6504,1153.7993)"
         id="g4226">
        <path
           inkscape:connector-curvature="0"
           id="path4228"
           style="fill:none;stroke:#000000;stroke-width:0.25;stroke-linecap:butt;stroke-linejoin:miter;stroke-miterlimit:10;stroke-dasharray:none;stroke-opacity:1"
           d="M 0,0 -18.518,-4.146" />
      </g>
      <g
         transform="translate(45.9551,1148.5757)"
         id="g4230">
        <path
           inkscape:connector-curvature="0"
           id="path4232"
           style="fill:#85cc28;fill-opacity:1;fill-rule:nonzero;stroke:none"
           d="M 0,0 -2.836,2.195 0.038,2.838 0,0 Z" />
      </g>
      <g
         transform="translate(45.9551,1148.5757)"
         id="g4234">
        <path
           inkscape:connector-curvature="0"
           id="path4236"
           style="fill:none;stroke:#020202;stroke-width:0.25;stroke-linecap:butt;stroke-linejoin:miter;stroke-miterlimit:10;stroke-dasharray:none;stroke-opacity:1"
           d="M 0,0 -2.836,2.195 0.038,2.838 0,0" />
      </g>
      <g
         transform="translate(38.1636,1149.6572)"
         id="g4238">
        <path
           inkscape:connector-curvature="0"
           id="path4240"
           style="fill:none;stroke:#000000;stroke-width:0.25;stroke-linecap:butt;stroke-linejoin:miter;stroke-miterlimit:10;stroke-dasharray:none;stroke-opacity:1"
           d="M 0,0 -0.031,-2.858 0,0 Z" />
      </g>
      <g
         transform="translate(49.0981,1152.0879)"
         id="g4242">
        <path
           inkscape:connector-curvature="0"
           id="path4244"
           style="fill:none;stroke:#000000;stroke-width:0.25;stroke-linecap:butt;stroke-linejoin:miter;stroke-miterlimit:10;stroke-dasharray:none;stroke-opacity:1"
           d="M 0,0 0,-2.804" />
      </g>
      <g
         transform="translate(38.1636,1149.6572)"
         id="g4246">
        <path
           inkscape:connector-curvature="0"
           id="path4248"
           style="fill:#000000;fill-opacity:1;fill-rule:nonzero;stroke:none"
           d="m 0,0 3.112,0.694 0,-2.84 L -0.031,-2.858 0,0 Z" />
      </g>
      <g
         transform="translate(45.9863,1151.4336)"
         id="g4250">
        <path
           inkscape:connector-curvature="0"
           id="path4252"
           style="fill:#000000;fill-opacity:1;fill-rule:nonzero;stroke:none"
           d="m 0,0 3.112,0.695 0,-2.841 L -0.031,-2.858 0,0 Z" />
      </g>
      <g
         transform="translate(54.4199,1153.2998)"
         id="g4254">
        <path
           inkscape:connector-curvature="0"
           id="path4256"
           style="fill:#000000;fill-opacity:1;fill-rule:nonzero;stroke:none"
           d="m 0,0 2.23,0.5 0,-2.778 L 0,-2.784 0,0 Z" />
      </g>
      <g
         transform="translate(56.6504,1153.7993)"
         id="g4258">
        <path
           inkscape:connector-curvature="0"
           id="path4260"
           style="fill:none;stroke:#000000;stroke-width:0.25;stroke-linecap:butt;stroke-linejoin:miter;stroke-miterlimit:10;stroke-dasharray:none;stroke-opacity:1"
           d="M 0,0 -8.374,4.319" />
      </g>
      <g
         transform="translate(28.1851,1157.6909)"
         id="g4262">
        <path
           inkscape:connector-curvature="0"
           id="path4264"
           style="fill:#7dbe1e;fill-opacity:1;fill-rule:nonzero;stroke:none"
           d="m 0,0 0.124,13.704 4.517,-2.974 0.232,-6.414 5.106,-3.51 0,-8.84 L 0,0 Z" />
      </g>
      <g
         transform="translate(28.1851,1157.6909)"
         id="g4266">
        <path
           inkscape:connector-curvature="0"
           id="path4268"
           style="fill:none;stroke:#020202;stroke-width:0.25;stroke-linecap:butt;stroke-linejoin:miter;stroke-miterlimit:10;stroke-dasharray:none;stroke-opacity:1"
           d="m 0,0 0.124,13.704 4.517,-2.974 0.232,-6.414 5.106,-3.51 0,-8.84 L 0,0 Z" />
      </g>
      <g
         transform="translate(38.1636,1158.4966)"
         id="g4270">
        <path
           inkscape:connector-curvature="0"
           id="path4272"
           style="fill:#000000;fill-opacity:1;fill-rule:nonzero;stroke:none"
           d="m 0,0 0,-8.839 9.84,2.237 0,8.52 L 0,0 Z" />
      </g>
      <g
         transform="translate(42.6045,1163.9063)"
         id="g4282">
        <path
           inkscape:connector-curvature="0"
           id="path4284"
           style="fill:#000000;fill-opacity:1;fill-rule:nonzero;stroke:none"
           d="m 0,0 c 0.279,-0.151 0.546,-0.352 0.834,-0.54 0.083,-0.054 0.633,-0.38 0.7,-0.452 0.192,-0.117 0.293,-0.177 0.476,-0.307 0.733,-0.522 2.061,-1.329 2.902,-1.877 0,0 0.487,-0.314 0.487,-0.315 C 5.348,-4.71 5.278,-4.636 5.295,-5.872 l 0.434,0.038 0,6.926 L 0,0 Z" />
      </g>
      <g
         transform="translate(32.8262,1168.4009)"
         id="g4286">
        <path
           inkscape:connector-curvature="0"
           id="path4288"
           style="fill:#000000;fill-opacity:1;fill-rule:nonzero;stroke:none"
           d="M 0,0 0.231,-6.394 9.84,-4.495 9.813,1.938 0,0 Z" />
      </g>
      <g
         transform="translate(44.3926,1167.5654)"
         id="g4290">
        <path
           inkscape:connector-curvature="0"
           id="path4292"
           style="fill:#231f20;fill-opacity:1;fill-rule:nonzero;stroke:#000000;stroke-width:0.25;stroke-linecap:butt;stroke-linejoin:miter;stroke-miterlimit:10;stroke-dasharray:none;stroke-opacity:1"
           d="M 0,0 3.94,-2.567" />
      </g>
      <g
         transform="translate(42.6167,1167.2993)"
         id="g4294">
        <path
           inkscape:connector-curvature="0"
           id="path4296"
           style="fill:#231f20;fill-opacity:1;fill-rule:nonzero;stroke:#000000;stroke-width:0.25;stroke-linecap:butt;stroke-linejoin:miter;stroke-miterlimit:10;stroke-dasharray:none;stroke-opacity:1"
           d="M 0,0 1.776,0.266" />
      </g>
      <g
         transform="translate(28.3506,1171.3691)"
         id="g4298">
        <path
           inkscape:connector-curvature="0"
           id="path4300"
           style="fill:#231f20;fill-opacity:1;fill-rule:nonzero;stroke:#000000;stroke-width:0.25;stroke-linecap:butt;stroke-linejoin:miter;stroke-miterlimit:10;stroke-dasharray:none;stroke-opacity:1"
           d="M 0,0 9.466,1.858" />
      </g>
      <g
         transform="translate(42.6045,1163.9063)"
         id="g4302">
        <path
           inkscape:connector-curvature="0"
           id="path4304-7"
           style="fill:none;stroke:#000000;stroke-width:0.25;stroke-linecap:butt;stroke-linejoin:miter;stroke-miterlimit:10;stroke-dasharray:none;stroke-opacity:1"
           d="M 0,0 5.399,-3.491" />
      </g>
      <g
         transform="translate(37.8169,1173.2271)"
         id="g4306">
        <path
           inkscape:connector-curvature="0"
           id="path4308-5"
           style="fill:none;stroke:#000000;stroke-width:0.25;stroke-linecap:butt;stroke-linejoin:miter;stroke-miterlimit:10;stroke-dasharray:none;stroke-opacity:1"
           d="M 0,0 4.773,-2.884" />
      </g>
    </g>
  </g>
</svg>
