<?xml version="1.0" encoding="UTF-8" standalone="no"?>
<!-- Created with Inkscape (http://www.inkscape.org/) -->

<svg
   xmlns:dc="http://purl.org/dc/elements/1.1/"
   xmlns:cc="http://creativecommons.org/ns#"
   xmlns:rdf="http://www.w3.org/1999/02/22-rdf-syntax-ns#"
   xmlns:svg="http://www.w3.org/2000/svg"
   xmlns="http://www.w3.org/2000/svg"
   xmlns:sodipodi="http://sodipodi.sourceforge.net/DTD/sodipodi-0.dtd"
   xmlns:inkscape="http://www.inkscape.org/namespaces/inkscape"
   width="800mm"
   height="800mm"
   viewBox="0 0 2834.6457 2834.6457"
   id="svg2"
   version="1.1"
   inkscape:version="0.91 r13725"
   sodipodi:docname="barnafi_krause.svg">
  <defs
     id="defs4">
    <clipPath
       id="clipPath4154"
       clipPathUnits="userSpaceOnUse">
      <path
         inkscape:connector-curvature="0"
         id="path4156"
         d="M 0,792 612,792 612,0 0,0 0,792 Z" />
    </clipPath>
    <clipPath
       id="clipPath4879"
       clipPathUnits="userSpaceOnUse">
      <path
         inkscape:connector-curvature="0"
         id="path4881"
         d="m 0,784.567 793.701,0 L 793.701,0 0,0 0,784.567 Z" />
    </clipPath>
    <clipPath
       id="clipPath5009"
       clipPathUnits="userSpaceOnUse">
      <path
         inkscape:connector-curvature="0"
         id="path5011"
         d="m -336.46,98.8652 672.92,0 0,-197.7314 -672.92,0 0,197.7314 z" />
    </clipPath>
    <clipPath
       id="clipPath9212"
       clipPathUnits="userSpaceOnUse">
      <path
         inkscape:connector-curvature="0"
         id="path9214"
         d="m 0,335 516.475,0 0,-335 L 0,0 0,335 Z" />
    </clipPath>
    <clipPath
       id="clipPath9340"
       clipPathUnits="userSpaceOnUse">
      <path
         inkscape:connector-curvature="0"
         id="path9342"
         d="m -336.46,98.8652 672.92,0 0,-197.7314 -672.92,0 0,197.7314 z" />
    </clipPath>
    <pattern
       y="0"
       x="0"
       height="6"
       width="6"
       patternUnits="userSpaceOnUse"
       id="EMFhbasepattern" />
    <pattern
       y="0"
       x="0"
       height="6"
       width="6"
       patternUnits="userSpaceOnUse"
       id="EMFhbasepattern-3" />
    <pattern
       y="0"
       x="0"
       height="6"
       width="6"
       patternUnits="userSpaceOnUse"
       id="EMFhbasepattern-30" />
    <pattern
       y="0"
       x="0"
       height="6"
       width="6"
       patternUnits="userSpaceOnUse"
       id="EMFhbasepattern-37" />
    <pattern
       y="0"
       x="0"
       height="6"
       width="6"
       patternUnits="userSpaceOnUse"
       id="EMFhbasepattern-5" />
    <pattern
       y="0"
       x="0"
       height="6"
       width="6"
       patternUnits="userSpaceOnUse"
       id="EMFhbasepattern-7" />
    <pattern
       y="0"
       x="0"
       height="6"
       width="6"
       patternUnits="userSpaceOnUse"
       id="EMFhbasepattern-9" />
  </defs>
  <sodipodi:namedview
     id="base"
     pagecolor="#ffffff"
     bordercolor="#666666"
     borderopacity="1.0"
     inkscape:pageopacity="0.0"
     inkscape:pageshadow="2"
     inkscape:zoom="0.095550465"
     inkscape:cx="34.711162"
     inkscape:cy="2767.8517"
     inkscape:document-units="px"
     inkscape:current-layer="layer1"
     showgrid="false"
     inkscape:window-width="1920"
     inkscape:window-height="1138"
     inkscape:window-x="1352"
     inkscape:window-y="-8"
     inkscape:window-maximized="1"
     showguides="true"
     inkscape:guide-bbox="true">
    <sodipodi:guide
       position="1369.773,1440.4552"
       orientation="0,1"
       id="guide11511" />
    <sodipodi:guide
       position="957.86614,1440.4552"
       orientation="1,0"
       id="guide11513" />
    <sodipodi:guide
       position="2790.7296,1355.149"
       orientation="1,0"
       id="guide11515" />
  </sodipodi:namedview>
  <metadata
     id="metadata7">
    <rdf:RDF>
      <cc:Work
         rdf:about="">
        <dc:format>image/svg+xml</dc:format>
        <dc:type
           rdf:resource="http://purl.org/dc/dcmitype/StillImage" />
        <dc:title></dc:title>
      </cc:Work>
    </rdf:RDF>
  </metadata>
  <g
     inkscape:label="Capa 1"
     inkscape:groupmode="layer"
     id="layer1"
     transform="translate(0,1782.2835)">
    <flowRoot
       xml:space="preserve"
       id="flowRoot4823"
       style="fill:black;stroke:none;stroke-opacity:1;stroke-width:1px;stroke-linejoin:miter;stroke-linecap:butt;fill-opacity:1;font-family:sans-serif;font-style:normal;font-weight:normal;font-size:40px;line-height:125%;letter-spacing:0px;word-spacing:0px"><flowRegion
         id="flowRegion4825"><rect
           id="rect4827"
           width="1321.4423"
           height="148.09267"
           x="497.43948"
           y="2621.9998" /></flowRegion><flowPara
         id="flowPara4829" /></flowRoot>    <flowRoot
       xml:space="preserve"
       id="flowRoot8594"
       style="fill:black;stroke:none;stroke-opacity:1;stroke-width:1px;stroke-linejoin:miter;stroke-linecap:butt;fill-opacity:1;font-family:sans-serif;font-style:normal;font-weight:normal;font-size:40px;line-height:125%;letter-spacing:0px;word-spacing:0px"><flowRegion
         id="flowRegion8596"><rect
           id="rect8598"
           width="617.56378"
           height="118.14263"
           x="-177.21394"
           y="2533.9189" /></flowRegion><flowPara
         id="flowPara8600" /></flowRoot>    <path
       inkscape:connector-curvature="0"
       id="path13061"
       d=""
       style="fill:#858383;fill-opacity:1;fill-rule:nonzero;stroke:none" />
    <path
       inkscape:connector-curvature="0"
       id="path13065"
       d=""
       style="fill:#858383;fill-opacity:1;fill-rule:nonzero;stroke:none" />
    <path
       inkscape:connector-curvature="0"
       id="path13069"
       d=""
       style="fill:#858383;fill-opacity:1;fill-rule:nonzero;stroke:none" />
    <path
       inkscape:connector-curvature="0"
       id="path13073"
       d=""
       style="fill:#858383;fill-opacity:1;fill-rule:nonzero;stroke:none" />
    <rect
       style="opacity:1;fill:none;fill-opacity:1;stroke:#0056ca;stroke-width:9.95265865;stroke-miterlimit:4;stroke-dasharray:none;stroke-opacity:1"
       id="rect5186"
       width="2824.2664"
       height="2824.3989"
       x="6.0908523"
       y="-1776.3434" />
    <g
       id="g4488"
       transform="matrix(0.73082028,0,0,0.73082028,917.59752,227.48062)">
      <circle
         style="fill:#19b6ec;fill-opacity:1;fill-rule:evenodd;stroke:none"
         cx="-117.87321"
         cy="-1297.9889"
         id="ellipse4402"
         r="274.82373" />
      <path
         style="fill:#19b6ec;fill-opacity:1;fill-rule:evenodd;stroke:none"
         d=""
         id="path4404"
         inkscape:connector-curvature="0" />
      <path
         style="fill:#002f59;fill-opacity:1;fill-rule:nonzero;stroke:none"
         d="m -492.8265,-2109.4143 21.50815,-9.5194 21.85811,-9.1666 21.85812,-8.461 22.56648,-7.7583 22.56367,-7.4027 22.91645,-7.0527 46.89122,-11.6332 23.622,-4.9361 23.97478,-4.2305 23.97195,-3.5249 24.32756,-3.175 24.32755,-2.4667 25.03311,-1.4111 24.67751,-1.0583 25.03312,-0.3528 44.774552,1.0584 22.21371,1.4111 21.85811,1.761 43.71627,5.2889 42.6607,7.4055 42.3079,9.5193 41.249598,11.6332 20.4498,6.3472 20.0971,6.6972 20.0942,7.4055 19.7443,7.7554 19.3914,8.4611 19.3915,8.8138 37.7247,18.6859 36.6663,20.4498 17.9804,10.5777 17.6276,11.2804 34.5524,23.622 16.9221,12.6944 16.2193,12.6915 32.083,26.7942 15.5109,13.7499 15.5138,14.4554 14.8082,14.4554 14.4554,15.161 28.2053,30.6719 13.3971,15.8665 13.0443,16.2165 25.0331,33.4941 23.622,34.5525 11.2804,17.9804 10.5777,17.9804 20.447,36.6663 18.336,38.0774 8.8138,19.0387 8.1083,19.7415 14.8082,39.4885 7.0499,20.4498 6.3471,20.447 5.6417,20.4498 5.6388,20.7998 4.5833,21.1554 4.5832,21.1525 3.8806,21.5082 3.1722,21.5053 3.1722,21.5054 2.1166,21.8609 3.1722,44.4218 0,-150.193 0,-149.8374 0,-150.1931 0,-149.8402 0,-150.1931 0,-149.8402 0,-150.1911 0,-149.8398 257.72528,0 258.0753,0 0,150.1923 0,150.5442 0,150.193 0,150.5458 0,150.1902 0,150.5458 0,150.193 0,150.5458 120.5766,-158.3013 120.9323,-157.9513 120.9294,-158.3012 120.9294,-157.9485 154.765,0 154.7989,0 154.7706,0 154.7707,0 -149.4931,173.815 -149.1262,173.815 -149.4931,173.8122 -149.1347,173.815 143.8571,215.7702 143.8487,215.76743 143.8204,215.7701 144.2156,216.123 -146.6709,0 -146.6709,0 -146.6709,0 -146.6596,0 -123.7488,-211.1869 -123.3988,-211.1869 -123.7488,-211.18403 -123.3989,-210.8342 0,210.8342 0,211.18403 0,211.1869 0,211.1869 -258.0753,0 -257.72528,0 0,-212.2452 0,-211.8896 0,-211.89253 0,-211.8896 -1.4111,22.2109 -1.7611,21.8581 -2.1166,22.2109 -3.1722,21.5081 -3.1722,21.5054 -3.8806,21.5081 -9.1665,42.308 -5.6388,20.7997 -5.6417,20.4499 -13.397,40.544 -7.0528,20.09703 -7.7554,19.7415 -8.1083,19.7443 -8.8138,19.0387 -9.1666,19.0387 -9.1694,19.0387 -10.2221,18.3331 -10.2249,18.3332 -21.8581,35.608 -23.622,34.9052 -25.0331,33.1414 -13.0443,16.5692 -13.3971,15.8666 -14.1026,15.5109 -14.1027,15.161 -14.4554,15.161 -14.8082,14.4554 -31.0247,28.2053 -32.083,26.7942 -33.1414,25.0331 -17.2776,12.3387 -17.2748,11.636 -17.6276,10.9277 -17.9804,10.9305 -36.6663,20.447 -18.686,9.5193 -19.0387,9.1666 -19.3915,8.8166 -19.3914,8.1083 -19.7443,8.1082 -20.0942,7.0527 -40.5469,13.3971 -20.447,5.9916 -20.802598,5.6416 -21.1526,4.9361 -21.1553,4.2305 -21.1526,4.2305 -21.5081,3.5278 -21.8581999,2.8194 -21.8580701,2.4666 -21.85811,1.7639 -22.21371,1.4111 -44.774552,1.0555 -12.33876,0 0,-258.428 0,-258.4309 12.33876,0.3527 19.391482,-0.7027 19.03872,-1.4111 19.03871,-2.4694 18.68593,-3.1722 17.98038,-4.2305 17.9804201,-4.9361 17.6275999,-5.9944 16.922,-6.6971 16.9249,-7.7583 16.2165,-8.1083 15.8665,-9.1665 15.161,-9.8722 14.805298,-10.5748 14.4555,-11.28333 13.3971,-11.636 13.3999,-12.6915 12.3387,-13.0444 11.986,-13.7498 10.9305,-14.1027 10.5777,-14.8082 9.8721,-15.1609 9.1666,-15.8638 8.1082,-16.2193 7.7555,-16.922 6.6999,-16.9221 5.9944,-17.6304 4.9333,-17.9804 4.2333,-17.9803 1.7611,-9.5194 1.4111,-9.1666 2.4666,-19.0387 1.4111,-19.0387 0.7056,-19.3915 -0.7056,-19.3886 -1.4111,-19.0388 -2.4666,-19.0387 -3.1722,-18.6859 -4.2333,-17.9804 -4.9333,-17.9832 -5.9944,-17.6276 -6.6999,-16.922 -7.7555,-16.9221 -8.1082,-16.2193 -9.1666,-15.8665 -9.8721,-15.1582 -10.5777,-14.8082 -10.9305,-14.1026 -11.986,-13.7499 -12.3387,-13.0443 -13.3999,-12.6943 -13.3971,-11.6332 -14.4555,-11.2833 -14.805298,-10.5748 -15.161,-9.8722 -15.8665,-9.1665 -16.2165,-8.1111 -16.9249,-7.7555 -16.922,-6.6971 -17.6275999,-5.9944 -17.9804201,-4.9361 -17.98038,-4.2305 -9.51936,-1.7639 -9.16657,-1.4111 -19.03871,-2.4666 -19.03872,-1.4111 -19.391482,-0.7056 -18.33316,0.3528 -17.98038,1.4111 -17.6276,2.1167 -17.63042,2.8194 -17.27482,3.8777 -16.92205,4.5833 -16.57209,5.2888 -16.21648,5.9944 -15.86654,6.6972 -15.51375,7.4055 -15.15816,8.1082 -14.45542,8.4611 -14.45542,9.5193 -13.74987,9.8721 -13.39709,10.5777 -12.69435,11.2805 -12.33876,11.636 -11.6332,12.3387 -11.28324,12.6916 -10.57769,13.3999 -10.22491,13.7498 -9.16658,14.1027 -8.8138,14.8053 -8.10825,15.161 -7.75546,15.161 -6.69996,15.8637 -5.9944,16.2193 -5.28602,16.5693 -4.58329,16.9249 -3.88056,17.2748 -2.8194,17.6276 -2.11666,17.6304 0,30.6719 -259.83833,0 -259.48727,0 0,-154.4235 0,-154.4235 0,-154.4236 0,-154.0679 0,-154.4236 0,-154.0707 0,-154.4238 0,-154.0705 259.48727,0 259.83833,0 0,214.7116 0,215.0649 z"
         id="path4406"
         inkscape:connector-curvature="0" />
      <path
         style="fill:#002f59;fill-opacity:1;fill-rule:evenodd;stroke:none"
         d="m -927.53678,32.059727 11.28212,0.7055 10.57684,1.4083 19.03843,3.8806 8.46159,2.8194 8.10909,3.5249 7.40381,3.8778 6.69883,4.5832 5.99355,5.2889 5.64106,5.6416 4.58329,6.3472 3.87802,6.3443 3.1733,7.0528 2.82053,7.4027 1.76276,7.7583 1.41027,8.108203 -1.05777,13.3971 -0.70499,5.9944 -1.41027,5.6388 -3.5258,10.5777 -4.93578,9.1666 -5.99356,8.461 -6.69882,7.0527 -7.40382,6.3444 -8.10909,4.936 7.05132,1.4111 6.69883,2.1167 6.34604,2.1139 5.64106,3.175 4.93579,3.1721 4.58357,3.8778 4.23079,4.5833 3.52552,4.936 5.64106,10.9305 2.11525,6.3443 1.76305,6.3472 2.46775,14.1027 0.70527,7.4027 0,8.111 -0.35278,7.7555 -1.05748,7.4027 -2.11554,7.4055 -2.82053,7.0555 -3.52552,6.6887 -4.58329,6.7169 -5.28856,6.3218 -5.99355,6.35 -6.69883,6.0113 -7.40382,4.9389 -8.10881,4.2051 -8.46158,3.5278 -9.16658,2.4835 -9.87185,1.7498 -10.57713,1.4111 -11.28183,0.3669 -97.66033,-1.0724 0,-152.3012 0,-151.954103 78.26912,0 z m -49.35897,158.301203 0,117.0545 71.57071,0 1.76276,0.7056 1.76276,0 2.11525,0 2.11554,-0.3669 4.93579,-0.7056 4.93606,-1.0442 9.51908,-2.8222 4.58328,-2.1167 4.58358,-2.4553 8.4613,-6.0113 3.8783,-3.5278 3.5258,-4.2334 2.82025,-4.222 2.11553,-5.286 1.76276,-5.2889 1.41027,-5.9944 0.70527,-6.6999 0.3525,-6.6972 -0.3525,-7.4055 -1.05777,-6.6971 -1.76276,-5.9944 -2.46803,-5.9944 -2.82053,-5.286 -3.8783,-4.9361 -4.23079,-4.2305 -4.93578,-3.8806 -5.99356,-3.5249 -5.99355,-2.8194 -6.34633,-2.8222 -6.69855,-2.1139 -14.45514,-2.4694 -8.10909,-0.7028 -8.1088,-0.3527 -55.70531,-1.0584 z m 0,-129.743203 0,101.185203 52.532,0 11.63461,0.3527 10.92962,-1.4111 10.57684,-2.8194 9.87185,-3.8777 4.23079,-2.8222 3.8783,-3.525 3.52552,-4.2305 2.82053,-5.2888 2.46803,-5.6417 2.11526,-6.6971 2.11554,-15.5137 0,-7.4027 -1.05777,-6.347203 -2.82053,-10.9305 -2.11526,-4.5833 -2.82052,-3.8777 -3.17331,-3.1722 -3.52552,-2.4694 -4.23079,-2.4666 -4.2308,-2.1167 -9.87185,-2.8194 -11.28183,-1.7639 -12.33988,-0.7056 -59.23083,-1.0555 z"
         id="path4408"
         inkscape:connector-curvature="0" />
      <path
         style="fill:#002f59;fill-opacity:1;fill-rule:evenodd;stroke:none"
         d="m -662.76097,32.059727 34.90242,0 64.87443,151.954103 64.8716,152.3012 -31.73307,0 -41.95516,-103.6461 -150.1902,0 -41.6035,103.6461 -32.08331,0 66.2813,-152.3012 66.63549,-151.954103 z m 16.21649,28.558 -62.40216,142.787503 124.10158,0 -61.69942,-142.787503 z"
         id="path4410"
         inkscape:connector-curvature="0" />
      <path
         style="fill:#002f59;fill-opacity:1;fill-rule:evenodd;stroke:none"
         d="m -458.27404,336.31503 0,-152.3012 0,-151.954103 74.74374,0 17.98038,1.0583 16.57208,1.4083 15.15816,2.4694 13.74987,3.1722 11.9888,4.2305 10.92764,4.9361 9.16658,5.6416 4.23333,3.1722 3.52496,3.5249 7.04991,7.4056 5.64162,7.4026 4.93607,7.4056 4.23051,7.7554 3.17218,8.1083 2.46944,8.111003 1.41111,8.1083 0.70274,8.461 0,1.0583 0,0.7056 0,0.7027 0,0.3528 0,5.6416 -1.40829,11.2833 -2.11667,10.5748 -2.8194,9.5194 -3.17218,8.8166 -4.23333,7.7555 -4.23051,7.0499 -2.8194,3.5278 -2.46945,3.1721 -5.6388,5.6417 -6.34717,4.5833 -6.69996,4.2305 -7.40269,3.5249 -8.10824,2.8194 -8.46103,2.1167 -8.8138,1.7639 -9.51935,1.0555 -9.87213,0 87.78804,115.9877 -35.96076,0 -104.36013,-139.2569 29.26362,-0.3528 13.04431,-0.7027 11.6332,-1.4112 10.57769,-1.7638 9.16658,-2.1139 8.46102,-2.8222 7.05274,-2.8194 5.9944,-3.8777 5.28602,-4.2306 4.58329,-5.2888 4.23051,-5.9944 3.175,-6.6971 2.46662,-7.4055 1.76389,-8.4611 1.05833,-9.5193 0,-9.5194 -0.70555,-8.461 -1.05834,-7.7555 -2.46662,-7.0527 -3.175,-6.697103 -2.11384,-2.8223 -2.11667,-3.1721 -4.93607,-5.2889 -5.99157,-4.5833 -7.05274,-4.2305 -7.40269,-3.5249 -8.11106,-3.175 -8.10825,-2.8194 -8.10824,-2.1167 -8.8138,-1.7611 -8.8138,-1.0583 -18.33316,-1.0583 -52.18006,-1.0584 0,278.872303 -29.26363,0 z"
         id="path4412"
         inkscape:connector-curvature="0" />
      <path
         style="fill:#002f59;fill-opacity:1;fill-rule:evenodd;stroke:none"
         d="m -175.87119,336.31503 -31.73025,0 0,-152.3012 0,-151.954103 38.4302,0 175.9288621,253.144803 0,-253.144803 28.9108999,0 0,151.954103 0,152.3012 -32.0830999,0 -179.4566121,-265.825103 0,265.825103 z"
         id="path4414"
         inkscape:connector-curvature="0" />
      <path
         style="fill:#002f59;fill-opacity:1;fill-rule:evenodd;stroke:none"
         d="m 208.77792,32.059727 35.2552,0 64.8716,151.954103 64.8716,152.3012 -31.7302,0 -42.308,-103.6461 -149.8402,0 -41.6024,103.6461 -32.435798,0 66.282698,-152.3012 66.6355,-151.954103 z m 16.2165,28.558 -62.4021,142.787503 124.4543,0 -62.0522,-142.787503 z"
         id="path4416"
         inkscape:connector-curvature="0" />
      <path
         style="fill:#002f59;fill-opacity:1;fill-rule:evenodd;stroke:none"
         d="m 413.61762,336.31503 0,-152.3012 0,-151.954103 155.4791,0 0,28.558 -126.5682,0 0,113.876703 123.396,0 0,25.7387 -123.396,0 0,136.0819 -28.9109,0 z"
         id="path4418"
         inkscape:connector-curvature="0" />
      <path
         style="fill:#002f59;fill-opacity:1;fill-rule:evenodd;stroke:none"
         d="m 647.01542,336.31503 -32.4358,0 0,-152.3012 0,-151.954103 32.4358,0 0,151.954103 0,152.3012 z"
         id="path4420"
         inkscape:connector-curvature="0" />
      <path
         style="fill:#002f59;fill-opacity:1;fill-rule:evenodd;stroke:none"
         d="m 920.25172,336.31503 0,-152.3012 0,-151.954103 29.2636,0 0,171.345503 139.26258,-171.345503 35.9607,0 -116.6989,145.609703 119.8711,158.6456 -39.1329,0 -101.18518,-136.0819 -38.0774,49.3578 0,86.7241 -32.4358,0 3.1722,0 z"
         id="path4422"
         inkscape:connector-curvature="0" />
      <path
         style="fill:#002f59;fill-opacity:1;fill-rule:evenodd;stroke:none"
         d="m 1160.3466,336.31503 0,-152.3012 0,-151.954103 74.7437,0 17.9832,1.0583 16.5693,1.4083 15.161,2.4694 13.7498,3.1722 11.986,4.2305 10.9305,4.9361 9.1666,5.6416 4.2305,3.1722 3.5249,3.5249 7.0528,7.4056 5.6416,7.4026 4.9332,7.4056 4.2334,7.7554 3.1721,8.1083 2.4667,8.111003 1.4111,8.1083 0.7055,8.461 0,1.0583 0,0.7056 0,0.7027 0,0.3528 0,5.6416 -1.4111,11.2833 -2.1138,10.5748 -2.8223,9.5194 -3.1721,8.8166 -4.2305,7.7555 -4.2306,7.0499 -2.8222,3.5278 -2.4666,3.1721 -5.6416,5.6417 -6.3472,4.5833 -6.6971,4.2305 -7.4055,3.5249 -8.1083,2.8194 -8.461,2.1167 -8.8138,1.7639 -9.5194,1.0555 -9.8721,0 87.788,115.9877 -35.9607,0 -104.3601,-139.2569 29.2636,-0.3528 13.0443,-0.7027 11.636,-1.4112 10.5777,-1.7638 9.1666,-2.1139 8.461,-2.8222 7.0499,-2.8194 5.9944,-3.8777 5.2889,-4.2306 4.5832,-5.2888 4.2306,-5.9944 3.1721,-6.6971 2.4695,-7.4055 1.761,-8.4611 1.0584,-9.5193 0,-9.5194 -0.7056,-8.461 -1.0583,-7.7555 -2.4666,-7.0527 -3.1722,-6.697103 -2.1167,-2.8223 -2.1138,-3.1721 -4.9361,-5.2889 -5.9944,-4.5833 -7.0527,-4.2305 -7.4027,-3.5249 -8.1083,-3.175 -8.1082,-2.8194 -8.1111,-2.1167 -8.8138,-1.7611 -8.8138,-1.0583 -18.6859,-1.0583 -51.8273,-1.0584 0,278.872303 -29.2636,0 z"
         id="path4424"
         inkscape:connector-curvature="0" />
      <path
         style="fill:#002f59;fill-opacity:1;fill-rule:evenodd;stroke:none"
         d="m 1515.0265,32.059727 34.9053,0 64.8716,151.954103 64.8716,152.3012 -31.7303,0 -41.9551,-103.6461 -150.193,0 -41.6024,103.6461 -32.083,0 66.2827,-152.3012 66.6326,-151.954103 z m 16.2194,28.558 -62.405,142.787503 124.1044,0 -61.6994,-142.787503 z"
         id="path4426"
         inkscape:connector-curvature="0" />
      <path
         style="fill:#002f59;fill-opacity:1;fill-rule:evenodd;stroke:none"
         d="m 1722.6885,239.71883 0,-207.659103 32.4358,0 0,211.184003 0.3528,7.7583 1.0555,7.7555 1.4111,7.0527 2.4694,6.3444 1.4083,3.175 1.4111,2.8194 3.8778,5.6444 4.5832,5.2776 4.9361,4.9389 5.6416,3.8946 5.9944,3.8665 5.6388,2.8222 5.9944,2.8222 6.3472,1.7498 6.3359,1.778 6.35,1.0442 6.35,0.3669 0.7056,0 0.7055,0 0.7056,0 0.7055,0 0.7056,0 1.0442,0 1.0724,0 5.9832,-0.3669 6.0113,-1.0442 5.9831,-1.4111 5.9831,-2.1167 6.0113,-2.4835 5.6445,-2.8223 5.2775,-3.4995 4.9389,-4.2333 5.2776,-4.6003 4.2333,-4.9389 3.5278,-5.2775 3.1891,-6.3472 2.1167,-6.3472 1.7498,-7.0499 1.0724,-7.7554 0.3387,-8.1111 0,-211.889603 32.0886,0 0,211.184003 -0.3669,11.6361 -1.7497,11.2832 -2.4836,10.2221 -3.5278,9.525 -4.572,9.1722 -5.6444,8.0998 -6.6887,7.7611 -7.7611,7.0556 -8.0998,5.9831 -8.4666,5.2775 -4.2334,2.1167 -4.2333,2.1167 -8.8053,3.5277 -9.1723,2.8223 -9.5108,2.1166 -9.1723,1.0725 -9.8777,0.7055 -0.7056,0 -0.3387,0 -0.7055,0 -0.3669,0 -0.3387,0 -9.1722,-0.7055 -8.4667,-1.0725 -8.461,-1.7498 -8.4638,-2.8222 -8.1083,-3.1891 -8.1082,-4.2333 -7.7555,-4.9389 -7.7583,-5.6162 -7.0499,-6.7169 -6.3472,-7.7611 -5.6416,-8.4385 -4.5833,-9.1722 -3.8777,-10.2306 -3.1722,-11.2804 -2.1167,-11.9888 -1.761,-13.0443 0,-1.0583 z"
         id="path4428"
         inkscape:connector-curvature="0" />
      <path
         style="fill:#002f59;fill-opacity:1;fill-rule:evenodd;stroke:none"
         d="m 1997.3246,249.59093 1.4111,7.4055 1.778,7.0499 4.572,12.6916 2.8222,5.2888 3.1891,4.9276 3.5278,4.2333 3.8664,3.5278 4.2334,3.5278 3.8664,2.8222 8.4667,4.2334 9.1722,3.1608 9.5109,1.4112 0.3669,0 1.0442,0 0.7056,0 1.0724,0 11.6276,-0.7056 5.6444,-1.4111 5.2776,-1.7498 5.2775,-2.4835 5.3058,-2.794 4.9389,-3.5278 4.9389,-3.8947 4.572,-4.2333 3.8664,-4.572 6.35,-9.5222 2.1167,-5.2888 1.778,-5.2889 0.7055,-5.6416 0.3387,-5.9944 -0.3387,-4.5833 -0.7055,-4.9361 -0.7056,-4.9332 -1.4111,-5.2889 -0.7055,-1.7638 -0.3669,-1.4112 -0.7056,-1.4082 -0.7055,-1.7639 -0.7056,-1.7639 -0.7056,-1.7611 -0.7055,-1.4111 -1.0442,-1.4111 -3.5278,-4.5833 -2.1167,-2.4666 -2.4553,-2.1167 -5.6445,-3.8777 -6.0113,-3.525 -13.7442,-5.2888 -14.8167,-5.2889 -2.0884,-0.7055 -2.1167,-0.7028 -2.4835,0 -2.1167,-0.7055 -3.8665,-1.7639 -4.6002,-1.0583 -12.6718,-4.9361 -12.3613,-5.6388 -11.9662,-7.0527 -11.2889,-8.1083 -5.3058,-4.936 -4.572,-5.6417 -3.5278,-6.3471 -3.1608,-7.4027 -2.4836,-8.1083 -1.7498,-9.1666 -1.0724,-9.8721 -0.3387,-10.5777 0.3387,-8.108203 1.4111,-8.1083 2.1167,-7.0527 2.8222,-7.0499 3.8946,-6.3472 4.2334,-5.6416 5.2775,-5.2889 6.35,-4.5832 6.6887,-4.2306 6.7169,-3.8777 7.0273,-3.1722 7.4225,-2.4694 7.3942,-2.1139 7.3942,-1.4111 15.5222,-1.0583 7.0556,0 6.6887,1.0583 6.7168,1.0584 6.3218,2.1138 6.0114,2.1167 5.6444,2.8194 5.6444,3.5278 5.2776,3.8777 9.5109,8.461 8.128,9.1666 6.6887,9.1666 4.9388,9.5193 2.1167,6.3472 1.7498,5.6388 0.7055,2.8222 0.3669,2.819403 0.3387,5.6416 0,3.1722 -29.2664,0 -3.1609,-11.280403 -4.572,-10.2249 -5.6445,-8.8138 -6.35,-7.0527 -7.4224,-5.9916 -7.3942,-4.5833 -7.3943,-3.5278 -7.7611,-2.1138 -1.0724,0 -1.4111,-0.3528 -1.0443,0 -1.4111,0 -1.4111,0 -1.0442,-0.7056 -1.4111,0 -1.0725,0 -8.8053,1.0584 -8.8053,2.4666 -8.4667,3.8777 -7.7611,5.6416 -7.0556,6.7 -2.8222,3.525 -2.1166,4.2305 -2.1167,4.2305 -1.4111,4.5833 -1.4111,9.519303 0,0.3528 -0.3387,0.7056 0,0.7055 0,0.7056 0,0.3527 -0.3669,0.35 0,0.7056 0,0.3527 0.3669,7.4055 0.7056,7.05 1.4111,6.3471 2.1166,5.2889 2.4554,5.286 3.5277,4.2333 3.8665,3.8778 4.6002,2.8194 9.8778,5.2888 10.5551,4.5833 11.6558,4.2305 12.6718,3.525 2.8222,1.0583 3.5278,0.7056 2.8222,1.0583 3.5278,1.0583 11.9944,3.525 11.2889,4.5833 21.5053,11.6332 5.2776,3.5277 4.572,4.2306 4.2333,4.5832 3.8947,5.2889 3.1609,5.9916 2.8222,6.6999 4.6002,14.8082 0,1.0555 0,1.7639 0,0.7056 0.7056,0.7055 0,0.7056 0,0.7027 0,0.7056 0.3386,0 0,0.7055 0,2.8194 0,2.1167 0,1.0583 0.3669,1.4083 0,0.7056 0,1.0583 0,2.8222 -0.3669,2.1139 -0.3386,2.8194 0,2.8222 -0.3669,2.8194 -0.7056,2.1167 -0.3386,2.8194 -0.7056,2.8222 -1.778,6.3443 -2.8222,6.7028 -3.1609,5.9831 -3.5278,6.35 -1.778,3.1891 -2.1167,3.1609 -4.572,5.9831 -5.2775,5.6445 -5.6445,5.6444 -6.0113,5.2776 -6.35,4.6002 -6.6887,3.8665 -7.0555,3.1891 -7.3942,2.4553 -8.0998,1.778 -8.128,1.4111 -8.4667,0.3387 -9.144,-0.3387 -8.8335,-1.0724 -8.4385,-1.7498 -8.128,-2.4836 -8.0998,-3.1609 -7.7611,-4.2333 -7.3942,-4.9389 -7.0555,-5.9831 -6.35,-6.35 -5.9832,-7.0555 -5.3057,-7.7612 -4.2334,-8.0997 -3.8664,-8.8223 -3.1891,-9.5165 -2.0885,-9.8722 -1.778,-10.5777 32.4274,-1.0583 z"
         id="path4430"
         inkscape:connector-curvature="0" />
      <path
         style="fill:#002f59;fill-opacity:1;fill-rule:evenodd;stroke:none"
         d="m 2186.6675,336.31503 0,-152.3012 0,-151.954103 168.5148,0 0,28.558 -139.6153,0 0,107.885103 136.0876,0 0,28.5553 -136.0876,0 0,110.3573 139.6153,0 0,28.8996 -168.5148,0 z"
         id="path4432"
         inkscape:connector-curvature="0" />
      <path
         style="fill:#002f59;fill-opacity:1;fill-rule:evenodd;stroke:none"
         d="m -991.3508,937.08143 81.79496,0 0,18.6831 -100.48086,0 0,-196.7089 18.6859,0 0,178.0258 z"
         id="path4434"
         inkscape:connector-curvature="0" />
      <path
         style="fill:#002f59;fill-opacity:1;fill-rule:evenodd;stroke:none"
         d="m -666.6387,759.05563 22.91644,0 83.91031,196.7089 -20.8026,0 -27.14695,-66.9713 -96.95462,0 -27.14752,66.9713 -20.80119,0 86.02613,-196.7089 z m 10.57769,18.3163 -40.54687,92.3713 80.38536,0 -39.83849,-92.3713 z"
         id="path4436"
         inkscape:connector-curvature="0" />
      <path
         style="fill:#002f59;fill-opacity:1;fill-rule:evenodd;stroke:none"
         d="m -328.53084,759.05563 14.10265,1.0443 12.34158,2.8222 10.57486,3.8947 9.16658,5.6162 4.23051,3.5278 3.175,3.5277 5.6388,8.128 3.88056,9.144 1.05551,5.3058 1.05833,5.2776 -0.70555,8.4666 -1.40829,7.7611 -2.11667,6.6887 -3.17218,6.0113 -3.87773,5.2776 -4.58329,4.9389 -4.58329,3.8664 -5.28884,3.1891 4.58329,1.0443 4.23051,1.0724 7.75546,3.5278 6.34718,4.9107 4.93607,6.0113 3.52495,7.0555 2.46663,8.0998 1.76389,9.1722 0.35277,9.8778 0,5.2776 -1.05833,4.572 -1.05833,4.9389 -1.76107,4.6002 -5.28884,8.4384 -7.40269,8.4667 -4.23334,3.8947 -4.93324,3.1609 -5.28885,2.8222 -5.28884,2.1166 -5.9944,1.7498 -6.34718,1.0725 -7.04991,0.7055 -7.05273,0.3387 -63.46049,-0.7056 0,-196.7089 50.76895,0 z m -32.08302,102.2209 0,75.8049 46.53845,0 1.05833,0.3669 1.05833,0 1.40829,0 1.41111,0 6.34718,-1.0724 3.17218,-1.0443 3.17218,-1.0724 5.64162,-2.8222 5.64162,-3.8665 2.46662,-2.4553 2.11667,-2.4836 3.52496,-6.35 1.05833,-3.5277 0.70555,-3.8665 0.70556,-8.4666 0,-4.9389 -0.70556,-4.2334 -1.05833,-3.8664 -1.76389,-3.8947 -1.76106,-3.4995 -2.46945,-3.1891 -2.8194,-2.8223 -3.17218,-2.4553 -7.75829,-4.2333 -8.46102,-2.8223 -9.51935,-1.778 -10.22491,-0.7055 -36.31354,-0.7056 z m 0,-83.9046 0,65.5884 34.19969,0 7.40269,0 7.05273,-0.7055 7.04991,-1.778 6.34718,-2.8223 5.28885,-3.8664 3.87773,-5.9831 2.8194,-8.128 1.76389,-10.2165 -0.70556,-8.8053 -1.76389,-7.0556 -1.76106,-2.8222 -1.41111,-2.4553 -4.58329,-3.8947 -5.64162,-2.8222 -6.34436,-2.1167 -7.05273,-1.0442 -8.10825,-0.3669 -38.4302,-0.7055 z"
         id="path4438"
         inkscape:connector-curvature="0" />
      <path
         style="fill:#002f59;fill-opacity:1;fill-rule:evenodd;stroke:none"
         d="m -79.972078,853.17683 0.35278,-8.8054 1.40829,-8.8053 2.46944,-8.4667 3.17218,-8.128 2.11667,-4.2333 2.11384,-4.2051 4.93607,-7.7611 5.9944,-7.7611 7.04991,-7.7612 7.75829,-7.0555 8.10824,-5.9831 8.46102,-4.9389 9.16658,-4.2333 9.8720901,-3.5278 10.225,-2.1167 10.5775999,-1.4111 10.9277,-0.3387 10.9305,0.3387 10.2249,1.4111 10.2249,2.1167 9.5193,3.1891 9.1666,4.2051 8.461,4.9389 8.4611,6.0113 7.7554,7.0556 7.052798,7.3942 6.3443,8.0998 5.2889,8.4666 4.2305,8.8054 1.7639,4.6002 1.4111,4.572 2.4666,9.8778 1.4111,10.5833 0.3528,10.5833 -0.3528,10.2165 -1.0583,9.5109 -2.1139,9.1722 -3.175,8.8053 -3.5249,7.7611 -4.5833,7.7612 -5.6416,7.0555 -5.9944,6.35 -6.697198,5.9831 -7.0527,5.2776 -7.0499,4.9389 -7.0528,4.2333 -7.4026,3.5278 -7.4027,2.8222 -7.7583,2.4553 -7.7555,1.778 -5.9944,1.0443 -5.2888,0.7055 -5.9916,0.7056 -5.2889,0 -0.3527,0 -0.7056,0 -1.0583,-0.3387 -0.3528,0 -1.4083,0 -1.0583,0 -17.98039991,-3.1891 -8.81379999,-2.8222 -8.4638401,-3.4996 -8.10825,-4.6002 -8.10824,-5.2776 -8.10825,-6.0113 -7.75829,-6.6887 -7.04991,-7.7611 -6.34718,-8.0998 -4.93606,-8.4666 -4.58329,-8.8054 -3.17218,-9.5391 -2.46944,-9.8495 -1.40829,-10.5834 -0.35278,-10.922 0,-0.3668 z m 20.79978,-2.1167 1.41111,16.5664 1.76389,7.7611 1.76106,7.0556 2.46945,6.6887 2.8194,6.35 3.52495,6.0113 3.88056,5.2776 8.46102,9.5108 9.16658,8.128 9.16658,6.3218 9.5193201,4.9389 7.4027,2.8222 7.0528,1.778 7.0498999,1.0443 6.3471,0.3668 5.6417,-0.3668 5.9915,-0.7056 5.9944,-1.0442 5.9944,-1.778 5.6417,-1.4111 5.6388,-2.1167 10.5777,-5.2776 10.5776,-6.6886 9.8722,-8.128 4.2305,-4.9389 4.2305,-5.2776 3.172198,-5.9831 2.8222,-6.35 2.4666,-7.0555 1.4111,-7.7611 1.4083,-8.0998 0.3528,-8.8054 0,-4.6002 -0.3528,-8.4666 -1.0555,-8.4667 -2.1167,-7.7329 -2.8194,-7.4224 -3.527698,-7.0556 -4.5833,-6.6887 -5.286,-6.6886 -5.9944,-6.0114 -6.7,-5.2775 -6.6971,-4.572 -7.0528,-3.8947 -7.0499,-3.1609 -7.4055,-2.8222 -7.7555,-1.778 -7.7554,-1.0442 -7.7583,-0.3669 -8.1083,0.3669 -7.7553999,1.0442 -7.7583,2.1167 -7.4027,2.4835 -7.0499101,3.5278 -7.05273,3.8664 -6.69996,4.9389 -6.69713,5.6445 -5.9944,5.9831 -5.28885,6.35 -4.23051,6.35 -3.52495,6.6887 -2.8194,6.7168 -1.76389,7.0274 -1.41111,7.4224 -0.35278,7.0556 0,-0.3669 z"
         id="path4440"
         inkscape:connector-curvature="0" />
      <path
         style="fill:#002f59;fill-opacity:1;fill-rule:evenodd;stroke:none"
         d="m 313.84082,955.76453 0,-196.7089 48.6551,0 11.6332,0.3387 10.5777,1.0725 9.8721,1.7497 8.8138,2.1167 7.7555,2.4836 7.0527,3.1608 5.9944,3.8665 4.9333,4.2333 8.111,9.5391 3.525,4.9107 2.4666,4.9389 2.1167,5.3058 1.7639,5.2775 0.7027,5.3058 0.7056,5.2776 0,0.7055 0,0.7056 0,0.3386 0,3.8947 -1.0556,7.0556 -1.4111,7.0273 -3.8777,11.6558 -5.6416,9.8777 -3.1722,4.2052 -3.8806,3.5277 -3.8777,3.1891 -4.5833,2.8223 -4.5833,2.1166 -5.2888,1.7498 -11.2804,2.4836 -5.9944,0.7055 -6.3472,0 56.7633,75.0711 -23.2692,0 -67.691,-90.2546 19.0387,0 15.8637,-1.4111 13.0444,-2.4554 9.8721,-3.8664 3.8805,-2.1167 3.525,-2.8222 5.2888,-7.4225 2.1139,-4.2333 1.7639,-4.9107 1.0583,-5.6444 0.7027,-6.0113 0,-6.35 -0.3527,-5.2776 -0.35,-2.4553 -0.3528,-2.4836 -1.4111,-4.572 -2.1166,-4.2333 -2.8194,-3.8947 -3.1722,-3.5278 -8.461,-5.6162 -9.8722,-4.6002 -10.9304,-3.1609 -11.2833,-1.778 -11.986,-0.7055 -33.4941,-0.7056 0,180.5093 -19.0387,0 z"
         id="path4442"
         inkscape:connector-curvature="0" />
      <path
         style="fill:#002f59;fill-opacity:1;fill-rule:evenodd;stroke:none"
         d="m 697.43162,759.05563 22.5637,0 83.9103,196.7089 -20.4499,0 -27.1469,-66.9713 -97.3074,0 -26.7942,66.9713 -20.8026,0 86.027,-196.7089 z m 10.2249,18.3163 -40.1941,92.3713 80.3854,0 -40.1913,-92.3713 z"
         id="path4444"
         inkscape:connector-curvature="0" />
      <path
         style="fill:#002f59;fill-opacity:1;fill-rule:evenodd;stroke:none"
         d="m 1012.9758,955.76453 0,-180.5093 -45.83288,0 0,-16.1996 111.05728,0 0,16.1996 -46.5385,0 0,180.5093 -18.6859,0 z"
         id="path4446"
         inkscape:connector-curvature="0" />
      <path
         style="fill:#002f59;fill-opacity:1;fill-rule:evenodd;stroke:none"
         d="m 1247.0791,853.17683 0.3528,-8.8054 1.4083,-8.8053 2.4694,-8.4667 3.1722,-8.128 2.1167,-4.2333 2.1138,-4.2051 4.9361,-7.7611 5.9944,-7.7611 7.0499,-7.7612 7.7583,-7.0555 8.1082,-5.9831 8.8138,-4.9389 9.1666,-4.2333 9.5194,-3.5278 10.2249,-2.1167 10.5777,-1.4111 10.9276,-0.3387 10.9305,0.3387 10.5777,1.4111 9.8721,2.1167 9.5194,3.1891 9.1665,4.2051 8.8138,4.9389 8.1083,6.0113 7.7554,7.0556 7.0528,7.3942 6.3443,8.0998 5.2889,8.4666 4.2305,8.8054 1.7639,4.6002 1.4111,4.572 2.4666,9.8778 1.4111,10.5833 0.7056,10.5833 -0.7056,10.2165 -1.0583,9.5109 -2.1139,9.1722 -2.8222,8.8053 -3.8777,7.7611 -4.5833,7.7612 -5.2888,7.0555 -6.3472,6.35 -6.6972,5.9831 -7.0527,5.2776 -7.0499,4.9389 -7.0527,4.2333 -7.4027,3.5278 -7.4027,2.8222 -7.7583,2.4553 -7.7555,1.778 -5.6416,1.0443 -5.6416,0.7055 -5.6388,0.7056 -5.6416,0 -0.3528,0 -0.7056,0 -0.7055,-0.3387 -0.7056,0 -1.4083,0 -1.0583,0 -17.9804,-3.1891 -8.461,-2.8222 -8.4638,-3.4996 -8.4611,-4.6002 -8.1082,-5.2776 -8.1083,-6.0113 -7.7582,-6.6887 -7.05,-7.7611 -5.9944,-8.0998 -5.2888,-8.4666 -4.2305,-8.8054 -3.525,-9.5391 -2.4694,-9.8495 -1.4083,-10.5834 -0.3528,-10.922 0,-0.3668 z m 20.7998,-2.1167 1.7639,16.5664 1.4111,7.7611 1.7611,7.0556 2.4694,6.6887 2.8194,6.35 3.525,6.0113 3.8805,5.2776 8.8138,9.5108 8.8138,8.128 9.1666,6.3218 9.8721,4.9389 7.0499,2.8222 7.0528,1.778 7.0499,1.0443 6.3472,0.3668 5.9944,-0.3668 5.9915,-0.7056 5.6417,-1.0442 5.9944,-1.778 5.6416,-1.4111 5.6388,-2.1167 10.9305,-5.2776 10.2249,-6.6886 9.8721,-8.128 4.5833,-4.9389 3.8777,-5.2776 3.1722,-5.9831 2.8222,-6.35 2.4666,-7.0555 1.7639,-7.7611 1.0555,-8.0998 0.3528,-8.8054 0,-4.6002 -0.3528,-8.4666 -1.0555,-8.4667 -2.1166,-7.7329 -2.8194,-7.4224 -3.5278,-7.0556 -4.5833,-6.6887 -5.286,-6.6886 -5.9944,-6.0114 -6.7,-5.2775 -6.6971,-4.572 -7.0527,-3.8947 -7.05,-3.1609 -7.4055,-2.8222 -7.7554,-1.778 -7.4027,-1.0442 -8.1111,-0.3669 -8.1082,0.3669 -7.7555,1.0442 -7.7583,2.1167 -7.4027,2.4835 -7.0499,3.5278 -7.0527,3.8664 -6.7,4.9389 -6.6971,5.6445 -5.9944,5.9831 -4.9361,6.35 -4.5833,6.35 -3.5249,6.6887 -2.8194,6.7168 -1.7639,7.0274 -1.4111,7.4224 -0.3528,7.0556 0,-0.3669 z"
         id="path4448"
         inkscape:connector-curvature="0" />
      <path
         style="fill:#002f59;fill-opacity:1;fill-rule:evenodd;stroke:none"
         d="m 1641.2448,955.76453 0,-196.7089 48.3023,0 11.6332,0.3387 10.5777,1.0725 9.8721,1.7497 8.8138,2.1167 7.7555,2.4836 7.0527,3.1608 5.9944,3.8665 5.2861,4.2333 8.111,9.5391 3.1722,4.9107 2.4666,4.9389 2.1167,5.3058 1.7639,5.2775 1.0555,5.3058 0.3528,5.2776 0,0.7055 0,0.7056 0,0.3386 0,3.8947 -1.0555,7.0556 -1.4111,7.0273 -3.8778,11.6558 -5.6416,9.8777 -3.1722,4.2052 -3.8805,3.5277 -3.8778,3.1891 -4.5833,2.8223 -4.5832,2.1166 -5.2889,1.7498 -11.2804,2.4836 -5.9944,0.7055 -6.3472,0 56.7634,75.0711 -23.2693,0 -67.691,-90.2546 19.0388,0 15.8637,-1.4111 13.0443,-2.4554 9.8721,-3.8664 3.8806,-2.1167 3.5249,-2.8222 5.6416,-7.4225 2.1139,-4.2333 1.4111,-4.9107 1.0583,-5.6444 0.7028,-6.0113 0,-6.35 0,-5.2776 -0.7028,-2.4553 -0.3527,-2.4836 -1.4112,-4.572 -2.1166,-4.2333 -2.8194,-3.8947 -3.1722,-3.5278 -8.461,-5.6162 -9.8722,-4.6002 -10.5776,-3.1609 -11.2833,-1.778 -11.986,-0.7055 -33.8469,-0.7056 0,180.5093 -18.6859,0 z"
         id="path4450"
         inkscape:connector-curvature="0" />
      <path
         style="fill:#002f59;fill-opacity:1;fill-rule:evenodd;stroke:none"
         d="m 1976.8917,955.76453 -20.7998,0 0,-196.7089 20.7998,0 0,196.7089 z"
         id="path4452"
         inkscape:connector-curvature="0" />
      <path
         style="fill:#002f59;fill-opacity:1;fill-rule:evenodd;stroke:none"
         d="m 2162.6786,853.17683 0.7055,-8.8054 1.4111,-8.8053 2.1167,-8.4667 3.1891,-8.128 2.1167,-4.2333 2.1166,-4.2051 5.2776,-7.7611 5.9831,-7.7611 6.7169,-7.7612 7.7611,-7.0555 8.0998,-5.9831 8.8053,-4.9389 9.1722,-4.2333 9.5109,-3.5278 10.2447,-2.1167 10.5551,-1.4111 11.2889,-0.3387 10.5833,0.3387 10.5834,1.4111 9.8495,2.1167 9.5391,3.1891 9.144,4.2051 8.8336,4.9389 8.0998,6.0113 7.7611,7.0556 7.3942,7.3942 6.0113,8.0998 5.2776,8.4666 4.2333,8.8054 1.7498,4.6002 1.778,4.572 2.1167,9.8778 1.4111,10.5833 0.7055,10.5833 -0.3669,10.2165 -1.4111,9.5109 -2.1166,9.1722 -2.8223,8.8053 -3.8664,7.7611 -4.572,7.7612 -5.3058,7.0555 -6.35,6.35 -6.6886,5.9831 -6.6887,5.2776 -7.0556,4.9389 -7.4224,4.2333 -7.3942,3.5278 -7.3943,2.8222 -7.7611,2.4553 -7.7611,1.778 -5.6444,1.0443 -5.6445,0.7055 -5.6444,0.7056 -5.2776,0 -0.7055,0 -0.7056,0 -0.7055,-0.3387 -0.7056,0 -1.0442,0 -1.4111,0 -17.6389,-3.1891 -8.8053,-2.8222 -8.4667,-3.4996 -8.4667,-4.6002 -8.0998,-5.2776 -7.7611,-6.0113 -7.7611,-6.6887 -7.3942,-7.7611 -6.0113,-8.0998 -5.2776,-8.4666 -4.2333,-8.8054 -3.5278,-9.5391 -2.1167,-9.8495 -1.4111,-10.5834 -0.7055,-10.922 0,-0.3668 z m 21.1666,-2.1167 1.4111,16.5664 1.4112,7.7611 1.7497,7.0556 2.4836,6.6887 3.1609,6.35 3.1891,6.0113 4.2051,5.2776 8.4667,9.5108 8.8335,8.128 9.144,6.3218 9.8778,4.9389 7.0556,2.8222 7.3942,1.778 6.7169,1.0443 6.6886,0.3668 5.6445,-0.3668 5.9831,-0.7056 6.0113,-1.0442 5.9831,-1.778 5.6445,-1.4111 5.2775,-2.1167 10.9503,-5.2776 10.2164,-6.6886 9.8778,-8.128 4.572,-4.9389 3.8946,-5.2776 3.4996,-5.9831 2.8222,-6.35 2.1167,-7.0555 1.778,-7.7611 1.0442,-8.0998 0.7056,-8.8054 0,-4.6002 -0.3387,-8.4666 -1.4111,-8.4667 -2.1167,-7.7329 -2.8222,-7.4224 -3.5278,-7.0556 -4.572,-6.6887 -5.3058,-6.6886 -5.9831,-6.0114 -6.7169,-5.2775 -6.6886,-4.572 -7.0556,-3.8947 -7.0555,-3.1609 -7.3943,-2.8222 -7.3942,-1.778 -7.7611,-1.0442 -7.7611,-0.3669 -8.0998,0.3669 -8.128,1.0442 -7.3942,2.1167 -7.7611,2.4835 -7.0556,3.5278 -7.0273,3.8664 -6.7169,4.9389 -6.35,5.6445 -6.35,5.9831 -4.9107,6.35 -4.6002,6.35 -3.5278,6.6887 -2.4553,6.7168 -2.1167,7.0274 -1.0724,7.4224 -0.3387,7.0556 0,-0.3669 z"
         id="path4454"
         inkscape:connector-curvature="0" />
    </g>
  </g>
</svg>
