<?xml version="1.0" encoding="UTF-8" standalone="no"?>
<!-- Created with Inkscape (http://www.inkscape.org/) -->

<svg
   xmlns:dc="http://purl.org/dc/elements/1.1/"
   xmlns:cc="http://creativecommons.org/ns#"
   xmlns:rdf="http://www.w3.org/1999/02/22-rdf-syntax-ns#"
   xmlns:svg="http://www.w3.org/2000/svg"
   xmlns="http://www.w3.org/2000/svg"
   xmlns:xlink="http://www.w3.org/1999/xlink"
   xmlns:sodipodi="http://sodipodi.sourceforge.net/DTD/sodipodi-0.dtd"
   xmlns:inkscape="http://www.inkscape.org/namespaces/inkscape"
   width="1521.1758mm"
   height="323.37967mm"
   viewBox="0 0 5389.9929 1145.8335"
   id="svg2"
   version="1.1"
   inkscape:version="0.91 r13725"
   sodipodi:docname="chuquicamata.svg">
  <defs
     id="defs4">
    <linearGradient
       inkscape:collect="always"
       id="linearGradient4152">
      <stop
         style="stop-color:#e7c028;stop-opacity:1;"
         offset="0"
         id="stop4154" />
      <stop
         style="stop-color:#198d34;stop-opacity:1"
         offset="1"
         id="stop4156" />
    </linearGradient>
    <pattern
       y="0"
       x="0"
       height="6"
       width="6"
       patternUnits="userSpaceOnUse"
       id="EMFhbasepattern" />
    <linearGradient
       inkscape:collect="always"
       xlink:href="#linearGradient4152"
       id="linearGradient4158"
       x1="-2314.9964"
       y1="529.39022"
       x2="3074.9964"
       y2="529.39022"
       gradientUnits="userSpaceOnUse" />
    <pattern
       y="0"
       x="0"
       height="6"
       width="6"
       patternUnits="userSpaceOnUse"
       id="EMFhbasepattern-6" />
  </defs>
  <sodipodi:namedview
     id="base"
     pagecolor="#ffffff"
     bordercolor="#666666"
     borderopacity="1.0"
     inkscape:pageopacity="0.0"
     inkscape:pageshadow="2"
     inkscape:zoom="0.175"
     inkscape:cx="2491.7912"
     inkscape:cy="442.43124"
     inkscape:document-units="px"
     inkscape:current-layer="layer1"
     showgrid="false"
     fit-margin-top="0"
     fit-margin-left="0"
     fit-margin-right="0"
     fit-margin-bottom="0"
     inkscape:window-width="1920"
     inkscape:window-height="1138"
     inkscape:window-x="1358"
     inkscape:window-y="-8"
     inkscape:window-maximized="1" />
  <metadata
     id="metadata7">
    <rdf:RDF>
      <cc:Work
         rdf:about="">
        <dc:format>image/svg+xml</dc:format>
        <dc:type
           rdf:resource="http://purl.org/dc/dcmitype/StillImage" />
        <dc:title />
      </cc:Work>
    </rdf:RDF>
  </metadata>
  <g
     inkscape:label="Capa 1"
     inkscape:groupmode="layer"
     id="layer1"
     transform="translate(2314.9964,-85.15974)">
    <g
       id="g4160">
      <path
         style="fill:url(#linearGradient4158);fill-opacity:1;fill-rule:nonzero;stroke:none"
         d="m 206.19065,393.65403 7.7554,1.76107 3.8778,1.41111 3.1721,1.76389 3.175,2.11384 2.8194,2.46944 2.1167,2.46663 1.7611,3.17217 1.4111,3.52778 1.0583,3.87774 0.7056,8.10824 -0.7056,8.46102 -2.1166,8.46385 -2.4667,8.10824 -2.8222,7.75547 -4.5833,12.69153 -4.5833,16.57209 -3.1721,16.56927 -2.4667,16.92486 -2.1166,16.56927 -3.1722,34.90524 -2.1167,18.33316 -2.8194,19.03871 -0.7055,5.28602 -0.3528,5.28885 -0.7056,11.63602 1.4111,25.73584 1.4083,13.74987 2.1167,14.10265 5.2888,27.85251 6.6972,27.14695 7.4055,23.97478 3.8777,10.57769 3.8778,9.16658 3.5249,7.75546 3.5278,5.9944 5.9916,8.10825 7.0527,8.11106 6.6971,8.10825 5.9944,7.75547 7.4055,13.04431 4.2306,8.81662 3.5249,9.86931 2.8194,10.22491 1.4111,9.87213 -0.3528,4.58329 -0.7055,4.23051 -1.4083,3.52496 -1.7639,3.175 -2.4694,2.8194 -3.1722,1.76389 -8.461,1.05833 -7.7555,0 -8.1111,-1.76389 -7.4027,-3.17217 -3.5249,-1.76389 -3.5278,-2.46663 -6.6971,-4.93606 -6.7,-5.9944 -5.9916,-6.34718 -11.2832,-14.10264 -9.5194,-14.8082 -15.1609,-25.03029 -8.8138,-16.57209 -7.7555,-17.6276 -6.7,-18.68594 -5.6388,-19.74426 -4.936,-20.09422 -2.4695,-10.57769 -2.1138,-10.57769 -3.8806,-21.50534 -3.5249,-21.85811 -6.3444,-101.54073 -2.4694,-15.51093 -1.4111,-16.57209 -0.7028,-17.6276 0.35,-17.27482 1.4111,-16.92487 2.8222,-15.51093 2.1139,-7.40552 2.4694,-6.69713 5.9916,-11.63602 3.175,-4.58329 3.5249,-4.23051 7.05,-7.04991 7.7582,-5.64162 8.1083,-4.93607 8.8138,-4.23051 9.5193,-4.23051 20.4499,-9.16658 z M 2426.2805,85.512304 l 14.1111,0 14.8167,-0.352564 13.3773,1.057693 6.35,1.057693 5.6444,1.410247 11.2889,4.935898 10.5834,5.641029 10.2164,6.69871 9.5109,7.40385 4.9389,4.23068 4.572,4.23079 8.8335,9.16686 8.4667,9.51908 7.7329,10.22434 7.7611,10.57685 7.0556,10.92962 13.0386,22.56423 11.2889,22.56395 9.8778,22.21145 2.8222,7.40382 2.8222,8.10909 4.9389,17.27567 5.6163,15.8654 3.5277,7.40382 3.8947,5.99355 6.35,7.05132 7.0556,5.99356 7.7327,4.93606 8.128,4.23052 16.9052,7.4041 8.8335,4.23051 9.144,4.58357 9.8778,6.34605 9.8779,7.05132 9.5109,7.40382 9.1722,5.99355 3.8945,1.76248 4.5721,0.70555 11.6275,-1.05833 13.4056,-3.52496 14.4497,-4.93606 29.2665,-11.28212 12.3331,-4.93578 10.2164,-3.52552 8.8336,-2.11554 9.5109,-1.41026 9.511,-1.05777 9.5391,-0.3525 9.8495,0 9.8778,0.3525 19.3887,1.76304 9.1722,1.41026 9.5109,1.76276 8.8335,1.76276 8.4667,2.11554 15.8609,4.58329 13.7442,5.28828 7.3942,3.5258 7.0556,4.2308 6.6886,4.58328 6.0113,5.28716 5.6445,5.9944 4.9389,6.69995 4.572,7.04991 4.2334,7.75829 3.1609,8.10825 2.8221,8.46102 1.7781,9.16658 1.4111,9.87213 0.3387,9.87213 -0.3387,10.57769 -1.0725,10.57487 -2.1167,11.28324 -2.1166,8.46102 -3.1609,8.10825 -3.5278,8.11107 -4.572,8.10824 -4.9388,7.75547 -5.3058,7.75546 -12.6718,14.8082 -14.478,14.8082 -15.8609,13.74987 -17.272,13.39709 -17.9775,13.04431 -37.3663,24.68033 -37.3662,22.91645 -34.5722,21.15538 -15.494,9.87213 -14.1111,9.86931 -12.7,8.81662 -13.7442,10.22209 -14.1112,11.63602 -6.6886,5.9944 -6.35,6.69714 -5.6446,7.05273 -5.2775,7.40269 -4.2334,8.10824 -3.5276,8.46103 -2.1167,8.81662 -1.0442,9.51935 0,9.86931 0.7055,5.28885 1.0442,5.28884 5.2775,5.64163 5.6446,4.58328 6.0113,2.8194 6.35,2.11667 7.0273,0.70556 6.7169,0 7.0556,-0.70556 7.3942,-1.41111 14.1111,-4.93607 6.6887,-2.8194 6.6886,-3.17217 12.3614,-7.05274 10.2164,-6.34718 8.4667,-5.99157 7.7611,-7.40551 7.7329,-7.75547 7.4224,-8.8138 7.3942,-9.51936 6.6886,-9.87213 13.4056,-21.15256 13.0386,-21.86093 11.9945,-21.85811 12.3331,-20.44982 6.0113,-9.51936 5.9831,-8.8138 10.922,-16.56926 6.0114,-8.46103 6.6887,-7.75829 7.761,-6.69713 4.2335,-2.46944 4.9389,-2.11385 4.9389,-1.41111 5.2775,-0.70555 5.9831,0.35277 6.35,0.70556 2.8222,3.17218 2.4836,3.87773 3.8664,9.16658 2.4554,11.28324 1.4111,12.69154 1.778,25.73866 0.7055,12.33876 1.4112,10.57769 10.9219,76.15484 6.6887,20.79978 8.1279,21.50533 17.272,40.89965 3.5278,7.04991 4.9389,6.69995 11.2607,13.74987 4.9388,7.04991 3.5278,7.75829 2.1167,8.46102 0,4.58329 -0.3387,4.58329 -6.7169,6.69713 -9.8495,-1.05551 -9.8778,-2.11666 -9.5109,-3.52496 -8.8335,-4.58329 -8.8054,-5.64162 -8.0998,-6.69996 -7.7611,-7.40269 -7.0555,-7.75546 -13.0387,-17.63042 -10.5833,-18.33316 -8.4667,-18.33316 -5.9831,-17.27482 -4.2333,-18.68593 -5.6445,-23.26922 -3.1609,-11.28325 -3.5277,-9.51653 -4.2334,-7.75829 -2.4835,-2.46662 -2.4554,-1.76389 -3.1891,0 -4.2333,1.41111 -4.2051,2.11384 -3.5278,3.175 -3.1891,3.17218 -5.6445,8.46102 -4.572,9.16658 -8.0997,20.09705 -3.8947,9.51935 -4.2333,8.10825 -16.1996,23.26922 -9.8778,13.04431 -10.922,13.04431 -11.9944,13.04713 -13.0387,13.04432 -13.7724,11.98597 -7.0274,5.64163 -7.4224,5.28884 -7.7611,4.93607 -7.7329,4.58329 -8.128,3.87773 -7.7611,3.87773 -8.4385,2.82222 -8.4666,2.46663 -16.9334,3.17217 -8.8053,0.35278 -8.4667,-0.35278 -9.1722,-1.05551 -8.8053,-2.11666 -8.8053,-2.8194 -9.1723,-3.87774 -9.1722,-4.58329 -9.1722,-5.9944 -7.0556,-5.9944 -6.6886,-7.04991 -5.2776,-8.46384 -4.9389,-9.16658 -3.8946,-9.86931 -2.8223,-10.57769 -2.4552,-10.93047 -1.0724,-11.28042 -0.7057,-11.28324 0.3669,-11.6332 1.4112,-11.28325 2.1166,-10.93046 2.8222,-10.92765 3.8664,-9.87213 4.9389,-9.51936 5.6445,-8.46102 9.5109,-11.9888 9.8777,-11.28042 10.5835,-10.93047 10.5833,-10.57769 11.2607,-10.22491 11.6557,-9.86931 23.9607,-19.03871 24.6661,-17.9832 25.0331,-17.6276 25.0332,-17.6276 25.0331,-17.98038 28.2222,-19.39149 15.1553,-9.87213 14.8167,-10.22491 13.7442,-11.28042 6.6887,-5.9944 6.0113,-5.9944 5.6163,-6.69714 5.3058,-6.69995 4.2333,-7.04991 3.8665,-7.75829 4.2333,-11.6332 2.1166,-10.93047 0,-10.57487 -0.3387,-4.93606 -1.0724,-4.93607 -1.4111,-4.58329 -2.1167,-4.58329 -4.572,-8.46384 -6.0113,-7.75547 -7.3943,-7.04991 -8.0997,-5.9944 -9.1723,-5.28884 -9.8777,-3.87774 -5.2776,-1.76389 -5.3058,-1.76106 -5.2775,-1.05834 -5.2776,-1.05833 -11.2889,-1.05833 -10.922,0 -11.2889,1.05833 -22.2108,3.17218 -24.6944,3.88055 -11.6275,2.8194 -9.8778,3.52496 -4.2334,2.11667 -3.8664,2.46662 -2.8222,2.46944 -2.1167,3.17218 -1.0442,3.17218 -1.0725,3.52778 -1.4111,8.46102 -1.0442,8.10824 -1.778,6.69996 -5.2776,1.76107 -6.0114,0.35277 -6.3218,-0.70555 -6.35,-1.40829 -7.0555,-2.46945 -7.0556,-3.17217 -14.8166,-8.10825 -14.0829,-8.81662 -13.7725,-9.16658 -12.3331,-7.75546 -10.5833,-5.64163 -2.8222,2.82223 -2.1167,2.8194 -1.3828,3.17217 -1.4112,3.52778 -1.4111,7.75547 -0.7056,8.46102 0.3387,18.68593 -0.3387,9.51936 -1.0724,9.51935 -13.7442,150.89858 -7.3943,44.069 -4.2333,21.50816 -4.2333,21.15255 -9.8778,40.89683 -5.6444,20.09704 -6.35,19.03871 -6.6887,18.68593 -7.3942,18.33316 -8.128,17.27482 -8.8054,16.57209 -9.5109,16.21649 -4.9388,7.40551 -5.3058,7.40269 -11.6276,14.45542 -12.3331,13.39709 -10.9219,10.22491 -15.5223,12.33876 -18.3445,13.04431 -10.2164,5.9944 -10.2164,5.64162 -10.5834,4.58329 -10.2164,3.52496 -9.8778,2.11666 -9.5109,0.70274 -4.6002,-0.70274 -4.2333,-0.70555 -4.2334,-1.41111 -2.1166,-1.05834 -2.1167,-1.05551 -3.4996,-2.46944 -3.5277,-3.17218 -3.1892,-3.52496 -2.8222,-4.58329 1.4111,-7.05273 2.4836,-7.04991 3.1609,-7.05273 3.5278,-6.69996 8.4666,-12.69153 7.7611,-10.92765 8.4385,-21.15537 29.6333,-43.36627 14.4498,-21.85811 7.0555,-11.28042 6.6887,-11.28325 7.4225,-24.68033 7.0273,-15.86371 6.35,-17.27765 6.35,-17.6276 5.6444,-18.33315 10.2165,-38.07743 8.4666,-38.42737 5.3058,-76.8604 2.0885,-15.51376 2.4835,-20.79978 2.4554,-24.32755 1.778,-25.38307 0.3387,-25.03311 -0.7056,-22.91644 -1.0442,-9.87214 -1.4111,-8.46102 -2.1167,-7.05273 -2.8222,-5.28885 -8.0997,-1.40829 -9.8778,0 -10.922,0.70556 -11.6558,1.40829 -25.7387,4.58329 -26.7828,4.23051 -13.0387,1.41111 -12.7,0.70555 -11.6276,-0.70555 -5.3057,-0.35278 -5.2776,-1.05833 -9.1722,-3.17218 -8.0998,-5.28884 -3.1891,-3.17218 -2.4553,-3.52496 -2.4554,-4.58442 -1.778,-4.93606 -0.7055,-5.64078 0,-5.28856 0.7055,-4.93607 1.4111,-4.23051 1.778,-3.5258 2.4554,-3.52552 4.2333,-5.99355 7.0556,-8.10909 8.0997,-7.40382 9.1723,-6.34605 10.2164,-5.28856 10.922,-4.2308 11.9944,-3.87829 11.9945,-2.82053 12.6999,-2.46775 8.8053,-1.05777 8.8055,-0.3525 18.6831,0 8.8335,0 8.4385,-0.70527 7.4224,-1.76276 6.6887,-2.46804 -0.3387,-9.51907 -2.1167,-9.87185 -3.8946,-9.87185 -5.2776,-9.87185 -6.6886,-9.87157 -7.7612,-9.87185 -17.6388,-19.7437 -19.3887,-18.68594 -18.3446,-17.62816 -16.1994,-15.86541 -6.3501,-7.05132 -5.2776,-6.69854 -2.8222,-5.64106 -2.1166,-6.34633 -1.0724,-7.05104 0,-7.40396 1.0724,-7.05129 2.1166,-5.993587 3.5278,-5.288449 2.0884,-1.762844 2.4836,-1.762817 10.922,-3.173069 z m -4398.233,2.115385 19.0387,0 18.6859,0.705132 17.6276,1.410265 17.2777,1.762816 16.5692,2.820501 15.8666,3.17308 15.161,4.230767 14.4526,4.58334 13.7498,5.64103 13.0472,6.34619 11.9859,7.05133 11.2833,8.1088 10.5748,8.81409 9.5194,9.51935 8.8138,10.22435 7.7583,11.28211 5.2888,9.51908 4.5833,12.69238 4.2305,14.10264 2.8194,15.16013 1.0584,15.16042 -0.3528,7.40381 -0.3528,3.87802 -0.7055,3.5258 -1.4083,6.69855 -2.4695,6.34633 -3.1722,5.64106 -2.1166,2.46775 -2.1139,2.11553 -11.9888,-0.70527 -10.2249,-2.82053 -4.5833,-2.11525 -4.2305,-2.11526 -8.1082,-5.28856 -14.1027,-12.33989 -6.6971,-6.34604 -7.4055,-5.64106 -32.083,-23.26922 -17.2749,-11.28212 -19.0387,-10.22435 -9.8721,-4.58329 -10.5777,-3.52552 -11.2804,-3.1733 -11.2833,-2.11526 -12.3387,-1.41026 -12.6944,0 -13.0443,0.70527 -14.1026,2.11526 -10.5749,2.46803 -10.2249,3.17302 -10.2249,3.8783 -9.5194,4.23051 -18.3334,10.22463 -8.4616,5.99356 -8.4616,6.69854 -8.1088,6.69883 -7.7566,7.40381 -7.4038,7.75632 -7.4038,8.10909 -6.6988,8.81408 -6.6986,8.81408 -12.3399,18.68594 -11.2818,20.09619 -10.2244,20.80119 -9.1668,21.50647 -8.1088,22.21286 -7.4038,22.21089 -6.3464,22.56367 -5.2885,22.56366 -4.5833,22.21089 -3.173,19.39149 -2.1153,19.74427 -1.0578,19.74426 0,19.74145 1.0578,19.74426 1.7628,19.39149 2.468,19.39149 3.5255,18.68594 4.2308,17.98037 4.5833,17.6276 5.2886,16.57209 5.9935,15.86371 6.3461,14.8082 6.6988,13.39709 7.0513,12.34158 7.4038,10.57487 5.6411,6.69995 6.346,6.34436 15.1604,12.69435 17.9807,11.28043 9.8719,5.28884 10.5768,4.23051 10.9296,3.52496 11.2819,3.175 11.6348,1.76106 11.6332,1.05834 11.9888,0 12.3388,-1.40829 11.9888,-2.46945 11.986,-3.87773 9.8721,-4.23051 9.8721,-4.93607 9.8722,-5.64162 9.8721,-6.34718 19.7415,-14.4526 19.3914,-15.86653 18.3332,-16.92205 16.9249,-17.27764 15.1581,-16.92204 13.3971,-16.21932 16.5721,-20.79977 11.6332,-13.04431 6.3472,-6.69996 6.6999,-6.34718 13.7499,-10.92764 7.0499,-4.23051 7.4055,-3.175 6.6972,-1.76107 3.5249,-0.35278 3.5278,0 3.5249,0.35278 3.1722,0.70556 6.3472,3.17217 5.2888,15.16098 4.2306,14.80538 3.1721,14.45542 2.1167,14.45542 0.7027,14.45543 0,13.74986 -0.7027,13.74987 -1.7639,13.39709 -2.8194,13.04713 -3.5278,13.04431 -4.5833,12.33876 -4.936,12.33875 -5.6388,11.9888 -6.7,11.28325 -7.0499,11.28042 -7.7583,10.57769 -8.1082,10.57769 -8.8138,9.86931 -9.1666,9.51935 -9.8721,9.16658 -10.2249,8.81662 -10.225,8.10825 -10.9276,7.75547 -10.9305,7.05273 -22.9164,13.04431 -11.636,5.64162 -11.6332,5.28602 -23.9748,8.46385 -23.622,6.34435 -28.5581,6.34718 -15.1581,2.8194 -15.5138,2.46945 -16.2193,1.76106 -16.2165,0.35278 -16.9234,-0.70555 -8.1091,-0.70274 -8.4613,-1.41111 -27.1476,-5.9944 -23.6217,-7.04991 -21.8589,-7.75829 -19.7437,-8.8138 -18.686,-10.22491 -17.6281,-10.92764 -17.9807,-12.69154 -18.3334,-13.75269 -7.7564,-6.34435 -7.0513,-7.05274 -7.4038,-7.75546 -6.6988,-8.46102 -6.6988,-9.16658 -5.9936,-9.51936 -5.9936,-10.22491 -5.641,-10.93047 -5.2883,-10.92764 -5.2886,-11.63602 -9.1666,-24.67751 -3.8782,-13.04714 -3.8782,-13.04431 -6.6988,-27.14695 -2.4679,-14.10265 -2.468,-14.10264 -4.2307,-29.26362 -2.468,-29.2608 -1.0576,-29.6164 0.3525,-29.6164 1.7628,-29.2608 1.4103,-14.8082 2.1154,-14.10265 2.1153,-14.10264 2.468,-14.10265 4.9359,-20.8026 5.641,-21.50533 6.6987,-21.85811 7.7564,-21.86094 8.4616,-21.85811 9.1665,-21.50618 10.2244,-21.15396 10.5771,-20.80119 11.2821,-20.0962 11.9871,-19.39092 12.6924,-18.33344 13.0449,-17.27567 6.6985,-8.10909 6.6989,-7.75632 13.7498,-14.45514 14.1027,-12.69238 7.0513,-5.64077 7.4038,-5.64106 19.7437,-13.75015 10.5769,-7.05132 10.9293,-6.69854 11.2821,-6.34634 11.6346,-5.99349 11.6346,-4.9359 11.9871,-4.23076 52.1807,-14.102564 24.6775,-2.115397 z m 277.1168,81.442361 6.6971,0.3525 5.9944,1.05777 5.6417,1.41026 5.2888,2.11526 4.5833,2.82052 4.2305,2.82053 3.8777,3.52581 3.525,3.87801 5.9944,8.46159 5.2888,9.51935 8.8138,19.74342 6.3472,13.75015 7.4027,15.16013 7.7555,15.51291 6.3472,14.45514 7.4026,36.3141 4.2306,13.04488 3.8805,13.74986 7.7555,29.26419 6.3472,30.31913 5.6388,29.26362 1.0583,10.22492 0.7055,14.4526 1.7639,34.55246 1.0555,17.27482 1.7639,14.8082 1.4111,6.34718 1.4083,5.28885 1.7639,3.52495 1.7639,2.46662 4.2305,-2.8194 3.525,-3.17217 5.9944,-8.11107 4.936,-9.51936 4.2306,-10.92764 7.7554,-21.50816 3.8778,-10.22208 5.2888,-8.46385 7.0527,-9.86931 7.7555,-9.1694 8.1082,-9.16658 8.8138,-8.46102 9.5194,-7.75547 9.8721,-7.40269 10.5777,-6.34717 11.2804,-5.64163 11.6361,-4.93606 12.3387,-3.87774 12.6944,-2.8194 6.6971,-0.70555 6.7,-0.70556 13.7498,-0.35277 14.4555,1.05833 14.8053,2.46662 15.5138,3.87773 19.7443,7.40552 9.1666,4.23051 8.8138,4.58329 8.1082,5.64162 7.0528,5.99158 6.6971,6.69995 5.9944,7.40269 10.5777,16.92487 10.2249,19.03871 4.5833,10.22209 3.8777,10.22491 3.525,10.22491 2.4666,10.22491 0.7055,4.23051 0.3528,4.58329 0.3528,9.87213 0.3528,20.447 0.3528,9.87214 1.4111,9.51935 2.1138,7.75829 1.7639,3.52496 2.1138,3.17217 1.0584,0 18.3331,-37.72464 6.3472,-19.39149 4.5833,-19.38867 4.9361,-19.03871 6.3443,-19.03871 5.2889,-11.28324 5.6416,-11.28042 12.6915,-21.86094 13.3999,-21.50533 12.3388,-20.8026 3.8777,-5.99158 5.6416,-7.40551 7.4027,-8.46102 8.8138,-8.10853 9.1666,-6.34633 4.936,-2.46775 4.936,-1.41027 4.5833,-0.35277 2.4695,0 2.4666,0.35277 4.5833,1.76276 4.2305,3.17303 3.175,3.17302 1.4083,2.46804 1.0583,2.46803 0.7056,2.46775 0.3528,3.17303 0.3527,6.69995 -0.3527,7.04991 -1.0584,8.10825 -3.8777,16.57209 -4.9361,16.92204 -5.2888,15.16098 -4.9361,12.33875 -3.8777,8.11107 -7.4027,15.86371 -7.4055,19.03871 -7.7555,21.15256 -7.4055,23.26922 -7.0499,25.03311 -5.9944,26.09145 -4.9361,26.79417 -3.8777,26.79418 -2.1139,26.79418 -0.7055,13.04431 0,13.04713 0.7055,12.69154 1.0556,12.33875 1.7638,11.9888 2.1167,11.28042 2.8194,10.93047 3.525,10.57769 4.2305,9.87213 5.2888,8.8138 5.6416,8.46103 6.7,7.75546 7.4027,6.69996 8.1082,5.99158 6.7,3.52777 7.0499,2.11385 6.7,1.05833 7.0499,0 6.6999,-0.70555 7.0499,-1.76107 13.0472,-4.93607 11.9859,-6.69995 11.2833,-7.40269 16.5693,-13.04714 5.99445,-4.93606 5.6388,-5.6388 5.2888,-5.9944 5.2888,-6.69996 9.8722,-14.80538 9.5193,-16.57208 8.8138,-18.33316 8.4611,-19.39149 7.4055,-20.79978 7.4027,-21.15537 12.6915,-44.069 11.2832,-44.07183 9.5194,-42.30793 8.461,-38.07742 7.7555,-36.31354 5.6416,-20.79977 3.5278,-10.57769 3.8777,-9.87214 4.5833,-9.16657 5.2888,-8.46103 5.6388,-7.40551 6.3472,-5.99157 7.4027,-4.58329 3.8806,-1.76389 4.2305,-1.05834 4.2305,-0.70414 4.5833,-0.3525 4.936,0.705 4.9361,0.70442 6.3444,2.46945 4.5833,3.52495 3.8777,4.93607 2.4694,5.64162 1.7639,6.34436 1.0555,7.40551 0,15.86371 -2.1138,17.27764 -3.175,17.27483 -5.9916,29.6164 -16.2193,121.98491 -2.1138,69.45489 -1.7639,14.10264 -0.7056,7.40551 -0.3528,7.40269 -0.7055,15.86653 0,15.86371 0.3528,16.21932 1.0583,15.51375 1.4111,14.80538 1.7611,13.75269 3.175,14.09982 4.936,16.57209 11.6332,37.01909 4.9361,18.33315 3.1722,16.56927 0.7055,7.40551 0,6.69713 -0.3527,3.175 -0.7028,2.8194 -1.7639,4.58329 -9.1665,1.05834 -8.4611,-0.70556 -8.111,-2.46662 -7.7555,-4.23051 -7.4027,-5.28885 -6.6999,-6.69995 -6.3444,-7.40269 -5.6416,-8.46102 -5.6416,-8.81663 -4.9361,-9.51935 -8.8138,-18.68593 -6.7,-17.98038 -5.2888,-15.51094 -1.7611,-8.8138 -1.4111,-8.81662 -2.4666,-17.6276 -2.4695,-7.40269 -1.761,-3.175 -2.4695,-2.46662 -2.8194,-1.76389 -3.5277,-1.40829 -4.2306,-0.35277 -4.936,0.35277 -2.8194,3.17218 -1.7639,3.17218 -2.8194,7.75829 -1.7639,8.10824 -2.4666,8.8138 -10.5777,24.32756 -6.3444,13.04431 -6.6999,12.69153 -7.0499,12.34158 -8.1111,11.28042 -3.8777,5.28885 -4.2305,4.93606 -4.2306,4.23051 -4.5832,3.87774 -15.8666,11.63602 -16.56925,9.51936 -16.9221,8.10824 -8.4638,3.17218 -8.4611,2.82222 -8.461,2.46662 -8.8138,2.11667 -8.461,1.40829 -8.4638,1.05833 -16.9221,0.35278 -8.461,-0.35278 -8.1083,-0.70555 -8.4638,-1.40829 -7.7555,-1.76389 -15.8637,-5.28885 -7.4055,-3.17217 -7.4027,-3.87774 -14.1026,-8.8138 -6.3472,-5.28884 -6.6971,-5.64162 -5.9944,-6.34718 -5.6417,-6.69714 -5.6416,-7.05273 -4.936,-7.75547 -9.5194,-16.92204 -17.9804,-58.88002 -1.0583,-8.8138 -0.7027,-8.46102 -0.7056,-16.92205 -1.4111,-15.51375 -1.7639,-7.05274 -3.1722,-6.34435 -4.2305,3.17217 -7.0499,28.91085 -8.4638,28.55807 -4.5833,14.10264 -4.9361,13.74987 -4.9361,13.74986 -5.6388,13.39709 -11.2832,26.4414 -12.3388,25.38589 -13.0442,23.97478 -14.1027,22.56367 -4.2305,5.28884 -6.6999,7.04991 -8.8138,7.75547 -9.8722,7.05273 -10.2249,5.64162 -4.9361,1.40829 -4.936,1.05834 -4.9361,-0.35278 -4.2305,-1.40829 -2.1138,-1.05833 -2.1167,-1.76389 -1.7611,-1.76107 -1.7639,-2.11667 -1.7639,-4.23051 -1.0555,-4.58329 -0.7055,-5.28884 0,-5.64162 0.7055,-6.34436 1.0555,-6.34718 3.175,-13.39709 4.2306,-13.39708 4.2305,-11.9888 7.4027,-17.6276 5.2888,-12.69154 5.2888,-12.69153 9.8722,-26.09145 8.8138,-26.4414 7.7554,-27.49973 7.4056,-28.20529 3.1721,-14.45542 3.1722,-14.45542 5.9944,-29.6164 5.2889,-30.31914 1.4111,-12.33875 0.7027,-12.34158 -0.3528,-12.33875 -1.0555,-12.34158 -1.7639,-12.33876 -2.8194,-11.98598 -3.175,-11.28324 -4.2305,-10.93047 -4.5833,-10.57486 -5.6416,-9.51936 -5.9916,-8.46102 -6.3472,-7.75829 -3.5249,-3.17218 -3.8777,-3.17218 -7.4056,-5.28884 -8.1082,-3.87773 -8.461,-2.11667 -8.8138,-1.05833 -8.8138,0 -8.1111,0.70555 -8.1082,1.76389 -7.4027,2.46662 -7.4055,3.175 -6.6972,3.52496 -6.3471,4.23051 -6.3472,4.58329 -5.6388,4.93607 -10.2249,10.22491 -8.4611,10.92764 -7.0527,10.22491 -9.8721,15.51376 -9.1666,16.56926 -8.461,17.27483 -8.461,17.63042 -7.7555,18.33315 -7.0527,18.68594 -6.6972,19.39149 -5.6416,19.74144 -3.175,13.04713 -2.8194,12.69154 -3.525,26.08862 -2.8222,26.79418 -1.761,13.39991 -2.1167,14.10264 -3.525,23.26923 -2.8194,21.15255 -2.8222,19.39149 -1.7611,9.16658 -2.1166,8.46102 -2.4666,8.10824 -2.8223,7.75829 -3.5249,7.40269 -4.2305,7.05274 -5.2889,6.69713 -5.9944,6.34718 -7.0499,5.99157 -8.1082,5.9944 -5.9944,3.87774 -7.4055,3.52778 -4.2306,1.05551 -4.5832,0.70555 -4.9361,-0.35278 -4.9361,-1.40828 -6.3443,-3.175 -2.8223,-2.11385 -2.4666,-2.46944 -4.2305,-5.64163 -3.8777,-6.69713 -2.8222,-7.75547 -2.1139,-8.46384 -1.4111,-8.8138 -0.7056,-9.51936 0,-19.39148 1.7639,-19.74145 1.4111,-9.51935 1.7611,-8.8138 3.8777,-16.21932 6.3472,-24.32755 5.6416,-25.73585 4.9361,-27.14695 3.8777,-27.85251 3.525,-28.55807 2.8194,-29.26362 1.7639,-29.96636 1.0583,-29.96917 0.7056,-30.31914 -0.3528,-30.32195 -1.0583,-29.96918 -1.7639,-29.61358 -2.4666,-29.26362 -3.525,-28.20529 -3.8777,-27.49973 -4.9361,-26.79418 -2.4694,-10.57741 -3.525,-10.22434 -6.7,-18.68594 -7.4026,-36.3141 -11.9888,-25.73725 -5.9916,-13.74987 -2.8222,-7.05132 -2.8194,-7.05132 -4.2306,-14.80764 -1.4111,-7.75631 -1.0583,-8.10909 -0.3528,-8.10909 0,-8.46131 1.0584,-8.81436 1.7638,-9.16658 9.5194,-6.34605 z m 1938.39815,68.3974 7.7555,0.3525 6.3472,1.05777 5.9916,1.76276 5.2888,2.11554 4.5833,3.17302 3.8777,3.87802 3.175,4.23079 2.8194,4.58329 2.1167,5.28856 1.4083,5.28856 0.7055,5.64106 0.3528,6.34605 -0.7055,12.33988 -1.4112,6.69855 -1.4082,6.34633 -4.2306,12.6921 -5.9944,12.33988 -3.5249,5.64106 -3.8777,5.28828 -3.8806,5.28856 -4.5833,4.58329 -4.5833,3.8783 -4.5833,3.87801 -4.936,2.82053 -5.2861,2.46804 -5.2888,1.41026 -5.6416,1.05692 -5.2889,0 -5.6416,-1.05692 -6.6971,-2.46803 -4.5833,-3.87802 -8.1111,-9.51935 -6.3443,-8.10881 -4.2305,-8.46159 -2.1167,-8.46159 -0.7056,-8.46158 0.7056,-8.81409 2.1167,-8.46158 3.5249,-8.10881 4.2305,-8.10909 2.4666,-3.8783 2.4695,-3.87802 5.9944,-7.40381 5.9916,-7.05133 6.6999,-5.99355 6.3472,-5.99383 6.6971,-4.93579 6.3472,-3.8783 5.6416,-3.52552 z m 284.8582,59.93582 18.0058,0 17.9775,1.05777 17.9776,1.76276 17.272,2.82053 16.5664,3.5258 15.5223,4.93578 14.7884,5.99356 13.4056,7.05132 6.35,4.23079 5.9831,4.2308 5.3058,4.93578 4.9388,4.93607 4.572,5.64077 4.2334,5.64106 3.5278,5.99355 2.8222,6.69883 4.572,14.10123 1.4111,7.75829 0.7055,8.10825 0,8.46102 -0.7055,8.8138 -3.1609,19.03871 -8.4667,5.64162 -4.572,0.70556 -4.9389,-0.70556 -5.6444,-2.46662 -6.35,-3.175 -13.4056,-9.16658 -14.1111,-11.6332 -27.1215,-24.32755 -11.2889,-9.51936 -4.9389,-3.52495 -3.8947,-2.46945 -7.0273,-3.52495 -7.0556,-2.46776 -6.7168,-2.11553 -7.0274,-1.76276 -13.7724,-1.41027 -6.6887,-0.35249 -6.6887,0.70499 -6.7168,0.70527 -6.35,1.05777 -13.0387,3.52552 -12.3331,4.93466 -11.986,5.9944 -11.2832,6.69995 -5.2889,3.87773 -5.2888,3.87774 -10.2249,8.46102 -9.1666,8.46102 -8.461,8.81662 -7.4027,9.16658 -6.3472,8.46102 -5.6416,8.46103 -10.2221,19.03871 -8.8166,21.15255 -3.8778,10.93047 -3.1722,11.28324 -5.6416,23.61918 -3.5249,24.32756 -1.4111,11.9888 -0.7056,12.33875 0.3528,24.32756 0.7055,12.33875 1.4111,11.63603 1.7639,11.6332 2.4667,11.63602 2.8194,10.92764 3.8805,10.93047 3.8777,10.22491 4.9361,9.87213 5.2889,9.16658 5.9915,8.8138 6.3472,8.10825 7.4027,7.40269 7.7583,7.05273 8.8138,5.9944 9.1666,4.93607 4.936,2.46662 4.9361,2.11666 10.5749,3.52496 11.2832,2.46662 9.5194,1.05834 8.8138,0.70555 16.2165,-1.05833 7.3942,-1.41111 7.0555,-1.76107 6.7169,-2.46944 6.3218,-2.8194 11.9944,-6.69996 11.2889,-7.75547 10.5834,-8.46102 9.8777,-8.46102 9.8496,-8.8138 9.8778,-8.11107 10.2164,-7.04991 5.3058,-2.82222 5.6444,-2.8194 5.6445,-2.11385 5.6162,-1.76388 6.35,-1.05834 6.35,-0.70555 7.0556,0 7.0555,1.05833 7.3942,1.41111 8.0998,2.46662 22.2391,6.34718 4.2051,3.52496 2.8223,4.58329 2.1166,5.64162 1.4111,6.34718 0.3669,6.69713 0,7.40551 -0.7055,7.40269 -1.0725,7.75547 -1.4111,7.75828 -1.7498,7.40269 -3.8946,14.10265 -3.8665,11.6332 -3.5277,8.11106 -4.9389,10.22492 -5.6445,9.86931 -6.35,9.51935 -6.6886,9.16658 -7.0556,8.81662 -7.7611,8.46102 -8.0998,8.10825 -8.4667,7.40269 -9.144,7.05273 -9.5391,6.69713 -9.8777,5.9944 -10.2165,5.64163 -10.5833,4.93606 -11.2607,4.58329 -11.6558,3.87774 -11.6275,3.17217 -59.9327,6.34718 -13.3971,1.05833 -13.3971,-0.35277 -13.0443,-1.76389 -12.3416,-2.46662 -22.9164,-7.40552 -19.0388,-7.40268 -9.5193,-3.87774 -8.8138,-4.58329 -16.9221,-10.22491 -8.1082,-5.9944 -7.7583,-5.99158 -14.4554,-13.04713 -13.0443,-14.8082 -5.9944,-7.75547 -5.6388,-7.75546 -10.2249,-16.92487 -8.8138,-17.98038 -7.4055,-31.02469 -3.8778,-11.28324 -3.8777,-13.04431 -3.1722,-14.10265 -2.4694,-15.51093 -1.7611,-15.86653 -0.7056,-15.86654 0.3528,-15.86371 0.7028,-7.75829 1.0583,-7.40268 1.0583,-10.57769 0.7056,-10.22209 0.3528,-20.09705 0.7055,-19.39149 1.4083,-9.51935 1.0583,-4.58329 1.0584,-4.93607 5.2888,-18.33315 5.6416,-17.98038 3.1722,-8.8138 3.1722,-8.8138 6.6999,-17.27764 7.05,-16.56927 7.4055,-16.57209 8.461,-15.86371 8.461,-15.16098 9.5194,-14.8082 9.8721,-13.74987 10.5777,-13.39708 11.2804,-12.69182 5.9944,-5.99355 6.3444,-5.64106 12.6943,-10.92962 6.6972,-5.28828 7.0527,-4.93607 14.4554,-9.16658 50.0634,-20.44869 39.8272,-5.28856 z m 950.89135,25.73725 13.3774,0.3525 13.0386,1.05777 11.9945,2.11525 11.2889,3.17331 10.922,3.52552 10.2164,4.58329 9.1722,4.93607 9.1723,5.99355 8.0997,6.34605 7.7612,6.69883 7.0555,7.40381 6.35,8.10825 5.9831,8.46102 5.3058,8.46384 4.9389,9.16658 4.572,9.51936 2.8222,8.46102 2.1167,8.8138 3.1609,16.56927 2.1166,8.11106 2.8223,7.04991 2.1166,3.52496 2.1167,2.82222 2.8222,2.8194 3.1891,2.8194 5.6162,-1.05551 2.1167,-3.87773 1.778,-4.23334 2.1167,-9.16657 2.4553,-9.51936 3.1891,-9.51653 4.9389,-10.22491 5.6162,-10.93047 6.35,-10.93047 7.0556,-10.57486 7.3942,-10.22491 7.7611,-9.87214 8.128,-8.46158 8.4385,-7.05133 8.8335,-6.69854 9.1722,-5.64106 9.5109,-5.28856 9.1723,-4.23079 9.144,-3.87802 9.5391,-3.17331 18.6831,-4.23079 9.1722,-1.05749 9.5109,-0.70527 9.1722,0 8.8053,0.70527 9.1723,1.05749 8.8053,1.76304 16.9333,4.93579 8.4667,3.17302 7.7329,3.8783 7.7611,4.23079 7.7611,4.93579 7.0556,4.93606 7.0555,5.99356 6.6887,5.99355 6.0113,6.34746 5.9831,7.04991 5.6445,7.40269 9.8778,15.86653 7.7328,17.27483 3.5278,9.16657 2.4836,9.51936 4.2333,17.63042 2.8222,18.33316 2.1166,18.33315 1.0443,18.68594 0,19.03871 -0.7056,18.68593 -1.4111,19.03589 -2.1166,18.68593 -2.8222,18.33316 -3.1609,17.9832 -3.8947,17.6276 -4.2333,16.92204 -4.572,16.57209 -4.572,15.51093 -5.3058,14.8082 -4.9389,14.10265 -7.7329,32.08302 -6.7169,14.10265 -7.7611,15.16097 -7.7329,15.16098 -6.7169,14.45542 -4.572,10.22209 -7.4225,14.10265 -9.5109,16.21931 -11.2889,16.21649 -5.9831,7.40551 -6.35,7.40269 -6.35,5.9944 -6.35,5.28884 -6.3218,3.87773 -6.0113,2.46663 -3.1609,0.35277 -3.1891,0.35278 -5.6444,-1.40829 -5.2776,-2.46944 -4.572,-3.17218 -3.5278,-4.23051 -2.8222,-4.93607 -0.3669,-3.52777 -0.3387,-3.87774 1.0443,-9.51935 2.4835,-10.92765 3.1609,-11.28324 7.7611,-21.50534 3.5278,-8.46102 3.1609,-5.64162 5.3058,-10.22491 4.572,-10.22491 7.0555,-21.85811 6.35,-22.91645 6.6887,-23.622 10.2447,-33.14135 4.9106,-16.92205 4.6002,-17.27764 4.2334,-18.33316 3.1609,-18.68593 2.4835,-19.39149 1.4111,-20.79978 0,-25.73866 -2.4835,-26.4414 -2.1167,-13.04432 -2.8222,-12.69153 -3.5277,-11.9888 -4.2333,-11.28042 -5.2777,-10.22491 -2.8221,-4.58329 -3.5278,-4.58329 -3.1609,-4.23051 -3.8946,-3.52778 -3.8665,-3.52495 -4.2333,-3.17218 -9.5109,-4.58329 -4.9389,-1.76389 -5.6444,-1.05833 -11.6276,-1.05551 -6.35,0.35277 -6.717,0.70274 -8.0998,1.76389 -7.7611,2.46944 -7.3942,2.46662 -7.0555,3.17218 -7.0556,3.88056 -6.6887,3.87773 -12.3331,9.51935 -11.6558,10.57487 -5.2775,5.9944 -5.2776,5.9944 -9.8777,13.39709 -8.8054,14.10264 -8.4666,15.16098 -7.4225,15.51094 -6.6887,15.86653 -6.35,16.21649 -10.5833,32.78858 -8.8053,31.73306 -7.0556,32.78858 -6.35,32.4358 -3.1609,16.21649 -3.8946,15.51375 -4.2051,15.51094 -5.3058,14.8082 -5.6445,18.68593 -4.9389,21.50816 -5.2775,21.85811 -3.1609,10.57769 -3.5278,10.22209 -2.1166,4.58328 -2.1167,4.58329 -4.9389,8.11107 -5.6444,7.04991 -6.6887,5.64162 -7.7611,3.87774 -4.2334,1.05833 -4.9388,0.70556 -4.9389,0.35277 -5.2776,-0.35277 -6.0113,-1.05834 -5.9831,-1.76389 -3.8665,-9.16657 -2.8222,-10.57487 -1.4111,-11.63602 -0.3669,-12.33876 0.3669,-12.69153 1.0442,-12.69436 3.8947,-23.97478 5.6162,-31.37746 5.6444,-34.54965 4.9389,-35.96357 4.2334,-37.37187 2.4835,-37.37187 0.3387,-18.33315 0,-17.98038 -0.7056,-17.98038 -1.4111,-16.92204 -2.1166,-16.57209 -3.1609,-15.86371 -3.5278,-13.74987 -4.2333,-13.74987 -5.9832,-13.39991 -3.5277,-5.99158 -3.8947,-5.9944 -4.2333,-5.28884 -4.9389,-4.58329 -5.2776,-4.23051 -5.9831,-3.17218 -6.7169,-2.46944 -7.0555,-1.41111 -7.7329,-0.34996 -8.4667,0.34996 -11.9944,2.11666 -10.922,3.17218 -10.5834,3.88056 -9.8777,4.23051 -9.5109,5.28602 -8.8054,5.9944 -8.128,6.69996 -7.7611,7.04991 -7.0273,8.11106 -6.7169,8.10825 -6.35,8.8138 -5.9831,9.51935 -5.6445,9.51936 -4.9388,10.22491 -9.5109,21.50533 -8.0998,22.21089 -7.4225,23.622 -13.0386,47.94956 -11.9945,47.59678 -12.3331,45.12733 -8.4666,47.244 -12.3332,40.19127 -3.5277,10.93046 -3.8665,10.22491 -4.2333,9.51936 -4.6002,8.8138 -5.2776,7.75547 -2.8222,3.52495 -3.1609,2.82222 -3.1891,2.46663 -3.5278,2.11666 -3.5278,1.76107 -3.8664,1.05833 -3.8947,0.70556 -4.2051,0 -4.6002,-0.35278 -4.9389,-1.05833 -10.2163,-4.58329 -5.6445,-3.17218 -5.6444,-4.23051 0,-12.34158 0.3669,-11.6332 3.1608,-21.85811 8.0998,-41.60238 2.8222,-17.63042 2.1167,-17.27482 3.5278,-33.49414 3.1891,-33.14135 2.1167,-16.56927 2.4553,-16.92204 1.0724,-44.77738 2.1167,-85.67138 -1.4111,-10.22491 -0.7056,-10.57769 -0.7055,-21.15255 -0.3669,-10.57769 -0.7056,-9.87214 -1.4111,-9.87213 -2.1166,-8.8138 -7.7611,-21.50533 -9.5109,-26.44422 -3.8665,-13.39709 -3.1891,-12.69182 -1.4111,-11.63461 0.3669,-5.28856 0.7055,-4.58329 6.35,-4.23079 8.8054,-1.05777 8.0998,1.05777 7.7611,2.82052 7.3942,4.58329 7.0555,5.99356 6.35,7.40381 2.8223,4.2308 3.1891,4.23079 5.2775,9.1663 9.8778,19.74426 4.2333,9.87214 4.2052,9.87213 11.6557,33.49131 1.4111,5.28885 0.7056,5.64162 1.4111,12.33875 0.7056,5.64163 1.7496,5.28884 2.1168,4.23051 1.7779,1.76389 1.7498,1.41111 2.8222,1.76107 3.1609,0.70555 3.1891,0.35278 3.5278,-0.70555 5.9831,-2.46663 2.4836,-1.76389 1.4111,-2.11666 2.794,-4.93325 1.0724,-5.64162 1.0442,-6.34718 1.4111,-6.69713 8.8336,-21.15538 10.5551,-21.50533 14.8167,-22.21371 8.4666,-11.28042 8.8054,-10.93047 9.8778,-10.22378 10.2164,-9.16658 10.9502,-7.7566 11.6276,-6.69854 62.0606,-15.86541 z m -1679.62865,11.63462 3.8778,0.35249 3.8777,0.3525 5.9944,1.76304 4.9361,2.82053 2.1138,1.76276 1.7639,1.76276 2.4694,4.58329 1.7611,5.28856 0.7056,5.64106 0,5.99355 -2.1167,13.39737 -3.525,13.04431 -4.5833,12.34158 -4.5832,10.22209 -11.2805,26.09144 -10.2249,26.4414 -9.1666,27.49974 -8.461,27.85251 -3.8805,14.45542 -3.525,14.45542 -7.0499,30.31914 -5.9944,31.02751 -5.6416,32.78857 -1.7611,13.74987 -0.7055,13.39709 -0.3528,13.39709 0.7055,13.39709 1.4083,12.69153 2.1167,12.34158 2.8194,11.98598 3.5249,10.93046 4.5862,10.57769 2.4666,4.93607 2.4666,4.93324 5.9944,8.46385 6.7,7.75546 7.0499,6.69996 3.8777,2.8194 4.2305,2.46662 8.8166,4.23334 9.1666,2.46662 7.7555,1.05833 7.4027,0.35278 7.0527,-0.35278 7.0499,-1.41111 13.0471,-3.87773 12.3388,-5.9944 5.6416,-3.52496 5.2889,-3.87773 4.9332,-3.87774 4.5833,-4.23051 8.4638,-8.11106 6.3444,-7.75547 14.1026,-19.39149 12.3416,-20.09704 11.2804,-20.79978 9.8722,-21.85811 9.1666,-22.56649 8.461,-23.97196 7.7583,-24.68033 7.4027,-26.4414 3.8777,-16.21931 3.175,-16.21649 5.9916,-32.78858 2.8222,-15.86653 3.8777,-15.51376 4.5833,-15.15815 5.6416,-14.45542 10.5749,-54.64952 4.5833,-10.22208 6.3472,-10.57769 3.8777,-4.93607 4.2305,-4.93607 4.5833,-4.58329 4.9361,-4.23079 10.5777,-5.99355 5.9944,-2.11554 5.9915,-1.05777 6.3472,0.35278 6.3472,1.05749 6.6971,2.82052 6.7,3.8783 1.0583,7.75632 0.7027,7.75716 0.3528,15.51093 -0.3528,7.75829 -0.3527,7.75546 -2.1139,15.16098 -2.4694,14.8082 -2.8194,14.45542 -5.9944,27.85252 -5.2889,74.74373 -2.8194,19.03589 -2.1138,19.39149 -2.1167,19.74426 -1.4111,20.09705 -1.7611,41.60238 -0.3527,44.069 0,15.51375 0.7055,14.8082 1.4083,14.45542 1.4111,14.10265 4.9361,27.49973 2.8194,13.39709 3.5278,13.39709 2.8194,8.10824 3.1721,7.75829 6.7,15.15816 2.4666,7.75829 1.4111,8.8138 0.3528,9.51935 -0.7055,4.93607 -1.0584,5.28884 -6.3443,4.58329 -5.9944,0.35278 -5.9944,-0.70556 -5.9916,-2.11666 -5.9944,-3.17218 -5.6416,-4.23051 -5.6417,-4.93607 -10.2249,-11.9888 -9.5193,-13.39709 -8.1083,-13.39709 -6.3443,-12.33875 -4.5833,-10.22491 -3.5278,-11.28325 -2.4666,-11.6332 -2.4695,-11.63602 -3.1721,-10.22209 -1.4111,-4.23333 -1.0556,-5.6388 -2.8222,-12.34158 -3.8777,-11.28042 -2.8194,-4.23051 -3.175,-2.11667 -3.1722,0 -1.7639,0.70556 -1.761,1.05833 -3.525,2.8194 -3.5278,4.58329 -3.5249,5.28884 -3.1722,5.9944 -6.7,14.10265 -11.6332,28.90802 -8.111,19.03871 -8.1083,11.63602 -9.1666,11.6332 -10.2249,11.28325 -11.6332,10.57769 -12.3415,9.87213 -13.3971,8.8138 -14.1027,7.75547 -14.8054,6.34717 -15.5137,4.93607 -15.8665,3.52496 -8.1083,1.05833 -8.1082,0.35278 -8.4611,0 -8.4638,-0.35278 -8.1082,-1.05833 -8.4611,-1.41111 -8.461,-2.46663 -8.461,-2.82222 -17.2777,-7.40269 -8.461,-4.58329 -8.1082,-5.64162 -7.0528,-5.28884 -5.9915,-5.9944 -5.6417,-6.34436 -5.2888,-7.05273 -4.5833,-7.75547 -4.5833,-7.75547 -7.7554,-16.57208 -10.5777,-15.86372 -4.2305,-11.28324 -3.525,-11.28042 -3.175,-11.9888 -2.4666,-12.33876 -1.7639,-12.34158 -1.4111,-13.04431 -0.7028,-26.4414 0.7028,-27.14695 2.4694,-27.49974 4.2305,-27.85251 5.2889,-27.50255 6.3472,-27.49974 3.5249,-13.39708 3.525,-13.04432 8.1082,-25.38306 8.461,-24.32756 8.8167,-22.56366 8.8138,-20.8026 8.461,-18.68594 8.461,-16.21649 14.1026,-26.44422 6.7,-12.33875 7.7555,-11.9888 3.8777,-5.28716 4.2305,-5.28856 4.5833,-5.28828 4.9361,-4.93606 11.2832,-8.46159 6.3444,-4.23079 6.6999,-3.52552 z m 2366.41645,2.11525 19.0218,0.35278 18.6831,1.05749 18.3445,2.46803 17.9775,3.17302 16.9333,4.58329 15.8609,5.64106 14.8167,6.69883 13.3773,8.10881 6.0114,4.58328 5.6444,4.58329 4.9389,5.28885 4.572,5.28884 7.7611,11.98598 2.8222,6.34718 2.4554,6.69713 1.778,7.05273 1.0442,7.40269 0,15.86654 -1.0442,8.46102 -2.1167,9.16658 -2.4836,9.16657 -3.8664,9.51936 -7.4224,25.73867 -9.8496,15.86371 -11.6558,14.8082 -5.9831,7.04991 -6.35,6.69995 -6.6887,6.69996 -7.0555,6.34436 -14.4498,12.34157 -15.1553,11.6332 -15.8891,11.28325 -16.5665,10.57486 -33.4715,20.44983 -34.2054,19.74426 -33.4997,19.74427 -32.0887,20.79978 -8.8053,7.05273 -11.6276,10.57487 -6.35,6.34718 -6.35,7.04991 -11.9944,15.16097 -5.2776,8.10825 -4.6002,8.46384 -3.5278,8.10825 -2.4553,8.46102 -1.4111,8.10824 0,3.87774 0.3386,3.88055 1.778,7.75547 1.7498,3.52496 2.1167,3.52495 2.1166,2.82222 2.1167,2.46663 5.3058,4.23051 5.6444,2.46944 5.9831,1.76389 6.6887,0.34996 6.7169,-0.34996 6.6887,-1.05833 7.0555,-1.76389 13.7442,-4.93607 12.7,-6.34435 11.2889,-5.9944 9.144,-5.28885 9.8778,-7.05273 9.5109,-8.10825 8.4667,-8.8138 7.7611,-9.87213 7.3942,-10.22491 6.7169,-10.92765 6.6886,-11.63602 6.35,-11.28042 24.6663,-46.53844 6.7169,-10.93047 7.0555,-10.57769 7.3942,-9.87213 7.7611,-8.8138 4.2334,-5.28885 4.9389,-6.34435 5.6444,-7.40551 5.9831,-7.04992 6.6887,-5.9944 7.7611,-4.58328 3.8664,-1.05834 4.2334,-0.35278 4.6002,0.35278 4.572,1.05834 4.9389,3.175 3.8947,3.87773 3.4995,4.58329 2.4836,5.28884 3.5277,12.69154 1.4112,14.10264 0.7055,15.51093 0,15.86654 0.7056,15.51375 1.4111,14.45542 7.3942,46.89123 4.9389,22.56366 3.1609,10.92765 3.5278,10.57769 7.0555,15.51375 7.7611,15.86371 7.761,15.86654 6.3501,15.86653 3.1609,5.99158 4.2334,5.9944 9.1722,12.33875 3.5278,6.34718 1.0442,3.17218 0.7055,3.52778 0.3669,3.87773 -0.7055,3.87773 -3.1891,8.10825 -5.2776,2.46944 -9.1722,1.05551 -4.572,-0.70273 -4.6002,-0.70556 -4.572,-1.76388 -4.6003,-1.76389 -8.8053,-5.6388 -8.4667,-7.05274 -8.0997,-8.46102 -8.0998,-9.87213 -7.4225,-10.22491 -7.0273,-11.28043 -6.7169,-11.28324 -11.6275,-22.56367 -9.1723,-20.8026 -6.35,-16.56926 -2.8222,-10.22491 -1.7498,-8.8138 -0.7055,-7.75547 -1.0725,-6.69996 -1.7497,-6.34435 -3.1892,-5.9944 -5.2775,-5.64162 -3.5278,-3.17218 -4.572,-2.82222 -9.5391,4.23051 -2.794,7.75829 -3.5278,7.75546 -8.128,14.45542 -17.6106,27.85252 -11.6558,19.39148 -12.3331,18.33316 -6.35,8.46102 -6.6887,8.46102 -13.7442,15.86654 -15.1554,14.45542 -16.5946,13.39709 -18.6831,11.98598 -10.2165,5.28884 -10.5833,4.93607 -10.5551,4.23051 -5.3058,1.41111 -5.6444,1.05833 -10.5834,1.40829 -10.5551,0 -10.5833,-1.05551 -9.8778,-2.11667 -9.8779,-3.17217 -9.5109,-3.87774 -8.8053,-4.58329 -8.128,-5.28884 -7.7328,-5.9944 -6.717,-6.34718 -5.9831,-6.69713 -4.9389,-7.05273 -3.8664,-7.04992 -2.8222,-7.05273 -2.4835,-10.22209 -1.7498,-11.28324 -0.7055,-12.33876 -0.3669,-13.04713 0.7055,-12.69153 1.4111,-12.33876 2.4836,-10.93047 1.4111,-4.93606 1.4111,-4.23051 11.6276,-18.33316 3.1609,-6.34718 3.8946,-6.34435 8.4385,-12.34158 10.2446,-12.69153 11.9945,-12.33876 12.6718,-12.34158 14.1111,-12.33875 14.8166,-11.98598 15.494,-11.63602 15.5222,-11.28043 15.8609,-11.28324 31.3831,-21.15256 29.2664,-19.74426 25.0331,-17.98038 26.7829,-18.68593 15.8609,-12.34158 8.128,-6.69713 7.7611,-7.40552 7.0273,-7.40268 6.7169,-7.75547 5.6445,-8.46385 4.2333,-8.46102 3.4996,-8.8138 1.778,-9.16658 0,-9.51935 -0.7056,-4.93607 -1.0724,-4.58329 -3.1609,-8.8138 -4.572,-8.10824 -5.6445,-7.75829 -6.7169,-6.69713 -7.7328,-6.34718 -8.8336,-5.64162 -9.5109,-4.93325 -9.8778,-3.88055 -10.5833,-3.17218 -5.6444,-1.41111 -5.6163,-1.05551 -11.2889,-1.05834 -11.9944,-0.35277 -11.6276,0.35277 -11.9944,1.76107 -11.9943,2.82222 -11.9663,3.87774 -18.3444,8.10824 -23.2552,10.57769 -11.6557,4.58329 -5.6444,2.11666 -5.6163,1.40829 -9.5391,2.11667 -7.0555,0 -1.7498,-3.175 -1.0725,-3.17218 -0.7055,-3.17218 0.3669,-2.82222 1.7497,-5.28602 3.1891,-4.58329 4.572,-4.58329 4.9389,-3.88055 9.8777,-6.69714 10.2166,-6.69995 10.2164,-6.34436 22.2109,-11.28324 23.9889,-9.87185 12.3331,-4.58329 13.0387,-3.87802 31.0444,-4.58357 z m -1188.49425,4.58357 19.3887,0 19.02175,1.05749 18.0058,2.11554 17.272,3.17302 16.1996,4.58329 14.8166,5.28856 13.7443,6.69855 12.3331,8.10824 5.6444,4.58329 4.9389,4.93607 4.6002,5.28884 4.2334,5.64162 3.8664,5.64163 3.1609,6.34435 2.8222,6.69996 2.4836,7.04991 1.7498,7.75829 1.0724,7.75546 0.3387,8.10825 0,8.8138 -0.3387,9.16658 -1.4111,9.51935 -2.1167,9.87213 -2.4835,10.22492 -3.5278,9.51935 -4.572,8.8138 -9.8778,16.92487 -4.2333,6.69713 -4.9389,5.9944 -5.9831,6.34436 -6.35,5.64162 -13.0387,10.93047 -12.7,9.51935 -14.0829,11.28042 -13.7724,11.9888 -14.0829,11.6332 -14.8167,10.93047 -17.97755,11.6332 -18.6831,11.28324 -38.0718,20.8026 -18.7114,10.57487 -17.9775,11.28325 -17.6107,12.33875 -8.128,6.34718 -8.0998,6.69713 -9.8777,9.51936 -10.5551,11.9888 -5.3058,7.04991 -4.9389,7.40551 -4.572,7.75547 -4.2333,7.75546 -3.1609,8.11107 -2.1167,7.75547 -1.0724,8.10824 0.3668,7.40551 1.7498,7.40269 1.4111,3.52496 1.7498,3.52777 5.3058,6.34436 3.5278,2.82222 3.8664,2.8194 4.9389,2.46662 5.6444,1.76389 5.6445,0.70556 5.9831,-0.35278 6.0113,-1.05833 6.3218,-1.40829 6.0113,-2.11667 5.9832,-2.46662 11.6275,-5.64162 10.5833,-6.34718 14.4498,-10.22491 17.3002,-14.45542 8.0998,-8.10825 7.3942,-8.46102 14.4498,-18.33316 13.4056,-19.03871 12.7,-20.09704 12.33315,-20.09422 23.622,-40.19409 10.2164,-16.92205 6.3499,-9.51935 7.0557,-8.8138 3.8663,-4.23051 4.2335,-3.87774 4.6001,-3.175 4.5721,-2.8194 4.9389,-1.76389 4.9389,-1.40828 5.6444,-0.35278 5.6445,0.70273 4.2333,4.23333 3.5277,5.99158 2.8223,6.69996 2.4553,7.75546 3.5277,17.98038 1.4111,9.51936 0.7056,10.22491 2.4553,41.60238 1.4111,19.03871 0.7056,8.8138 1.4111,8.10824 3.1891,16.21931 4.9389,17.98038 5.9831,19.03871 6.6887,19.39149 7.4224,19.03871 7.7329,17.27482 7.7611,15.51376 7.4224,12.33876 14.0829,10.93046 1.4111,3.87774 0.7056,5.28884 0,5.28884 -1.0442,4.58329 -1.4111,2.46663 -1.0725,1.76388 -3.8664,2.46663 -7.0556,1.05833 -6.35,-0.70556 -5.9831,-1.41111 -5.3058,-2.46662 -4.9106,-3.17218 -4.6003,-3.52777 -4.572,-3.17218 -4.2333,-2.8194 -11.6275,-8.46385 -10.2447,-10.22209 -9.5109,-11.9888 -8.4667,-13.04431 -3.8664,-7.04991 -3.5278,-7.05273 -6.6887,-14.8082 -6.0113,-14.45542 -5.2775,-14.45543 -3.1892,-10.22208 -2.1166,-9.51936 -3.8665,-17.98038 -2.1166,-8.11106 -3.1609,-7.40269 -4.2334,-7.40551 -2.8222,-3.52496 -3.1891,-3.17218 -3.8664,1.05834 -3.8947,2.11384 -3.8664,3.175 -3.5278,3.87773 -3.5278,4.58329 -3.5278,5.28885 -6.35,11.6332 -5.6162,12.33875 -5.6444,11.9888 -4.9389,10.57769 -4.23335,8.10825 -12.7,18.68593 -7.3942,9.87213 -8.128,10.57487 -8.8053,10.22491 -9.1722,10.22491 -10.2165,9.87213 -10.5833,9.16658 -11.6276,8.8138 -11.9944,7.75547 -12.3331,6.69995 -13.4056,5.28885 -13.7442,3.87773 -14.1111,2.46662 -7.3942,0.35278 -7.3943,0 -7.7611,-0.35278 -7.7611,-1.05551 -11.9944,-2.46944 -10.5551,-3.17218 -9.8778,-3.87773 -8.8336,-4.58329 -7.7329,-5.28885 -3.5277,-2.82222 -3.5278,-3.17218 -6.35,-7.40268 -5.9831,-8.11107 -3.1891,-5.28602 -2.8223,-6.34718 -2.1166,-6.69996 -1.7498,-7.04991 -1.0725,-7.40551 -1.0442,-7.75547 -0.3669,-7.75546 0,-8.10825 1.0725,-16.21931 2.1166,-15.51375 3.5278,-14.45543 4.572,-12.69153 5.2776,-9.51935 7.0555,-9.16658 14.4498,-16.56927 10.9502,-13.39709 11.9945,-12.34158 12.6718,-11.98597 13.0386,-11.63603 27.8554,-21.85811 28.9277,-20.79977 59.2103,-39.84132 28.9277,-20.44982 27.85535,-21.15255 19.0217,-15.16098 10.2447,-8.8138 10.2165,-10.22491 8.4666,-11.6332 3.8665,-5.9944 2.8222,-6.34436 2.1167,-7.05273 1.4111,-7.04991 0.3386,-7.75829 -0.7055,-7.75547 -1.3829,-7.05273 -2.1167,-6.69713 -2.4835,-6.34718 -2.8223,-5.64162 -6.6886,-10.22209 -3.8947,-4.58329 -4.2051,-3.88056 -9.8778,-6.69713 -10.5833,-5.28885 -11.6276,-3.87773 -12.69995,-2.46944 -13.0386,-1.40829 -13.7443,0 -13.7724,0.70555 -14.0829,1.40829 -14.1111,2.46945 -14.1111,2.8194 -13.3773,3.52495 -13.0669,4.23051 -6.35,2.46945 -5.9831,3.52495 -11.9945,7.75547 -6.35,3.52778 -6.6887,2.46662 -3.5277,1.05833 -3.5278,0.70556 -8.0998,-0.35278 -4.2333,-5.28884 -1.0442,-6.34718 8.0997,-10.22209 9.5109,-9.51936 10.922,-9.16657 11.9945,-8.46385 12.7,-7.75546 13.4055,-6.69855 13.7442,-5.28856 13.7443,-3.87802 57.8273,-11.63461 z m -1558.6908,69.45489 -40.5468,11.63602 -13.0443,8.46103 -12.6916,10.57486 -11.9888,12.69436 -5.6388,6.69713 -5.6416,7.05273 -9.8721,14.8082 -4.5833,7.75547 -4.2305,7.75547 -6.7,16.21931 -2.8194,8.10824 -2.1166,8.10825 -1.7611,8.11106 -1.4111,8.46103 -1.4111,9.16657 -0.7028,8.8138 -1.0583,18.68594 0.7056,18.68593 1.761,19.03871 2.8222,18.68594 4.5833,17.6276 2.8194,8.8138 3.1722,8.10824 3.175,8.11107 3.8777,7.40269 8.8138,14.10264 4.9361,6.34718 5.2889,5.6388 5.9915,4.93606 5.9944,4.58329 6.7,3.88056 6.6971,3.17218 7.4055,2.46662 7.7555,1.76389 8.1082,0.70555 8.4611,0 9.1694,-1.05833 9.5165,-2.11667 2.4694,-5.6388 1.0584,-5.9944 1.0555,-6.69995 1.7639,-7.40269 2.1166,-5.28885 3.525,-4.93606 9.1666,-9.51936 10.2249,-8.10824 10.2249,-6.34718 4.2305,-2.11384 4.2305,-1.41112 8.461,-2.11384 16.9221,-2.46944 8.1111,-1.76389 7.4026,-2.46663 3.1722,-2.11666 3.175,-2.11385 2.8194,-3.17217 2.4666,-3.52778 4.5833,-8.8138 4.2334,-9.16658 3.5249,-9.16658 3.1722,-9.51935 4.5833,-19.39149 1.7639,-10.22209 1.0583,-9.87213 0.7027,-10.22492 0.3528,-10.22491 -1.4083,-20.09704 -3.175,-19.38867 -4.936,-19.03871 -3.1722,-8.8138 -3.8777,-8.81662 -4.2306,-8.46102 -4.5832,-7.75547 -5.2889,-7.75547 -5.6416,-7.05273 -5.9944,-6.69713 -6.6971,-5.9944 -7.0528,-5.64163 -7.4027,-4.58328 -7.7554,-4.23052 -8.4639,-3.52495 -9.1666,-2.82222 -9.1665,-2.11385 -9.8722,-1.05833 -10.2221,-0.35278 z m 17.9804,-50.41646 16.9221,0.3525 15.8665,1.76276 7.7555,1.41026 7.7554,1.76276 7.0528,2.11469 7.4027,2.11667 13.7498,5.28884 12.6944,6.34436 12.3387,7.40551 11.6332,8.46102 10.5777,9.51936 9.8722,10.22491 9.1665,10.92764 8.4611,11.63603 7.7582,12.33875 7.05,13.04431 5.9944,13.39991 2.8194,7.04991 2.4694,7.04992 4.5833,14.45542 3.8777,14.8082 3.1722,15.16098 2.4694,15.51375 1.4083,15.51093 0.7056,15.86654 0.3528,15.86371 -0.7056,16.21931 -1.7611,15.86653 -2.1166,15.86371 -3.1722,15.86654 -3.8777,15.51093 -4.2305,15.16098 -5.6417,15.16098 -5.9944,14.45542 -6.6999,14.10264 -10.5749,18.33316 -13.0443,19.03871 -7.0527,9.16658 -7.0499,8.8138 -7.4056,7.75546 -7.4026,6.69996 -10.225,7.04991 -4.936,3.87773 -4.9361,4.23334 -4.2305,4.58329 -3.525,5.6388 -2.1166,6.34717 -0.7056,3.52496 -0.3528,4.23051 4.9361,8.46102 6.7,8.11107 16.2165,15.86371 17.6304,15.51376 8.1082,7.40269 7.4027,7.75828 -1.0555,3.87774 -1.4111,2.8194 -2.4695,2.82222 -2.8194,1.76107 -3.1721,1.76389 -3.8778,1.05833 -4.2333,0.70555 -4.2305,0 -9.1666,-0.35277 -8.8138,-1.41111 -8.461,-2.11667 -7.0499,-2.46662 -4.5833,-2.11667 -4.9361,-2.8194 -9.1666,-6.69996 -17.9832,-15.86371 -16.922,-14.8082 -7.7555,-5.64162 -3.5277,-2.11384 -3.525,-1.41111 -7.7555,-1.41112 -7.7554,0 -8.4639,0.35278 -8.461,1.05834 -17.6276,2.11666 -8.8138,0 -8.461,-1.05833 -10.5777,-2.11667 -9.8721,-3.17218 -9.8722,-3.52495 -9.5193,-3.88056 -17.9804,-9.51653 -16.2165,-9.87213 -6.3472,-4.23051 -6.3472,-5.28885 -6.3443,-5.28884 -5.6416,-5.9944 -5.6417,-6.69714 -5.6416,-6.69995 -10.2249,-15.16098 -8.8138,-16.56927 -8.1082,-17.6276 -7.0499,-19.03871 -3.175,-9.87213 -2.4667,-9.87213 -4.5833,-20.8026 -3.5249,-21.15256 -2.1167,-21.85811 -0.7055,-21.86093 0.7055,-21.85812 2.4695,-21.85811 3.5249,-21.15537 5.2889,-21.15256 5.6388,-16.57209 6.6999,-15.86371 8.1083,-15.51376 9.1665,-14.8082 9.5194,-14.45542 10.2249,-13.74986 20.0971,-25.73585 6.6971,-7.05273 8.8138,-7.75547 10.2249,-8.10824 11.636,-8.10825 11.6332,-7.40551 11.636,-6.69713 10.9277,-5.64162 9.8721,-3.87774 53.2384,-10.57797 z"
         id="path4141"
         inkscape:connector-curvature="0" />
      <path
         style="fill:#d8713f;fill-opacity:1;fill-rule:nonzero;stroke:none"
         d="m 2920.5927,1227.821 0,-180.5149 98.6931,0 0,16.2193 -80.7155,0 0,65.2243 77.9215,0 0,16.2165 -77.9215,0 0,66.6355 80.7155,0 0,16.2193 -98.6931,0 z m -650.494,0 0,-180.5149 17.9776,0 0,180.5149 -17.9776,0 z m 41.9665,-50.419 19.0217,0 1.0725,7.0528 0.7055,3.5249 1.4111,3.1722 3.1609,6.3472 4.572,5.6416 5.3058,4.5833 5.9831,3.5249 6.7169,2.1167 7.3942,0.7056 7.3943,-0.7056 6.7168,-2.1167 6.35,-2.8194 5.9832,-4.5832 4.572,-5.2889 3.5277,-5.9944 1.0725,-3.5249 1.0442,-3.1722 0.7056,-7.7583 -1.0443,-7.0499 -2.4835,-7.0528 -3.8665,-6.3443 -5.3057,-4.9361 -5.9832,-4.2305 -6.35,-3.175 -13.7442,-4.2305 -0.7055,-0.3528 -1.0443,0 -1.4111,-0.3528 -1.778,-0.3527 -14.8166,-4.9333 -7.0274,-3.5278 -6.7169,-4.5832 -6.35,-7.05 -2.8222,-3.8777 -2.1166,-4.2305 -1.7498,-4.5833 -1.0725,-4.5861 -1.0442,-9.5165 0.3669,-5.2889 0.6773,-4.936 1.0725,-4.9361 1.7498,-4.2305 4.6002,-8.461 6.6886,-7.0527 7.7612,-5.9944 4.2333,-2.4667 4.572,-1.7638 4.6002,-1.4083 4.9389,-1.0584 4.9389,-0.7055 5.2775,-0.3528 9.8778,1.0583 9.1722,2.4667 8.4385,4.5832 7.7611,5.9944 6.35,7.4027 4.572,8.4639 2.4836,9.1666 0.7055,4.936 0.3387,4.9332 -19.0218,-0.3499 -1.0724,-6.3472 -1.7498,-5.9944 -3.1891,-5.2888 -3.8665,-4.5833 -4.9389,-3.8777 -5.2775,-2.8194 -6.0114,-1.7639 -6.6886,-0.3528 -6.35,0.3528 -5.9831,1.7639 -5.3058,2.8194 -2.1167,2.1166 -2.4553,2.1139 -3.8665,4.936 -2.8222,5.2889 -1.778,5.6416 -0.3386,6.3443 0.7055,7.4055 0.7056,3.1722 1.0442,2.8222 3.5278,4.9361 4.572,3.525 5.6444,2.8194 5.6445,2.4694 12.3331,4.2305 0.7055,0.3528 0.7056,0 3.1891,0.7027 3.1609,1.0584 14.8166,4.936 6.6887,3.525 6.7169,5.2888 3.8664,3.5278 3.1609,3.8777 3.1891,4.5833 2.4554,4.9361 3.1891,10.2221 1.0442,10.5777 -0.3387,5.2888 -0.7055,5.2889 -1.4111,5.2888 -1.778,4.5833 -2.1167,4.5833 -2.8222,4.2305 -7.3942,8.1082 -8.4667,6.7 -4.572,2.4666 -4.6002,2.1167 -4.9107,1.761 -5.3058,1.0584 -10.5833,1.0583 -10.922,-1.0583 -5.2776,-1.0584 -4.9388,-1.761 -9.5109,-4.5833 -4.6003,-2.8222 -4.2333,-3.525 -3.8664,-3.8777 -3.5278,-4.2305 -2.8222,-4.2305 -2.1167,-4.9361 -1.7498,-4.9361 -1.4111,-5.2888 -0.7055,-5.2889 0,-5.9944 z m 118.8155,50.419 77.8933,-180.5149 19.7556,0 77.5547,180.5149 -19.3887,0 -26.4442,-60.6411 -83.9047,0 -26.0773,60.6411 -19.3887,0 z m 52.5216,-76.8604 69.7935,0 -34.544,-82.8519 -35.2495,82.8519 z m 144.1873,76.8604 0,-180.5149 47.6109,0 25.0331,1.7639 5.9831,1.0583 6.0113,1.4083 5.6163,2.4695 5.6444,3.1721 5.6445,4.2305 4.6002,4.2306 4.2051,5.2888 3.1891,5.2888 2.8222,5.9944 1.7498,6.3472 1.0724,6.3443 0.3387,7.0528 -0.3387,5.9915 -0.7055,5.9944 -1.778,5.6417 -2.1167,5.6416 -2.8222,5.2888 -3.4996,4.5833 -4.2333,4.5833 -4.9389,3.8777 -5.3058,3.525 -5.6444,2.8194 -5.6162,1.7639 -5.6446,1.4111 -12.3612,1.7611 -12.3331,0.3527 -33.8385,0 0,72.6299 -18.3444,0 z m 18.3444,-89.1991 31.0163,0 9.5391,0 9.144,-0.7056 9.1722,-2.1166 8.4667,-4.2306 3.5277,-2.4666 3.1609,-2.8222 2.4836,-3.525 2.4553,-3.5249 3.1891,-7.7555 1.0442,-8.4638 0,-0.7028 0,-0.7055 -0.3387,-5.6416 -1.0725,-5.2889 -1.7497,-4.936 -2.8223,-4.5833 -3.1891,-4.2305 -3.8664,-3.525 -9.5109,-5.6416 -5.6444,-1.7639 -5.6445,-1.4083 -11.9944,-0.7055 -4.2334,0 -3.8664,0 -3.1891,0 -2.8221,0 -23.2552,0 0,74.7437 z m 126.5767,89.1991 0,-180.5149 43.0107,0 8.8053,0.3528 8.8053,0.3528 17.3003,2.1166 8.4384,2.4666 3.8947,1.7639 3.8664,2.1139 6.7169,4.2333 5.6162,4.9333 4.6003,5.2888 4.2333,6.3472 2.8222,6.6999 2.4553,7.4027 1.4112,7.4027 0.3667,7.7583 -0.3667,5.2888 -0.7057,5.286 -2.8221,9.8722 -2.1167,4.5832 -2.8222,4.5833 -6.6887,8.1111 -8.4666,7.0499 -4.2334,2.8194 -4.572,2.1167 -4.9389,1.7639 -4.9389,1.4083 -10.5833,1.0583 50.7718,67.341 -22.5496,0 -61.3551,-81.7964 5.6445,0 1.4111,0.3527 1.4111,0 6.6887,0 7.0555,-0.3527 11.6276,-1.4111 5.6444,-1.0556 5.3058,-2.1166 5.2775,-2.8194 4.572,-3.525 4.2334,-3.8805 3.1891,-4.9361 2.8222,-4.9361 1.7498,-5.286 0.7055,-2.8222 0.7056,-2.8194 0.3669,-5.6416 0,-1.0584 0,-0.3527 -0.7056,-4.5833 -1.0724,-4.2305 -1.4111,-4.5833 -1.7498,-4.2305 -2.4836,-3.8777 -2.8222,-3.525 -6.6886,-5.9944 -7.7612,-4.2305 -4.2333,-1.4111 -4.2333,-1.0583 -9.1722,-1.0556 -8.8054,-0.7055 -3.1609,0 -3.5277,0 -28.5609,0 0,163.9428 -17.9776,0 z"
         id="path4143"
         inkscape:connector-curvature="0" />
    </g>
  </g>
</svg>
