<?xml version="1.0" encoding="UTF-8" standalone="no"?>
<!-- Created with Inkscape (http://www.inkscape.org/) -->

<svg
   xmlns:dc="http://purl.org/dc/elements/1.1/"
   xmlns:cc="http://creativecommons.org/ns#"
   xmlns:rdf="http://www.w3.org/1999/02/22-rdf-syntax-ns#"
   xmlns:svg="http://www.w3.org/2000/svg"
   xmlns="http://www.w3.org/2000/svg"
   xmlns:sodipodi="http://sodipodi.sourceforge.net/DTD/sodipodi-0.dtd"
   xmlns:inkscape="http://www.inkscape.org/namespaces/inkscape"
   width="800mm"
   height="800mm"
   viewBox="0 0 2834.6457 2834.6457"
   id="svg2"
   version="1.1"
   inkscape:version="0.91 r13725"
   sodipodi:docname="clinica_alemana.svg">
  <defs
     id="defs4">
    <clipPath
       id="clipPath4154"
       clipPathUnits="userSpaceOnUse">
      <path
         inkscape:connector-curvature="0"
         id="path4156"
         d="M 0,792 612,792 612,0 0,0 0,792 Z" />
    </clipPath>
    <clipPath
       id="clipPath4879"
       clipPathUnits="userSpaceOnUse">
      <path
         inkscape:connector-curvature="0"
         id="path4881"
         d="m 0,784.567 793.701,0 L 793.701,0 0,0 0,784.567 Z" />
    </clipPath>
    <clipPath
       id="clipPath5009"
       clipPathUnits="userSpaceOnUse">
      <path
         inkscape:connector-curvature="0"
         id="path5011"
         d="m -336.46,98.8652 672.92,0 0,-197.7314 -672.92,0 0,197.7314 z" />
    </clipPath>
    <pattern
       y="0"
       x="0"
       height="6"
       width="6"
       patternUnits="userSpaceOnUse"
       id="EMFhbasepattern" />
    <pattern
       y="0"
       x="0"
       height="6"
       width="6"
       patternUnits="userSpaceOnUse"
       id="EMFhbasepattern-6" />
  </defs>
  <sodipodi:namedview
     id="base"
     pagecolor="#ffffff"
     bordercolor="#666666"
     borderopacity="1.0"
     inkscape:pageopacity="0.0"
     inkscape:pageshadow="2"
     inkscape:zoom="0.27179923"
     inkscape:cx="1918.8532"
     inkscape:cy="1275.151"
     inkscape:document-units="px"
     inkscape:current-layer="layer1"
     showgrid="false"
     inkscape:window-width="1920"
     inkscape:window-height="1138"
     inkscape:window-x="1358"
     inkscape:window-y="-8"
     inkscape:window-maximized="1"
     showguides="true"
     inkscape:guide-bbox="true">
    <sodipodi:guide
       position="1133.0952,1294.1988"
       orientation="0,1"
       id="guide8602" />
    <sodipodi:guide
       position="1836.5809,934.40081"
       orientation="0,1"
       id="guide8604" />
  </sodipodi:namedview>
  <metadata
     id="metadata7">
    <rdf:RDF>
      <cc:Work
         rdf:about="">
        <dc:format>image/svg+xml</dc:format>
        <dc:type
           rdf:resource="http://purl.org/dc/dcmitype/StillImage" />
        <dc:title></dc:title>
      </cc:Work>
    </rdf:RDF>
  </metadata>
  <g
     inkscape:label="Capa 1"
     inkscape:groupmode="layer"
     id="layer1"
     transform="translate(0,1782.2835)">
    <flowRoot
       xml:space="preserve"
       id="flowRoot4823"
       style="fill:black;stroke:none;stroke-opacity:1;stroke-width:1px;stroke-linejoin:miter;stroke-linecap:butt;fill-opacity:1;font-family:sans-serif;font-style:normal;font-weight:normal;font-size:40px;line-height:125%;letter-spacing:0px;word-spacing:0px"><flowRegion
         id="flowRegion4825"><rect
           id="rect4827"
           width="1321.4423"
           height="148.09267"
           x="497.43948"
           y="2621.9998" /></flowRegion><flowPara
         id="flowPara4829" /></flowRoot>    <flowRoot
       xml:space="preserve"
       id="flowRoot8594"
       style="fill:black;stroke:none;stroke-opacity:1;stroke-width:1px;stroke-linejoin:miter;stroke-linecap:butt;fill-opacity:1;font-family:sans-serif;font-style:normal;font-weight:normal;font-size:40px;line-height:125%;letter-spacing:0px;word-spacing:0px"><flowRegion
         id="flowRegion8596"><rect
           id="rect8598"
           width="617.56378"
           height="118.14263"
           x="-177.21394"
           y="2533.9189" /></flowRegion><flowPara
         id="flowPara8600" /></flowRoot>    <rect
       style="opacity:1;fill:none;fill-opacity:1;stroke:#0056ca;stroke-width:9.95265865;stroke-miterlimit:4;stroke-dasharray:none;stroke-opacity:1"
       id="rect5186"
       width="2824.2664"
       height="2824.3989"
       x="5.6156697"
       y="-1776.5837" />
    <path
       inkscape:connector-curvature="0"
       id="path4185"
       d="m 1119.2709,-694.24693 428.2832,0 428.2833,0 0,139.93966 -425.0551,0 -424.2544,0 -7.257,0 -12.0991,-0.72552 -12.0994,-0.72551 -12.0991,-2.17643 -5.6429,-0.72551 -6.4499,-1.45092 -11.2922,-2.17072 -11.2922,-3.62745 -11.2921,-3.62757 -10.4852,-3.62174 -10.4852,-4.35275 -10.4851,-5.07288 -4.8424,-2.90194 -4.8357,-2.90205 -9.67805,-5.79817 -8.87761,-5.80389 -8.87098,-6.52369 -8.87098,-7.24909 -8.0641,-6.52368 -8.0641,-7.98064 -7.26342,-7.9745 -7.25678,-7.9746 -6.45655,-8.70044 -3.22152,-4.35275 -3.22839,-4.34737 -5.64282,-9.42563 -4.84212,-8.70022 -4.83595,-10.15093 -4.03525,-9.42573 -4.03526,-10.15125 -3.22176,-10.15114 -2.42106,-10.87601 -2.42106,-10.1506 -0.8071,-10.87612 -1.61419,-10.876 0,-11.60109 0,-10.87547 1.61419,-10.87601 1.61419,-11.60109 1.61397,-10.87547 3.22817,-10.15103 3.22174,-10.87558 3.22817,-10.15125 4.83595,-9.42563 4.84212,-10.1506 2.42128,-4.35059 3.22176,-5.07547 5.64923,-8.70022 6.44991,-9.42628 6.45631,-8.70076 7.25701,-7.97525 8.06411,-7.97579 8.07028,-7.25028 8.0641,-7.25092 8.87099,-7.25049 9.67808,-6.5253 8.87114,-5.80044 10.48518,-5.80044 9.67817,-5.80068 10.4851,-4.3506 11.292,-4.3501 11.2923,-4.3506 11.2922,-2.9004 11.2921,-3.625 12.0993,-2.1754 11.2921,-2.1748 12.9065,-0.7249 12.0991,-1.4502 12.8998,0 8.8776,0 420.2128,0 420.2191,0 0,139.93617 -428.2833,0 -428.2832,0 -8.0639,1.44962 -8.0641,1.45049 -7.2634,2.90032 -7.257,2.90033 -7.2568,3.62498 -6.4565,4.35059 -5.6428,4.35017 -3.2282,2.17546 -2.421,2.90011 -4.836,5.80065 -4.8422,5.80044 -3.2284,5.79979 -3.2215,6.52595 -3.2283,7.25049 -1.614,7.25092 -0.8071,3.62509 0,3.62519 -0.8071,7.25028 0.8071,7.97589 0.8071,7.25028 1.614,7.25092 3.2283,6.52552 3.2215,6.52541 3.2284,6.5253 4.8422,5.80044 2.4146,2.90033 2.4214,2.17546 5.6492,5.07546 3.2217,2.89849 2.4211,2.17665 6.4565,4.35286 7.2568,3.62174 7.257,2.90195 7.2634,2.17643 8.0641,2.17061 8.0639,0.72562 0,0.72551 z"
       style="fill:#004e8a;fill-opacity:1;fill-rule:nonzero;stroke:none" />
    <path
       inkscape:connector-curvature="0"
       id="path4187"
       d="m 1126.5279,-554.30727 -7.257,0 7.257,0 z"
       style="fill:#004e8a;fill-opacity:1;fill-rule:nonzero;stroke:none" />
    <path
       inkscape:connector-curvature="0"
       id="path4189"
       d="m 1362.0433,-554.30727 0,242.89078 -155.6631,0 0,-242.89078 155.6631,0 z"
       style="fill:#00918a;fill-opacity:1;fill-rule:nonzero;stroke:none" />
    <path
       inkscape:connector-curvature="0"
       id="path4191"
       d="m 1203.152,-1081.4263 6.4566,0 0,5.8006 -6.4566,0 z"
       style="fill:#000000;fill-opacity:1;fill-rule:nonzero;stroke:none" />
    <path
       inkscape:connector-curvature="0"
       id="path4193"
       d="m 1209.6086,-1081.4263 0,5.8006 -6.4566,0 0,-5.8006 z"
       style="fill:#000000;fill-opacity:1;fill-rule:nonzero;stroke:none" />
    <path
       inkscape:connector-curvature="0"
       id="path4195"
       d="m 1209.6086,-1081.4263 -6.4566,0 6.4566,0 -6.4566,0 6.4566,0 z"
       style="fill:#000000;fill-opacity:1;fill-rule:nonzero;stroke:none" />
    <path
       inkscape:connector-curvature="0"
       id="path4197"
       d="m 1209.6086,-1075.6257 -6.4566,0 6.4566,0 -6.4566,0 6.4566,0 z"
       style="fill:#000000;fill-opacity:1;fill-rule:nonzero;stroke:none" />
    <path
       inkscape:connector-curvature="0"
       id="path4199"
       d="m 1362.0433,-1081.4263 0,387.17937 -155.6631,0 0,-381.37877 0,-5.8006 0.8071,-11.6003 1.6141,-10.8762 1.6076,-10.1511 0.8071,-5.7999 1.6141,-5.0757 2.4212,-10.151 4.0352,-10.1506 4.0286,-10.1506 4.0353,-9.4263 5.6429,-9.4255 4.8423,-9.4257 3.2282,-4.3501 3.2217,-4.3506 6.4563,-8.7008 6.4499,-7.9752 7.2571,-8.7008 8.0705,-7.2509 8.0638,-7.2505 8.0641,-7.2505 8.8711,-6.5255 8.8711,-6.5257 9.6845,-5.8004 4.8358,-2.9001 4.8423,-2.9003 10.4851,-5.0755 10.4852,-4.3504 10.4852,-4.3501 10.4852,-3.6253 11.2919,-3.6254 11.2923,-2.9002 12.0928,-2.1752 11.2923,-2.1751 12.0991,-1.4501 12.0993,-0.7252 12.9062,0 12.0992,0 12.9065,0.7252 12.0927,1.4501 12.0991,2.1751 11.2923,2.1752 12.0991,2.9002 11.2923,3.6254 10.4852,4.3501 11.2922,4.3504 4.8422,2.1753 5.643,2.1751 10.4849,5.8004 9.6783,5.8005 9.6781,5.8006 8.871,6.5254 8.8776,6.5255 8.8709,7.2503 8.0639,7.9759 7.257,7.9758 7.2635,7.9753 7.257,8.7007 5.6427,9.4257 6.4564,8.7007 4.8359,9.4264 4.8424,10.1506 4.8357,9.4256 4.0353,10.1506 3.2282,10.876 2.4145,10.1512 2.4212,10.8756 1.6141,10.8759 0.8072,11.601 0,10.8756 0,8.7006 0,73.23126 -155.6632,0 0,-87.73246 -1.6141,-7.2503 -1.614,-7.2503 -1.6142,-3.6258 -1.6139,-2.9001 -3.2218,-6.5254 -4.0352,-6.5256 -4.8425,-5.8004 -4.8357,-5.0756 -2.421,-2.9003 -3.2284,-2.1748 -6.4499,-4.3505 -6.4499,-4.3502 -6.4563,-3.625 -7.257,-2.9004 -8.0639,-2.1753 -8.0705,-1.4503 -4.0289,-0.725 -4.035,-0.7248 -8.0642,0 -8.8709,0 -8.0705,1.4498 -8.0641,1.4503 -7.2568,2.1753 -7.257,2.9004 -7.2635,3.625 -6.4499,4.3502 -3.2281,2.1754 -2.4213,2.1751 -5.6428,5.0751 -3.2281,2.1753 -2.4212,2.9003 -4.0288,5.8004 -4.0352,6.5256 -4.0289,5.8004 -2.4211,7.2509 -2.421,7.2503 -0.8071,7.2503 -0.8071,0 z"
       style="fill:#00918a;fill-opacity:1;fill-rule:nonzero;stroke:none" />
    <path
       inkscape:connector-curvature="0"
       id="path4201"
       d="m 1694.3463,-853.75765 0,542.34116 -155.6632,0 0,-542.34116 155.6632,0 z"
       style="fill:#00918a;fill-opacity:1;fill-rule:nonzero;stroke:none" />
    <path
       inkscape:connector-curvature="0"
       id="path4203"
       d="m 1127.335,-163.50216 0,24.64954 -2.4212,-2.17066 -3.2216,-1.45109 -4.0352,-1.45087 -3.2282,-1.45109 -4.0288,-0.72555 -4.0353,-0.72533 -8.0641,-0.72554 -8.0639,0.72554 -3.2281,0 -3.2282,0.72533 -6.45,2.17664 -3.228,1.45087 -2.4214,0.72554 -4.8357,3.62176 -1.6142,1.45087 -1.6139,2.17664 -1.6143,4.34708 -0.8071,2.17643 0,2.17663 0.8071,4.34709 0.8072,2.90196 0.8071,1.45108 1.6139,2.17643 1.6142,2.17642 2.4211,1.44534 2.4146,1.45087 2.4214,1.45109 3.228,1.45088 6.45,2.17663 3.2282,0.72555 4.0352,0 8.0639,0.72533 7.257,-0.72533 7.2634,-1.45109 4.0289,-1.45109 3.2282,-1.45088 3.228,-1.45109 3.2218,-2.17066 0,24.649543 -2.4212,0.72554 -2.4147,0.72555 -12.0991,1.45087 -6.4564,0.72555 -7.257,0.71958 -7.257,-0.71958 -7.257,0 -7.2634,-1.45108 -6.4499,-1.45089 -5.6492,-1.45109 -6.4499,-2.17642 -5.6496,-2.17642 -4.8356,-2.89621 -5.6492,-2.90196 -4.0289,-3.627513 -3.2281,-3.62175 -3.2282,-3.62751 -2.4147,-3.62176 -1.6142,-4.35285 -0.807,-3.62751 0,-4.34728 0,-4.35285 0.807,-4.34729 1.6142,-4.35285 2.4147,-3.62176 1.6139,-2.17641 1.6143,-1.45109 1.6139,-2.17642 1.6142,-1.45109 4.8357,-3.62154 4.8424,-2.90218 4.8356,-2.90197 6.4566,-2.89621 5.6429,-1.45087 6.4563,-2.17643 6.4499,-1.45108 7.257,-0.72554 7.2634,-0.72555 8.0639,0 6.4498,0 7.2635,0.72555 7.257,1.45107 8.0641,2.17643 z"
       style="fill:#004e8a;fill-opacity:1;fill-rule:evenodd;stroke:none" />
    <path
       inkscape:connector-curvature="0"
       id="path4205"
       d="m 1299.1325,-166.40412 0,63.08337 41.9405,0 0,18.125833 -76.6241,0 0,-81.209203 34.6836,0 z"
       style="fill:#004e8a;fill-opacity:1;fill-rule:evenodd;stroke:none" />
    <path
       inkscape:connector-curvature="0"
       id="path4207"
       d="m 1508.0347,-166.40412 0,81.209203 -34.6836,0 0,-81.209203 34.6836,0 z"
       style="fill:#004e8a;fill-opacity:1;fill-rule:evenodd;stroke:none" />
    <path
       inkscape:connector-curvature="0"
       id="path4209"
       d="m 1650.7916,-85.194917 0,-81.209203 35.4905,0 64.525,49.30483 0,-49.30483 34.6773,0 0,81.209203 -34.6773,0 -64.525,-49.304643 0,49.304643 -35.4905,0 z"
       style="fill:#004e8a;fill-opacity:1;fill-rule:evenodd;stroke:none" />
    <path
       inkscape:connector-curvature="0"
       id="path4211"
       d="m 1962.9311,-166.40412 0,81.209203 -35.4906,0 0,-81.209203 35.4906,0 z"
       style="fill:#004e8a;fill-opacity:1;fill-rule:evenodd;stroke:none" />
    <path
       inkscape:connector-curvature="0"
       id="path4213"
       d="m 2202.4753,-163.50216 0,24.64954 -3.2217,-2.17066 -3.2282,-1.45109 -3.2282,-1.45087 -4.0288,-1.45109 -3.2282,-0.72555 -4.0353,-0.72533 -8.8709,-0.72554 -7.257,0.72554 -3.2282,0 -4.0288,0.72533 -5.6492,2.17664 -3.2282,1.45087 -2.4147,0.72554 -4.8423,3.62176 -1.6139,1.45087 -1.6143,2.17664 -2.4147,4.34708 0,2.17643 0,2.17663 0,4.34709 0.8006,2.90196 1.6141,1.45108 1.6143,2.17643 1.6139,2.17642 1.6141,1.44534 2.4212,1.45087 3.2217,1.45109 2.421,1.45088 6.4564,2.17663 3.2217,0.72555 4.0353,0 8.0641,0.72533 8.0638,-0.72533 7.2635,-1.45109 3.2217,-1.45109 4.0353,-1.45088 3.2282,-1.45109 3.2217,-2.17066 0,24.649543 -2.4146,0.72554 -2.4211,0.72555 -12.9065,1.45087 -6.4499,0.72555 -6.4563,0.71958 -8.0638,-0.71958 -6.45,0 -7.2634,-1.45108 -6.45,-1.45089 -6.4564,-1.45109 -5.6429,-2.17642 -5.6428,-2.17642 -5.6493,-2.89621 -4.8358,-2.90196 -4.0353,-3.627513 -4.0353,-3.62175 -2.4146,-3.62751 -2.4211,-3.62176 -1.6142,-4.35285 -0.8069,-3.62751 -0.807,-4.34728 0.807,-4.35285 0.8069,-4.34729 1.6142,-4.35285 2.4211,-3.62176 1.6078,-2.17641 0.8068,-1.45109 2.4214,-2.17642 1.6139,-1.45109 4.0353,-3.62154 4.8358,-2.90218 5.6493,-2.90197 5.6428,-2.89621 6.4499,-1.45087 6.4563,-2.17643 6.4499,-1.45108 7.2635,-0.72554 7.257,-0.72555 7.257,0 6.4563,0 7.257,0.72555 8.0642,1.45107 8.0638,2.17643 z"
       style="fill:#004e8a;fill-opacity:1;fill-rule:evenodd;stroke:none" />
    <path
       inkscape:connector-curvature="0"
       id="path4215"
       d="m 2421.0559,-99.698997 -48.3971,0 -9.678,14.50408 -37.0983,0 52.4255,-81.209203 37.9054,0 50.8181,81.209203 -37.9118,0 -8.0638,-14.50408 z m -9.6784,-15.949403 -14.5202,-25.37488 -14.5203,25.37488 29.0405,0 z"
       style="fill:#004e8a;fill-opacity:1;fill-rule:evenodd;stroke:none" />
    <path
       inkscape:connector-curvature="0"
       id="path4217"
       d="m 1081.3657,272.25469 0,63.08351 -35.4907,0 0,-63.08351 -28.2273,0 0,-17.40029 92.7523,0 0,17.40029 -29.0343,0 z"
       style="fill:#00918a;fill-opacity:1;fill-rule:evenodd;stroke:none" />
    <path
       inkscape:connector-curvature="0"
       id="path4219"
       d="m 1333.8162,272.25469 -41.1336,0 0,13.77873 38.7123,0 0,17.40028 -38.7123,0 0,14.50415 41.1336,0 0,17.40035 -76.6244,0 0,-80.4838 76.6244,0 0,17.40029 z"
       style="fill:#00918a;fill-opacity:1;fill-rule:evenodd;stroke:none" />
    <path
       inkscape:connector-curvature="0"
       id="path4221"
       d="m 1482.2223,335.3382 22.5842,-80.4838 34.6837,0 27.4203,42.78113 28.2271,-42.78113 35.4908,0 20.1632,80.4838 -35.4908,0 -9.678,-46.40281 -32.2624,46.40281 -13.7069,0 -31.4556,-46.40281 -11.2922,46.40281 -34.6834,0 z"
       style="fill:#00918a;fill-opacity:1;fill-rule:evenodd;stroke:none" />
    <path
       inkscape:connector-curvature="0"
       id="path4223"
       d="m 1839.5242,254.8544 0,43.50667 0.8069,8.70014 0,2.17642 0.8071,0.71979 0.807,1.45088 0.8071,0.72554 0.8071,0.72554 1.614,1.45101 1.6142,1.45098 2.4211,0.7255 2.4147,0.7255 5.6494,1.45098 5.6428,0.71971 6.4563,-0.71971 5.6429,-1.45098 4.8423,-2.1765 2.4147,-0.72548 1.6141,-1.45101 0.8069,-1.45108 0,-0.72534 1.6142,-2.17066 0.8071,-2.17664 0,-7.97459 0,-43.50667 34.6835,0 0,46.40288 0,4.35284 0,2.90218 -0.8069,3.62154 -1.6143,2.90203 -0.807,2.1765 -2.4211,2.89619 -2.4211,2.17648 -2.4146,2.17649 -0.8071,0.7255 -1.6142,0.7255 -4.0353,2.89619 -4.8357,2.17649 -5.6494,2.17649 -5.6429,1.451 -5.6492,1.45098 -7.257,0.7255 -6.4499,0.72551 -7.2634,0 -7.2571,0 -7.257,-0.72551 -6.4562,-1.45098 -6.45,-0.7255 -6.4562,-2.17648 -5.6429,-2.17651 -4.0353,-2.17068 -4.0288,-2.902 -2.4211,-2.17648 -2.421,-2.17651 -1.6143,-2.17069 -0.807,-2.90198 -1.6076,-2.90199 0,-1.45108 0,-2.17067 -0.8071,-3.62751 0,-4.35284 0,-46.40288 34.6773,0 z"
       style="fill:#00918a;fill-opacity:1;fill-rule:evenodd;stroke:none" />
    <path
       inkscape:connector-curvature="0"
       id="path4225"
       d="m 2179.0903,257.03083 0,25.37508 -3.2281,-2.17066 -3.2282,-1.45109 -3.2282,-2.17643 -3.2217,-0.72553 -4.0353,-1.45089 -4.0288,-0.72554 -8.0703,0 -8.0641,0 -3.2282,0.72554 -3.2217,0.72534 -6.4563,1.45108 -3.2218,1.45109 -2.4211,1.45089 -4.8423,2.8962 -1.6142,2.17642 -1.6075,1.45109 -1.614,4.34709 -0.8072,2.17662 0,2.17643 0.8072,5.07839 0.8069,2.17088 0.8071,2.17641 1.6075,2.17642 1.6142,1.45109 1.6141,2.17067 2.4212,1.45088 3.2281,1.45108 2.4146,0.72555 6.4564,2.17644 4.0288,0.7255 3.2282,0.7255 8.0641,0 8.0703,-0.7255 7.257,-1.451 3.2282,-0.72548 4.0288,-1.45101 3.2282,-2.17642 3.2281,-1.44533 0,24.64957 -2.421,0 -2.4211,0.7255 -12.9065,2.17648 -6.4499,0.72551 -6.4563,0 -7.257,0 -7.2568,-0.72551 -7.2634,-0.7255 -6.45,-1.45098 -6.4498,-1.451 -5.6495,-2.17649 -5.6428,-2.89618 -5.6495,-2.902 -4.8356,-2.90199 -4.0353,-2.90198 -3.2282,-3.62169 -3.2217,-3.62753 -2.4211,-4.34709 -1.6142,-3.62751 -0.8071,-4.34729 -0.8068,-4.35284 0.8068,-4.35306 0.8071,-4.34709 1.6142,-3.62751 2.4211,-4.34729 1.6142,-1.45088 1.6075,-2.17663 1.6143,-1.45088 1.6139,-2.17642 4.0353,-2.89621 5.6427,-3.62751 4.8424,-2.90197 5.6428,-2.17066 6.4564,-2.17663 6.4498,-1.45088 6.4499,-1.45109 7.2635,-0.72554 7.257,-0.72533 7.257,0 7.2635,0 6.4498,0.72533 8.064,1.45109 8.0704,1.45088 z"
       style="fill:#00918a;fill-opacity:1;fill-rule:evenodd;stroke:none" />
    <path
       inkscape:connector-curvature="0"
       id="path4227"
       d="m 2327.4964,295.45911 0,-4.35306 0.8071,-4.34709 1.6076,-4.35305 2.4213,-3.62175 3.2281,-3.62751 4.0286,-3.6273 4.0353,-3.62176 4.8424,-2.90196 5.6428,-2.90197 5.6495,-2.8962 6.4498,-2.17663 6.4499,-1.45088 6.4564,-1.45109 7.257,-0.72533 7.2567,-0.72555 8.0705,0 8.0642,0 7.257,0.72555 7.2634,0.72533 6.4499,1.45109 6.4499,1.45088 6.4563,2.17663 5.6429,2.8962 5.6494,2.90197 4.8358,2.90196 2.421,1.45089 2.4213,2.17087 1.6139,1.45087 1.6078,2.17643 3.2282,3.62751 2.421,3.62175 1.6143,4.35305 0.8068,4.34709 0.8071,4.35306 -0.8071,4.35284 -0.8068,4.34729 -1.6143,4.35306 -2.421,3.62154 -3.2282,3.62753 -3.2217,3.62169 -4.8423,3.62749 -4.8358,2.90198 -5.6494,2.89619 -5.6429,2.902 -6.4563,2.17648 -3.2217,0.7255 -3.2282,0.7255 -6.4499,1.45098 -7.2634,0.72551 -7.257,0.7197 -8.0642,0 -8.0705,0 -7.2567,-0.7197 -7.257,-0.72551 -6.4564,-1.45098 -6.4499,-1.451 -6.4498,-2.17648 -5.6495,-2.902 -5.6428,-2.89619 -4.8424,-2.90198 -4.0353,-3.62749 -2.4146,-1.44521 -1.614,-2.17648 -3.2281,-3.62753 -2.4213,-3.62154 -1.6076,-4.35306 -0.8071,-4.34729 0,-4.35284 z m 36.2913,0 0,2.17642 0.8071,2.17642 0.807,2.17088 0.8071,2.17641 4.0353,3.62751 2.4146,2.17067 2.4211,1.45088 5.6492,2.90209 3.2218,1.45098 3.2282,0.7255 7.257,1.45098 3.2281,0 4.0352,0 8.0642,0 6.4498,-1.45098 6.4564,-2.17648 5.6428,-2.90209 4.8424,-3.62155 2.4146,-1.45109 1.6142,-2.17642 0.8071,-2.17641 0.8069,-2.17088 0.807,-2.17642 0,-2.17642 0,-2.17664 -0.807,-2.17642 -0.8069,-2.17066 -0.8071,-2.17643 -4.0288,-3.62751 -1.614,-2.17663 -3.2284,-1.44511 -5.6428,-2.90198 -3.2282,-1.45108 -3.2282,-0.72534 -6.4498,-1.45109 -4.0352,0 -4.029,0 -7.2633,0 -7.257,1.45109 -6.45,2.17642 -5.6492,2.90198 -4.8357,3.62174 -2.4213,1.45088 -1.614,2.17663 -0.8071,2.17643 -0.807,2.17066 -0.8071,2.17642 0,2.17664 z"
       style="fill:#00918a;fill-opacity:1;fill-rule:evenodd;stroke:none" />
    <path
       inkscape:connector-curvature="0"
       id="path4229"
       d="m 374.01229,-113.47178 128.24216,322.64885 -104.04561,0 -25.00295,-66.70512 -133.88895,0 -25.80934,66.70512 -84.68883,0 132.2755,-322.64885 112.91802,0 z m -111.30522,196.487868 87.9151,0 -43.55402,-113.107987 -44.36108,113.107987 z"
       style="fill:#004e8a;fill-opacity:1;fill-rule:evenodd;stroke:none" />
    <path
       inkscape:connector-curvature="0"
       id="path4231"
       d="m 543.3894,209.17707 0,-322.64885 90.33424,0 0,322.64885 -90.33424,0 z"
       style="fill:#004e8a;fill-opacity:1;fill-rule:evenodd;stroke:none" />
    <path
       inkscape:connector-curvature="0"
       id="path4233"
       d="m 982.15705,101.14192 -196.80305,0 0,11.6021 0,5.79817 0.8071,5.80394 1.61396,5.79818 1.61419,5.07859 2.42106,4.34709 1.6142,2.17642 1.60756,2.17663 1.61419,2.17642 1.61397,2.17067 4.03526,2.90196 4.83595,3.62751 4.84212,2.17066 4.83594,2.17664 4.84212,2.17642 5.64306,1.45109 5.64921,0.72534 5.64282,0.72553 5.64945,0 5.64282,0 4.84235,-0.72553 5.64281,-0.72534 4.03526,-0.72555 4.83572,-1.45109 4.03526,-1.45087 4.03525,-2.17664 3.22176,-2.17066 3.22815,-2.17642 3.22816,-2.90196 2.42106,-2.90197 2.41489,-3.62175 4.03502,-7.9746 1.6142,-3.62751 0.8071,-5.07263 82.26694,5.07263 -4.83574,10.15102 -4.84234,9.42568 -5.64923,8.70015 -6.44991,7.9748 -6.44992,7.25501 -7.26341,6.52352 -8.06411,6.52371 -4.02861,2.90197 -4.03526,2.90196 -4.84235,2.17066 -4.83572,2.17664 -8.87121,4.35284 -10.48517,3.62175 -10.48517,2.90197 -11.29203,2.17663 -5.64946,0.72534 -5.6428,0.72554 -12.90624,1.44513 -12.09936,0 -11.29204,0 -11.29227,-0.71959 -10.48516,-1.45108 -4.83572,-0.72534 -4.84235,-0.72554 -9.67808,-2.17663 -8.87097,-2.17643 -8.87303,-2.89621 -8.06593,-3.62751 -7.25885,-3.62751 -8.06547,-4.34708 -7.25954,-4.35305 -6.45242,-5.07263 -6.45244,-5.07839 -5.64555,-5.79818 -5.64602,-6.52371 -5.64601,-6.52948 -4.83916,-7.24926 -4.03274,-7.24905 -4.03319,-7.9748 -2.41924,-7.98036 -2.41992,-7.9746 -1.61259,-8.70034 -0.80709,-9.42548 -0.80641,-9.425678 0,-6.523719 0.80641,-7.249263 0.80709,-6.529474 0.80618,-6.523513 1.61283,-6.523719 1.6135,-5.803928 2.41924,-6.523719 2.41991,-5.798173 3.22611,-5.078599 2.41991,-5.798174 7.25884,-10.151022 4.03274,-5.0786 4.83961,-5.0726281 4.83915,-4.353054 4.8396,-4.347084 4.83915,-4.353054 5.64603,-4.347084 5.64602,-3.6275089 5.64555,-3.627509 6.45244,-2.896209 6.45242,-2.901964 6.45266,-2.176431 6.45311,-2.896209 6.44992,-1.451079 7.26341,-2.17643 7.25701,-1.451079 7.25678,-1.45089 15.32753,-1.451089 15.32088,-0.725535 14.52043,0.725535 14.52042,1.451089 6.44991,1.45089 6.44992,1.451079 6.45631,1.450885 6.44991,2.176624 6.45632,1.44513 6.44992,2.901965 5.64304,2.176624 5.64923,2.901964 5.6428,3.621549 5.64946,3.6275099 11.29203,7.249263 4.83595,4.352839 4.84213,4.347299 4.83595,5.0783941 4.03525,5.072833 3.22815,5.078384 4.02885,5.798184 3.22817,5.798173 2.42106,6.529474 2.42106,6.523718 2.41463,7.249048 1.61425,7.249264 1.61414,7.255018 0.80691,7.974603 0.80712,7.974593 0.80702,7.974809 0,8.700138 z M 785.354,60.537214 l 108.07961,0 -0.80709,-5.798174 -0.80687,-5.072628 -1.60778,-5.803929 -1.61397,-4.347299 -1.6142,-4.352849 -2.42106,-4.347289 -3.22816,-3.627509 -2.41466,-2.901964 -4.03525,-2.896209 -3.22816,-2.901975 -4.02885,-2.17642 -2.42106,-0.725545 -2.42129,-0.725545 -4.83573,-1.450874 -4.84234,-0.725545 -5.64282,-0.719779 -5.64945,0 -5.64282,0 -6.45631,0.719779 -4.83572,0.725545 -5.64946,1.450874 -4.83571,1.45109 -4.03526,2.17642 -4.03525,2.901975 -2.41466,1.445324 -1.61419,1.450885 -3.22816,2.901964 -3.22816,3.627509 -2.41466,4.347289 -2.42106,4.352849 -1.6142,4.347299 -1.61419,5.803929 -0.80687,2.170664 -0.80709,2.901964 -0.8071,5.798174 z"
       style="fill:#004e8a;fill-opacity:1;fill-rule:evenodd;stroke:none" />
    <path
       inkscape:connector-curvature="0"
       id="path4235"
       d="m 1477.3799,209.17707 -91.1381,0 0,-131.959155 0,-12.327647 0,-10.876773 -0.8071,-7.249048 -0.8069,-5.798173 -1.6141,-3.627509 -0.8071,-2.17643 -1.6141,-1.45108 -1.6078,-2.170664 -1.6139,-1.45109 -4.0353,-2.901964 -2.421,-1.450885 -2.4149,-0.725545 -5.6492,-2.176419 -3.2281,-0.71979 -3.2218,0 -8.0642,-0.725534 -7.2633,0.725534 -7.2568,1.44513 -8.0641,2.901964 -7.2634,3.627509 -4.0289,2.170665 -3.2282,3.627509 -0.8068,2.176624 -1.6143,2.17643 -2.421,5.798173 -1.6078,6.523719 -0.8068,7.255018 -0.8071,7.974593 0,9.425683 0,131.959155 -91.1446,0 0,-131.959155 0,-13.053192 -0.8071,-10.151228 -0.8071,-7.974593 -0.8004,-3.627509 -0.8072,-2.170664 -1.6141,-3.627509 -3.2282,-3.627509 -3.2282,-3.62155 -2.4145,-1.451079 -1.6143,-1.45109 -4.8421,-2.176419 -3.2218,-0.725545 -2.4213,-0.72534 -6.4563,-0.71979 -6.4499,-0.725534 -5.6492,0 -5.6428,0.725534 -4.8424,0.71979 -4.8359,1.450885 -4.035,1.451079 -3.2218,2.17643 -4.0352,2.176419 -2.4214,2.89621 -1.6139,1.451079 -1.6076,1.450885 -2.4212,4.353054 -1.6141,4.347084 -1.6141,5.078599 -1.6139,5.798173 -0.8072,6.523719 0,7.254813 -0.8071,7.974798 0,131.959155 -87.1029,0 0,-238.543435 84.6882,0 0,36.2516519 3.2218,-5.072629 3.2282,-4.353054 3.2282,-4.347094 4.0288,-4.3530439 4.0352,-3.627509 4.8357,-2.896209 4.8425,-3.627509 4.8421,-2.17643 5.643,-2.896199 6.4499,-2.17643 5.6492,-1.451079 7.257,-1.45089 6.4564,-1.451089 7.257,-0.725545 7.257,0 8.0638,-0.725535 7.2635,0.725535 7.257,0 6.4563,0.725545 6.4499,1.451089 6.4499,1.45089 5.6495,1.451079 5.6428,2.17643 5.6492,2.896199 4.8359,2.17643 4.8421,3.627509 4.836,2.896209 4.8421,3.627509 4.0353,4.3530439 4.0288,4.347094 3.2282,4.353054 3.2282,5.072629 3.2217,-5.072629 4.0353,-4.353054 4.0288,-4.347094 4.0353,-4.3530439 4.8421,-3.627509 4.8359,-2.896209 4.8421,-3.627509 5.6431,-2.17643 5.6492,-2.896199 5.6429,-2.17643 6.4562,-1.451079 6.45,-1.45089 7.257,-1.451089 7.2634,-0.725545 7.257,0 7.257,-0.725535 15.3273,0.725535 6.45,0.725545 6.4565,1.451089 6.4499,1.45089 6.4499,1.451079 5.6492,2.17643 5.6429,2.170664 5.6494,2.17642 4.8357,2.902169 4.0352,2.901964 4.0353,2.896209 4.0289,3.6273049 3.2281,2.902169 3.2282,3.621549 2.4147,4.353054 2.421,3.621754 1.6142,5.078384 1.614,5.7981731 1.6142,6.529474 0.8071,7.249263 0.8004,7.249059 0,8.700137 0.8071,9.425683 0,154.43803 z"
       style="fill:#004e8a;fill-opacity:1;fill-rule:evenodd;stroke:none" />
    <path
       inkscape:connector-curvature="0"
       id="path4237"
       d="m 1817.7468,209.17707 -87.91,0 -0.8069,-3.62751 -0.8071,-3.62154 -1.6142,-8.70015 -0.8071,-10.15121 0,-10.87677 -5.6428,5.79817 -5.6492,5.80413 -5.6429,5.07264 -6.4565,4.35304 -5.6428,3.62155 -5.6492,3.62751 -5.6431,2.90196 -5.6492,2.89621 -5.6428,1.45109 -5.6494,2.17642 -6.45,1.45109 -6.4499,0.72534 -6.4563,0.72554 -7.257,0.72554 -13.7134,0.71959 -10.4851,0 -9.6781,-0.71959 -9.678,-1.45108 -8.871,-2.17643 -8.871,-2.90196 -7.2634,-2.89621 -8.0641,-3.62751 -3.2282,-2.17642 -3.2217,-2.17664 -6.4563,-5.07262 -4.836,-5.0784 -4.8421,-5.07262 -1.6142,-2.90217 -2.4147,-2.89601 -2.421,-6.52947 -1.6142,-3.62175 -0.8071,-2.90197 -0.8069,-7.24926 -0.807,-7.25502 0,-5.79817 0.807,-5.79817 1.614,-5.07839 1.6142,-5.07264 2.421,-5.07859 2.4147,-5.07263 3.2282,-5.07839 3.2281,-4.3473 2.4213,-2.90196 1.6076,-2.17642 4.8423,-4.3473 5.6428,-3.627509 5.6493,-4.347083 6.4498,-3.62751 7.2635,-2.901964 8.0641,-2.896209 8.0638,-2.901965 8.8713,-2.901975 11.292,-2.176419 12.9065,-2.170869 15.3273,-2.17643 16.1279,-2.176419 18.5493,-1.45109 19.3626,-1.450874 21.771,-1.45109 0,-13.772767 0,-4.353054 -0.8007,-3.621754 -0.8071,-4.352849 -0.8071,-2.896199 -1.6139,-3.627509 -1.6143,-2.17643 -2.421,-2.901964 -2.4211,-2.170869 -3.2217,-2.17643 -3.2282,-1.450875 -4.0353,-1.45109 -4.0288,-1.451079 -4.0353,-0.72534 -4.8357,-0.725545 -4.8423,-0.719779 -5.6428,0 -5.6495,0 -5.6428,0.719779 -4.8421,0.725545 -4.8359,0.72534 -4.0353,1.451079 -4.8421,1.45109 -3.2218,1.450875 -4.0352,2.17643 -2.4214,2.170869 -3.2215,2.901964 -2.4213,2.901964 -2.421,2.901975 -1.6143,3.621744 -1.6139,3.627304 -0.8071,3.621754 -0.8007,4.353054 -83.0804,-6.523718 0.8071,-4.353054 1.614,-5.072629 1.6141,-4.353054 1.614,-5.072628 2.4213,-3.62751 2.4147,-4.352849 2.421,-3.6217541 3.2282,-4.353054 3.2282,-2.896209 3.2217,-3.627294 8.0641,-5.798184 8.8774,-5.8041339 4.836,-2.176419 4.8421,-2.170664 10.4851,-4.353054 10.4852,-2.901965 11.2922,-2.896209 11.2923,-2.901964 12.0991,-1.45089 12.0927,-1.451089 12.9063,-0.725545 12.9065,-0.725535 15.3273,0.725535 7.257,0 7.257,0.725545 14.5204,2.176434 7.2568,0.725545 6.4565,1.451079 7.2568,1.450885 6.45,2.170664 11.2922,3.62751 9.678,4.353054 8.8711,5.798173 1.6141,1.4508749 1.6142,1.451089 4.035,2.89621 5.6431,5.80392798 2.421,2.89620902 2.4211,2.901965 1.6142,2.901964 1.6076,3.6217541 0.807,3.627509 1.6143,3.62751 1.6139,10.151022 0.8071,11.596347 0,15.229622 0,108.03536 0.8071,14.49832 0.8069,12.32764 1.6142,10.15123 2.4147,7.24905 z m -95.9803,-113.833324 -11.2858,0.725545 -10.4852,1.450874 -10.4917,1.44512 -8.8709,1.451085 -8.8712,2.17642 -7.2568,2.17664 -7.257,2.17642 -6.4563,2.89621 -5.643,2.90196 -4.8421,2.90197 -4.0353,3.62175 -3.2217,3.62751 -2.4211,3.62751 -1.6142,4.34709 -1.614,4.35305 0,4.34709 0,2.90196 0,2.90197 0.8068,2.89621 1.6143,2.90196 3.2282,5.0786 1.6141,2.89621 2.4147,2.17642 2.421,2.17643 3.2282,1.45108 6.4499,2.89621 4.0353,1.45088 4.0352,0.72553 8.0639,0 6.4499,0 5.6495,-0.72553 4.8356,-1.45088 5.6495,-1.45109 4.8357,-2.17067 2.4214,-1.45087 2.421,-1.45109 4.0289,-2.90197 4.0349,-3.62175 4.0353,-3.62751 3.2217,-4.35284 2.4214,-4.3473 2.4211,-5.07839 1.6139,-4.34729 1.6142,-5.07839 0.8007,-5.79818 0,-5.07262 0,-21.753334 z"
       style="fill:#004e8a;fill-opacity:1;fill-rule:evenodd;stroke:none" />
    <path
       inkscape:connector-curvature="0"
       id="path4239"
       d="m 2152.4708,209.17707 -90.3311,0 0,-133.410235 0,-11.602112 -0.8071,-9.425683 -0.807,-7.249048 -0.8069,-5.078599 -1.6142,-4.347094 -0.8071,-2.176624 -1.6139,-2.17642 -1.6143,-1.451089 -1.6139,-2.170665 -4.0289,-2.901964 -2.4211,-2.17643 -3.2284,-0.725534 -4.8357,-2.170675 -3.2281,-0.725534 -3.2282,-0.725545 -7.257,0 -5.6428,0 -4.8423,0.725545 -4.8358,1.445324 -4.8423,1.450885 -4.0353,1.451079 -4.0288,2.901964 -4.0351,2.17643 -2.4213,3.621744 -3.2217,3.627509 -2.4211,3.621549 -1.6142,5.078599 -1.6139,4.347084 -0.8071,2.901964 -0.8071,2.901975 -0.8069,5.798174 -0.8071,5.804133 0,7.249058 0,133.410235 -90.331,0 0,-238.543435 83.8811,0 0,40.604706 5.6492,-6.5294741 4.8359,-6.523718 4.8422,-5.798174 5.643,-5.0785989 4.8421,-4.347083 5.6429,-3.627509 4.8423,-2.901975 4.8359,-2.170665 4.8422,-2.176624 5.6428,-1.450885 5.6494,-1.451079 4.8358,-1.45089 11.2923,-1.451089 11.2923,-0.725535 11.2919,0.725535 9.6781,0.725545 9.6784,1.451089 8.8709,2.176424 8.8774,2.17643 8.0641,3.621744 3.2282,1.450885 4.0288,2.176624 3.2282,2.17643 3.2281,2.170664 3.2218,2.176624 3.2281,2.901964 3.2282,2.9019749 2.4146,2.89621 4.0353,7.254803 4.0353,8.7003531 3.2217,9.425478 0.8071,5.072833 0.8068,5.803939 0.8071,5.798174 0.8072,5.798173 0,13.053192 0,152.98694 z"
       style="fill:#004e8a;fill-opacity:1;fill-rule:evenodd;stroke:none" />
    <path
       inkscape:connector-curvature="0"
       id="path4241"
       d="m 2493.6446,209.17707 -87.9162,0 -0.8072,-3.62751 -0.8071,-3.62154 -1.6075,-8.70015 -0.8072,-10.15121 0,-10.87677 -5.6492,5.79817 -5.6427,5.80413 -5.6495,5.07264 -5.6428,4.35304 -6.4564,3.62155 -5.643,3.62751 -5.6492,2.90196 -5.6428,2.89621 -5.6495,1.45109 -5.6428,2.17642 -6.4499,1.45109 -6.4564,0.72534 -6.4498,0.72554 -7.257,0.72554 -13.7134,0.71959 -10.4852,0 -9.678,-0.71959 -9.6781,-1.45108 -8.8776,-2.17643 -8.871,-2.90196 -7.257,-2.89621 -7.2568,-3.62751 -4.0352,-2.17642 -3.2282,-2.17664 -6.4499,-5.07262 -4.8424,-5.0784 -4.8359,-5.07262 -1.614,-2.90217 -2.421,-2.89601 -2.4213,-6.52947 -1.6075,-3.62175 -0.8072,-2.90197 -0.8071,-7.24926 -0.8069,-7.25502 0.8069,-5.79817 0,-5.79817 1.6143,-5.07839 1.6075,-5.07264 2.4213,-5.07859 2.421,-5.07263 3.2282,-5.07839 3.2217,-4.3473 2.4211,-2.90196 1.6142,-2.17642 4.8421,-4.3473 5.6431,-3.627509 5.6428,-4.347083 6.4563,-3.62751 7.257,-2.901964 8.0639,-2.896209 8.0705,-2.901965 9.6781,-2.901975 10.4851,-2.176419 12.9063,-2.170869 15.3211,-2.17643 16.1344,-2.176419 18.5493,-1.45109 19.3561,-1.450874 21.7772,-1.45109 0,-13.772767 0,-4.353054 -0.8069,-3.621754 -0.8071,-4.352849 -0.807,-2.896199 -1.6143,-3.627509 -1.6075,-2.17643 -2.4211,-2.901964 -2.4212,-2.170869 -3.2282,-2.17643 -3.2218,-1.450875 -4.035,-1.45109 -4.0353,-1.451079 -4.0288,-0.72534 -4.8423,-0.725545 -4.8358,-0.719779 -5.6494,0 -5.6429,0 -5.6492,0.719779 -4.8359,0.725545 -4.8421,0.72534 -4.0289,1.451079 -4.8423,1.45109 -3.2282,1.450875 -4.0286,2.17643 -2.4213,2.170869 -3.2282,2.901964 -2.4211,2.901964 -2.4146,2.901975 -1.6142,3.621744 -1.6139,3.627304 -0.8071,3.621754 -0.8072,4.353054 -83.0739,-6.523718 0.8068,-4.353054 1.6142,-5.072629 1.6142,-4.353054 1.6075,-5.072628 2.4211,-3.62751 2.4213,-4.352849 2.4211,-3.6217541 3.2217,-4.353054 3.2282,-2.896209 3.2281,-3.627294 8.0642,-5.798184 8.8709,-5.8041339 4.8424,-2.176419 4.8357,-2.170664 10.4851,-4.353054 10.4852,-2.901965 11.2921,-2.896209 11.2922,-2.901964 12.0994,-1.45089 12.0991,-1.451089 12.9062,-0.725545 12.9063,-0.725535 15.3211,0.725535 7.257,0 7.2635,0.725545 14.5137,2.176434 7.2634,0.725545 7.257,1.451079 6.45,1.450885 6.4562,2.170664 11.2923,3.62751 9.6781,4.353054 8.871,5.798173 1.6142,1.4508749 1.6142,1.451089 4.0286,2.89621 5.6495,5.80392798 2.421,2.89620902 2.4147,2.901965 1.6141,2.901964 1.6141,3.6217541 0.807,3.627509 1.6142,3.62751 1.614,10.151022 0.8071,11.596347 0.8004,15.229622 0,108.03536 0,14.49832 0.8071,12.32764 1.6142,10.15123 2.421,7.24905 z m -95.9804,-113.833324 -11.292,0.725545 -10.4852,1.450874 -10.4852,1.44512 -8.8709,1.451085 -8.8713,2.17642 -7.2633,2.17664 -7.257,2.17642 -6.45,2.89621 -5.6492,2.90196 -4.8357,2.90197 -4.0353,3.62175 -3.2281,3.62751 -2.4149,3.62751 -1.614,4.34709 -1.6142,4.35305 0,4.34709 0,2.90196 0.8071,2.90197 0.8071,2.89621 0.8071,2.90196 3.2218,5.0786 1.6139,2.89621 2.4211,2.17642 2.4213,2.17643 3.2217,1.45108 6.4564,2.89621 4.0288,1.45088 4.0351,0.72553 8.0641,0 6.4562,0 5.6429,-0.72553 4.8423,-1.45088 5.6429,-1.45109 4.8423,-2.17067 2.421,-1.45087 2.4147,-1.45109 4.0353,-2.90197 4.0352,-3.62175 4.0288,-3.62751 3.2282,-4.35284 3.2282,-4.3473 1.6075,-5.07839 2.4213,-4.34729 0.8071,-5.07839 0.8069,-5.79818 0,-5.07262 0,-21.753334 z"
       style="fill:#004e8a;fill-opacity:1;fill-rule:evenodd;stroke:none" />
    <path
       inkscape:connector-curvature="0"
       id="path4243"
       d="m 2645.279,98.965285 7.257,0.725545 7.257,0.72554 7.2633,2.17642 3.2219,1.45109 4.0351,1.45089 3.2282,2.17662 3.2218,2.17067 5.6492,4.35305 3.2282,2.17642 2.4146,2.89621 2.4214,2.90196 1.6139,2.90198 1.6141,3.62174 1.6141,2.90197 2.4146,6.52371 1.6142,3.62731 0,3.62751 0.8071,2.89621 0,3.6275 -0.8071,6.52372 -1.6142,7.25502 -2.4146,6.52352 -0.8071,2.90216 -2.4211,2.89601 -1.6139,3.62751 -2.4214,2.90196 -4.8357,5.07283 -6.4563,4.35285 -3.2218,2.17066 -3.2282,1.45109 -7.257,3.62751 -7.2633,2.17642 -3.2218,0.72555 -4.0352,0 -3.2282,0.71979 -4.0288,0 -7.2635,-0.71979 -8.0638,-0.72555 -7.2571,-2.17642 -3.2281,-1.45109 -3.2218,-2.17642 -4.0352,-1.45109 -3.2282,-2.17066 -5.6428,-4.35285 -4.8423,-5.07283 -2.4211,-2.90196 -1.6078,-3.62751 -4.0353,-5.79817 -2.421,-6.52352 -0.8071,-3.62751 -0.8069,-3.62751 0,-2.89621 0,-3.62751 0,-6.52371 1.614,-7.25482 2.421,-6.52371 4.0353,-6.52371 4.0289,-5.80394 4.8423,-5.07263 6.4499,-4.35305 3.2281,-2.17067 3.2282,-2.17662 7.257,-2.90198 7.2568,-2.17642 3.2284,-0.72554 4.0286,0 3.2282,-0.725545 4.0353,0 z m 0,8.706105 -6.4564,0.71958 -5.6428,0.72554 -6.4499,2.17643 -5.6494,2.17663 -5.6429,2.90196 -2.4211,2.17066 -2.4212,2.17643 -4.035,4.35306 -2.4149,2.17642 -1.614,2.89621 -2.4211,5.07859 -1.6141,2.8962 -0.8072,2.90197 -0.8071,2.17643 -0.8068,2.90196 0,5.79817 0,5.79818 1.6139,5.80394 1.6142,5.07283 3.2282,5.07838 1.614,2.89621 1.6078,2.17643 2.421,2.17663 2.4211,2.17643 4.8423,3.62174 5.6429,3.6273 5.6494,2.17664 5.6428,2.17066 3.2282,0.72555 3.2217,0 6.4564,0.72532 6.4499,-0.72532 5.6494,-0.72555 6.4499,-2.17066 5.6492,-2.17664 3.2218,-1.45087 2.4211,-2.17643 2.4212,-1.45108 2.4211,-2.17066 4.0289,-4.35306 4.0352,-5.07264 2.421,-5.07838 2.4147,-5.07283 0.8072,-2.90198 0,-2.90196 0.8071,-5.79818 -0.8071,-5.79817 -0.8072,-5.07839 -2.4147,-5.79817 -2.421,-5.07859 -2.4213,-2.89621 -1.6139,-2.17642 -4.0289,-4.35306 -4.8423,-4.34709 -5.6429,-2.90196 -6.4563,-2.17663 -5.6428,-2.17643 -5.6494,-0.72554 -6.4499,-0.71958 z m -25.8125,73.22884 0,-56.5541 21.7772,0 9.678,0 3.2284,0.72555 3.2282,0.72553 2.4147,0.72555 2.421,1.44512 1.6142,1.45088 1.614,2.17663 0.8071,1.45088 1.6142,2.17663 0,2.17066 0.8069,2.17643 -0.8069,2.90196 -0.8072,2.90197 -1.6141,2.89621 -2.4211,2.17663 -2.421,2.17642 -3.2218,1.45087 -3.2282,1.45109 -4.0352,0 3.2282,1.44512 2.421,1.45109 4.0289,5.0784 4.8421,6.5237 8.0641,10.87678 -12.9062,0 -5.6429,-8.70034 -2.4212,-5.0784 -3.2282,-3.62174 -2.4147,-2.90198 -2.4211,-1.45087 -1.6141,-0.72555 -1.614,-0.72554 -2.4213,-0.72555 -2.4146,0 -5.6492,0 0,23.92997 -10.4852,0 z m 10.4852,-31.90456 12.0991,0 4.0352,0 3.2218,-0.72554 3.2282,-0.72555 1.6141,-0.72533 1.614,-1.44533 0.8071,-1.45088 0.8071,-1.45109 0,-2.17642 0,-2.17643 -1.6142,-2.17086 -1.614,-1.45088 -2.4212,-1.45109 -4.0287,-0.72534 -6.4565,0 -11.292,0 0,16.67474 z"
       style="fill:#004e8a;fill-opacity:1;fill-rule:evenodd;stroke:none" />
  </g>
</svg>
