<?xml version="1.0" encoding="UTF-8" standalone="no"?>
<!-- Created with Inkscape (http://www.inkscape.org/) -->

<svg
   xmlns:dc="http://purl.org/dc/elements/1.1/"
   xmlns:cc="http://creativecommons.org/ns#"
   xmlns:rdf="http://www.w3.org/1999/02/22-rdf-syntax-ns#"
   xmlns:svg="http://www.w3.org/2000/svg"
   xmlns="http://www.w3.org/2000/svg"
   xmlns:sodipodi="http://sodipodi.sourceforge.net/DTD/sodipodi-0.dtd"
   xmlns:inkscape="http://www.inkscape.org/namespaces/inkscape"
   width="800mm"
   height="800mm"
   viewBox="0 0 2834.6457 2834.6457"
   id="svg2"
   version="1.1"
   inkscape:version="0.91 r13725"
   sodipodi:docname="consalud.svg">
  <defs
     id="defs4">
    <clipPath
       id="clipPath4154"
       clipPathUnits="userSpaceOnUse">
      <path
         inkscape:connector-curvature="0"
         id="path4156"
         d="M 0,792 612,792 612,0 0,0 0,792 Z" />
    </clipPath>
    <clipPath
       id="clipPath4879"
       clipPathUnits="userSpaceOnUse">
      <path
         inkscape:connector-curvature="0"
         id="path4881"
         d="m 0,784.567 793.701,0 L 793.701,0 0,0 0,784.567 Z" />
    </clipPath>
    <clipPath
       id="clipPath5009"
       clipPathUnits="userSpaceOnUse">
      <path
         inkscape:connector-curvature="0"
         id="path5011"
         d="m -336.46,98.8652 672.92,0 0,-197.7314 -672.92,0 0,197.7314 z" />
    </clipPath>
    <clipPath
       id="clipPath9212"
       clipPathUnits="userSpaceOnUse">
      <path
         inkscape:connector-curvature="0"
         id="path9214"
         d="m 0,335 516.475,0 0,-335 L 0,0 0,335 Z" />
    </clipPath>
    <clipPath
       id="clipPath9340"
       clipPathUnits="userSpaceOnUse">
      <path
         inkscape:connector-curvature="0"
         id="path9342"
         d="m -336.46,98.8652 672.92,0 0,-197.7314 -672.92,0 0,197.7314 z" />
    </clipPath>
    <pattern
       y="0"
       x="0"
       height="6"
       width="6"
       patternUnits="userSpaceOnUse"
       id="EMFhbasepattern" />
    <pattern
       y="0"
       x="0"
       height="6"
       width="6"
       patternUnits="userSpaceOnUse"
       id="EMFhbasepattern-3" />
    <pattern
       y="0"
       x="0"
       height="6"
       width="6"
       patternUnits="userSpaceOnUse"
       id="EMFhbasepattern-30" />
  </defs>
  <sodipodi:namedview
     id="base"
     pagecolor="#ffffff"
     bordercolor="#666666"
     borderopacity="1.0"
     inkscape:pageopacity="0.0"
     inkscape:pageshadow="2"
     inkscape:zoom="2.2632496"
     inkscape:cx="218.87744"
     inkscape:cy="2721.3187"
     inkscape:document-units="px"
     inkscape:current-layer="layer1"
     showgrid="false"
     inkscape:window-width="1920"
     inkscape:window-height="1138"
     inkscape:window-x="1358"
     inkscape:window-y="-8"
     inkscape:window-maximized="1"
     showguides="true"
     inkscape:guide-bbox="true">
    <sodipodi:guide
       position="1369.773,1440.4552"
       orientation="0,1"
       id="guide11511" />
    <sodipodi:guide
       position="957.86614,1440.4552"
       orientation="1,0"
       id="guide11513" />
    <sodipodi:guide
       position="2790.7296,1355.149"
       orientation="1,0"
       id="guide11515" />
  </sodipodi:namedview>
  <metadata
     id="metadata7">
    <rdf:RDF>
      <cc:Work
         rdf:about="">
        <dc:format>image/svg+xml</dc:format>
        <dc:type
           rdf:resource="http://purl.org/dc/dcmitype/StillImage" />
        <dc:title />
      </cc:Work>
    </rdf:RDF>
  </metadata>
  <g
     inkscape:label="Capa 1"
     inkscape:groupmode="layer"
     id="layer1"
     transform="translate(0,1782.2835)">
    <flowRoot
       xml:space="preserve"
       id="flowRoot4823"
       style="fill:black;stroke:none;stroke-opacity:1;stroke-width:1px;stroke-linejoin:miter;stroke-linecap:butt;fill-opacity:1;font-family:sans-serif;font-style:normal;font-weight:normal;font-size:40px;line-height:125%;letter-spacing:0px;word-spacing:0px"><flowRegion
         id="flowRegion4825"><rect
           id="rect4827"
           width="1321.4423"
           height="148.09267"
           x="497.43948"
           y="2621.9998" /></flowRegion><flowPara
         id="flowPara4829" /></flowRoot>    <flowRoot
       xml:space="preserve"
       id="flowRoot8594"
       style="fill:black;stroke:none;stroke-opacity:1;stroke-width:1px;stroke-linejoin:miter;stroke-linecap:butt;fill-opacity:1;font-family:sans-serif;font-style:normal;font-weight:normal;font-size:40px;line-height:125%;letter-spacing:0px;word-spacing:0px"><flowRegion
         id="flowRegion8596"><rect
           id="rect8598"
           width="617.56378"
           height="118.14263"
           x="-177.21394"
           y="2533.9189" /></flowRegion><flowPara
         id="flowPara8600" /></flowRoot>    <g
       id="g12963"
       transform="matrix(1.078926,0,0,1.078926,-68.05302,103.88264)">
      <path
         inkscape:connector-curvature="0"
         id="path14"
         style="fill:#39a09c;fill-opacity:1;fill-rule:nonzero;stroke:none"
         d="m 462.91819,123.96764 -25.55258,19.59032 c -14.0969,-18.34004 -31.01474,-32.26502 -50.76133,-41.73589 -19.7466,-9.455232 -41.43895,-14.206293 -65.08485,-14.206293 -25.83389,0 -49.76893,6.204511 -71.78947,18.621343 -22.02054,12.40121 -39.09467,29.06899 -51.19893,49.97991 -12.1199,20.92655 -18.16812,44.45524 -18.16812,70.60171 0,39.49319 13.54208,72.44586 40.62626,98.86583 27.09198,26.41996 61.26368,39.64166 102.51508,39.64166 45.3695,0 83.32329,-17.74615 113.86136,-53.29315 l 25.55258,19.37151 c -16.15204,20.5671 -36.31279,36.46127 -60.45881,47.69034 -24.14602,11.22907 -51.13642,16.85533 -80.93995,16.85533 -56.67672,0 -101.38202,-18.87141 -134.11589,-56.59858 -27.45144,-31.86649 -41.18888,-70.33602 -41.18888,-115.40858 0,-47.42466 16.63652,-87.31638 49.88614,-119.69861 33.25742,-32.366602 74.92298,-48.565532 124.98103,-48.565532 30.24113,0 57.55973,5.993526 81.92455,17.94932 24.37263,11.979238 44.34584,28.756422 59.91181,50.339362" />
      <path
         inkscape:connector-curvature="0"
         id="path16"
         style="fill:#39a09c;fill-opacity:1;fill-rule:nonzero;stroke:none"
         d="m 683.58466,87.185994 c -23.97411,0 -46.69012,6.235767 -68.16366,18.730746 -21.47355,12.49498 -38.22729,29.31123 -50.29248,50.46439 -12.05738,21.16879 -18.08998,44.75218 -18.08998,70.75799 0,38.49297 13.34673,71.01586 40.04019,97.52959 26.68565,26.52155 58.85689,39.77451 96.50593,39.77451 25.14624,0 48.41706,-6.09511 69.81246,-18.28533 21.3954,-12.19804 38.09445,-28.87364 50.07368,-50.0268 11.97924,-21.15316 17.97277,-44.66622 17.97277,-70.53137 0,-25.71669 -5.99353,-48.97188 -17.97277,-69.74996 -11.97923,-20.80152 -28.858,-37.43804 -50.62849,-49.93302 C 731.07964,93.421761 707.98854,87.185994 683.58466,87.185994 Z m -1.43782,-31.507036 c 49.07345,0 90.13731,16.378657 123.18375,49.120342 33.06207,32.74169 49.59702,73.03975 49.59702,120.90981 0,47.41684 -16.50369,87.65239 -49.47199,120.6832 -32.99955,33.03082 -73.21166,49.55795 -120.65976,49.55795 -48.04197,0 -88.59009,-16.44899 -121.64435,-49.33133 -33.06207,-32.89016 -49.58138,-72.6803 -49.58138,-119.37041 0,-31.12414 7.52512,-59.98214 22.58317,-86.55058 15.05805,-26.56843 35.58607,-47.36995 61.59188,-62.435814 26.0058,-15.050236 54.1449,-22.583168 84.40166,-22.583168" />
      <path
         inkscape:connector-curvature="0"
         id="path18"
         style="fill:#39a09c;fill-opacity:1;fill-rule:nonzero;stroke:none"
         d="m 920.11404,387.78437 0,-323.939526 7.04845,0 215.60281,248.321076 0,-248.321076 31.929,0 0,323.939526 -7.2672,0 -213.83684,-245.29696 0,245.29696 -33.47622,0" />
      <path
         inkscape:connector-curvature="0"
         id="path20"
         style="fill:#39a09c;fill-opacity:1;fill-rule:nonzero;stroke:none"
         d="m 1220.0716,327.4584 27.5218,-16.51932 c 19.3872,35.67985 41.775,53.50414 67.1713,53.50414 10.8618,0 21.0672,-2.51619 30.6162,-7.58763 9.5412,-5.06363 16.8084,-11.8464 21.8017,-20.37955 4.9855,-8.5019 7.4861,-17.54298 7.4861,-27.09199 0,-10.8618 -3.6727,-21.49699 -11.0103,-31.92119 -10.1273,-14.39384 -28.6236,-31.72584 -55.4968,-51.97254 -27.0216,-20.41081 -43.8301,-35.16411 -50.4409,-44.2677 -11.4479,-15.26904 -17.1757,-31.78835 -17.1757,-49.55013 0,-14.0969 3.3757,-26.94352 10.135,-38.555485 6.7437,-11.588525 16.2537,-20.723377 28.522,-27.412371 12.2528,-6.673365 25.5761,-10.025676 39.9699,-10.025676 15.269,0 29.5378,3.789909 42.8377,11.346283 13.2842,7.56419 27.342,21.473546 42.1657,41.728069 l -26.42,20.05917 c -12.198,-16.15986 -22.5754,-26.80286 -31.1632,-31.936823 -8.5957,-5.141773 -17.9493,-7.712659 -28.0844,-7.712659 -13.0654,0 -23.7475,3.954007 -32.0384,11.893282 -8.3066,7.92364 -12.4481,17.69926 -12.4481,29.28779 0,7.04845 1.4691,13.87028 4.3994,20.48113 2.946,6.61086 8.2987,13.80778 16.0817,21.59076 4.2588,4.10248 18.2072,14.89395 41.8531,32.37442 28.0297,20.69994 47.2606,39.11811 57.6848,55.27797 10.432,16.14423 15.6441,32.37442 15.6441,48.6593 0,23.49744 -8.9239,43.90043 -26.756,61.22461 -17.8399,17.332 -39.5322,25.998 -65.0848,25.998 -19.6685,0 -37.5084,-5.2668 -53.512,-15.74571 -16.0035,-10.50234 -30.7568,-28.10002 -44.2599,-52.74615" />
      <path
         inkscape:connector-curvature="0"
         id="path22"
         style="fill:#39a09c;fill-opacity:1;fill-rule:nonzero;stroke:none"
         d="m 1606.447,132.6649 -55.5124,117.26837 110.7591,0 -55.2467,-117.26837 z m 4.0868,-68.820056 151.0728,323.939526 -34.9609,0 -50.9567,-106.57067 -139.5546,0 -50.4644,106.57067 -36.1252,0 153.0654,-323.939526 7.9236,0" />
      <path
         inkscape:connector-curvature="0"
         id="path24"
         style="fill:#39a09c;fill-opacity:1;fill-rule:nonzero;stroke:none"
         d="m 1811.8288,63.844844 32.3744,0 0,292.682546 124.6528,0 0,31.25698 -157.0272,0 0,-323.939526" />
      <path
         inkscape:connector-curvature="0"
         id="path26"
         style="fill:#39a09c;fill-opacity:1;fill-rule:nonzero;stroke:none"
         d="m 2021.274,63.844844 32.3744,0 0,195.559296 c 0,23.19268 0.4301,37.65685 1.305,43.37687 1.6254,12.78411 5.3684,23.45837 11.2369,32.04622 5.8763,8.59567 14.9017,15.79259 27.092,21.58295 12.1824,5.80598 24.4429,8.70507 36.7816,8.70507 10.7134,0 20.9891,-2.27395 30.8272,-6.82184 9.8303,-4.54789 18.0666,-10.87743 24.6618,-18.94173 6.6108,-8.0643 11.4557,-17.83992 14.5423,-29.2956 2.2036,-8.22059 3.3054,-25.11499 3.3054,-50.65194 l 0,-195.559296 32.3744,0 0,195.559296 c 0,28.92052 -2.8287,52.30856 -8.4862,70.14066 -5.6497,17.83211 -16.957,33.36683 -33.9139,46.5729 -16.9647,13.2217 -37.4771,19.83256 -61.5528,19.83256 -26.1308,0 -48.5343,-6.25921 -67.1634,-18.73075 -18.6526,-12.47153 -31.1398,-28.99085 -37.4381,-49.54231 -3.9696,-12.63564 -5.9466,-35.3829 -5.9466,-68.27306 l 0,-195.559296" />
      <path
         inkscape:connector-curvature="0"
         id="path28"
         style="fill:#39a09c;fill-opacity:1;fill-rule:nonzero;stroke:none"
         d="m 2346.5498,357.18379 37.438,0 c 44.7756,0 75.8294,-2.78187 93.1614,-8.36125 24.3727,-7.92364 43.5254,-22.18464 57.4738,-42.80643 13.9484,-20.59835 20.9266,-45.79148 20.9266,-75.57938 0,-31.24135 -7.5642,-57.94262 -22.677,-80.09601 -15.1362,-22.15338 -36.2034,-37.33646 -63.2094,-45.54923 -20.2623,-6.157628 -53.6682,-9.23644 -100.2099,-9.23644 l -22.9035,0 0,261.62874 z m -31.0538,30.60058 0,-323.939526 67.1712,0 c 48.4483,0 83.6124,3.883679 105.4845,11.666667 31.4211,11.010272 55.9734,30.092659 73.6727,57.254969 17.6915,27.17013 26.5372,59.54455 26.5372,97.11544 0,32.46038 -7.0094,61.00581 -21.0282,85.6832 -14.0265,24.65394 -32.2337,42.86113 -54.6215,54.61376 -22.3957,11.73699 -53.7777,17.60549 -94.1461,17.60549 l -103.0698,0" />
      <path
         inkscape:connector-curvature="0"
         id="path58"
         style="fill:#39a09c;fill-opacity:1;fill-rule:nonzero;stroke:none"
         d="m 2442.3993,-561.85738 -410.6777,0 149.4787,-410.69328 410.6699,0 -149.4709,410.69328" />
      <path
         inkscape:connector-curvature="0"
         id="path60"
         style="fill:#3cb8a9;fill-opacity:1;fill-rule:nonzero;stroke:none"
         d="m 1283.2889,-627.0907 c -66.0382,-144.70419 -102.351,-277.67138 -122.207,-375.2791 -155.1987,231.83301 -168.31101,495.08711 -41.8453,672.92369 33.5466,-69.30454 85.8942,-169.6707 157.9728,-286.32175 2.0083,-3.78209 4.0322,-7.54856 6.0795,-11.32284" />
      <path
         inkscape:connector-curvature="0"
         id="path62"
         style="fill:#39a89f;fill-opacity:1;fill-rule:nonzero;stroke:none"
         d="m 1692.7006,-1154.4819 c -12.8231,-9.338 -25.1775,-18.7464 -37.0786,-28.1938 -8.0565,30.9444 -15.2534,61.248 -21.5282,90.8328 -1.1018,5.2277 -2.1177,10.3695 -3.1804,15.5581 24.232,-24.3101 48.5265,-47.7997 72.6334,-70.4141 -3.6414,-2.5865 -7.2751,-5.1809 -10.8462,-7.783" />
      <path
         inkscape:connector-curvature="0"
         id="path64"
         style="fill:#39a09c;fill-opacity:1;fill-rule:nonzero;stroke:none"
         d="m 1513.7232,-951.02241 c 38.2272,-43.73633 77.6267,-85.58159 117.1902,-125.26239 1.0627,-5.1886 2.0786,-10.3304 3.1804,-15.5581 -42.6502,46.9323 -82.7997,94.08349 -120.3706,140.82049" />
      <path
         inkscape:connector-curvature="0"
         id="path66"
         style="fill:#39a09c;fill-opacity:1;fill-rule:nonzero;stroke:none"
         d="m 1634.0938,-1091.8429 c 6.2748,-29.5848 13.4717,-59.8884 21.5282,-90.8328 -55.4889,-43.9864 -101.1241,-88.6135 -137.5463,-128.9741 -83.4796,40.173 -162.0127,92.7551 -229.27,157.4023 -50.0033,48.0733 -92.4425,99.1784 -127.7238,151.8777 19.856,97.60772 56.1688,230.57491 122.207,375.2791 62.6233,-115.307 143.4695,-224.45637 230.4343,-323.93171 37.5709,-46.737 77.7204,-93.88819 120.3706,-140.82049" />
      <path
         inkscape:connector-curvature="0"
         id="path68"
         style="fill:#39a29a;fill-opacity:1;fill-rule:nonzero;stroke:none"
         d="m 1630.9134,-1076.2848 c -7.2438,35.5783 -13.2452,70.172 -18.1134,103.73414 l 324.0176,0 17.8243,-40.10274 c -97.5843,-37.0551 -180.9623,-84.2297 -251.0951,-134.0455 -24.1069,22.6144 -48.4014,46.104 -72.6334,70.4141" />
      <path
         inkscape:connector-curvature="0"
         id="path70"
         style="fill:#39a09c;fill-opacity:1;fill-rule:nonzero;stroke:none"
         d="m 1722.8636,-343.17574 71.1565,-218.68164 -187.0808,0 c 10.2835,78.35343 26.5137,145.78255 44.5177,202.2014 22.9817,3.96964 46.8074,9.44742 71.4066,16.48024" />
      <path
         inkscape:connector-curvature="0"
         id="path72"
         style="fill:#39a19c;fill-opacity:1;fill-rule:nonzero;stroke:none"
         d="m 1283.6718,-626.22332 c -2.188,3.51641 -4.3135,6.96249 -6.4624,10.45546 -72.0786,116.65105 -124.4262,217.01721 -157.9728,286.32175 12.3778,17.41014 25.9277,34.08574 40.9779,49.73767 1.0706,1.11744 2.1802,2.18018 3.2586,3.26636 15.5816,15.87073 32.1009,30.30364 49.4954,43.29873 49.8627,-46.67449 124.9732,-98.86583 226.6756,-122.42578 -64.8504,-90.98125 -115.9009,-182.95492 -155.9723,-270.65419" />
      <path
         inkscape:connector-curvature="0"
         id="path74"
         style="fill:#39a09c;fill-opacity:1;fill-rule:nonzero;stroke:none"
         d="m 1277.2094,-615.76786 c 2.1489,-3.49297 4.2744,-6.93905 6.4624,-10.45546 -0.125,-0.29694 -0.2501,-0.57825 -0.3826,-0.86738 -2.0473,3.77428 -4.0712,7.54075 -6.0795,11.32284" />
      <path
         inkscape:connector-curvature="0"
         id="path76"
         style="fill:#3cb8a6;fill-opacity:1;fill-rule:nonzero;stroke:none"
         d="m 1439.6441,-355.56913 c -101.7024,23.55995 -176.8129,75.75129 -226.6756,122.42578 107.8366,80.58049 248.2586,105.80488 395.5962,76.7984 -64.788,-64.41282 -120.6832,-131.53719 -168.9206,-199.22418" />
      <path
         inkscape:connector-curvature="0"
         id="path78"
         style="fill:#50bfb2;fill-opacity:1;fill-rule:nonzero;stroke:none"
         d="m 1693.0445,-251.52246 29.8191,-91.65328 c -24.5992,-7.03282 -48.4249,-12.5106 -71.4066,-16.48024 13.4718,42.18911 27.9125,78.31437 41.5875,108.13352" />
      <path
         inkscape:connector-curvature="0"
         id="path80"
         style="fill:#32847f;fill-opacity:1;fill-rule:nonzero;stroke:none"
         d="m 1513.7232,-951.02241 c -91.3876,113.69726 -167.8578,224.95648 -230.0514,324.79909 40.0714,87.69927 91.1219,179.67294 155.9723,270.65419 60.9589,-14.11252 131.4512,-17.96495 211.8129,-4.08685 -18.004,-56.41885 -34.2342,-123.84797 -44.5177,-202.2014 l -186.7917,0 160.4499,-410.69328 32.2025,0 c 4.8682,-33.56214 10.8696,-68.15584 18.1134,-103.73414 -39.5635,39.6808 -78.963,81.52606 -117.1902,125.26239" />
      <path
         inkscape:connector-curvature="0"
         id="path82"
         style="fill:#39a09c;fill-opacity:1;fill-rule:nonzero;stroke:none"
         d="m 1283.2889,-627.0907 c 0.1331,0.28882 0.2575,0.57013 0.3826,0.86738 62.1936,-99.84261 138.6638,-211.10183 230.0513,-324.79909 -86.9647,99.47534 -167.8109,208.62471 -230.4342,323.93171" />
      <path
         inkscape:connector-curvature="0"
         id="path84"
         style="fill:#39a09c;fill-opacity:1;fill-rule:nonzero;stroke:none"
         d="m 1439.6441,-355.56913 c 48.2374,67.68699 104.1326,134.81136 168.9206,199.22418 19.2699,-3.78991 38.6648,-8.47846 58.1067,-14.12034 l 26.3731,-81.05717 c -13.675,-29.81915 -28.1157,-65.94441 -41.5875,-108.13352 -80.3617,-13.8781 -150.854,-10.02567 -211.8129,4.08685" />
      <path
         inkscape:connector-curvature="0"
         id="path86"
         style="fill:#58c6b8;fill-opacity:1;fill-rule:nonzero;stroke:none"
         d="m 1970.0673,-1405.0066 c -80.2758,-5.2277 -166.3888,2.5787 -252.3689,22.7863 -25.0056,69.3827 -45.5102,135.8976 -62.0764,199.5446 11.9011,9.4474 24.2555,18.8558 37.0786,28.1938 3.5711,2.6021 7.2048,5.1965 10.8462,7.783 114.3537,-107.2427 224.6127,-194.5513 305.4979,-254.5569 -12.831,-1.5628 -25.7948,-2.8912 -38.9774,-3.7508" />
      <path
         inkscape:connector-curvature="0"
         id="path88"
         style="fill:#3bb5a6;fill-opacity:1;fill-rule:nonzero;stroke:none"
         d="m 1655.622,-1182.6757 c 16.5662,-63.647 37.0708,-130.1619 62.0764,-199.5446 -67.601,15.8942 -135.0849,39.501 -199.6227,70.5705 36.4222,40.3606 82.0574,84.9877 137.5463,128.9741" />
      <path
         inkscape:connector-curvature="0"
         id="path90"
         style="fill:#3cb8a6;fill-opacity:1;fill-rule:nonzero;stroke:none"
         d="m 2009.0447,-1401.2558 c -80.8852,60.0056 -191.1442,147.3142 -305.4979,254.5569 70.1328,49.8158 153.5108,96.9904 251.0951,134.0455 l 162.4347,-365.7144 c -33.9528,-10.7446 -70.2266,-18.2854 -108.0319,-22.888" />
    </g>
    <rect
       style="opacity:1;fill:none;fill-opacity:1;stroke:#0056ca;stroke-width:9.95265865;stroke-miterlimit:4;stroke-dasharray:none;stroke-opacity:1"
       id="rect5186"
       width="2824.2664"
       height="2824.3989"
       x="5.7757983"
       y="-1776.5087" />
  </g>
</svg>
