<?xml version="1.0" encoding="UTF-8" standalone="no"?>
<!-- Created with Inkscape (http://www.inkscape.org/) -->

<svg
   xmlns:dc="http://purl.org/dc/elements/1.1/"
   xmlns:cc="http://creativecommons.org/ns#"
   xmlns:rdf="http://www.w3.org/1999/02/22-rdf-syntax-ns#"
   xmlns:svg="http://www.w3.org/2000/svg"
   xmlns="http://www.w3.org/2000/svg"
   xmlns:sodipodi="http://sodipodi.sourceforge.net/DTD/sodipodi-0.dtd"
   xmlns:inkscape="http://www.inkscape.org/namespaces/inkscape"
   width="800mm"
   height="800mm"
   viewBox="0 0 2834.6457 2834.6457"
   id="svg2"
   version="1.1"
   inkscape:version="0.91 r13725"
   sodipodi:docname="consorcio.svg">
  <defs
     id="defs4">
    <clipPath
       id="clipPath4154"
       clipPathUnits="userSpaceOnUse">
      <path
         inkscape:connector-curvature="0"
         id="path4156"
         d="M 0,792 612,792 612,0 0,0 0,792 Z" />
    </clipPath>
    <clipPath
       id="clipPath4879"
       clipPathUnits="userSpaceOnUse">
      <path
         inkscape:connector-curvature="0"
         id="path4881"
         d="m 0,784.567 793.701,0 L 793.701,0 0,0 0,784.567 Z" />
    </clipPath>
    <clipPath
       id="clipPath5009"
       clipPathUnits="userSpaceOnUse">
      <path
         inkscape:connector-curvature="0"
         id="path5011"
         d="m -336.46,98.8652 672.92,0 0,-197.7314 -672.92,0 0,197.7314 z" />
    </clipPath>
    <pattern
       y="0"
       x="0"
       height="6"
       width="6"
       patternUnits="userSpaceOnUse"
       id="EMFhbasepattern" />
  </defs>
  <sodipodi:namedview
     id="base"
     pagecolor="#ffffff"
     bordercolor="#666666"
     borderopacity="1.0"
     inkscape:pageopacity="0.0"
     inkscape:pageshadow="2"
     inkscape:zoom="0.27179923"
     inkscape:cx="1918.8532"
     inkscape:cy="1275.151"
     inkscape:document-units="px"
     inkscape:current-layer="layer1"
     showgrid="false"
     inkscape:window-width="1920"
     inkscape:window-height="1138"
     inkscape:window-x="1358"
     inkscape:window-y="-8"
     inkscape:window-maximized="1"
     showguides="true"
     inkscape:guide-bbox="true">
    <sodipodi:guide
       position="1133.0952,1294.1988"
       orientation="0,1"
       id="guide8602" />
    <sodipodi:guide
       position="1836.5809,934.40081"
       orientation="0,1"
       id="guide8604" />
  </sodipodi:namedview>
  <metadata
     id="metadata7">
    <rdf:RDF>
      <cc:Work
         rdf:about="">
        <dc:format>image/svg+xml</dc:format>
        <dc:type
           rdf:resource="http://purl.org/dc/dcmitype/StillImage" />
        <dc:title></dc:title>
      </cc:Work>
    </rdf:RDF>
  </metadata>
  <g
     inkscape:label="Capa 1"
     inkscape:groupmode="layer"
     id="layer1"
     transform="translate(0,1782.2835)">
    <flowRoot
       xml:space="preserve"
       id="flowRoot4823"
       style="fill:black;stroke:none;stroke-opacity:1;stroke-width:1px;stroke-linejoin:miter;stroke-linecap:butt;fill-opacity:1;font-family:sans-serif;font-style:normal;font-weight:normal;font-size:40px;line-height:125%;letter-spacing:0px;word-spacing:0px"><flowRegion
         id="flowRegion4825"><rect
           id="rect4827"
           width="1321.4423"
           height="148.09267"
           x="497.43948"
           y="2621.9998" /></flowRegion><flowPara
         id="flowPara4829" /></flowRoot>    <flowRoot
       xml:space="preserve"
       id="flowRoot8594"
       style="fill:black;stroke:none;stroke-opacity:1;stroke-width:1px;stroke-linejoin:miter;stroke-linecap:butt;fill-opacity:1;font-family:sans-serif;font-style:normal;font-weight:normal;font-size:40px;line-height:125%;letter-spacing:0px;word-spacing:0px"><flowRegion
         id="flowRegion8596"><rect
           id="rect8598"
           width="617.56378"
           height="118.14263"
           x="-177.21394"
           y="2533.9189" /></flowRegion><flowPara
         id="flowPara8600" /></flowRoot>    <rect
       style="opacity:1;fill:none;fill-opacity:1;stroke:#0056ca;stroke-width:9.95265865;stroke-miterlimit:4;stroke-dasharray:none;stroke-opacity:1"
       id="rect5186"
       width="2824.2664"
       height="2824.3989"
       x="5.6156697"
       y="-1776.5837" />
    <g
       id="g4242"
       transform="matrix(1.6756105,0,0,1.5832228,-3203.3976,-1468.6015)">
      <path
         style="fill:#003e83;fill-opacity:1;fill-rule:evenodd;stroke:none"
         d="m 2509.667,241.53839 1.0555,-2.1156 3.175,-6.346 2.8194,-4.5833 3.175,-5.2886 3.8777,-6.346 4.9361,-6.6988 5.6388,-7.0514 6.3472,-7.7563 7.4027,-8.1088 4.2333,-4.2308 4.2305,-4.5835 4.9361,-4.2306 4.5833,-4.5835 5.286,-4.2308 5.2888,-4.5833 5.9944,-4.5833 5.9944,-4.5833 5.9916,-4.5833 6.7,-4.5833 7.0527,-4.5833 7.0499,-4.5835 15.5138,-8.8141 8.1082,-4.5833 8.461,-4.2308 8.8138,-4.5833 9.1666,-4.2308 9.5194,-4.2308 10.2249,-3.878001 10.2249,-3.8783 10.5777,-3.8783 10.9276,-3.878 11.636,-3.5258 11.6332,-3.5255 12.3416,-3.1732 12.3388,-3.1731 13.0443,-3.173 13.3971,-2.8205 14.1026,-2.468 14.1027,-2.4679 14.8082,-2.1154 15.1609,-2.1154 15.511,-1.7629 16.2193,-1.4102 16.2165,-1.4103 16.9248,-1.0576 17.6276,-0.7052 17.9804,-0.3525 18.3332,-0.3526 18.6859,0 19.3915,0.3526 -1.7639,1.7628 -1.761,2.1154 -2.8222,3.173 -7.4027,8.8142 -4.5834,5.9935 -5.2888,6.6988 -5.6416,7.7563 -5.9916,8.8141 -6.3472,9.871801 -6.6999,10.9296 -6.6972,11.6347 -3.5249,6.346 -3.8806,6.6988 -7.0499,14.1024 -3.8777,7.4038 -3.525,7.7566 0,-2.1155 0.35,-5.9936 1.4111,-9.5191 1.7639,-11.9873 1.4083,-7.0511 1.7639,-7.4041 1.7638,-8.1088 2.4667,-8.1091 2.4694,-8.4616 3.1722,-8.461301 3.5249,-8.8141 2.1167,-4.2308 2.1139,-4.5834 -4.5833,-0.7051 -5.6388,-1.0577 -7.7583,-1.0577 -9.8722,-0.7051 -11.6332,-0.7051 -6.3471,-0.3526 -7.0499,0 -7.4056,0 -7.7554,0 -8.1083,0.3526 -8.4638,0.3525 -8.8138,0.7051 -9.1666,0.7052 -9.5193,1.0577 -9.8694,1.4102 -10.2249,1.4103 -10.5777,1.7629 -10.5776,2.1152 -10.9277,2.4681 -11.2832,2.468 -5.6417,1.7628 -5.9915,1.4102 -11.6361,3.5256 -11.9859,3.5258 -11.9888,4.230501 -12.3388,4.5835 -11.9888,4.9358 -11.986,4.9358 -11.636,5.2886 -5.6388,2.8205 -5.6416,2.468 -10.9305,5.6411 -10.5777,5.2883 -9.8693,5.641 -9.8721,5.6411 -9.5194,5.641 -9.1665,5.6411 -8.8138,5.6411 -8.4639,5.641 -8.1082,5.6408 -7.4027,5.2885 -14.4554,10.5769 -12.3388,10.2243 -5.9944,4.5836 -5.2888,4.5833 -9.5194,8.1088 -7.7555,7.0513 -5.9944,5.9936 -4.5833,4.2308 -3.5249,3.8783 z"
         id="path4177"
         inkscape:connector-curvature="0" />
      <path
         style="fill:#003e83;fill-opacity:1;fill-rule:evenodd;stroke:none"
         d="m 2472.6479,321.21789 1.4083,-1.7628 4.5833,-5.2885 3.5278,-3.5256 4.2305,-4.5835 5.2888,-4.9358 5.9916,-5.2886 7.0527,-5.9935 8.1083,-5.9936 8.8138,-6.6988 10.2249,-6.6985 10.9304,-7.0514 12.3388,-7.4038 13.3971,-7.0513 14.4554,-7.4038 7.7555,-3.5258 7.7583,-3.878 16.922,-7.0514 8.8138,-3.5255 9.1666,-3.5258 9.8721,-3.173 9.5194,-3.5258 10.2249,-3.173 10.5749,-3.1731 10.9304,-2.8205 11.2833,-3.173 11.2804,-2.8205 11.9888,-2.8206 12.3387,-2.468 12.3388,-2.4678 13.0471,-2.468 13.3971,-2.1153 13.3971,-2.1155 14.1027,-1.7627 14.4554,-1.7628 14.8082,-1.7631 15.1581,-1.0574 15.5138,-1.4103 15.8665,-0.7053 16.2165,-1.0575 16.9221,-0.3527 16.9248,-0.3525 17.6276,0 17.9804,0 18.3332,0.7052 18.6859,0.705 -1.761,172.0526 -1.4112,172.4039 -1.4111,172.0511 -1.4083,172.40393 -3.5278,-68.75213 -3.5249,-75.4465 -2.1167,-45.4829 -2.1138,-48.6523 -1.7639,-51.8273 -1.7611,-53.944 -1.7639,-54.9994 -1.4111,-55.3523 -1.0555,-54.6467 -0.7056,-53.59 0,-25.7373 -0.3527,-25.3844 0.3527,-24.327 0,-11.9871 0,-11.6347 0,-0.7052 -0.7055,-1.0578 -1.4111,-1.41 -1.0584,-1.0577 -1.761,-1.0578 -1.7639,-0.705 -2.1139,-1.0578 -2.8222,-1.0577 -3.1722,-1.0578 -3.8777,-0.705 -4.2305,-1.0578 -4.9361,-0.705 -2.8222,0 -2.8194,-0.3527 -6.3472,-0.3525 -7.0499,-0.3525 -7.7583,0 -8.461,0.3525 -9.5193,0.3525 -10.5749,0.7052 -11.2833,1.0578 -11.9859,1.4103 -13.3999,1.7627 -14.4526,1.7628 -15.5138,2.468 -16.5721,2.8205 -17.6276,3.5256 -19.0387,3.8783 -20.447,4.2308 -21.5082,4.5832 -17.2748,4.2308 -16.5692,3.8781 -15.8666,4.2308 -15.161,4.2307 -14.4554,4.5833 -13.7498,4.2308 -13.3971,4.2308 -12.3388,4.5833 -11.9888,4.2308 -11.2804,4.2308 -10.5777,4.2308 -9.8721,4.5833 -9.5194,3.8783 -8.8138,4.2308 -8.461,3.8783 -7.4027,3.878 -14.1026,7.4038 -5.9944,3.5258 -5.6417,3.173 -4.936,3.1731 -4.5833,3.173 -3.8778,2.468 -3.8777,2.4681 -5.6416,4.2307 -4.2305,3.1731 -3.1722,2.8205 z"
         id="path4179"
         inkscape:connector-curvature="0" />
      <path
         style="fill:#003e83;fill-opacity:1;fill-rule:evenodd;stroke:none"
         d="m 2808.2891,420.64169 34.1969,-132.5649 -0.3528,-0.3525 -1.0555,-0.7053 -1.0583,-0.3524 -1.0583,-0.705 -3.525,-1.0578 -4.5833,-1.4103 -6.3472,-1.0577 -8.1082,-0.705 -4.9361,0 -4.936,-0.3528 -5.9944,0.3528 -6.3444,0 -7.0527,0.705 -7.4027,0.7052 -8.1111,0.705 -8.8138,1.0578 -9.5193,1.4103 -10.2221,1.7627 -10.9305,2.1153 -11.636,2.468 -12.3388,2.468 -13.3971,3.1731 -13.7498,3.5255 -14.8082,3.5258 -15.8666,4.5833 -16.5692,4.5833 -6.3472,2.1155 -16.9221,6.6985 -11.6332,4.5833 -13.0471,5.2886 -14.1026,6.3458 -14.8054,6.6999 -15.5138,7.7555 -7.7554,3.8777 -7.7583,3.8778 -7.7555,4.2305 -7.4055,4.5833 -7.4027,4.2333 -7.0499,4.5833 -6.7,4.5833 -6.6999,4.5833 -5.9916,4.5832 -5.9944,4.5833 -5.2888,4.9361 -4.9361,4.9361 -4.2305,4.5833 -3.525,4.9332 5.9944,-4.2305 7.7555,-4.9361 4.9361,-2.8194 5.6416,-3.5249 13.3971,-7.4055 7.7554,-4.2306 8.4611,-4.2305 9.1665,-4.5833 9.8722,-4.5832 10.5777,-4.5833 11.2832,-4.9361 11.986,-4.5833 12.6915,-4.9361 13.0443,-4.5832 14.1027,-4.5833 14.4554,-4.5833 15.161,-4.2305 15.8665,-4.2305 16.5693,-3.8781 17.2748,-3.8783 17.6304,-3.5255 18.3332,-2.8205 18.6859,-2.8205 9.8721,-1.0578 9.8694,-1.4103 9.8721,-0.705 10.2249,-1.0577 10.2249,-0.7053 10.5777,-0.705 10.5749,-0.3525 10.5777,-0.7053 -7.05,108.9432 z"
         id="path4181"
         inkscape:connector-curvature="0" />
      <path
         style="fill:#77ad22;fill-opacity:1;fill-rule:evenodd;stroke:none"
         d="m 2811.4613,368.81439 -10.5777,0.3528 -7.7554,0.3527 -8.8138,0.3528 -10.2249,0.3528 -11.2833,1.0555 -12.3387,1.0583 -13.3971,1.0584 -14.1027,1.761 -15.5137,1.7639 -16.2165,2.4695 -16.9249,2.8194 -17.6276,3.1722 -17.9804,3.5277 -9.5193,2.1139 -9.5194,2.1166 -9.5193,2.1139 -9.8722,2.4694 -8.461,2.1139 -8.461,1.7639 -14.8082,3.1721 -7.0499,1.4112 -6.3472,1.0583 -6.3472,0.7027 -5.6388,0.7056 -5.2888,0.3528 -4.9361,0.3527 -9.1666,0.3528 -3.8777,0 -3.8806,-0.3528 -6.3443,-0.7055 -2.8222,-0.3528 -2.4667,-0.7027 -2.4694,-0.7056 -2.1138,-0.7055 -1.7639,-0.7056 -1.7611,-1.0583 -2.8222,-1.7611 -1.0584,-1.0583 -1.0555,-0.7056 -0.7055,-1.0583 -0.7056,-1.0584 -0.7055,-1.761 -0.7056,-1.7639 10.9305,-5.6416 5.6416,-3.1722 6.3444,-3.1722 6.6999,-2.8222 6.6971,-3.525 14.8082,-6.3471 16.2194,-6.6972 17.6276,-6.6999 9.1665,-3.1722 9.5194,-3.1722 19.7443,-6.3472 21.5053,-5.9944 10.9305,-3.1721 11.2804,-2.8203 11.636,-2.468 11.986,-2.4681 12.3416,-2.468 12.6915,-2.1153 12.6915,-2.1152 13.3971,-2.1155 13.3971,-1.7628 13.7499,-1.4103 14.1026,-1.4102 14.1027,-1.0578 7.4055,-0.3525 7.4027,-0.3525 14.8082,-0.7053 -3.8778,57.1159 z"
         id="path4183"
         inkscape:connector-curvature="0" />
      <path
         style="fill:#49bbe9;fill-opacity:1;fill-rule:evenodd;stroke:none"
         d="m 2985.9791,785.89649 -2.4666,-4.2305 -3.525,-5.9944 -4.2305,-8.1083 -4.9361,-9.8721 -5.6416,-12.3387 -5.9944,-14.1027 -3.1722,-8.1082 -3.1722,-8.4611 -3.5277,-9.1665 -3.525,-9.5194 -3.1722,-10.2249 -3.5277,-10.9305 -3.525,-11.2804 -3.525,-11.9888 -3.1721,-12.6915 -3.5278,-13.0443 -3.1722,-13.7499 -3.5249,-14.4554 -3.1722,-15.161 -3.175,-15.5138 -2.8194,-16.2164 -2.8222,-16.9249 -2.8194,-17.6276 -2.4667,-18.3332 -2.4694,-18.6859 -2.4666,-19.7443 -0.7056,-9.1665 -1.0583,-8.8138 -0.7056,-8.8138 -0.3528,-8.4611 -0.3527,-8.461 -0.3528,-8.1082 -0.3528,-15.5138 0,-7.4055 0,-7.4027 0.3528,-7.0499 0.3528,-7.0527 1.0583,-13.3971 0.7056,-6.3472 0.7055,-6.3444 1.4083,-11.6354 2.1167,-11.2821 2.1166,-10.5769 2.4667,-9.8718 2.8194,-9.5194 2.8222,-8.4616 3.1722,-8.1088 3.5249,-7.7563 3.175,-7.0513 3.525,-6.3463 1.7639,-3.1731 1.761,-2.8205 3.8778,-5.6411 3.5277,-4.9357 3.8778,-4.5833 3.5249,-4.2308 3.525,-3.5258 3.5278,-3.5255 3.5249,-2.8206 3.525,-2.8205 3.1721,-2.1153 2.8223,-2.1155 2.8194,-1.7628 2.4694,-1.4102 2.4666,-1.0578 0.7056,0.7053 0.7055,0.705 0,0.7052 0,16.9229 0,17.981 0,36.6666 0,38.0768 0.7056,39.1355 0.7027,39.8385 0.7056,40.544 1.4111,40.5469 1.0583,40.1913 2.8194,78.6214 2.8223,73.6854 2.8194,65.93 2.4666,55.705 z"
         id="path4185"
         inkscape:connector-curvature="0" />
      <path
         style="fill:#49bbe9;fill-opacity:1;fill-rule:evenodd;stroke:none"
         d="m 2943.3212,102.27549 -2.1167,6.3461 -1.7639,6.3463 -1.761,5.9936 -1.4111,5.641 -2.4667,10.9294 -1.7639,9.8718 -1.0583,8.8141 -0.7055,6.6988 -0.7028,5.2883 0,2.8205 -0.7055,2.4681 -9.1666,0 -9.1666,0.3525 -8.8138,0 -8.4638,0.3527 -17.2749,0.705 -16.5692,1.0578 -16.5721,1.0575 -15.8637,1.4103 -15.161,1.763 -7.7583,0.705 -7.4027,1.0578 -14.8082,2.1152 -14.1026,2.1155 -13.7499,2.4678 -13.3971,2.468 -13.0443,2.4681 -12.6915,2.8205 -12.3416,2.8205 -11.986,3.173 -11.636,3.1731 -10.9276,3.173 -10.9305,3.5258 -10.5777,3.173 -9.8721,3.5255 -9.8693,3.8783 -9.5194,3.5256 -8.8138,3.5258 -8.8166,3.8783 -8.461,3.878 -8.1083,3.8783 -7.7555,3.5255 -14.4554,7.7566 -6.6999,3.878 -6.3444,3.5258 5.6388,-6.3463 8.1111,-8.8141 5.286,-5.2883 5.6416,-5.641 6.3472,-5.9936 7.4027,-6.6988 7.7583,-6.6989 8.1082,-7.051 9.1666,-7.0513 9.8721,-7.4038 10.2249,-7.4039 10.9277,-7.404 11.636,-7.4039 5.9916,-3.878 5.9944,-3.5258 6.3472,-3.5255 6.6971,-3.5258 13.3971,-7.051 7.0527,-3.5258 7.0499,-3.1731 7.0528,-3.173 7.4027,-3.173 7.7582,-3.1733 7.7555,-3.1731 7.7555,-2.8205 8.111,-2.8205 8.1083,-2.4678 8.461,-2.8205 8.461,-2.1155 8.4611,-2.4681 8.8166,-2.1152 8.8138,-2.1153 9.1666,-1.763 9.1665,-1.4103 9.1666,-1.7627 9.5194,-1.0578 9.8721,-1.4103 9.8693,-0.705 9.8721,-0.7052 9.8722,-0.705 10.2249,-0.3525 10.5777,0 10.2249,0 10.9276,0.3525 10.5777,0.705 10.9305,0.7052 z"
         id="path4187"
         inkscape:connector-curvature="0" />
      <path
         style="fill:#003e83;fill-opacity:1;fill-rule:evenodd;stroke:none"
         d="m 2803.0003,621.60369 24.6775,-154.4236 -0.3528,-0.3528 -1.4083,-0.7055 -2.4694,-1.0583 -3.8777,-1.4112 -5.2889,-1.4082 -3.1722,-0.3528 -3.8777,-0.7056 -9.1666,-0.7055 -5.2888,0 -5.9944,0 -6.3444,0.3527 -7.4055,0.3528 -7.7554,0.7056 -8.4611,0.7055 -9.1665,1.4083 -9.8722,1.4111 -10.5777,1.7639 -11.2832,2.1139 -12.3388,2.4694 -13.0443,3.1722 -13.7498,3.1722 -14.8082,3.8805 -15.8666,4.2305 -16.5692,4.5833 -17.6276,5.2889 -18.3332,5.6388 -7.0527,2.8222 -8.1083,3.1722 -10.9304,4.5833 -12.6916,5.2888 -14.8082,6.6971 -15.5109,7.4055 -16.9249,8.1083 -8.461,4.2305 -8.8138,4.5833 -17.2748,9.5193 -8.4639,4.9361 -8.1082,4.9361 -8.461,5.2888 -7.7555,5.2889 -7.7583,5.2888 -7.0499,5.6388 -7.0527,5.2889 -6.3444,5.6416 -5.6416,5.6416 -2.8222,2.8194 -2.4667,2.8222 -2.4666,2.8194 -2.4694,2.8194 -2.1139,2.8222 -1.7639,2.8194 6.6972,-4.936 8.4638,-5.9916 11.6332,-7.4055 7.0528,-4.2305 8.1082,-4.5833 8.461,-4.9361 9.5194,-5.2888 10.2249,-5.2889 11.2804,-5.286 11.636,-5.6416 12.6916,-5.6416 13.3971,-5.6417 13.7498,-5.9944 14.8082,-5.6388 15.8666,-5.2888 16.2164,-5.6416 16.9249,-5.2889 17.6276,-4.936 18.6859,-4.9361 19.0388,-4.5833 9.8721,-2.1138 9.8721,-2.1167 20.447,-3.8777 10.5777,-1.7639 10.9305,-1.7611 10.5748,-1.4111 11.2833,-1.7639 10.9276,-1.0555 11.6361,-1.4111 11.2832,-1.0583 11.986,-1.0584 11.6332,-0.7027 11.9888,-0.7056 5.6416,126.5711 z"
         id="path4189"
         inkscape:connector-curvature="0" />
      <path
         style="fill:#77ad22;fill-opacity:1;fill-rule:evenodd;stroke:none"
         d="m 2800.1781,555.32089 -16.2165,1.4112 -9.8721,0.7027 -11.6361,1.4111 -26.4414,3.1722 -14.4554,2.1166 -15.8637,2.1139 -16.5721,2.8222 -16.922,2.8194 -17.9804,3.525 -18.6859,3.5277 -19.0388,4.2306 -19.3914,4.2305 -19.7443,4.936 -19.7443,5.2889 -9.8693,2.8194 -9.1694,2.1166 -8.461,2.1139 -8.461,1.7639 -7.7555,1.761 -7.0527,1.0584 -7.0499,1.0583 -6.3472,1.0583 -5.9944,0.7056 -5.6388,0.3528 -5.2889,0.3499 -4.5833,0.3528 -4.5832,0 -4.2306,-0.3528 -3.8777,-0.3499 -3.5278,-0.3528 -5.9915,-1.0583 -2.4695,-0.7056 -2.4666,-1.0583 -2.1167,-0.7056 -2.1138,-1.0555 -1.4111,-1.0583 -1.4111,-1.0584 -1.4112,-1.0583 -1.0555,-1.0555 -1.0583,-1.0583 -0.7056,-1.0584 -1.0583,-2.1166 -0.3528,-1.0555 -0.3527,-0.7056 11.9888,-7.0527 6.6971,-3.525 7.0527,-3.5249 14.8082,-7.7583 8.1083,-3.8778 8.461,-3.8777 8.8138,-3.8777 9.1666,-3.8778 19.7442,-8.1082 10.2249,-3.8806 10.5777,-3.8777 22.2109,-7.7555 11.6332,-3.5249 12.3416,-3.8806 12.3388,-3.5249 12.6915,-3.1722 13.0471,-3.525 13.3971,-3.175 13.7499,-2.8194 14.1026,-2.8194 14.4554,-2.4694 14.8054,-2.4666 15.161,-2.4695 15.161,-1.761 15.8637,-1.7639 16.2193,-1.7639 16.2165,-1.0555 16.5721,-1.0584 2.8194,60.2883 z"
         id="path4191"
         inkscape:connector-curvature="0" />
      <path
         style="fill:#003e83;fill-opacity:1;fill-rule:evenodd;stroke:none"
         d="m 2796.3003,858.52638 9.8722,-187.56489 -0.3528,-0.3528 -1.4111,-1.0583 -2.4666,-1.0555 -3.525,-1.7639 -5.2888,-1.4111 -3.525,-0.7056 -3.5278,-0.7055 -4.2305,-0.7028 -4.936,-0.3527 -5.2889,-0.7056 -5.9916,0 -6.3471,-0.3528 -7.4027,0 -7.7583,0.3528 -8.461,0.3528 -9.1666,0.7055 -9.8722,1.0555 -10.9276,1.4112 -11.2832,1.4111 -12.3388,1.761 -13.3971,2.4695 -14.1026,2.4666 -14.8082,2.8222 -15.8666,3.525 -16.922,3.8777 -17.6276,4.2305 -19.0387,4.5833 -7.0528,2.4695 -8.461,2.8194 -10.9304,3.8777 -13.0444,4.9361 -14.8082,5.6416 -16.2164,6.6999 -17.2749,7.4027 -17.6304,7.7555 -8.8138,4.2305 -8.8138,4.5833 -8.8138,4.2333 -8.461,4.9333 -8.461,4.5861 -8.1111,4.9332 -8.1082,4.9361 -7.4027,4.9361 -7.0528,5.2888 -6.6971,4.9361 -6.3472,5.2888 -5.2888,5.2889 -5.2889,5.6416 -2.1138,2.4666 -2.1167,2.8222 1.7639,-1.0583 5.2889,-3.5278 8.8138,-5.286 11.9859,-7.0527 7.4055,-3.8778 8.1083,-4.2305 8.8138,-4.2305 9.8721,-4.5833 10.5777,-4.9361 11.2804,-4.936 11.9888,-4.9361 12.6916,-4.9361 13.7498,-4.936 7.0499,-2.4666 7.4056,-2.4695 15.1609,-4.9361 15.511,-4.936 16.5721,-4.5833 17.2748,-4.2305 17.9804,-4.2305 18.6859,-3.8778 9.5193,-1.7639 9.8722,-1.761 9.8721,-1.7639 10.2249,-1.4111 20.7998,-2.8194 10.5777,-1.4111 10.5777,-1.0584 10.9276,-1.0555 11.2833,-0.7055 22.5636,-1.4111 11.6332,-0.3528 11.6361,-0.3528 11.9859,-0.3528 11.9888,0 21.8581,161.47629 z"
         id="path4193"
         inkscape:connector-curvature="0" />
      <path
         style="fill:#77ad22;fill-opacity:1;fill-rule:evenodd;stroke:none"
         d="m 2782.9033,758.74949 -18.3332,0.3528 -11.2832,0.7056 -12.3388,0.3528 -13.7499,0.7055 -14.8082,1.0555 -15.8637,1.0584 -16.5721,1.4111 -17.2748,1.7639 -17.9804,2.1138 -18.3331,2.1167 -19.0387,2.4666 -19.0387,3.1722 -19.7443,3.175 -19.3915,3.8777 -19.7443,3.8777 -9.8693,2.1167 -9.1666,1.7611 -16.9248,3.175 -15.161,2.1138 -13.3971,1.0583 -5.9916,0.3528 -5.6416,0.3528 -5.2888,0 -4.9361,0 -4.5833,-0.3528 -3.8777,-0.3528 -3.8778,-0.3527 -3.5277,-0.7056 -3.1722,-0.7055 -2.8194,-0.7056 -2.4695,-1.0555 -2.4666,-1.0583 -2.1166,-0.7056 -1.7611,-1.0583 -1.7639,-1.0584 -1.4111,-1.4083 -1.0555,-1.0583 -1.0584,-1.0583 -1.4111,-2.1139 -0.7055,-1.0583 -0.3528,-1.4111 -0.7056,-1.7611 12.3416,-6.3472 14.1027,-6.3471 15.1581,-6.6972 16.9249,-7.0527 9.1666,-3.525 9.5193,-3.5249 9.5194,-3.525 10.2249,-3.175 10.5749,-3.5249 10.5776,-3.1722 11.2833,-3.5278 11.6332,-3.1722 11.636,-3.1721 12.3388,-2.8223 12.6915,-2.8194 12.6944,-2.8194 13.397,-2.4694 13.3971,-2.4666 14.1027,-2.4695 14.1026,-2.1138 7.4027,-0.7056 7.0527,-1.0583 14.8054,-1.7639 15.5138,-1.4083 15.161,-1.0583 15.8637,-1.0583 16.2193,-0.7056 16.5692,-0.3528 16.5721,0 8.4611,61.6994 z"
         id="path4195"
         inkscape:connector-curvature="0" />
      <path
         style="fill:#003e83;fill-opacity:1;fill-rule:evenodd;stroke:none"
         d="m 2068.6084,990.03065 0,37.02195 8.4616,-2.1167 24.6795,-5.2889 17.9806,-4.2305 21.154,-4.5833 25.032,-4.936 27.8525,-5.6416 31.0258,-5.99162 16.9229,-2.82222 17.2757,-3.17218 36.6677,-6.34718 39.4857,-6.69713 41.6024,-6.34718 44.0718,-6.34718 22.5637,-3.17218 23.2692,-3.17217 23.9748,-3.175 24.3275,-2.8194 24.6775,-2.8194 25.0332,-2.82223 25.383,-2.8194 26.0915,-2.46944 26.0886,-2.46662 26.7942,-2.11667 26.797,-2.11384 27.1469,-2.11667 27.4998,-1.76107 27.8525,-1.76389 28.2053,-1.41111 28.2052,-1.05551 28.5581,-1.05833 28.5581,-0.70556 28.908,-0.35277 28.9108,-0.35278 28.9109,0 29.2636,0.35278 29.2608,0.35277 29.2637,1.05834 29.2636,1.05551 29.6164,1.41111 29.2608,1.76389 29.2636,2.11384 29.6164,2.82222 29.2608,2.8194 29.2636,3.17218 28.9109,3.52778 29.2636,4.23051 28.5552,4.23051 28.9109,4.93607 28.5581,5.28884 -4.2306,-1.05833 -12.3387,-2.82222 -20.0971,-4.58329 -27.4997,-5.6388 -34.5525,-6.69996 -19.7442,-3.52495 -21.1526,-3.52496 -11.2832,-1.76389 -11.6332,-1.76389 -24.3276,-3.87773 -26.0886,-3.52495 -27.147,-3.52496 -28.558,-3.52496 -29.9692,-3.175 -31.3775,-3.17217 -32.4358,-2.82223 -33.4941,-2.46662 -17.2748,-1.05833 -17.6277,-1.05833 -17.9832,-1.05552 -17.9803,-1.05833 -18.3332,-0.70555 -18.6859,-0.70556 -18.686,-0.35278 -19.0387,-0.70555 -19.3886,0 -19.3915,-0.34996 -39.8413,0 -20.0943,0.34996 -20.4498,0.35277 -20.4498,0.35278 -20.7998,0.70556 -42.3079,2.11666 -21.1554,1.05552 -21.5053,1.41111 -21.8581,1.41111 -21.861,1.76106 -42.6579,3.88056 -40.194,3.52496 -37.7247,3.87773 -35.608,3.87773 -33.4941,3.52496 -31.3775,3.88055 -29.6164,3.52496 -27.1469,3.87773 -25.3831,3.52496 -23.6231,3.52778 -21.859,3.52495 -20.0962,3.52496 -18.6859,3.17217 -16.9229,3.175 -15.1604,3.17218 -14.1024,3.17218 -12.6924,2.82222 -11.2821,2.8194 -9.8718,2.8194 -9.1666,2.46945 -7.7563,2.46662 -6.6988,2.11667 -5.6411,2.11384 -4.9358,1.76389 -7.4038,3.17218 -4.5836,2.46944 -2.4677,1.41111 -0.7053,0.70274 z"
         id="path4197"
         inkscape:connector-curvature="0" />
      <path
         style="fill:#003e83;fill-opacity:1;fill-rule:evenodd;stroke:none"
         d="m 2140.8841,1132.4682 -3.173,-2.8222 -3.173,-2.4666 -3.1733,-2.4667 -3.1731,-2.1166 -3.173,-2.1167 -3.173,-1.7611 -3.5258,-1.7638 -3.173,-1.7611 -3.5256,-1.0583 -3.5258,-1.4112 -3.5255,-1.0583 -3.5255,-0.7055 -3.5258,-0.7028 -3.5255,-0.3528 -3.8783,-0.3527 -3.5255,0 -3.5258,0 -3.5256,0.3527 -3.5258,0.3528 -3.173,0.7028 -3.5255,0.7055 -2.8205,0.7056 -3.1731,1.0583 -3.1733,1.4111 -2.8205,1.4083 -2.8205,1.4111 -2.8203,1.7639 -2.468,1.7611 -2.468,2.1166 -2.4681,2.1139 -2.4677,2.1166 -2.4681,2.4667 -2.1152,2.8222 -2.1156,2.4666 -1.7627,2.8222 -1.7628,3.1722 -1.0577,1.4111 -0.7053,1.4083 -1.41,3.175 -1.4103,3.1722 -1.0577,3.1722 -1.0578,3.5277 -1.0578,3.525 -0.705,3.525 -0.7052,3.5249 -0.3525,3.8777 -0.3525,3.8806 -0.3525,3.8777 0,3.8778 0,3.8777 0.3525,3.8777 0.3525,3.8778 0.3525,3.5277 0.7052,3.525 0.705,3.525 0.7053,3.5249 1.0578,3.175 1.4102,3.1722 1.0575,3.1722 1.7628,3.175 1.4102,2.8194 1.7631,2.8222 1.7627,2.8194 2.1153,2.8194 2.1155,2.4694 2.1153,2.4667 2.468,2.4694 2.4681,2.1138 2.4677,2.1167 2.468,1.7611 2.4681,1.7639 2.8205,1.4111 2.8205,1.4083 2.8206,1.0583 2.8205,1.0583 2.8202,1.0584 3.1734,0.7055 3.173,0.3528 3.173,0.7027 3.173,0 3.173,0 3.8783,0 3.8783,-0.3527 3.8781,-0.35 3.8783,-0.7056 3.5258,-0.7055 3.5255,-1.0583 3.8783,-1.4112 3.5255,-1.4082 7.0513,-3.5278 6.6988,-4.2305 3.5256,-2.4667 3.173,-2.4694 3.5258,-2.8194 3.173,-3.1722 0,35.9608 -2.8205,2.4666 -3.173,1.7639 -3.1733,2.1167 -2.8206,1.761 -3.173,1.7639 -3.5255,1.4111 -3.173,1.4083 -3.5258,1.0583 -3.1731,1.0584 -3.5255,1.0583 -3.5258,0.7027 -3.878,0.7056 -3.5258,0.3528 -3.8783,0.3528 -7.7563,0.3527 -4.9358,0 -4.9361,-0.3527 -4.9358,-0.7056 -4.936,-0.7056 -4.5833,-1.0555 -4.2308,-1.4111 -4.5833,-1.4111 -4.2308,-1.7611 -4.2308,-1.7638 -4.2305,-2.1167 -3.8783,-2.4666 -3.8783,-2.4695 -3.878,-2.8194 -3.5258,-3.1722 -3.5255,-3.175 -3.1732,-3.5249 -3.1731,-3.525 -2.8205,-3.8777 -2.8205,-3.8777 -2.4679,-3.8806 -2.468,-4.2305 -2.1154,-4.5833 -2.1154,-4.2305 -1.7628,-4.9361 -1.7628,-4.5833 -1.4103,-4.936 -1.0577,-4.9361 -1.0577,-4.9361 -0.7051,-5.286 -0.7051,-4.936 -0.3526,-5.2889 0,-5.2888 0,-5.6417 0.3526,-4.936 0.7051,-5.2889 0.7051,-5.286 1.0577,-4.9361 1.0577,-4.936 1.4103,-4.5833 1.7628,-4.9361 1.7628,-4.5833 2.1154,-4.5833 2.1154,-4.2305 2.468,-4.2333 1.0576,-2.1138 1.4103,-2.1167 2.8205,-3.8777 3.1731,-3.8778 3.1731,-3.5249 3.1731,-3.525 3.5255,-3.175 3.5258,-3.1722 3.878,-2.8194 3.8783,-2.4694 3.8783,-2.4666 3.878,-2.1167 4.2308,-2.1167 4.2308,-1.761 4.5833,-1.4111 4.2308,-1.4112 4.5833,-1.0555 2.468,-0.3527 2.1156,-0.3528 4.9357,-0.3528 4.5833,-0.3528 4.9361,-0.3528 3.878,0 3.8783,0.3528 3.8783,0.3528 3.5255,0.7056 3.8783,0.7055 3.5255,0.7027 3.5258,1.0584 3.5256,1.0583 3.5255,1.4111 3.5258,1.4083 7.0513,3.5278 3.173,2.1138 3.5255,2.1167 6.6989,4.9361 -1.4103,31.7302 z"
         id="path4199"
         inkscape:connector-curvature="0" />
      <path
         style="fill:#003e83;fill-opacity:1;fill-rule:evenodd;stroke:none"
         d="m 2327.7437,1183.2372 0,-3.8778 -0.3528,-1.7639 0,-1.761 -0.3527,-3.5278 -0.7056,-3.525 -0.3528,-3.5249 -1.0583,-3.525 -2.1138,-6.6999 -1.4112,-3.525 -1.4111,-3.175 -1.4083,-2.8194 -1.7638,-3.1722 -1.7639,-2.8222 -2.1139,-2.8194 -1.7639,-2.8194 -2.4666,-2.8222 -2.1167,-2.4666 -2.4666,-2.1167 -2.4694,-2.4666 -2.4666,-1.7639 -2.8194,-2.1138 -2.4695,-1.7639 -2.8194,-1.4111 -2.8222,-1.4083 -3.1722,-1.4111 -2.8194,-1.0584 -3.175,-1.0583 -3.1722,-0.7056 -2.8208,-0.7027 -3.173,-0.3528 -3.173,-0.3528 -3.5258,0 -3.1731,0 -3.173,0.3528 -3.173,0.3528 -3.173,0.7027 -2.8206,0.7056 -3.1733,1.0583 -5.9935,2.1167 -2.8205,1.7611 -2.8206,1.4111 -2.8205,1.7639 -2.4678,1.761 -2.8205,2.1167 -2.468,2.4666 -2.468,2.1167 -2.1153,2.4666 -2.468,2.8222 -2.1153,2.8194 -1.7628,2.4666 -1.763,3.175 -3.173,5.9916 -1.4103,3.175 -1.4102,3.1722 -1.0578,3.525 -1.0575,3.5277 -0.7053,3.1722 -0.705,3.525 -0.7052,3.5249 -0.3525,3.8806 0,3.5249 -0.3525,3.8778 0.3525,3.5249 0,1.7639 0,1.7611 0.3525,3.5278 0.7052,3.5249 0.705,3.525 0.7053,3.5249 1.0575,3.5278 1.0578,3.1722 1.4102,3.1722 1.4103,3.175 1.4102,3.1721 1.7628,2.8194 1.763,3.175 1.7628,2.8194 2.1153,2.4695 2.468,2.8194 2.1153,2.4666 2.468,2.4694 5.2885,4.2306 2.4678,1.7638 2.8205,1.7611 2.8206,1.7639 2.8205,1.4111 5.9935,2.4666 2.8206,0.7056 3.1733,1.0583 3.173,0.3528 3.173,0.35 3.173,0.3527 3.1731,0 3.173,0 3.1733,-0.3527 3.173,-0.35 3.1733,-0.3528 3.1722,-1.0583 2.8222,-0.7056 3.1722,-1.0583 2.8194,-1.4083 2.8222,-1.4111 2.8194,-1.7639 2.8223,-1.7611 2.4666,-1.7638 2.8194,-2.1167 2.4694,-2.1139 2.4666,-2.4694 2.1167,-2.4666 2.4666,-2.8194 1.7639,-2.4695 2.1139,-2.8194 1.7639,-3.175 1.7638,-2.8194 1.4083,-3.1721 1.4111,-3.175 1.4112,-3.1722 2.1138,-6.7 1.0583,-3.5249 0.3528,-3.525 0.7056,-3.5249 0.3527,-3.5278 0.3528,-3.525 0,-3.5249 z m 29.9664,0 -0.3528,4.936 -0.3528,5.2889 -0.3499,4.936 -0.3528,2.4667 -0.3528,2.4694 -1.0583,4.9361 -1.4111,4.5833 -1.4083,4.936 -1.4111,4.5833 -2.1167,4.5833 -1.7611,4.5833 -2.4694,4.2305 -2.4666,4.2305 -2.4695,3.8778 -3.1722,4.2305 -2.8194,3.8777 -3.5277,3.525 -3.1722,3.5277 -3.8777,3.1722 -3.525,3.1722 -3.8806,2.8222 -3.8777,2.8194 -3.8777,2.4695 -4.2305,2.1138 -4.2305,2.1167 -4.2306,1.761 -4.2305,1.7639 -4.5833,1.4111 -4.5832,1.0555 -4.2306,0.7056 -4.5844,0.7056 -4.5833,0.3527 -4.936,0 -4.5833,0 -4.5833,-0.3527 -4.5833,-0.7056 -4.5833,-0.7056 -4.5836,-1.0555 -4.5832,-1.4111 -4.2308,-1.7639 -2.4678,-0.7055 -2.1155,-1.0555 -4.2308,-2.1167 -4.2308,-2.1138 -3.878,-2.4695 -3.8783,-2.8194 -3.8783,-2.8222 -3.5255,-3.1722 -3.5256,-3.1722 -3.1733,-3.5277 -3.5255,-3.525 -2.8205,-3.8777 -3.173,-3.8778 -1.0578,-2.1166 -1.4103,-2.1139 -2.468,-4.2305 -2.1153,-4.2305 -2.1155,-4.5833 -2.1153,-4.2333 -1.4102,-4.9333 -1.4103,-4.5833 -1.4103,-4.936 -0.7049,-4.9361 -1.0578,-4.9361 -0.3525,-4.936 -0.3528,-5.2889 0,-4.936 0,-5.2889 0.3528,-5.2888 0.3525,-4.9361 0.3525,-2.4666 0.7053,-2.4695 0.7049,-4.936 1.4103,-4.9361 1.4103,-4.5833 1.4102,-4.5833 2.1153,-4.5833 2.1155,-4.5832 2.1153,-4.2306 2.468,-4.2305 2.4681,-4.2305 3.173,-3.8777 2.8205,-3.8777 3.5255,-3.8778 3.1733,-3.5278 3.5256,-3.1721 3.8783,-3.1722 3.5255,-2.8222 3.8783,-2.8194 4.2308,-2.1167 3.878,-2.4666 4.2308,-1.7639 4.5833,-2.1139 4.2308,-1.4111 4.5832,-1.4111 4.2308,-1.0555 2.4681,-0.3528 2.1155,-0.3527 4.9358,-0.7056 4.5833,-0.3528 4.5833,0 4.936,0 4.5833,0.3528 4.5844,0.7056 4.5833,0.7055 4.5833,1.0555 2.1139,0.7056 2.1166,0.7055 2.1139,0.7056 2.4694,0.7055 4.2305,2.1139 4.2305,1.7639 3.8778,2.4666 4.2305,2.1167 3.8777,2.8194 3.5278,2.8222 3.8777,3.1722 3.525,3.1721 3.1722,3.5278 3.5277,3.8778 2.8194,3.8777 3.1722,3.8777 2.4695,4.2305 2.4666,4.2305 2.4694,4.2306 1.7611,4.5832 2.1167,4.5833 1.4111,4.5833 1.4083,4.9361 1.4111,4.9361 1.0583,4.5832 0.7056,4.9361 0.3499,5.2889 0.3528,4.936 0.3528,5.2889 z"
         id="path4201"
         inkscape:connector-curvature="0" />
      <path
         style="fill:#003e83;fill-opacity:1;fill-rule:evenodd;stroke:none"
         d="m 2390.4987,1280.1918 0,-202.7231 112.1156,119.1656 4.5832,5.2888 4.9361,5.6416 4.5833,5.9916 2.4694,3.5278 2.8194,3.5249 0,-135.7376 26.4414,0 0,203.0759 -114.5822,-121.6322 -4.2305,-4.936 -4.5833,-5.2889 -4.2305,-5.6416 -3.8777,-5.9944 0,135.7376 -26.4442,0 z"
         id="path4203"
         inkscape:connector-curvature="0" />
      <path
         style="fill:#003e83;fill-opacity:1;fill-rule:evenodd;stroke:none"
         d="m 2578.7691,1241.4088 22.9164,-11.986 1.0584,3.1722 1.0555,3.175 1.0583,2.8194 1.4111,2.4695 1.7639,2.4666 1.4083,2.1166 2.1167,2.1139 2.1138,1.7639 2.1167,1.4083 2.4666,1.4111 2.4695,1.4111 2.8194,0.7055 2.8222,1.0556 3.1722,0.3527 2.8194,0.3528 3.5277,0 3.1722,0 2.8194,-0.3528 2.8222,-0.7027 2.4667,-0.7056 2.4694,-1.0583 2.4666,-1.4111 2.1167,-1.7611 2.1138,-1.7639 1.7639,-2.1166 1.4111,-2.1139 1.4083,-2.4694 1.0584,-2.4666 0.3527,-1.4111 0.3528,-1.4083 0.7056,-2.8223 0.3527,-3.1721 0,-3.1722 0,-2.1167 -0.3527,-2.1166 -0.7056,-2.1139 -0.7055,-2.1167 -0.7056,-1.761 -1.0583,-2.1167 -1.4083,-1.7611 -1.4111,-2.1166 -1.7639,-1.7639 -2.1139,-2.1139 -4.2305,-3.5249 -2.4694,-1.7639 -2.8194,-1.7639 -5.9944,-3.5249 -5.6416,-2.8194 -7.05,-3.8778 -6.3471,-3.8805 -5.6417,-3.525 -5.286,-3.8777 -4.5833,-3.525 -3.8805,-3.175 -3.525,-3.5249 -2.4666,-3.1722 -2.4694,-3.1722 -1.7611,-3.5278 -1.7639,-3.5249 -0.7056,-2.1167 -0.7055,-1.7611 -1.0555,-3.8777 -0.7056,-4.2305 -0.7055,-4.2305 0,-4.5861 0,-3.1722 0.3527,-2.8194 0,-2.8222 0.7056,-2.8194 0.3528,-2.4666 0.7027,-2.4695 0.7056,-2.8194 0.7055,-2.4694 2.1167,-4.5833 1.4083,-2.1139 1.0583,-2.1166 1.4111,-2.1139 1.7611,-2.1166 1.7639,-2.1167 1.7639,-1.7611 1.761,-1.7639 1.7639,-1.761 2.1139,-1.4111 2.1166,-1.4112 2.1167,-1.4111 2.1138,-1.4083 2.4695,-1.0583 2.4666,-1.0583 2.4666,-0.7056 2.4695,-0.7027 2.4666,-0.7056 2.4694,-0.3527 2.8194,-0.7056 2.8223,0 2.8194,-0.3528 3.1721,0 4.5833,0 4.5833,0.3528 4.5833,0.7056 3.8806,1.0583 4.2305,1.0555 3.5249,1.4111 3.8778,1.7639 3.1721,2.1138 3.175,2.1167 2.8194,2.4666 2.8223,2.4695 1.0555,1.4083 1.4111,1.4111 1.0583,1.7639 1.0584,1.4083 1.761,3.5277 1.7639,3.525 1.4083,3.5249 -22.5637,13.0444 -1.0555,-2.1139 -1.4111,-2.1167 -2.8222,-3.8777 -1.7611,-1.4111 -1.4111,-1.4083 -1.4111,-1.4111 -1.7611,-1.0583 -1.4111,-1.0584 -1.7639,-1.0555 -1.761,-0.7055 -1.7639,-0.3528 -1.7611,-0.7056 -2.1167,-0.3527 -3.8777,-0.3528 -2.8194,0.3528 -2.8222,0.3527 -2.4666,0.3528 -2.1167,0.7056 -2.4666,1.0583 -2.1167,1.0555 -1.7639,1.4111 -1.0555,0.7056 -0.7055,0.7055 -1.7639,1.7611 -1.4083,2.1167 -1.0584,1.7639 -1.0583,2.4666 -0.7055,2.1166 -0.3528,2.4667 -0.3528,2.4666 -0.3528,2.8222 0.3528,2.1139 0.3528,2.4694 0.3528,2.1138 1.0583,2.1167 1.0583,2.1167 1.0555,2.1138 1.7639,2.1167 1.7639,1.7611 1.7611,2.1166 2.4694,2.1139 4.9361,3.8777 3.1722,2.1167 3.1721,1.7639 6.7,3.8777 3.8777,2.1138 6.3472,3.175 2.8194,1.7611 2.8222,1.4111 5.2861,3.525 4.5832,3.175 4.2306,3.1721 2.1166,1.7639 1.7639,1.4083 3.1722,3.175 2.8194,3.525 2.1167,3.1722 2.1138,3.5249 1.4111,3.5278 1.4111,3.8777 0.7056,2.1139 0.3528,2.1166 1.0555,4.2305 0.3527,4.5833 0,4.5833 0,3.1722 0,3.5278 -1.0555,6.3443 -0.3527,3.1722 -0.7056,2.8222 -0.7056,2.8194 -1.0583,2.8223 -1.0583,2.8194 -1.0555,2.4694 -1.4111,2.8194 -1.4112,2.4666 -1.4082,2.1167 -1.7639,2.4666 -1.7639,2.1167 -2.1139,2.1138 -1.7639,1.7639 -2.1138,2.1167 -2.1167,1.761 -2.4666,1.4112 -2.4694,1.4111 -2.4667,1.4083 -2.4694,1.0583 -2.4666,1.4111 -2.8222,0.7056 -2.8194,1.0555 -2.8223,0.7055 -2.8194,0.3528 -3.1721,0.7056 -3.175,0 -6.6972,0.3527 -5.2888,0 -5.2889,-0.7055 -4.936,-0.7056 -4.9361,-1.4083 -4.5833,-1.7639 -4.2305,-1.7638 -3.8777,-2.4667 -1.7639,-1.0583 -1.7611,-1.4111 -1.7639,-1.7611 -1.761,-1.4111 -3.175,-3.1722 -2.8194,-3.8777 -2.4695,-3.8806 -2.4666,-4.2305 -0.7056,-2.1138 -1.0583,-2.4695 -0.7056,-2.4666 -0.7027,-2.4694 -1.4111,-4.9361 z"
         id="path4205"
         inkscape:connector-curvature="0" />
      <path
         style="fill:#003e83;fill-opacity:1;fill-rule:evenodd;stroke:none"
         d="m 2875.2746,1183.2372 0,-3.8778 0,-1.7639 -0.3528,-1.761 -0.3528,-3.5278 -0.3527,-3.525 -0.7028,-3.5249 -1.0583,-3.525 -2.1167,-6.6999 -1.0583,-3.525 -1.4083,-3.175 -1.7639,-2.8194 -1.7611,-3.1722 -1.7638,-2.8222 -1.7639,-2.8194 -2.1139,-2.8194 -2.4694,-2.8222 -2.1139,-2.4666 -2.4694,-2.1167 -2.4666,-2.4666 -2.4695,-1.7639 -2.4666,-2.1138 -2.8222,-1.7639 -2.8194,-1.4111 -2.8194,-1.4083 -3.175,-1.4111 -2.8194,-1.0584 -3.1722,-1.0583 -2.8222,-0.7056 -3.1722,-0.7027 -3.1722,-0.3528 -3.175,-0.3528 -3.1722,0 -3.5249,0 -3.175,0.3528 -3.1722,0.3528 -3.1722,0.7027 -2.8222,0.7056 -3.1722,1.0583 -5.9944,2.1167 -2.8194,1.7611 -2.8194,1.4111 -2.8222,1.7639 -2.4666,1.761 -2.8222,2.1167 -2.4667,2.4666 -2.1166,2.1167 -2.4666,2.4666 -2.1167,2.8222 -2.1139,2.8194 -2.1166,2.4666 -1.7611,3.175 -3.175,5.9916 -1.4083,3.175 -1.4111,3.1722 -1.0583,3.525 -1.0584,3.5277 -0.7055,3.1722 -0.7027,3.525 -0.7056,3.5249 -0.3528,3.8806 0,3.5249 0,3.8778 0,3.5249 0,1.7639 0,1.7611 0.3528,3.5278 0.7056,3.5249 0.7027,3.525 0.7055,3.5249 1.0584,3.5278 1.0583,3.1722 1.4111,3.1722 1.4083,3.175 1.4111,3.1721 1.7639,2.8194 1.7611,3.175 2.1166,2.8194 2.1139,2.4695 2.1167,2.8194 2.4666,2.4666 2.1166,2.4694 5.2889,4.2306 2.4666,1.7638 2.8222,1.7611 2.8194,1.7639 2.8194,1.4111 5.9944,2.4666 3.1722,0.7056 2.8222,1.0583 3.1722,0.3528 3.1722,0.35 3.175,0.3527 3.5249,0 3.1722,0 3.175,-0.3527 2.8194,-0.35 3.1722,-0.3528 3.175,-1.0583 2.8194,-0.7056 3.1722,-1.0583 2.8222,-1.4083 2.8194,-1.4111 2.8222,-1.7639 2.8194,-1.7611 2.4666,-1.7638 2.8223,-2.1167 2.4666,-2.1139 2.4694,-2.4694 2.1139,-2.4666 2.4694,-2.8194 2.1139,-2.4695 1.7639,-2.8194 1.7638,-3.175 1.7611,-2.8194 1.7639,-3.1721 1.4083,-3.175 1.0583,-3.1722 2.1167,-6.7 1.0583,-3.5249 0.7028,-3.525 0.3527,-3.5249 0.3528,-3.5278 0.3528,-3.525 0,-3.5249 z m 29.9692,0 0,4.936 -0.3528,5.2889 -0.7056,4.936 -0.3527,2.4667 -0.3528,2.4694 -1.0584,4.9361 -1.0555,4.5833 -1.4111,4.936 -1.7639,4.5833 -1.761,4.5833 -2.1167,4.5833 -2.4666,4.2305 -2.4695,4.2305 -2.4666,3.8778 -2.8222,4.2305 -3.1722,3.8777 -3.1722,3.525 -3.5277,3.5277 -3.525,3.1722 -3.8777,3.1722 -3.8778,2.8222 -3.8777,2.8194 -3.8777,2.4695 -4.2334,2.1138 -4.2305,2.1167 -4.2305,1.761 -4.2305,1.7639 -4.5833,1.4111 -4.2305,1.0555 -4.5833,0.7056 -4.5833,0.7056 -4.5833,0.3527 -4.5833,0 -4.936,0 -4.5833,-0.3527 -4.5833,-0.7056 -4.5833,-0.7056 -4.5833,-1.0555 -4.5833,-1.4111 -4.2305,-1.7639 -2.1166,-0.7055 -2.4667,-1.0555 -4.2305,-2.1167 -3.8777,-2.1138 -4.2333,-2.4695 -3.8778,-2.8194 -3.5249,-2.8222 -3.8778,-3.1722 -3.5249,-3.1722 -3.175,-3.5277 -3.525,-3.525 -2.8194,-3.8777 -2.8222,-3.8778 -1.4083,-2.1166 -1.4111,-2.1139 -2.4694,-4.2305 -2.1139,-4.2305 -2.1167,-4.5833 -1.761,-4.2333 -1.7639,-4.9333 -1.4111,-4.5833 -1.0555,-4.936 -1.0584,-4.9361 -0.7055,-4.9361 -0.7056,-4.936 -0.3528,-5.2889 0,-4.936 0,-5.2889 0.3528,-5.2888 0.7056,-4.9361 0.3528,-2.4666 0.3527,-2.4695 1.0584,-4.936 1.0555,-4.9361 1.4111,-4.5833 1.7639,-4.5833 1.761,-4.5833 2.1167,-4.5832 2.1139,-4.2306 2.4694,-4.2305 2.8194,-4.2305 2.8222,-3.8777 2.8194,-3.8777 3.525,-3.8778 3.5278,-3.5278 3.5249,-3.1721 3.525,-3.1722 3.8777,-2.8222 3.8777,-2.8194 3.8806,-2.1167 4.2305,-2.4666 4.2305,-1.7639 4.2305,-2.1139 4.2305,-1.4111 4.5833,-1.4111 4.5833,-1.0555 2.1167,-0.3528 2.4666,-0.3527 4.5833,-0.7056 4.5833,-0.3528 4.936,0 4.5833,0 4.5833,0.3528 4.5833,0.7056 4.5833,0.7055 4.5833,1.0555 2.1167,0.7056 2.1138,0.7055 2.4694,0.7056 2.1139,0.7055 4.2305,2.1139 4.2305,1.7639 3.8806,2.4666 4.2305,2.1167 3.8777,2.8194 3.525,2.8222 3.8777,3.1722 3.525,3.1721 3.5277,3.5278 3.1722,3.8778 3.1722,3.8777 2.8222,3.8777 2.4666,4.2305 2.4695,4.2305 2.4666,4.2306 2.1167,4.5832 1.761,4.5833 1.7639,4.5833 1.4111,4.9361 1.0555,4.9361 1.0584,4.5832 0.7055,4.9361 0.7056,5.2889 0.3528,4.936 0,5.2889 z"
         id="path4207"
         inkscape:connector-curvature="0" />
      <path
         style="fill:#003e83;fill-opacity:1;fill-rule:evenodd;stroke:none"
         d="m 2966.9432,1168.429 4.9332,0 5.6417,-0.3528 4.936,0 4.5833,-0.7056 3.8777,-0.3527 3.5279,-1.0556 3.1721,-1.0583 1.4111,-0.3528 1.0556,-0.7055 2.1166,-1.4111 1.7639,-1.4083 1.7611,-2.1167 1.0583,-2.1138 1.0583,-2.4695 0.3528,-1.4111 0.3528,-1.4083 0.7027,-2.8222 0.3528,-3.525 0,-3.5249 0,-3.8777 -0.3528,-3.5278 -0.7027,-3.1722 -0.7056,-3.1722 -1.0583,-2.8222 -1.4111,-2.1138 -1.7611,-2.1167 -1.7639,-1.7611 -2.4666,-1.7639 -1.0583,-0.7055 -1.4111,-0.7056 -3.1722,-1.0555 -3.525,-0.7055 -3.8805,-0.7056 -4.2306,-0.7056 -4.936,-0.3527 -5.2889,0 -4.9332,0 0,56.0578 z m -1.7639,24.3275 0,87.4353 -27.147,0 0,-195.3204 40.1913,0 8.1083,0.3528 7.4055,0.3528 3.1722,0.3528 3.1722,0.3527 5.2888,1.4083 2.4694,0.7056 2.4667,0.7055 2.1166,0.7056 2.1139,1.0583 3.8777,2.4667 3.5278,2.4694 2.1138,2.1138 1.7639,1.7639 1.7611,2.1139 1.7639,2.1166 1.4111,2.4667 1.4083,2.4694 1.4111,2.4666 1.0583,2.8223 1.0584,2.8194 1.0583,3.175 0.7027,2.8194 0.7056,3.1721 0.3528,2.8223 0.3527,3.1721 0.3528,3.525 0,3.175 -0.3528,5.6388 -0.3527,5.2888 -0.3528,2.8223 -0.3528,2.4666 -1.0555,4.5833 -1.7639,4.5833 -1.7639,3.8777 -0.7055,2.1167 -1.0556,1.761 -1.4111,1.7639 -1.0583,1.7639 -2.8194,3.1722 -3.175,2.8194 -3.1722,2.4694 -1.761,1.0584 -1.7639,1.0555 -2.1167,1.0583 -1.7611,0.7056 -4.2305,1.7638 -4.5833,1.0556 -2.4694,0.3527 -2.4666,0.3528 60.6411,88.8464 -32.4358,0 -58.5273,-87.4353 -3.1722,0 z"
         id="path4209"
         inkscape:connector-curvature="0" />
      <path
         style="fill:#003e83;fill-opacity:1;fill-rule:evenodd;stroke:none"
         d="m 3217.9686,1132.4682 -3.175,-2.8222 -2.8194,-2.4666 -3.1722,-2.4667 -3.175,-2.1166 -3.5249,-2.1167 -3.1722,-1.7611 -3.175,-1.7638 -3.525,-1.7611 -3.5249,-1.0583 -3.1722,-1.4112 -3.5278,-1.0583 -3.5249,-0.7055 -3.525,-0.7028 -3.8777,-0.3528 -3.5278,-0.3527 -3.8777,0 -3.525,0 -3.5249,0.3527 -3.175,0.3528 -3.525,0.7028 -3.1722,0.7055 -3.1722,0.7056 -3.175,1.0583 -2.8194,1.4111 -2.8222,1.4083 -2.8194,1.4111 -2.8194,1.7639 -2.8222,1.7611 -2.4666,2.1166 -2.4695,2.1139 -2.4666,2.1166 -2.1167,2.4667 -2.1138,2.8222 -2.1167,2.4666 -2.1138,2.8222 -1.7639,3.1722 -0.7056,1.4111 -0.7055,1.4083 -1.7611,3.175 -1.0583,3.1722 -1.4111,3.1722 -1.0555,3.5277 -0.7056,3.525 -1.0583,3.525 -0.3528,3.5249 -0.7056,3.8777 -0.3527,3.8806 0,3.8777 -0.3528,3.8778 0.3528,3.8777 0,3.8777 0.3527,3.8778 0.7056,3.5277 0.3528,3.525 0.7055,3.525 1.0584,3.5249 1.0555,3.175 1.0583,3.1722 1.4111,3.1722 1.4083,3.175 1.7639,2.8194 1.4111,2.8222 2.1139,2.8194 1.7638,2.8194 2.1139,2.4694 2.4694,2.4667 2.1139,2.4694 2.4694,2.1138 2.4666,2.1167 2.4695,1.7611 2.8194,1.7639 2.4694,1.4111 2.8194,1.4083 2.8223,1.0583 2.8194,1.0583 3.1721,1.0584 2.8223,0.7055 3.1721,0.3528 3.1722,0.7027 3.175,0 3.525,0 3.8777,0 3.8777,-0.3527 3.525,-0.35 3.8805,-0.7056 3.8778,-0.7055 3.5249,-1.0583 3.525,-1.4112 3.5278,-1.4082 7.0499,-3.5278 7.0499,-4.2305 3.175,-2.4667 3.5249,-2.4694 3.1722,-2.8194 3.175,-3.1722 0,35.9608 -2.8222,2.4666 -2.8194,1.7639 -3.1722,2.1167 -3.175,1.761 -3.1722,1.7639 -3.1721,1.4111 -3.175,1.4083 -3.525,1.0583 -3.5249,1.0584 -3.525,1.0583 -3.5278,0.7027 -3.5249,0.7056 -3.8778,0.3528 -3.8777,0.3528 -7.7583,0.3527 -4.9361,0 -4.9332,-0.3527 -4.9361,-0.7056 -4.5833,-0.7056 -4.5832,-1.0555 -4.5833,-1.4111 -4.5833,-1.4111 -4.2334,-1.7611 -4.2305,-1.7638 -3.8777,-2.1167 -4.2305,-2.4666 -3.8777,-2.4695 -3.525,-2.8194 -3.5278,-3.1722 -3.5249,-3.175 -3.1722,-3.5249 -3.1722,-3.525 -3.175,-3.8777 -2.8194,-3.8777 -2.4694,-3.8806 -2.4667,-4.2305 -2.1166,-4.5833 -2.1139,-4.2305 -1.7639,-4.9361 -1.4111,-4.5833 -1.4083,-4.936 -1.4111,-4.9361 -0.7055,-4.9361 -1.0584,-5.286 -0.3499,-4.936 -0.3528,-5.2889 0,-5.2888 0,-5.6417 0.3528,-4.936 0.3499,-5.2889 1.0584,-5.286 0.7055,-4.9361 1.4111,-4.936 1.4083,-4.5833 1.4111,-4.9361 1.7639,-4.5833 2.1139,-4.5833 2.1166,-4.2305 2.4667,-4.2333 1.4111,-2.1138 1.4111,-2.1167 2.8194,-3.8777 2.8222,-3.8778 3.1722,-3.5249 3.5249,-3.525 3.1722,-3.175 3.8806,-3.1722 3.5249,-2.8194 3.8778,-2.4694 3.8777,-2.4666 4.2305,-2.1167 4.2305,-2.1167 4.2305,-1.761 4.2334,-1.4111 4.5833,-1.4112 4.5832,-1.0555 2.1139,-0.3527 2.4694,-0.3528 4.5833,-0.3528 4.9361,-0.3528 4.9332,-0.3528 3.8806,0 3.8777,0.3528 3.525,0.3528 3.8777,0.7056 3.525,0.7055 3.8805,0.7027 3.525,1.0584 3.5249,1.0583 3.525,1.4111 3.5278,1.4083 6.6971,3.5278 3.525,2.1138 3.5277,2.1167 6.6972,4.9361 -1.7611,31.7302 z"
         id="path4211"
         inkscape:connector-curvature="0" />
      <path
         style="fill:#003e83;fill-opacity:1;fill-rule:evenodd;stroke:none"
         d="m 3254.2821,1280.1918 0,-195.3204 28.5581,0 0,195.3204 -28.5581,0 z"
         id="path4213"
         inkscape:connector-curvature="0" />
      <path
         style="fill:#003e83;fill-opacity:1;fill-rule:evenodd;stroke:none"
         d="m 3475.6911,1183.2372 -0.3528,-3.8778 0,-1.7639 0,-1.761 -0.3527,-3.5278 -0.7028,-3.525 -0.7055,-3.5249 -0.7056,-3.525 -2.1167,-6.6999 -1.4082,-3.525 -1.4112,-3.175 -1.4111,-2.8194 -1.761,-3.1722 -1.7639,-2.8222 -2.1167,-2.8194 -2.1138,-2.8194 -2.1167,-2.8222 -2.4666,-2.4666 -2.1167,-2.1167 -2.4666,-2.4666 -2.4695,-1.7639 -2.8194,-2.1138 -2.8194,-1.7639 -2.8222,-1.4111 -2.8194,-1.4083 -2.8222,-1.4111 -3.1722,-1.0584 -2.8194,-1.0583 -3.175,-0.7056 -3.1722,-0.7027 -3.1721,-0.3528 -3.175,-0.3528 -3.1722,0 -3.1722,0 -3.175,0.3528 -3.1722,0.3528 -3.1721,0.7027 -3.1722,0.7056 -2.8222,1.0583 -5.9944,2.1167 -3.1722,1.7611 -2.8194,1.4111 -2.4695,1.7639 -2.8194,1.761 -2.4694,2.1167 -2.4666,2.4666 -2.4695,2.1167 -2.4666,2.4666 -2.1167,2.8222 -2.1138,2.8194 -1.7639,2.4666 -2.1138,3.175 -3.175,5.9916 -1.4083,3.175 -1.0584,3.1722 -1.4111,3.525 -0.7055,3.5277 -1.0555,3.1722 -0.7056,3.525 -0.3528,3.5249 -0.3528,3.8806 -0.3527,3.5249 0,3.8778 0,3.5249 0,1.7639 0.3527,1.7611 0.3528,3.5278 0.3528,3.5249 0.7056,3.525 1.0555,3.5249 0.7055,3.5278 1.4111,3.1722 1.0584,3.1722 1.4083,3.175 1.7638,3.1721 1.4112,2.8194 2.1138,3.175 1.7639,2.8194 2.1138,2.4695 2.1167,2.8194 2.4666,2.4666 2.4695,2.4694 4.936,4.2306 2.8194,1.7638 2.4695,1.7611 2.8194,1.7639 2.8194,1.4111 5.9944,2.4666 3.175,0.7056 3.1722,1.0583 3.1721,0.3528 3.1722,0.35 3.175,0.3527 3.1722,0 3.1722,0 3.175,-0.3527 3.1721,-0.35 3.1722,-0.3528 2.8222,-1.0583 3.1722,-0.7056 2.8194,-1.0583 3.175,-1.4083 2.8194,-1.4111 2.8222,-1.7639 2.4667,-1.7611 2.8194,-1.7638 2.4694,-2.1167 2.4666,-2.1139 2.4695,-2.4694 2.4666,-2.4666 2.1167,-2.8194 2.1138,-2.4695 2.1167,-2.8194 1.7639,-3.175 1.761,-2.8194 1.4111,-3.1721 1.4112,-3.175 1.4082,-3.1722 2.1167,-6.7 0.7056,-3.5249 0.7055,-3.525 0.7028,-3.5249 0.3527,-3.5278 0,-3.525 0.3528,-3.5249 z m 29.6164,0 0,4.936 -0.3528,5.2889 -0.7055,4.936 -0.3528,2.4667 -0.3528,2.4694 -1.0583,4.9361 -1.0555,4.5833 -1.4111,4.936 -1.7639,4.5833 -1.7611,4.5833 -2.1167,4.5833 -2.1138,4.2305 -2.4694,4.2305 -2.8194,3.8778 -2.8223,4.2305 -3.1721,3.8777 -3.1722,3.525 -3.525,3.5277 -3.5278,3.1722 -3.5249,3.1722 -3.8777,2.8222 -3.8778,2.8194 -4.2305,2.4695 -3.8805,2.1138 -4.2306,2.1167 -4.2305,1.761 -4.5833,1.7639 -4.2305,1.4111 -4.5833,1.0555 -4.5832,0.7056 -4.5833,0.7056 -4.5833,0.3527 -4.5833,0 -4.5833,0 -4.9361,-0.3527 -4.5833,-0.7056 -4.5832,-0.7056 -4.5833,-1.0555 -4.2305,-1.4111 -4.5833,-1.7639 -2.1167,-0.7055 -2.1138,-1.0555 -4.2306,-2.1167 -4.2305,-2.1138 -3.8777,-2.4695 -3.8806,-2.8194 -3.8777,-2.8222 -3.5249,-3.1722 -3.525,-3.1722 -3.5278,-3.5277 -3.1722,-3.525 -3.1721,-3.8777 -2.8223,-3.8778 -1.4082,-2.1166 -1.0584,-2.1139 -2.4666,-4.2305 -2.4694,-4.2305 -2.1139,-4.5833 -1.7639,-4.2333 -1.7639,-4.9333 -1.4083,-4.5833 -1.0583,-4.936 -1.0583,-4.9361 -0.7056,-4.9361 -0.7055,-4.936 0,-5.2889 -0.3528,-4.936 0.3528,-5.2889 0,-5.2888 0.7055,-4.9361 0.3528,-2.4666 0.3528,-2.4695 1.0583,-4.936 1.0583,-4.9361 1.4083,-4.5833 1.7639,-4.5833 1.7639,-4.5833 2.1139,-4.5832 2.4694,-4.2306 2.4666,-4.2305 2.4666,-4.2305 2.8223,-3.8777 3.1721,-3.8777 3.1722,-3.8778 3.5278,-3.5278 3.525,-3.1721 3.5249,-3.1722 3.8777,-2.8222 3.8806,-2.8194 3.8777,-2.1167 4.2305,-2.4666 4.2306,-1.7639 4.2305,-2.1139 4.5833,-1.4111 4.2305,-1.4111 4.5833,-1.0555 2.1166,-0.3528 2.4666,-0.3527 4.5833,-0.7056 4.5833,-0.3528 4.9361,0 4.5833,0 4.936,0.3528 4.5833,0.7056 4.5833,0.7055 4.2305,1.0555 2.4695,0.7056 2.1138,0.7055 2.1167,0.7056 2.1138,0.7055 4.2305,2.1139 4.2306,1.7639 4.2333,2.4666 3.8777,2.1167 3.8778,2.8194 3.8777,2.8222 3.5249,3.1722 3.5278,3.1721 3.525,3.5278 3.1722,3.8778 3.1721,3.8777 2.8223,3.8777 2.8194,4.2305 2.4694,4.2305 2.1138,4.2306 2.1167,4.5832 1.7611,4.5833 1.7639,4.5833 1.4111,4.9361 1.0555,4.9361 1.0583,4.5832 0.7056,4.9361 0.7055,5.2889 0.3528,4.936 0,5.2889 z"
         id="path4215"
         inkscape:connector-curvature="0" />
    </g>
  </g>
</svg>
