<?xml version="1.0" encoding="UTF-8" standalone="no"?>
<!-- Created with Inkscape (http://www.inkscape.org/) -->

<svg
   xmlns:dc="http://purl.org/dc/elements/1.1/"
   xmlns:cc="http://creativecommons.org/ns#"
   xmlns:rdf="http://www.w3.org/1999/02/22-rdf-syntax-ns#"
   xmlns:svg="http://www.w3.org/2000/svg"
   xmlns="http://www.w3.org/2000/svg"
   xmlns:sodipodi="http://sodipodi.sourceforge.net/DTD/sodipodi-0.dtd"
   xmlns:inkscape="http://www.inkscape.org/namespaces/inkscape"
   width="1406.0586mm"
   height="476.81067mm"
   viewBox="0 0 4982.0974 1689.4866"
   id="svg4818"
   version="1.1"
   inkscape:version="0.91 r13725"
   sodipodi:docname="cruz_del_norte.svg">
  <defs
     id="defs4820">
    <pattern
       y="0"
       x="0"
       height="6"
       width="6"
       patternUnits="userSpaceOnUse"
       id="EMFhbasepattern" />
  </defs>
  <sodipodi:namedview
     id="base"
     pagecolor="#ffffff"
     bordercolor="#666666"
     borderopacity="1.0"
     inkscape:pageopacity="0.0"
     inkscape:pageshadow="2"
     inkscape:zoom="0.12374369"
     inkscape:cx="1784.7463"
     inkscape:cy="184.89955"
     inkscape:document-units="px"
     inkscape:current-layer="layer1"
     showgrid="false"
     fit-margin-top="0"
     fit-margin-left="0"
     fit-margin-right="0"
     fit-margin-bottom="0"
     inkscape:window-width="1920"
     inkscape:window-height="1138"
     inkscape:window-x="1358"
     inkscape:window-y="-8"
     inkscape:window-maximized="1" />
  <metadata
     id="metadata4823">
    <rdf:RDF>
      <cc:Work
         rdf:about="">
        <dc:format>image/svg+xml</dc:format>
        <dc:type
           rdf:resource="http://purl.org/dc/dcmitype/StillImage" />
        <dc:title></dc:title>
      </cc:Work>
    </rdf:RDF>
  </metadata>
  <g
     inkscape:label="Capa 1"
     inkscape:groupmode="layer"
     id="layer1"
     transform="translate(1911.0486,372.3811)">
    <g
       id="g5481">
      <path
         style="fill:#003270;fill-opacity:1;fill-rule:evenodd;stroke:none"
         d="m 398.59885,566.14326 139.6153,0 9.8722,0 4.936,0.35277 4.5833,0.35278 9.1666,0.70556 8.461,1.41111 4.2305,0.70555 3.8778,0.70556 7.7583,2.11384 7.0499,2.11667 3.1721,1.40829 3.5278,1.41111 3.1722,1.41111 2.8194,1.76107 5.9944,3.175 5.6416,3.52495 2.8194,2.11385 2.4695,1.76389 2.8194,2.11666 2.4694,2.46663 4.9361,4.23051 4.5833,4.93606 4.2305,5.28885 1.761,2.8194 2.1167,2.46944 1.7639,2.8194 2.1138,3.175 1.7639,2.8194 1.4083,2.8194 3.175,6.34718 2.8194,5.9944 2.8194,6.6971 2.1167,6.7 2.1167,7.0499 1.761,7.0527 1.4111,7.4027 1.4111,7.4055 1.0556,7.4027 0.3527,3.525 0.3528,3.8777 0.7056,7.7583 0.3527,7.7555 0,7.7554 0,12.3416 -0.3527,5.6416 -0.3528,5.6388 -0.7056,10.5777 -1.4083,10.2249 -0.7055,4.5833 -0.7056,4.5833 -2.1166,8.461 -1.0555,4.2305 -1.0584,3.8778 -1.4111,3.5278 -1.0583,3.5249 -1.4083,3.525 -1.7639,3.1721 -3.1722,6.3472 -3.175,6.3472 -3.8777,5.6388 -3.8777,5.6416 -4.2306,5.2889 -4.5832,5.2888 -4.9361,4.5833 -4.9361,4.5833 -4.936,3.8777 -5.2889,3.8778 -5.2888,3.175 -5.2861,2.8194 -2.4694,1.4111 -2.8194,1.0583 -5.6416,2.1138 -5.6416,1.7639 -7.4027,2.1139 -7.4055,1.7639 -7.4027,1.4111 -7.0528,1.0555 -7.0499,1.0583 -6.6999,0.7056 -6.3444,0.3528 -6.3472,0 -139.6153,0 0,-155.1291 0,-154.77634 z m 93.7824,70.16044 0,169.2317 22.9165,0 7.0499,0 6.7,-0.3527 5.9944,-0.7056 5.6416,-0.7056 4.9332,-1.0555 4.5833,-1.0583 3.8806,-1.4111 1.761,-0.7056 1.4111,-0.7055 1.7639,-0.7028 1.4083,-1.0583 2.8222,-2.1167 2.8194,-2.4666 2.4695,-2.8222 2.4666,-3.1722 2.1167,-3.1722 2.1138,-3.8777 1.7639,-3.8805 1.4083,-4.5833 1.7639,-4.9333 1.0583,-5.6416 1.0584,-6.7 0.7027,-7.0499 0.3528,-3.5277 0.3527,-3.8778 0.3528,-8.461 0,-9.1666 0,-5.9944 -0.3528,-5.6388 -0.7055,-10.9304 -0.7027,-4.9361 -0.3528,-4.9361 -1.0584,-4.5833 -0.7055,-4.2305 -1.0583,-4.2305 -1.4083,-3.8777 -1.0584,-3.5278 -1.4111,-3.525 -1.0583,-1.4111 -0.7056,-1.4083 -1.4083,-3.175 -2.1166,-2.4666 -0.7056,-1.4111 -1.0555,-1.0555 -2.1167,-2.1167 -2.1138,-2.1166 -2.4694,-1.7611 -2.4667,-1.7639 -2.8222,-1.7611 -2.8194,-1.4111 -2.8222,-1.4111 -3.525,-1.4111 -3.1721,-1.0555 -3.525,-0.7056 -3.5278,-0.7055 -3.8777,-0.7056 -4.2305,-0.7055 -4.2305,-0.3528 -4.2305,0 -4.5833,0 -23.2693,0 z"
         id="path5371"
         inkscape:connector-curvature="0" />
      <path
         style="fill:#003270;fill-opacity:1;fill-rule:evenodd;stroke:none"
         d="m 726.83745,566.14326 251.364,0 0,65.92994 -157.2316,0 0,49.3607 145.604,0 0,63.4604 -145.604,0 0,60.9939 161.8318,0 0,70.1605 -255.9642,0 0,-155.1291 0,-154.77634 z"
         id="path5373"
         inkscape:connector-curvature="0" />
      <path
         style="fill:#003270;fill-opacity:1;fill-rule:evenodd;stroke:none"
         d="m 1033.2065,566.14326 93.7825,0 0,233.75054 146.6708,0 0,76.1549 -240.4533,0 0,-155.1291 0,-154.77634 z"
         id="path5375"
         inkscape:connector-curvature="0" />
      <path
         style="fill:#003270;fill-opacity:1;fill-rule:evenodd;stroke:none"
         d="m 1458.4026,566.14326 87.7993,0 113.8767,170.99564 0,-170.99564 88.4767,0 0,154.77634 0,155.1291 -88.4767,0 -113.538,-170.2901 0,170.2901 -88.138,0 0,-155.1291 0,-154.77634 z"
         id="path5377"
         inkscape:connector-curvature="0" />
      <path
         style="fill:#003270;fill-opacity:1;fill-rule:evenodd;stroke:none"
         d="m 1798.6215,721.2723 0.7055,-18.3331 1.0724,-9.1666 1.0442,-8.461 1.4111,-8.1083 1.778,-8.111 4.572,-15.511 2.8223,-7.0527 2.8222,-7.0499 7.3942,-13.04431 3.8947,-6.34718 4.2333,-5.9944 9.8496,-10.92764 10.9502,-9.87214 5.6444,-4.58329 6.3218,-4.23051 12.7,-7.05273 14.1111,-5.9944 14.8167,-4.58329 15.8609,-3.52495 16.9051,-1.76389 18.3444,-0.70274 18.3445,0.70274 8.8053,0.70555 8.4667,1.05834 8.0997,1.41111 8.0998,1.76106 15.1836,4.58329 7.0273,2.82222 7.0557,3.17218 13.0385,7.05274 6.0114,4.23051 5.6444,4.23051 10.922,9.87213 4.939,5.28885 4.572,5.28602 8.4667,11.9888 7.0555,13.04432 3.1608,7.0499 2.4836,7.0527 4.5721,15.161 1.7779,7.7555 1.4111,8.1082 2.1166,17.2777 0.7056,18.3331 -0.3669,13.0443 -1.0442,12.6916 -1.4111,11.9888 -0.7056,5.9915 -1.0724,5.6417 -2.4554,10.9304 -3.1891,10.2249 -3.5277,9.5166 -4.2334,8.8166 -4.9106,8.461 -5.3058,8.1083 -5.6445,7.4027 -5.9831,7.0527 -7.0555,6.6971 -7.0556,5.9944 -7.7611,5.2889 -8.0998,5.2888 -8.8053,4.5833 -9.1722,3.8777 -4.9389,1.7639 -4.9389,1.4083 -10.2165,2.8222 -10.922,2.1139 -11.2888,1.4111 -11.9945,1.0583 -12.3331,0.3528 -12.6999,-0.3528 -11.9944,-0.7055 -11.2607,-1.4111 -10.9503,-1.7611 -10.5551,-2.4695 -9.5392,-2.8194 -9.5108,-3.5249 -8.4667,-3.8806 -8.4667,-4.2305 -7.7329,-5.2888 -7.4224,-5.6388 -7.0556,-6.3472 -6.6886,-6.7 -5.9831,-7.7554 -11.2889,-16.9221 -4.9389,-9.1665 -4.2334,-9.8722 -3.5277,-10.5777 -3.1609,-10.9304 -2.1167,-11.6332 -1.7779,-11.986 -1.0442,-12.6944 -0.3669,-13.3971 z m 93.7824,0 0.3669,11.6361 0.7056,10.2221 1.411,9.8721 2.1167,8.8138 2.1166,8.1111 3.1609,7.0499 3.5278,6.3471 3.8664,5.6417 4.6003,4.5833 4.9389,4.2305 4.9388,3.5249 5.6445,2.8194 5.9831,2.4695 6.6887,1.4111 6.7169,1.0555 7.0273,0.3528 7.4224,-0.3528 7.0556,-1.0555 6.35,-1.4111 6.3218,-2.1167 5.6444,-2.8194 4.9389,-3.525 4.9389,-4.2305 4.2333,-4.5833 3.8665,-5.6416 3.5277,-6.3472 2.8223,-7.7554 2.4835,-8.461 1.7498,-9.5194 1.4111,-10.2249 0.7056,-11.636 0.3669,-12.6916 -0.3669,-10.5777 -1.0443,-9.5193 -1.0724,-9.1666 -2.1167,-8.461 -2.4553,-7.7555 -2.8222,-6.6999 -3.5278,-6.3444 -2.1167,-2.4694 -2.1166,-2.8194 -4.572,-4.5833 -4.6003,-4.2305 -5.2775,-3.5278 -6.0113,-2.8194 -5.9832,-2.1167 -6.35,-1.761 -7.0555,-0.7056 -7.0556,-0.3528 -7.0273,0.3528 -6.35,1.0583 -6.35,1.4083 -5.9831,2.1167 -5.6445,3.1722 -4.9388,3.5277 -4.9389,3.8778 -4.6003,4.936 -3.8664,5.6388 -3.5278,6.3472 -2.8222,7.0528 -2.4553,8.1082 -2.1167,8.8138 -1.4111,9.8721 -0.7056,10.5777 -0.3669,11.2804 z"
         id="path5379"
         inkscape:connector-curvature="0" />
      <path
         style="fill:#003270;fill-opacity:1;fill-rule:evenodd;stroke:none"
         d="m 2164.9459,876.0487 0,-155.1291 0,-154.77634 156.5486,0 20.4329,0.35277 17.9776,1.41111 15.1554,2.46945 13.0669,3.17218 10.9219,4.58329 4.9389,3.17217 4.572,3.175 8.8335,7.75547 3.8665,4.58329 3.8664,4.93607 3.1891,5.28884 2.8222,5.6388 2.4554,5.9944 2.1166,5.9944 1.4112,6.6971 1.0724,6.7 0.7056,6.6999 0.3386,7.4027 -0.7055,12.3388 -2.1167,11.636 -3.1609,10.9277 -4.9389,9.8721 -6.0113,8.8138 -6.6887,8.1111 -8.0998,7.0499 -8.8335,6.3471 -6.6887,3.525 -7.761,3.1722 -8.8053,2.8222 -9.8778,2.8194 7.761,2.8222 6.6887,2.8194 5.6444,2.8194 4.2334,2.8222 6.3501,5.9916 8.8053,10.2249 8.1279,11.2833 4.9389,8.1082 45.833,89.552 -106.1438,0 -50.4049,-94.488 -4.572,-8.4611 -4.2333,-6.6999 -4.2334,-5.286 -3.8946,-3.5278 -5.2776,-3.1722 -2.8222,-1.0583 -2.8222,-1.0584 -5.6445,-1.4083 -6.35,-0.3527 -8.4666,0 0,125.5127 -94.1212,0 z m 94.1212,-184.04 39.8496,0 9.511,-1.0555 15.1836,-3.175 4.572,-1.4083 4.2333,-2.1166 3.5278,-2.8194 3.1609,-3.5278 2.4835,-3.8778 1.7498,-4.5832 1.0725,-4.5833 0.7055,-4.9361 -0.7055,-7.0499 -1.778,-6.3472 -2.8223,-5.2888 -2.1167,-2.4667 -2.1166,-2.1166 -2.4553,-1.7611 -3.1891,-1.7639 -7.7329,-2.4666 -9.8778,-1.4111 -11.6276,-0.3528 -41.6277,0 0,63.1077 z"
         id="path5381"
         inkscape:connector-curvature="0" />
      <path
         style="fill:#003270;fill-opacity:1;fill-rule:evenodd;stroke:none"
         d="m 2469.5483,566.14326 142.8044,0 142.7763,0 0,76.50764 -95.8992,0 0,233.3978 -93.7824,0 0,-233.3978 -95.8991,0 0,-76.50764 z"
         id="path5383"
         inkscape:connector-curvature="0" />
      <path
         style="fill:#003270;fill-opacity:1;fill-rule:evenodd;stroke:none"
         d="m 2797.0955,566.14326 251.3753,0 0,65.92994 -157.2543,0 0,49.3607 145.6267,0 0,63.4604 -145.6267,0 0,60.9939 161.8263,0 0,70.1605 -255.9473,0 0,-155.1291 0,-154.77634 z"
         id="path5385"
         inkscape:connector-curvature="0" />
      <path
         style="fill:#003270;fill-opacity:1;fill-rule:evenodd;stroke:none"
         d="m 599.56085,358.83692 82.4992,25.38589 -2.1139,8.8138 -2.8222,8.10825 -2.8194,7.75546 -2.8222,7.75829 -1.7611,3.52496 -1.7639,3.52495 -1.761,3.52496 -2.1167,3.52778 -1.7639,3.17217 -2.1138,3.17218 -2.1167,3.17218 -2.1138,2.82222 -4.5833,5.9944 -4.9361,5.28602 -2.4694,2.46945 -2.8194,2.46662 -5.2889,4.58329 -5.6416,4.23333 -2.8194,2.11385 -3.1722,1.76389 -3.175,2.11384 -2.8194,1.76389 -3.5249,1.41111 -3.175,1.76107 -6.6972,2.82222 -7.4055,2.46662 -3.8777,1.05833 -3.8778,0.70556 -3.8777,1.05551 -4.2305,0.70556 -4.2305,0.70555 -4.5833,0.70556 -8.8138,1.05833 -4.9361,0.35278 -4.5833,0 -10.2249,0.35278 -5.9944,0 -5.9944,-0.35278 -5.9915,-0.35278 -5.6417,-0.35278 -5.6416,-0.35277 -5.2888,-0.70556 -5.2889,-0.70556 -5.2888,-1.05833 -9.5194,-2.11384 -4.9332,-1.05834 -4.5833,-1.41111 -4.2333,-1.40829 -4.2306,-1.41111 -4.2305,-1.76389 -4.2305,-1.76106 -3.8777,-1.76389 -3.525,-2.11385 -3.8777,-2.46944 -3.8806,-2.46662 -1.761,-1.05834 -1.7639,-1.41111 -3.525,-2.8194 -3.5249,-2.82222 -3.5278,-3.17218 -3.1722,-3.52495 -3.1722,-3.52496 -3.5249,-3.52778 -2.8222,-3.87773 -3.1722,-3.87773 -3.1722,-4.23051 -2.8222,-4.58329 -2.8194,-4.23051 -2.8222,-4.93607 -2.8194,-4.93607 -2.1167,-4.93606 -2.4666,-4.93607 -2.1167,-5.64162 -1.7611,-5.28885 -1.7638,-5.6388 -1.4112,-5.9944 -1.4082,-5.9944 -1.0584,-5.9944 -1.0583,-6.34435 -0.7056,-6.69996 -0.7027,-6.69713 -0.3528,-6.69996 -0.3528,-7.04991 0,-7.05273 0,-9.51936 0.7056,-9.16658 0.35,-4.23051 0.3527,-4.58329 1.0584,-8.8138 1.4111,-8.10824 0.7055,-4.23051 1.0555,-3.88056 2.1167,-7.75546 1.0583,-3.87774 1.0584,-3.87773 1.4083,-3.52496 1.4111,-3.52777 2.8194,-7.04991 3.5278,-6.69996 3.5249,-6.34436 3.8777,-6.34717 2.1167,-2.8194 2.1139,-2.82223 2.1166,-2.8194 2.4666,-2.82222 2.4695,-2.8194 2.4666,-2.46662 4.9361,-4.93607 5.6416,-4.58329 2.8194,-2.46944 2.8222,-2.11384 5.9916,-3.88056 2.8222,-2.11384 3.1722,-1.76389 6.3472,-3.17218 6.6971,-3.17218 7.0527,-2.82222 3.525,-1.05833 3.8777,-1.40829 7.4027,-2.11667 7.7583,-1.76107 3.8777,-0.70555 4.2306,-0.70556 8.1082,-1.05833 4.2305,-0.35278 4.2333,-0.35278 8.8138,-0.70555 9.1666,0 7.0499,0 6.7,0.35278 6.6971,0.35277 6.7,0.70556 6.3443,0.70555 3.175,0.70556 2.8194,0.35278 5.9944,1.40829 5.6417,1.41111 5.6388,1.41111 5.2888,1.76107 5.2888,2.11666 4.9361,2.11667 4.9361,2.11384 4.5833,2.46945 4.2305,2.8194 4.2305,2.8194 3.8777,3.175 3.8806,3.17218 3.8777,3.52495 3.8777,3.52496 3.525,3.88055 3.175,4.23051 3.1722,4.23051 3.1722,4.23052 3.1721,4.58328 2.8223,4.93607 2.4666,4.93607 2.8222,5.28884 2.4666,5.6388 2.1167,5.64162 2.4666,5.64163 1.7639,5.9944 -82.4992,19.03871 -2.4694,-6.69996 -1.0584,-2.8194 -1.0555,-2.82222 -2.1167,-4.58329 -2.4666,-3.87773 -2.1166,-2.46662 -2.1167,-2.46945 -2.1139,-2.46662 -2.4694,-2.11667 -2.4666,-2.11384 -2.4695,-1.76389 -2.8194,-1.76389 -2.8194,-1.76107 -2.8222,-1.05833 -3.1722,-1.41111 -2.8194,-1.05551 -3.175,-0.70556 -3.1721,-0.70555 -3.525,-0.35278 -3.175,-0.35278 -3.525,0 -4.2305,0 -3.5249,0.35278 -3.8778,0.35278 -3.5277,0.70555 -3.525,1.05551 -3.1722,1.05834 -3.5249,1.41111 -2.8222,1.41111 -3.1722,1.76107 -2.8222,2.11666 -2.8194,2.11385 -2.8194,2.11666 -2.4695,2.8194 -1.0583,1.41111 -1.4083,1.41112 -2.1167,2.8194 -2.1138,3.17217 -1.7639,2.46945 -1.4111,2.8194 -1.4083,2.82222 -1.0583,2.8194 -2.4695,6.69996 -0.7027,3.52495 -1.0584,3.87773 -1.4111,7.75547 -0.3527,4.23051 -0.7056,4.58329 -0.3528,9.16658 -0.3528,4.93607 0,5.28884 0,6.34718 0.3528,5.9944 0.7056,11.28042 0.3528,5.28884 0.7055,4.93607 0.7056,4.93607 1.0583,4.58329 1.0555,4.23051 1.0583,3.87773 1.4112,3.87773 1.4111,3.52778 1.4083,3.17218 1.4111,3.17218 1.7639,2.82222 2.1138,2.46662 1.7639,2.11667 2.1138,2.11384 2.1167,2.11667 2.4666,1.76107 2.1167,1.76389 2.4666,1.76388 2.4695,1.40829 2.8194,1.05834 2.8222,1.41111 2.8194,0.70555 2.8194,1.05551 3.175,0.35278 3.1722,0.70556 3.1721,0.35278 3.175,0.35277 3.525,0 6.6971,-0.35277 5.9944,-0.70556 2.8222,-0.35278 2.8194,-0.70555 2.8194,-1.05551 2.4695,-0.70556 2.4666,-1.05833 2.4695,-1.05834 2.4666,-1.40829 2.1166,-1.41111 2.1139,-1.41111 1.7639,-1.76106 2.1138,-1.76389 1.7639,-1.76389 3.1722,-3.87774 1.7639,-2.46662 1.4111,-2.11666 2.8194,-4.93607 2.4694,-5.28885 2.4667,-5.99157 1.0583,-3.175 1.0583,-3.17218 2.1139,-6.69996 1.4111,-7.04991 z"
         id="path5387"
         inkscape:connector-curvature="0" />
      <path
         style="fill:#003270;fill-opacity:1;fill-rule:evenodd;stroke:none"
         d="m 728.24565,485.76072 0,-155.12909 0,-155.12909 156.5402,0 20.447,0.70556 17.6248,1.41111 15.5222,2.46662 12.7,3.175 10.922,4.58329 5.2776,2.8194 4.6002,3.52496 8.8054,7.75829 3.8664,4.58329 3.5278,4.93606 3.5278,5.28602 2.8222,5.64163 2.4835,5.9944 1.7498,5.9944 1.74975,6.34435 1.0724,7.05274 0.7056,6.69713 0,7.40551 -0.7056,12.33876 -1.77795,11.63602 -3.4995,10.92764 -4.6002,9.51936 -5.9832,9.16658 -7.0555,8.11106 -7.7611,7.04991 -8.8054,6.34718 -6.7168,3.52496 -7.7329,3.17217 -8.8336,2.82223 -9.8495,2.8194 7.7328,2.8194 6.7169,2.82222 5.6445,2.8194 4.2051,2.82222 6.35,5.99158 8.8335,10.22491 8.0998,11.28324 4.9389,8.10825 45.46595,89.55193 -106.11545,0 -50.0578,-94.488 -4.5833,-8.46102 -4.5833,-6.69996 -3.8805,-5.28884 -3.8778,-3.52496 -5.2888,-3.17217 -2.8194,-1.05834 -2.8194,-1.05833 -5.9944,-1.40829 -5.9944,-0.35278 -8.461,0 0,125.51269 -94.1353,0 z m 94.1353,-184.03993 39.4885,0 9.5165,-1.05833 15.5138,-3.17218 4.5833,-1.41111 3.8777,-2.11385 3.5278,-2.8194 3.1722,-3.52778 2.8194,-3.87773 1.7639,-4.58329 1.0583,-4.58329 0.3528,-4.93606 -0.3528,-7.04991 -1.7639,-6.34718 -3.1722,-5.28885 -1.7639,-2.46662 -2.1138,-2.11667 -2.8222,-1.76106 -2.8194,-1.76389 -7.7583,-2.46945 -9.8693,-1.40828 -11.9888,-0.35278 -41.2496,0 0,63.10771 z"
         id="path5389"
         inkscape:connector-curvature="0" />
      <path
         style="fill:#003270;fill-opacity:1;fill-rule:evenodd;stroke:none"
         d="m 1249.3324,175.50254 93.7824,0 0,184.74549 -0.7055,13.74987 -1.4111,13.04431 -2.8223,12.69153 -3.5277,12.34158 -2.1167,5.99158 -2.8222,5.9944 -5.9831,10.93047 -7.0556,10.22209 -8.4667,9.51935 -4.2333,4.58329 -4.572,3.88056 -9.5109,7.40268 -9.5391,5.64163 -4.572,2.46662 -4.9389,1.76389 -14.4498,4.58329 -7.7611,1.76106 -8.0998,1.41111 -16.9334,2.11667 -18.6831,0.70556 -22.9164,-1.05834 -12.3331,-0.70555 -13.0387,-1.41111 -12.3613,-2.11385 -11.6276,-2.82222 -10.5832,-3.52496 -9.144,-4.23051 -8.8336,-5.28884 -3.8664,-2.8194 -4.2334,-3.175 -7.7611,-7.40269 -7.7611,-8.10824 -6.6888,-8.8138 -5.2775,-8.8138 -4.6002,-8.81663 -3.1608,-9.16657 -3.8947,-14.45543 -2.8222,-13.39709 -1.4111,-12.69153 -0.7056,-11.98598 0,-184.74549 93.7825,0 0,189.32878 1.0724,11.98598 2.4553,10.57769 1.778,4.58329 2.4554,4.58329 6.0113,7.75546 3.4996,3.52496 3.8946,2.82222 9.1723,4.23051 10.2164,2.8194 5.2776,0.70556 6.0113,0.35278 11.6275,-1.05834 9.8778,-2.46662 4.572,-2.11667 4.2334,-2.46662 4.2333,-2.82222 3.5278,-3.17218 5.9831,-7.75547 2.4835,-4.58328 1.7498,-4.58329 1.4111,-5.28885 1.0725,-5.64162 0.7055,-5.9944 0.3387,-5.99158 0,-189.32878 z"
         id="path5391"
         inkscape:connector-curvature="0" />
      <path
         style="fill:#003270;fill-opacity:1;fill-rule:evenodd;stroke:none"
         d="m 1397.4144,175.50254 265.1195,0 0,62.0522 -170.2928,181.57049 176.6428,0 0,66.63549 -144.1873,0 -143.8487,0 0,-64.51882 168.5149,-179.45664 -151.9484,0 0,-66.28272 z"
         id="path5393"
         inkscape:connector-curvature="0" />
      <path
         style="fill:#003270;fill-opacity:1;fill-rule:evenodd;stroke:none"
         d="m 388.02115,85.953435 0,-229.520325 46.5385,0 0,229.520325 -46.5385,0 z"
         id="path5395"
         inkscape:connector-curvature="0" />
      <path
         style="fill:#003270;fill-opacity:1;fill-rule:evenodd;stroke:none"
         d="m 466.28985,11.562485 45.4829,-4.2333403 1.0555,5.2888503 1.4112,5.28884 1.7638,4.58329 0.7056,2.11667 1.0555,2.46662 2.1167,3.87773 2.4666,3.52778 2.8222,3.17218 2.8194,2.8194 3.525,2.46944 3.5278,2.11385 3.5249,2.11667 4.2305,1.41111 4.2305,1.05551 2.4695,0.35278 2.1138,0.35277 4.9361,0.70556 4.9361,0 5.6416,0 4.936,-0.35278 4.9361,-0.70555 2.1139,-0.70556 2.1166,-0.34996 2.1139,-0.70555 1.7639,-0.70556 3.8777,-1.76389 3.1722,-1.76106 3.175,-2.11667 2.4666,-2.46662 2.4694,-2.46945 2.1139,-2.8194 0.7055,-1.41111 0.7056,-1.41111 1.4111,-2.8194 0.7027,-2.8194 0.7056,-2.82222 0,-3.17218 0,-2.11666 -0.3528,-1.76107 -0.3528,-2.11667 -0.3499,-1.76389 -0.7056,-1.40829 -1.0583,-1.7638803 -0.7056,-1.41112 -1.0583,-1.76106 -1.4083,-1.41111 -1.4111,-1.05834 -1.7639,-1.40829 -2.1138,-1.41110998 -4.5833,-2.46662002 -2.4695,-1.05833 -3.1721,-1.05834 -5.2889,-1.76388 -7.7555,-2.11385 -23.622,-5.9943997 -9.1665,-2.46662 -8.1083,-2.46945 -7.7583,-2.8194 -6.6971,-2.82222 -6.3472,-2.8194 -2.8194,-1.41111 -2.4694,-1.40829 -4.9361,-3.52778 -2.1138,-1.40828 -1.7639,-1.76389 -2.4666,-2.46663 -2.4695,-2.46944 -2.4666,-2.46662 -1.7639,-2.46945 -2.1167,-2.8194 -1.761,-2.82222 -1.4111,-2.8194 -1.4112,-2.8194 -1.4082,-2.82222 -1.0584,-3.17218 -0.7055,-2.82222 -0.7056,-3.17218 -0.7055,-3.17218 -0.35,-3.175 -0.3528,-3.52495 0,-3.17218 0,-4.58329 0.7028,-4.23107 0.7055,-4.2308 1.0583,-4.230795 1.4112,-3.87802 1.761,-4.23079 2.1167,-3.8783 2.1138,-3.8783 1.4111,-1.76276 1.4112,-1.76276 1.4111,-1.76276 1.4083,-1.76304 1.4111,-1.76276 1.7639,-1.41026 1.4082,-1.76276 1.7639,-1.41027 3.8778,-2.82053 3.8777,-2.46803 4.2305,-2.46775 4.5833,-2.11554 4.9361,-1.76276 4.936,-1.76276 5.2889,-1.41026 5.6416,-1.05777 5.6416,-1.05777 5.9916,-0.3525 6.3472,-0.35249 6.3472,-0.3525 5.2888,0 5.286,0.3525 4.9361,0.35249 4.5833,0.70528 4.5833,0.70499 4.5833,0.70527 4.2305,1.05749 4.2333,1.05777 3.8777,1.05777 3.8778,1.41026 3.5249,1.76276 3.525,1.76276 3.5278,1.76276 3.1721,2.11554 2.8194,2.11525 2.8223,2.46804 2.4666,2.46803 2.8222,2.46775 2.1138,2.46804 2.1167,2.82052 2.1139,2.82053 1.7638,2.82053 1.7611,3.17303 1.4111,3.17302 0.7056,1.76304 0.7055,1.41027 1.0584,3.525525 1.0555,3.17302 1.0583,3.5258 0.7056,3.87774 0.3527,3.52495 0.3528,3.88056 0.3528,4.23051 -46.5384,1.40829 -0.7056,-4.23051 -1.0583,-3.87774 -1.4111,-3.87773 -1.4083,-3.17331 -1.0584,-1.76276 -0.7055,-1.41026 -1.7611,-2.82053 -2.1167,-2.11554 -1.4111,-1.410265 -1.0555,-0.70499 -2.4694,-2.11554 -2.8194,-1.41026 -1.7639,-0.705 -1.7639,-0.70527 -1.4083,-0.70499 -1.7639,-0.3525 -3.8777,-0.70527 -4.2305,-0.70499 -4.2305,-0.35278 -4.9361,-0.35249 -4.5833,0.35249 -4.9361,0.35278 -4.2305,0.70499 -3.8777,0.70527 -3.8806,1.41027 -3.5249,1.41026 -3.1722,1.76276 -3.1722,1.76276 -1.7639,1.410275 -1.4111,1.41026 -1.0583,1.76276 -1.0555,1.76276 -1.0583,1.76304 -0.3528,2.11526 -0.3528,2.11526 0,2.11666 0,1.76107 0.3528,2.11667 0.3528,1.76106 0.3527,1.05834 0.3528,0.70555 1.0583,1.76389 1.4083,1.76107 1.4111,1.41111 1.4112,1.41111 2.4666,2.11384 3.5249,1.76389 4.2305,1.76107 4.9361,2.11667 5.6416,1.76388 6.3472,2.11385 7.4027,1.76389 8.1082,2.11384 8.1111,2.11667 7.4027,2.11384 7.0527,1.76389 6.6972,2.11667 5.9944,2.11384 5.2888,2.11667 4.9361,2.11384 4.2305,2.11667 3.8777,2.11385 3.8778,2.46944 3.5249,2.8194 3.175,2.82222 3.1722,2.8194 2.8194,3.17218 2.4694,3.52778 2.4667,3.52495 1.0583,2.11385 1.0583,1.76389 1.0584,2.11384 0.7027,2.1166697 1.7639,4.23051 1.0583,4.23051002 1.0583,4.58328998 0.7056,4.93607 0.7027,5.2888403 0,5.28884 -0.3527,4.93607 -0.35,4.93607 -0.7056,4.58329 -0.7055,2.46662 -0.7056,2.11667 -1.4111,4.58328 -2.1138,4.58329 -2.1167,4.58329 -2.4666,4.23051 -1.4111,2.11385 -1.4111,2.11666 -1.7611,1.76389 -1.4111,2.11385 -3.525,3.52495 -3.8777,3.52778 -3.8806,2.8194 -4.2305,2.8194 -2.4666,1.41111 -2.1167,1.05834 -4.936,2.46662 -5.2889,1.76389 -5.286,1.76389 -5.9944,1.40828 -5.9944,1.05834 -6.3443,1.05833 -6.7,0.70556 -7.0499,0.35277 -7.4055,0 -5.2889,0 -5.2888,-0.35277 -4.9361,-0.35278 -4.9332,-0.35278 -4.5861,-0.70555 -4.5833,-1.05834 -2.4666,-0.35278 -2.1167,-0.70555 -4.2305,-1.05551 -4.2305,-1.41111 -3.8778,-1.41111 -3.8777,-1.76107 -3.525,-1.76389 -3.5277,-1.76389 -3.1722,-2.11384 -3.1722,-2.46945 -2.8222,-2.46662 -3.1722,-2.46662 -2.4666,-2.82222 -1.4111,-1.41112 -1.0584,-1.40828 -2.4666,-2.82223 -2.4694,-3.17217 -2.1139,-3.52496 -1.7639,-3.175 -1.7638,-3.87773 -1.7611,-3.52496 -1.4111,-3.87773 -1.4111,-3.87774 -1.4083,-4.23051 -1.0584,-4.23051 -0.7055,-4.58329 -1.0583,-4.58611 -0.7056,-4.93324 z"
         id="path5397"
         inkscape:connector-curvature="0" />
      <path
         style="fill:#003270;fill-opacity:1;fill-rule:evenodd;stroke:none"
         d="m 899.24135,85.953435 -50.0663,0 -20.0942,-52.18006 -92.0214,0 -19.0387,52.18006 -49.3578,0 89.1991,-229.520325 49.3579,0 92.0214,229.520325 z m -84.9687,-90.9630403 -32.083,-84.9686497 -31.0275,84.9686497 63.1105,0 z"
         id="path5399"
         inkscape:connector-curvature="0" />
      <path
         style="fill:#003270;fill-opacity:1;fill-rule:evenodd;stroke:none"
         d="m 923.93015,85.953435 0,-229.520325 74.3937,0 34.88275,0.70499 11.9945,1.05777 8.4666,1.76276 9.1722,3.17302 4.572,2.46803 4.2334,2.46804 2.1166,1.41026 1.7498,1.76276 3.8947,3.17303 7.0555,8.10909 5.9832,9.16658 2.1166,4.93578 1.7498,5.641065 1.778,5.64106 1.0441,5.99496 0.3669,6.34436 0.3387,6.69995 -0.3387,10.22491 -1.7779,9.51654 -2.1167,8.46384 -3.4995,7.40269 -3.8947,7.05273 -4.572,5.99158 -5.3058,5.28884 -5.6445,4.58329 -5.983,3.52496 -5.9831,3.1749997 -6.0114,2.46662 -5.9831,1.41111 -20.4611,2.46662 -12.6718,0.70556002 -14.8166,0.35278 -30.31075,0 0,86.37975028 -46.5384,0 z m 46.5384,-190.738475 0,65.575745 25.3718,0 12.69995,-0.34996 10.2164,-0.70555 7.7611,-1.05833 5.9832,-1.76389 4.2333,-1.76107 3.8947,-2.82222 3.1608,-2.8194 3.1609,-3.87774 2.1167,-3.87773 1.778,-4.23333 0.7056,-4.93325 0.3386,-4.93606 -0.3386,-5.9944 -1.4112,-5.28885 -2.1166,-4.93606 -3.1609,-4.23052 -4.2333,-3.87829 -4.2334,-2.82053 -4.9389,-2.115265 -5.3057,-1.41026 -5.2776,-0.70528 -7.0556,-0.70499 -20.79965,-0.35277 -22.5496,0 z"
         id="path5401"
         inkscape:connector-curvature="0" />
      <path
         style="fill:#003270;fill-opacity:1;fill-rule:evenodd;stroke:none"
         d="m 1137.5724,85.953435 0,-229.520325 97.6489,0 17.3002,0.35249 14.4498,1.05777 12.333,2.11526 9.511,2.82053 8.128,3.52552 7.0273,4.93606 6.35,5.99356 2.8222,3.52552 2.4836,3.87829 2.4553,3.8783 1.778,4.23079 1.7498,4.2308 1.4111,4.583295 2.1167,9.51879 0.3386,9.87213 0,6.34718 -0.6773,5.99158 -1.4111,5.64162 -1.4111,5.64162 -4.9389,9.87213 -3.1891,4.58329 -3.5278,4.58329 -3.8664,3.87774 -4.572,3.52495 -10.2447,6.34718 -12.3331,4.23051 -6.6887,1.76389 -7.4224,1.40829 13.7442,9.1665797 5.6444,4.93606 5.3058,5.28885 11.6276,14.4554203 14.8166,22.56367 27.8554,44.77737 -55.372,0 -33.1329,-50.06622 -15.1553,-21.85811 -9.5109,-11.6332003 -3.1891,-3.17499998 -3.5278,-2.81940002 -3.5278,-2.11667 -3.8664,-1.40829 -9.5109,-2.11666 -13.7725,-0.70556 -9.5109,0 0,95.8991103 -46.5384,0 z m 46.5383,-132.21264 34.2054,0 27.1497,-0.70556 8.8054,-1.05833 5.9831,-1.05551 3.8947,-1.76389 3.5277,-2.11667 2.8223,-2.8194 2.4553,-3.17217 2.1167,-3.52778 1.4111,-4.23051 1.0724,-4.58329 0.3387,-4.93607 -0.3387,-5.6388 -1.4111,-4.93607 -1.778,-4.23164 -2.8222,-3.87829 -3.1609,-3.17303 -4.2332,-2.820535 -4.6003,-1.76276 -5.2776,-1.41026 -11.2889,-0.3525 -22.5495,-0.35277 -36.3221,0 0,58.525835 z"
         id="path5403"
         inkscape:connector-curvature="0" />
      <path
         style="fill:#003270;fill-opacity:1;fill-rule:evenodd;stroke:none"
         d="m 1369.559,85.953435 0,-229.520325 169.926,0 0,38.78185 -123.3876,0 0,51.123145 114.5822,0 0,38.78016 -114.5822,0 0,62.0522 127.9878,0 0,38.78297 -174.5262,0 z"
         id="path5405"
         inkscape:connector-curvature="0" />
      <path
         style="fill:#003270;fill-opacity:1;fill-rule:evenodd;stroke:none"
         d="m 386.26005,985.342 40.1913,0 0,107.1796 0,11.636 0.3528,9.5193 0.3528,7.05 0.7055,4.936 0.7056,2.8222 1.0555,2.8194 1.0583,2.8194 1.4111,2.4695 1.7611,2.1138 1.7639,2.4695 2.1167,1.7639 2.1138,2.1138 2.4694,1.7639 2.8194,1.4083 2.8194,1.4111 3.175,1.0583 3.525,0.7056 3.525,0.3528 3.8777,0.3527 3.8805,0.3528 4.2306,-0.3528 3.8777,0 3.5249,-0.7055 1.4112,-0.3528 1.761,-0.3528 3.175,-1.0583 2.8194,-1.0583 2.4695,-1.4083 2.1138,-1.7639 2.1167,-1.7639 1.761,-1.7611 1.7639,-2.1166 1.4111,-2.1139 1.0556,-2.1166 1.0583,-2.4667 0.7055,-2.1166 0.3528,-2.4667 0.7056,-5.9944 0.3528,-3.5249 0.3527,-3.8777 0.3528,-9.5194 0,-10.9305 0,-109.2962 40.1913,0 0,104.0074 -0.3528,16.5721 -0.7056,13.7498 -0.3527,5.9916 -0.3528,5.2889 -0.7056,4.5833 -0.7027,4.2305 -1.0583,3.5277 -1.0584,3.525 -1.0583,3.1722 -1.4083,3.1722 -1.7639,3.175 -1.7639,2.8194 -1.761,2.8222 -2.1167,2.4666 -2.4666,2.4666 -2.4695,2.4695 -2.4666,2.1138 -2.8222,2.1167 -2.8194,1.7639 -3.1722,2.1138 -3.5278,1.4111 -3.5249,1.7611 -3.8778,1.4111 -3.8777,1.0583 -4.2305,1.0584 -4.5833,1.0583 -4.9361,0.35 -5.2888,0.7055 -5.2888,0.3528 -5.6417,0 -7.0499,-0.3528 -6.3472,0 -2.8194,-0.3528 -3.175,-0.3527 -5.6388,-0.7028 -4.936,-0.7055 -4.9361,-1.4111 -4.2305,-1.0584 -3.8806,-1.761 -3.5249,-1.7639 -3.1722,-1.7639 -3.1722,-1.7611 -3.175,-2.1167 -2.4666,-2.1138 -2.8222,-2.4694 -1.0555,-1.0584 -1.4111,-1.4083 -2.1167,-2.4694 -2.1138,-2.4666 -1.7639,-2.8223 -3.1722,-5.286 -1.4111,-2.8222 -1.0584,-2.8194 -0.7027,-2.8222 -1.0583,-2.8194 -0.7056,-4.5833 -0.7055,-4.9361 -0.7056,-5.6416 -0.7055,-5.9916 -0.35,-6.3472 0,-3.5249 -0.3528,-3.5278 0,-7.7555 -0.3528,-7.7554 0,-105.7713 z"
         id="path5407"
         inkscape:connector-curvature="0" />
      <path
         style="fill:#003270;fill-opacity:1;fill-rule:evenodd;stroke:none"
         d="m 585.81095,1182.7791 0,-197.4371 38.7802,0 81.0909,132.5655 0,-132.5655 37.0191,0 0,197.4371 -39.8385,0 -80.0326,-129.7432 0,129.7432 -37.0191,0 z"
         id="path5409"
         inkscape:connector-curvature="0" />
      <path
         style="fill:#003270;fill-opacity:1;fill-rule:evenodd;stroke:none"
         d="m 963.04615,1182.7791 -43.0107,0 -17.2692,-44.7746 -78.9742,0 -16.5721,44.7746 -42.3079,0 76.8604,-197.4371 42.3079,0 78.9658,197.4371 z m -72.9742,-78.2687 -27.4998,-72.9799 -26.7941,72.9799 54.2939,0 z"
         id="path5411"
         inkscape:connector-curvature="0" />
      <path
         style="fill:#003270;fill-opacity:1;fill-rule:evenodd;stroke:none"
         d="m 1051.8897,1182.7791 0,-197.4371 146.3322,0 0,33.4942 -106.4824,0 0,43.719 99.06,0 0,33.4941 -99.06,0 0,53.5884 110.3489,0 0,33.1414 -150.1987,0 z"
         id="path5413"
         inkscape:connector-curvature="0" />
      <path
         style="fill:#003270;fill-opacity:1;fill-rule:evenodd;stroke:none"
         d="m 1234.8825,1182.7791 0,-197.4371 59.944,0 35.5883,134.6821 34.9108,-134.6821 59.944,0 0,197.4371 -37.0275,0 0,-155.4819 -38.7774,155.4819 -38.4386,0 -38.7774,-155.4819 -0.3386,155.4819 -37.0276,0 z"
         id="path5415"
         inkscape:connector-curvature="0" />
      <path
         style="fill:#003270;fill-opacity:1;fill-rule:evenodd;stroke:none"
         d="m 1465.7968,1182.7791 0,-197.4371 63.8386,0 29.9438,0.7056 10.2446,1.0583 7.0557,1.4111 8.0997,2.8194 7.7612,4.2305 6.6887,5.2889 5.9831,7.0527 4.9389,7.7555 3.5277,9.1666 1.4111,4.936 0.7055,5.2889 0.7056,11.2804 -0.3387,8.4638 -1.0725,8.1083 -2.1166,7.4027 -2.8222,6.3472 -3.5277,5.9944 -3.8666,5.286 -4.572,4.5833 -4.9389,3.8805 -10.2446,5.6388 -10.2165,3.5278 -8.0997,1.4083 -9.5109,0.7055 -23.622,0.7056 -26.1056,0 0,74.391 -39.8498,0 z m 39.8498,-163.9429 0,56.4105 21.8721,0 19.3887,-1.0583 7.0556,-0.7027 4.9107,-1.4111 7.0556,-4.2305 2.8222,-2.4695 2.4836,-3.1722 3.5277,-7.0527 0.7056,-4.2305 0.3386,-4.2305 -0.3386,-4.9361 -1.4111,-4.9361 -1.778,-4.2305 -2.8222,-3.5249 -3.5278,-3.1722 -3.5278,-2.8222 -4.2333,-1.7611 -4.572,-1.0583 -10.922,-1.0584 -17.6389,-0.3527 -19.3887,0 z"
         id="path5417"
         inkscape:connector-curvature="0" />
      <path
         style="fill:#003270;fill-opacity:1;fill-rule:evenodd;stroke:none"
         d="m 1649.4953,1182.7791 0,-197.4371 83.9045,0 14.8167,0.3528 12.7,1.0583 10.2165,1.7639 8.4666,2.1139 6.6887,3.175 3.1891,2.1138 2.794,2.1167 2.8222,2.4666 2.4836,2.8222 2.4554,3.1722 2.4836,3.1722 3.5277,7.0527 2.8222,7.4027 1.7497,8.1083 0.3669,8.4638 -0.7055,10.5749 -2.4836,9.8721 -1.7498,4.5833 -2.4835,4.2305 -5.6445,7.4055 -3.5277,3.525 -3.4996,3.1721 -4.6002,2.8223 -4.572,2.4666 -10.5832,3.8777 -11.9945,2.4695 11.6276,8.1082 4.9389,4.2305 4.6001,4.2305 4.5721,5.2889 5.3058,7.4027 12.6717,19.3915 24.3276,38.4302 -47.9496,0 -28.5609,-43.0135 -13.0386,-18.686 -8.0998,-10.2249 -2.8222,-2.8194 -2.8222,-2.1138 -6.35,-3.175 -8.0998,-1.7611 -11.9945,-0.3528 -8.0997,0 0,82.1465 -39.8498,0 z m 39.8498,-113.8795 29.6051,0 23.2833,-0.35 7.3942,-1.0583 4.9389,-1.0584 3.5278,-1.4111 2.8222,-1.761 4.9389,-4.9361 1.7498,-3.175 1.4111,-3.525 0.7055,-3.8777 0.3387,-4.2305 -0.3387,-4.9361 -1.0724,-4.2305 -1.7498,-3.8777 -2.1166,-3.175 -3.1609,-2.8194 -3.5278,-2.1167 -3.8947,-1.761 -4.572,-1.0584 -9.8778,-0.7055 -19.3886,0 -31.0162,0 0,50.0634 z"
         id="path5419"
         inkscape:connector-curvature="0" />
      <path
         style="fill:#003270;fill-opacity:1;fill-rule:evenodd;stroke:none"
         d="m 1848.6876,1182.7791 0,-197.4371 146.3322,0 0,33.4942 -106.1437,0 0,43.719 98.7213,0 0,33.4941 -98.7213,0 0,53.5884 110.0102,0 0,33.1414 -150.1987,0 z"
         id="path5421"
         inkscape:connector-curvature="0" />
      <path
         style="fill:#003270;fill-opacity:1;fill-rule:evenodd;stroke:none"
         d="m 2021.8027,1118.9658 39.1443,-3.8777 2.1166,9.1665 1.4111,3.8778 1.7498,3.8777 3.8947,6.3472 2.4553,2.8194 2.4553,2.4666 5.6445,4.2333 7.0555,2.8194 7.3943,1.7639 8.8335,0.35 8.8054,-0.35 7.7611,-1.7639 6.6886,-2.4694 5.6445,-3.525 4.2333,-4.2305 3.1609,-4.5833 1.778,-4.936 0.3387,-5.2889 0,-3.1722 -0.7056,-3.1721 -1.4111,-2.8223 -1.7498,-2.8194 -2.4553,-2.1166 -3.1891,-2.4666 -3.8665,-2.1167 -4.9389,-1.7611 -11.2888,-3.5278 -20.4329,-4.9332 -14.8167,-4.2333 -12.3331,-4.9361 -5.3058,-2.4666 -4.572,-2.4666 -4.2333,-2.8223 -3.5278,-2.8194 -4.2333,-4.2305 -3.5277,-4.5833 -3.1609,-4.5833 -2.8222,-4.936 -3.1891,-10.2249 -1.0443,-5.6417 0,-5.6416 0.3386,-7.4027 1.778,-7.4055 2.4553,-6.6971 3.8947,-6.7 4.572,-6.3443 2.8222,-2.8222 2.8223,-2.4667 6.6886,-4.5833 7.7611,-3.8777 8.0998,-3.175 9.5391,-2.1138 9.8778,-1.4111 10.922,-0.3528 9.1722,0.3528 8.4386,0.7055 7.7611,1.4111 7.4224,1.7611 6.3218,2.1167 6.35,2.8194 10.5832,7.4055 4.2335,4.2305 3.8663,4.5833 3.1892,4.936 2.8222,5.2889 2.1167,5.6388 1.7498,5.9944 1.0724,6.3472 0.3386,6.6971 -39.8216,1.4111 -1.778,-7.0527 -2.1165,-5.9916 -1.4111,-2.4695 -1.7498,-2.4666 -3.8947,-3.8777 -4.572,-2.8222 -5.9831,-2.1139 -6.7169,-1.4111 -7.7611,-0.3528 -8.0998,0.3528 -7.3942,1.4111 -6.0113,2.1139 -5.6445,3.175 -2.4553,2.4666 -2.1167,3.1722 -1.0442,3.175 -0.3669,3.5249 0.3669,3.525 1.0442,3.1722 1.7498,2.8222 2.4836,2.4666 5.2775,3.175 7.7611,3.525 10.5834,3.1721 13.0386,3.525 13.7443,3.5278 11.6556,3.5249 9.511,3.525 8.0998,3.5249 6.35,4.2334 5.983,4.5833 4.939,5.286 4.6001,5.9944 3.1609,6.6999 2.4836,7.7555 1.4111,8.1082 0.7055,9.1666 -0.7055,8.1111 -1.778,8.1082 -2.8222,7.7555 -4.2334,7.7555 -2.4553,3.5277 -2.8222,3.1722 -2.8223,3.1722 -3.1608,2.8222 -7.0556,5.2889 -8.128,3.8777 -9.144,3.1722 -5.3058,1.4111 -4.9389,1.0583 -11.2606,1.0555 -12.3614,0.7056 -9.1722,-0.3528 -8.4384,-0.7055 -8.128,-1.4083 -7.3943,-2.1167 -7.0555,-2.1138 -6.35,-3.175 -5.9831,-3.525 -5.2776,-3.8777 -4.6002,-4.5833 -4.2332,-5.2889 -3.8666,-5.2888 -3.1891,-5.9944 -2.8222,-6.6971 -2.1167,-7.0528 -1.7498,-7.4027 -1.4111,-8.1082 z"
         id="path5423"
         inkscape:connector-curvature="0" />
      <path
         style="fill:#003270;fill-opacity:1;fill-rule:evenodd;stroke:none"
         d="m 2394.1104,1182.7791 -43.0107,0 -17.272,-44.7746 -78.9658,0 -16.5946,44.7746 -42.3051,0 76.8773,-197.4371 42.3051,0 78.9658,197.4371 z m -72.9827,-78.2687 -27.4884,-72.9799 -26.8111,72.9799 54.2995,0 z"
         id="path5425"
         inkscape:connector-curvature="0" />
      <path
         style="fill:#003270;fill-opacity:1;fill-rule:evenodd;stroke:none"
         d="m 2472.3706,1118.9658 39.1441,-3.8777 2.1167,9.1665 1.4111,3.8778 1.7498,3.8777 3.8947,6.3472 2.1166,2.8194 2.8222,2.4666 5.6445,4.2333 6.6887,2.8194 7.7611,1.7639 8.4666,0.35 9.144,-0.35 7.7611,-1.7639 6.7169,-2.4694 5.6163,-3.525 4.2333,-4.2305 2.8222,-4.5833 1.778,-4.936 0.7056,-5.2889 -0.3669,-3.1722 -0.7056,-3.1721 -1.0442,-2.8223 -1.778,-2.8194 -2.4553,-2.1166 -3.1891,-2.4666 -4.2052,-2.1167 -4.6002,-1.7611 -11.2889,-3.5278 -20.4329,-4.9332 -14.8166,-4.2333 -12.3331,-4.9361 -5.2776,-2.4666 -4.9389,-2.4666 -3.8946,-2.8223 -3.5278,-2.8194 -4.2334,-4.2305 -3.8664,-4.5833 -3.1609,-4.5833 -2.4835,-4.936 -3.1609,-10.2249 -1.0725,-5.6417 -0.3386,-5.6416 0.7055,-7.4027 1.4111,-7.4055 2.8222,-6.6971 3.8665,-6.7 4.572,-6.3443 2.8222,-2.8222 2.8222,-2.4667 6.7169,-4.5833 7.3942,-3.8777 8.4667,-3.175 9.1722,-2.1138 10.2165,-1.4111 10.922,-0.3528 9.1722,0.3528 8.0998,0.7055 8.128,1.4111 7.0273,1.7611 6.7169,2.1167 6.35,2.8194 10.2164,7.4055 4.572,4.2305 3.8947,4.5833 3.1609,4.936 2.8222,5.2889 2.1167,5.6388 1.778,5.9944 1.0442,6.3472 0.3669,6.6971 -39.8498,1.4111 -1.778,-7.0527 -2.4553,-5.9916 -1.4111,-2.4695 -1.4111,-2.4666 -3.8665,-3.8777 -4.9389,-2.8222 -5.6444,-2.1139 -6.6887,-1.4111 -7.7611,-0.3528 -8.128,0.3528 -7.3942,1.4111 -6.35,2.1139 -5.2776,3.175 -2.8222,2.4666 -1.778,3.1722 -1.4111,3.175 -0.3387,3.5249 0.3387,3.525 1.0724,3.1722 2.1167,2.8222 2.4553,2.4666 5.3058,3.175 7.7329,3.525 10.2447,3.1721 13.3773,3.525 13.4056,3.5278 11.6275,3.5249 9.8778,3.525 8.128,3.5249 6.3218,4.2334 6.0113,4.5833 4.9389,5.286 4.2333,5.9944 3.5278,6.6999 2.4553,7.7555 1.4112,8.1082 0.7055,9.1666 -0.7055,8.1111 -1.778,8.1082 -2.794,7.7555 -4.2334,7.7555 -2.4835,3.5277 -2.8223,3.1722 -2.8222,3.1722 -3.1609,2.8222 -7.3942,5.2889 -8.128,3.8777 -9.1722,3.1722 -4.9389,1.4111 -5.2776,1.0583 -11.2888,1.0555 -12.3332,0.7056 -8.8053,-0.3528 -8.8335,-0.7055 -7.7329,-1.4083 -7.7611,-2.1167 -6.7169,-2.1138 -6.3218,-3.175 -6.0113,-3.525 -5.2776,-3.8777 -4.6002,-4.5833 -4.2051,-5.2889 -3.8947,-5.2888 -3.1609,-5.9944 -2.8222,-6.6971 -2.1167,-7.0528 -1.778,-7.4027 -1.4111,-8.1082 z"
         id="path5427"
         inkscape:connector-curvature="0" />
      <path
         style="fill:#003270;fill-opacity:1;fill-rule:evenodd;stroke:none"
         d="m 2825.2894,1158.0987 7.7611,4.9361 7.7611,4.2305 8.0998,3.8806 8.4667,3.5249 -14.8167,28.5581 -8.8053,-3.5278 -8.8054,-4.2305 -26.4442,-17.2748 -9.8778,3.5249 -10.5833,2.8222 -10.922,1.4083 -11.6276,0.7056 -10.922,-0.7056 -10.5833,-1.0555 -9.8778,-2.1166 -9.1722,-2.8194 -8.8053,-3.8806 -7.7611,-4.5833 -7.3943,-5.6388 -6.7168,-6.3472 -5.9832,-7.0499 -5.2775,-7.7583 -4.6002,-8.1082 -3.5278,-9.1666 -2.8221,-9.8721 -2.1167,-10.5777 -0.7056,-5.2889 -0.3386,-5.6388 -0.3669,-11.9888 0.3669,-11.6332 1.0442,-11.2832 2.1167,-10.2249 2.8221,-9.8721 3.5278,-9.1666 4.6002,-8.461 5.2775,-7.4027 5.9832,-7.4055 6.7168,-5.9916 7.3943,-5.6416 7.7611,-4.5833 8.4666,-3.8778 9.144,-2.8222 9.5392,-2.1138 10.2164,-1.4111 10.922,-0.3528 10.5833,0.3528 10.2165,1.4111 9.5391,2.1138 9.144,2.8222 8.4667,3.8778 7.7611,4.5833 7.3942,5.6416 6.7169,5.9916 5.9831,7.0527 4.939,7.7555 4.572,8.461 3.5278,9.1666 2.8221,9.8721 2.1166,10.2249 1.0726,11.2832 0.7055,11.6332 -0.7055,12.3416 -1.4112,11.986 -2.1166,10.5777 -3.1891,10.2249 -3.1609,7.4027 -3.8664,7.0499 -4.6003,7.4055 -5.6444,7.0499 z m -32.0887,-22.5636 3.8947,-4.9361 3.1609,-4.9361 4.6002,-11.986 1.7498,-6.6999 1.0724,-7.0499 0.7056,-7.7583 0.3387,-8.1083 -0.3387,-8.1082 -0.7056,-7.7555 -1.0724,-7.4055 -1.7498,-6.6971 -4.6002,-11.636 -3.1609,-4.9361 -3.5278,-4.5833 -3.8664,-3.8777 -4.2334,-3.525 -4.6002,-2.8222 -4.572,-2.4666 -5.3058,-1.7639 -5.2775,-1.4083 -5.6445,-0.7056 -5.9831,-0.3527 -6.0113,0.3527 -5.6162,0.7056 -10.2447,3.1722 -4.9389,2.4666 -4.572,2.8222 -4.2333,3.525 -3.8665,3.8777 -3.5277,4.5833 -3.1891,5.2888 -2.4554,5.2889 -2.1166,6.3472 -1.778,6.6971 -1.0443,7.0527 -0.7055,7.7555 -0.3669,8.461 0.3669,8.1083 0.7055,8.111 1.0443,7.0499 1.778,7.0528 4.572,11.6332 3.1891,5.2888 3.5277,4.5833 3.8665,3.8777 4.2333,3.525 4.572,3.175 4.6002,2.4666 4.9389,1.7639 4.9389,1.4111 11.2607,1.0555 8.4667,-0.7055 3.8946,-1.0555 3.8665,-1.0584 -11.9945,-7.0527 -12.6718,-5.286 11.2607,-23.2692 9.8778,3.8777 9.5109,4.5833 9.1722,5.6416 8.8053,6.3444 z"
         id="path5429"
         inkscape:connector-curvature="0" />
      <path
         style="fill:#003270;fill-opacity:1;fill-rule:evenodd;stroke:none"
         d="m 2880.6615,1182.7791 0,-197.4371 59.9157,0 35.2778,134.6821 34.8826,-134.6821 60.311,0 0,197.4371 -37.0276,0 -0.3669,-155.4819 -38.7773,155.4819 -38.4387,0 -38.7774,-155.4819 -0.3386,155.4819 -36.6607,0 z"
         id="path5431"
         inkscape:connector-curvature="0" />
      <path
         style="fill:#003270;fill-opacity:1;fill-rule:evenodd;stroke:none"
         d="m 366.16305,118.03646 2702.76885,0 0,31.02468 -2702.76885,0 z"
         id="path5433"
         inkscape:connector-curvature="0" />
      <path
         style="fill:#003270;fill-opacity:1;fill-rule:evenodd;stroke:none"
         d="m 366.16305,508.32439 2702.76885,0 0,31.02469 -2702.76885,0 z"
         id="path5435"
         inkscape:connector-curvature="0" />
      <path
         style="fill:#003270;fill-opacity:1;fill-rule:evenodd;stroke:none"
         d="m 366.16305,906.3678 2702.76885,0 0,30.6747 -2702.76885,0 z"
         id="path5437"
         inkscape:connector-curvature="0" />
      <path
         style="fill:#003270;fill-opacity:1;fill-rule:nonzero;stroke:none"
         d="m -588.58065,1149.9905 2.8194,0 2.4695,0 2.1138,0.3528 2.1167,0.3527 3.5249,1.0584 1.4112,0.7055 1.4111,1.0555 1.0555,0.7056 1.0583,1.0583 0.7056,1.0584 0.7055,1.4082 0.3528,1.0584 0.3528,1.0583 0.3528,2.8194 -0.3528,2.8222 -0.7056,2.8194 -1.0583,2.8223 -1.4111,2.8194 -1.0555,1.4111 -0.7056,1.4083 -1.0583,1.0583 -1.0584,1.4111 -2.4666,2.4666 -2.4694,2.1167 -101.5379,46.1857 -180.5122,0 -3.1722,0 -1.0583,0 -1.4111,-0.3528 -2.4666,-0.3528 -2.4695,-0.7056 -4.936,-1.761 -4.2306,-1.7639 -2.4666,-1.0583 -2.1166,-0.7056 -2.4667,-1.0555 -2.4694,-0.3528 -2.4666,-0.7055 -2.8223,0 -2.8194,0 -2.8222,0.3527 -4.2305,6.3444 -0.7027,2.4694 -0.3528,2.4667 -0.7056,4.5832 0,4.2306 0.3528,1.7638 0.3528,1.7639 0.3528,1.7611 0.7027,1.7639 1.4111,2.8194 1.7639,2.4694 2.1139,2.4667 1.0583,1.0583 1.4111,1.0583 2.4666,2.1139 5.2889,3.5277 5.2888,3.8778 2.4666,1.761 2.4695,2.1167 -1.0584,11.2804 -3.1721,1.4111 -3.175,1.4112 -3.525,0.7055 -1.7611,0.3528 -1.7638,0 -3.8778,0.3528 -3.5249,0 -3.8806,-0.3528 -4.2305,-0.3528 -3.87773,-0.7055 -3.87774,-0.7056 -4.23051,-1.0583 -4.23051,-1.0584 -8.46102,-2.4666 -8.46385,-2.4666 -16.56926,-4.9361 -7.75547,-2.1166 -7.75829,-1.7639 -3.52495,-0.7028 -3.87774,-0.3527 -3.17217,0 -3.52778,0 -3.17218,0.7027 -3.17218,0.3528 -2.82222,1.0583 -1.40825,0.7056 -1.0584,0.7055 0,1.0583 0.7056,2.1139 1.4083,1.4111 1.41108,1.4111 1.76389,1.0555 1.40829,1.0584 2.11667,0.7055 1.76389,0.7056 3.87773,1.0583 8.46102,1.4083 4.58329,1.0583 2.11385,0.3528 2.11666,1.0583 20.44982,17.2749 0,2.4694 -0.35277,1.7611 -0.35278,1.4111 -0.35278,1.4111 -1.41111,2.1138 -1.76107,2.1167 -2.82222,0.7027 -3.17218,0.7056 -3.175,0.3528 -3.17217,0.3527 -5.9944,0 -6.69714,-0.3527 -6.34718,-0.7056 -6.69713,-0.7027 -14.10266,-2.1167 -48.3023,0.7056 -16.5693,-2.4695 -16.5721,-2.1138 -15.8637,-2.4695 -7.4055,-1.4083 -3.5249,-0.7055 -3.525,-1.0583 -60.6411,-4.9361 -10.9305,-2.4666 -11.2804,-2.1167 -23.2692,-3.8777 -23.622,-4.5833 -11.636,-2.8194 -11.6332,-2.8222 -7.4055,-1.7611 -7.4027,-2.4695 -7.0528,-2.4666 -7.4026,-2.4694 -7.0528,-2.8194 -7.0499,-2.8222 -14.1026,-5.9916 -28.2053,-11.9888 -6.7,-2.8194 -7.0499,-2.4695 -6.6999,-2.4666 -7.05,-2.4694 -13.0443,-4.5833 -12.3415,-4.9361 -6.3444,-2.4666 -5.9944,-2.8194 -11.636,-5.2889 -11.6332,-5.6416 -11.636,-5.9944 -22.5637,-11.2804 -1.4083,-0.7056 -1.0583,-0.3527 -2.4695,-1.0584 -4.936,-1.0583 -4.5833,-1.0555 -2.1139,-0.7056 -2.1166,-0.3527 -2.1139,-0.7056 -2.1167,-0.7056 -1.761,-1.0583 -1.7639,-1.0555 -1.7639,-1.4111 -1.4083,-1.7639 -1.0583,-2.1138 -0.7056,-1.0584 -0.7055,-1.4111 -0.7056,-2.1138 -0.3528,-2.1167 0,-2.1138 0.7056,-2.1167 0.7055,-1.7639 1.0584,-1.7611 1.4111,-1.0583 0.7027,-0.7056 0.7056,-0.7055 1.0583,-0.7056 1.4111,-0.3499 2.8194,-1.0584 3.1722,-0.7055 3.175,-0.3528 3.525,0 3.5249,0 7.4055,1.0583 7.7555,1.0584 7.4027,1.761 7.0527,1.4112 5.9944,1.0583 141.7292,0 63.8161,0 64.8716,-0.3528 131.1515,-1.0583 132.21261,-1.0584 65.92994,-0.3527 65.5771,-0.3528 10.9277,0.3528 12.3416,0.3527 26.7941,0.7056 14.4555,0.3528 14.4554,0.3528 14.8082,0.3527 14.8054,0 14.4554,-0.3527 14.1026,-0.7056 6.7,-0.3528 6.6971,-0.7055 5.9944,-0.7056 6.3472,-0.7027 5.6416,-1.0584 5.6388,-1.0583 4.9361,-1.0583 4.9361,-1.4111 4.2305,-1.7611 4.2305,-1.7639 3.5278,-1.7611 3.1721,-2.1166 z m -505.22295,-1522.3716 112.11283,1.0577 51.12173,12.33973 41.25239,1.05771 55.3523,10.22435 2.8194,0.35255 2.8194,0.70514 6.3472,0.70513 6.3471,0.70513 6.3444,0.70513 6.6999,0.35255 6.3472,0.70516 5.9916,1.05777 3.175,0.70499 2.8194,0.3525 2.8194,1.05777 2.4694,0.70527 2.4667,1.05749 2.4694,1.05777 2.1139,1.05777 2.1166,1.41026 1.4111,1.76276 1.7611,1.76276 1.0583,1.76276 1.0584,2.11554 1.0583,2.46803 0.35,2.46775 0.3527,2.82053 -0.3527,3.17303 -0.35,3.1733 -0.7056,3.52552 -2.4694,1.41027 -2.4666,1.41026 -2.8222,0.70499 -2.8194,0.70528 -3.1722,0.35249 -3.175,0.3525 -3.525,0 -3.5249,-0.3525 -7.4055,-0.70499 -3.8778,-0.35278 -3.8777,-0.70499 -8.1083,-1.76276 -8.461,-1.76276 -17.2776,-3.8783 -8.461,-1.76276 -4.2306,-0.70527 -4.5832,-0.70499 -8.1083,-1.05777 -8.461,-0.35249 -3.8806,0 -3.8777,0 -3.8777,0.70499 -3.525,0.35249 -4.2305,1.05777 -1.7639,0.70527 -1.7611,0.705 -3.5277,1.76276 -3.525,1.76304 -3.1722,2.11525 -2.8222,2.46804 -5.99157,4.93578 -5.9944,4.58329 -2.8194,2.46803 -3.175,2.11526 -3.17217,2.11554 -3.17218,1.76276 -3.52778,1.41026 -2.11384,0.3525 -1.76389,0.70527 -154.07072,-4.23079 -4.5833,0.35249 -4.9361,1.05777 -4.2305,1.05777 -4.2305,1.41026 -4.2305,1.41027 -4.2305,2.11525 -3.8778,1.76276 -3.8777,2.11554 -7.7583,4.2308 -7.7555,4.2305 -4.2305,2.11554 -3.8777,1.76276 -4.2305,1.76276 -4.5833,1.41026 -104.7129,-1.05748 -18.686,-0.35278 -18.6859,-0.3525 -18.6859,0 -18.686,-0.35249 -18.6859,0.35249 -9.1666,0.3525 -8.8138,0.35278 -8.8138,0.70499 -8.8138,1.05777 -8.461,1.05777 -4.2305,0.35249 -3.8806,0.70499 -11.6332,2.11554 -6.3471,0.70499 -3.1722,0.3525 -3.1722,0 -2.8222,0 -3.1722,-0.3525 -2.4694,-0.35249 -2.8194,-0.70528 -2.1167,-1.05748 -2.1138,-1.05777 -1.0584,-1.05777 -0.7055,-0.70499 -1.7611,-1.76276 -0.7056,-1.05777 -0.3527,-1.05777 -0.3528,-1.05777 -0.3528,-1.05749 0,-2.46803 0.3528,-1.41026 0.7055,-1.41026 1.0584,-1.76276 1.0555,-1.76276 1.4111,-1.41027 1.4111,-1.76304 1.7611,-1.41026 1.7639,-1.05749 4.2305,-2.46803 4.2305,-1.76276 2.4694,-0.70528 2.1139,-1.05748 5.2888,-1.41027 4.9361,-1.05777 10.9305,-2.11554 10.9276,-1.76276 4.9361,-1.05776 4.936,-1.05749 4.9361,-1.41027 2.1167,-0.70527 2.1138,-0.70499 10.2249,-4.23079 10.5777,-4.2308 21.1526,-7.75631 21.5081,-7.7566 11.2804,-3.87801 10.9305,-3.5258 11.2804,-3.52552 11.6361,-3.52581 11.6332,-3.17302 11.636,-3.17302 11.6332,-2.82053 11.9888,-2.8205 11.986,-2.82053 12.3415,-2.11537 7.0499,-1.41027 7.0528,-1.05768 7.0499,-0.70513 7.0527,-0.70513 14.1027,-1.05769 13.7498,-0.70513 13.3971,-1.41027 6.6972,-0.70513 6.6999,-1.05768 6.3444,-1.05769 6.3471,-1.76281 3.1722,-0.70513 2.8222,-1.0577 5.9944,-2.11539 z m 490.76755,123.04494 4.2305,0 3.8778,0 4.2305,0.35249 3.8805,0.3525 2.1139,0.35249 1.7639,0.70528 3.8777,1.05777 3.1722,1.05748 3.175,1.76305 2.8194,1.76276 1.0583,1.41026 1.0583,1.05777 1.0555,1.05749 0.7056,1.41026 0.7056,1.41026 0.3527,1.76276 0.3528,1.41027 0.3528,1.76304 0,1.76276 0,1.76276 -0.3528,2.11554 -0.7055,2.11525 -0.7056,2.11526 -1.0583,2.46803 -1.4083,2.11554 -0.7056,1.05749 -0.7055,0.70527 -1.7639,1.05777 -2.4666,1.05749 -3.1722,0.70527 -3.175,0.3525 -3.1722,0 -3.1722,-0.3525 -3.175,-0.3525 -3.5249,-0.35277 -6.6972,-1.41027 -6.6999,-1.41026 -7.0528,-1.41027 -3.1721,-0.35249 -3.1722,-0.3525 -3.1722,-0.35249 -3.175,0 -162.179,0 -162.17899,0 -35.96075,19.74342 -1.76389,0.35249 -2.11667,0.35278 -4.23051,0.3525 -4.23051,-0.3525 -4.23053,-0.35278 -4.2305,-0.70499 -4.2305,-0.70527 -8.461,-1.76276 -8.4611,-1.76276 -4.2333,-0.70499 -3.8777,-0.70528 -4.2305,0 -3.8778,0 -1.7639,0.3525 -2.1138,0.35278 -1.7639,0.35249 -1.7611,0.70499 -2.8222,1.41027 -1.0583,0.70527 -1.4083,0.70499 -1.0583,1.05777 -1.0584,0.70499 -2.1138,2.11554 -1.7639,2.11526 -1.7639,2.46803 -3.5249,4.93578 -3.1722,4.58357 -1.7639,2.46776 -1.7611,1.76304 -2.1166,2.11525 -1.0584,0.70528 -1.4083,0.70499 -2.4694,1.41026 -2.4666,1.05777 -32.7886,-3.17302 -119.1683,1.05748 -40.1913,-2.11525 -4.9361,1.41026 -2.4666,0.70499 -2.1167,1.05777 -3.5249,2.11526 -3.175,2.46803 -3.1722,2.46803 -2.4666,2.82053 -2.8222,2.46775 -2.4667,2.46804 -3.175,2.46803 -1.761,1.05777 -1.7639,1.05749 -1.7611,1.05777 -2.1167,0.70527 -2.4666,0.70499 -2.4694,0.70527 -2.4666,0.3525 -3.175,0.35249 -3.1722,0.3525 -3.1722,0 -8.1111,0 -4.2305,-0.70499 -4.936,-0.3525 -198.8454,1.05749 -4.936,0 -4.9361,0.3525 -9.8721,1.05776 -9.8722,1.05777 -9.5193,1.05777 -4.5833,0.3525 -4.5833,0.35249 -4.2305,-0.35249 -4.2305,0 -4.2305,-0.70528 -3.8778,-1.05748 -3.5249,-1.41027 -1.7639,-1.05777 -1.7611,-0.70499 -2.1166,-10.22463 2.1166,-2.46775 2.4667,-2.11553 2.4666,-1.76276 2.4694,-1.76276 2.8194,-1.41027 2.8222,-1.41026 5.9916,-2.46804 5.6416,-2.46775 5.9944,-2.46803 5.9944,-2.82053 2.8194,-1.76276 2.4695,-1.76304 25.7358,-23.62172 4.2305,-2.82053 4.5833,-2.46775 8.4611,-4.93607 4.2305,-2.46803 4.2305,-2.46775 4.2333,-2.46803 3.8777,-3.17303 19.3915,-16.2179 65.9271,4.93579 144.5514,0 28.5581,0 28.5581,-0.3525 27.8525,-0.3525 28.2053,-0.35277 27.8525,-0.70499 27.8525,-0.70528 55.3522,-1.41026 55.3523,-1.41027 55.70502,-1.41026 55.70503,-1.05749 28.2053,-0.35278 28.558,0 237.9811,-1.05748 z m -423.78205,117.0511 86.37975,0.35278 85.6714,0.35249 170.6428,1.41027 169.5817,1.41026 84.6159,0.3525 84.6158,0.35249 224.934,0 61.3466,0 2.8222,-0.70499 2.8194,-1.05777 5.9944,-1.76276 3.525,-0.70527 3.525,-0.70499 3.5277,0 1.7611,0.35249 1.7639,0.3525 2.4666,1.05777 2.1167,1.05777 1.4083,0.70499 1.0583,1.05777 1.0583,0.70527 0.7056,1.05749 1.7611,1.76304 1.7638,2.46775 1.0584,2.11554 1.0583,2.46775 0,1.05777 -3.175,28.557785 3.175,60.64109 -0.3528,0.70556 -0.3527,1.05833 -1.0584,1.40829 -1.0583,1.41111 -1.4083,1.41111 -2.8222,2.46662 -3.1722,1.76389 -1.7639,0.35278 -3.8777,0 -13.3971,0 -39.8413,-0.70555 -21.5054,-0.35278 -18.6859,-0.35278 -13.3971,-0.35278 -4.2305,-0.35278 -1.4111,-0.35277 -1.0583,0 -1.4083,-1.05834 -0.7056,-0.34995 -0.3528,-0.70556 -1.4111,-1.76389 -1.0555,-1.41111 -1.7639,-3.87773 -1.7639,-4.23051 -1.761,-4.23051 -1.4111,-4.23051 -1.7639,-3.87774 -1.0555,-1.41111 -1.0584,-1.41111 -4.936,0 -4.9361,0 -9.5194,1.05833 -10.2249,1.41111 -5.2888,0.35278 -5.9916,0.35278 -178.7511,0 -7.4027,0 -10.5777,0.70556 -24.3275,1.76106 -21.8581,1.41111 -7.4055,0.35278 -2.1139,0 -1.0583,-0.35278 -1.0583,-0.35277 -1.0584,-0.70556 -0.7027,-0.70556 -1.0583,-0.70555 -1.0584,-1.76107 -1.0583,-1.76389 -0.7056,-2.46662 -0.7027,-2.11667 -1.0583,-5.28884 -1.0584,-4.93607 -0.3527,-2.46662 -1.0584,-2.46944 -0.7055,-2.11385 -1.4083,-2.11666 -0.7056,-0.70556 -0.7055,-0.70273 -1.0584,-0.70556 -1.0555,-0.70555 -1.7639,-0.35278 -1.7639,0 -3.5249,-0.35278 -3.525,0.35278 -3.8777,0.35278 -3.8806,0.70555 -3.8777,0.70556 -8.1082,2.11384 -8.1083,1.76389 -4.2305,0.70556 -4.2305,0.70273 -4.2305,0.35278 -4.2333,0 -4.2306,-0.35278 -2.1138,0 -1.7639,-0.34996 -1.0583,-1.76389 -0.7028,-1.76388 -1.7638,-3.87774 -2.8194,-8.46102 -0.7056,-2.11667 -0.7056,-2.11384 -1.0583,-1.76389 -1.0583,-1.7622 -1.0555,-1.76276 -1.4111,-1.41026 -1.4112,-1.05777 -1.761,-1.05777 -172.054,0.3525 -171.6983,0.70527 -114.22945,0 -28.5581,-2.11554 -2.8194,1.05777 -1.4111,0.70528 -1.0583,0.70499 -1.7611,1.41026 -1.7639,1.76276 -1.4111,2.11469 -1.4111,2.11667 -1.0555,2.46662 -0.7056,2.46945 -2.1166,4.58328 -1.0556,2.46663 -1.0583,2.11666 -1.4111,2.11385 -1.4111,1.76389 -2.1139,1.76389 -1.0583,0.70273 -1.0583,0.35278 -1.4083,0.70555 -1.7639,0.35278 -4.2305,0.35278 -5.2889,0 -5.6416,-0.35278 -5.9916,-0.70556 -6.6999,-0.70555 -13.7499,-2.11385 -14.4554,-2.11666 -6.7,-1.05551 -6.6971,-0.70556 -5.9944,-0.35278 -5.6416,-0.35277 -2.8194,0.35277 -2.1167,0 -2.1138,0.35278 -2.1167,0.35278 -2.8194,1.05551 -1.4111,0.70556 -1.0583,0.70555 -2.1139,1.41111 -2.1166,2.11385 -1.7611,2.11666 -1.7639,2.46663 -3.1722,4.93606 -3.1722,4.93607 -1.7638,2.11667 -1.7639,2.46662 -2.1139,1.76389 -2.4694,1.76389 -1.0584,0.70273 -1.4082,0.70555 -2.8223,0.70556 -30.6719,-2.8194 -133.6209,0 -40.8997,-2.11667 -1.761,0.35278 -1.7639,0.35278 -1.4083,0.70555 -1.4111,0.70556 -2.8222,1.76107 -2.4667,1.76389 -1.0583,1.05833 -1.0583,1.05551 -2.1139,2.11667 -2.1166,2.46662 -2.1139,2.46944 -3.8777,4.58329 -2.1167,2.46662 -2.4666,2.11667 -2.1167,1.76389 -2.8194,1.76107 -1.0583,0.70555 -1.4111,0.35278 -3.1722,1.05833 -201.3145,-1.05833 -60.6411,0 -3.878,1.05833 -3.8783,1.05834 -7.4038,2.11384 -3.8783,0.70556 -4.2308,0.70555 -1.7627,0 -2.1156,0 -2.1152,0 -2.4681,-0.35278 -1.4102,-1.41111 -1.0575,-1.05833 -2.1155,-2.8194 -3.5256,-5.9944 1.0575,-3.17218 1.7631,-3.17218 1.4102,-2.46944 1.7628,-2.46662 2.1152,-2.11667 1.7631,-2.11384 2.1152,-2.11667 2.4681,-1.76389 4.2308,-3.52495 4.5833,-3.52496 2.4677,-1.76389 2.1155,-2.11384 2.1153,-2.11667 1.763,-2.46662 3.1731,-4.23051 3.173,-4.58329 6.6988,-9.87214 6.6986,-9.87213 3.5258,-5.28884 3.878,-4.93579 3.5258,-4.935785 4.2308,-4.58357 3.878,-4.2308 4.2308,-4.23051 2.1155,-1.76304 2.1153,-2.11526 2.468,-1.41026 2.1153,-1.76276 2.468,-1.41026 2.468,-1.41027 2.4678,-1.05777 2.468,-1.05777 1.4103,-0.35249 1.0577,-0.70499 2.8206,-0.35278 2.8205,-0.3525 3.173,0 3.1731,0.3525 2.8208,0 6.3471,1.05777 6.3444,1.41026 6.3472,1.76276 5.6416,1.05777 2.8194,0.70499 2.4666,0.35278 84.9687,-1.05777 41.2496,0 40.8996,-0.35249 39.8385,-0.70528 39.8385,-0.70499 39.8413,-1.05777 39.4857,-0.35249 40.1941,-0.70528 40.1913,0 17.2748,0.35278 21.1554,0.70499 23.2692,0.70528 11.986,0.35249 11.9888,0 23.622,0 10.9276,-0.35249 10.5777,-0.35278 9.8721,-1.05749 8.4611,-1.05777 4.2305,-0.70527 3.5249,-0.70499 3.175,-1.05777 3.1722,-1.05777 z m -54.6467,125.1616047 256.66705,0 256.667,0 49.3578,8.46103 185.801,0 157.9485,0 56.4106,4.93606 9.8721,-0.35277 12.3388,-0.35278 14.1026,-1.05834 14.8082,-0.70555 13.7499,-0.70556 11.9888,0 4.936,0 2.1139,0 1.7639,0 3.1721,0.70556 1.0584,0 0.7055,0.35278 9.1666,13.3970903 -1.0583,75.09651 0,1.05833 -11.2833,13.397085 -18.3331,-0.35278 -39.4857,-0.35278 -40.1941,-0.70555 -13.3971,-0.35278 -5.6416,-0.35278 -1.4083,-1.40829 -1.0584,-1.41111 -1.0583,-1.41111 -1.0583,-1.761065 -1.4083,-3.87773 -1.0583,-4.23051 -1.0584,-3.88056 -1.4111,-3.87773 -1.0555,-1.76107 -1.0583,-1.41111 -1.4111,-1.41111 -1.4083,-1.41111 -0.7056,-0.34995 -0.7055,-0.35278 -2.4695,-0.35278 -3.1722,0 -3.5249,0 -8.8138,0 -9.8722,0.70556 -20.8026,1.76106 -9.1665,0.35278 -7.4027,0.35278 -184.7427,-1.05834 -3.8805,-0.35277 -3.525,0 -3.525,0.35277 -3.5249,0.35278 -6.3472,1.05834 -6.3472,1.05833 -5.9915,0.70555 -2.8223,0.34996 -3.1721,0 -2.8194,-0.34996 -2.8223,-0.70555 -2.8194,-1.05833 -2.8222,-1.41112 -3.1722,-25.73584 -5.9944,-3.87773 -1.761,-0.35278 -1.7639,-0.35278 -1.7639,0 -2.1139,0 -4.2305,0 -4.2305,0.70556 -9.5193,1.40829 -9.5194,1.76388 -4.9361,1.05834 -4.5832,0.35278 -4.5833,0.35277 -4.5833,0 -3.8778,-0.35277 -2.1166,-0.35278 -1.7639,-0.70556 -1.7611,-0.70555 -1.7639,-0.70556 -1.4083,-1.05833 -1.4111,-1.05551 -1.4111,-1.05834 -1.0583,-1.41111 -0.7027,-1.05833 -1.0584,-1.40829 -0.7055,-1.41111 -0.3528,-1.76389 -1.4111,-3.17218 -1.0555,-2.8194 -1.4111,-3.175 -0.7056,-1.05551 -1.0583,-1.41111 -0.7056,-0.35278 -0.3528,-0.70555 -1.4083,-1.05834 -1.0583,-0.35277 -0.7055,-0.70274 -2.4667,-0.70555 -2.4694,-0.35278 -2.8194,-0.35278 -2.8222,0 -3.1722,0 -3.1722,0.35278 -3.5249,0.35278 -13.7527,1.76106 -6.3444,0.70556 -5.9944,0.35278 -136.4431,0 -250.31987,0 -75.09648,0 -21.5054,-3.87774 -1.7638,0.35278 -1.4083,0.35278 -2.8223,1.05833 -2.4666,1.40829 -1.0583,1.05833 -1.0583,0.70556 -1.0584,1.05833 -0.7027,1.05551 -1.7639,2.11667 -1.7639,2.46662 -1.4083,2.46945 -3.175,4.58329 -2.1138,2.11384 -1.7639,2.11667 -2.4666,2.11666 -1.4111,0.70274 -1.4112,0.70555 -2.8194,1.41111 -1.7638,0.35278 -1.7611,0.35278 -106.8268,-3.175 -1.4111,0.70556 -1.0583,0.35277 -2.4666,1.76389 -1.7639,1.76107 -1.7639,1.76389 -1.4083,2.46944 -1.4111,2.11385 -2.4666,5.28884 -2.1167,4.93607 -1.4111,2.46662 -1.4083,2.11667 -1.4111,2.11384 -1.0583,0.70556 -0.7056,1.05833 -2.4666,1.41111 -1.0584,0.35278 -1.4111,0.70555 -35.6079,-2.11666 -135.7376,0 -3.525,0 -3.525,-0.35278 -7.7582,-0.70556 -16.2165,-1.76106 -3.8778,-0.35278 -3.8805,-0.35278 -3.525,0.35278 -3.5249,0 -3.1722,0.70556 -2.8222,0.70273 -1.0584,0.70555 -1.4083,0.35278 -2.1166,1.76389 -1.4083,1.40829 -1.4111,1.41111 -0.7056,0.70556 -0.3528,1.05833 -1.0583,1.76107 -0.7055,1.76389 -0.7028,2.11666 -1.4111,3.87774 -0.7055,2.11384 -0.7056,1.76389 -0.7056,1.763885 -1.0555,1.76106 -1.4111,1.76389 -1.4111,1.05834 -1.7611,1.40829 -1.7638,1.05833 -85.3215,-1.05833 -170.2878,0 -7.7563,0 -7.0513,0.70555 -12.6924,1.41111 -5.9935,0.35278 -5.6411,0.35278 -2.8205,0 -2.8203,0 -5.641,-1.05834 -7.0514,-7.05273 0,-3.877725 0.3525,-1.76107 0.3525,-1.76389 0.7053,-3.17218 1.4103,-3.175 1.4102,-2.8194 1.4103,-2.8194 2.1153,-2.82222 1.7627,-2.8194 4.2308,-4.93606 4.5833,-4.93607 4.2308,-4.93607 2.1155,-2.8194 1.7628,-2.46944 1.7627,-2.8194 1.7628,-3.175 1.7631,-3.52496 1.4102,-3.17218 6.6986,-14.8082 3.5258,-7.04991 3.5255,-6.69995 2.1155,-2.8194 2.4678,-2.8222203 2.1155,-2.46663 2.8205,-2.11666 2.4678,-1.41111 2.8205,-1.05552 1.4103,-0.35277 1.4102,-0.35277998 2.8206,-0.70556 2.8205,0 2.8205,0.35278 2.8206,0.35278 3.173,0.35277998 5.641,1.40829 5.9936,1.76388 5.6411,1.76389 2.468,0.70556 2.8205,0.34995 113.8784,-1.05551 43.3662,0 42.308,-0.70555 41.2496,-0.70556 41.2496,-1.05833 40.8968,-1.05833 20.8026,-0.34996 20.7998,-0.35278 41.9551,-0.70555 21.5054,0 21.5081,0 10.5777,0 11.2804,0.35277 23.9748,0.70556 25.0331,0.70273 12.6916,0 12.3387,0 12.3416,0 12.3387,-0.35277 11.6332,-0.70274 11.2833,-0.70555 5.6416,-0.70555998 5.2889,-0.70555 9.8721,-1.76389002 4.5833,-1.05551 4.5833,-1.41112 4.2305,-1.05833 3.8777,-1.76107 z m -35.9608,126.2154253 39.133,0.35277 38.0774,0 38.0774,0.35278 37.72467,0 74.39098,1.05834 74.0382,1.05833 74.0381,0.70555 74.391,1.05552 75.0965,0.35277 38.0774,0.35278 38.7802,0 225.6423,0 38.783,0 19.3886,-0.35278 19.3915,0.35278 9.5194,0.35278 9.5193,0 9.5194,0.70555 9.1666,0.35278 8.8138,0.70556 8.8138,0.70555 8.4638,1.05551 8.461,1.41112 58.5245,0 23.9747,-0.35278 22.9165,-0.70556 22.5636,-0.70273 22.2109,-1.05833 22.5665,-0.70556 11.2804,-0.70556 11.2833,-0.35277 23.622,-0.35278 11.986,-0.35278 12.3387,0 67.6938,1.05833 3.8778,0.35278 3.5249,0.35278 6.7,-0.35278 6.3472,-1.05833 6.3443,-1.05833 6.3472,-1.05552 5.9944,-0.70555 3.1722,-0.35278 3.1722,0 2.8222,0.35278 3.1722,0.35278 2.8194,2.46662 2.8222,2.82222 1.0555,1.40829 1.0583,1.76389 1.0584,1.76389 0.3527,2.11384 -3.1721,58.52725 3.1721,25.73584 -0.3527,2.11667 -1.0584,2.11384 -0.7055,2.11667 -1.0555,1.76107 -1.4112,1.41111 -1.0583,1.76389 -2.4666,3.17217 -3.5278,0.35278 -3.5249,0.35278 -7.7555,0.35278 -7.7583,-0.35278 -8.1082,-0.70556 -16.9221,-1.41111 -9.1666,-0.70555 -8.8138,0 -200.2564,0 -100.8352,2.11666 -1.761,-1.05833 -1.4111,-1.05833 -1.4112,-1.40829 -1.4082,-1.76389 -1.4112,-1.76389 -1.0583,-1.76107 -1.7611,-4.58329 -1.7638,-4.23051 -1.7639,-4.58329 -1.7611,-4.23051 -0.7056,-1.76389 -1.0583,-1.76388 -2.8194,-0.70274 -3.175,-0.35278 -3.5249,0 -3.525,-0.35277 -7.7555,0.35277 -8.4638,0.70274 -17.9804,1.76389 -9.1666,0.35277 -9.1665,0.35278 -163.2374,0 -9.1666,0.35278 -10.5776,0.70556 -11.6332,0.70555 -11.6361,0.70273 -10.9276,0.35278 -4.9361,-0.35278 -4.5833,-0.35277 -3.8777,-0.34996 -3.5278,-1.05833 -1.4083,-0.70556 -1.0583,-0.35278 -1.0583,-0.70555 -0.7056,-1.05833 -1.0555,-2.8194 -1.0583,-3.52496 -0.3528,-3.87773 -0.7056,-3.88056 -0.3527,-3.87773 -0.7056,-3.52496 -0.7056,-3.52495 -0.3527,-1.41111 -0.7028,-1.05834 -3.175,-0.70555 -2.8194,-0.35278 -3.1721,-0.34996 -3.175,0 -6.6972,0.34996 -7.0527,0.70555 -14.8082,1.41112 -7.7555,0.70555 -7.7554,0 -191.0899,0 -9.8721,0.35278 -10.2249,0.35278 -19.7443,1.05833 -9.5194,0.34996 -9.5193,0 -4.5833,-0.34996 -4.2305,-0.35278 -4.2305,-0.70555 -3.8778,-0.70556 -2.1138,-2.82222 -1.4111,-3.17218 -1.4111,-3.17218 -1.4111,-3.52495 -2.8194,-7.40551 -1.7639,-3.17218 -1.4083,-3.17218 -4.2305,-1.05833 -2.4695,0 -2.8194,-0.35278 -5.6416,-0.35278 -6.3472,-0.35278 -6.6971,0 -7.0527,0.35278 -15.1582,0.35278 -30.6747,1.41111 -14.4554,0.70273 -12.3388,0.35278 -216.47575,-1.05551 -2.1138,3.17218 -2.1167,4.23051 -2.1138,4.23051 -2.1167,3.87773 -2.4666,4.23052 -1.4111,1.76388 -1.4111,1.76389 -1.4083,1.40829 -1.7639,1.05834 -1.7639,1.05833 -2.1139,0.70555 -2.1166,0.70556 -2.4666,0.34996 -3.1722,0.35277 -3.175,0 -7.7555,0.35278 -8.461,-0.35278 -9.5194,-0.35277 -9.8721,-0.70274 -20.4498,-1.76389 -10.2249,-0.70555 -9.8693,-0.70556 -9.1666,-0.35278 -8.4639,-0.35277 -7.4027,0 -3.5249,0 -2.8222,0.35277 -2.4667,0.35278 -2.1166,0.70556 -1.7611,0.35278 -1.4111,0.70555 -1.7639,1.76389 -1.4083,1.76107 -1.4111,1.76389 -1.0583,2.11384 -1.7611,4.23051 -1.4111,4.58329 -1.7639,4.23051 -0.3528,1.05833 -0.7055,1.05834 -1.0555,1.76389 -1.4111,1.76106 -1.7639,1.41111 -2.1139,1.41112 -2.4694,1.05551 -229.87,-4.23051 -1.4111,0.70555 -1.4111,0.35278 -2.1139,1.41111 -2.1167,1.76107 -1.761,1.76389 -1.4111,2.11666 -1.7639,2.46662 -2.4666,4.58329 -3.175,4.58329 -1.7611,2.46945 -1.7639,2.11384 -2.1138,1.76389 -1.4112,0.70556 -1.0583,0.70273 -2.8194,1.41111 -3.1722,1.05833 -53.5911,-2.11666 -165.3526,0 -7.7563,0.35277 -10.5769,0.35278 -25.3848,1.76389 -22.5639,1.76107 -7.7566,0 -2.4677,0 -0.7053,0 -0.705,-0.34996 -2.468,-1.05833 -1.0578,-0.70556 -0.705,-0.70555 -0.7053,-1.05834 -0.705,-1.05551 -1.4102,-2.46944 -2.1156,-12.33876 0.7053,-1.76389 0.705,-2.11384 0.7053,-1.41111 1.0577,-1.76389 2.1153,-3.17218 2.468,-2.46944 4.9358,-5.6388 1.0578,-1.41111 1.0577,-1.41111 0.705,-1.76107 1.0578,-1.76389 2.8205,-8.46102 2.8206,-8.8138 2.8205,-8.8138 1.4103,-4.23051 1.4102,-4.23334 1.7628,-4.23051 1.4102,-4.23051 1.7628,-3.87773 1.7628,-3.87774 2.1155,-3.87773 2.4678,-3.52495 2.468,-3.175 2.468,-3.17218 4.9358,-0.35278 2.468,0 2.4678,0.35278 4.5836,0.35278 4.2308,0.35277 8.814,1.40829 4.5833,0.70556 4.9358,0.35278 147.7244,0 39.4883,-0.35278 38.4274,-0.70556 37.7246,-0.70273 37.3719,-1.05833 37.3718,-0.70556 18.686,-0.70556 19.0387,-0.35277 38.4302,-0.35278 19.3915,-0.35278 20.0942,0 23.2692,0.35278 24.3276,0.70555 24.6803,0.70556 24.6803,0.70556 12.3388,0 12.3388,0 11.9888,-0.35278 11.6332,-0.35278 11.636,-0.70556 5.6388,-0.35277 5.6416,-0.70556 10.9305,-1.40829 5.6416,-0.70555 5.2888,-1.05834 23.2693,-2.11666 z m -47.9495,129.39324 163.2373,0.70556 163.59015,0.70273 163.2373,0.70556 163.5901,1.05833 169.2289,0 169.5846,0 8.1082,1.05833 8.1082,1.05834 8.4611,0.70273 8.8166,0.35278 8.8138,0.70555 8.8138,0 18.6859,0.35278 254.5504,0 4.936,-0.35278 5.2889,-0.35278 11.6332,-0.70555 12.3415,-1.05551 6.3444,-0.35278 6.3472,-0.35278 5.9944,0 5.6416,0.35278 2.8194,0 2.4666,0.35278 4.9361,1.05551 2.1167,0.35278 1.761,1.05833 1.7639,0.70556 1.7639,1.05833 0.7056,0.35278 0.7027,0.70273 1.0583,1.41111 0.7056,1.41111 0.7055,1.41111 -3.1721,60.64109 3.1721,24.67751 -1.0583,3.52496 -0.7056,2.11667 -0.7055,1.76388 -1.0555,1.76107 -1.0584,1.76389 -1.4111,1.41111 -1.0583,1.05551 -1.0555,0.35278 -1.0583,0.35278 -3.1722,0.35278 -1.7639,0.35277 -2.4695,0 -4.9332,0 -12.3416,0 -13.7498,-0.70555 -28.5581,-1.76107 -11.986,-0.70555 -9.1666,-0.35278 -198.1425,0 -8.1083,0 -10.2249,0.70555 -23.622,1.76107 -11.986,0.70556 -10.5777,0.70555 -4.2305,0 -3.8777,0 -3.1722,-0.35278 -2.4694,-0.70555 -1.4111,-0.70556 -1.7611,-0.70273 -1.4111,-1.41111 -1.0584,-1.05834 -1.4082,-1.76388 -1.0584,-1.76107 -0.7055,-1.76389 -1.0584,-1.76107 -3.1721,-7.75829 -1.4112,-3.52495 -1.761,-3.17218 -3.175,-0.70555 -3.1722,-0.70556 -3.1722,-0.35278 -3.5278,-0.35278 -7.0499,0 -7.0527,0.35278 -15.1582,1.05834 -8.111,0.35277 -8.1083,0.35278 -169.5817,0 -10.2249,0 -10.9304,0.70556 -11.2805,1.05551 -11.2832,0.35278 -5.2888,0.35277 -5.2889,0 -4.9361,-0.35277 -4.5832,-0.35278 -4.5833,-0.35278 -3.8778,-1.05551 -3.5249,-1.05833 -1.7639,-0.70556 -1.4083,-0.70556 -0.3528,-3.17217 -0.7055,-3.175 0,-3.52496 0,-3.52495 -0.3528,-6.69996 0,-3.52496 -0.7056,-3.17217 -5.9944,-4.93607 -2.8194,-0.70556 -3.1721,-0.35277 -3.5278,0 -3.525,0 -3.5249,0 -4.2305,0.35277 -8.1083,0.70556 -16.9249,2.11384 -8.461,0.70556 -8.461,0 -185.801,0 -9.1666,0.35278 -9.1666,0.35278 -18.6859,1.05833 -8.8138,0.35278 -4.5833,0 -4.2333,0 -4.2305,-0.35278 -3.8778,-0.35278 -4.2305,-0.35278 -3.5249,-1.05833 -1.7639,-2.46662 -1.7611,-3.52496 -3.8805,-6.69995 -1.7611,-3.52496 -1.0583,-1.41111 -1.4111,-1.41111 -2.1139,-2.46662 -2.8222,-2.11667 -75.0937,2.11667 -181.57045,0 -9.1694,0 -12.3388,-0.70556 -29.2636,-1.76389 -14.4526,-0.70273 -12.6944,-0.35278 -9.5193,0 -3.1722,0 -1.0583,0.35278 -0.7056,0 -1.7611,1.40829 -1.4111,1.05833 -1.4111,1.76389 -0.7055,1.40829 -1.0556,1.76389 -0.7055,1.76389 -1.0583,3.87773 -1.0584,3.87773 -1.4083,3.87774 -1.0583,1.76389 -1.0583,1.40828 -1.0584,1.76389 -1.761,1.05834 -4.2305,0.35277 -10.5777,0 -15.5138,0 -17.9804,0 -18.6859,-0.35277 -17.2748,-0.70556 -7.4055,0 -6.3444,-0.35278 -5.2888,-0.35277 -3.1722,-0.70556 -2.8222,-0.35278 -2.8194,-0.70273 -6.3472,-1.41111 -3.1722,-0.35278 -1.7639,-0.35278 -1.4111,0 -3.5249,0.35278 -1.4083,0.35278 -1.4111,0.70555 -1.7639,0.70556 -1.0584,1.40829 -1.0555,1.41111 -0.7055,0.70555 -0.3528,1.05834 -0.3528,1.76106 -0.7055,2.11667 -0.3528,2.11385 0,2.11666 -0.3528,9.16658 0,4.23051 -0.7055,3.87773 -2.4667,1.41112 -3.1721,1.05833 -3.5278,1.05551 -3.525,0.35278 -3.8777,0.35278 -4.2305,0.35277 -4.2305,0 -4.5833,-0.35277 -9.1666,-0.70556 -9.5194,-0.70273 -9.1665,-0.70556 -9.1666,0 -133.271,0 -6.6971,-0.35278 -6.7,-0.35277 -13.3971,-0.70556 -6.3471,-0.35278 -6.3444,0 -3.1722,0.35278 -2.8222,0.35278 -3.1722,0.35278 -2.8222,0.70555 -1.4083,2.46662 -1.7639,3.17218 -1.7639,3.52778 -1.761,3.52495 -2.1167,3.52496 -2.1138,3.175 -1.0584,1.40829 -1.0583,1.05833 -1.0583,1.05834 -1.4083,0.70555 -1.4111,0.35278 -1.4112,0.70273 -3.1721,0.70556 -3.525,0.35278 -3.5249,0.35277 -4.2334,0 -3.8777,0 -4.5833,-0.35277 -4.2305,-0.35278 -8.8138,-0.70556 -9.1666,-1.05551 -8.4613,-0.70555 -4.2308,-0.35278 -3.8783,0 -165.3526,0 -8.8141,0.35278 -10.9293,0.70555 -12.3399,0.70273 -12.6924,1.05834 -11.9871,0.70555 -10.5768,0.35278 -4.2308,-0.35278 -3.8782,-0.35277 -2.8205,-0.35278 -1.7629,-0.70556 0,-1.05551 -1.4102,-1.41111 -1.4103,-1.76389 -1.0577,-2.11384 -0.7051,-2.46945 -0.7051,-2.8194 -0.3526,-1.41111 0,-1.41111 0,-3.17218 0.3526,-3.17218 12.3397,-29.6164 4.2308,-47.244 9.1666,-10.22208 5.9936,-0.35278 5.2885,0.35278 2.8205,0 2.8206,0.34995 4.9358,0.70556 5.2885,0.70555 5.2883,0.70556 5.2886,0.35278 2.8205,0.35277 2.8205,0 143.4937,-1.05833 39.4871,-0.35278 38.7821,-0.35278 38.0774,-0.70555 38.0775,-0.70273 37.7246,-0.70556 38.4274,-0.70556 38.783,-0.35277 39.8384,-0.35278 147.7264,0 7.4027,0 7.7555,0.35278 8.1111,0.35277 8.1082,0 7.7555,0 3.8777,-0.35277 3.5278,-0.35278 3.5249,-0.35278 3.1722,-0.70555 3.175,-1.05834 1.7611,-0.34995 1.4111,-0.70556 z m 3.8777,129.39042 162.88458,0.70556 162.88457,0.70555 162.8845,0.70274 163.2374,1.05833 228.8145,0 36.6663,-0.35278 18.3331,0 17.9804,0 17.9804,0.35278 8.8138,0.35278 8.8166,0.35278 8.461,0.70555 8.4611,0.70556 8.1082,0.70555 8.1082,1.40829 269.0086,0 11.986,-0.35278 13.7499,-0.70273 14.8082,-0.70555 14.4554,-0.70556 7.4027,0 6.6999,0 6.6972,0 5.9944,0.70556 5.2888,0.70555 4.9361,1.05551 2.1138,0.35278 2.1167,0.70556 1.7639,1.05833 1.4083,0.70555 0.7055,15.15816 0.7056,32.4358 0.7055,32.43862 0.3528,10.92765 -0.3528,4.58329 -0.3527,1.41111 -0.7056,1.05833 -1.0583,1.40829 -1.0555,1.05833 -1.0584,1.05834 -1.4111,0.70555 -2.4666,1.40829 -1.0583,0.70556 -1.4112,0.35277 -3.5249,0.70556 -4.2305,0.35278 -4.9361,0 -5.6416,0.35277 -5.9944,-0.35277 -13.0443,-0.35278 -13.3971,-1.05833 -13.3971,-0.70556 -11.636,-0.70273 -9.1666,-0.35278 -206.248,0 -10.9305,0.35278 -11.6332,0.70273 -11.636,0.70556 -11.2832,0.70555 -5.6388,0 -5.2889,0 -5.2888,-0.35278 -4.5833,-0.35277 -4.5833,-0.70556 -4.2305,-1.05551 -1.7639,-0.70556 -1.7611,-0.70555 -1.7639,-0.70556 -1.7638,-0.70555 -1.0556,-6.69714 -0.7055,-3.175 -1.0583,-3.17217 -0.7056,-2.8194 -1.0583,-2.82223 -1.0555,-2.8194 -1.4112,-2.11666 -3.1721,-0.70556 -2.8223,-0.70273 -3.1721,0 -3.1722,-0.35278 -3.175,0 -3.1722,0.35278 -6.6999,0.35278 -14.1027,1.40828 -7.4027,0.35278 -3.8777,0 -3.525,0.35278 -184.7455,0 -8.8138,0 -8.461,0.70556 -16.922,1.05833 -8.1111,0.70555 -3.8777,0 -3.525,0 -3.8777,0 -3.5278,-0.35277 -3.5249,-0.70556 -3.1722,-0.35278 -1.0584,-1.76389 -0.7055,-1.76106 -0.7056,-1.76389 -0.3499,-1.76389 -0.7056,-3.52496 -0.3528,-3.52495 -0.3527,-8.10825 -0.3528,-4.23051 -0.7056,-4.58329 -4.936,-3.88055 -27.147,0 -27.8525,0.70555 -57.8217,0.70556 -58.1716,1.05833 -29.2637,0.35278 -28.558,0 -89.552,1.05833 -1.761,-0.70555 -1.7639,-1.05833 -1.4083,-1.41112 -1.0583,-1.40828 -1.0584,-1.41112 -1.0583,-1.76388 -2.1138,-3.17218 -1.7639,-3.52496 -1.0584,-1.76389 -1.0583,-1.41111 -1.4083,-1.40829 -1.4111,-1.41111 -1.7639,-1.05833 -1.7611,-1.05833 -92.3713,2.11666 -190.03145,0 -7.4056,-0.35278 -9.5193,-0.35277 -22.9165,-1.76389 -11.2832,-0.70274 -10.2221,-0.35277 -7.7583,0 -2.8194,0 -1.7639,0.35277 -2.1138,1.05552 -2.1167,1.05833 -0.7055,0.70555 -0.7028,0.70556 -1.4111,1.76107 -1.4111,1.76389 -1.0583,1.76388 -2.1139,4.23052 -2.4694,4.23051 -1.0555,1.76389 -1.4111,1.76106 -1.7639,1.76389 -0.7056,0.70556 -1.0555,0.70273 -1.0583,0.35278 -1.0584,0.70555 -1.0583,0.35278 -1.4083,0.35278 -20.4498,-3.17218 -4.9361,-0.70555 -5.9944,-0.35278 -7.0499,-0.35278 -7.4055,-0.35278 -8.461,-0.35278 -8.461,0 -17.9804,0 -8.8138,0.35278 -8.461,0 -7.7583,0.70556 -7.4027,0.70555 -6.3472,0.70556 -5.2888,0.70555 -2.1139,0.34996 -1.7639,0.70556 -1.761,0.35277 -1.0584,0.70556 -0.7055,3.87773 -0.7056,3.87774 -1.0583,7.75828 -1.0555,3.52496 -0.7056,3.52496 -1.4111,3.52495 -1.4111,2.82222 -2.4666,0.35278 -2.8194,0.35278 -4.9361,0.35278 -5.2888,0 -4.9361,-0.35278 -10.9305,-1.41111 -5.6416,-0.35278 -5.9916,0 -149.1347,0 -6.6999,-0.35278 -6.6971,-0.35278 -13.0472,-1.05833 -5.9916,-0.34995 -3.175,-0.35278 -2.8194,0 -3.1721,0.35278 -2.8223,0 -2.8194,0.34995 -2.8222,0.70556 -1.4083,1.41111 -1.4111,1.41111 -1.0583,2.11384 -1.0583,1.76389 -0.7028,2.11385 -0.7055,2.11666 -1.4111,4.58329 -1.4112,4.23051 -1.0555,2.11667 -1.0583,1.76107 -1.0583,1.41111 -1.4111,1.41111 -1.7611,1.40829 -2.1167,0.70555 -84.9675,-2.11384 -173.4614,0 -4.5833,0.35278 -3.8783,0 -7.7563,0.70273 -13.3976,1.05833 -6.3461,0.70556 -3.1731,0 -2.8205,0 -3.1731,0 -3.173,-0.35278 -3.1731,-0.70555 -3.1731,-0.70556 -2.1154,-2.8194 -2.1154,-3.17218 -1.7628,-3.175 -0.7051,-2.11384 -0.3526,-2.11667 -0.3526,-1.40829 0,-1.76389 0,-4.58329 0.7052,-5.64162 0.7051,-6.34435 1.0577,-7.40551 1.0577,-7.75547 2.8205,-15.86653 3.5256,-15.86372 3.1731,-13.39991 1.7628,-5.6388 1.4103,-4.23051 1.4102,-2.82222 0.7052,-1.05833 0.3526,-0.34996 2.1153,-1.41111 2.1154,-0.70556 2.468,-0.70555 2.8205,-0.35278 5.9937,0 3.173,0.35278 3.173,0.35278 13.3974,2.11666 6.6988,1.05551 3.1731,0 3.173,0.35278 136.4423,0 47.2437,-0.35278 46.5379,-0.35277 46.1857,-0.70274 46.1856,-0.70555 46.1857,-0.70556 46.5384,-0.70555 46.8913,-0.70556 47.9495,0 139.6153,-1.05833 32.7886,-2.11385 z m -14.1026,131.50709 249.96703,0.35278 250.32262,0.70273 249.9671,0.35278 250.3198,0.70556 8.461,1.05833 8.8138,1.05833 9.1694,0.70556 9.1666,0.35278 18.6859,0.70273 19.7415,0 241.156,0 9.1666,0 11.6332,-0.70273 13.0443,-0.70556 13.7499,-0.70555 6.3472,-0.35278 6.6971,0 5.9944,0 5.2888,0 4.9361,0.35278 2.1167,0.35277 2.1138,0 3.1722,0.70556 1.0583,0.70273 1.0584,0.35278 4.936,8.46384 -3.1721,27.49974 -0.3528,5.28602 -0.3528,4.93607 -0.3528,5.28884 0.3528,4.93607 0.3528,4.93606 0.7055,4.58329 1.0555,9.51936 1.4112,8.8138 0.7055,4.58329 0.3528,4.23051 0.3528,4.23051 0,3.88056 -0.3528,3.87773 -0.7056,3.87773 -1.7639,1.05834 -1.761,1.05833 -3.5278,1.76111 -2.1138,0.7055 -2.1167,0.7056 -2.1139,0.3527 -2.4694,0.3528 -4.5833,0.7056 -4.9361,0.3499 -5.2888,0 -5.286,0 -10.9305,-0.7027 -11.636,-1.0583 -11.986,-0.7056 -5.6416,-0.3528 -5.9916,0 -26.797,-0.3527 -27.1469,-0.3528 -26.7942,-0.3528 -26.7942,-0.70556 -53.2384,-1.05551 -26.0886,-0.35277 -25.3859,0 -10.9305,0.35277 -13.3971,0.35278 -14.1026,0.70273 -14.4554,0.35278 -7.0499,0 -6.7,-0.35278 -6.3444,-0.34995 -5.6416,-1.05833 -2.4666,-0.35278 -2.4694,-0.70556 -2.1139,-0.70555 -1.7639,-1.05834 -1.7639,-0.70555 -1.4083,-1.05551 -1.0583,-1.41111 -0.7055,-1.41112 -2.1167,-19.39148 -1.4083,-0.70274 -1.7639,-0.70555 -3.1722,-1.41111 -3.5249,-0.70556 -3.8806,-0.70556 -4.2305,-0.35277 -4.2305,-0.34996 -9.1666,0.34996 -9.8721,0.70555 -9.5194,0.70556 -9.8721,0.70555 -9.1666,0.35278 -184.7426,-1.05833 -3.8778,0 -3.5249,0 -3.5278,0 -3.525,0.35278 -6.6971,1.05833 -6.3472,1.41111 -3.1722,0.70273 -3.175,0.35278 -3.1721,0.35278 -2.8194,0 -3.175,-0.35278 -2.8194,-0.35278 -2.8194,-1.05551 -2.8223,-1.41111 -1.4111,-6.69995 -1.0555,-3.87774 -0.7055,-3.87773 -1.4111,-3.87773 -1.4112,-3.52496 -0.7027,-1.41111 -1.0583,-1.41111 -1.0584,-1.05834 -1.4111,-0.70273 -1.0555,-0.35278 -2.1166,-0.35277 -5.9944,0.35277 -8.1083,0.70556 -9.8721,0.70273 -20.447,2.11667 -8.8166,0.70555 -7.4027,0 -186.5066,0 -4.2305,0 -4.5833,0.35278 -9.5193,0.70556 -20.0971,2.11384 -9.5193,0.35278 -4.5833,0 -3.8778,0 -3.8777,-0.35278 -1.7639,-0.35278 -1.7611,-0.35277 -2.8222,-1.05834 -1.0555,-0.70273 -1.0583,-0.70556 -1.0584,-0.70555 -0.7055,-0.70556 -1.4083,-1.41111 -0.3528,-1.05551 -0.7055,-0.70555 -0.7056,-2.11667 -1.4111,-4.23051 -1.4083,-4.23051 -0.3528,-2.11667 -0.7055,-2.11384 -1.0584,-2.11667 -1.0583,-1.76107 -1.0583,-1.76389 -1.7611,-1.41111 -1.7639,-1.40829 -2.1138,-0.70555 -25.7387,2.8194 -74.7437,0 -194.26205,0 -65.5771,-1.76107 -1.7639,1.40829 -0.7028,1.05833 -0.7055,0.70556 -1.0584,2.11667 -1.0583,2.11384 -0.7055,2.11667 -0.7056,2.46662 -1.4083,4.23051 -1.0583,4.58329 -0.7056,2.11667 -1.0583,1.76106 -1.0555,1.76389 -1.4111,1.76389 -1.7639,1.40829 -2.1139,1.05833 -1.7639,0.35278 -1.7638,0.35278 -1.7611,0 -1.4111,0 -3.1722,-0.35278 -2.8222,-0.35278 -2.8194,-0.70555 -2.8194,-1.05834 -2.8222,-0.70273 -2.4667,-0.70556 -71.9243,0 -3.525,-0.70555 -2.8194,-1.05833 -5.9944,-2.11385 -2.8222,-0.70555 -3.1722,-0.70556 -3.1721,-0.70556 -3.1722,0 -1.4111,1.41112 -1.4111,1.76106 -1.0584,1.76389 -0.7027,2.11667 -0.7056,2.11384 -0.7055,2.11667 -1.0583,4.58329 -1.4112,4.58329 -0.7027,2.11384 -0.7055,2.11667 -1.0584,1.76106 -1.0583,1.76389 -1.7639,1.41111 -1.7611,1.05552 -2.1166,1.05833 -1.4083,0 -1.0584,0.35278 -2.4694,0.35277 -2.8194,0 -2.8194,-0.35277 -2.8222,-0.35278 -5.9944,-1.40829 -6.6972,-1.05833 -6.3471,-1.41111 -3.525,-0.35278 -3.1722,0 -3.5277,0 -3.525,0 -140.3209,1.05833 -50.4162,-2.11667 -6.3443,5.28885 0.3499,2.46944 0.7056,2.8194 0.7055,5.28885 0.3528,2.46662 0,2.46944 0,1.41112 0,1.05551 -1.0583,2.46944 -0.7056,1.41111 -1.0555,1.05551 -1.0583,1.05834 -1.4111,0.70555 -1.7611,0.70556 -1.7639,0.70555 -1.7639,0.70556 -2.1138,0.34995 -4.2305,0.70556 -4.9361,0.3528 -5.2888,0 -5.2889,0 -5.6416,0 -5.6416,-0.3528 -10.9277,-1.05551 -10.5774,-0.70556 -4.5833,-0.35277 -3.8783,0 -184.0382,0 -4.5836,0 -4.9358,0.35277 -9.8718,1.05551 -9.5191,1.05836 -4.9361,0.3528 -4.5832,0.3527 -4.2308,0 -3.8783,-0.3527 -3.878,-0.7056 -2.1156,-0.35278 -1.4102,-0.70273 -1.7628,-0.70556 -1.7628,-0.70555 -1.4103,-1.05834 -1.4102,-1.05833 -1.0577,-1.05833 -1.0577,-1.40829 -1.0577,-1.76389 -1.0577,-1.41111 -5.9936,-64.8716 -8.4615,-28.55525 5.2884,-8.46384 2.8206,-0.70273 2.8205,-0.35278 5.2885,-0.70556 5.6409,0 5.2886,0.35278 11.6346,1.05551 6.346,0.35278 6.3464,0 133.269,0 46.1859,0 45.4807,-0.70273 45.1273,-0.35278 44.7774,-1.05833 45.1274,-0.70556 45.1273,-0.70556 45.8357,-0.35277 46.8884,0 129.3932,0 49.3579,-2.11385 z m 33.8469,133.26818 275.00015,0.3528 275.0002,0.7055 34.5496,0.3528 33.8469,0.3528 33.1414,0.7027 33.1413,0.7056 33.4942,0.7055 34.1968,0.7056 35.258,0.3527 36.6664,0.3528 146.6652,0 55.3522,4.9361 7.0528,0 7.4027,-0.3528 14.4554,-0.7055 13.7499,-1.0584 13.397,-0.3528 6.3472,0 5.9944,0.3528 5.6416,0.7056 2.8194,0.3528 2.4667,0.7055 2.8222,0.7056 2.1138,1.0583 2.4695,0.7027 2.1138,1.4111 2.1167,1.0584 2.1138,1.4111 1.7639,1.7611 1.7639,1.7638 -3.175,24.6776 -0.7055,4.5861 0,4.5833 0,4.9332 0.3527,4.5833 0.3528,4.5833 0.7056,4.2333 1.4111,8.8138 0.3528,4.2305 0.7055,4.2305 0.3528,3.8778 0,3.8777 0,1.7639 -0.3528,1.7611 -0.7055,3.8805 -1.0584,3.1722 -0.7055,1.7639 -0.7056,1.761 -3.1722,0.7056 -4.936,0.7056 -7.0499,0.7055 -8.1111,0.3528 -9.5194,0.3528 -10.2221,0.3499 -10.9304,0 -11.2833,0 -11.2804,0 -10.9305,-0.3499 -5.2888,-0.3528 -4.9361,-0.3528 -9.8721,-0.7055 -8.461,-0.7056 -7.0499,-1.0583 -3.175,-0.7056 -2.4667,-0.7027 -2.1166,-0.7056 -1.7611,-0.7055 -0.3528,-2.8223 -0.7055,-3.5249 -0.7056,-7.4027 -0.7055,-3.8777 -0.7056,-3.5278 -0.7027,-3.1722 -1.0584,-2.4666 -3.5249,-0.7056 -3.175,-0.3527 -3.8777,-0.3528 -3.525,0 -3.8777,0 -4.2305,0 -8.1111,0.3528 -16.9221,1.4111 -8.8138,0.7027 -4.2305,0 -4.5833,0 -187.5648,0 -7.05,0.3528 -6.6999,0.7055 -12.6915,1.4111 -5.9944,0.7056 -5.6417,0 -5.6416,0 -2.8194,-0.3528 -2.8194,-0.7055 -1.0583,-1.7639 -1.0584,-1.7611 -1.4111,-4.2305 -3.1721,-8.1111 -1.4112,-3.8777 -2.1138,-3.8777 -1.0583,-1.7639 -1.0584,-1.4083 -1.4083,-1.7639 -1.7638,-1.0583 -13.0444,3.8777 -8.461,2.4694 -4.5833,1.0584 -4.2305,0.7055 -4.5833,0.7028 -4.5861,0.7055 -4.2305,0.3528 -4.2305,0 -3.8777,-0.3528 -3.525,-0.7055 -1.7639,-0.7028 -1.4083,-0.3527 -1.7639,-1.0584 -1.0583,-0.7055 -1.4111,-1.0584 -1.4083,-1.4083 -1.0583,-1.4111 -0.7056,-1.7639 -1.4111,-3.1721 -1.4083,-3.8778 -1.0583,-3.5277 -0.7056,-1.4083 -1.0583,-1.7639 -0.3528,-0.7056 -0.7027,-0.7055 -1.0583,-1.4083 -1.4112,-1.4111 -1.761,-1.0584 -1.7639,-0.7055 -1.7639,-0.7028 -1.7611,-0.3527 -2.1166,0 -1.7639,-0.3528 -2.1139,0 -4.2305,0.3528 -8.8138,1.0555 -4.2305,0.7055 -4.2305,0 -124.4572,0 -155.479,0 -155.48185,0 -104.7101,0 -4.2334,0 -4.2305,-0.7055 -8.1082,-0.7028 -4.2305,-0.3527 -3.8778,-0.3528 -3.8777,0.3528 -4.2305,0.7055 -1.7639,3.1722 -1.0583,3.1722 -1.0584,3.5249 -0.7027,3.5278 -1.7639,7.4027 -0.7055,3.525 -1.0584,3.5277 -2.4666,1.0555 -2.1167,0.3528 -2.4666,0.7056 -2.1166,0 -2.1139,0 -2.1167,0 -4.2305,-0.7056 -4.2305,-1.0583 -4.2305,-1.4083 -4.2305,-1.0583 -4.5833,-1.0584 -55.3522,1.0584 -8.1111,-1.4111 -8.461,-1.4083 -3.8778,-0.3528 -4.2305,-0.3528 -4.2305,0 -4.2305,0.3528 -1.0583,3.5249 -1.4111,3.8778 -1.4083,3.8777 -1.4111,3.8777 -1.4111,3.5278 -1.0584,1.7611 -1.0555,1.7639 -1.0583,1.4111 -0.7056,0.7027 -0.7055,0.3528 -0.7056,0.7056 -0.7027,0.7055 -1.4111,0.7056 -230.9312,-4.2305 -0.7027,0.7055 -0.7056,0.3528 -1.0583,1.4083 -0.7056,1.7639 -0.3527,1.7639 -0.3528,2.1138 0,2.1167 0,4.5833 0.3528,4.936 0,4.5833 0,2.1139 -0.3528,2.1166 -0.7056,1.7611 -0.7027,1.7639 -3.175,0.7055 -2.8194,0.3528 -3.525,0.3528 -3.175,0.3528 -6.6971,0 -7.0527,-0.3528 -15.1582,-1.0583 -7.7583,-0.3528 -8.1082,0 -168.1734,0 -7.7563,0 -10.2244,0.7055 -24.327,1.4083 -11.9871,0.7056 -10.5768,0.3528 -4.2308,0 -3.173,0 -2.4681,0 -1.4102,-0.3528 -0.7053,-0.3528 -0.705,-1.0555 -2.1155,-3.175 -2.4678,-4.5833 -2.468,-5.6388 -3.1731,-6.7 -3.173,-7.7554 -6.3463,-16.2193 -3.173,-8.4611 -3.1731,-8.461 -5.2885,-15.5137 -2.1153,-6.6972 -1.7627,-5.6416 -1.0578,-4.2305 -0.3525,-2.8222 6.346,-10.2249 2.4681,-0.7028 2.4677,-0.3527 2.4681,-0.3528 2.468,0 2.8205,0 2.4678,0.3528 4.936,0.3527 5.2886,0.7028 5.2883,1.0583 10.2243,1.7639 124.4552,0 117.7553,0 10.5777,-1.4111 10.9304,-1.4111 10.5777,-1.4083 5.6388,-0.3528 5.6417,-0.7056 5.6416,-0.3527 5.6416,-0.3528 11.2804,-0.3528 11.636,0 11.986,0.3528 189.6788,0 9.1665,-0.7056 8.8167,-0.7055 9.1665,0 9.1666,0 8.8138,0 9.1666,0.3528 18.3331,0.7055 17.6276,0.7056 8.8138,0 8.8138,0 8.4611,0 8.4638,-0.7056 3.8777,-0.3528 4.2306,-0.3527 3.8777,-0.3528 3.8777,-0.7028 29.9692,-2.1166 z m 18.3331,131.5071 99.4241,0 99.42126,0.3527 98.71849,0.7056 98.7185,0.35 197.0815,1.0583 98.7185,0.3528 98.3657,0.3527 155.1291,0 52.1801,4.9361 12.3387,-0.3528 13.3971,-0.7055 14.1026,-1.0584 7.0528,-0.7027 7.0499,-0.3528 6.6999,-0.3527 6.6972,0 6.3472,0.3527 3.1721,0 3.1722,0.3528 2.8222,0.3528 2.8194,0.7027 5.2889,1.0584 2.1166,0.7055 2.4667,1.0583 2.1166,1.0584 1.7611,1.0555 0.7056,2.8222 0.7055,4.2305 0.3528,5.6416 0.3528,6.6972 0.7055,15.5137 0,17.2749 -0.3528,16.9248 -0.7055,15.1582 -0.7056,6.3472 -0.3527,4.936 -0.3528,2.1139 -0.3528,1.7639 -0.3528,1.4111 -0.7055,0.7055 -2.1139,0.7028 -2.4694,0.7055 -4.2305,0.3528 -4.2305,0 -4.2306,-0.3528 -4.2305,-0.7055 -4.2305,-0.7028 -8.8138,-2.1166 -3.1722,-0.3528 -3.175,-0.3528 -5.9915,-0.7056 -5.9944,0 -5.9944,0 -5.9944,0.3528 -5.9916,0.7056 -11.636,1.0583 -11.2805,1.4111 -10.5776,0.7028 -5.2889,0 -4.9361,0 -2.4666,-0.3528 -2.4694,-0.35 -4.5833,-1.0583 -1.0583,-1.4111 -0.7028,-1.7639 -1.7639,-4.2305 -1.0583,-4.2305 -1.4111,-4.5833 -1.4083,-4.5833 -1.4111,-4.5833 -1.4111,-3.8777 -2.1139,-3.525 -3.8777,0.3528 -3.5278,0.3528 -3.1722,0.7055 -3.1721,0.7028 -5.2889,1.4111 -2.8222,1.0583 -2.8194,0.7056 -193.9092,0 -7.7583,0 -10.5749,0.7055 -24.3276,1.7611 -21.8581,1.4111 -7.7583,0.3528 -2.4666,0 -1.0583,-0.3528 -2.1167,-1.0583 -0.7027,-0.7056 -0.7056,-1.0583 -1.4111,-1.7611 -1.0583,-2.1167 -1.0555,-2.1138 -0.7056,-2.8222 -1.4111,-5.2889 -1.4111,-5.286 -1.4083,-5.2888 -1.0583,-2.4695 -1.0584,-2.1138 -1.0583,-2.1167 -1.4083,-1.7611 -3.175,0.3528 -3.5249,0.7027 -3.525,0.7056 -3.5249,1.0583 -7.4056,2.1167 -7.4026,2.1138 -3.8778,0.7056 -3.5278,1.0583 -3.8777,0.3528 -3.8777,0.3528 -3.8778,0 -3.5249,-0.3528 -3.8806,-0.7055 -3.5249,-1.0584 -1.7639,-1.0583 -1.7611,-1.0583 -1.4111,-1.4083 -1.4111,-1.4111 -1.0555,-1.7639 -0.7056,-1.4083 -1.7639,-3.5278 -1.4082,-3.525 -1.7639,-3.1721 -1.0584,-1.4111 -1.4111,-1.4083 -1.4083,-1.4111 -1.4111,-1.0584 -1.0583,-0.7055 -1.4083,-0.3528 -2.1167,-0.3528 -2.4666,-0.3528 -6.3472,-0.7027 -7.7554,-0.3528 -8.8167,-0.3528 -9.5165,0 -21.5081,0.3528 -22.2109,0.3528 -20.8026,0.7027 -17.2749,0.3528 -7.0499,0.3528 -5.2888,0 -161.8262,0 -161.47625,0 -12.6916,-0.3528 -16.5721,-0.3528 -19.0359,-0.7027 -19.7442,-0.3528 -19.0387,-0.3528 -8.8138,0 -7.7583,0.3528 -7.0499,0.3528 -5.9944,0.7027 -4.5833,0.7056 -1.7611,0.3528 -1.0583,0.7055 -1.7639,6.3472 -2.1139,5.9916 -1.4111,3.175 -1.0583,2.8194 -1.4111,2.8222 -1.4083,2.4666 -2.4694,0.3528 -2.8194,0.3528 -4.9361,0.3528 -5.2889,0 -5.6416,0 -10.9276,-1.4112 -11.2833,-1.7638 -32.7885,1.0583 -3.8778,-0.7056 -3.8777,-1.0555 -4.2305,-1.0583 -4.2305,-1.0583 -4.5833,-1.0584 -4.2305,-0.3528 -1.7639,0 -2.1167,0.3528 -2.1138,0.3528 -1.7639,0.3528 -5.2889,3.1722 0,1.7638 0,2.1167 -0.3527,4.2305 -0.3528,8.8138 -0.7028,4.2305 -0.3527,1.7639 -0.7056,1.7611 -0.7055,1.7639 -0.7056,1.0583 -1.0583,1.4083 -1.0555,0.7056 -2.1167,1.4111 -2.4666,0.7055 -2.4695,0.3528 -2.4666,0 -2.8222,0 -2.8194,-0.3528 -6.3472,-1.0583 -6.3444,-1.0583 -6.3471,-1.4112 -6.7,-1.0555 -3.1722,-0.3527 -3.1721,0 -135.3849,1.0555 -2.4694,-0.35 -2.4666,-0.3528 -2.4695,-0.7055 -2.4666,-0.7056 -4.5833,-1.7639 -4.9361,-1.761 -4.5832,-1.4111 -2.1167,-0.7056 -2.4666,-0.3528 -2.1167,-0.3528 -2.4666,0 -2.4695,0.3528 -2.4666,0.7056 -5.2888,3.1722 1.0583,24.6803 -5.9944,4.9361 -0.7056,0.3527 -1.4082,0.3528 -3.5278,0 -4.9361,0.3528 -6.3443,0 -15.5138,-0.3528 -18.3332,-0.7055 -36.3135,-1.0584 -15.161,-0.7055 -10.5777,0 -135.7359,0 -2.8205,0 -3.173,0.3527 -6.6988,0.7056 -7.0514,1.0583 -6.6985,0.7056 -6.6988,0.7055 -3.1731,0 -3.173,-0.3527 -3.1733,-0.3528 -2.4677,-0.7056 -2.8206,-1.0583 -2.1155,-1.0583 -1.0575,-0.7028 -0.7053,-1.0583 -1.0577,-1.0583 -1.0575,-1.4111 -1.7631,-2.8194 -1.7627,-3.525 -0.705,-1.7639 -1.0578,-1.7639 -1.7627,-4.2305 -3.5258,-9.1666 -5.9936,-18.3331 -2.8205,-7.7555 -2.4678,-5.9944 -0.7053,-1.4111 -0.705,-1.0555 -1.4102,-2.4695 -1.7631,-2.1138 -1.7627,-1.7639 -3.878,-3.8777 -3.8783,-3.8778 -1.7628,-1.7638 -1.4103,-2.1139 -0.7052,-1.0583 -0.705,-1.4111 -0.7053,-1.0584 -0.3525,-1.4083 -0.3525,-1.4111 -0.3525,-1.0583 -0.7053,-3.1722 0,-3.1722 0.3525,-2.1166 0.3528,-1.7639 2.1153,-1.0555 2.8205,-0.7056 3.173,-1.0583 3.5258,-0.7056 3.878,-0.7055 4.5833,-0.3528 9.8719,-1.0555 5.2886,0 5.641,-0.3528 5.9936,-0.3528 5.9935,0 26.0898,0 27.1475,0.3528 26.4422,1.0555 23.6218,0.7056 19.0384,0 46.1868,0 45.4801,-0.3528 45.4801,-0.7056 45.4801,-0.7027 45.4829,-1.0583 46.1857,-0.3528 46.8912,-0.7056 47.594,0 144.5514,-1.0583 25.7387,-2.1138 z m 793.62025,128.3321 2.4694,0.3527 2.4666,0.3528 1.7639,0.7056 2.1167,0.7055 3.1722,1.7611 3.1722,2.1167 1.0583,3.8777 0,3.8777 0,3.175 -0.3528,1.7611 -0.3528,1.4111 -0.7055,1.7639 -0.7056,1.4083 -1.4083,2.8222 -1.7639,2.4666 -2.1138,2.4695 -1.4111,1.0555 -1.0583,1.0583 -2.8194,1.7639 -2.8223,1.7611 -3.1721,1.4111 -3.1722,1.4111 -3.175,1.0583 -3.525,0.7028 -3.1722,0.7055 -24.6803,-2.8194 -112.8211,0 -230.2228,0 -229.87284,0 -105.41561,0 -5.6417,-1.0583 -5.9944,-1.0584 -5.9915,-1.0555 -6.3472,-0.7055 -2.8222,0 -2.8194,0 -2.8194,0 -2.4695,0.3528 -2.1138,0.7027 -2.1167,1.0583 -1.7611,1.0584 -0.7055,0.7055 -0.7056,0.7056 -0.7055,1.4083 -0.3528,1.7638 -1.0583,3.1722 -1.0556,7.4055 -0.3527,3.8778 -0.7056,3.5249 -0.7055,3.1722 -1.0584,2.4694 -2.4666,0.3528 -2.8222,0 -5.2889,0 -5.9915,-0.3528 -6.3472,-0.7055 -13.3971,-1.7639 -13.7499,-2.1138 -13.3971,-2.4695 -13.0443,-1.7611 -5.9944,-0.7055 -5.6416,0 -2.4666,0 -2.4695,0 -4.5833,0.3528 -2.1138,3.1721 -1.0583,1.4112 -0.7056,1.7638 -0.3528,1.7611 -0.3527,1.7639 0,2.1138 0.3527,1.7639 0.3528,4.2305 0.7056,4.2306 0.3527,4.2305 -0.3527,2.1166 -0.3528,2.1139 -0.7056,2.1166 -0.7055,2.1139 -3.525,0.7055 -3.1722,0.3528 -3.175,0.3528 -3.1721,0 -3.1722,-0.3528 -3.175,-0.3528 -6.3444,-0.7055 -13.3971,-2.1139 -3.8805,-0.3527 -3.525,-0.3528 -3.8777,-0.3528 -4.2305,0 -118.11,0 -1.7611,-0.3528 -1.7639,-0.7055 -3.5249,-1.7611 -3.525,-1.7639 -3.8805,-1.7639 -1.7611,-0.7027 -2.1167,-0.7056 -1.761,-0.7055 -2.1167,-0.3528 -2.1167,-0.3528 -2.1138,0 -2.1167,0.3528 -2.1138,0.7056 -1.4111,0.7055 -1.0584,1.0555 -1.0555,1.0584 -0.7055,0.7055 -0.7056,2.1167 -0.3528,1.0555 0,1.0583 0,2.4695 0.7056,2.1138 1.0583,2.4695 1.4083,2.4666 2.4695,4.5833 2.8194,4.5833 0.3527,1.0583 0.3528,1.0583 0.7056,1.7611 0,1.0583 0,1.0584 0,0.7055 -0.3528,0.7056 -1.0583,1.0555 -1.0584,1.0583 -2.1138,0.3528 -1.7639,0.3528 -1.7611,0 -4.936,0 -5.9944,0 -14.8082,-0.3528 -17.2749,-0.7056 -34.9052,-1.761 -14.4554,-0.7056 -10.9277,-0.3528 -129.3915,0 -40.8977,5.2889 -2.4677,-0.7056 -2.1156,-1.0583 -4.5833,-2.4666 -2.1152,-1.4111 -2.1156,-1.4111 -2.468,-2.1139 -2.1153,-1.7639 -4.2308,-4.2305 -4.2307,-4.9361 -4.2308,-5.2888 -3.8781,-5.2888 -3.8783,-5.6417 -3.5258,-5.286 -7.4038,-10.9305 -6.346,-10.2249 -3.173,-4.2305 -2.8206,-3.8777 -1.4102,-1.7639 -1.7628,-1.7611 -1.763,-1.7639 -1.7628,-1.4111 -4.2308,-2.8194 -4.2308,-2.8194 -3.878,-2.8222 -3.8783,-3.1722 -1.7628,-1.7639 -1.4102,-1.761 -1.4103,-1.7639 -1.0578,-2.1167 0,-9.1666 1.0578,-1.4082 1.4103,-1.0584 1.7627,-1.0583 1.7628,-1.0583 2.1155,-0.7056 2.1153,-0.7027 2.468,-0.7056 2.4681,-0.7055 5.6407,-0.7056 5.9939,-0.3528 6.346,0 6.3461,0 13.7501,1.0584 13.7499,0.7055 6.6988,0.7056 5.9936,0.3527 5.9935,0.35 5.6411,0 266.8916,-2.1138 189.326,-0.7056 189.6787,-0.3528 189.68155,-0.3528 189.6787,-0.3527 221.7618,0 12.6943,0 13.0444,0.7055 13.7498,0.3528 7.0499,0.3528 7.0528,0.3528 6.6971,0 6.7,-0.3528 6.6971,-0.3528 6.3472,-0.3528 2.8222,-0.3528 3.1722,-0.3527 2.8194,-0.7056 2.8222,-0.3499 5.286,-1.4112 4.9361,-1.7638 z m -119.1655,130.4487 4.5833,-0.3528 4.2305,0.3528 3.8777,0.3528 3.5278,0.7055 2.8194,0.7056 3.1722,1.4111 2.8222,1.0555 2.4666,1.7639 1.0583,3.525 0.7056,1.7639 0.3528,2.1138 0,2.1167 0,2.1138 -0.3528,1.7639 -0.7056,2.1167 -1.0583,2.1138 -1.7639,2.4695 -1.7611,2.1138 -2.4694,1.7639 -2.1138,1.4083 -2.4695,1.4111 -1.4083,0.7055 -1.4111,0.3528 -1.4111,0.7056 -1.4083,0.3528 -45.1301,-3.175 -87.4353,0 -160.0652,0 -160.0623,0 -108.94342,1.0583 -4.23053,-0.7056 -4.2305,-0.7055 -8.1082,-1.0555 -3.8778,-0.3528 -4.2305,-0.3528 -3.8805,0.3528 -2.1139,0.3528 -2.1167,0.3527 -0.3527,1.7611 0,1.4111 0,2.8194 0.3527,2.8222 0.3528,2.4667 1.7639,5.6416 0.3528,3.1722 0.7055,3.5277 -6.3471,5.2861 -1.7639,0.7055 -2.1139,0.7056 -2.1166,0.3528 -2.1139,0.3527 -2.1166,0 -2.4667,0 -2.4694,0 -2.1139,-0.3527 -4.936,-0.7056 -4.9361,-1.0583 -9.8721,-2.8194 -4.9361,-1.7639 -4.9361,-1.4083 -4.936,-1.4111 -4.5833,-1.0584 -4.5833,-0.7055 -4.2305,-0.3528 -1.7639,0 -2.1138,0.3528 -1.7639,0.3528 -1.0584,0 -0.7027,0.3527 -2.1167,1.0584 -1.0583,0.7055 -1.0583,0.7056 -1.0555,1.7611 -1.0584,1.7638 -0.3528,1.7639 -0.3527,1.7611 0,1.7639 0,1.7611 0.3527,1.7638 0.7056,1.4112 1.0583,1.761 1.7611,3.175 2.1167,2.8194 3.8777,4.9361 -2.8194,9.1666 -3.5278,0.3527 -3.1722,0 -3.1721,0 -3.175,-0.3527 -2.8194,-0.7056 -2.8194,-0.3528 -5.9944,-1.761 -11.2833,-3.175 -2.8194,-0.7056 -3.1722,-0.7027 -3.1749,-0.3528 -3.1722,-0.3528 -90.2575,1.0584 -5.2889,-1.7639 -4.936,-1.7639 -5.286,-1.7611 -4.9361,-1.7639 -5.2889,-1.4111 -2.8222,-0.3528 -2.8194,-0.3499 -2.8194,-0.3528 -2.8222,0.3528 -3.1722,0.3499 -3.1722,0.3528 -1.0583,2.1167 0.7056,2.1138 0.3527,1.7639 0.7028,1.7639 1.0583,1.4083 1.7639,2.4694 1.7611,2.4667 1.7639,2.4694 1.7638,2.8194 1.0556,1.4111 0.7055,1.7639 0,1.0555 0.3528,1.0583 0.3528,2.1167 -7.0499,5.9916 -3.8778,1.0583 -4.9361,0.7056 -5.6416,0.3528 -6.6999,0.3527 -7.0499,0 -7.4056,0 -16.2164,-0.7055 -16.5721,-0.7056 -16.2165,-1.0583 -14.8082,-0.7056 -12.3388,0 -104.7129,0 -5.9944,0.7056 -6.3443,1.4111 -6.3472,1.0583 -6.6971,1.0584 -6.7,0.7027 -6.6971,0.3528 -5.9944,-0.3528 -2.8223,-0.35 -2.8194,-0.7055 -1.0583,-0.3528 -1.7611,-1.0583 -4.5832,-2.8194 -5.9944,-4.2334 -7.4056,-5.286 -8.461,-6.3472 -9.5193,-7.0527 -9.8722,-7.7555 -9.8693,-7.7554 -19.7448,-15.8666 -17.6282,-14.4554 -7.0513,-5.9916 -5.6411,-4.936 -4.2307,-3.8778 -2.1153,-2.4694 1.0578,-5.2888 1.4102,-1.0584 1.4103,-1.0555 1.7628,-1.0583 1.4102,-1.0584 1.7628,-0.7055 1.7627,-0.7056 3.8783,-1.0555 3.8781,-0.7055 4.2307,-0.3528 4.2308,0 4.5833,0 4.5836,0.3528 4.5833,0.3527 9.8721,1.0556 9.5194,0.7055 4.936,0.3528 4.9361,0 182.626,1.0583 7.7583,-1.0583 8.1082,-1.0583 16.2194,-1.7611 16.5692,-1.0583 16.5693,-1.0584 17.2776,-0.7055 17.2748,0 17.6276,-0.35 17.6277,0.35 35.6107,0.3527 35.2552,1.0584 34.9053,0.7055 17.2748,0.3528 16.9221,0 51.4745,0 51.8273,-0.7055 51.82725,-0.7056 52.18007,-0.7056 52.18003,-0.7027 52.5301,-0.7055 52.8856,-0.3528 52.8856,0 190.0315,0 9.8721,0 10.5777,0.7055 11.2805,0.7028 11.636,0.3527 10.9276,0.3528 5.6416,-0.3528 5.2889,-0.3527 4.9361,-0.35 2.4666,-0.3528 2.1166,-0.7055 2.4667,-0.3528 2.1166,-0.3528 3.8778,-1.4111 z"
         id="path5439"
         inkscape:connector-curvature="0" />
    </g>
  </g>
</svg>
