<?xml version="1.0" encoding="UTF-8" standalone="no"?>
<!-- Created with Inkscape (http://www.inkscape.org/) -->

<svg
   xmlns:dc="http://purl.org/dc/elements/1.1/"
   xmlns:cc="http://creativecommons.org/ns#"
   xmlns:rdf="http://www.w3.org/1999/02/22-rdf-syntax-ns#"
   xmlns:svg="http://www.w3.org/2000/svg"
   xmlns="http://www.w3.org/2000/svg"
   xmlns:sodipodi="http://sodipodi.sourceforge.net/DTD/sodipodi-0.dtd"
   xmlns:inkscape="http://www.inkscape.org/namespaces/inkscape"
   width="800mm"
   height="800mm"
   viewBox="0 0 2834.6457 2834.6457"
   id="svg2"
   version="1.1"
   inkscape:version="0.91 r13725"
   sodipodi:docname="dipreca.svg">
  <defs
     id="defs4">
    <clipPath
       id="clipPath4154"
       clipPathUnits="userSpaceOnUse">
      <path
         inkscape:connector-curvature="0"
         id="path4156"
         d="M 0,792 612,792 612,0 0,0 0,792 Z" />
    </clipPath>
    <clipPath
       id="clipPath4879"
       clipPathUnits="userSpaceOnUse">
      <path
         inkscape:connector-curvature="0"
         id="path4881"
         d="m 0,784.567 793.701,0 L 793.701,0 0,0 0,784.567 Z" />
    </clipPath>
    <clipPath
       id="clipPath5009"
       clipPathUnits="userSpaceOnUse">
      <path
         inkscape:connector-curvature="0"
         id="path5011"
         d="m -336.46,98.8652 672.92,0 0,-197.7314 -672.92,0 0,197.7314 z" />
    </clipPath>
    <clipPath
       id="clipPath9212"
       clipPathUnits="userSpaceOnUse">
      <path
         inkscape:connector-curvature="0"
         id="path9214"
         d="m 0,335 516.475,0 0,-335 L 0,0 0,335 Z" />
    </clipPath>
    <clipPath
       id="clipPath9340"
       clipPathUnits="userSpaceOnUse">
      <path
         inkscape:connector-curvature="0"
         id="path9342"
         d="m -336.46,98.8652 672.92,0 0,-197.7314 -672.92,0 0,197.7314 z" />
    </clipPath>
    <pattern
       y="0"
       x="0"
       height="6"
       width="6"
       patternUnits="userSpaceOnUse"
       id="EMFhbasepattern" />
    <pattern
       y="0"
       x="0"
       height="6"
       width="6"
       patternUnits="userSpaceOnUse"
       id="EMFhbasepattern-3" />
    <pattern
       y="0"
       x="0"
       height="6"
       width="6"
       patternUnits="userSpaceOnUse"
       id="EMFhbasepattern-30" />
    <pattern
       y="0"
       x="0"
       height="6"
       width="6"
       patternUnits="userSpaceOnUse"
       id="EMFhbasepattern-37" />
    <pattern
       y="0"
       x="0"
       height="6"
       width="6"
       patternUnits="userSpaceOnUse"
       id="EMFhbasepattern-5" />
  </defs>
  <sodipodi:namedview
     id="base"
     pagecolor="#ffffff"
     bordercolor="#666666"
     borderopacity="1.0"
     inkscape:pageopacity="0.0"
     inkscape:pageshadow="2"
     inkscape:zoom="2.1620602"
     inkscape:cx="141.32244"
     inkscape:cy="2767.8517"
     inkscape:document-units="px"
     inkscape:current-layer="layer1"
     showgrid="false"
     inkscape:window-width="1920"
     inkscape:window-height="1138"
     inkscape:window-x="1358"
     inkscape:window-y="-8"
     inkscape:window-maximized="1"
     showguides="true"
     inkscape:guide-bbox="true">
    <sodipodi:guide
       position="1369.773,1440.4552"
       orientation="0,1"
       id="guide11511" />
    <sodipodi:guide
       position="957.86614,1440.4552"
       orientation="1,0"
       id="guide11513" />
    <sodipodi:guide
       position="2790.7296,1355.149"
       orientation="1,0"
       id="guide11515" />
  </sodipodi:namedview>
  <metadata
     id="metadata7">
    <rdf:RDF>
      <cc:Work
         rdf:about="">
        <dc:format>image/svg+xml</dc:format>
        <dc:type
           rdf:resource="http://purl.org/dc/dcmitype/StillImage" />
        <dc:title />
      </cc:Work>
    </rdf:RDF>
  </metadata>
  <g
     inkscape:label="Capa 1"
     inkscape:groupmode="layer"
     id="layer1"
     transform="translate(0,1782.2835)">
    <flowRoot
       xml:space="preserve"
       id="flowRoot4823"
       style="fill:black;stroke:none;stroke-opacity:1;stroke-width:1px;stroke-linejoin:miter;stroke-linecap:butt;fill-opacity:1;font-family:sans-serif;font-style:normal;font-weight:normal;font-size:40px;line-height:125%;letter-spacing:0px;word-spacing:0px"><flowRegion
         id="flowRegion4825"><rect
           id="rect4827"
           width="1321.4423"
           height="148.09267"
           x="497.43948"
           y="2621.9998" /></flowRegion><flowPara
         id="flowPara4829" /></flowRoot>    <flowRoot
       xml:space="preserve"
       id="flowRoot8594"
       style="fill:black;stroke:none;stroke-opacity:1;stroke-width:1px;stroke-linejoin:miter;stroke-linecap:butt;fill-opacity:1;font-family:sans-serif;font-style:normal;font-weight:normal;font-size:40px;line-height:125%;letter-spacing:0px;word-spacing:0px"><flowRegion
         id="flowRegion8596"><rect
           id="rect8598"
           width="617.56378"
           height="118.14263"
           x="-177.21394"
           y="2533.9189" /></flowRegion><flowPara
         id="flowPara8600" /></flowRoot>    <path
       inkscape:connector-curvature="0"
       id="path13061"
       d=""
       style="fill:#858383;fill-opacity:1;fill-rule:nonzero;stroke:none" />
    <path
       inkscape:connector-curvature="0"
       id="path13065"
       d=""
       style="fill:#858383;fill-opacity:1;fill-rule:nonzero;stroke:none" />
    <path
       inkscape:connector-curvature="0"
       id="path13069"
       d=""
       style="fill:#858383;fill-opacity:1;fill-rule:nonzero;stroke:none" />
    <path
       inkscape:connector-curvature="0"
       id="path13073"
       d=""
       style="fill:#858383;fill-opacity:1;fill-rule:nonzero;stroke:none" />
    <path
       inkscape:connector-curvature="0"
       id="path4235"
       d="m 230.37269,373.87373 149.67634,0 23.873,0.61483 20.7605,1.46233 9.34081,1.24635 8.51159,1.24635 7.68071,1.66176 7.0592,1.86118 8.7193,3.12415 8.51158,3.52294 8.09618,3.93836 7.68067,4.56992 7.68067,5.1847 7.05758,5.61678 6.85144,6.23162 6.43605,6.63048 6.22668,7.27854 5.81285,7.46137 5.39745,7.89343 4.98194,8.50822 4.77603,8.72432 4.15105,9.13972 3.94501,9.33916 3.52796,9.954 3.11423,10.38607 2.69862,11.00092 2.28333,11.63242 1.86949,12.03122 1.45232,12.87871 1.03871,13.27758 0.62309,13.90902 0.2077,14.54046 -0.2077,12.86211 -0.62309,12.24725 -1.03871,11.8318 -1.24462,11.41639 -1.8695,11.01751 -2.07552,10.5855 -2.49103,10.17004 -2.90642,9.53854 -3.94335,11.21695 -4.56822,10.80153 -4.77425,10.17004 -5.18975,9.53853 -5.60515,8.94035 -6.02054,8.50822 -6.43605,7.87683 -6.84988,7.47796 -5.60515,5.18476 -6.02054,4.98527 -6.43438,4.56988 -7.05925,4.35387 -7.47297,4.15438 -7.88837,3.73898 -8.30391,3.53961 -8.71931,3.10746 -14.73991,3.93836 -8.30386,1.46242 -8.71764,1.24629 -9.34248,1.03027 -9.96397,0.63153 -10.38109,0.41539 -11.00258,0.19949 -154.24289,0 0,-105.45596 0,-105.456 0,-105.45595 0,-105.25651 z m 82.41618,71.40628 0,139.50561 0,139.50566 61.03185,0 15.77851,-0.19943 13.70129,-0.83088 11.00259,-1.24634 8.92536,-1.8778 4.77593,-1.24635 4.77427,-1.66175 8.51159,-3.93836 7.88843,-4.76929 3.5296,-2.90811 3.52794,-2.90811 3.11416,-3.32351 3.11415,-3.93842 2.90643,-4.15445 2.69873,-4.98528 2.49098,-5.18476 2.49105,-6.01558 2.28323,-6.23162 2.28322,-6.84652 1.86949,-7.47797 1.66013,-7.89343 1.4541,-8.72426 1.24462,-9.33916 0.8309,-9.954 0.6232,-10.6021 0.41373,-11.20036 0.2077,-12.04782 -0.62143,-22.83271 -1.4541,-20.34008 -1.24462,-8.92374 -1.4541,-8.30884 -1.66013,-7.67735 -1.86949,-6.84652 -4.56645,-12.24726 -2.69875,-5.81615 -2.69873,-5.20137 -3.11415,-4.96867 -3.11417,-4.56992 -3.52793,-4.15439 -3.5296,-3.93842 -3.94505,-3.32351 -3.94338,-3.32358 -4.36048,-2.90811 -4.56655,-2.70866 -4.98199,-2.2766 -4.98199,-2.07723 -5.39743,-1.66175 -5.60514,-1.44579 -4.77594,-1.04692 -5.8112,-0.83087 -14.73991,-1.2463 -18.89101,-0.6149 -22.83605,-0.21597 -36.74341,0 z"
       style="fill:#05762d;fill-opacity:1;fill-rule:evenodd;stroke:none" />
    <path
       inkscape:connector-curvature="0"
       id="path4237"
       d="m 637.67498,795.49815 0,-105.45596 0,-105.456 0,-105.45595 0,-105.25651 82.41553,0 0,105.25651 0,105.45595 0,105.456 0,105.45596 -82.41553,0 z"
       style="fill:#05762d;fill-opacity:1;fill-rule:evenodd;stroke:none" />
    <path
       inkscape:connector-curvature="0"
       id="path4239"
       d="m 797.93948,795.49815 0,-105.45596 0,-105.456 0,-105.45595 0,-105.25651 131.61557,0 34.04471,0.4154 14.53211,0.61485 13.07813,0.6315 11.4181,0.83088 9.7562,1.24635 8.0962,1.24628 6.436,1.44579 8.5116,2.70866 8.3039,3.52295 7.6806,3.93842 7.6808,4.7859 3.5295,2.69207 3.5296,2.9081 6.6421,6.23162 6.4361,6.84647 6.2283,7.6774 5.3974,8.0928 4.7743,8.94036 2.0755,4.55326 2.0772,4.7859 3.3203,9.95399 1.2463,5.20131 1.2446,5.4008 1.0387,5.38414 0.8308,5.81615 1.037,11.63242 0.4154,12.24726 -0.2077,9.53853 -0.6232,9.13979 -1.0369,8.72426 -1.4541,8.29223 -2.0755,8.10948 -2.2832,7.4613 -2.6988,7.2786 -3.1141,6.84645 -3.5296,6.43106 -3.7357,6.01564 -3.945,5.81616 -4.1511,5.20137 -4.5682,5.1847 -4.5666,4.56986 -4.9819,4.35389 -4.982,3.93836 -10.5872,6.86312 -10.5888,5.60017 -10.5872,4.35382 -5.3974,1.8778 -5.3975,1.24635 -16.1922,2.69207 -9.34081,1.04692 -10.17336,0.81426 -23.04213,1.04692 -26.1579,0.41541 -53.35108,0 0,159.01487 -82.20784,0 z m 82.20784,-350.21814 0,119.99641 44.83951,0 22.21278,-0.4154 9.55027,-0.41548 8.51157,-0.83087 7.68067,-0.83088 6.43438,-1.24635 5.60515,-1.24628 4.56821,-1.66182 3.94347,-1.66176 3.73732,-2.07723 3.52955,-2.27659 3.3202,-2.49264 3.1141,-2.69207 2.9065,-2.90811 2.491,-3.32358 2.491,-3.32351 2.2849,-3.52294 1.8679,-3.73899 1.4524,-3.95502 1.454,-4.13785 0.8309,-4.15439 0.8292,-4.37049 0.4155,-4.35382 0.2077,-4.7693 -0.2077,-5.61678 -0.6232,-5.38413 -1.0369,-4.98528 -1.4541,-4.98533 -1.8678,-4.56986 -2.2833,-4.56986 -2.491,-3.93842 -3.1141,-3.93842 -3.322,-3.53955 -3.5296,-3.32351 -3.7356,-2.9081 -4.15275,-2.47604 -4.15116,-2.07722 -4.36041,-1.87779 -4.77425,-1.44579 -4.77436,-1.04692 -9.13466,-1.44571 -12.87043,-0.83089 -16.60773,-0.63144 -20.13737,0 -39.64976,0 z"
       style="fill:#05762d;fill-opacity:1;fill-rule:evenodd;stroke:none" />
    <path
       inkscape:connector-curvature="0"
       id="path4241"
       d="m 1175.7629,795.49815 0,-105.45596 0,-105.456 0,-105.45595 0,-105.25651 86.3589,0 86.5682,0 15.5692,0.21602 7.4731,0.19938 7.2668,0.41547 13.4936,0.83088 12.455,1.24634 11.2103,1.66177 10.1717,1.86119 9.1347,2.29319 7.8885,2.69207 7.2668,3.10754 6.6422,3.73899 6.6438,4.1544 6.0205,4.78589 5.8113,5.38414 5.1913,5.81621 4.9819,6.43105 4.7744,7.06255 4.1511,7.26194 3.5296,7.694 3.1141,7.87677 2.491,8.30886 1.0386,4.15444 0.8293,4.1544 1.4541,8.70771 0.8309,8.94029 0.2075,9.33915 -0.4154,11.61576 -0.4153,5.61684 -0.8309,5.38414 -2.0756,10.58544 -2.9065,9.97061 -1.8678,4.98533 -1.8695,4.56986 -4.5665,9.12312 -5.6052,8.52488 -2.9064,3.93842 -3.3219,3.93842 -7.0575,7.47797 -7.8885,6.64703 -8.927,5.8162 -9.5501,5.18476 -10.3794,4.56987 -5.6052,2.07717 -5.6053,1.66182 -12.2472,3.10747 -12.8703,2.49269 6.4343,3.93836 6.2283,4.15446 6.0207,4.35383 5.6051,4.37043 5.1897,4.56991 5.1897,4.55321 9.1348,9.35581 4.5665,5.38414 4.7743,6.03219 10.7948,15.3548 12.4567,18.89429 13.909,22.83277 49.6138,82.20778 -98.1924,0 -58.7485,-91.9624 -14.5323,-22.21788 -12.2489,-17.84743 -9.5485,-13.07814 -3.9451,-4.98527 -3.1124,-3.73898 -2.9065,-3.10754 -3.1141,-2.70867 -6.0206,-4.96868 -6.2283,-3.73898 -6.4343,-2.9081 -3.5297,-1.24635 -3.945,-0.83088 -9.5486,-1.44572 -11.2103,-1.04692 -13.2858,-0.19943 -16.6078,0 0,88.00738 0,88.02399 -82.4155,0 z m 82.4155,-243.08383 60.6181,0 26.7794,-0.41541 21.1743,-1.04691 8.5116,-0.61491 7.0576,-0.83087 5.8128,-1.04692 4.3605,-1.24629 3.528,-1.44578 3.3218,-1.66176 6.2284,-3.95502 2.6987,-2.47603 2.6986,-2.49264 4.5667,-5.8162 1.8695,-3.32352 1.66,-3.52301 2.6987,-7.47797 1.4541,-8.30884 0.4137,-4.35383 0.2078,-4.76929 -0.2078,-5.20131 -0.4137,-4.98533 -1.0386,-4.55326 -1.0386,-4.56987 -1.6601,-4.15438 -1.8679,-3.95503 -2.2849,-3.52294 -2.491,-3.52301 -2.9064,-3.12408 -3.1126,-2.69207 -3.5296,-2.69207 -3.5296,-2.07722 -4.151,-1.87779 -4.1528,-1.66177 -4.5665,-1.44577 -4.9821,-0.83088 -7.4746,-0.63146 -12.4549,-0.6149 -39.8593,-0.21597 -63.9383,0 0,107.13431 z"
       style="fill:#05762d;fill-opacity:1;fill-rule:evenodd;stroke:none" />
    <path
       inkscape:connector-curvature="0"
       id="path4243"
       d="m 1585.971,795.49815 0,-105.45596 0,-105.456 0,-105.45595 0,-105.25651 150.2989,0 150.5015,0 0,71.40628 -109.3978,0 -109.1948,0 0,93.62416 101.5142,0 101.7236,0 0,71.20685 -101.7236,0 -101.5142,0 0,114.18026 113.14,0 113.346,0 0,71.20687 -154.45,0 -154.2438,0 z"
       style="fill:#05762d;fill-opacity:1;fill-rule:evenodd;stroke:none" />
    <path
       inkscape:connector-curvature="0"
       id="path4245"
       d="m 2223.712,640.00628 79.4991,25.32535 -2.4926,8.52488 -2.4927,8.29225 -5.7996,15.78681 -3.1241,7.46136 -3.3236,7.0625 -3.5229,7.06256 -3.739,6.43105 -7.8934,12.4633 -4.3538,5.81615 -4.3539,5.38411 -9.5552,10.17003 -4.9852,4.56988 -5.1848,4.37051 -5.4008,4.13773 -5.6001,3.73899 -5.8162,3.73898 -6.0157,3.12422 -12.4632,5.79953 -13.0781,4.7859 -6.8465,2.07719 -7.0625,1.66179 -14.5239,2.69207 -15.3714,1.44578 -15.9862,0.63141 -9.954,-0.21602 -9.7546,-0.61488 -9.5552,-1.24629 -9.3391,-1.44578 -9.1398,-2.07719 -8.9237,-2.49258 -8.5083,-2.9082 -8.5082,-3.32348 -8.3089,-3.93835 -3.955,-1.87782 -3.9384,-2.27667 -7.6774,-4.7859 -7.6774,-5.18476 -7.2785,-5.60016 -7.046,-6.03219 -6.8631,-6.43105 -6.6304,-7.06252 -6.2317,-7.26194 -6.0155,-7.6774 -5.4008,-7.89337 -5.1848,-8.50828 -4.5698,-8.50828 -4.3704,-9.13972 -3.739,-9.12312 -3.523,-9.77123 -3.1076,-9.95401 -2.7086,-10.38606 -2.0772,-10.58546 -1.8612,-11.00091 -1.4457,-11.21695 -1.0469,-11.61581 -0.6149,-12.04783 -0.216,-12.2472 0.216,-12.86211 0.6149,-12.66274 1.0469,-12.24726 1.4457,-11.83179 1.8612,-11.63236 2.2933,-11.00091 2.4925,-10.80155 3.1076,-10.36947 3.523,-10.18663 3.955,-9.53854 4.1544,-9.33915 4.7693,-8.94035 5.1847,-8.70765 5.4008,-8.09282 6.0156,-7.89344 6.2316,-7.47796 6.8465,-7.0625 6.8631,-6.63048 7.262,-6.03225 7.4779,-5.79954 7.6774,-5.20137 7.8935,-4.7693 8.2922,-4.35382 8.5082,-3.73899 8.7243,-3.53955 8.9237,-2.90811 9.3392,-2.47603 9.5551,-2.07722 9.7547,-1.66176 9.9705,-1.04692 10.1701,-0.61484 10.5855,-0.21603 18.2629,0.63144 8.7242,0.83088 8.7243,1.24634 8.3089,1.66177 8.0928,2.07722 7.8768,2.2766 7.694,2.69206 7.4613,2.90811 7.2786,3.53961 7.0459,3.72232 6.6471,4.15446 6.6471,4.37042 6.4311,4.98533 6.0155,5.18471 6.0323,5.4008 6.6304,7.26193 6.4477,7.89338 5.8162,8.50828 5.3841,9.33916 4.9853,10.17003 4.5699,10.80149 4.1545,11.61581 3.5228,12.2472 -81.1608,20.1407 -1.8778,-8.0928 -2.692,-7.47797 -1.4625,-3.73899 -1.4456,-3.32357 -3.523,-6.84646 -4.1545,-6.23168 -4.3704,-5.79955 -4.9687,-5.4008 -5.6168,-4.7859 -5.8162,-4.5532 -6.215,-3.73898 -6.4476,-3.32357 -6.8466,-2.70868 -7.0624,-2.06062 -7.4615,-1.46232 -7.6939,-0.83089 -8.0929,-0.41546 -11.0008,0.6315 -5.1848,0.61485 -5.1847,0.83087 -5.2013,1.24635 -4.7693,1.44572 -4.7694,1.66177 -4.7859,2.07722 -4.5698,2.07722 -4.3538,2.49264 -4.1545,2.9081 -4.1544,2.90811 -3.9384,3.32352 -3.9384,3.52294 -3.739,3.95502 -3.5396,3.93842 -3.3068,4.35382 -3.3236,4.7859 -5.6168,10.36947 -2.6921,5.60017 -2.2765,6.03219 -3.955,12.86211 -1.6618,7.06255 -1.4458,7.26194 -2.0772,15.57077 -0.8309,8.30884 -0.6315,8.50829 -0.4154,18.26284 0.4154,19.30977 0.6315,8.92374 0.8309,8.72426 2.0772,16.40171 1.4458,7.67735 1.6618,7.26198 1.8777,7.0625 2.0773,6.43105 2.2765,6.23162 2.4927,5.81622 2.6921,5.60016 2.9081,5.20137 3.1241,4.76924 3.3069,4.35389 3.5396,4.15439 3.739,3.73899 3.739,3.73898 3.9384,3.10753 3.9383,3.12408 4.3705,2.90811 4.1379,2.47603 4.5697,2.29326 4.5699,1.86119 4.5699,1.66177 9.9707,2.70866 10.17,1.66182 11.0009,0.41542 7.8934,-0.21604 7.8768,-1.03025 7.478,-1.66182 7.0625,-2.49264 7.0459,-2.90811 6.4477,-3.73898 6.431,-4.35382 6.0157,-5.20137 2.9081,-2.69207 2.7086,-2.90811 5.3841,-6.64702 4.7859,-7.26199 2.2767,-3.93836 2.2932,-4.15445 3.9385,-8.92369 3.5229,-9.75462 3.3235,-10.38602 2.7087,-11.21696 z"
       style="fill:#05762d;fill-opacity:1;fill-rule:evenodd;stroke:none" />
    <path
       inkscape:connector-curvature="0"
       id="path4247"
       d="m 2739.9909,795.49815 -88.6388,0 -35.08,-95.90083 -162.9698,0 -33.8337,95.90083 -86.9771,0 39.4339,-105.45596 39.4503,-105.456 39.4339,-105.45595 39.4504,-105.25651 86.9771,0 40.6968,105.25651 40.6801,105.45595 40.6968,105.456 40.6801,105.45596 z m -150.5066,-167.10768 -56.4669,-156.12336 -54.8053,156.12336 111.2722,0 z"
       style="fill:#05762d;fill-opacity:1;fill-rule:evenodd;stroke:none" />
    <path
       inkscape:connector-curvature="0"
       id="path4249"
       d="m 183.87137,-803.60705 108.98755,-20.55282 108.98756,-20.34501 108.98719,-20.55116 108.98894,-20.34502 49.20004,-113.55377 49.20003,-113.55557 49.20004,-113.5537 49.20003,-113.3477 45.67042,113.3477 45.67052,113.5537 45.67207,113.55557 45.87811,113.55377 122.89633,18.06176 123.1039,18.26786 122.8979,18.06175 123.104,18.26786 -87.1914,99.43871 -86.9821,99.43701 -86.9821,99.43871 -86.9821,99.6464 18.0602,136.1821 18.2679,136.18208 18.0617,136.183748 L 1216.036,130.15846 1114.5217,68.086324 1013.2152,6.0141863 911.90871,-56.056243 810.60221,-117.92064 705.76599,-53.772988 600.92987,10.582404 496.09541,74.936143 391.25934,139.29818 417.00182,-1.6665078 442.74265,-142.41682 l 25.74249,-140.74866 25.74078,-140.7503 -77.63953,-95.07818 -77.64125,-94.87215 -77.64074,-94.8705 -77.43303,-94.87044 z"
       style="fill:#ffffff;fill-opacity:1;fill-rule:evenodd;stroke:none" />
    <path
       inkscape:connector-curvature="0"
       id="path4251"
       d="m 183.45609,-806.30578 0.62283,5.39746 108.98756,-20.55282 108.98772,-20.34508 108.98728,-20.5511 108.98716,-20.34502 -0.62153,-5.39745 -108.98884,20.34502 -108.98724,20.55117 -108.98722,20.34502 -108.98772,20.5528 z"
       style="fill:#ffffff;fill-opacity:1;fill-rule:nonzero;stroke:none" />
    <path
       inkscape:connector-curvature="0"
       id="path4253"
       d="m 617.32992,-886.43803 4.77591,2.28326 49.20004,-113.55542 49.20014,-113.55381 49.19993,-113.5553 49.20004,-113.3462 -4.77425,-2.2849 -49.20004,113.3477 -49.20004,113.5555 -49.20003,113.55376 -49.2017,113.55541 z"
       style="fill:#ffffff;fill-opacity:1;fill-rule:nonzero;stroke:none" />
    <path
       inkscape:connector-curvature="0"
       id="path4255"
       d="m 620.02864,-882.70234 1.6618,-0.20774 0.41539,-1.24469 -4.77591,-2.28326 2.07719,-1.66176 0.62153,5.39745 z"
       style="fill:#ffffff;fill-opacity:1;fill-rule:nonzero;stroke:none" />
    <path
       inkscape:connector-curvature="0"
       id="path4257"
       d="m 819.11378,-1340.4504 -4.98205,2.0772 45.67041,113.3461 45.67052,113.5554 45.67208,113.55378 45.8781,113.55547 4.98206,-2.07558 -45.87822,-113.55541 -45.67041,-113.55376 -45.67207,-113.5555 -45.67042,-113.3477 z"
       style="fill:#ffffff;fill-opacity:1;fill-rule:nonzero;stroke:none" />
    <path
       inkscape:connector-curvature="0"
       id="path4259"
       d="m 814.13173,-1340.4504 2.49102,-6.0189 2.49103,6.0189 -4.98205,2.0772 4.77425,0.2077 -4.77425,-2.2849 z"
       style="fill:#ffffff;fill-opacity:1;fill-rule:nonzero;stroke:none" />
    <path
       inkscape:connector-curvature="0"
       id="path4261"
       d="m 999.72157,-888.09979 -0.62309,5.39745 122.89622,18.06177 123.1056,18.26784 122.8962,18.06177 123.104,18.26785 0.6232,-5.39745 -123.1057,-18.26784 -122.8961,-18.06177 -123.104,-18.26785 -122.89633,-18.06177 z"
       style="fill:#ffffff;fill-opacity:1;fill-rule:nonzero;stroke:none" />
    <path
       inkscape:connector-curvature="0"
       id="path4263"
       d="m 997.02284,-884.36245 0.6232,1.45237 1.45244,0.20774 0.62309,-5.39745 2.28333,1.66176 -4.98206,2.07558 z"
       style="fill:#ffffff;fill-opacity:1;fill-rule:nonzero;stroke:none" />
    <path
       inkscape:connector-curvature="0"
       id="path4265"
       d="m 1493.5915,-810.87399 -4.1528,-3.52795 -87.1898,99.43701 -86.9819,99.43871 -86.9821,99.43872 -86.9838,99.64474 4.1527,3.5296 86.9821,-99.64645 86.9821,-99.437 86.9838,-99.43872 87.1897,-99.43866 z"
       style="fill:#ffffff;fill-opacity:1;fill-rule:nonzero;stroke:none" />
    <path
       inkscape:connector-curvature="0"
       id="path4267"
       d="m 1491.7237,-815.44056 5.1898,0.83089 -3.322,3.73568 -4.1528,-3.52795 1.6618,4.35883 0.6232,-5.39745 z"
       style="fill:#ffffff;fill-opacity:1;fill-rule:nonzero;stroke:none" />
    <path
       inkscape:connector-curvature="0"
       id="path4269"
       d="m 1146.077,-414.98874 -5.3974,0.62315 18.0602,136.18215 18.2679,136.18209 18.0617,136.183749 18.2679,136.391471 5.3974,-0.63145 -18.2679,-136.3831665 -18.0618,-136.1838035 -18.2678,-136.18209 -18.0602,-136.1821 z"
       style="fill:#ffffff;fill-opacity:1;fill-rule:nonzero;stroke:none" />
    <path
       inkscape:connector-curvature="0"
       id="path4271"
       d="m 1141.3011,-416.44276 -0.8292,0.83088 0.2077,1.24629 5.3974,-0.62315 -0.6232,2.07558 -4.1527,-3.5296 z"
       style="fill:#ffffff;fill-opacity:1;fill-rule:nonzero;stroke:none" />
    <path
       inkscape:connector-curvature="0"
       id="path4273"
       d="M 1214.5836,132.43506 1217.49,127.8652 1115.9757,65.801361 1014.6692,3.7309319 913.3627,-58.339553 812.05454,-120.20389 l -2.90476,4.56815 101.30649,61.862752 101.30653,62.0704842 101.3066,62.0720818 101.5142,62.065482 z"
       style="fill:#ffffff;fill-opacity:1;fill-rule:nonzero;stroke:none" />
    <path
       inkscape:connector-curvature="0"
       id="path4275"
       d="m 1218.7347,129.94242 0.8308,5.40075 -4.9819,-2.90811 2.9064,-4.56986 -4.1527,2.70867 5.3974,-0.63145 z"
       style="fill:#ffffff;fill-opacity:1;fill-rule:nonzero;stroke:none" />
    <path
       inkscape:connector-curvature="0"
       id="path4277"
       d="m 812.05454,-115.63574 -2.90476,-4.56815 L 704.31366,-56.056243 599.47754,8.2974962 494.64143,72.652888 389.80529,137.00492 l 2.90644,4.56987 104.83612,-64.355393 104.83612,-64.353739 104.83611,-64.355392 104.83446,-64.146006 z"
       style="fill:#ffffff;fill-opacity:1;fill-rule:nonzero;stroke:none" />
    <path
       inkscape:connector-curvature="0"
       id="path4279"
       d="m 812.05454,-120.20389 -1.45233,-0.82924 -1.45243,0.82924 2.90476,4.56815 -2.90476,0 2.90476,-4.56815 z"
       style="fill:#ffffff;fill-opacity:1;fill-rule:nonzero;stroke:none" />
    <path
       inkscape:connector-curvature="0"
       id="path4281"
       d="m 388.56063,138.66668 5.18971,1.24635 25.74248,-140.9563923 25.74082,-140.7503077 25.74246,-140.7486 25.74085,-140.75031 -5.18975,-1.24635 -25.74078,140.75032 -25.74249,140.7503 L 414.30311,-2.2896533 388.56063,138.66668 Z"
       style="fill:#ffffff;fill-opacity:1;fill-rule:nonzero;stroke:none" />
    <path
       inkscape:connector-curvature="0"
       id="path4283"
       d="m 392.71173,141.57479 -5.18971,3.32357 1.03861,-6.23168 5.18971,1.24635 -3.94505,-2.90811 2.90644,4.56987 z"
       style="fill:#ffffff;fill-opacity:1;fill-rule:nonzero;stroke:none" />
    <path
       inkscape:connector-curvature="0"
       id="path4285"
       d="m 492.1504,-422.04794 4.15282,-3.52795 -77.64129,-95.07982 -77.64124,-94.87051 -77.64025,-94.8705 -77.43319,-94.87215 -4.15193,3.5296 77.43319,94.87051 77.64107,94.87215 77.6396,94.8705 77.64122,95.07817 z"
       style="fill:#ffffff;fill-opacity:1;fill-rule:nonzero;stroke:none" />
    <path
       inkscape:connector-curvature="0"
       id="path4287"
       d="m 496.71695,-423.29258 0.2077,-1.45408 -0.62143,-0.82923 -4.15282,3.52795 -0.6232,-2.49099 5.18975,1.24635 z"
       style="fill:#ffffff;fill-opacity:1;fill-rule:nonzero;stroke:none" />
    <path
       inkscape:connector-curvature="0"
       id="path4289"
       d="m 181.79532,-801.73927 -3.11383,-3.73727 4.7746,-0.82924 0.62283,5.39746 1.86833,-4.36055 -4.15193,3.5296 z"
       style="fill:#ffffff;fill-opacity:1;fill-rule:nonzero;stroke:none" />
    <path
       inkscape:connector-curvature="0"
       id="path4291"
       d="m 1409.9297,-719.53144 109.6104,16.19228 109.818,16.19226 -87.1897,99.43873 -86.982,99.43871 -86.9821,99.437 -86.9837,99.6464 18.0617,136.18209 18.0602,136.183804 18.0617,136.177076 18.2679,136.39813 L 1252.1578,193.68792 1150.8513,131.60418 1049.5448,69.538703 948.23832,7.6759483 843.4022,71.821946 738.56608,136.17404 633.72997,200.53444 528.89551,264.87816 550.4852,146.56012 572.2827,28.227113 691.44157,-44.845948 810.60221,-117.92064 911.90871,-56.056243 1013.2152,6.0141863 1114.5217,68.086324 1216.036,130.15846 1197.7681,-6.233072 1179.7064,-142.41682 1161.4385,-278.5989 1143.3783,-414.781 1276.654,-567.15708 1409.9297,-719.53144 Z"
       style="fill:#929596;fill-opacity:1;fill-rule:evenodd;stroke:none" />
    <path
       inkscape:connector-curvature="0"
       id="path4293"
       d="m 130.93443,252.84694 -0.41517,-131.19676 -0.41519,-131.2051229 -0.41521,-131.2001171 -0.20759,-130.99238 -0.41518,-131.20177 -0.2076,-130.99238 -0.4152,-131.20012 -0.20759,-130.99238 63.3167,1.66011 75.5647,92.58719 75.77308,92.5889 75.56403,92.58718 75.77171,92.79493 -22.62662,123.72715 -22.62833,123.7271 -22.62833,123.727158 -22.62833,123.934826 -136.38965,90.714406 -136.39023,90.93208 z"
       style="fill:#000000;fill-opacity:1;fill-rule:evenodd;stroke:none" />
    <path
       inkscape:connector-curvature="0"
       id="path4295"
       d="m 798.56102,-1370.5517 89.26697,-50.6527 89.26529,-50.4458 89.26692,-50.4457 89.2653,-50.4456 0,88.6433 0,88.8504 0,88.6438 0,88.8515 0,88.6422 0,88.8516 0,88.84982 0,88.85156 -156.11163,-23.04374 -45.87811,-113.55377 -45.67207,-113.55557 -45.67052,-113.5537 -45.67042,-113.3477 -14.53211,33.4232 -3.52962,-64.5631 z"
       style="fill:#05762d;fill-opacity:1;fill-rule:evenodd;stroke:none" />
    <path
       inkscape:connector-curvature="0"
       id="path4297"
       d="m 798.56102,-1370.5517 3.52962,64.5631 -45.67052,105.0422 -45.46438,105.2516 -45.67041,105.04381 -45.46272,105.24993 -108.98894,20.34502 -108.98719,20.55116 -108.98756,20.34501 -108.98755,20.55282 7.68103,9.13307 -63.3167,-1.66011 -0.2076,-97.77861 -0.2076,-97.56916 83.66101,-47.53994 83.86874,-47.3305 83.8679,-47.3322 83.86956,-47.3323 83.86787,-47.5383 83.86963,-47.3322 83.86785,-47.3322 83.86796,-47.3322 z"
       style="fill:#004489;fill-opacity:1;fill-rule:nonzero;stroke:none" />
    <rect
       style="opacity:1;fill:none;fill-opacity:1;stroke:#0056ca;stroke-width:9.95265865;stroke-miterlimit:4;stroke-dasharray:none;stroke-opacity:1"
       id="rect5186"
       width="2824.2664"
       height="2824.3989"
       x="6.0908523"
       y="-1776.3434" />
  </g>
</svg>
