<?xml version="1.0" encoding="UTF-8" standalone="no"?>
<!-- Created with Inkscape (http://www.inkscape.org/) -->

<svg
   xmlns:dc="http://purl.org/dc/elements/1.1/"
   xmlns:cc="http://creativecommons.org/ns#"
   xmlns:rdf="http://www.w3.org/1999/02/22-rdf-syntax-ns#"
   xmlns:svg="http://www.w3.org/2000/svg"
   xmlns="http://www.w3.org/2000/svg"
   xmlns:xlink="http://www.w3.org/1999/xlink"
   xmlns:sodipodi="http://sodipodi.sourceforge.net/DTD/sodipodi-0.dtd"
   xmlns:inkscape="http://www.inkscape.org/namespaces/inkscape"
   width="696.01544mm"
   height="323.69797mm"
   viewBox="0 0 2466.1964 1146.9613"
   id="svg2"
   version="1.1"
   inkscape:version="0.91 r13725"
   sodipodi:docname="fusat.svg">
  <defs
     id="defs4">
    <linearGradient
       inkscape:collect="always"
       id="linearGradient4152">
      <stop
         style="stop-color:#e7c028;stop-opacity:1;"
         offset="0"
         id="stop4154" />
      <stop
         style="stop-color:#198d34;stop-opacity:1"
         offset="1"
         id="stop4156" />
    </linearGradient>
    <pattern
       y="0"
       x="0"
       height="6"
       width="6"
       patternUnits="userSpaceOnUse"
       id="EMFhbasepattern" />
    <pattern
       y="0"
       x="0"
       height="6"
       width="6"
       patternUnits="userSpaceOnUse"
       id="EMFhbasepattern-6" />
    <pattern
       y="0"
       x="0"
       height="6"
       width="6"
       patternUnits="userSpaceOnUse"
       id="EMFhbasepattern-9" />
    <pattern
       y="0"
       x="0"
       height="6"
       width="6"
       patternUnits="userSpaceOnUse"
       id="EMFhbasepattern-98" />
    <linearGradient
       inkscape:collect="always"
       xlink:href="#linearGradient4152"
       id="linearGradient4398"
       x1="-1455.3041"
       y1="-1928.5052"
       x2="2390.4536"
       y2="-1928.5052"
       gradientUnits="userSpaceOnUse" />
    <linearGradient
       inkscape:collect="always"
       xlink:href="#linearGradient4152"
       id="linearGradient4415"
       gradientUnits="userSpaceOnUse"
       x1="-1455.3041"
       y1="-1928.5052"
       x2="2390.4536"
       y2="-1928.5052" />
    <linearGradient
       inkscape:collect="always"
       xlink:href="#linearGradient4152"
       id="linearGradient4417"
       gradientUnits="userSpaceOnUse"
       x1="-1455.3041"
       y1="-1928.5052"
       x2="2390.4536"
       y2="-1928.5052" />
    <linearGradient
       inkscape:collect="always"
       xlink:href="#linearGradient4152"
       id="linearGradient4419"
       gradientUnits="userSpaceOnUse"
       x1="-1455.3041"
       y1="-1928.5052"
       x2="2390.4536"
       y2="-1928.5052" />
    <linearGradient
       inkscape:collect="always"
       xlink:href="#linearGradient4152"
       id="linearGradient4421"
       gradientUnits="userSpaceOnUse"
       x1="-1455.3041"
       y1="-1928.5052"
       x2="2390.4536"
       y2="-1928.5052" />
    <linearGradient
       inkscape:collect="always"
       xlink:href="#linearGradient4152"
       id="linearGradient4423"
       gradientUnits="userSpaceOnUse"
       x1="-1455.3041"
       y1="-1928.5052"
       x2="2390.4536"
       y2="-1928.5052" />
  </defs>
  <sodipodi:namedview
     id="base"
     pagecolor="#ffffff"
     bordercolor="#666666"
     borderopacity="1.0"
     inkscape:pageopacity="0.0"
     inkscape:pageshadow="2"
     inkscape:zoom="0.175"
     inkscape:cx="-1157.5198"
     inkscape:cy="1968.6433"
     inkscape:document-units="px"
     inkscape:current-layer="layer1"
     showgrid="false"
     fit-margin-top="0"
     fit-margin-left="0"
     fit-margin-right="0"
     fit-margin-bottom="0"
     inkscape:window-width="1920"
     inkscape:window-height="1138"
     inkscape:window-x="1358"
     inkscape:window-y="-8"
     inkscape:window-maximized="1" />
  <metadata
     id="metadata7">
    <rdf:RDF>
      <cc:Work
         rdf:about="">
        <dc:format>image/svg+xml</dc:format>
        <dc:type
           rdf:resource="http://purl.org/dc/dcmitype/StillImage" />
        <dc:title></dc:title>
      </cc:Work>
    </rdf:RDF>
  </metadata>
  <g
     inkscape:label="Capa 1"
     inkscape:groupmode="layer"
     id="layer1"
     transform="translate(-411.61938,-38.748598)">
    <g
       id="g4400"
       transform="matrix(0.64127712,0,0,0.64127712,1344.8726,1700.0547)">
      <g
         style="fill:url(#linearGradient4398);fill-opacity:1"
         id="g4385">
        <path
           inkscape:connector-curvature="0"
           id="path4291"
           d="m 1833.4032,-2590.6212 27.8554,1.0577 13.4055,1.7628 13.0387,2.1154 13.0387,3.1731 12.3613,3.5256 12.3331,4.2308 11.6276,4.5833 11.6275,5.2885 11.2889,5.6411 10.922,6.3461 10.5833,6.6988 10.2165,7.051 9.8778,7.4041 9.5391,7.7563 9.5109,8.1089 17.9775,17.2756 16.5665,18.3335 15.5222,18.6859 14.0829,19.7434 13.4055,19.7437 11.9945,19.7437 10.922,19.7434 9.8777,19.3912 9.8778,23.2693 9.5109,24.6795 10.2165,23.6222 6.0113,10.9277 7.0555,9.5193 3.4996,4.2305 3.8947,3.5278 8.0997,7.0499 8.8336,6.3472 9.5109,5.6416 10.2164,5.2889 10.5834,4.9332 21.844,8.8166 45.1273,15.8638 21.8722,9.1665 10.2165,4.9361 9.5391,5.2888 11.2606,7.05 10.2447,8.111 9.144,8.461 4.2333,4.9361 3.5278,5.2889 3.5278,5.2888 2.8222,5.9916 4.9389,13.3971 1.7498,7.4055 1.0724,8.1082 0.7056,8.461 0.3387,9.5194 -0.3387,12.3416 -0.7056,4.936 -1.0724,4.9333 -1.4111,4.2333 -1.7498,3.8778 -2.4553,3.5249 -3.1891,3.1722 -8.0998,-0.3528 -8.4667,-1.4083 -8.8053,-1.7639 -8.8336,-2.8194 -17.6106,-6.6999 -8.8336,-4.2305 -8.8053,-4.2305 -33.4998,-18.3332 -14.7885,-8.461 -13.4055,-7.4055 -10.2165,-6.3444 -11.9944,-7.7583 -6.6887,-3.5249 -6.35,-2.4667 -6.35,-1.4111 -5.6444,0.7056 -4.2333,1.4083 -3.1609,2.1166 -2.8223,3.1722 -2.1166,3.8778 -1.778,4.936 -1.4111,4.9361 -1.0443,11.9888 -0.3668,12.6915 0.7055,13.3971 1.0725,23.622 -0.3669,28.9109 -1.0443,28.558 -1.778,28.2053 -2.1166,27.8525 -3.1609,27.4998 -3.1609,27.1469 -8.128,53.9411 -6.6887,36.3164 -6.6886,35.2552 -7.7611,34.5525 -8.4667,33.8441 -9.1722,33.1413 -10.2165,31.7303 -11.2889,31.0275 -11.9944,29.6136 -13.3773,28.5581 -14.8167,27.4997 -15.8609,26.0915 -17.272,24.6775 -9.1722,11.9888 -9.8778,11.2804 -20.4611,21.861 -10.5551,10.2249 -11.2889,10.2221 -11.9945,9.5193 -11.9944,9.1666 -15.1553,9.8721 -15.494,9.1666 -15.8891,7.7583 -16.9052,7.0499 -17.272,6.3472 -18.6831,5.6388 -19.7555,5.2888 -21.1667,4.5833 -18.6831,5.2889 -9.8496,1.0583 -5.3057,-0.3528 -5.2776,-1.7639 -4.6002,-1.761 -4.572,-3.1722 -4.9389,-4.2334 -4.2333,-4.936 -3.5278,-5.6388 -1.0442,-3.175 -0.7056,-3.1722 -0.3669,-6.3472 2.1167,-6.6971 8.128,-16.2193 9.5109,-15.8637 9.8778,-15.5138 10.2164,-14.8082 21.5053,-29.2608 21.5054,-28.9108 31.3831,-40.8969 16.1995,-21.1553 15.5223,-21.1526 7.4224,-10.9305 7.3942,-11.2832 7.0556,-11.2805 7.0555,-11.636 6.3218,-11.6332 6.0113,-11.9888 5.6445,-12.6916 4.9389,-12.6915 8.8053,-24.6803 8.0998,-25.0303 7.4224,-25.7387 6.6887,-26.0886 6.35,-26.4442 5.6444,-26.7942 10.5552,-54.2939 2.8222,-17.2777 2.1166,-17.9804 2.8223,-32.4358 -1.0443,-39.4857 7.7612,-30.6747 -1.0725,-102.949 2.1167,-50.4162 -1.7498,-3.525 -2.4836,-2.8194 -3.1608,-2.4694 -3.5278,-1.7611 -4.2334,-1.4111 -4.6002,-1.0583 -10.5551,-0.7056 -10.9502,0.7056 -11.2607,1.0583 -19.7555,3.525 -40.894,6.3472 -27.1498,3.8777 -14.1111,1.7639 -14.4498,1.761 -28.5609,2.1167 -26.7829,0.7056 -11.9944,-0.3528 -10.5834,-1.0583 -9.5108,-1.7639 -7.3943,-2.4667 -8.8335,-4.936 -3.5278,-3.175 -3.4996,-3.525 -6.35,-7.4027 -5.3057,-8.461 -2.8223,-4.9361 -2.8222,-6.3471 -1.0442,-3.525 -0.7056,-3.8777 0,-4.2305 0.7056,-4.5833 2.1167,-6.7 2.4553,-6.3472 1.4111,-3.1721 1.778,-2.8194 3.5278,-5.6417 8.0998,-10.2249 9.8777,-8.461 5.2776,-3.8777 6.0113,-3.5278 12.3331,-6.3444 13.7443,-5.2888 14.4497,-4.5833 15.1554,-3.5249 15.8891,-3.175 16.1995,-2.8194 16.2278,-2.4667 32.7942,-4.5861 31.7218,-4.9332 10.5834,-1.0584 8.8053,0 8.4667,1.4083 7.3942,1.0584 7.0555,1.0583 7.0556,0.3528 7.0555,-1.4111 3.5278,-1.4083 3.5278,-2.1167 1.4111,-8.461 -1.0724,-8.1094 -2.1167,-7.7566 -3.5278,-7.4038 -4.2333,-7.4038 -4.2333,-6.6986 -8.0998,-12.3398 -6.35,-10.9297 -7.0556,-10.2243 -7.7329,-9.8716 -4.2333,-4.5835 -3.8947,-4.5833 -8.8053,-8.8141 -9.1722,-8.4616 -19.3887,-15.5126 -20.0942,-15.1604 -20.0942,-15.1602 -19.7556,-15.1604 -19.0218,-16.2179 -10.2446,-10.5768 -8.8054,-11.6346 -3.5277,-6.3461 -3.1609,-5.9938 -2.4836,-6.3461 -1.7498,-6.6988 -0.7055,-6.3461 0.3386,-6.346 1.0725,-6.3463 2.1167,-6.3461 3.5277,-5.9936 4.9389,-5.9936 5.9831,-5.641 7.3943,-5.641 20.7997,-4.2308 z"
           style="fill:url(#linearGradient4415);fill-opacity:1;fill-rule:evenodd;stroke:none" />
        <path
           inkscape:connector-curvature="0"
           id="path4293"
           d="m -823.1574,-2555.7174 8.1111,0 3.8777,0 3.525,0 3.5249,0.3525 3.1722,0.3528 3.175,0.705 1.4083,0.3525 1.4111,0.3528 2.4694,0.705 2.4667,1.4102 2.4694,1.4103 1.7611,1.4103 2.1166,2.1152 1.4083,2.1155 1.7639,2.4681 1.0583,2.8202 0.3528,1.4103 0.3528,1.763 0.3528,1.4103 0,1.7628 -0.3528,1.4102 0,1.7628 -0.3528,1.4103 -0.3528,1.4102 -1.0583,2.8205 -0.7055,1.7628 -0.7056,1.4103 -0.7027,1.0577 -0.7056,1.4103 -1.7639,2.8205 -2.1138,2.4678 -2.1167,2.468 -4.2305,4.5833 -3.8777,3.8783 -3.8778,3.5255 -4.936,4.5836 -4.5833,4.9358 -4.9361,4.9358 -4.5833,4.936 -9.1666,10.2244 -8.8138,10.5768 -17.9832,21.5065 -9.1665,10.2243 -4.5833,4.9358 -4.5833,4.9361 -3.8777,4.5833 -3.8778,4.2308 -7.4027,9.519 -3.8805,4.5836 -3.525,4.9358 -6.6971,9.5191 -13.3999,20.0962 -13.0443,20.4487 -28.9109,44.7748 -14.4526,22.5637 -6.6999,11.636 -6.7,11.6332 -6.6971,11.9888 -6.3472,11.986 -3.1722,5.9944 -2.8194,6.3471 -3.175,6.3444 -2.8194,6.3472 -2.8222,6.3471 -2.8194,6.6972 -4.9361,13.3971 -4.936,13.3971 -2.4666,7.0527 -2.1167,7.0499 -1.4111,4.9361 -1.7611,5.2888 -4.9361,12.3416 -5.2888,14.4526 -5.2888,14.8082 -2.4667,7.7583 -2.1166,7.4027 -2.1139,7.0499 -1.7639,7.0527 -1.0583,6.7 -0.3528,3.1721 -0.3528,2.8194 0,2.8223 0,2.8194 0,2.4666 0.3528,2.1167 8.8138,5.6416 1.4111,0.3528 1.7639,0.3527 1.4083,0.3528 1.7639,0 1.7639,0 1.4083,0 3.8805,-0.3528 3.525,-1.0583 3.8777,-1.0583 3.8777,-1.4111 3.8778,-1.4083 7.4055,-3.175 7.0499,-3.525 6.3472,-3.1722 5.28883,-2.4694 8.46097,-3.1722 8.4611,-3.1722 8.461,-3.175 8.461,-2.8194 16.9249,-5.6416 16.922,-5.6416 16.9221,-4.9333 17.2776,-4.936 17.6276,-4.5833 17.6276,-4.5833 5.2889,-1.0583 5.9944,-1.0584 5.9915,-0.7055 5.9944,-0.7056 5.9944,0 2.8194,0 2.8223,0 3.1721,0.3528 2.8194,0.3528 5.2889,0.7055 5.2888,1.4111 2.8222,0.7056 2.1139,0.7027 2.4694,1.0584 2.1139,1.0583 2.1166,1.4111 2.1139,1.4083 1.7639,1.4111 1.761,1.4111 1.4112,1.7611 1.4111,1.7639 1.4111,2.1166 1.0555,2.1139 0.7055,2.1167 0.7056,2.4666 0.3528,2.8194 0,2.4694 0,2.8194 -0.3528,2.4695 -0.7056,2.8194 -0.7055,2.8222 -1.0555,2.8194 -1.0584,2.8194 -1.7638,2.4694 -1.4112,2.8194 -3.5249,5.6417 -4.2305,5.2888 -2.1139,2.4666 -2.4694,2.8222 -4.5833,4.9361 -4.9361,4.5833 -4.5833,4.5833 -4.936,3.8777 -4.5833,3.8778 -4.2305,3.1721 -6.6972,4.9361 -7.0527,4.5833 -7.4027,4.5833 -7.4055,4.2305 -7.7555,4.2333 -8.1082,3.8778 -8.1111,3.8777 -8.1082,3.8777 -8.461,3.525 -8.4611,3.5278 -8.8138,3.1721 -17.2776,6.6972 -17.2748,5.9944 -17.2748,5.9944 -5.2889,1.761 -5.2888,1.4111 -10.5777,2.4695 -9.8721,2.4666 -10.2221,1.7639 -9.5194,1.7611 -9.1666,2.1166 -4.5833,0.7056 -4.5832,1.0583 -8.4639,2.4666 -3.8777,1.7639 -3.8778,1.4083 -3.8777,1.7639 -3.5249,2.1139 -3.5278,2.1166 -3.1722,2.4666 -3.1722,2.4695 -3.175,2.8194 -2.4666,3.5278 -2.8194,3.5249 -2.4694,3.8778 -2.1139,4.2305 -1.0583,2.1166 -1.0584,2.4667 -1.7638,4.936 -0.7028,2.8194 -1.0583,2.8222 -1.4111,5.9944 1.0583,34.9025 -1.0583,63.4605 7.7554,31.733 6.7,60.2883 17.9804,62.755 9.1666,31.0276 9.1665,30.3191 4.5833,15.161 4.5833,15.161 4.9361,15.1581 4.936,14.8082 10.225,29.9692 5.2888,14.8054 5.6416,14.8082 7.7555,33.8469 5.2888,15.5137 5.6416,16.9221 2.4667,8.8138 1.0583,4.2305 1.0583,4.5833 1.0555,4.2305 0.7056,4.5833 0.7056,4.2305 0.7055,4.2333 0.3528,4.2305 0,4.2306 0,4.2305 -0.3528,3.8777 -0.7055,3.8777 -0.7056,3.8778 -1.4111,3.5277 -1.4083,3.525 -1.7639,3.525 -1.0583,1.7638 -1.0555,1.4083 -2.4695,3.175 -2.8194,2.8194 -3.175,2.4695 -1.761,1.4083 -1.76393,1.0583 -2.11384,1.0583 -1.76389,1.0584 -4.58324,2.1138 -2.4667,0.7056 -2.1166,0.7055 -2.4667,0.7056 -2.1166,0.3528 -4.5833,0.3527 -4.5833,0 -2.1167,0 -2.4666,-0.3527 -2.1167,-0.3528 -2.4666,-0.3528 -4.5833,-1.4111 -4.2305,-1.4111 -4.5833,-2.1139 -4.2305,-2.1166 -4.5833,-2.4667 -4.2305,-2.8222 -4.2305,-3.1722 -4.2333,-3.1721 -3.8778,-3.525 -3.8777,-3.5278 -3.8777,-3.8777 -3.8778,-3.8777 -3.5249,-3.8778 -3.8806,-3.8777 -6.6971,-8.1111 -5.9944,-7.7554 -5.6416,-7.7555 -4.9361,-7.0527 -4.2305,-6.3444 -3.1722,-5.6416 -13.0443,-13.0443 -3.8777,-5.6416 -3.175,-5.9944 -3.525,-6.3472 -3.5249,-6.3444 -3.175,-6.3472 -3.1722,-6.6971 -6.3472,-13.3999 -5.9916,-13.7499 -5.6416,-13.7498 -10.9296,-25.7359 -9.8719,-40.544 -3.5255,-7.7583 -3.5255,-8.1083 -3.5258,-8.1082 -3.173,-8.8138 -2.8206,-8.4638 -1.7627,-4.5833 -1.4103,-4.2305 -2.8205,-9.1666 -2.468,-8.8138 -2.8206,-9.1666 -2.4677,-9.5194 -2.1156,-9.1666 -2.468,-9.1666 -2.1153,-9.5194 -2.1155,-9.1665 -3.5255,-18.686 -1.7628,-9.8721 -1.7627,-10.2249 -1.0578,-10.2221 -1.4103,-10.2249 -0.7052,-10.2249 -1.0575,-10.2249 -1.4103,-20.0943 -1.0578,-20.097 -1.7627,-19.7443 -0.7053,-9.8721 -1.0575,-9.8721 -1.4102,-9.5194 -1.4103,-9.5194 -0.3528,-4.2305 0,-4.2305 0,-3.8777 0.7053,-3.8777 0.705,-3.8778 1.0578,-3.8777 1.7627,-7.4055 2.1155,-7.0499 0.705,-3.5278 0.3525,-3.525 0.3528,-3.5249 0,-1.7639 -0.3528,-1.4083 -0.3525,-3.5278 -0.705,-1.761 -0.3524,-1.7639 -1.4103,-2.1139 -1.4103,-2.1166 -1.4102,-1.7639 -1.7631,-1.7611 -1.7627,-1.4111 -2.1153,-1.4111 -2.1155,-1.0555 -2.4678,-1.0584 -2.468,-0.7055 -2.4681,-0.7056 -5.641,-1.4083 -2.8205,-0.3527 -2.8206,-0.3528 -6.346,-0.3528 -6.3461,-0.3528 -6.3463,0 -13.3974,0 -6.6988,0 -6.346,-0.3528 -6.3461,-0.3527 -3.1733,-0.3528 -3.173,-0.3528 -15.8654,-2.8194 -8.8141,-1.7639 -8.8141,-1.7639 -9.1666,-1.761 -8.8141,-2.1167 -9.1665,-2.4666 -8.8144,-2.4695 -8.4613,-2.8194 -3.8783,-1.7639 -3.8783,-1.4082 -3.878,-1.7639 -3.8783,-1.7639 -6.6988,-3.8778 -3.173,-1.761 -3.1731,-2.1167 -2.4679,-2.4666 -2.8206,-2.1167 -2.1153,-2.4666 -2.1154,-2.4694 -1.7628,-2.4667 -1.4103,-2.8222 -0.7051,-2.8194 -0.7052,-2.4694 -0.3525,-2.8194 0,-2.8194 0.3525,-2.8223 0.3526,-2.8194 0.3526,-2.4694 0.7051,-2.8194 15.8654,-11.2832 8.1089,-5.2861 8.4617,-5.2888 4.2305,-2.1167 4.5836,-2.4666 4.5833,-2.1167 4.9358,-1.7639 4.936,-1.761 5.2883,-1.7639 5.6411,-1.0583 5.641,-1.0556 4.9358,-1.0583 4.9361,-0.3528 5.2883,-0.3527 5.2885,-0.3528 10.9296,-0.3528 11.2819,0 22.9167,0.3528 11.2821,0.3528 11.2821,0 10.9294,-0.3528 5.2885,-0.3528 4.9358,-0.3528 5.2886,-0.7055 4.9358,-0.7028 4.5835,-0.7055 4.5833,-1.0584 4.2308,-1.4111 4.2305,-1.4083 3.8783,-1.7638 3.5258,-2.1167 3.5256,-2.1139 3.173,-2.4694 1.4102,-1.4083 1.4103,-1.4111 1.0578,-1.4111 1.4102,-1.7611 9.8719,-44.7774 2.1152,-4.5832 2.1156,-4.2306 2.1152,-4.936 1.7628,-4.5833 2.1155,-4.9361 1.4103,-4.5833 3.5255,-10.2249 2.8206,-10.2221 2.8205,-10.2249 4.9358,-21.1554 4.936,-21.1525 2.4678,-10.5777 2.8205,-10.5749 1.4103,-4.936 1.4102,-5.2889 3.1722,-10.2249 1.7639,-4.9361 1.7639,-4.936 3.525,-9.5194 11.2804,-26.4414 10.5777,-25.0331 10.5777,-23.6214 10.5776,-22.5643 5.2861,-10.9293 5.6416,-10.5768 5.2888,-10.2247 5.6417,-10.2243 3.1721,-4.9358 2.8223,-4.5833 5.9915,-9.5193 5.9944,-9.5191 6.3472,-9.1669 3.1722,-4.2305 3.5249,-4.5836 6.7,-8.4613 7.0499,-8.4615 3.8777,-4.2308 3.5278,-3.8783 7.7555,-8.1088 3.8777,-3.8783 4.2305,-3.8783 8.4611,-7.7564 8.8166,-7.4038 4.5833,-3.8783 4.5833,-3.5255 9.86926,-7.0513 4.93604,-3.5258 4.9361,-3.5255 10.9305,-7.0514 10.9304,-6.6988 11.6332,-6.346 12.3416,-6.6989 12.6915,-6.346 73.3327,-18.6859 31.7302,-3.1731 z"
           style="fill:url(#linearGradient4417);fill-opacity:1;fill-rule:evenodd;stroke:none" />
        <path
           inkscape:connector-curvature="0"
           id="path4295"
           d="m 1294.6946,-2273.3131 22.2137,0 22.2109,1.0583 22.5637,1.7611 22.9306,2.8222 22.2108,3.525 22.2109,4.2305 21.844,5.2888 10.2165,3.1722 10.5833,3.1722 19.7556,7.0527 18.6831,8.1083 17.6106,9.1665 15.5223,10.225 14.1111,10.9304 6.35,5.6416 5.9831,6.3444 5.2775,6.3472 4.6003,6.6971 3.8664,6.7 3.5278,7.0499 5.3058,13.0471 4.9106,14.4526 4.2334,15.8665 2.8222,16.5721 1.0724,8.8138 0.7056,8.4611 0,8.8138 -0.7056,8.461 -1.0724,8.461 -1.7498,8.461 -2.4835,8.1111 -3.1609,7.7555 -14.4498,32.083 -8.128,15.8665 -9.144,14.4554 -10.9502,13.7499 -11.2607,13.3971 -11.9944,13.0443 -12.7,12.3388 -13.0387,11.9887 -13.4056,11.2805 -14.0829,10.9304 -14.478,10.9305 -14.7884,10.2221 -15.1836,9.8721 -31.0162,18.686 -32.4273,17.9803 -32.7942,16.9249 -33.4913,16.922 -33.847,16.2194 -33.8469,16.2164 -33.8469,16.5721 -33.1413,16.5693 -32.4358,17.6276 -31.3775,18.6859 -15.161,9.5194 -15.1581,9.8721 -33.4942,23.2692 -16.922,12.6916 -16.9249,13.3999 -15.8637,14.4526 -7.4055,7.7583 -6.6971,7.7555 -6.7,8.1083 -5.6416,8.4638 -5.2889,8.8138 -2.1138,4.5833 -2.1167,4.5833 -5.6416,11.6332 -6.3443,13.0443 -2.8223,7.0528 -1.4083,7.4025 -0.3527,7.4056 0.3527,3.5249 1.0584,3.525 2.4666,7.0527 3.1722,6.6972 3.5278,5.6416 4.2305,5.2888 4.5833,4.5833 4.936,4.2305 10.9277,6.7 5.9944,2.4666 6.3471,2.1166 6.6972,1.7611 6.6999,1.0583 14.1027,1.4112 14.8082,-0.3528 15.1581,-1.4111 14.8082,-2.4667 15.161,-3.5277 14.4554,-4.2305 14.1027,-4.5833 13.0443,-5.2889 11.986,-5.286 10.5777,-5.2888 14.8082,-8.8138 14.8082,-10.2249 14.8082,-11.2833 7.4026,-6.3444 7.05,-6.347 14.4554,-13.3971 14.1026,-14.4554 27.4998,-30.3221 25.7386,-32.4358 23.622,-32.7886 21.8581,-32.083 18.686,-30.3191 11.636,-18.3332 14.4582,-20.8026 16.5665,-22.2109 18.6831,-21.5053 10.2164,-10.2249 10.2447,-9.8722 10.2164,-8.8138 10.5834,-8.1082 10.922,-7.0527 10.5833,-5.6417 10.922,-3.8777 5.2776,-1.7639 5.3057,-0.7027 6.6887,-0.3528 6.0113,1.0555 5.6163,2.1167 4.6002,3.5249 4.572,4.2306 2.1167,2.4694 1.778,2.8194 3.5277,5.9944 2.794,6.3472 4.9389,14.1026 3.8947,14.8054 4.9389,27.1498 0,41.6024 2.4553,12.6915 1.778,13.7499 2.8222,28.558 2.794,29.6136 1.778,14.1027 2.4554,13.7499 13.0669,31.7331 8.0997,25.0303 8.0998,23.9747 8.4667,22.9165 8.4666,22.5637 9.5109,21.8608 10.2165,21.1525 11.2889,20.0971 6.0113,10.2249 6.6887,9.5194 29.6051,41.6023 28.2222,27.4998 1.4111,3.5249 0.3387,3.525 0,6.6999 -1.4111,5.9916 -2.4554,5.2889 -14.1111,3.8805 -6.6886,1.4083 -6.35,0.7056 -12.7,0 -11.9945,-1.4112 -11.9662,-2.8194 -11.2889,-4.2305 -11.6276,-5.2888 -11.6557,-6.3472 -14.7885,-9.1666 -13.7724,-9.1665 -12.3331,-9.5193 -11.6276,-10.2221 -10.5833,-10.5777 -9.8778,-10.5778 -8.8053,-11.2804 -8.4667,-11.9888 -8.0998,-12.3387 -7.3942,-12.6944 -14.478,-27.4997 -13.7442,-29.6136 -13.7442,-32.4358 -4.572,-13.0471 -4.6003,-15.8638 -4.572,-17.2748 -5.3057,-17.6304 -2.8223,-8.461 -3.4995,-8.1082 -7.7611,-13.3971 -2.1167,-2.8222 -2.4836,-2.8194 -5.2775,-3.8778 -5.6445,-2.8222 -6.35,-1.0555 -5.9831,3.8777 -6.7169,5.6417 -6.6886,6.6971 -7.0556,8.1082 -7.397,9.1694 -7.4027,10.2221 -14.8082,21.5081 -14.4554,22.2109 -13.0443,21.5054 -21.5054,34.5524 -8.8138,12.3388 -9.8721,13.0443 -10.9305,13.0471 -11.986,13.0443 -13.0471,13.0443 -13.7499,12.6916 -29.2608,24.6803 -15.5137,11.636 -15.8665,10.9277 -16.2165,10.5777 -16.2193,9.5193 -16.2165,8.8138 -16.5721,7.4027 -16.2165,6.7 -15.8665,5.2888 -24.6776,6.3444 -24.3275,4.2333 -23.2692,2.4666 -11.6361,0.3528 -10.9276,0 -22.2137,-1.7639 -20.7998,-3.1722 -20.097,-5.2888 -19.0387,-6.6971 -17.6276,-8.1111 -16.5693,-9.8721 -15.5138,-11.6332 -7.0527,-5.9944 -7.0499,-6.6972 -12.3388,-14.1026 -5.6416,-7.4055 -5.6416,-7.7555 -4.5833,-8.1082 -4.5833,-8.4639 -7.7555,-17.6276 -1.7638,-5.2888 -0.7056,-5.9916 -0.7056,-13.0471 0.3528,-13.3971 0.7056,-12.6916 -1.4111,-36.3135 2.8222,-11.2832 3.5249,-11.2805 3.8778,-10.5777 4.5833,-10.5776 4.936,-9.8722 5.6417,-9.5193 5.9944,-9.1666 6.3443,-8.8138 13.7499,-16.922 14.8082,-15.5138 15.5137,-14.1026 15.8637,-13.3971 62.405,-51.8273 32.083,-25.0303 16.5721,-12.3416 16.9221,-11.6332 21.1525,-13.0443 21.1554,-12.3416 21.8581,-11.6332 21.861,-11.2832 44.069,-22.5637 22.2108,-11.986 21.861,-12.3415 22.9164,-14.4555 23.2692,-15.8637 23.2693,-15.8665 11.6332,-7.0499 11.9888,-7.0528 20.7997,-11.6332 22.5637,-13.397 23.2692,-15.161 11.2833,-8.1083 11.2804,-8.8166 10.9389,-8.8138 10.2165,-9.1666 9.5109,-9.8721 8.8335,-9.8693 8.0998,-10.2249 6.6887,-10.5777 5.3057,-10.9305 2.4554,-5.6388 1.778,-5.6416 1.4111,-4.2305 1.0442,-4.2305 1.4111,-8.4639 0.7056,-8.1082 0,-8.1083 -0.7056,-7.4026 -1.0442,-7.4056 -4.2333,-13.7498 -5.6445,-12.6916 -7.0555,-11.2832 -8.0998,-9.8721 -8.4667,-8.4611 -7.7611,-6.3443 -8.0998,-5.6416 -8.4666,-5.2889 -9.1723,-4.936 -9.5193,-4.2306 -9.5194,-3.8777 -10.2249,-3.5278 -10.5777,-3.1721 -21.8581,-4.5833 -22.5636,-3.1722 -23.622,-1.7639 -23.622,-0.3528 -24.3276,0.7056 -24.3276,2.1166 -11.9859,1.4083 -11.9888,1.4111 -23.622,3.8778 -22.9165,4.936 -21.8581,5.6417 -21.1525,5.9944 -19.7443,6.6971 -10.9305,4.5833 -10.9276,5.6416 -21.1554,11.6332 -10.9305,5.6416 -10.9276,4.9361 -5.6416,2.1167 -5.9944,1.761 -11.986,2.1167 -5.6416,-3.1722 -2.4667,-1.7639 -1.7638,-1.7639 -3.525,-4.2305 -3.175,-5.6416 2.4694,-8.461 3.8778,-7.4027 4.5833,-5.6416 5.6416,-5.2889 5.9944,-4.5833 6.6971,-3.8777 6.7,-4.2305 6.6971,-4.2305 20.8026,-13.3971 22.2109,-12.6944 23.622,-11.9859 24.6803,-10.9305 25.7359,-9.8693 26.4414,-8.8166 27.5025,-7.4027 28.2025,-5.9944 107.1795,-11.986 z"
           style="fill:url(#linearGradient4419);fill-opacity:1;fill-rule:evenodd;stroke:none" />
        <path
           inkscape:connector-curvature="0"
           id="path4297"
           d="m -497.0355,-2242.6412 2.8222,0 2.4666,0 2.4695,0.3528 2.4666,0.3528 2.4666,0.3527 2.4695,0.7056 2.4666,0.7055 2.4694,0.7056 2.1139,1.0555 2.4694,1.0583 4.2305,2.1167 3.8778,2.8194 1.7639,1.4111 1.761,1.4083 1.4111,1.7639 1.7639,1.7639 1.4083,1.7611 1.0584,2.1166 2.1166,3.8778 1.7611,4.5833 0.7056,2.1166 0.3527,2.4666 0.3528,2.4695 0,2.4666 -0.3528,5.2889 -0.3527,2.8193 -0.3528,2.8223 -1.4083,4.2305 -1.4111,4.2305 -1.4111,4.2305 -2.1139,4.2305 -3.8806,8.8138 -4.5832,8.461 -9.5166,16.5721 -2.1166,3.8778 -1.7639,4.2305 -2.1139,3.8777 -1.4111,3.8777 -3.1722,7.7583 -2.4694,7.7555 -5.2889,15.5137 -2.4666,7.7555 -2.8194,7.7555 -1.7639,3.8805 -1.4111,3.525 -1.761,3.8777 -2.1167,3.525 -5.2889,10.9304 -5.2888,10.5777 -4.9361,11.2805 -4.5833,10.9304 -4.2305,11.2804 -4.2305,11.2833 -3.8777,11.6332 -3.8777,11.636 -3.8778,11.6332 -3.5278,11.9888 -7.4026,24.3276 -7.4027,24.3247 -8.1111,25.3859 -9.8693,14.1026 -8.8166,38.4302 -2.4667,5.9916 -2.1166,6.3472 -2.4666,6.6999 -2.1167,7.05 -1.7611,7.0527 -2.1166,7.7555 -1.7611,7.7554 -1.4111,8.1111 0,61.3438 -0.3528,8.8138 0,8.4639 0,8.461 0,8.461 0.3528,8.1082 0.7055,8.1111 0.7056,8.1083 0.7027,7.7554 1.0584,7.7555 1.4111,7.7583 1.4111,7.4027 1.4083,7.0527 1.7639,7.05 2.1138,7.0527 2.1167,7.05 2.1166,6.3471 2.4667,6.6971 2.8194,6.3471 2.4694,5.9944 3.1722,5.9916 3.175,5.6416 3.1722,5.6417 3.5249,5.2888 3.8777,5.2889 3.8778,4.936 4.2333,4.9361 4.2305,4.5833 4.2305,4.2305 4.5833,4.2305 4.9361,3.8777 4.9361,3.8778 5.286,3.5249 3.175,1.7639 3.1722,1.7639 6.3471,3.1722 6.6972,2.8194 6.6999,2.1166 3.525,1.0584 3.5249,0.7027 3.175,0.7056 3.525,0.3527 3.5249,0.7056 3.525,0.3528 7.0527,0.3528 7.4027,0 7.0528,-0.3528 7.0499,-0.7056 7.4055,-1.0583 7.0499,-1.0555 7.0528,-1.7639 7.0499,-1.7639 7.0527,-1.7611 7.0499,-2.4694 6.7,-2.4666 6.6971,-2.4695 6.7,-2.8194 6.3443,-2.8194 6.3472,-2.8222 11.9888,-5.9944 11.2804,-6.3444 10.2249,-5.9944 9.1666,-5.9944 7.7555,-5.6388 5.9944,-4.2305 5.6416,-4.5861 5.6416,-4.9332 5.6388,-4.9361 5.2889,-4.9361 5.2888,-5.2888 5.2888,-5.6416 4.9361,-5.2889 4.9361,-5.9944 4.5833,-5.6387 4.936,-5.9944 4.5833,-6.3472 4.5833,-6.3444 4.2305,-6.3471 8.8138,-13.0443 3.8778,-6.7 4.2305,-7.05 7.7583,-14.1026 7.7554,-14.4554 7.0499,-14.8082 7.0528,-15.5138 6.6971,-15.5109 6.3472,-15.8665 5.9944,-15.8638 5.9944,-16.572 5.9916,-16.2165 5.6416,-16.9249 5.2888,-16.5693 5.2889,-16.9248 5.2888,-16.9221 4.9361,-16.922 4.9332,-16.9249 19.3915,-66.9854 4.5833,-16.5721 4.9361,-16.2165 4.5833,-16.2193 4.936,-15.511 3.525,-11.636 3.5278,-13.0443 8.1082,-30.6747 2.1167,-8.1083 2.4666,-8.1082 4.9361,-16.9221 2.8194,-8.4638 2.8222,-8.461 3.1722,-8.1083 3.1721,-8.1082 3.5278,-7.7583 3.525,-7.7555 3.8777,-7.4027 4.2305,-6.6999 4.2305,-6.6971 2.1167,-3.175 2.1138,-2.8194 2.4695,-2.8223 2.4666,-2.8194 2.4694,-2.8194 2.4667,-2.4694 2.4694,-2.1138 2.4666,-2.4695 2.8223,-1.7611 2.8194,-2.1166 2.8194,-1.4111 2.8222,-1.7611 3.1722,-1.0583 2.8194,-1.4112 3.175,-0.7055 3.1721,-1.0555 3.1722,-0.3528 3.5278,-0.3528 3.1722,0 3.5249,0 3.525,0.3528 3.8805,0.7027 5.6388,1.0584 5.6417,1.4111 4.936,1.7639 4.9361,2.1138 4.5833,2.1167 4.2305,2.4666 3.5249,2.4695 3.5278,2.8193 3.525,3.1722 1.4111,1.7639 1.4083,1.4111 2.8222,3.525 1.0555,1.761 1.0583,1.7639 1.4112,2.1167 0.7055,1.7611 2.1139,3.8777 0.7055,2.1167 0.7056,2.1166 1.4111,4.2305 1.0555,4.2306 1.0583,4.5832 0.7056,4.9361 0.3528,4.5833 0.3527,4.9361 0,5.286 0,4.9361 -0.3527,5.2888 -0.7056,5.6416 -0.3528,5.2889 -1.0583,5.6416 -1.0555,5.6416 -2.1167,11.6332 -3.1722,11.636 -3.5249,14.8054 -3.8806,15.5138 -7.0499,32.4358 -6.3472,33.1413 -6.3443,32.083 -1.0584,5.6417 -0.7055,5.6416 -1.0583,11.2804 -0.7056,10.5777 -0.3528,10.9305 -0.3499,10.9276 -0.7056,11.2833 -1.0583,11.6332 -0.7056,5.9944 -1.0583,5.9944 -2.8194,17.6276 -2.4695,19.0387 -2.4666,19.3915 -2.1166,20.0942 -0.7028,10.5777 -0.7055,10.2249 -1.4111,21.1525 -0.7056,21.5082 -0.3528,21.8581 0,21.8581 0.3528,21.5082 0.3528,10.5748 0.7055,10.9305 0.7056,10.5777 0.7055,10.5777 0.7056,10.2221 1.0555,10.2249 1.4111,10.2249 1.0584,9.8721 1.4082,9.8722 1.7639,9.5193 1.7639,9.5194 1.7611,9.1665 2.8222,13.3971 2.1139,13.0443 2.1166,12.3388 2.1139,11.9888 2.4694,11.986 1.0583,5.6416 1.7611,5.9944 1.4111,5.6416 1.7639,5.6388 2.1139,5.9944 2.1166,5.6416 31.7303,61.3467 1.0583,3.5249 0.7027,3.1722 0.3528,3.175 0.3528,3.1722 -0.3528,3.1722 -0.3528,3.1722 -0.3499,2.8222 -1.0584,2.8194 -1.0583,2.4694 -1.0583,2.4666 -1.4111,2.4695 -1.4083,2.1138 -1.7639,2.1167 -1.7611,1.7611 -1.7639,1.7639 -2.1166,1.4111 -2.4667,1.4083 -2.4694,1.4111 -2.8194,1.0583 -2.4666,0.7056 -2.8222,0.3527 -2.8194,0.3528 -2.4695,0 -2.8194,0 -2.8194,-0.3528 -2.8222,-0.7055 -5.2889,-1.4111 -2.8194,-1.0584 -2.4694,-1.0555 -2.8194,-1.4111 -2.4666,-1.0583 -2.8222,-1.4111 -2.4667,-1.4083 -4.936,-3.175 -4.9361,-3.1722 -4.2305,-3.1722 -8.1111,-6.3472 -6.3443,-4.5832 -3.525,-2.8194 -3.5278,-2.4695 -3.5249,-2.8194 -3.1722,-2.8222 -5.9944,-5.9916 -5.9944,-5.9944 -2.4666,-3.1722 -2.8222,-3.175 -4.9333,-6.3443 -4.5833,-6.7 -4.2333,-7.0499 -3.8777,-7.0527 -1.7611,-3.8778 -2.1167,-3.5249 -3.5249,-7.4055 -3.1722,-7.7555 -3.175,-7.4027 -2.8194,-7.7583 -2.8222,-8.1082 -2.8194,-7.7555 -5.2889,-15.8665 -5.2888,-16.2165 -5.2889,-16.2193 -5.6388,-15.8665 -3.175,-7.7555 -3.1721,-7.7555 -3.525,-7.4055 -3.8777,-7.7555 -3.8806,-7.4026 -4.2305,-7.0528 -4.5833,-7.0499 -4.9361,-7.0527 -13.0443,-1.0583 -2.1138,1.0583 -1.7639,1.0583 -3.1722,2.4666 -3.175,2.4695 -3.1722,2.8194 -2.8194,3.175 -2.8222,3.1722 -2.8194,3.1721 -2.1166,3.5278 -2.4667,3.8777 -2.1166,3.8778 -4.2305,7.7554 -3.8778,8.4611 -3.5249,8.8138 -6.7,17.6304 -3.1722,9.1666 -3.5249,8.8138 -3.175,8.461 -3.8778,8.1082 -3.8777,7.7583 -4.5833,7.0499 -5.2888,7.7555 -5.9944,7.7583 -5.9916,8.1082 -6.7,7.7555 -7.0499,8.1111 -7.0527,7.7554 -7.7555,7.7555 -7.7554,7.7583 -8.4639,7.7555 -8.461,7.4026 -8.8138,7.4056 -9.1666,7.0499 -9.5193,6.6999 -9.8722,6.6972 -10.2249,6.3471 -10.2221,5.9944 -10.9304,5.6417 -5.2889,2.4666 -5.6416,2.8194 -5.2888,2.4694 -5.9916,2.4666 -5.6416,2.1167 -5.6417,2.1139 -5.9944,2.1166 -5.6388,1.7639 -12.3415,3.525 -5.9916,1.761 -5.9944,1.4111 -12.6916,2.4695 -6.3471,1.0555 -6.3472,0.7056 -6.3444,0.7055 -6.7,0.7056 -6.3471,0.3527 -6.6972,0 -13.3971,0 -7.0527,0 -6.6971,-0.7055 -6.7,-0.3528 -7.0499,-1.0583 -14.1026,-2.1139 -7.0528,-1.0583 -7.0499,-1.7639 -3.8777,-0.7027 -3.8806,-0.7056 -7.7554,-1.0583 -15.161,-1.7639 -7.0499,-1.0583 -3.525,-0.35 -3.5278,-0.7055 -3.5249,-1.0584 -3.1722,-1.0583 -3.5249,-1.0583 -3.175,-1.4083 -13.0444,-6.3472 -6.3471,-3.1722 -5.9916,-3.5249 -5.9944,-3.175 -5.9944,-3.525 -5.9916,-3.525 -5.6416,-3.5277 -5.6416,-3.8778 -5.6417,-3.5249 -5.6416,-3.8778 -5.286,-4.2305 -4.9361,-3.8777 -5.2888,-4.2305 -4.9361,-4.2333 -4.936,-4.2306 -4.5833,-4.5832 -4.5833,-4.5833 -4.5833,-4.9361 -4.2305,-4.9361 -4.2305,-4.9332 -4.2305,-4.9361 -3.8806,-5.2888 -3.8777,-5.6416 -3.8778,-5.6417 -3.5249,-5.6416 -3.525,-5.6388 -3.5278,-6.3472 -3.1721,-5.9944 -3.1722,-6.3443 -2.8222,-6.7 -2.8194,-6.6999 -3.1722,-7.4027 -2.8222,-7.4027 -2.4667,-7.7583 -2.4694,-7.4027 -2.1138,-7.7555 -2.1167,-7.4055 -1.7639,-7.7554 -1.7611,-7.7583 -1.4111,-7.7555 -1.4111,-7.7555 -1.4083,-7.7582 -1.0583,-7.7555 -0.7056,-7.7555 -1.0583,-7.7583 -0.7027,-8.1082 -0.3528,-7.7554 -0.3528,-7.7555 -0.3528,-8.1111 0,-7.7554 0,-8.1083 0,-7.7583 0.3528,-8.1083 0.3528,-7.7554 0.3528,-7.7583 1.4083,-15.8637 1.4111,-15.8666 2.1138,-15.5109 2.4695,-15.8665 2.8194,-15.5138 2.8222,-15.1581 3.5249,-15.5138 3.525,-14.8082 3.5249,-15.161 3.8806,-14.8082 4.2305,-14.4526 4.2305,-14.1026 4.5833,-14.1026 4.2305,-13.7499 4.5833,-13.7499 4.5833,-13.0471 9.1666,-25.3831 9.1666,-23.9748 7.4026,-19.0387 7.4056,-18.6859 7.4026,-18.3332 3.8778,-8.8138 4.2333,-9.1665 3.8777,-8.4611 4.2306,-8.8138 4.5832,-8.4638 4.5833,-8.461 4.5833,-8.1083 4.9361,-8.1082 5.2888,-8.1111 5.2861,-7.7554 3.8805,-5.6417 1.7611,-2.8194 1.4111,-3.1722 2.8194,-5.9943 2.4694,-6.3472 2.4667,-5.9916 2.8222,-5.9944 3.1722,-6.3472 1.4111,-2.8194 2.1138,-2.8222 5.6416,-8.8138 5.9944,-8.461 6.3444,-7.7555 2.8222,-3.8777 3.1722,-3.8806 6.6999,-7.4027 6.3444,-6.6999 3.5278,-3.525 3.5249,-3.1722 3.525,-3.5249 3.5249,-3.175 3.5278,-2.8194 3.8778,-3.1722 3.8777,-2.8222 3.8777,-2.8194 3.8778,-2.8222 4.2305,-2.8194 4.2305,-2.8194 4.2305,-2.4695 4.2333,-2.8194 4.5833,-2.4694 9.5194,-4.5833 4.9332,-2.4666 4.9361,-2.1167 10.2249,-4.5833 z"
           style="fill:url(#linearGradient4421);fill-opacity:1;fill-rule:evenodd;stroke:none" />
        <path
           inkscape:connector-curvature="0"
           id="path4299"
           d="m 445.3694,-2191.1667 10.9277,0 10.2249,0 10.2249,0 9.8721,0.7056 9.8722,0.3527 9.5193,0.7056 9.5194,1.0583 8.8138,1.0555 9.1666,1.4112 8.8138,1.4111 8.461,1.4083 8.461,1.7638 8.1111,2.1167 7.7554,2.1139 8.1083,2.1166 7.4055,2.4666 7.4027,2.8223 7.4027,2.8194 7.0527,2.8194 7.0499,3.175 6.7,3.1721 6.6999,3.525 6.6972,3.5278 6.3471,3.8777 5.9916,4.2305 5.9944,3.8778 5.9944,4.2305 5.9944,4.5833 5.6388,4.5832 5.6416,4.9361 5.2889,4.9361 5.2888,5.2888 5.6416,5.6416 3.8778,3.8778 4.2305,4.936 4.5833,4.9361 4.5833,5.6388 4.5833,5.9944 3.8777,5.9944 2.1167,3.1722 1.761,3.1722 1.4111,3.175 1.4111,3.1721 1.0584,3.1722 1.0555,2.8222 0.7055,3.1722 0.3528,2.8222 0,3.1722 0,2.8194 -0.3528,1.4111 -0.3527,1.0584 -0.3528,1.4083 -0.3528,1.4111 -0.7027,1.0583 -0.7056,1.4111 -1.7639,2.4666 -1.0583,1.0584 -1.0583,1.0583 -1.4083,1.0555 -1.4111,1.0584 -2.1139,0.7055 -2.1166,0.7056 -2.1167,0.7055 -2.1139,0.3528 -4.5832,0 -4.9361,-0.7056 -2.4695,-0.7055 -2.4666,-0.7056 -2.4666,-1.0583 -2.4694,-1.0555 -2.4667,-1.0584 -2.4694,-1.4111 -4.9361,-2.4666 -4.5833,-2.8222 -4.936,-3.1722 -8.4611,-5.9944 -7.4026,-5.2888 -3.175,-2.1139 -2.8194,-1.4111 -9.5194,-4.9361 -12.6915,-5.9944 -14.4555,-6.6971 -8.1082,-3.5249 -8.4638,-3.5278 -8.8138,-3.1722 -9.1666,-3.525 -9.5194,-3.5249 -9.8721,-3.175 -9.8693,-3.1722 -10.2249,-3.1722 -9.8722,-2.8222 -10.5777,-2.4666 -10.2249,-2.4695 -10.2249,-2.1138 -4.9332,-0.7056 -4.9361,-1.0583 -10.2249,-1.0583 -9.8721,-1.0555 -9.5194,-0.7056 -9.5193,0 -4.5833,0.3528 -4.5833,0.3528 -4.2305,0.3499 -4.2305,0.7056 -4.2306,0.7055 -4.2305,0.7056 -3.8805,1.0583 -3.8778,1.4111 -3.8777,1.4083 -3.5249,1.4111 -3.525,1.7639 -3.5278,1.7611 -3.1722,2.1167 -3.1721,2.1138 -2.8223,2.4694 -2.8194,2.4667 -2.4694,2.8222 -2.4666,3.1722 -3.1722,4.2305 -2.4694,3.8777 -2.8194,4.2305 -2.4695,4.2305 -2.1138,4.2305 -2.1167,3.8806 -3.8777,8.461 -1.4111,4.2305 -1.7611,4.2305 -1.0583,4.2306 -1.4112,4.2305 -1.761,8.1082 -1.4111,8.4639 -0.7056,8.461 -0.3528,8.1082 0.3528,8.461 0.3528,3.8778 0.3528,4.2305 0.3527,4.2333 0.7056,3.8778 1.4083,8.1082 2.1167,8.1082 2.1166,7.7583 2.4666,7.7555 3.1722,7.7555 3.175,7.7583 3.525,7.4026 3.5249,7.4027 3.8778,7.0528 4.2305,7.0499 4.2333,6.6999 4.2305,6.6972 4.5833,6.6999 4.5833,6.3472 4.5833,5.9916 4.5833,5.9944 4.936,5.6416 4.5833,5.2888 4.5833,5.2889 4.5833,4.5833 4.5833,4.936 9.5194,9.8694 10.222,9.8721 10.5777,9.8721 10.9305,10.2249 11.2804,10.5777 23.622,21.1526 23.622,22.2109 11.636,11.2832 11.6332,11.636 11.6361,11.986 5.6416,6.3472 5.6388,5.9916 10.9305,12.6943 5.2888,6.3444 4.9361,6.3472 5.2888,6.6971 4.9361,6.3472 4.5833,6.6999 4.936,7.0499 4.2305,6.7 4.5833,7.0499 4.2305,7.0528 3.8778,7.0499 3.8777,7.4055 3.525,7.4027 3.5277,7.4027 3.1722,7.4054 2.8194,7.7555 2.8222,7.7555 2.4667,7.7583 2.1166,7.7554 1.7611,8.1084 1.7639,8.111 1.4111,8.4611 1.0555,8.461 1.0583,8.461 0.3528,8.461 0.3528,8.8138 -0.3528,8.8167 -0.3528,9.1665 -0.7055,9.1666 -1.4083,9.1666 -1.4111,9.1666 -1.7639,9.5193 -2.4666,9.8722 -2.4695,9.5165 -3.1721,9.8721 -1.4112,4.2305 -1.761,4.2334 -2.1167,4.2305 -2.1138,4.2304 -2.1167,3.8777 -2.4666,3.8778 -2.4695,4.2305 -2.4666,3.5249 -5.2888,7.7583 -5.2889,7.0499 -10.5777,14.1027 -4.2305,5.2888 -4.2305,5.2889 -4.5833,4.936 -4.5833,4.9361 -4.936,4.5833 -4.9361,4.2305 -5.2888,4.2305 -5.6417,4.2305 -5.6388,3.8777 -5.6416,3.525 -5.9944,3.5278 -5.9944,3.5249 -5.9916,3.1722 -6.3471,3.175 -6.3472,2.8194 -6.6972,2.8194 -6.6999,2.4695 -6.6971,2.4666 -7.0528,2.1166 -7.0499,2.1139 -7.0527,1.7639 -7.4027,1.7639 -7.0527,1.761 -7.4027,1.4111 -7.4027,1.0584 -7.7583,1.4083 -15.1582,1.7639 -7.7583,0.7055 -7.4026,0.3528 -7.7583,0.7055 -8.1083,0 -7.7554,0.3528 -7.7555,0 -7.7583,-0.3528 -7.7555,0 -15.8665,-1.0583 -7.7555,-0.7055 -8.1082,-0.7056 -7.7583,-1.0583 -7.7555,-1.0555 -7.7554,-1.0584 -7.7583,-1.0583 -15.1582,-3.1722 -15.161,-3.1722 -14.8082,-3.8805 -7.0499,-2.1139 -7.4055,-2.1166 -14.1026,-4.9361 -13.7499,-4.9361 -13.0443,-5.6388 -13.0443,-5.6416 -11.9888,-6.3472 -5.9916,-3.1721 -5.6416,-3.525 -6.3472,-3.8806 -7.4027,-4.936 -8.461,-5.9916 -8.8166,-6.7 -9.1666,-7.4026 -4.5833,-3.8778 -4.5833,-3.8805 -4.5833,-4.2305 -4.2305,-4.5833 -4.5833,-4.2305 -4.2305,-4.5833 -3.8777,-4.5833 -3.8777,-4.5833 -3.525,-4.936 -3.175,-4.5833 -1.4083,-2.4666 -1.4111,-2.4694 -2.8194,-4.9361 -2.1167,-4.9361 -1.0583,-2.4666 -0.7056,-2.1167 -1.4082,-4.936 -0.3528,-2.4666 -0.3528,-2.4667 -0.3528,-2.4694 0,-2.4666 0,-2.1167 0,-2.4666 0.3528,-2.4695 0.3528,-2.4666 0.7055,-2.1167 0.7028,-2.4666 1.0583,-2.1166 1.0583,-2.4667 1.4111,-2.1166 1.4083,-2.1139 4.2305,-1.4111 2.4695,-0.3528 2.4666,-0.3527 2.8222,-0.3528 2.8194,0 2.4695,0.3528 1.0555,0.3527 1.4111,0.3528 9.8721,4.9361 4.9361,2.4666 4.9361,2.8222 9.5193,5.286 9.1666,5.9944 9.1666,6.3472 8.8138,6.3444 17.9804,12.6943 8.8138,6.3444 9.1665,6.3472 9.5194,5.9944 9.5193,5.6416 4.9361,2.8194 5.2889,2.8194 4.936,2.4694 5.2889,2.4667 5.2888,2.1166 5.6388,2.1139 5.6416,2.1166 5.6417,1.7639 4.2305,1.0555 4.5833,1.0584 4.5832,1.0583 4.5833,0.7056 4.5833,0.3527 4.9361,0.3528 4.5833,0.3499 4.936,0.3527 10.225,0.3528 10.5776,0 21.1526,0 15.5138,-0.3528 7.4026,-0.3527 7.4056,-0.3499 7.0499,-0.3528 6.6999,-0.7055 6.6972,-0.7056 6.3471,-0.7055 5.9944,-1.0584 5.9916,-1.0555 2.8222,-0.7055 2.8194,-0.7056 5.6417,-1.4111 5.2888,-1.4111 4.9361,-1.7611 5.286,-2.1166 4.5833,-2.1139 4.5861,-2.1167 4.5833,-2.4666 4.2305,-2.8222 4.2305,-2.8195 3.8777,-3.1722 3.8778,-3.1749 3.5249,-3.5249 3.5278,-3.525 1.7611,-2.1167 1.7639,-2.1139 3.1721,-3.8777 3.1722,-4.5833 2.8222,-4.5833 2.8194,-4.936 2.8223,-4.936 2.8194,-5.6417 2.4666,-5.6416 1.4111,-4.2305 1.7639,-4.5833 1.761,-5.6416 1.4112,-5.9944 1.7638,-6.3444 1.4083,-6.6999 1.0584,-6.6972 1.0583,-7.0527 0.7056,-7.4027 0.3527,-3.5249 0.3528,-3.5278 0.3528,-7.0499 -0.3528,-7.0528 -0.3528,-6.6971 -1.0583,-6.3472 -0.3528,-3.1721 -0.7055,-3.175 -1.7611,-5.2861 -2.1167,-4.936 -1.7639,-4.5833 -2.4666,-4.2305 -2.1166,-4.5833 -2.4667,-4.2334 -2.4694,-4.2305 -2.8194,-4.2305 -2.8194,-4.2305 -5.6416,-7.7555 -3.1722,-3.8777 -3.175,-3.8777 -3.525,-3.8806 -3.1721,-3.525 -7.0528,-7.4027 -7.0499,-6.6999 -7.0527,-7.0499 -7.7555,-6.3472 -7.4055,-6.3472 -7.4027,-6.3444 -7.7555,-5.9944 -14.8082,-11.986 -50.4161,-47.9495 -9.1666,-7.4055 -9.1666,-8.1083 -9.5193,-8.461 -9.5194,-9.1666 -9.8721,-9.5193 -9.5194,-9.8722 -4.9361,-4.936 -4.5832,-5.2889 -9.5194,-10.5749 -9.1666,-10.9304 -8.461,-11.2833 -4.2305,-5.6388 -3.8777,-5.6416 -3.8806,-5.6416 -3.8777,-5.6416 -3.525,-5.9916 -3.5249,-5.6416 -3.175,-5.6417 -3.1722,-5.9944 -2.8194,-5.6416 -2.4695,-5.6388 -2.4666,-5.9944 -2.1167,-5.6416 -2.8194,-8.8138 -2.8222,-8.8138 -2.4666,-9.1666 -2.4694,-9.1665 -1.7611,-9.1666 -1.7639,-9.1666 -1.4083,-9.1666 -1.4111,-9.1666 -0.7056,-9.1665 -0.7055,-8.8138 -0.3528,-9.1666 -0.3528,-9.1666 0.3528,-8.8166 0.3528,-9.1666 0.7055,-8.8138 1.0584,-8.8138 1.0583,-8.461 0.7027,-4.2305 1.0584,-4.2305 0.7055,-4.2306 1.0584,-4.2305 2.1138,-8.111 2.4695,-8.1083 2.4666,-7.7554 3.175,-7.7583 3.1722,-7.4027 3.5249,-7.4027 3.8777,-7.0527 4.2306,-6.6972 4.5832,-6.6999 4.5833,-6.3472 5.2889,-5.9916 5.2888,-5.6416 5.6416,-5.6416 5.9944,-5.2889 6.3444,-4.936 6.3472,-4.5833 6.6971,-4.5833 6.7,-4.2305 6.6999,-3.8778 7.0499,-3.8777 7.4055,-3.5249 7.4027,-3.5278 7.7555,-3.1722 7.7583,-3.1722 8.1082,-3.175 8.1083,-2.8194 8.461,-2.8194 17.2776,-5.2888 54.6467,-6.7 z"
           style="fill:url(#linearGradient4423);fill-opacity:1;fill-rule:evenodd;stroke:none" />
      </g>
      <path
         style="fill:#d8713f;fill-opacity:1;fill-rule:nonzero;stroke:none"
         d="m 1877.825,-806.99924 0,-271.12246 199.2207,0 0,24.6804 -162.8987,0 0,97.66016 157.2542,0 0,24.3275 -157.2542,0 0,100.1268 162.8987,0 0,24.3276 -199.2207,0 z m -1313.9956,0 0,-271.12246 36.6691,0 0,271.12246 -36.6691,0 z m 84.6159,-75.8021 38.7829,0 0.7056,5.6416 1.0583,5.2889 1.7611,5.2888 2.4694,4.9361 3.1722,4.5833 3.525,4.5833 4.2305,4.5832 4.936,3.8778 5.2889,3.8777 5.6416,3.1722 5.9944,2.8222 6.3444,2.4666 6.3471,1.7639 7.05,1.0584 7.0527,0.7055 7.4027,0.35 7.7583,-0.35 7.4027,-0.7055 7.0499,-1.0584 6.6999,-1.7639 12.6916,-4.5833 5.9944,-3.1721 5.6416,-3.525 9.8721,-7.7583 3.8777,-4.5833 3.1722,-4.5833 2.4695,-4.936 1.4083,-5.286 1.0583,-5.6417 0.3528,-5.6416 -0.3528,-5.2888 -1.0583,-5.6417 -2.4667,-5.2888 -2.8222,-4.9361 -3.8777,-4.9332 -4.2305,-4.5833 -4.9361,-4.2333 -5.2888,-3.525 -5.9916,-3.5249 -6.3472,-2.8194 -12.6915,-4.5833 -13.7499,-3.5278 -14.1026,-2.8194 -1.7639,-0.7056 -1.4111,0 -3.1722,-0.7055 -3.525,-0.3528 -15.161,-3.525 -15.1609,-3.8777 -14.1027,-5.2888 -6.6971,-3.1722 -6.3472,-3.8777 -7.4027,-4.9361 -5.9944,-5.2889 -5.2888,-5.9944 -4.2305,-6.3471 -3.525,-6.6972 -2.4694,-7.0527 -1.4083,-7.04986 -0.3528,-7.0527 0.3528,-8.1083 1.4083,-7.4027 2.4694,-7.4055 3.1722,-6.6971 4.5833,-6.3472 2.4694,-3.1722 2.4666,-2.8222 6.3472,-5.6388 7.0499,-5.2888 7.7583,-4.9361 8.1083,-3.8777 8.8138,-3.5278 8.8138,-2.8195 9.1665,-2.4694 9.8722,-1.4083 10.2249,-1.0583 10.5777,-0.3528 10.2221,0.3528 9.5193,1.0583 9.5194,1.761 9.1666,2.1167 8.8138,3.1722 8.111,3.5278 8.1083,4.2304 7.4027,4.9361 7.0527,5.6388 5.9944,5.6416 4.9332,5.9944 4.2334,6.3444 3.1721,6.6999 1.0584,3.525 1.0555,3.5278 1.4111,7.4028 0.3528,7.7554 -38.0774,-0.3527 -0.7056,-4.9361 -1.4083,-4.9361 -3.8777,-8.8138 -5.9944,-7.7554 -3.8778,-3.8778 -4.2305,-3.5249 -9.8721,-5.6417 -5.2888,-2.4694 -5.6417,-1.7611 -5.9944,-1.4111 -6.3443,-1.0583 -6.3472,-0.7056 -7.0499,-0.3499 -12.6944,1.0555 -11.6332,2.4694 -5.6416,2.1139 -4.9361,2.4694 -9.5193,5.9916 -4.2305,3.5278 -3.8778,3.8777 -3.175,3.8777 -2.4666,3.8778 -3.1722,8.8138 -1.0583,4.5833 -0.3528,4.936 0.3528,5.6417 1.0583,5.28876 1.7611,4.9361 2.4695,4.2305 1.4082,1.7639 1.7639,2.1138 3.525,3.1722 4.5833,3.175 4.936,2.4666 11.2833,4.2305 11.2804,3.8778 12.3416,3.175 12.3387,2.8194 1.7639,0.7055 1.4083,0 6.7,1.4111 5.9944,1.0584 15.5109,3.5249 14.4554,4.2305 13.7499,5.2889 6.7,3.5248 6.6971,4.2305 7.7583,5.2889 6.6971,5.9944 5.9944,6.6971 4.9361,7.4056 3.8777,7.7555 2.8222,7.7554 1.4083,7.7582 0.7056,8.1084 -0.7056,8.1081 -1.4083,8.1084 -2.4694,7.4055 -3.8777,7.0499 -4.5833,7.0527 -5.6417,6.3444 -6.6971,6.3471 -8.1111,5.6416 -8.461,5.6416 -8.8138,4.5833 -9.1666,3.8777 -9.5193,3.1722 -9.8721,2.4695 -10.225,1.761 -10.5748,1.0584 -10.9305,0.3527 -11.2832,-0.3527 -10.9277,-1.0584 -10.5777,-1.761 -10.2249,-2.4695 -9.8721,-3.1722 -9.5194,-3.8777 -8.8138,-4.5833 -8.461,-5.2888 -8.1082,-5.6417 -6.7,-6.3471 -5.6388,-6.3444 -4.5861,-7.0526 -3.8777,-7.7555 -2.4667,-7.7555 -1.4111,-8.1111 -0.3527,-8.8137 0,-0.3528 z m 240.0977,75.8021 157.2429,-271.12246 40.5441,0 156.1874,271.12246 -39.4885,0 -52.8857,-90.9603 -169.5817,0 -52.8856,90.9603 -39.1329,0 z m 106.474,-115.6406 141.0264,0 -70.1604,-124.45426 -70.866,124.45426 z m 291.2166,115.6406 0,-271.12246 95.8963,0 25.4,1.0584 25.0049,1.4111 12.3613,1.4083 11.9662,2.8222 11.6558,3.525 11.2607,4.936 10.9502,5.6416 9.5109,6.6972 8.4667,7.7583 6.6886,8.461 2.8223,4.2305 2.4835,4.5833 3.8665,9.5193 1.0442,4.9361 1.0724,4.5833 0.7056,10.22486 -0.7056,9.1666 -0.7055,4.5833 -1.0443,4.5833 -3.1891,8.461 -4.572,8.461 -2.8222,3.8777 -3.1891,3.8778 -7.0556,7.0527 -3.8664,3.525 -4.572,3.1721 -9.5391,5.9944 -10.922,5.2889 -10.922,4.2305 -11.6276,2.8222 -11.6557,2.1139 -24.3276,2.4694 -25.3718,0.7027 -68.4022,0 0,108.9435 -36.6663,0 z m 36.6663,-133.9737 62.3909,0 19.4169,0 18.6831,-1.0584 9.144,-1.4111 9.1722,-1.7611 8.8336,-2.8222 8.4384,-3.5249 7.0556,-3.8778 6.0113,-4.2305 5.2776,-4.936 4.9388,-5.2889 3.5278,-5.9944 2.8222,-5.9916 1.7498,-6.3471 0.7056,-6.3472 0,-1.0584 0,-1.0555 -0.7056,-8.46096 -2.4553,-8.1111 -3.5278,-7.4026 -5.3058,-6.7 -6.3217,-6.3444 -3.8947,-2.8222 -3.8665,-2.4666 -9.1722,-4.5833 -10.2164,-3.8777 -11.6558,-2.8222 -11.6276,-1.7611 -11.9944,-1.0583 -11.9662,0 -8.128,-0.3528 -8.0998,0.3528 -6.35,0 -5.9831,0 -46.8969,0 0,112.11556 z m 255.6002,133.9737 0,-271.12246 86.7269,0 17.6389,0.3528 17.9776,0.7056 17.6388,1.0583 17.6107,2.1139 8.4667,1.7638 8.4666,2.1139 8.0998,2.4694 7.7611,2.8194 13.0387,6.3472 5.6444,3.8777 5.6445,3.525 4.9389,4.2305 4.9389,4.2333 4.2333,4.5833 3.5278,4.9361 3.5278,4.9332 3.1608,5.2889 4.2334,10.5777 2.8222,11.2832 1.0724,11.63316 -0.7055,8.1083 -1.4111,8.111 -2.4836,7.4027 -3.5278,7.4027 -4.2333,7.0527 -5.6444,6.7 -6.3218,6.3444 -7.4225,5.9944 -8.0997,5.6416 -8.4667,4.5833 -8.8053,4.2305 -9.1723,3.5249 -9.8777,2.4667 -10.2165,2.1166 -10.2164,1.4111 -10.9502,0.3528 102.616,100.8324 -45.4943,0 -123.7544,-122.6933 10.9502,0 2.794,0.3528 2.8222,0 14.1111,0 14.1112,-0.3528 11.9944,-0.7056 11.6276,-1.4083 5.6444,-0.7055 5.6444,-1.0584 10.5552,-3.1721 10.5833,-4.2305 4.9389,-2.4695 4.572,-2.8194 8.128,-5.9944 6.6886,-7.0499 5.6445,-7.4055 3.5278,-8.1083 2.4553,-8.1082 0.7056,-8.8138 0,-1.4111 0,-1.0583 -1.0443,-6.69716 -1.778,-6.3472 -3.1609,-6.6999 -3.8664,-6.3444 -4.9389,-5.6416 -5.6444,-5.6416 -6.35,-4.5833 -7.0556,-4.2305 -7.7611,-3.525 -8.0998,-3.1721 -8.4666,-2.1167 -8.8054,-1.4111 -17.9775,-1.7611 -17.9776,-0.7055 -6.7169,0 -6.6886,0 -57.8274,0 0,246.08926 -36.322,0 z"
         id="path4301"
         inkscape:connector-curvature="0" />
      <path
         style="fill:#d8713f;fill-opacity:1;fill-rule:nonzero;stroke:none"
         d="m 1877.825,-806.99924 0,-271.12246 199.2207,0 0,24.6804 -162.8987,0 0,97.66016 157.2542,0 0,24.3275 -157.2542,0 0,100.1268 162.8987,0 0,24.3276 -199.2207,0 z"
         id="path4303"
         inkscape:connector-curvature="0" />
      <path
         style="fill:#d8713f;fill-opacity:1;fill-rule:nonzero;stroke:none"
         d="m 563.8294,-806.99924 0,-271.12246 36.6691,0 0,271.12246 -36.6691,0 z"
         id="path4305"
         inkscape:connector-curvature="0" />
      <path
         style="fill:#d8713f;fill-opacity:1;fill-rule:nonzero;stroke:none"
         d="m 648.4453,-882.80134 38.7829,0 0.3528,2.8222 0.3528,2.8194 0.3528,2.8194 0.7055,2.4695 1.0555,2.8194 0.7056,2.4694 1.4111,2.4666 1.0583,2.4695 1.4083,2.4666 1.7639,2.1167 1.7639,2.4666 1.7611,2.1167 2.1166,2.4666 2.1139,2.1166 2.4694,2.1139 2.4666,1.7639 2.4695,2.1138 2.8194,1.7639 2.8194,1.7639 2.8222,1.4083 2.8194,1.7639 3.175,1.0583 3.1722,1.4111 3.1722,1.0555 3.175,0.7056 3.1721,1.0583 3.525,0.7056 3.525,0.3527 7.0527,1.0555 7.4027,0 7.7583,0 3.8777,-0.35 3.525,-0.3527 7.0499,-1.4111 3.5277,-0.7056 3.1722,-0.7056 3.525,-1.0582 3.175,-1.0555 6.3443,-2.8223 2.8223,-1.4083 2.8194,-1.4112 3.1721,-1.7637 2.8223,-1.7611 1.0555,-1.0583 1.4111,-1.0584 2.4694,-2.1138 2.4666,-1.7639 2.1167,-2.1167 2.1139,-2.1138 1.7638,-2.4695 1.7611,-2.1138 1.4111,-2.4695 1.0584,-2.4666 1.4111,-2.4694 0.7027,-2.8194 1.0583,-2.4666 0.3528,-2.8223 0.7056,-2.8194 0,-2.8222 0.3527,-2.8195 -0.3527,-2.8194 -0.3528,-2.4694 -0.3528,-2.8194 -0.7055,-2.8223 -2.1139,-5.2888 -1.4111,-2.4666 -1.7639,-2.4695 -1.7611,-2.4666 -2.1166,-2.4666 -1.0555,-1.4111 -1.0584,-1.0584 -2.1166,-2.1138 -2.1139,-2.1167 -2.8222,-2.1166 -2.4666,-1.7611 -2.8222,-1.7639 -2.8194,-1.761 -3.1722,-1.7638 -5.9944,-2.8195 -3.1722,-1.4112 -3.5278,-1.0582 -6.3443,-2.1139 -13.7499,-3.1749 -14.1026,-3.1722 -1.4112,-0.7056 -1.7638,0 -1.7611,-0.3527 -1.4111,-0.3528 -3.1722,-0.3528 -7.7583,-1.7611 -7.7555,-1.7639 -7.4026,-2.1138 -7.7583,-1.7639 -3.525,-1.0583 -3.5249,-1.4111 -3.525,-1.0555 -3.5278,-1.4112 -3.5249,-1.7638 -3.1722,-1.7611 -3.1722,-1.7639 -3.175,-2.1138 -3.8777,-2.1167 -1.7639,-1.4111 -1.7611,-1.4083 -3.175,-2.4695 -2.8194,-2.8194 -2.8194,-2.8222 -2.4694,-3.1722 -1.0584,-1.4111 -1.0555,-1.761 -2.1166,-3.175 -1.7611,-3.525 -1.7639,-3.1722 -1.0583,-3.5249 -1.0584,-3.5278 -0.7027,-1.7611 -0.3528,-1.7639 -0.7055,-3.52486 -0.3528,-3.525 0,-3.5277 0,-4.2306 0.3528,-3.8777 0.7055,-3.8777 0.7028,-3.525 1.0583,-3.8777 0.7056,-1.7639 0.7055,-1.7639 1.7639,-3.5249 1.7611,-3.1722 1.7639,-3.175 2.4666,-3.1722 2.4694,-3.1722 2.4666,-2.8222 3.1722,-2.8194 3.175,-2.8194 3.525,-2.8222 3.5249,-2.4666 3.8778,-2.4695 3.8805,-2.4666 4.2305,-2.1167 3.8778,-1.761 4.2305,-1.7639 4.5833,-1.7639 4.2305,-1.4083 4.5833,-1.4111 4.5833,-1.4111 4.936,-0.7056 4.5833,-1.0555 4.9361,-0.7056 4.936,-0.3527 5.2889,-0.7056 5.2888,0 5.2889,0 4.9332,0 5.2889,0 4.936,0.7056 4.9361,0.3527 4.5833,0.7056 4.5833,1.0555 4.5833,1.0583 4.5833,1.0584 4.2305,1.4111 4.5833,1.7611 4.2305,1.7638 3.8805,1.7639 4.2305,2.1139 3.8778,2.1166 3.8777,2.4667 3.525,2.4694 3.5277,2.8194 3.525,2.8194 3.1722,2.8222 2.8222,2.8194 2.4666,3.1722 1.4111,1.4111 1.0555,1.4111 2.1167,3.1722 2.1167,3.1722 1.761,3.5278 1.4111,3.1721 1.0584,3.525 1.0555,3.5278 0.7055,3.8777 0.7056,3.525 0,1.7639 0.3528,2.1138 0,3.8777 -38.0774,-0.3527 -0.7056,-4.9361 -1.4083,-4.9361 -0.7055,-2.1138 -1.0584,-2.1167 -1.0583,-2.4666 -1.0555,-2.1167 -1.4111,-2.1138 -1.4111,-1.7639 -1.4112,-2.1139 -1.761,-1.7638 -3.8778,-3.8778 -2.1166,-1.7639 -2.1139,-1.761 -2.4694,-1.4111 -2.4666,-1.4112 -4.9361,-2.8194 -2.4694,-1.4111 -1.4112,-0.3527 -1.4082,-0.7056 -2.8223,-1.0555 -2.8194,-0.7056 -5.9944,-1.4111 -3.1721,-0.7055 -3.1722,-0.3528 -3.175,-0.3528 -3.1722,-0.3528 -3.525,0 -3.5249,-0.3499 -6.3472,0.3499 -6.3472,0.7056 -3.1721,0.3528 -2.8194,0.7055 -5.6417,1.4111 -5.6416,2.1139 -2.4694,1.0583 -2.4667,1.4111 -4.936,2.8194 -4.5833,3.1722 -2.4666,1.7639 -1.7639,1.7639 -2.1167,1.761 -1.7611,2.1167 -1.4111,1.7639 -1.4111,2.1138 -1.4083,2.1167 -1.4111,2.1139 -1.0583,1.7638 -0.7056,2.4667 -0.7027,2.1166 -0.7056,2.1139 -1.0583,4.5833 0,4.936 0,2.8223 0.3528,2.8194 0.3528,2.8194 0.3527,2.46936 1.0556,2.4666 0.7055,2.4695 1.0583,2.1138 1.4112,2.1167 1.4082,2.1166 1.7639,1.7611 1.7639,1.7639 1.7611,1.7611 2.1167,1.4111 2.4666,1.4111 2.4694,1.4083 2.4666,1.0583 5.6417,2.1167 5.6416,2.1138 11.6332,3.8778 5.6416,1.7638 6.3472,1.4112 5.9944,1.4111 6.3443,1.4083 1.7639,0.7055 1.4083,0 6.7,1.4111 3.1722,0.7056 2.8222,0.3528 7.7554,1.761 7.7555,2.1167 7.4055,1.7611 7.0499,2.1166 3.5278,1.0584 3.525,1.4082 3.1721,1.4112 3.525,1.4111 3.5278,1.761 3.1722,1.7639 3.5249,2.1167 3.525,2.1138 3.8805,2.4695 1.7611,1.4083 1.7639,1.4111 3.5249,3.1722 3.1722,2.8222 3.175,3.5249 2.8194,3.1722 2.4695,3.8777 2.4666,3.5278 2.1166,3.8778 1.7611,3.8777 1.4111,3.8777 1.4111,3.8778 1.0555,3.8777 0.3528,3.8805 0.7056,4.2306 0,3.8777 0,4.2305 -0.3528,3.8777 -0.7056,4.2305 -1.0555,3.8778 -1.0583,3.8805 -1.4111,3.525 -1.7611,3.5249 -2.1166,3.525 -2.1167,3.5278 -2.4666,3.5249 -2.8194,3.1722 -2.8223,3.1722 -3.1721,3.175 -3.525,3.1722 -3.8805,2.8194 -3.8778,3.175 -4.2305,2.4666 -4.2305,2.8222 -4.5833,2.4666 -4.5833,2.1167 -4.2305,2.1138 -4.9361,1.7639 -4.5832,1.7611 -4.9361,1.4111 -4.9361,1.4111 -4.936,1.0584 -4.9361,1.0555 -5.2889,0.7055 -5.286,0.7056 -5.2888,0.3528 -5.2889,0.3527 -5.6416,0 -5.6416,0 -5.6416,-0.3527 -5.6388,-0.3528 -5.2889,-0.7056 -5.2888,-0.7055 -5.2889,-1.0555 -5.2888,-1.0584 -4.9361,-1.4111 -4.936,-1.4111 -4.9361,-1.7611 -4.5833,-1.7639 -4.9361,-2.1138 -4.2305,-2.1167 -4.5833,-2.4666 -4.2305,-2.4694 -4.2305,-2.4667 -4.2305,-2.8222 -3.8777,-3.1722 -3.525,-3.1721 -3.175,-3.175 -2.8194,-3.1722 -2.8194,-3.1722 -2.4694,-3.5278 -2.1167,-3.5249 -2.1138,-3.8778 -1.7639,-3.5249 -1.4083,-3.8777 -1.0584,-4.2306 -0.7055,-3.8805 -0.7056,-4.2305 -0.3527,-4.2305 0,-4.5833 0,-0.3528 z"
         id="path4307"
         inkscape:connector-curvature="0" />
      <path
         style="fill:#d8713f;fill-opacity:1;fill-rule:nonzero;stroke:none"
         d="m 995.017,-922.63984 141.0264,0 -70.1604,-124.45436 -70.866,124.45436 z m -106.474,115.6406 157.2429,-271.12246 40.5441,0 156.1874,271.12246 -39.4885,0 -52.8857,-90.9603 -169.5817,0 -52.8856,90.9603 -39.1329,0 z"
         id="path4309"
         inkscape:connector-curvature="0" />
      <path
         style="fill:#d8713f;fill-opacity:1;fill-rule:nonzero;stroke:none"
         d="m 1322.8999,-940.97294 62.3909,0 19.4169,0 18.6831,-1.0584 9.144,-1.4111 9.1722,-1.7611 8.8336,-2.8222 8.4384,-3.5249 7.0556,-3.8778 6.0113,-4.2305 5.2776,-4.936 4.9388,-5.2889 3.5278,-5.9944 2.8222,-5.9916 1.7498,-6.3471 0.7056,-6.3472 0,-1.0584 0,-1.0555 -0.7056,-8.46096 -2.4553,-8.1111 -3.5278,-7.4026 -5.3058,-6.7 -6.3217,-6.3444 -3.8947,-2.8222 -3.8665,-2.4666 -9.1722,-4.5833 -10.2164,-3.8777 -11.6558,-2.8222 -11.6276,-1.7611 -11.9944,-1.0583 -11.9662,0 -8.128,-0.3528 -8.0998,0.3528 -6.35,0 -5.9831,0 -46.8969,0 0,112.11556 z m -36.6663,133.9737 0,-271.12246 95.8963,0 25.4,1.0584 25.0049,1.4111 12.3613,1.4083 11.9662,2.8222 11.6558,3.525 11.2607,4.936 10.9502,5.6416 9.5109,6.6972 8.4667,7.7583 6.6886,8.461 2.8223,4.2305 2.4835,4.5833 3.8665,9.5193 1.0442,4.9361 1.0724,4.5833 0.7056,10.22486 -0.7056,9.1666 -0.7055,4.5833 -1.0443,4.5833 -3.1891,8.461 -4.572,8.461 -2.8222,3.8777 -3.1891,3.8778 -7.0556,7.0527 -3.8664,3.525 -4.572,3.1721 -9.5391,5.9944 -10.922,5.2889 -10.922,4.2305 -11.6276,2.8222 -11.6557,2.1139 -24.3276,2.4694 -25.3718,0.7027 -68.4022,0 0,108.9435 -36.6663,0 z"
         id="path4311"
         inkscape:connector-curvature="0" />
      <path
         style="fill:#d8713f;fill-opacity:1;fill-rule:nonzero;stroke:none"
         d="m 1578.5001,-806.99924 0,-271.12246 86.7269,0 17.6389,0.3528 17.9776,0.7056 17.6388,1.0583 17.6107,2.1139 8.4667,1.7638 8.4666,2.1139 8.0998,2.4694 7.7611,2.8194 13.0387,6.3472 5.6444,3.8777 5.6445,3.525 4.9389,4.2305 4.9389,4.2333 4.2333,4.5833 3.5278,4.9361 3.5278,4.9332 3.1608,5.2889 4.2334,10.5777 2.8222,11.2832 1.0724,11.63316 -0.7055,8.1083 -1.4111,8.111 -2.4836,7.4027 -3.5278,7.4027 -4.2333,7.0527 -5.6444,6.7 -6.3218,6.3444 -7.4225,5.9944 -8.0997,5.6416 -8.4667,4.5833 -8.8053,4.2305 -9.1723,3.5249 -9.8777,2.4667 -10.2165,2.1166 -10.2164,1.4111 -10.9502,0.3528 102.616,100.8324 -45.4943,0 -123.7544,-122.6933 10.9502,0 2.794,0.3528 2.8222,0 14.1111,0 14.1112,-0.3528 11.9944,-0.7056 11.6276,-1.4083 5.6444,-0.7055 5.6444,-1.0584 10.5552,-3.1721 10.5833,-4.2305 4.9389,-2.4695 4.572,-2.8194 8.128,-5.9944 6.6886,-7.0499 5.6445,-7.4055 3.5278,-8.1083 2.4553,-8.1082 0.7056,-8.8138 0,-1.4111 0,-1.0583 -1.0443,-6.69716 -1.778,-6.3472 -3.1609,-6.6999 -3.8664,-6.3444 -4.9389,-5.6416 -5.6444,-5.6416 -6.35,-4.5833 -7.0556,-4.2305 -7.7611,-3.525 -8.0998,-3.1721 -8.4666,-2.1167 -8.8054,-1.4111 -17.9775,-1.7611 -17.9776,-0.7055 -6.7169,0 -6.6886,0 -57.8274,0 0,246.08926 -36.322,0 z"
         id="path4313"
         inkscape:connector-curvature="0" />
    </g>
  </g>
</svg>
