<?xml version="1.0" encoding="UTF-8" standalone="no"?>
<!-- Created with Inkscape (http://www.inkscape.org/) -->

<svg
   xmlns:dc="http://purl.org/dc/elements/1.1/"
   xmlns:cc="http://creativecommons.org/ns#"
   xmlns:rdf="http://www.w3.org/1999/02/22-rdf-syntax-ns#"
   xmlns:svg="http://www.w3.org/2000/svg"
   xmlns="http://www.w3.org/2000/svg"
   xmlns:sodipodi="http://sodipodi.sourceforge.net/DTD/sodipodi-0.dtd"
   xmlns:inkscape="http://www.inkscape.org/namespaces/inkscape"
   width="800mm"
   height="800mm"
   viewBox="0 0 2834.6457 2834.6457"
   id="svg2"
   version="1.1"
   inkscape:version="0.91 r13725"
   sodipodi:docname="inta.svg">
  <defs
     id="defs4">
    <clipPath
       id="clipPath4154"
       clipPathUnits="userSpaceOnUse">
      <path
         inkscape:connector-curvature="0"
         id="path4156"
         d="M 0,792 612,792 612,0 0,0 0,792 Z" />
    </clipPath>
    <clipPath
       id="clipPath4879"
       clipPathUnits="userSpaceOnUse">
      <path
         inkscape:connector-curvature="0"
         id="path4881"
         d="m 0,784.567 793.701,0 L 793.701,0 0,0 0,784.567 Z" />
    </clipPath>
    <clipPath
       id="clipPath5009"
       clipPathUnits="userSpaceOnUse">
      <path
         inkscape:connector-curvature="0"
         id="path5011"
         d="m -336.46,98.8652 672.92,0 0,-197.7314 -672.92,0 0,197.7314 z" />
    </clipPath>
    <clipPath
       id="clipPath9212"
       clipPathUnits="userSpaceOnUse">
      <path
         inkscape:connector-curvature="0"
         id="path9214"
         d="m 0,335 516.475,0 0,-335 L 0,0 0,335 Z" />
    </clipPath>
    <clipPath
       id="clipPath9340"
       clipPathUnits="userSpaceOnUse">
      <path
         inkscape:connector-curvature="0"
         id="path9342"
         d="m -336.46,98.8652 672.92,0 0,-197.7314 -672.92,0 0,197.7314 z" />
    </clipPath>
    <pattern
       y="0"
       x="0"
       height="6"
       width="6"
       patternUnits="userSpaceOnUse"
       id="EMFhbasepattern" />
    <pattern
       y="0"
       x="0"
       height="6"
       width="6"
       patternUnits="userSpaceOnUse"
       id="EMFhbasepattern-3" />
    <pattern
       y="0"
       x="0"
       height="6"
       width="6"
       patternUnits="userSpaceOnUse"
       id="EMFhbasepattern-30" />
    <pattern
       y="0"
       x="0"
       height="6"
       width="6"
       patternUnits="userSpaceOnUse"
       id="EMFhbasepattern-37" />
    <pattern
       y="0"
       x="0"
       height="6"
       width="6"
       patternUnits="userSpaceOnUse"
       id="EMFhbasepattern-5" />
    <pattern
       y="0"
       x="0"
       height="6"
       width="6"
       patternUnits="userSpaceOnUse"
       id="EMFhbasepattern-7" />
    <pattern
       y="0"
       x="0"
       height="6"
       width="6"
       patternUnits="userSpaceOnUse"
       id="EMFhbasepattern-9" />
    <pattern
       y="0"
       x="0"
       height="6"
       width="6"
       patternUnits="userSpaceOnUse"
       id="EMFhbasepattern-8" />
  </defs>
  <sodipodi:namedview
     id="base"
     pagecolor="#ffffff"
     bordercolor="#666666"
     borderopacity="1.0"
     inkscape:pageopacity="0.0"
     inkscape:pageshadow="2"
     inkscape:zoom="0.095550465"
     inkscape:cx="34.711162"
     inkscape:cy="2767.8517"
     inkscape:document-units="px"
     inkscape:current-layer="layer1"
     showgrid="false"
     inkscape:window-width="1920"
     inkscape:window-height="1138"
     inkscape:window-x="1352"
     inkscape:window-y="-8"
     inkscape:window-maximized="1"
     showguides="true"
     inkscape:guide-bbox="true">
    <sodipodi:guide
       position="1369.773,1440.4552"
       orientation="0,1"
       id="guide11511" />
    <sodipodi:guide
       position="957.86614,1440.4552"
       orientation="1,0"
       id="guide11513" />
    <sodipodi:guide
       position="2790.7296,1355.149"
       orientation="1,0"
       id="guide11515" />
  </sodipodi:namedview>
  <metadata
     id="metadata7">
    <rdf:RDF>
      <cc:Work
         rdf:about="">
        <dc:format>image/svg+xml</dc:format>
        <dc:type
           rdf:resource="http://purl.org/dc/dcmitype/StillImage" />
        <dc:title></dc:title>
      </cc:Work>
    </rdf:RDF>
  </metadata>
  <g
     inkscape:label="Capa 1"
     inkscape:groupmode="layer"
     id="layer1"
     transform="translate(0,1782.2835)">
    <flowRoot
       xml:space="preserve"
       id="flowRoot4823"
       style="fill:black;stroke:none;stroke-opacity:1;stroke-width:1px;stroke-linejoin:miter;stroke-linecap:butt;fill-opacity:1;font-family:sans-serif;font-style:normal;font-weight:normal;font-size:40px;line-height:125%;letter-spacing:0px;word-spacing:0px"><flowRegion
         id="flowRegion4825"><rect
           id="rect4827"
           width="1321.4423"
           height="148.09267"
           x="497.43948"
           y="2621.9998" /></flowRegion><flowPara
         id="flowPara4829" /></flowRoot>    <flowRoot
       xml:space="preserve"
       id="flowRoot8594"
       style="fill:black;stroke:none;stroke-opacity:1;stroke-width:1px;stroke-linejoin:miter;stroke-linecap:butt;fill-opacity:1;font-family:sans-serif;font-style:normal;font-weight:normal;font-size:40px;line-height:125%;letter-spacing:0px;word-spacing:0px"><flowRegion
         id="flowRegion8596"><rect
           id="rect8598"
           width="617.56378"
           height="118.14263"
           x="-177.21394"
           y="2533.9189" /></flowRegion><flowPara
         id="flowPara8600" /></flowRoot>    <path
       inkscape:connector-curvature="0"
       id="path13061"
       d=""
       style="fill:#858383;fill-opacity:1;fill-rule:nonzero;stroke:none" />
    <path
       inkscape:connector-curvature="0"
       id="path13065"
       d=""
       style="fill:#858383;fill-opacity:1;fill-rule:nonzero;stroke:none" />
    <path
       inkscape:connector-curvature="0"
       id="path13069"
       d=""
       style="fill:#858383;fill-opacity:1;fill-rule:nonzero;stroke:none" />
    <path
       inkscape:connector-curvature="0"
       id="path13073"
       d=""
       style="fill:#858383;fill-opacity:1;fill-rule:nonzero;stroke:none" />
    <rect
       style="opacity:1;fill:none;fill-opacity:1;stroke:#0056ca;stroke-width:9.95265865;stroke-miterlimit:4;stroke-dasharray:none;stroke-opacity:1"
       id="rect5186"
       width="2824.2664"
       height="2824.3989"
       x="6.0908523"
       y="-1776.3434" />
    <path
       inkscape:connector-curvature="0"
       id="path4522"
       d="m 2272.9915,-995.77794 -0.3528,2.8194 -1.761,7.4055 -1.4111,5.6417 -2.4695,6.6971 -2.8194,7.4055 -3.5249,8.461 -2.1167,4.5833 -2.4666,4.9361 -2.4695,4.936 -2.8194,5.2889 -3.1721,5.286 -3.175,5.6416 -3.8778,5.6417 -3.8777,5.6416 -4.2305,6.3443 -4.5833,5.9944 -4.9361,6.3472 -5.2888,6.3444 -5.6416,6.6999 -5.6417,6.3472 -6.3443,7.0499 -6.7,6.7 -7.0499,6.6971 -6.6999,6.3472 -6.6972,5.6416 -6.3472,5.6388 -6.3471,4.9361 -5.9916,4.9361 -6.3472,4.2305 -5.6416,3.8805 -5.9944,3.8778 -5.286,3.1722 -10.5777,5.9944 -5.2889,2.4666 -4.5833,2.4694 -4.5832,1.7611 -4.5833,1.7639 -8.1083,3.1722 -7.4055,2.1166 -6.3443,1.4111 -4.9361,1.0555 -4.2305,0.7056 -3.175,0.3528 -2.4666,0 0,-2.4666 0,-3.175 0.7055,-4.2306 0.7056,-5.2888 1.0555,-6.3444 2.1166,-7.0527 1.0584,-4.2305 1.4083,-4.2305 1.7639,-4.2305 1.7638,-4.5834 4.5833,-9.8721 2.4667,-5.2888 2.8194,-5.2889 3.175,-5.6388 3.5249,-5.6416 3.8777,-5.6416 4.2306,-5.9944 4.5832,-6.3444 4.9361,-5.9944 5.2889,-6.3472 5.6416,-6.6971 5.9944,-6.3472 6.3443,-6.6999 6.7,-6.6972 6.6971,-5.9944 6.7,-5.9944 6.6971,-5.286 6.3472,-5.2888 6.6999,-4.5833 6.3444,-4.5833 5.9944,-3.8777 6.3472,-3.8806 5.9916,-3.5249 5.6416,-3.525 5.9944,-2.8194 5.2888,-2.8222 5.6416,-2.4666 10.2221,-4.2306 4.5833,-1.7638 4.5833,-1.7639 8.4639,-2.4667 7.4026,-2.1166 6.3472,-1.4083 4.9361,-1.0583 3.5249,-0.7056 3.1722,-0.3528 z m -413.5571,-188.62036 189.6787,162.179 190.7371,-163.5901 -194.6148,251.73086 -185.801,-250.31976 z m 193.2037,-198.1423 1.7638,2.1156 1.7639,2.8202 2.4667,3.8783 2.8222,4.9361 3.1722,6.346 3.1721,7.0514 3.525,8.814 3.5278,9.8719 1.761,5.288 1.4111,5.6416 3.1722,12.3388 1.4111,6.3471 1.4111,7.0499 1.4083,7.4056 1.0584,7.4026 1.0583,8.1083 0.7056,8.1111 0.7055,8.461 0.3528,9.1666 0.3499,9.1665 0.3528,9.5194 -0.3528,9.5193 -0.3499,9.1666 -0.3528,8.8138 -0.7055,8.461 -1.0584,8.1083 -1.0583,7.7583 -1.0583,7.4027 -1.4083,7.0527 -1.4111,6.6971 -1.4112,5.9944 -1.761,5.9944 -1.7639,5.6388 -1.7611,5.6417 -1.7639,4.936 -3.8777,9.1666 -1.7639,3.8777 -1.7639,3.8806 -1.761,3.5249 -1.7639,3.1722 -3.525,5.6416 -1.4111,2.1139 -1.4083,2.1167 -2.4694,3.5249 -2.1139,2.4695 -1.7639,1.761 -1.7639,-1.761 -2.1138,-2.4695 -2.4694,-3.1722 -3.1722,-4.2305 -3.525,-5.6416 -2.1166,-2.8194 -1.7611,-3.5278 -3.8806,-7.7554 -4.2305,-8.8138 -1.761,-4.9361 -1.7639,-4.9361 -2.1139,-5.6416 -1.4111,-5.9916 -1.7639,-5.9944 -1.761,-6.3472 -1.4112,-7.0499 -1.0583,-7.0527 -1.0583,-7.4027 -1.0555,-8.1082 -0.7056,-8.1111 -0.3528,-4.2305 -0.3527,-4.5833 -0.3528,-8.8138 0,-9.1666 0,-9.5193 0.3528,-9.1666 0.7055,-8.8138 0.7056,-8.461 1.0555,-8.1083 1.0583,-8.111 1.4111,-7.4027 1.7611,-7.4055 1.4111,-7.05 1.7639,-6.6999 1.7611,-6.3444 2.1166,-6.3471 1.7639,-5.6417 2.1139,-5.6399 2.1166,-5.2886 2.1139,-4.9357 4.2305,-9.1669 3.8777,-7.7563 3.8806,-6.6986 3.5249,-5.641 2.8194,-4.2308 2.1167,-2.8205 1.7611,-2.4681 z m -232.3395,381.4739 2.8222,0.3528 7.4027,1.76376 5.6416,1.4083 6.6972,2.4695 7.4055,2.8194 8.461,3.5278 4.5833,2.1138 4.9361,2.4694 4.936,2.4667 5.2889,2.8194 5.2888,3.175 5.6388,3.1721 5.6416,3.8778 5.9944,3.8777 5.9944,4.2305 5.9916,4.5833 6.3472,4.9361 6.3472,5.2888 6.6971,5.6416 6.7,5.6417 6.6971,6.3471 6.7,6.6972 6.6971,7.0527 6.3472,6.6971 5.9944,6.7 5.2888,6.3444 4.9361,6.3471 4.936,5.9944 4.2306,6.3444 3.8777,5.6416 3.8777,5.9944 3.525,5.2889 5.6416,10.5748 2.4694,5.2889 2.4667,4.5833 1.7639,4.5832 2.1138,4.5834 2.8222,8.111 1.0555,3.8778 1.0584,3.5249 1.7639,5.9944 1.0555,5.2889 0.3527,4.2305 0.3528,3.1722 0,2.4666 -2.4666,0 -3.1722,0 -4.2333,-0.7027 -5.286,-0.7056 -6.3472,-1.0583 -7.0527,-2.1167 -4.2306,-1.0555 -4.2305,-1.4111 -4.2305,-1.7639 -4.5833,-1.7611 -9.8721,-4.5833 -5.2888,-2.4694 -5.2861,-2.8194 -5.2888,-3.1722 -5.9944,-3.5278 -5.6416,-3.8777 -5.9944,-4.2305 -5.9916,-4.5833 -6.3472,-4.9361 -6.3443,-5.2889 -6.7,-5.6416 -6.3472,-5.9916 -6.6971,-6.3471 -6.7,-6.7 -5.9944,-6.6971 -5.9915,-6.7 -5.2889,-6.6971 -5.2888,-6.3472 -4.5833,-6.6971 -4.5833,-6.3472 -3.8777,-5.9944 -3.8778,-6.3444 -3.5278,-5.9944 -3.1721,-5.9944 -3.1722,-5.6416 -2.8222,-5.286 -2.4667,-5.6416 -4.2305,-10.2249 -1.7639,-4.5833 -1.761,-4.5833 -2.4695,-8.461 -2.1138,-7.4055 -1.4111,-6.3444 -1.0584,-4.9361 -0.7055,-3.5249 -0.3528,-3.17496 z m -1324.935,1839.32691 0,-192.4982 0,-192.1481 187.91668,0 0,192.1481 0,192.4982 -187.91668,0 z m 0,-423.7821 0,-156.8902 187.91668,0 0,156.8902 -187.91668,0 z m 292.98096,423.7821 0,-192.4982 0,-192.1481 169.23173,0 0,56.0578 4.23051,-3.8778 4.23051,-4.2305 4.23052,-3.8805 4.23051,-3.525 4.23051,-3.525 4.58329,-3.5249 8.8138,-6.7 4.58329,-2.8194 4.58327,-3.175 4.9361,-2.8194 4.5833,-2.4694 4.936,-2.4666 4.9361,-2.4667 4.9361,-2.4694 4.936,-2.1138 4.9361,-1.7639 5.2889,-1.7639 5.2888,-1.7611 5.286,-1.7639 5.2889,-1.4111 5.6416,-1.4083 5.6416,-1.0583 5.6416,-1.0583 5.6388,-1.0584 5.9944,-1.0555 5.6417,-0.7055 5.9944,-0.3528 5.9915,-0.7056 6.3472,0 12.3387,-0.3528 10.5777,0 5.2889,0.3528 4.936,0.3528 10.225,1.0583 9.5193,1.0555 9.5194,1.7639 4.5833,1.0584 4.2305,0.7055 4.5833,1.4083 4.2305,1.0583 8.8138,2.8194 8.1082,3.175 3.8777,1.7611 3.8806,1.7639 7.7555,3.525 7.4027,4.2305 3.5277,2.1166 3.1722,2.4667 3.525,2.4694 3.1721,2.4666 6.3472,5.2889 3.1722,2.4694 2.8222,2.8194 4.9361,5.6416 2.4666,2.4667 2.4695,3.175 4.2305,5.6388 3.8777,6.3471 1.7639,3.1722 1.7611,3.175 1.7638,3.525 1.4083,3.5249 2.8223,7.0528 1.4111,3.5249 1.0555,3.525 1.0583,3.8777 1.0583,4.2305 1.7611,9.1666 1.4111,10.5777 1.4111,11.636 0.7056,12.6915 0.7055,14.1027 0.3528,15.161 0.35,16.5692 0,199.9037 -186.1538,0 0,-199.1981 0,-5.2889 0,-5.2888 -0.3528,-4.9361 -0.3499,-4.936 -0.7056,-4.2306 -0.3527,-4.5832 -1.0584,-3.8778 -0.7055,-3.8777 -1.0584,-3.8777 -1.0555,-3.175 -1.0583,-3.525 -1.0583,-2.8194 -1.4112,-2.8222 -1.761,-2.4666 -1.4111,-2.4695 -1.7639,-2.1138 -1.7611,-2.1167 -2.1167,-1.7611 -2.1138,-1.7639 -2.4694,-1.761 -2.4667,-1.4111 -2.8222,-1.4111 -2.8194,-1.0584 -1.4111,-0.7055 -1.4083,-0.35 -3.175,-1.0583 -3.1722,-0.7056 -3.5249,-0.7055 -3.8778,-0.7056 -3.5277,-0.3528 -4.2305,-0.3527 -3.8778,-0.3528 -4.2305,0 -4.5833,0 -4.2305,0.3528 -3.8777,0.3527 -3.8778,0.3528 -3.8805,0.7056 -3.525,1.0583 -3.5249,0.7056 -3.525,1.4082 -3.175,1.0584 -3.1722,1.4111 -2.8194,1.7639 -2.8222,1.4083 -2.46661,2.1166 -2.46944,1.7611 -2.46662,2.4694 -2.46945,2.1139 -1.76107,2.4694 -2.11666,2.8194 -1.76107,2.8223 -1.76389,2.8194 -2.8194,6.3471 -1.41111,3.525 -1.05833,3.5249 -1.05834,3.525 -1.05551,3.8806 -0.70555,4.2305 -0.35278,4.2305 -0.70556,4.2305 -0.35277,4.5833 0,4.5833 0,4.936 0,198.4926 -186.15378,0 z m 817.94774,-142.4348 0.3528,4.5833 0.7056,4.2305 0.3527,2.1139 0.7056,1.7639 1.4111,3.8777 2.1138,3.175 1.0584,1.4083 1.0583,1.4111 1.4083,1.4111 1.4111,1.0555 1.7639,1.0584 1.4083,1.0583 1.7639,1.0583 2.1138,1.0584 2.1167,0.7027 2.4694,0.7055 4.9333,1.4112 5.9944,1.0583 6.3472,1.0555 7.0499,0.3528 7.7583,0.7055 8.461,0 15.8637,-0.3527 10.5777,-0.3528 0,110.7073 -32.7886,1.7611 -29.9664,1.0583 -27.1497,0.7055 -25.3831,0.3528 -10.9305,-0.3528 -10.5748,-0.3527 -9.8722,-0.3528 -9.8721,-0.7056 -9.1666,-0.7055 -8.8138,-1.0555 -8.111,-1.4111 -8.1083,-1.4112 -7.4027,-1.4111 -3.5278,-1.0555 -3.525,-1.0583 -6.6971,-1.7639 -6.3472,-2.1138 -5.9944,-2.4695 -5.2888,-2.8194 -4.9361,-2.4694 -2.4666,-1.7611 -2.1167,-1.4111 -4.2305,-3.1722 -2.1138,-1.7639 -2.1167,-1.7639 -1.7611,-1.761 -1.7638,-1.7639 -3.525,-4.2305 -3.175,-4.2305 -2.8194,-4.9361 -2.4666,-4.9361 -2.4695,-4.936 -2.1138,-5.6417 -1.7639,-5.6388 -1.4111,-6.3471 -1.4083,-6.3472 -0.7056,-6.6972 -0.7055,-6.6999 -0.7056,-7.4027 0,-7.4055 0,-192.8509 -65.9299,0 0,-88.1408 65.9299,0 0,-118.8156 185.0955,0 0,118.8156 87.4381,0 0,88.1408 -87.4381,0 0,154.0707 z m 478.7816,-29.2636 -14.4526,4.2305 -7.7583,2.1167 -8.8138,2.4666 -18.686,4.5833 -10.2249,2.1167 -10.9276,2.4666 -8.4639,2.1167 -7.7554,1.761 -7.4027,2.1167 -6.7,2.4666 -6.3443,2.1167 -5.6417,2.4666 -5.2888,2.4694 -4.5833,2.4667 -4.2305,2.4694 -3.525,2.8194 -2.8222,2.4695 -1.4111,1.4082 -1.0555,1.4112 -2.1167,3.1721 -0.7055,1.4111 -0.3528,1.4112 -0.7027,1.4082 -0.3528,1.7639 -0.3528,3.1722 0.3528,3.8806 0.7027,3.5249 0.3528,2.1139 0.7056,1.4111 1.4111,3.5249 2.1138,3.175 1.0583,1.4083 1.0584,1.4111 2.8194,2.4695 1.7639,1.4083 1.4111,1.0583 1.761,1.0583 2.1167,1.0584 1.7639,1.0555 2.1138,0.7055 2.1167,1.0584 2.1139,0.7055 4.936,1.4083 4.9361,0.7056 5.6416,0.7055 5.6416,0.7056 6.3444,0 5.6416,0 5.2889,-0.3528 5.2888,-0.3528 5.2888,-0.3528 4.9361,-0.7055 4.5833,-0.7027 4.5833,-1.0584 4.2305,-0.7055 4.2305,-1.4111 3.8777,-1.4083 3.8778,-1.4111 3.5249,-1.4112 3.5278,-1.761 2.8194,-1.7639 3.1722,-2.1167 2.8222,-2.1138 2.4666,-2.4695 1.0584,-1.0555 1.4111,-1.4111 2.1138,-2.4694 2.1167,-2.8194 2.1138,-2.8194 1.4111,-3.175 1.7639,-3.1722 1.4083,-3.525 1.4111,-3.5277 1.0584,-3.8778 0.7055,-3.8777 0.7028,-4.2305 0.7055,-4.2305 0.3528,-4.2305 0.3528,-4.5833 0,-4.9361 -0.3528,-11.9888 -0.3528,-3.8777 -0.7055,-3.525 z m 17.2776,171.6984 -11.636,-36.6663 -8.8138,5.9944 -4.5833,3.1721 -4.5833,2.8194 -9.5194,5.2889 -9.5193,4.936 -9.8721,4.5833 -9.8722,4.2305 -9.8693,3.8806 -10.2249,3.1722 -5.2888,1.4111 -5.2889,1.4083 -10.9305,2.4694 -10.9276,2.1139 -11.636,1.7639 -5.6416,0.7055 -5.9916,0.7056 -12.3416,1.0555 -12.3388,0.7055 -12.6915,0 -9.8721,0 -9.5194,-0.3527 -9.1666,-0.7056 -8.8138,-1.0555 -8.8138,-1.0583 -8.111,-1.4112 -8.1083,-1.4082 -7.7554,-2.1167 -7.7583,-2.1167 -7.0499,-2.1138 -3.525,-1.4111 -3.5249,-1.4083 -3.175,-1.4111 -3.525,-1.4111 -6.3472,-3.1722 -5.9916,-3.175 -5.9944,-3.8778 -2.8222,-1.761 -2.4666,-2.1167 -5.2888,-3.8777 -4.9361,-4.5833 -4.5833,-4.2305 -2.1138,-2.4695 -2.1167,-2.4666 -3.8777,-4.9361 -3.525,-4.936 -1.7639,-2.8194 -1.4111,-2.8222 -3.1722,-5.2889 -2.4666,-5.9916 -2.1167,-5.9944 -1.0583,-2.8194 -0.7056,-3.175 -1.761,-6.3443 -0.3528,-3.175 -0.7056,-3.525 -0.7055,-6.6999 -0.7056,-7.0499 0,-7.05 0,-7.0527 0.3528,-3.5249 0.3528,-3.175 0.7055,-6.6972 1.0584,-6.3472 1.761,-5.9915 0.7056,-2.8223 1.0583,-3.1721 2.1167,-5.6417 2.4666,-5.2888 2.8194,-4.9361 1.4111,-2.8194 1.7639,-2.1166 3.525,-4.9361 3.8777,-4.2305 4.2305,-4.2305 2.1167,-2.1139 2.1138,-2.1166 4.9361,-3.525 5.2888,-3.5249 2.4695,-1.7639 3.1722,-1.7639 5.9944,-3.1722 3.5249,-1.4111 3.525,-1.7611 7.4055,-2.8222 7.7555,-2.8194 8.8138,-2.8194 9.1665,-2.8222 9.5194,-2.4666 5.2888,-1.4112 5.2889,-1.0583 10.9276,-2.1138 11.2833,-2.4695 12.3387,-2.1138 12.6944,-1.7639 13.3971,-1.7639 13.7498,-1.7611 14.4555,-1.7639 17.6276,-1.761 22.9164,-2.1167 10.5777,-1.0583 10.2221,-1.0584 9.1694,-1.4082 8.8138,-1.7639 7.7554,-1.7611 7.4027,-1.7639 3.175,-1.0583 3.1722,-1.0584 5.9944,-2.1138 5.2889,-2.4694 2.1138,-1.4083 2.1167,-1.4111 2.1138,-1.0584 1.7639,-1.4111 1.7611,-1.7611 1.4111,-1.4111 1.4111,-1.4111 1.0583,-1.761 0.7028,-1.4112 1.0583,-1.761 1.0583,-3.5278 0,-1.7611 0,-1.7639 0,-2.1166 0,-1.7611 -0.3528,-2.1167 -0.3527,-1.761 -1.4111,-3.5278 -0.7028,-1.4083 -1.0583,-1.7639 -2.1167,-2.8194 -2.8194,-2.4694 -3.5249,-2.4666 -3.5278,-2.1167 -4.5833,-1.7611 -4.9361,-1.4111 -5.286,-1.4111 -3.175,-0.7056 -2.8194,-0.3527 -3.5249,-0.35 -3.175,-0.3528 -7.4027,-0.7055 -7.7555,-0.3528 -8.4638,0 -7.05,0 -6.6999,0.3528 -5.9916,0.7055 -2.8222,0.7028 -2.8194,0.3527 -2.8222,0.7056 -2.4667,0.7056 -4.936,1.7638 -4.5833,1.7611 -2.1167,1.0583 -2.1138,1.0584 -1.7639,1.4111 -1.7611,1.4083 -3.175,2.8222 -1.761,1.4083 -1.4112,1.7639 -2.4666,3.1722 -1.0583,2.1166 -0.7056,1.7611 -1.7639,4.2333 -1.4082,4.2305 -0.7056,4.9361 -181.5705,0 0,-4.2333 0.3528,-3.8778 0.3528,-3.8777 0.3527,-3.8777 0.7028,-3.8778 0.7055,-3.5249 1.0584,-3.8806 1.0583,-3.5249 1.0583,-3.525 1.0555,-3.5249 2.8223,-6.7 1.761,-3.1722 1.7639,-3.175 1.7639,-3.1722 1.7611,-3.1721 2.1166,-2.8223 2.4667,-3.1721 2.1166,-2.8194 2.4667,-2.8223 2.4694,-2.8194 2.8194,-2.8194 5.6416,-5.2888 6.3472,-4.9361 6.6971,-4.5833 3.525,-2.4694 3.5278,-2.1138 3.8777,-2.1167 3.8777,-2.1139 8.1083,-4.2305 8.461,-3.5277 9.1666,-3.525 9.5193,-3.525 10.2249,-2.8222 10.225,-2.8194 10.9304,-2.4666 11.6332,-2.1167 11.636,-1.7639 12.3388,-1.761 12.6915,-1.4111 13.3971,-1.4111 13.7499,-0.7028 14.1026,-0.7055 14.8082,-0.3528 14.8082,0 14.4555,0 14.1026,0.3528 13.7499,0.7055 13.3971,1.0555 13.0443,1.0584 13.0443,1.7639 12.3416,1.761 6.3443,1.0584 6.3472,1.0583 11.636,2.1138 11.2804,2.4695 10.5777,2.8194 4.9361,1.4111 4.9361,1.4111 9.1665,3.1722 8.4611,3.1722 7.7554,3.5277 7.0528,3.525 8.1082,4.5833 3.525,2.4666 3.8777,2.4694 6.6999,4.9361 5.9944,5.2889 2.8194,2.4666 2.8223,2.8194 2.4666,2.4694 2.1167,2.8194 4.5832,5.6416 1.7611,2.8194 1.7639,2.8223 1.4111,3.1721 1.7611,2.8223 1.4111,3.5249 1.0583,3.525 2.4666,7.0527 1.0584,4.2305 0.7055,3.8778 1.4083,8.8138 0.7056,4.2305 0.3528,4.936 0.3527,4.9361 0.3528,4.9361 0.3528,4.936 0,5.6417 0,214.359 0,2.4666 0.3528,2.4667 0.3527,2.4694 0.3528,2.4666 0.7056,2.4695 1.0555,2.1138 1.0583,2.1167 1.0584,2.1138 1.4111,2.1167 1.761,2.1167 1.4111,1.761 1.7639,1.7639 2.1139,1.4111 2.1166,1.7611 2.1139,1.4111 2.4694,1.4111 0,10.9277 -186.8593,0 z M 981.54825,-1209.0786 l 0,-10.2249 0.70555,-10.5777 0.35278,-10.2221 1.05833,-10.2249 1.05834,-10.2249 1.40829,-10.2249 1.76389,-9.8722 1.76388,-10.2249 2.46663,-9.8693 2.11666,-9.5193 2.8194,-9.8722 2.82223,-9.5193 3.17217,-9.52 3.1722,-9.5193 3.5249,-9.1666 3.8806,-9.1666 3.8777,-9.1668 4.2305,-8.8141 4.2306,-8.8141 4.5832,-8.8141 4.9361,-8.4616 4.9361,-8.4613 4.936,-8.1091 5.6417,-8.4615 5.6388,-7.7564 5.6416,-8.109 5.9944,-7.7564 5.9944,-7.4038 6.3443,-7.4038 6.3472,-7.4038 6.6972,-7.0513 6.6999,-7.0514 7.0499,-6.6988 7.0528,-6.6985 7.4026,-6.3464 7.4055,-6.346 7.7555,-6.3461 7.7555,-5.641 7.7583,-5.9938 8.1082,-5.6408 8.1082,-5.2886 8.4611,-5.2885 8.111,-4.9358 8.8138,-4.5833 8.4611,-4.5833 8.8138,-4.5836 9.1665,-4.2305 8.8138,-3.8783 9.1666,-3.5257 9.5194,-3.5256 9.1665,-3.5256 9.5194,-3.1731 9.5194,-2.8206 9.8721,-2.4679 9.8721,-2.468 9.8722,-2.1153 9.8721,-1.7628 9.8721,-1.7629 10.2221,-1.4102 10.2249,-1.0577 10.2249,-1.0577 10.2249,-0.7051 10.5749,-0.3526 10.5777,0 10.2249,0 10.5777,0.3526 10.2249,0.7051 10.2221,1.0577 10.2249,1.0577 10.2249,1.4102 10.2249,1.7629 9.8722,1.7628 9.8721,2.1153 9.8693,2.468 9.5194,2.4679 9.5194,2.8206 9.5193,3.1731 9.5194,3.5256 9.1666,3.5256 9.1665,3.5257 9.1666,3.8783 8.8138,4.2305 8.8166,4.5836 8.8138,4.5833 8.4611,4.5833 8.461,4.9358 8.461,5.2885 8.1082,5.2886 7.7583,5.6408 8.1083,5.9938 7.7554,5.641 7.4056,6.3461 7.4026,6.346 7.4056,6.3464 7.0499,6.6985 7.0527,6.6988 6.6971,7.0514 6.7,7.0513 6.6971,7.4038 5.9944,7.4038 6.3472,7.4038 5.9916,7.7564 5.6416,8.109 5.6416,7.7564 5.2889,8.4615 5.2888,8.1091 4.9361,8.4613 4.5833,8.4616 4.5833,8.8141 4.5832,8.8141 4.2306,8.8141 3.8777,9.1668 3.8777,9.1666 3.525,9.1666 3.175,9.5193 3.1722,9.52 2.8194,9.5193 2.4694,9.8722 2.4666,9.5193 2.1167,9.8693 1.7611,10.2249 1.7638,9.8722 1.4112,10.2249 1.4082,10.2249 0.7056,10.2249 0.7056,10.2221 0.3527,10.5777 0,10.2249 0,10.5777 -0.3527,10.5748 -0.7056,10.225 -0.7056,10.2249 -1.4082,10.2249 -1.4112,10.2249 -1.7638,9.8693 -1.7611,10.2249 -2.1167,9.8721 -2.4666,9.5194 -2.4694,9.8721 -2.8194,9.5194 -3.1722,9.5193 -3.175,9.1666 -3.525,9.5194 -3.8777,9.1666 -3.8777,8.8138 -4.2306,9.1665 -4.5832,8.8138 -4.5833,8.4611 -4.5833,8.8138 -4.9361,8.46376 -5.2888,8.1082 -5.2889,8.1083 -5.6416,8.1082 -5.6416,8.1111 -5.9916,7.4027 -6.3472,7.7555 -5.9944,7.4055 -6.6971,7.4027 -6.7,7.0527 -6.6971,7.0499 -7.0527,6.7 -7.0499,6.6971 -7.4056,6.3472 -7.4026,6.3471 -7.4056,6.3444 -7.7554,5.6416 -8.1083,5.9944 -7.7583,5.2889 -8.1082,5.6388 -8.461,4.936 -8.461,5.2889 -8.4611,4.5833 -8.8138,4.5833 -8.8166,4.5832 -8.8138,3.8778 -9.1666,4.2305 -9.1665,3.5278 -9.1666,3.525 -9.5194,3.5249 -9.5193,2.8222 -9.5194,2.8194 -9.5194,2.8194 -9.8693,2.4695 -9.8721,2.1138 -9.8722,1.7639 -10.2249,1.7639 -10.2249,1.4083 -10.2249,1.0583 -10.2221,1.0584 -10.2249,0.7055 -10.5777,0.3528 -10.2249,0 -10.5777,0 -10.5749,-0.3528 -10.2249,-0.7055 -10.2249,-1.0584 -10.2249,-1.0583 -10.2221,-1.4083 -9.8721,-1.7639 -9.8721,-1.7639 -9.8722,-2.1138 -9.8721,-2.4695 -9.8721,-2.8194 -9.5194,-2.8194 -9.5194,-2.8222 -9.1665,-3.5249 -9.5194,-3.525 -9.1666,-3.5278 -8.8138,-4.2305 -9.1665,-3.8778 -8.8138,-4.5832 -8.4611,-4.5833 -8.8138,-4.5833 -8.111,-5.2889 -8.4611,-4.936 -8.1082,-5.6388 -8.1082,-5.2889 -7.7583,-5.9944 -7.7555,-5.6416 -7.7555,-6.3444 -7.4055,-6.3471 -7.4026,-6.3472 -7.0528,-6.6971 -7.0499,-6.7 -6.6999,-7.0499 -6.6972,-7.0527 -6.3472,-7.4027 -6.3443,-7.4055 -5.9944,-7.7555 -5.9944,-7.4027 -5.6416,-8.1111 -5.6388,-8.1082 -5.6417,-8.1083 -4.936,-8.1082 -4.9361,-8.46376 -4.9361,-8.8138 -4.5832,-8.4611 -4.2306,-8.8138 -4.2305,-9.1665 -3.8777,-8.8138 -3.8806,-9.1666 -3.5249,-9.5194 -3.1722,-9.1666 -3.17217,-9.5193 -2.82223,-9.5194 -2.8194,-9.8721 -2.11666,-9.5194 -2.46663,-9.8721 -1.76388,-10.2249 -1.76389,-9.8693 -1.40829,-10.2249 -1.05834,-10.2249 -1.05833,-10.2249 -0.35278,-10.225 -0.70555,-10.5748 0,-10.5777 z m -486.88978,1328.46231 1.41025,-21.8609 2.11538,-21.8581 2.46795,-21.8581 3.17308,-21.5082 3.52563,-21.1525 4.23079,-21.1554 4.23077,-21.1526 5.28845,-20.8026 5.2885,-20.7998 5.99356,-20.4498 6.34605,-20.0942 7.05132,-20.097 7.05132,-19.7443 7.75631,-19.7443 8.1091,-19.3886 8.81408,-19.0388 8.81408,-19.0387 9.51936,-18.6859 9.87185,-18.3332 10.22435,-18.3331 10.57684,-17.9832 11.28212,-17.6276 11.28183,-17.2748 11.98739,-16.9221 11.9871,-16.9248 12.69238,-16.5693 13.04488,-16.2193 13.04488,-15.8637 13.74986,-15.86665 14.10265,-15.1609 14.10264,-14.8082 14.80764,-14.8054 14.80763,-14.4554 15.51376,-13.7499 15.51093,-13.7499 15.86653,-13.3971 16.21649,-12.6943 16.57209,-12.6916 16.92205,-12.3387 17.27764,-11.636 17.27482,-11.6332 17.6276,-10.9305 17.98038,-10.5776 17.98038,-10.225 18.68593,-9.8693 18.68591,-9.5193 18.686,-9.1666 19.3915,-8.4638 19.3914,-8.1083 19.3915,-7.7555 19.7443,-7.4055 20.0942,-7.0499 20.4498,-6.3472 20.447,-5.9915 20.4498,-5.2889 20.8026,-4.936 21.1526,-4.5833 21.1554,-4.2305 21.5053,-3.5278 21.5053,-2.8194 21.5082,-2.8194 21.8581,-1.7639 22.2109,-1.7639 21.8581,-1.0555 0,214.359 0,214.70905 11.2833,-0.3499 10.9304,-0.7056 10.9277,-1.0583 10.5777,-1.4111 10.9304,-1.4083 10.5749,-2.1167 10.5777,-1.7639 10.5777,-2.4666 10.2249,-2.4694 10.2249,-2.8194 10.2221,-2.8194 10.2249,-3.175 9.8722,-3.525 9.8721,-3.5249 9.8721,-3.8778 9.8722,-4.2305 9.5193,-4.2333 9.5194,-4.5833 9.1666,-4.5833 9.1665,-4.9332 9.1666,-5.2889 8.8138,-5.2888 8.8138,-5.2889 8.8138,-5.6416 8.461,-5.9944 8.4611,-5.9916 8.111,-6.3472 8.1083,-6.3471 8.1082,-6.6972 7.7555,-6.69995 7.7583,-7.0499 7.4027,-7.0528 7.4055,-7.4027 7.0499,-7.4026 7.0527,-7.7583 7.0499,-7.7555 6.7,-7.7555 6.3443,-8.111 6.3472,-8.4611 5.9944,-8.1082 5.9916,-8.461 5.6416,-8.8138 5.6416,-8.8166 5.2889,-8.8138 5.2888,-9.1666 4.9361,-9.1666 4.9361,-9.1666 4.5832,-9.5193 4.2306,-9.5194 4.2305,-9.5193 3.8777,-9.8722 3.525,-9.8692 3.5249,-9.8722 3.5278,-10.2249 2.8194,-10.2249 2.8194,-10.2249 2.4694,-10.2249 2.4667,-10.5749 2.1166,-10.5777 1.7639,-10.5777 1.7611,-10.5748 1.4111,-10.9305 1.0583,-10.9305 0.7028,-10.9276 219.2951,0 219.2951,0 -1.4083,21.8581 -2.1166,21.8581 -2.4667,21.8609 -3.175,21.5054 -3.5249,21.1525 -4.2305,21.5081 -4.2305,20.7998 -5.2889,20.8026 -5.2888,20.7998 -5.9944,20.4498 -6.3444,20.0971 -6.6999,20.0942 -7.4027,19.7443 -7.7583,19.7442 -8.1083,19.3915 -8.8138,19.03875 -8.8138,19.0387 -9.5193,18.6831 -9.8721,18.336 -10.225,18.3332 -10.5748,17.9804 -11.2833,17.6276 -11.2832,17.2748 -11.986,17.2776 -11.986,16.5693 -12.6943,16.5693 -13.0443,16.2193 -13.0443,16.2165 -13.7499,15.5137 -14.1027,15.161 -14.1026,15.161 -14.8082,14.4554 -14.8082,14.4526 -15.5109,14.1026 -15.5138,13.3999 -15.8665,13.3971 -16.2165,13.0443 -16.5721,12.3388 -16.922,12.3416 -16.9221,11.986 -17.6304,11.2832 -17.6276,10.9276 -17.9804,10.9305001 -17.9804,10.2249 -18.3331,9.8721999 -18.686,9.5165 -19.0387,8.8166 -19.3915,8.8138 -19.3914,8.1083 -19.3887,7.7554 -19.7443,7.0528 -20.097,7.0499 -20.4498,6.3471 -20.447,5.9944 -20.4499,5.2861 -20.7997,5.2888 -21.1554,4.2305 -21.1526,4.2334 -21.5082,3.5249 -21.5053,3.1722 -21.5053,2.4694 -21.861,2.1139 -21.8581,1.4111 -22.2109,1.0583 0,-214.7118 0,-214.3591 -11.2832,0.3528 -10.9277,1.0555 -10.5777,1.0583 -10.9304,1.0584 -10.9277,1.7639 -10.5777,1.761 -10.5776,2.1167 -10.5777,2.1138 -10.2221,2.4695 -10.2249,2.8194 -10.2249,2.8222 -10.225,3.525 -9.8721,3.1721 -9.8721,3.8778 -9.8722,3.8777 -9.8693,3.8806 -9.5193,4.2305 -9.1666,4.5833 -9.5194,4.5832 -9.1665,4.9361 -9.1666,5.2889 -8.8166,5.286 -8.8138,5.6416 -8.8138,5.6416 -8.4611,5.6416 -8.461,6.3444 -8.1082,5.9944 -8.1111,6.7 -8.1082,6.3443 -7.7555,7.0527 -7.7583,7.05 -7.4027,7.0527 -7.4026,7.0499 -7.0528,7.7583 -7.0499,7.4027 -7.0527,7.7554 -6.6972,8.1111 -6.3471,8.1083 -6.3472,8.1082 -5.9916,8.461 -5.9944,8.461 -5.6416,8.4639 -5.6416,8.8138 -5.28889,9.1666 -5.28602,8.8138 -4.93606,9.1665 -4.93607,9.5194 -4.58329,9.1666 -4.23051,9.5193 -4.23051,9.8722 -3.88056,9.5193 -3.52495,9.8722001 -3.52496,10.222 -3.52495,9.8721999 -2.82223,10.2249 -2.8194,10.2249 -2.46944,10.5777 -2.46662,10.2221 -2.11667,10.5777 -1.76107,10.5777 -1.76389,10.9304 -1.41111,10.5749 -1.05551,10.9305 -0.70555,10.9304 -219.29542,0 -219.29485,0 z"
       style="fill:#002f59;fill-opacity:1;fill-rule:nonzero;stroke:none" />
  </g>
</svg>
