<?xml version="1.0" encoding="UTF-8" standalone="no"?>
<!-- Created with Inkscape (http://www.inkscape.org/) -->

<svg
   xmlns:dc="http://purl.org/dc/elements/1.1/"
   xmlns:cc="http://creativecommons.org/ns#"
   xmlns:rdf="http://www.w3.org/1999/02/22-rdf-syntax-ns#"
   xmlns:svg="http://www.w3.org/2000/svg"
   xmlns="http://www.w3.org/2000/svg"
   xmlns:sodipodi="http://sodipodi.sourceforge.net/DTD/sodipodi-0.dtd"
   xmlns:inkscape="http://www.inkscape.org/namespaces/inkscape"
   width="800mm"
   height="800mm"
   viewBox="0 0 2834.6457 2834.6457"
   id="svg2"
   version="1.1"
   inkscape:version="0.91 r13725"
   sodipodi:docname="isapre_fundacion.svg">
  <defs
     id="defs4">
    <clipPath
       id="clipPath4154"
       clipPathUnits="userSpaceOnUse">
      <path
         inkscape:connector-curvature="0"
         id="path4156"
         d="M 0,792 612,792 612,0 0,0 0,792 Z" />
    </clipPath>
    <clipPath
       id="clipPath4879"
       clipPathUnits="userSpaceOnUse">
      <path
         inkscape:connector-curvature="0"
         id="path4881"
         d="m 0,784.567 793.701,0 L 793.701,0 0,0 0,784.567 Z" />
    </clipPath>
    <clipPath
       id="clipPath5009"
       clipPathUnits="userSpaceOnUse">
      <path
         inkscape:connector-curvature="0"
         id="path5011"
         d="m -336.46,98.8652 672.92,0 0,-197.7314 -672.92,0 0,197.7314 z" />
    </clipPath>
    <clipPath
       id="clipPath9212"
       clipPathUnits="userSpaceOnUse">
      <path
         inkscape:connector-curvature="0"
         id="path9214"
         d="m 0,335 516.475,0 0,-335 L 0,0 0,335 Z" />
    </clipPath>
    <clipPath
       id="clipPath9340"
       clipPathUnits="userSpaceOnUse">
      <path
         inkscape:connector-curvature="0"
         id="path9342"
         d="m -336.46,98.8652 672.92,0 0,-197.7314 -672.92,0 0,197.7314 z" />
    </clipPath>
    <pattern
       y="0"
       x="0"
       height="6"
       width="6"
       patternUnits="userSpaceOnUse"
       id="EMFhbasepattern" />
    <pattern
       y="0"
       x="0"
       height="6"
       width="6"
       patternUnits="userSpaceOnUse"
       id="EMFhbasepattern-3" />
    <pattern
       y="0"
       x="0"
       height="6"
       width="6"
       patternUnits="userSpaceOnUse"
       id="EMFhbasepattern-30" />
    <pattern
       y="0"
       x="0"
       height="6"
       width="6"
       patternUnits="userSpaceOnUse"
       id="EMFhbasepattern-37" />
  </defs>
  <sodipodi:namedview
     id="base"
     pagecolor="#ffffff"
     bordercolor="#666666"
     borderopacity="1.0"
     inkscape:pageopacity="0.0"
     inkscape:pageshadow="2"
     inkscape:zoom="0.2901167"
     inkscape:cx="1322.5559"
     inkscape:cy="1440.6271"
     inkscape:document-units="px"
     inkscape:current-layer="layer1"
     showgrid="false"
     inkscape:window-width="1920"
     inkscape:window-height="1138"
     inkscape:window-x="1358"
     inkscape:window-y="-8"
     inkscape:window-maximized="1"
     showguides="true"
     inkscape:guide-bbox="true">
    <sodipodi:guide
       position="1369.773,1440.4552"
       orientation="0,1"
       id="guide11511" />
    <sodipodi:guide
       position="957.86614,1440.4552"
       orientation="1,0"
       id="guide11513" />
    <sodipodi:guide
       position="2790.7296,1355.149"
       orientation="1,0"
       id="guide11515" />
  </sodipodi:namedview>
  <metadata
     id="metadata7">
    <rdf:RDF>
      <cc:Work
         rdf:about="">
        <dc:format>image/svg+xml</dc:format>
        <dc:type
           rdf:resource="http://purl.org/dc/dcmitype/StillImage" />
        <dc:title />
      </cc:Work>
    </rdf:RDF>
  </metadata>
  <g
     inkscape:label="Capa 1"
     inkscape:groupmode="layer"
     id="layer1"
     transform="translate(0,1782.2835)">
    <flowRoot
       xml:space="preserve"
       id="flowRoot4823"
       style="fill:black;stroke:none;stroke-opacity:1;stroke-width:1px;stroke-linejoin:miter;stroke-linecap:butt;fill-opacity:1;font-family:sans-serif;font-style:normal;font-weight:normal;font-size:40px;line-height:125%;letter-spacing:0px;word-spacing:0px"><flowRegion
         id="flowRegion4825"><rect
           id="rect4827"
           width="1321.4423"
           height="148.09267"
           x="497.43948"
           y="2621.9998" /></flowRegion><flowPara
         id="flowPara4829" /></flowRoot>    <flowRoot
       xml:space="preserve"
       id="flowRoot8594"
       style="fill:black;stroke:none;stroke-opacity:1;stroke-width:1px;stroke-linejoin:miter;stroke-linecap:butt;fill-opacity:1;font-family:sans-serif;font-style:normal;font-weight:normal;font-size:40px;line-height:125%;letter-spacing:0px;word-spacing:0px"><flowRegion
         id="flowRegion8596"><rect
           id="rect8598"
           width="617.56378"
           height="118.14263"
           x="-177.21394"
           y="2533.9189" /></flowRegion><flowPara
         id="flowPara8600" /></flowRoot>    <path
       inkscape:connector-curvature="0"
       id="path13061"
       d=""
       style="fill:#858383;fill-opacity:1;fill-rule:nonzero;stroke:none" />
    <path
       inkscape:connector-curvature="0"
       id="path13065"
       d=""
       style="fill:#858383;fill-opacity:1;fill-rule:nonzero;stroke:none" />
    <path
       inkscape:connector-curvature="0"
       id="path13069"
       d=""
       style="fill:#858383;fill-opacity:1;fill-rule:nonzero;stroke:none" />
    <path
       inkscape:connector-curvature="0"
       id="path13073"
       d=""
       style="fill:#858383;fill-opacity:1;fill-rule:nonzero;stroke:none" />
    <path
       inkscape:connector-curvature="0"
       id="path12995"
       d="m 163.33069,-383.66851 0.16042,-12.67549 0.48135,-12.51493 0.80224,-12.51494 1.12317,-12.35441 1.2836,-12.35441 1.76494,-12.35441 2.08583,-12.0346 2.24635,-12.0333 2.56723,-12.03332 2.88801,-11.71351 3.20905,-11.7122 3.36942,-11.55295 3.85082,-11.5517 3.85068,-11.3924 4.33218,-11.23184 4.49264,-11.07007 4.81343,-10.91081 5.13441,-10.75022 5.29483,-10.75014 5.45526,-10.42918 5.77622,-10.42909 6.09707,-10.10935 6.25759,-10.10797 6.4179,-9.787 6.73899,-9.78814 7.05973,-9.46587 7.05982,-9.46718 7.54108,-9.14473 7.54118,-8.98552 7.86232,-8.82491 8.02222,-8.66439 8.18272,-8.34335 8.50388,-8.34326 8.50383,-8.0222 8.82494,-7.70178 8.9855,-7.7016 9.30529,-7.38065 9.30658,-7.22021 9.46585,-6.89933 9.78822,-6.73899 9.78694,-6.41794 10.10803,-6.41794 10.26987,-5.93665 10.26858,-5.77628 10.58967,-5.61568 10.58967,-5.29481 10.75023,-4.97403 11.07002,-4.8134 11.07131,-4.49264 11.23187,-4.33219 11.23185,-4.01124 11.55168,-3.69028 11.55295,-3.36941 11.71222,-3.20906 11.87404,-2.88801 11.87277,-2.56723 12.03331,-2.40671 12.19514,-1.9254 12.19386,-1.76496 12.35441,-1.44413 12.35438,-1.12312 12.51498,-0.80227 12.67549,-0.4813 12.6755,-0.16044 12.6755,0.16044 12.51493,0.4813 12.51498,0.80227 12.51621,1.12312 12.19387,1.44413 12.35442,1.76496 12.03332,1.9254 12.03458,2.40671 12.03332,2.56723 11.71219,2.88801 11.71351,3.20906 11.7122,3.36941 11.39246,3.69028 11.39239,4.01124 11.23057,4.33219 11.07129,4.49264 10.91078,4.8134 10.75021,4.97403 10.75023,5.29481 10.42916,5.61568 10.42909,5.77628 10.10804,5.93665 10.10804,6.41794 9.94875,6.41794 9.62641,6.73899 9.62766,6.89933 9.30529,7.22021 9.14605,7.38065 8.98551,7.7016 8.82491,7.70178 8.66312,8.0222 8.34456,8.34326 8.3434,8.34335 8.0222,8.66439 7.701,8.82491 7.7024,8.98552 7.38,9.14473 7.2208,9.46718 6.8984,9.46587 6.7392,9.78814 6.5785,9.787 6.2575,10.10797 5.9364,10.10935 5.7771,10.42909 5.6153,10.42918 5.2941,10.75014 4.9744,10.75022 4.8138,10.91081 4.4928,11.07007 4.3323,11.23184 4.011,11.3924 3.69,11.5517 3.5296,11.55295 3.049,11.7122 2.8886,11.71351 2.5662,12.03332 2.4069,12.0333 1.9252,12.0346 1.7648,12.35441 1.4448,12.35441 1.1226,12.35441 0.8028,12.51494 0.4816,12.51493 0.1605,12.67549 -0.1605,12.67555 -0.4816,12.67549 -0.8028,12.51494 -1.1226,12.3557 -1.4448,12.35438 -1.7648,12.19387 -1.9252,12.19386 -2.4069,12.03459 -2.5662,12.03332 -2.8886,11.71223 -3.049,11.71347 -3.5296,11.55169 -3.69,11.55297 -4.011,11.39239 -4.3323,11.07002 -4.4928,11.2319 -4.8138,10.91072 -4.9744,10.75021 -5.2941,10.75023 -5.6153,10.42916 -5.7771,10.42909 -5.9364,10.10804 -6.2575,10.10804 -6.5785,9.78825 -6.7392,9.786913 -6.8984,9.467135 -7.2208,9.465851 -7.38,9.146025 -7.7024,8.985495 -7.701,8.82495 -8.0222,8.663117 -8.3434,8.344546 -8.34456,8.182769 -8.66312,8.182768 -8.82491,7.701093 -8.98551,7.7024093 -9.14605,7.3800198 -9.30529,7.2207432 -9.62766,6.8983987 -9.62641,6.739121 -9.94875,6.417996 -10.10804,6.25749 -10.10804,6.096941 -10.42909,5.777089 -10.42916,5.615309 -10.75023,5.294193 -10.75021,4.974402 -10.91078,4.813799 -11.07129,4.492772 -11.23057,4.332176 -11.39239,4.011106 -11.39246,3.690033 -11.7122,3.368923 -11.71351,3.209639 -11.71219,2.888567 -12.03332,2.566185 -12.03458,2.406891 -12.03332,1.925275 -12.35442,1.76477 -12.19387,1.44492 -12.51621,1.12253 -12.51498,0.64218 -12.51493,0.48163 -12.6755,0.16056 -12.6755,-0.16056 -12.67549,-0.48163 -12.51498,-0.64218 -12.35438,-1.12253 -12.35441,-1.44492 -12.19386,-1.76477 L 567.34249,99.766465 555.30918,97.359574 543.43641,94.793389 531.56237,91.904822 519.85015,88.695183 508.2972,85.32626 496.74552,81.636227 485.51367,77.625121 474.2818,73.292945 463.21049,68.800173 452.14047,63.986374 441.39024,59.011972 430.80057,53.717779 420.2109,48.10247 409.94232,42.325381 399.67245,36.22844 l -10.10803,-6.25749 -9.78694,-6.417996 -9.78822,-6.739121 -9.46585,-6.8983987 -9.30658,-7.2207432 -9.30529,-7.3800198 -8.9855,-7.7024093 -8.82494,-7.701093 -8.50383,-8.182768 -8.50388,-8.182769 -8.18272,-8.344546 -8.02222,-8.663117 -7.86232,-8.82495 -7.54118,-8.985495 -7.54108,-9.146025 -7.05982,-9.465851 -7.05973,-9.467135 -6.73899,-9.786913 -6.4179,-9.78825 -6.25759,-10.10804 -6.09707,-10.10804 -5.77622,-10.42909 -5.45526,-10.42916 -5.29483,-10.75023 -5.13441,-10.75021 -4.81343,-10.91072 -4.49264,-11.2319 -4.33218,-11.07002 -3.85068,-11.39239 -3.85082,-11.55297 -3.36942,-11.55169 -3.20905,-11.71347 -2.88801,-11.71223 -2.56723,-12.03332 -2.24635,-12.03459 -2.08583,-12.19386 -1.76494,-12.19387 -1.2836,-12.35438 -1.12317,-12.3557 -0.80224,-12.51494 -0.48135,-12.67549 -0.16042,-12.67555 z"
       style="fill:#ffffff;fill-opacity:1;fill-rule:nonzero;stroke:none" />
    <path
       inkscape:connector-curvature="0"
       id="path12997"
       d="m 317.68309,-439.82522 0.16052,8.50386 0.32112,8.50384 0.48162,8.34327 0.16055,4.17167 0.31979,4.17166 -98.355,55.35532 31.28763,89.21012 31.28764,89.37067 65.94462,-4.3322 66.10547,-4.17167 3.36892,3.85055 3.53076,3.69003 7.05892,7.3813 3.53074,3.68999 3.69,3.69003 3.69002,3.52948 3.6913,3.3702 3.69,3.52942 3.85056,3.37021 3.85055,3.36891 4.01111,3.20837 3.85056,3.37024 4.01238,3.20836 4.01112,3.04909 4.17165,3.20836 4.01109,2.88857 4.17166,3.04913 4.17165,2.88725 4.33219,2.88857 8.50384,5.6153 4.49276,2.72802 4.3322,2.72801 4.49274,2.566192 4.33091,2.56745 9.14604,4.974355 4.49273,2.406941 4.6533,2.246386 4.6533,2.24634 4.65201,2.246386 4.81383,2.08583 4.65329,2.085831 4.81384,2.085831 4.81255,1.925276 4.81385,1.925275 4.81382,1.764721 4.97439,1.76471 4.97311,1.764761 4.97437,1.60548 4.97439,1.604165 4.9731,1.443643 5.13494,1.443645 4.97311,1.444931 5.13492,1.283086 5.13495,1.284361 5.13364,1.122539 5.13491,1.12253 5.29419,1.123855 5.13497,0.961981 5.29419,0.963297 5.29546,0.802739 5.2942,0.801413 5.29547,0.642233 5.45476,0.642181 5.29545,0.480349 5.45475,0.481632 5.29548,0.481622 5.45475,0.321116 5.45603,0.321108 5.45475,0.160515 5.4547,0.160558 5.61658,0 10.10805,-0.160558 10.10803,-0.321073 9.94748,-0.642181 9.94875,-0.963297 9.78698,-1.122529 9.94748,-1.283089 9.62768,-1.605487 9.62638,-1.925268 9.62767,-2.085828 9.46586,-2.246395 9.30657,-2.56618 9.30658,-2.728008 9.14474,-3.049086 8.9855,-3.20837 8.9855,-3.37018 8.98547,-3.690042 8.66311,-3.850542 8.66438,-4.011107 8.50389,-4.17167 8.50383,-4.492717 8.18276,-4.65329 8.18404,-4.813847 8.02221,-4.97313 7.86166,-5.1349 7.86164,-5.45476 7.54186,-5.61658 7.54058,-5.61526 7.3813,-5.93638 7.21947,-6.09693 7.06022,-6.25749 6.89963,-6.41801 6.73912,-6.5786 6.57861,-6.73911 6.41797,-6.89964 6.2575,-7.05896 6.0969,-7.22074 5.9364,-7.38129 5.7758,-7.54058 5.4561,-7.54054 5.4547,-7.86296 5.135,-7.86166 4.9731,-8.02221 4.9743,-8.18276 4.4928,-8.34327 4.4927,-8.34333 4.1716,-8.50383 4.1717,-8.66439 3.69,-8.82495 3.6901,-8.82494 3.3702,-8.9855 3.2082,-8.98552 3.0492,-9.14474 2.7267,-9.30656 2.5674,-9.46586 2.2465,-9.46713 2.0859,-9.46586 1.9252,-9.62764 1.6042,-9.78696 1.2843,-9.7882 1.1226,-9.78697 0.9633,-9.94749 0.6421,-10.10931 0.3198,-9.94748 0.1607,-10.10803 -0.1607,-10.26858 -0.3198,-9.94877 -0.6421,-10.10803 -0.9633,-9.94748 -1.1226,-9.78823 -1.2843,-9.78692 -1.6042,-9.78697 -1.9252,-9.62764 -2.0859,-9.46591 -2.2465,-9.46712 -2.5674,-9.4658 -2.7267,-9.30662 -3.0492,-9.14601 -3.2082,-8.98424 -3.3702,-8.98546 -3.6901,-8.82492 -3.69,-8.825 -4.1717,-8.66438 -4.1716,-8.50379 -4.4927,-8.34334 -4.4928,-8.34335 -4.9743,-8.18272 -4.9731,-8.02221 -5.135,-7.86169 -5.4547,-7.86291 -5.4561,-7.54056 -5.7758,-7.54187 -5.9364,-7.37994 -6.0969,-7.22082 -6.2575,-7.05889 -6.41797,-6.8997 -6.57861,-6.73907 -6.73912,-6.57865 -6.89963,-6.41803 -7.06022,-6.25742 -7.21947,-6.09689 -7.3813,-5.93637 -7.54058,-5.61612 -7.54186,-5.61586 -7.86164,-5.45524 -7.86166,-5.13437 -8.02221,-4.97385 -8.18404,-4.81351 -8.18276,-4.65298 -8.50383,-4.49262 -8.50389,-4.17176 -8.66438,-4.01124 -8.66311,-3.85071 -8.98547,-3.69036 -8.9855,-3.3695 -8.9855,-3.20897 -9.14474,-3.04862 -9.30658,-2.72759 -9.30657,-2.56723 -9.46586,-2.24627 -9.62767,-2.08575 -9.62638,-1.92539 -9.62768,-1.60454 -9.94748,-1.28357 -9.78698,-1.12322 -9.94875,-0.96279 -9.94748,-0.64174 -10.10803,-0.32087 -10.10805,-0.16034 -10.26855,0.16034 -9.9488,0.32087 -10.10803,0.64174 -9.94748,0.96279 -9.7882,1.12322 -9.78697,1.28357 -9.78692,1.60454 -9.62769,1.92539 -9.46586,2.08575 -9.4671,2.24627 -9.46584,2.56723 -9.14604,2.72759 -9.30658,3.04862 -8.98549,3.20897 -8.98421,3.3695 -8.82494,3.69036 -8.82495,3.85071 -8.66439,4.01124 -8.50384,4.17176 -8.34331,4.49262 -8.34329,4.65298 -8.18276,4.81351 -8.02221,4.97385 -7.86294,5.13437 -7.86167,5.45524 -7.54056,5.61586 -7.54185,5.61612 -7.38002,5.93637 -7.22076,6.09689 -6.89966,6.25742 -6.89838,6.41803 -6.73912,6.57865 -6.73911,6.73907 -6.41802,6.8997 -6.25749,7.05889 -5.93638,7.22082 -5.93637,7.37994 -5.77712,7.54187 -5.61529,7.54056 -5.29548,7.86291 -5.2942,7.86169 -4.97438,8.02221 -4.81255,8.18272 -4.6533,8.34335 -4.49273,8.34334 -4.17165,8.50379 -4.01111,8.66438 -3.85054,8.825 -3.69133,8.82492 -3.36891,8.98546 -3.20964,8.98424 -2.88729,9.14601 -2.88857,9.30662 -2.40689,9.4658 -2.40691,9.46712 -2.08583,9.46591 -1.76476,9.62764 -1.60416,9.78697 -1.44365,9.78692 -1.1238,9.78823 -0.80147,9.94748 -0.64219,10.10803 -0.48166,9.94877 -0.16052,10.26858 z m -154.3524,56.15671 0.16042,-12.67549 0.48135,-12.51493 0.80224,-12.51494 1.12317,-12.35441 1.2836,-12.35441 1.76494,-12.35441 2.08583,-12.0346 2.24635,-12.0333 2.56723,-12.03332 2.88801,-11.71351 3.20905,-11.7122 3.36942,-11.55295 3.85082,-11.5517 3.85068,-11.3924 4.33218,-11.23184 4.49264,-11.07007 4.81343,-10.91081 5.13441,-10.75022 5.29483,-10.75014 5.45526,-10.42918 5.77622,-10.42909 6.09707,-10.10935 6.25759,-10.10797 6.4179,-9.787 6.73899,-9.78814 7.05973,-9.46587 7.05982,-9.46718 7.54108,-9.14473 7.54118,-8.98552 7.86232,-8.82491 8.02222,-8.66439 8.18272,-8.34335 8.50388,-8.34326 8.50383,-8.0222 8.82494,-7.70178 8.9855,-7.7016 9.30529,-7.38065 9.30658,-7.22021 9.46585,-6.89933 9.78822,-6.73899 9.78694,-6.41794 10.10803,-6.41794 10.26987,-5.93665 10.26858,-5.77628 10.58967,-5.61568 10.58967,-5.29481 10.75023,-4.97403 11.07002,-4.8134 11.07131,-4.49264 11.23187,-4.33219 11.23185,-4.01124 11.55168,-3.69028 11.55295,-3.36941 11.71222,-3.20906 11.87404,-2.88801 11.87277,-2.56723 12.03331,-2.40671 12.19514,-1.9254 12.19386,-1.76496 12.35441,-1.44413 12.35438,-1.12312 12.51498,-0.80227 12.67549,-0.4813 12.6755,-0.16044 12.6755,0.16044 12.51493,0.4813 12.51498,0.80227 12.51621,1.12312 12.19387,1.44413 12.35442,1.76496 12.03332,1.9254 12.03458,2.40671 12.03332,2.56723 11.71219,2.88801 11.71351,3.20906 11.7122,3.36941 11.39246,3.69028 11.39239,4.01124 11.23057,4.33219 11.07129,4.49264 10.91078,4.8134 10.75021,4.97403 10.75023,5.29481 10.42916,5.61568 10.42909,5.77628 10.10804,5.93665 10.10804,6.41794 9.94875,6.41794 9.62641,6.73899 9.62766,6.89933 9.30529,7.22021 9.14605,7.38065 8.98551,7.7016 8.82491,7.70178 8.66312,8.0222 8.34456,8.34326 8.3434,8.34335 8.0222,8.66439 7.701,8.82491 7.7024,8.98552 7.38,9.14473 7.2208,9.46718 6.8984,9.46587 6.7392,9.78814 6.5785,9.787 6.2575,10.10797 5.9364,10.10935 5.7771,10.42909 5.6153,10.42918 5.2941,10.75014 4.9744,10.75022 4.8138,10.91081 4.4928,11.07007 4.3323,11.23184 4.011,11.3924 3.69,11.5517 3.5296,11.55295 3.049,11.7122 2.8886,11.71351 2.5662,12.03332 2.4069,12.0333 1.9252,12.0346 1.7648,12.35441 1.4448,12.35441 1.1226,12.35441 0.8028,12.51494 0.4816,12.51493 0.1605,12.67549 -0.1605,12.67555 -0.4816,12.67549 -0.8028,12.51494 -1.1226,12.3557 -1.4448,12.35438 -1.7648,12.19387 -1.9252,12.19386 -2.4069,12.03459 -2.5662,12.03332 -2.8886,11.71223 -3.049,11.71347 -3.5296,11.55169 -3.69,11.55297 -4.011,11.39239 -4.3323,11.07002 -4.4928,11.2319 -4.8138,10.91072 -4.9744,10.75021 -5.2941,10.75023 -5.6153,10.42916 -5.7771,10.42909 -5.9364,10.10804 -6.2575,10.10804 -6.5785,9.78825 -6.7392,9.786913 -6.8984,9.467135 -7.2208,9.465851 -7.38,9.146025 -7.7024,8.985495 -7.701,8.82495 -8.0222,8.663117 -8.3434,8.344546 -8.34456,8.182769 -8.66312,8.182768 -8.82491,7.701093 -8.98551,7.7024093 -9.14605,7.3800198 -9.30529,7.2207432 -9.62766,6.8983987 -9.62641,6.739121 -9.94875,6.417996 -10.10804,6.25749 -10.10804,6.096941 -10.42909,5.777089 -10.42916,5.615309 -10.75023,5.294193 -10.75021,4.974402 -10.91078,4.813799 -11.07129,4.492772 -11.23057,4.332176 -11.39239,4.011106 -11.39246,3.690033 -11.7122,3.368923 -11.71351,3.209639 -11.71219,2.888567 -12.03332,2.566185 -12.03458,2.406891 -12.03332,1.925275 -12.35442,1.76477 -12.19387,1.44492 -12.51621,1.12253 -12.51498,0.64218 -12.51493,0.48163 -12.6755,0.16056 -12.6755,-0.16056 -12.67549,-0.48163 -12.51498,-0.64218 -12.35438,-1.12253 -12.35441,-1.44492 -12.19386,-1.76477 L 567.34249,99.766465 555.30918,97.359574 543.43641,94.793389 531.56237,91.904822 519.85015,88.695183 508.2972,85.32626 496.74552,81.636227 485.51367,77.625121 474.2818,73.292945 463.21049,68.800173 452.14047,63.986374 441.39024,59.011972 430.80057,53.717779 420.2109,48.10247 409.94232,42.325381 399.67245,36.22844 l -10.10803,-6.25749 -9.78694,-6.417996 -9.78822,-6.739121 -9.46585,-6.8983987 -9.30658,-7.2207432 -9.30529,-7.3800198 -8.9855,-7.7024093 -8.82494,-7.701093 -8.50383,-8.182768 -8.50388,-8.182769 -8.18272,-8.344546 -8.02222,-8.663117 -7.86232,-8.82495 -7.54118,-8.985495 -7.54108,-9.146025 -7.05982,-9.465851 -7.05973,-9.467135 -6.73899,-9.786913 -6.4179,-9.78825 -6.25759,-10.10804 -6.09707,-10.10804 -5.77622,-10.42909 -5.45526,-10.42916 -5.29483,-10.75023 -5.13441,-10.75021 -4.81343,-10.91072 -4.49264,-11.2319 -4.33218,-11.07002 -3.85068,-11.39239 -3.85082,-11.55297 -3.36942,-11.55169 -3.20905,-11.71347 -2.88801,-11.71223 -2.56723,-12.03332 -2.24635,-12.03459 -2.08583,-12.19386 -1.76494,-12.19387 -1.2836,-12.35438 -1.12317,-12.3557 -0.80224,-12.51494 -0.48135,-12.67549 -0.16042,-12.67555 z"
       style="fill:#d7d7d7;fill-opacity:1;fill-rule:nonzero;stroke:none" />
    <path
       inkscape:connector-curvature="0"
       id="path12999"
       d="m 322.01527,-439.98576 0.16054,8.50385 0.16057,8.50383 0.48163,8.34333 0.32111,4.01111 0.31979,4.17161 -8.50383,0.80273 -0.31984,-4.1716 -0.32107,-4.33223 -0.48167,-8.50383 -0.32106,-8.6644 0,-8.50386 z"
       style="fill:#d7d7d7;fill-opacity:1;fill-rule:nonzero;stroke:none" />
    <path
       inkscape:connector-curvature="0"
       id="path13001"
       d="m 321.21253,-402.28037 -4.17162,-7.54053 -98.35514,55.35525 4.17175,7.54059 98.35501,-55.35531 z"
       style="fill:#d7d7d7;fill-opacity:1;fill-rule:nonzero;stroke:none" />
    <path
       inkscape:connector-curvature="0"
       id="path13003"
       d="m 323.45891,-406.45203 0.16056,2.72802 -2.40694,1.44364 -4.17162,-7.54053 -2.08583,4.1716 8.50383,-0.80273 z"
       style="fill:#d7d7d7;fill-opacity:1;fill-rule:nonzero;stroke:none" />
    <path
       inkscape:connector-curvature="0"
       id="path13005"
       d="m 224.78293,-352.06002 -8.02256,2.72801 31.28772,89.21013 31.28763,89.37067 8.02249,-2.88851 -31.28764,-89.21018 -31.28764,-89.21012 z"
       style="fill:#d7d7d7;fill-opacity:1;fill-rule:nonzero;stroke:none" />
    <path
       inkscape:connector-curvature="0"
       id="path13007"
       d="m 218.68577,-354.46565 -3.20904,1.76472 1.28364,3.36892 8.02256,-2.72801 -1.92541,5.13496 -4.17175,-7.54059 z"
       style="fill:#d7d7d7;fill-opacity:1;fill-rule:nonzero;stroke:none" />
    <path
       inkscape:connector-curvature="0"
       id="path13009"
       d="m 283.02613,-176.36647 0.48126,8.50384 66.10525,-4.33218 66.10552,-4.17166 -0.48165,-8.50388 -66.1055,4.17167 -66.10488,4.33221 z"
       style="fill:#d7d7d7;fill-opacity:1;fill-rule:nonzero;stroke:none" />
    <path
       inkscape:connector-curvature="0"
       id="path13011"
       d="m 279.33572,-170.75121 0.9628,3.04786 3.20887,-0.15928 -0.48126,-8.50384 4.33208,2.72675 -8.02249,2.88851 z"
       style="fill:#d7d7d7;fill-opacity:1;fill-rule:nonzero;stroke:none" />
    <path
       inkscape:connector-curvature="0"
       id="path13013"
       d="m 418.60543,-183.58725 3.3702,3.85059 3.36892,3.68999 7.0602,7.3813 3.52947,3.52948 3.53074,3.68999 3.69001,3.37019 3.69001,3.52948 3.69002,3.37019 3.85183,3.36893 3.85056,3.36891 3.85056,3.20964 3.85055,3.20837 4.0111,3.20969 4.01111,3.04779 3.85185,3.04914 4.17164,3.04909 4.17166,2.88728 4.0111,3.04909 4.17164,2.72801 8.66441,5.61531 4.17164,2.56745 4.33221,2.72675 4.49272,2.56745 4.33093,2.56745 8.98548,4.813846 4.49276,2.406941 4.65329,2.245073 4.65329,2.246386 4.49274,2.24634 4.65201,2.08584 4.81383,2.085822 4.65329,1.925275 4.81384,1.926588 4.81256,1.925276 4.65329,1.76472 4.97438,1.764712 4.81383,1.764766 4.97311,1.604162 4.97438,1.444913 4.97439,1.604212 4.9731,1.443643 4.97438,1.284364 4.97441,1.443653 5.13362,1.122527 5.13491,1.123815 5.1337,1.122583 5.13491,1.123796 5.13363,0.961984 5.13496,0.80274 5.29419,0.963296 5.29547,0.640909 5.13491,0.802738 5.2942,0.481623 5.45474,0.640907 5.29548,0.481631 5.2942,0.321117 5.29551,0.481622 5.4547,0.160558 5.45603,0.160559 5.45475,0.160549 5.45602,0 -0.16055,8.663075 -5.45603,-0.159234 -5.61526,0 -5.45474,-0.321117 -5.45602,-0.160515 -5.45477,-0.321115 -5.61653,-0.481623 -5.29419,-0.481666 -5.45604,-0.640908 -5.45475,-0.481631 -5.45475,-0.802738 -5.29546,-0.801423 -5.2942,-0.802739 -5.29546,-0.963297 -5.29421,-0.961972 -5.29552,-0.963297 -5.29418,-1.283088 -5.13491,-1.122539 -5.2942,-1.284413 -5.13494,-1.283089 -5.13493,-1.44492 -5.13364,-1.443602 -4.9744,-1.604203 -5.13364,-1.443653 -4.97439,-1.765992 -4.97438,-1.764761 -4.9731,-1.764713 -4.81384,-1.764713 -4.97437,-1.925285 -4.81384,-2.085822 -4.81256,-1.925275 -4.81385,-2.085831 -4.81384,-2.246377 -4.65328,-2.246404 -4.81255,-2.24634 -4.65329,-2.406941 -4.6533,-2.406895 -9.14604,-4.9744 -4.49146,-2.566184 -4.49274,-2.56746 -4.3322,-2.728006 -4.49273,-2.72802 -8.66441,-5.6153 -4.3322,-3.04781 -4.17164,-2.88856 -4.17165,-3.04908 -4.17166,-3.04786 -4.17164,-3.20964 -4.0111,-3.04781 -4.17166,-3.3702 -3.85056,-3.20836 -4.01239,-3.37024 -3.85055,-3.36888 -4.01111,-3.36892 -3.68999,-3.53075 -3.85056,-3.52948 -3.6913,-3.52947 -3.69002,-3.69127 -3.69,-3.69002 -7.06021,-7.38004 -3.52947,-3.85182 -3.36892,-3.85055 z"
       style="fill:#d7d7d7;fill-opacity:1;fill-rule:nonzero;stroke:none" />
    <path
       inkscape:connector-curvature="0"
       id="path13015"
       d="m 415.23651,-184.87035 1.92528,-0.16051 1.44364,1.44361 -6.41675,5.77586 3.52948,1.44492 -0.48165,-8.50388 z"
       style="fill:#d7d7d7;fill-opacity:1;fill-rule:nonzero;stroke:none" />
    <path
       inkscape:connector-curvature="0"
       id="path13017"
       d="m 710.46425,-51.376204 10.10804,-0.160549 9.94747,-0.321117 9.94881,-0.642181 9.78692,-0.802738 9.78692,-1.122539 9.78825,-1.443646 9.46585,-1.605479 9.62769,-1.76472 9.46581,-2.08583 9.30661,-2.246341 9.30658,-2.566181 9.14474,-2.728007 8.9855,-2.888573 8.98546,-3.208367 8.98423,-3.370199 8.66439,-3.529468 8.6644,-3.850542 8.66438,-4.011116 8.34332,-4.171661 8.34327,-4.332208 8.18277,-4.653294 8.02348,-4.65329 8.02221,-4.9744 7.70114,-5.13364 7.70237,-5.45603 7.54058,-5.45474 7.54185,-5.61526 7.21948,-5.93765 7.06022,-5.93642 7.05892,-6.25745 6.7391,-6.41805 6.73913,-6.418 6.57856,-6.73913 6.25748,-6.73783 6.25742,-7.06019 5.9364,-7.06022 5.9364,-7.21948 5.6165,-7.54185 5.4549,-7.54058 5.456,-7.70237 5.1335,-7.70115 4.9745,-8.0222 4.8138,-8.0222 4.4927,-8.18405 4.331,-8.34327 4.1729,-8.50387 4.0112,-8.50384 3.8505,-8.66313 3.5295,-8.82492 3.3702,-8.82495 3.2084,-8.98547 2.8885,-8.98549 2.8873,-9.14475 2.4068,-9.30658 2.2464,-9.46585 2.0859,-9.46714 1.7647,-9.46712 1.6055,-9.62641 1.4436,-9.62637 1.1226,-9.78824 0.8026,-9.78692 0.6422,-9.94881 0.4804,-9.94746 0,-10.10803 8.5039,0.16054 0,10.10803 -0.4804,10.2686 -0.6421,10.10804 -0.9634,10.1093 -1.1225,9.94748 -1.283,9.9475 -1.6056,9.78823 -1.9253,9.62636 -2.0858,9.78825 -2.2464,9.46581 -2.5674,9.46713 -2.8872,9.46586 -3.0491,9.14605 -3.2084,9.30531 -3.3702,8.98546 -3.6901,8.9855 -3.8505,8.82494 -4.1717,8.82495 -4.1717,8.50383 -4.4927,8.50383 -4.6533,8.50389 -4.9743,8.18276 -5.1336,8.18271 -5.135,7.8617 -5.4548,7.86165 -5.6153,7.70237 -5.9376,7.70114 -5.9364,7.3813 -6.0969,7.21947 -6.4181,7.22073 -6.41797,6.89969 -6.57856,6.89839 -6.89968,6.57857 -6.89839,6.57854 -7.22074,6.2575 -7.21948,6.09694 -7.38129,6.09693 -7.70113,5.77709 -7.70237,5.61531 -7.86166,5.45475 -8.0222,5.29547 -8.02222,4.97435 -8.18403,4.973129 -8.50388,4.65329 -8.50383,4.492726 -8.50383,4.171662 -8.82368,4.171661 -8.82494,3.850542 -8.9855,3.690037 -9.14602,3.370203 -9.14475,3.208357 -9.14605,3.049087 -9.46713,2.888572 -9.46586,2.405619 -9.62764,2.406944 -9.6264,2.085836 -9.62637,1.925268 -9.94881,1.605478 -9.78693,1.443603 -10.10803,1.122582 -9.94875,0.802695 -10.10805,0.642224 -10.26858,0.481632 -10.10805,0.159234 z"
       style="fill:#d7d7d7;fill-opacity:1;fill-rule:nonzero;stroke:none" />
    <path
       inkscape:connector-curvature="0"
       id="path13019"
       d="m 710.46425,-42.713129 0.16055,0 -0.16055,-8.663075 0.16055,0 -0.16055,8.663075 z"
       style="fill:#d7d7d7;fill-opacity:1;fill-rule:nonzero;stroke:none" />
    <path
       inkscape:connector-curvature="0"
       id="path13021"
       d="m 1099.0725,-439.82522 0,-10.10803 -0.4804,-9.94877 -0.6422,-9.94748 -0.8026,-9.78695 -1.1226,-9.78823 -1.4436,-9.62637 -1.6055,-9.62768 -1.7647,-9.46586 -2.0859,-9.46713 -2.2464,-9.46586 -2.4068,-9.14601 -2.8873,-9.30662 -2.8885,-8.98418 -3.2084,-8.9855 -3.3702,-8.82493 -3.5295,-8.825 -3.8505,-8.6644 -4.0112,-8.50378 -4.1729,-8.50387 -4.331,-8.34325 -4.4927,-8.18282 -4.8138,-8.02221 -4.9745,-8.02221 -5.1335,-7.70239 -5.456,-7.70108 -5.4549,-7.54055 -5.6165,-7.54186 -5.9364,-7.21942 -5.9364,-7.06031 -6.25742,-7.0602 -6.25748,-6.73909 -6.57856,-6.73785 -6.73913,-6.41803 -6.7391,-6.41803 -7.05892,-6.25742 -7.06022,-5.93768 -7.21948,-5.93637 -7.54185,-5.6156 -7.54058,-5.45524 -7.70237,-5.45525 -7.70114,-5.13445 -8.02221,-4.97394 -8.02348,-4.65307 -8.18277,-4.65298 -8.34327,-4.3321 -8.50387,-4.17177 -8.50383,-4.01123 -8.6644,-3.8508 -8.66439,-3.52984 -8.98423,-3.3695 -8.98546,-3.20897 -8.9855,-2.8881 -9.30529,-2.72757 -9.14603,-2.56723 -9.30661,-2.24637 -9.46581,-2.08584 -9.62769,-1.76495 -9.62641,-1.60445 -9.62769,-1.44401 -9.78692,-1.12322 -9.78692,-0.80218 -9.94881,-0.64183 -9.94747,-0.32087 -10.10804,-0.16052 0.16055,-8.50387 10.2686,0.16053 10.10803,0.32087 10.10805,0.64183 10.1093,0.96279 9.94748,1.12304 9.94749,1.28358 9.78825,1.60462 9.62637,1.92539 9.78691,2.08584 9.46713,2.40662 9.46586,2.56723 9.46713,2.72767 9.14605,3.04853 9.14475,3.20898 9.14602,3.36948 8.9855,3.69037 8.82494,3.85072 8.82368,4.17175 8.50383,4.33211 8.50383,4.33211 8.50388,4.8135 8.18403,4.81341 8.02222,5.13446 8.0222,5.13437 7.86166,5.45525 7.70237,5.61586 7.70113,5.93663 7.38129,5.93602 7.21948,6.09821 7.22074,6.41803 6.89839,6.41804 6.89968,6.73776 6.57856,6.73916 6.41797,6.8996 6.4181,7.22083 6.0969,7.2195 5.9364,7.38126 5.9376,7.70108 5.6153,7.70116 5.4548,7.86291 5.135,8.02221 5.1336,8.02221 4.9743,8.34334 4.6533,8.34326 4.4927,8.50387 4.1717,8.6644 4.1717,8.66438 3.8505,8.825 3.6901,8.98543 3.3702,9.14474 3.2084,9.14605 3.0491,9.14602 2.8872,9.46584 2.5674,9.46714 2.2464,9.62642 2.0858,9.62768 1.9253,9.62637 1.6056,9.94752 1.283,9.78819 1.1225,9.9475 0.9634,10.10802 0.6421,10.10932 0.4804,10.26858 0,10.10804 z"
       style="fill:#d7d7d7;fill-opacity:1;fill-rule:nonzero;stroke:none" />
    <path
       inkscape:connector-curvature="0"
       id="path13023"
       d="m 1107.5764,-439.82522 0,-0.16054 -8.5039,0.16054 0,-0.16054 8.5039,0.16054 z"
       style="fill:#d7d7d7;fill-opacity:1;fill-rule:nonzero;stroke:none" />
    <path
       inkscape:connector-curvature="0"
       id="path13025"
       d="m 710.6248,-828.43452 -10.10931,0.16052 -9.94748,0.32087 -9.78692,0.64183 -9.9488,0.80218 -9.78691,1.12322 -9.62643,1.44401 -9.62764,1.60445 -9.46586,1.76495 -9.46713,2.08584 -9.30529,2.24637 -9.30659,2.56723 -9.14604,2.72757 -9.14475,2.8881 -8.98548,3.20897 -8.82495,3.3695 -8.82494,3.52984 -8.66439,3.8508 -8.50385,4.01123 -8.50384,4.17177 -8.34331,4.3321 -8.18275,4.65298 -8.02221,4.65307 -8.02221,4.97394 -7.70239,5.13445 -7.70113,5.45525 -7.54185,5.45524 -7.38001,5.6156 -7.3813,5.93637 -7.05893,6.09689 -6.89966,6.09821 -6.89966,6.41803 -6.73912,6.41803 -6.41802,6.73785 -6.41802,6.73909 -6.25748,7.0602 -5.93638,7.06031 -5.93638,7.21942 -5.6153,7.54186 -5.45602,7.54055 -5.29419,7.70108 -5.29548,7.70239 -4.81256,8.02221 -4.81383,8.02221 -4.6533,8.18282 -4.33218,8.34325 -4.17167,8.50387 -4.01111,8.50378 -3.85054,8.6644 -3.53075,8.825 -3.36892,8.82493 -3.20964,8.9855 -2.8873,8.98418 -2.72801,9.30662 -2.56746,9.14601 -2.24638,9.46586 -2.08583,9.30657 -1.76472,9.62642 -1.60416,9.62768 -1.44365,9.62637 -0.96329,9.78823 -0.96198,9.78695 -0.64219,9.94748 -0.32112,9.94877 -0.16054,10.10803 -8.50383,-0.16054 0.16054,-10.10804 0.32107,-10.26858 0.64219,-10.10932 0.96203,-9.94747 1.12379,-10.10805 1.28311,-9.78819 1.6042,-9.78697 1.92527,-9.78692 2.08583,-9.62768 2.4069,-9.62642 2.56745,-9.46714 2.72802,-9.46584 3.04786,-9.14602 3.20963,-9.14605 3.52947,-9.14474 3.52944,-8.98543 3.85186,-8.825 4.17167,-8.66438 4.33217,-8.6644 4.33222,-8.50387 4.81254,-8.34326 4.81384,-8.34334 5.13494,-8.02221 5.29418,-8.02221 5.29549,-7.86291 5.61528,-7.70116 5.93638,-7.70108 5.93639,-7.38126 6.09693,-7.2195 6.41802,-7.06022 6.41801,-7.06021 6.73912,-6.73916 6.73911,-6.73776 7.06023,-6.41804 7.05892,-6.41803 7.22075,-6.09821 7.54057,-5.93602 7.54185,-5.93663 7.70112,-5.61586 7.86166,-5.45525 8.0235,-5.13437 8.0222,-5.13446 8.3433,-4.81341 8.3433,-4.8135 8.50385,-4.33211 8.6644,-4.33211 8.66438,-4.17175 8.82495,-3.85072 8.9842,-3.69037 9.14604,-3.36948 9.14603,-3.20898 9.3053,-3.04853 9.30658,-2.72767 9.46714,-2.56723 9.6264,-2.40662 9.62637,-2.08584 9.78824,-1.92539 9.78692,-1.60462 9.78824,-1.28358 10.10804,-1.12304 9.94747,-0.96279 10.10806,-0.64183 10.26985,-0.32087 10.108,-0.16053 z"
       style="fill:#d7d7d7;fill-opacity:1;fill-rule:nonzero;stroke:none" />
    <path
       inkscape:connector-curvature="0"
       id="path13027"
       d="m 710.6248,-836.93839 -0.16055,0 0.16055,8.50387 -0.16055,0 0.16055,-8.50387 z"
       style="fill:#d7d7d7;fill-opacity:1;fill-rule:nonzero;stroke:none" />
    <path
       inkscape:connector-curvature="0"
       id="path13029"
       d="m 313.51144,-439.98576 0,0.16054 8.50383,-0.16054 0,0.16054 -8.50383,-0.16054 z"
       style="fill:#d7d7d7;fill-opacity:1;fill-rule:nonzero;stroke:none" />
    <path
       inkscape:connector-curvature="0"
       id="path13031"
       d="m 158.99852,-383.66851 0.16047,-12.67549 0.48135,-12.83604 0.80224,-12.51493 1.12312,-12.51496 1.44406,-12.51494 1.76494,-12.35442 1.92542,-12.19385 2.40671,-12.19513 2.56722,-12.03334 2.88817,-11.87276 3.20886,-11.87403 3.52999,-11.55169 3.69026,-11.55295 4.01123,-11.55168 4.33218,-11.23185 4.65305,-11.23188 4.81344,-11.07005 5.13441,-10.91075 5.29488,-10.75022 5.61577,-10.5897 5.77609,-10.4291 6.09721,-10.26987 6.25748,-10.10796 6.57842,-9.94753 6.89928,-9.78701 6.89939,-9.6276 7.22024,-9.46587 7.54108,-9.30656 7.70164,-9.14606 7.86165,-8.82491 8.02221,-8.66317 8.3446,-8.50378 8.50383,-8.34465 8.66312,-8.02221 8.98551,-7.86161 8.98549,-7.70168 9.30657,-7.54109 9.46585,-7.2202 9.62768,-7.05986 9.78693,-6.73882 9.94749,-6.57837 10.10803,-6.2575 10.26986,-6.09726 10.42913,-5.77611 10.75021,-5.77612 10.75023,-5.29489 10.75022,-4.97402 11.07002,-4.97385 11.23187,-4.49263 11.23186,-4.3322 11.55167,-4.01124 11.55295,-3.69027 11.71222,-3.52993 11.7135,-3.20889 12.03331,-2.88818 12.03332,-2.56715 12.03459,-2.4068 12.3544,-2.08585 12.35441,-1.60453 12.35441,-1.44402 12.51496,-1.12313 12.67549,-0.80227 12.67548,-0.4813 12.67549,-0.16053 0.16057,8.50391 -12.6755,0.16043 -12.35443,0.4814 -12.51493,0.80225 -12.3544,1.12314 -12.19385,1.44401 -12.19515,1.60444 -11.87277,2.08592 -12.03331,2.24628 -11.87405,2.56722 -11.55166,2.88801 -11.7135,3.04863 -11.39113,3.52984 -11.39241,3.69037 -11.23185,3.8508 -11.23058,4.17168 -10.91076,4.49262 -10.91077,4.8135 -10.58968,4.97386 -10.58968,5.29498 -10.42911,5.45523 -10.26859,5.77621 -10.10932,5.93655 -9.94747,6.25759 -9.78694,6.41803 -9.62769,6.73882 -9.46586,6.89934 -9.30657,7.05977 -9.14605,7.38064 -8.82364,7.54126 -8.82493,7.70108 -8.50383,8.02351 -8.34333,8.18274 -8.18277,8.34334 -8.02347,8.50379 -7.7011,8.66439 -7.54122,8.9842 -7.38067,9.14605 -7.05981,9.30658 -6.89931,9.46586 -6.73885,9.6277 -6.418,9.78691 -6.09706,9.94753 -6.09708,10.10928 -5.77623,10.26856 -5.45525,10.42909 -5.29496,10.58979 -4.97386,10.58962 -4.65301,10.91077 -4.49264,10.91074 -4.33209,11.23058 -3.85081,11.23187 -3.6904,11.39241 -3.52984,11.39114 -3.04858,11.55296 -2.88803,11.87275 -2.56723,11.7135 -2.24625,12.03332 -2.08596,12.03331 -1.60443,12.0346 -1.44406,12.35441 -1.12313,12.19385 -0.80224,12.35442 -0.48135,12.51493 -0.16046,12.6755 z"
       style="fill:#d7d7d7;fill-opacity:1;fill-rule:nonzero;stroke:none" />
    <path
       inkscape:connector-curvature="0"
       id="path13033"
       d="m 654.30625,-878.81575 12.6755,0.16053 12.67549,0.4813 12.6755,0.80227 12.51497,1.12313 12.51621,1.44402 12.19386,1.60453 12.35444,2.08585 12.19382,2.4068 12.03463,2.56715 11.87276,2.88818 11.87274,3.20889 11.71352,3.52993 11.55164,3.69027 11.3924,4.01124 11.23189,4.3322 11.23058,4.49263 11.07128,4.97385 10.91079,4.97402 10.75021,5.29489 10.58966,5.77612 10.42915,5.77611 10.2686,6.09726 10.108,6.2575 10.10936,6.57837 9.62636,6.73882 9.62768,7.05986 9.46586,7.2202 9.30657,7.54109 9.14474,7.70168 8.82495,7.86161 8.66439,8.02221 8.5038,8.34465 8.3434,8.50378 8.0222,8.66317 7.8629,8.82491 7.7011,9.14606 7.5407,9.30656 7.2207,9.46587 7.0602,9.6276 6.739,9.78701 6.5774,9.94753 6.2575,10.10796 6.0981,10.26987 5.9365,10.4291 5.6153,10.5897 5.2954,10.75022 5.1337,10.91075 4.8138,11.07005 4.4927,11.23188 4.3322,11.23185 4.0111,11.55168 3.69,11.55295 3.5294,11.55169 3.2098,11.87403 2.8885,12.03331 2.5662,12.03332 2.4069,12.0346 2.0858,12.3544 1.6054,12.19387 1.4438,12.51494 1.1225,12.51496 0.8027,12.67548 0.4817,12.67549 0.1605,12.67549 -8.5038,0.16057 -0.1607,-12.6755 -0.4815,-12.51493 -0.8028,-12.35442 -1.1225,-12.3544 -1.2844,-12.19386 -1.7647,-12.19514 -1.9253,-11.87277 -2.4069,-12.03332 -2.5661,-11.87401 -2.7281,-11.71224 -3.2096,-11.55296 -3.3689,-11.39114 -3.69,-11.39241 -4.0111,-11.23187 -4.1717,-11.23058 -4.4928,-10.91074 -4.8139,-10.91077 -4.9743,-10.75023 -5.2942,-10.58961 -5.456,-10.26866 -5.7759,-10.26856 -5.9364,-10.10928 -6.2575,-9.94753 -6.4179,-9.94743 -6.7391,-9.46718 -6.8997,-9.46586 -7.0589,-9.30658 -7.3813,-9.14605 -7.5406,-8.9842 -7.7024,-8.66439 -8.0222,-8.50379 -8.18275,-8.50385 -8.34332,-8.02223 -8.50384,-8.02351 -8.66438,-7.70108 -8.98552,-7.54126 -9.14473,-7.38064 -9.14606,-7.05977 -9.46714,-6.89934 -9.62636,-6.73882 -9.78824,-6.41803 -10.10804,-6.25759 -9.94748,-5.93655 -10.2686,-5.77621 -10.4291,-5.45523 -10.58968,-5.29498 -10.75021,-4.97386 -10.91078,-4.8135 -10.91077,-4.49262 -11.07129,-4.17168 -11.23058,-3.8508 -11.39243,-3.69037 -11.55292,-3.52984 -11.55169,-3.04863 -11.71351,-2.88801 -11.87277,-2.56722 -11.87274,-2.24628 -12.03459,-2.08592 -12.19387,-1.60444 -12.19386,-1.44401 -12.35443,-1.12314 -12.35566,-0.80225 -12.51497,-0.4814 -12.67551,-0.16043 z"
       style="fill:#d7d7d7;fill-opacity:1;fill-rule:nonzero;stroke:none" />
    <path
       inkscape:connector-curvature="0"
       id="path13035"
       d="m 654.14568,-878.81575 0.16057,0 -0.16057,8.50391 0.16057,0 -0.16057,-8.50391 z"
       style="fill:#d7d7d7;fill-opacity:1;fill-rule:nonzero;stroke:none" />
    <path
       inkscape:connector-curvature="0"
       id="path13037"
       d="m 1149.4547,-383.50794 -0.1605,12.67549 -0.4817,12.6755 -0.8027,12.67553 -1.1225,12.51494 -1.4438,12.51621 -1.6054,12.19386 -2.0858,12.35444 -2.4069,12.0333 -2.5662,12.19515 -2.8885,11.87276 -3.2098,11.71219 -3.5294,11.71351 -3.69,11.55169 -4.0111,11.55296 -4.3322,11.23184 -4.4927,11.23058 -4.8138,11.07133 -5.1337,10.91074 -5.2954,10.75021 -5.6153,10.58972 -5.9365,10.4291 -6.0981,10.26859 -6.2575,10.10804 -6.5774,9.94876 -6.739,9.786917 -7.0602,9.627681 -7.2207,9.46586 -7.5407,9.30657 -7.7011,9.144741 -7.8629,8.824949 -8.0222,8.664391 -8.3434,8.503875 -8.5038,8.343282 -8.66439,8.022201 -8.82495,8.0234824 -9.14474,7.5405876 -9.30657,7.5405785 -9.30663,7.2207435 -9.62636,7.060229 -9.78691,6.739113 -10.10936,6.57729 -10.108,6.257446 -10.2686,6.098205 -10.42915,5.936426 -10.58966,5.454699 -10.75021,5.456033 -10.91079,4.973121 -11.07128,4.813843 -11.23058,4.653285 -11.23189,4.332178 -11.3924,4.011104 -11.55164,3.690032 -11.71352,3.52943 -11.87274,3.209684 -11.87276,2.888575 -12.03463,2.566178 -12.19382,2.4069 -12.19387,1.92528 -12.35443,1.76603 -12.51621,1.4436 -12.51497,1.12258 -12.51494,0.80274 -12.83605,0.48163 -12.6755,0.16056 -0.16057,-8.50389 12.67551,-0.1605 12.51497,-0.48168 12.35566,-0.80274 12.35443,-1.12253 12.19386,-1.284367 12.03331,-1.764719 12.19515,-1.925313 11.87274,-2.406901 11.87277,-2.566186 11.71351,-2.888566 11.55169,-3.049079 11.55292,-3.368925 11.23188,-3.690033 11.39113,-4.011103 11.07129,-4.332169 10.91077,-4.49278 10.91078,-4.653286 10.75021,-4.974358 10.58968,-5.294193 10.4291,-5.456024 10.10805,-5.775868 10.10803,-5.936373 10.10804,-6.257447 9.78824,-6.418049 9.62636,-6.739112 9.46714,-6.8996716 9.14606,-7.05891156 9.14473,-7.38130194 8.98552,-7.5405789 8.66438,-7.702365 8.50384,-8.02221 8.34332,-8.182768 8.18275,-8.343317 8.0222,-8.503832 7.7024,-8.664392 7.5406,-8.985511 7.3813,-9.14474 7.0589,-9.146053 6.8997,-9.467137 6.7391,-9.78692 6.4179,-9.62768 6.2575,-10.10804 5.9364,-10.108 5.7759,-10.26859 5.456,-10.26859 5.2942,-10.58968 4.9743,-10.7502 4.8139,-10.91079 4.4928,-10.91077 4.1717,-11.07129 4.0111,-11.39113 3.69,-11.39241 3.3689,-11.39239 3.2096,-11.71225 2.7281,-11.55295 2.5661,-11.87277 2.4069,-11.87274 1.9253,-12.03459 1.7647,-12.19386 1.2844,-12.19387 1.1225,-12.35438 0.8028,-12.35571 0.4815,-12.51493 0.1607,-12.67555 z"
       style="fill:#d7d7d7;fill-opacity:1;fill-rule:nonzero;stroke:none" />
    <path
       inkscape:connector-curvature="0"
       id="path13039"
       d="m 1149.4547,-383.66851 0,0.16057 -8.5038,-0.16057 0,0.16057 8.5038,-0.16057 z"
       style="fill:#d7d7d7;fill-opacity:1;fill-rule:nonzero;stroke:none" />
    <path
       inkscape:connector-curvature="0"
       id="path13041"
       d="m 654.14568,111.64055 -12.67549,-0.16056 -12.67548,-0.48163 -12.67549,-0.80274 -12.51496,-1.12258 -12.35441,-1.4436 -12.51495,-1.76603 -12.19386,-1.92528 -12.03459,-2.4069 -12.03332,-2.566178 -12.03331,-2.888575 -11.7135,-3.209684 -11.71222,-3.52943 -11.55295,-3.690032 -11.55167,-4.011104 -11.23186,-4.332178 -11.23187,-4.653285 -11.07002,-4.813843 -10.91077,-4.973121 -10.75021,-5.456033 -10.58968,-5.454699 -10.42913,-5.936426 -10.26986,-6.098205 -10.10803,-6.257446 -9.94749,-6.57729 -9.78693,-6.739113 -9.62768,-7.060229 -9.46585,-7.2207435 -9.30657,-7.5405785 -8.98549,-7.5405876 -8.98551,-8.0234824 -8.66312,-8.022201 -8.50383,-8.343282 -8.3446,-8.503875 -8.02221,-8.664391 -7.86165,-8.824949 -7.70164,-9.144741 -7.54108,-9.30657 -7.22024,-9.46586 -6.89939,-9.627681 -6.89928,-9.786917 -6.57842,-9.94876 -6.25748,-10.10804 -6.09721,-10.26859 -5.77609,-10.4291 -5.61577,-10.58972 -5.29488,-10.75021 -5.13441,-10.91074 -4.81344,-11.07133 -4.65305,-11.23058 -4.33218,-11.23184 -4.01123,-11.3924 -3.69026,-11.71225 -3.52999,-11.55296 -3.20886,-11.87274 -2.88817,-11.87276 -2.56722,-12.03458 -2.40671,-12.19387 -1.92542,-12.19387 -1.76494,-12.35443 -1.44406,-12.51621 -1.12312,-12.51494 -0.80224,-12.67553 -0.48135,-12.6755 -0.16047,-12.67549 8.50384,-0.16057 0.16046,12.67555 0.48135,12.51493 0.80224,12.35571 1.12313,12.35438 1.44406,12.19387 1.60443,12.03331 2.08596,12.03459 2.24625,12.03329 2.56723,11.87277 2.88803,11.55295 3.04858,11.71225 3.52984,11.39239 3.6904,11.39241 3.85081,11.39113 4.33209,11.07129 4.49264,10.91077 4.65301,10.91079 4.97386,10.7502 5.29496,10.42912 5.45525,10.42915 5.77623,10.26859 6.09708,10.108 6.09706,10.10804 6.418,9.62768 6.73885,9.62641 6.89931,9.467129 7.05981,9.306571 7.38067,9.14474 7.54122,8.985511 7.7011,8.664392 8.02347,8.503832 8.18277,8.343317 8.34333,8.182768 8.50383,8.02221 8.82493,7.702365 8.82364,7.5405789 9.14605,7.38130194 9.30657,7.05891156 9.46586,6.8996716 9.62769,6.739112 9.78694,6.418049 9.94747,6.257447 10.10932,5.936373 10.26859,5.775868 10.42911,5.456024 10.58968,5.294193 10.58968,4.974358 10.91077,4.653286 10.91076,4.49278 11.23058,4.332169 11.23185,4.011103 11.39241,3.690033 11.39113,3.368925 11.7135,3.049079 11.71221,2.888566 11.7135,2.566186 12.03331,2.406901 12.03331,1.925313 12.03461,1.764719 12.3544,1.284367 12.19385,1.12253 12.51493,0.80274 12.35443,0.48168 12.6755,0.1605 z"
       style="fill:#d7d7d7;fill-opacity:1;fill-rule:nonzero;stroke:none" />
    <path
       inkscape:connector-curvature="0"
       id="path13043"
       d="m 654.30625,111.64055 -0.16057,0 0.16057,-8.50389 -0.16057,0 0.16057,8.50389 z"
       style="fill:#d7d7d7;fill-opacity:1;fill-rule:nonzero;stroke:none" />
    <path
       inkscape:connector-curvature="0"
       id="path13045"
       d="m 158.99852,-383.50794 0,-0.16057 8.50384,0.16057 0,-0.16057 -8.50384,0.16057 z"
       style="fill:#d7d7d7;fill-opacity:1;fill-rule:nonzero;stroke:none" />
    <path
       inkscape:connector-curvature="0"
       id="path13047"
       d="m 762.77043,-657.71562 -17.48934,111.67254 -17.48802,111.83315 -17.48933,111.67388 -17.48934,111.8331 -73.00388,7.38003 -72.84464,7.38129 7.70111,-87.60596 7.86295,-87.44537 7.70111,-87.44414 7.86166,-87.44542 92.25923,-55.99744 92.41849,-55.83566 z"
       style="fill:#d7d7d7;fill-opacity:1;fill-rule:evenodd;stroke:none" />
    <path
       inkscape:connector-curvature="0"
       id="path13049"
       d="m 267.46247,-169.62861 25.35126,0 -35.61999,-90.65379 -35.45939,-90.65376 22.78381,90.65376 22.94431,90.65379 z"
       style="fill:#ff880b;fill-opacity:1;fill-rule:evenodd;stroke:none" />
    <path
       inkscape:connector-curvature="0"
       id="path13051"
       d="m 210.34245,-364.89608 15.24272,19.09355 67.38911,-39.14906 67.38858,-38.98976 67.3886,-38.9885 67.38859,-38.98976 67.38989,-38.98851 67.38858,-38.98978 67.38861,-38.9898 67.38862,-38.98843 -69.31389,36.58155 -69.31389,36.58287 -69.31516,36.5828 -69.31387,36.74345 -69.31387,36.58157 -69.31517,36.58285 -69.31376,36.58286 -69.15369,36.7421 z"
       style="fill:#ff880b;fill-opacity:1;fill-rule:evenodd;stroke:none" />
    <path
       inkscape:connector-curvature="0"
       id="path13053"
       d="m 1033.6092,-408.05619 -36.58154,31.60848 -59.04662,-70.11662 -59.04529,-69.95605 -59.0453,-70.11665 -59.04531,-69.95607 68.19137,62.09448 68.19132,62.09433 68.19003,62.09315 68.19134,62.25495 z"
       style="fill:#d7d7d7;fill-opacity:1;fill-rule:evenodd;stroke:none" />
    <path
       inkscape:connector-curvature="0"
       id="path13055"
       d="m 1037.4598,-225.46428 -3.8506,-86.16232 -3.8505,-86.161 -21.5005,17.81042 4.3322,79.1008 4.4928,79.26264 20.3766,-3.85054 z"
       style="fill:#d7d7d7;fill-opacity:1;fill-rule:evenodd;stroke:none" />
    <path
       inkscape:connector-curvature="0"
       id="path13057"
       d="m 295.38119,-169.62861 90.01158,-6.2575 90.01287,-6.09694 90.01157,-6.25749 90.1734,-6.09693 90.0116,-6.25745 90.01286,-6.09693 90.01159,-6.25749 90.17344,-6.09694 -7.5419,-22.62424 -89.21009,8.98549 -89.04963,8.98547 -89.21012,8.9855 -89.04957,8.98419 -89.20885,8.98549 -89.04958,8.98551 -89.0496,8.98545 -89.04957,9.14481 z"
       style="fill:#d7d7d7;fill-opacity:1;fill-rule:evenodd;stroke:none" />
    <ellipse
       id="ellipse13059"
       ry="44.84568"
       rx="44.765453"
       cy="-476.16727"
       cx="799.03229"
       style="fill:#858383;fill-opacity:1;fill-rule:nonzero;stroke:none" />
    <circle
       r="56.317829"
       id="ellipse13063"
       cy="-486.1954"
       cx="581.78333"
       style="fill:#858383;fill-opacity:1;fill-rule:nonzero;stroke:none" />
    <circle
       r="37.063866"
       id="ellipse13067"
       cy="-367.46262"
       cx="363.89276"
       style="fill:#858383;fill-opacity:1;fill-rule:nonzero;stroke:none" />
    <circle
       r="30.886562"
       id="ellipse13071"
       cy="-387.75946"
       cx="953.94635"
       style="fill:#858383;fill-opacity:1;fill-rule:nonzero;stroke:none" />
    <path
       inkscape:connector-curvature="0"
       id="path13075"
       d="m 493.21478,-406.93365 0.96328,0.16056 2.72801,0.48162 4.3322,0.80273 5.77583,0.80147 7.21949,0.64219 8.34329,0.80273 4.65328,0.3198 4.81386,0.16056 5.13492,0.16055 5.29419,0 5.45474,0 5.77713,-0.16055 5.93638,-0.3198 5.93637,-0.32111 6.25749,-0.64218 6.25747,-0.64219 6.41803,-0.96203 6.57857,-0.96323 6.57856,-1.28311 3.20838,-0.64217 3.37019,-0.80274 6.57857,-1.76477 6.73913,-1.92526 6.73783,-2.08584 3.37021,-1.28308 3.20836,-1.12383 6.73911,-2.72674 3.3702,-1.4449 3.20836,-1.60417 -27.27626,97.39285 -27.27628,97.55343 -1.44492,1.12386 -1.76474,1.12255 -2.40692,1.60415 -2.88726,1.60421 -3.69002,1.76598 -4.01239,1.60421 -2.24638,0.80273 -2.40562,0.64091 -2.40692,0.64219 -2.56747,0.64218 -2.72802,0.48035 -2.72672,0.32112 -2.88856,0.1605 -2.88856,0.16056 -3.04782,-0.16056 -3.20965,-0.1605 -1.60419,-0.32112 -1.60418,-0.16055 -1.60419,-0.3198 -1.76602,-0.32111 -3.36891,-0.8027 -3.36892,-1.12258 -3.53074,-1.28435 -3.52947,-1.60417 -1.76473,-0.96329 -1.92528,-0.96202 -1.76601,-0.96326 -1.76474,-1.12253 -12.83604,-90.49327 -12.6755,-90.49448 z"
       style="fill:#93b91c;fill-opacity:1;fill-rule:evenodd;stroke:none" />
    <path
       inkscape:connector-curvature="0"
       id="path13077"
       d="m 305.00759,-309.70133 3.04909,0.64219 8.34332,1.44364 5.77581,0.9633 6.57857,0.80274 3.52949,0.48037 3.68997,0.48162 3.85188,0.32111 3.85054,0.32106 4.01111,0.32112 4.0111,0.16055 4.17166,0.16051 4.0111,0.15928 4.17166,-0.15928 4.01108,0 2.08583,-0.16051 1.92528,-0.16055 4.0124,-0.32112 1.92526,-0.16056 1.92529,-0.32106 1.92527,-0.32112 1.76473,-0.32105 3.69002,-0.64092 3.37019,-0.9633 3.36892,-0.96198 1.60418,-0.64217 1.44493,-0.64219 2.88727,-1.44365 1.44493,-0.80274 1.28309,-0.80146 -22.78353,96.91126 -0.96329,1.60416 -1.28309,1.6042 -1.60417,2.08583 -1.12384,1.12381 -1.12255,1.28309 -1.28437,1.28436 -1.44363,1.2831 -1.44363,1.28309 -1.76603,1.28441 -1.60419,1.2831 -1.92527,1.1238 -1.92528,1.28309 -2.08583,1.12386 -2.24639,0.96196 -2.24634,0.96331 -2.40694,0.80141 -1.2831,0.32112 -1.1238,0.32107 -2.72674,0.48167 -1.28436,0.16055 -1.2831,0.16052 -2.88856,0.16056 -2.88726,0 -1.44492,-0.16056 -1.6042,-0.16052 -1.44365,-0.32111 -1.60549,-0.16056 -1.60414,-0.32106 -1.60421,-0.48168 -1.60416,-0.48034 -1.76477,-0.48163 -3.37019,-1.44492 -1.60416,-0.64091 -1.76475,-0.96329 -15.56404,-110.71058 z"
       style="fill:#93b91c;fill-opacity:1;fill-rule:evenodd;stroke:none" />
    <path
       inkscape:connector-curvature="0"
       id="path13079"
       d="m 715.11758,-260.92458 2.56618,1.28436 3.20964,1.44366 4.33218,1.76471 5.45474,2.08583 3.20969,0.96325 3.36888,0.96203 3.69004,1.12381 3.85181,0.96202 4.17166,0.96325 4.49146,0.9633 4.65328,0.80146 4.97441,0.80274 5.13491,0.64091 5.29419,0.48163 5.6153,0.48163 2.88857,0.16055 2.88857,0 5.93638,0.16056 6.09694,-0.16056 3.20836,-0.16055 3.20964,-0.16057 3.36892,-0.16052 3.20963,-0.32111 3.36893,-0.32106 3.37019,-0.4804 3.52949,-0.48163 3.36891,-0.48162 3.53076,-0.64218 3.68998,-0.64091 3.52948,-0.64218 3.69127,-0.80274 3.69004,-0.96202 3.68998,-0.96326 3.8506,-0.96203 3.69126,-1.1238 -9.46713,-73.00387 -9.30657,-73.00521 -66.90695,43.9629 -52.14562,95.46762 z"
       style="fill:#ff880b;fill-opacity:1;fill-rule:evenodd;stroke:none" />
    <path
       inkscape:connector-curvature="0"
       id="path13081"
       d="m 926.4294,-313.07025 56.15673,-44.1234 22.14257,91.45651 -0.3211,0.32106 -0.8027,0.96202 -1.6042,1.44365 -0.9619,0.80275 -1.1239,0.96323 -2.88724,2.08584 -1.76604,0.96203 -1.92528,1.1238 -2.08583,1.12254 -2.4069,0.96329 -2.40567,1.12254 -2.72801,0.96329 -3.04908,0.96198 -3.04785,0.80274 -3.3702,0.80147 -3.68999,0.64218 -3.85055,0.48162 -4.01111,0.32112 -2.24637,0.16056 -2.08583,0.16051 -4.65329,0 -4.81384,-0.16051 -5.13363,-0.32112 -5.29549,-0.48162 -2.728,-0.32111 -2.8873,-0.48163 -2.88857,-0.48036 -3.0478,-0.48166 -3.04912,-0.64219 -3.04782,-0.64219 -6.57856,-1.60415 -3.20964,-0.80147 -3.52947,-0.96329 18.93298,-57.12003 z"
       style="fill:#ff880b;fill-opacity:1;fill-rule:evenodd;stroke:none" />
    <path
       inkscape:connector-curvature="0"
       id="path13083"
       d="m 253.50339,-331.84267 1.92537,0.80274 5.77622,1.92527 4.17167,1.44366 4.81343,1.44363 5.45538,1.76473 6.09707,1.76603 6.57843,1.76471 7.06023,1.76473 7.38003,1.76476 7.70241,1.60415 8.02221,1.44493 4.1716,0.6409 4.01112,0.64218 8.18275,1.12387 8.34333,0.80141 4.17161,0.32111 4.17167,0.16056 4.0111,0.16055 4.17166,0 4.01109,0 3.85186,-0.16055 3.85055,-0.32111 3.85056,-0.32107 3.69,-0.6409 3.69002,-0.6422 3.53075,-0.80273 3.36891,-0.80147 3.20965,-1.12381 3.20838,-1.12258 3.04909,-1.28436 2.88728,-1.44364 2.72802,-1.76473 2.56746,-1.76471 2.56747,-1.92659 2.08581,-1.92528 2.24639,-2.40562 1.92527,-2.4069 1.76472,-2.5675 1.6042,-2.72802 1.28437,-3.0478 1.2831,-3.20965 0.962,-3.52947 0.80273,-3.68999 0.64219,-4.01242 0.3211,-4.17162 0,-4.49145 0,-4.81385 8.50384,-0.32112 0.16054,4.97441 -0.16054,5.13364 -0.48165,4.65328 -0.64218,4.49274 -0.80145,4.33221 -1.28438,4.17166 -1.44363,3.85055 -1.60419,3.52949 -1.92656,3.37018 -2.08582,3.20836 -2.40564,2.88858 -2.56747,2.72801 -2.72801,2.56618 -2.88857,2.24634 -3.04782,2.08583 -3.20965,1.92528 -3.36891,1.76603 -3.52947,1.44366 -3.53075,1.44359 -3.68999,1.12386 -3.85057,0.96197 -3.85056,0.80274 -3.85055,0.80146 -4.17294,0.48163 -4.01111,0.48168 -4.17165,0.32106 -4.17164,0.16056 -4.17165,0.16056 -4.33222,-0.16056 -4.33217,0 -4.17166,-0.32111 -4.33217,-0.32107 -8.50388,-0.80275 -8.6644,-1.12252 -4.17165,-0.64219 -4.17162,-0.64091 -8.18277,-1.60547 -7.86163,-1.60421 -7.70115,-1.76472 -7.22075,-1.92527 -6.73889,-1.76471 -6.09702,-1.76477 -5.61581,-1.76599 -4.97386,-1.44364 -4.17165,-1.44366 -5.77624,-2.08583 -2.24637,-0.80273 z"
       style="fill:#858383;fill-opacity:1;fill-rule:nonzero;stroke:none" />
    <path
       inkscape:connector-curvature="0"
       id="path13085"
       d="m 401.11737,-437.73939 2.56747,1.12254 2.88727,1.12383 4.01111,1.76474 5.13494,1.92528 6.09692,2.24636 7.0602,2.40692 8.02222,2.40692 4.17166,1.2831 4.49273,1.28437 4.65329,1.28309 4.65201,1.28308 5.13493,1.12382 5.13493,1.28309 5.29419,1.12386 5.45475,1.12252 5.61657,0.9633 5.77584,0.96199 5.93638,0.96329 5.93638,0.80146 6.09821,0.64219 6.25749,0.64218 6.25747,0.48162 6.41802,0.3198 6.57857,0.32111 6.57728,0.16056 6.57857,-0.16056 6.73912,-0.16056 6.73912,-0.32106 6.89966,-0.64091 6.7391,-0.64218 6.89839,-0.96203 6.89967,-1.1238 7.06021,-1.2831 6.89838,-1.44492 6.89966,-1.76476 6.89966,-1.92528 7.06022,-2.24634 6.73785,-2.40693 7.06018,-2.72673 6.73912,-3.04911 6.89966,-3.20837 6.73912,-3.53075 6.73785,-3.85055 6.73911,-4.17165 6.57857,-4.33219 6.57855,-4.81385 6.41806,-5.13364 6.41799,-5.45603 6.2575,-5.61529 6.25743,-6.25748 6.09695,-6.41802 5.93637,-6.89966 5.93637,-7.21947 5.77714,-7.70242 5.61532,-8.02221 7.06018,4.97441 -5.77581,8.18276 -5.93771,7.86166 -6.09688,7.54185 -6.25749,7.05892 -6.25749,6.73912 -6.418,6.25747 -6.57857,5.93638 -6.57859,5.77712 -6.73781,5.13366 -6.89968,4.97438 -6.73911,4.65329 -7.06022,4.33219 -6.89836,4.0111 -7.06024,3.69002 -7.22073,3.36892 -7.05895,3.04913 -7.22075,2.88724 -7.06019,2.56746 -7.38002,2.24638 -7.06023,2.08583 -7.21947,1.76472 -7.22075,1.60547 -7.22077,1.2831 -7.05892,1.12385 -7.22076,0.96198 -7.06021,0.64218 -7.05892,0.64091 -6.89966,0.32111 -6.89968,0.16051 -6.89837,0.16056 -6.73912,-0.16056 -6.57857,-0.16051 -6.57856,-0.4804 -6.57857,-0.48162 -6.41803,-0.64218 -6.25747,-0.64218 -6.09693,-0.96202 -6.09694,-0.8027 -5.77583,-0.96203 -5.77712,-1.12379 -5.61528,-1.12259 -5.45603,-1.12381 -5.2942,-1.28308 -4.97437,-1.28437 -4.97311,-1.28309 -4.81384,-1.2831 -4.49274,-1.28435 -4.33219,-1.28311 -8.18276,-2.5675 -7.22077,-2.40688 -6.09692,-2.24639 -5.2942,-2.08583 -4.17164,-1.60418 -3.20966,-1.44364 -2.40692,-1.12382 z"
       style="fill:#858383;fill-opacity:1;fill-rule:nonzero;stroke:none" />
    <path
       inkscape:connector-curvature="0"
       id="path13087"
       d="m 660.40318,-337.77906 1.60548,0 4.65201,-0.32106 3.20964,-0.16055 4.17166,-0.48162 4.49273,-0.48167 5.2942,-0.80144 5.77714,-0.96329 6.418,-1.12254 6.73783,-1.44492 7.38132,-1.76476 7.70108,-1.92527 4.01112,-1.12254 4.01242,-1.28436 4.1716,-1.28308 4.33094,-1.44365 4.33217,-1.44493 4.33223,-1.6042 9.14602,-3.52944 4.49278,-1.92527 4.8138,-1.92527 4.65332,-2.24639 4.81252,-2.08583 4.81384,-2.4069 4.9744,-2.5675 4.81253,-2.56745 4.97441,-2.72802 4.97439,-2.88725 4.97308,-3.04913 4.97441,-3.0478 5.13491,-3.3702 4.97312,-3.36892 5.13491,-3.69003 4.97312,-3.69127 5.13491,-3.85058 4.9744,-4.17162 5.13364,-4.17166 4.9744,-4.33223 4.97436,-4.65327 4.97312,-4.6533 4.97436,-4.97309 4.97313,-4.9744 4.97439,-5.2942 4.8138,-5.45602 4.81385,-5.61528 4.81257,-5.77584 4.65327,-5.93766 4.65329,-6.25748 4.65329,-6.41801 6.8984,4.97437 -4.65202,6.57857 -4.81383,6.25749 -4.81384,6.09692 -4.81385,6.09692 -4.97308,5.77713 -4.97441,5.45474 -4.97307,5.45473 -5.13496,5.13494 -5.13491,4.97437 -5.13363,4.81258 -4.9744,4.81385 -5.2942,4.33217 -5.13491,4.49277 -5.13496,4.0111 -5.2942,4.01111 -5.13491,3.85055 -5.13368,3.69127 -5.29547,3.52947 -5.13363,3.36893 -5.13492,3.37019 -5.13368,3.0478 -5.13491,2.88857 -4.97439,2.88857 -5.13366,2.72674 -4.97439,2.4069 -4.97436,2.56744 -4.97312,2.24641 -4.81384,2.24638 -4.81385,1.92527 -4.65196,2.08584 -9.30662,3.52942 -4.65328,1.60421 -4.49274,1.60547 -4.33221,1.44365 -4.17162,1.2831 -4.17166,1.28436 -4.17166,1.12254 -8.02221,2.08583 -7.38003,1.76471 -7.06018,1.44493 -6.5786,1.28308 -5.93638,0.9633 -5.45602,0.80147 -4.81253,0.48163 -4.17166,0.48163 -3.53074,0.3211 -4.81385,0.16056 -1.6042,0.16051 z"
       style="fill:#858383;fill-opacity:1;fill-rule:nonzero;stroke:none" />
    <path
       inkscape:connector-curvature="0"
       id="path13089"
       d="m 870.75302,-304.40586 4.8138,-0.96323 5.45476,-1.28311 3.37019,-0.9633 3.8506,-0.96196 4.1716,-1.28311 4.49278,-1.44491 4.81384,-1.76477 4.97309,-1.7647 5.29546,-2.08584 5.45475,-2.40691 2.72802,-1.12257 2.88729,-1.28436 2.72802,-1.44366 2.88852,-1.44491 5.77587,-3.0478 5.61526,-3.20966 5.9377,-3.52946 2.72669,-1.92528 2.88856,-1.92527 2.88858,-1.92528 2.72673,-2.24638 2.88853,-2.08584 2.72802,-2.24634 2.72674,-2.24638 2.56745,-2.40695 2.72801,-2.4069 2.56751,-2.56746 2.56616,-2.56618 2.40691,-2.72802 2.40695,-2.728 2.40689,-2.88729 2.2464,-2.88857 2.08582,-3.04909 2.24635,-3.0478 1.92527,-3.20969 1.92527,-3.20836 1.92532,-3.3702 1.76472,-3.52948 1.60547,-3.52943 1.60418,-3.53075 1.4436,-3.69004 1.2844,-3.85054 1.2831,-4.01111 8.0222,2.56745 -1.2831,4.17167 -1.4436,4.01111 -1.445,4.0111 -1.6041,3.85054 -1.9253,3.8506 -1.7648,3.69126 -2.0857,3.69004 -2.08588,3.36892 -2.08583,3.37019 -2.24637,3.36893 -2.40691,3.20963 -2.40694,3.04781 -2.4069,3.04912 -2.56746,3.04781 -2.72673,2.88857 -2.56746,2.72801 -2.72802,2.56618 -2.88857,2.56746 -2.72673,2.56746 -2.88858,2.40694 -2.88856,2.40689 -3.04781,2.2464 -2.88858,2.24639 -3.0478,2.08578 -2.88857,2.08583 -3.04781,1.92527 -5.93765,3.69004 -6.09694,3.36892 -5.93637,3.20964 -3.04913,1.44364 -2.88729,1.44366 -2.88852,1.28436 -2.8873,1.28309 -5.61658,2.4069 -5.45471,2.24638 -5.29552,1.92529 -4.81251,1.6042 -4.65329,1.60543 -4.33222,1.28309 -4.01111,1.12385 -3.53074,0.96198 -5.77583,1.28309 -4.9744,1.12386 z"
       style="fill:#858383;fill-opacity:1;fill-rule:nonzero;stroke:none" />
    <path
       inkscape:connector-curvature="0"
       id="path13091"
       d="m 1281.9855,-107.05262 45.5683,0 0,-86.96374 72.5223,0 0,-39.79125 -72.5223,0 0,-49.41887 77.4968,0 0,-40.11231 -123.0651,0 0,108.1431 0,108.14307 z"
       style="fill:#bfbfbf;fill-opacity:1;fill-rule:evenodd;stroke:none" />
    <path
       inkscape:connector-curvature="0"
       id="path13093"
       d="m 1569.3451,-263.97243 -45.5567,0 0,93.38179 0,3.0478 -0.4881,2.72802 -1.2844,4.81384 -1.2842,3.04786 -1.6056,2.88851 -2.2476,2.72801 -2.5558,2.72675 -3.0569,2.40695 -3.5321,1.60543 -4.0072,1.12257 -4.4954,0.48163 -2.8897,-0.16055 -2.7229,-0.48162 -2.5687,-0.80276 -2.2477,-1.12253 -2.0808,-1.28308 -1.9265,-1.76604 -1.7596,-1.92528 -1.4514,-2.24638 -1.2843,-2.40563 -1.1174,-2.88857 -1.7725,-6.09688 -0.4752,-3.53076 -0.488,-3.69003 -0.3211,-8.18277 0,-84.39628 -45.5633,0 0,92.09741 0.3211,8.6644 0.8015,8.18277 1.1238,7.38129 1.6041,6.89968 2.0859,6.25744 2.407,5.61531 2.8885,4.9744 1.6054,2.24634 1.7597,2.08583 3.6989,3.85056 3.8404,3.20835 4.1742,2.88857 4.4953,2.24638 4.8163,1.76473 5.1376,1.12385 5.2915,0.80143 5.4587,0.16055 4.8036,-0.32107 4.4952,-0.48039 8.1815,-1.92655 7.2183,-2.72675 3.2108,-1.7647 2.8899,-2.08584 5.1376,-4.17166 4.1741,-4.17293 3.3651,-4.01111 2.4018,-4.01111 0.9632,0 2.0936,22.14263 39.4688,0 -0.8092,-22.46369 -0.3211,-27.91717 0,-106.53895 z"
       style="fill:#bfbfbf;fill-opacity:1;fill-rule:evenodd;stroke:none" />
    <path
       inkscape:connector-curvature="0"
       id="path13095"
       d="m 1605.937,-107.05262 45.5697,0 0,-90.49322 0.3211,-6.57856 0.3211,-3.04907 0.7964,-2.5675 1.4383,-3.52944 0.8092,-1.6042 0.9633,-1.60548 2.4019,-3.04781 2.5686,-2.72801 1.6055,-1.28309 1.6055,-1.12381 3.5319,-1.76476 4.0073,-1.12254 4.4954,-0.48163 2.8898,0.16051 2.7229,0.48167 2.5687,0.80143 2.4018,0.9633 2.0935,1.28308 1.9266,1.60421 3.0439,4.01237 1.2845,2.40563 1.1174,2.72802 1.7725,5.6153 0.4751,3.20964 0.4881,3.36892 0.321,7.3813 0,86.96374 45.4027,0 0,-92.73956 -0.3211,-8.34331 -0.6422,-7.86293 -1.2843,-7.21947 -1.6055,-6.73911 -2.0807,-6.09695 -2.5687,-5.45602 -3.0439,-5.13368 -3.378,-4.33217 -3.6861,-3.85055 -2.0807,-1.76603 -1.9265,-1.60416 -4.3412,-2.8873 -4.4826,-2.40691 -4.8163,-1.76603 -5.1376,-1.28309 -5.2915,-0.80273 -2.8899,-0.15924 -2.7228,0 -4.4955,0.31979 -4.3282,0.48163 -4.0202,0.64218 -3.8531,1.12258 -3.5191,1.1238 -3.3781,1.44366 -3.2108,1.7647 -2.877,1.92529 -5.1374,4.01109 -4.3413,4.17295 -3.5192,4.17165 -2.5688,4.17167 -0.9632,0 -2.0935,-21.82156 -39.469,0 0.8093,22.94409 0.321,27.11574 0,106.85998 z"
       style="fill:#bfbfbf;fill-opacity:1;fill-rule:evenodd;stroke:none" />
    <path
       inkscape:connector-curvature="0"
       id="path13097"
       d="m 1877.8907,-335.21287 0,85.35959 -0.6422,0 -2.877,-3.85055 -3.378,-3.36893 -4.0072,-3.04912 -4.6494,-2.56746 -5.3045,-2.08583 -2.7229,-0.80142 -2.8898,-0.64218 -3.044,-0.48167 -3.2109,-0.48163 -6.576,-0.31979 -4.4953,0.15924 -4.3284,0.48162 -4.1742,0.80274 -4.1742,1.12258 -4.0073,1.28437 -3.8531,1.76471 -3.8531,1.92528 -3.8531,2.40693 -3.532,2.56746 -3.5193,2.88725 -3.2109,3.20969 -3.0568,3.36891 -2.877,3.69 -2.7357,4.01238 -2.5688,4.17165 -2.4018,4.49146 -2.0807,4.81384 -1.7723,4.97441 -1.6055,5.29418 -1.2844,5.45603 -0.9633,5.77583 -0.6422,5.93637 -0.4753,6.25749 -0.1668,6.57856 0.1668,4.49273 0.1541,4.49277 0.4881,4.33217 0.4753,4.17167 1.6055,8.02221 1.9266,7.70114 2.5686,7.06018 3.044,6.57856 3.6989,6.09694 4.1615,5.61658 4.4953,4.97307 4.8164,4.49278 5.1374,3.69 5.4587,3.04912 5.6127,2.4069 5.9338,1.76476 6.2549,1.12253 6.5761,0.48163 7.0641,-0.48163 3.532,-0.48035 3.365,-0.80274 3.2109,-0.80273 3.211,-1.28311 6.2549,-2.88855 5.7797,-3.69 5.1375,-4.49278 2.4018,-2.56745 2.0807,-2.72675 2.0935,-2.88851 1.7597,-3.20841 0.9631,0 1.7726,22.78353 40.4321,0 -0.4881,-9.30657 -0.3211,-11.55163 -0.4752,-25.99323 0,-90.65377 0,-90.65505 -45.4155,0 z m 0,158.52529 -0.3211,5.61532 -0.6423,5.29546 -0.6421,2.56618 -0.7963,2.40689 -2.0807,4.49278 -1.1303,2.08584 -1.4385,1.92527 -1.6055,1.76471 -1.7725,1.60548 -1.7595,1.60417 -1.9266,1.28309 -4.1742,1.92531 -4.4952,1.28437 -4.8036,0.48035 -3.5321,-0.15929 -3.365,-0.64217 -3.0568,-0.96326 -2.8899,-1.28308 -2.8898,-1.60421 -2.4018,-1.92528 -2.4018,-2.40695 -2.2476,-2.72801 -1.9266,-2.88851 -1.7724,-3.20837 -1.4385,-3.52948 -1.1175,-3.85187 -0.9633,-4.0111 -0.6421,-4.33217 -0.4881,-4.65201 -0.1541,-4.81385 0.1541,-4.65329 0.3212,-4.49272 0.6422,-4.17165 0.9632,-4.17167 0.9633,-3.85055 1.4384,-3.52948 1.6056,-3.53075 1.7724,-3.20837 1.1175,-1.60547 0.9631,-1.28309 2.4146,-2.56746 2.5561,-2.24634 2.8897,-1.92532 3.0568,-1.2831 3.211,-1.1238 3.6861,-0.64091 3.6862,-0.32106 5.1373,0.48163 4.6496,1.28308 4.1742,2.24639 1.9266,1.28309 1.7595,1.60544 3.2111,3.52947 2.5687,4.0111 1.1303,2.08583 0.7961,2.4069 1.4387,4.81383 0.3211,2.24641 0.1669,2.24506 0.1542,4.49277 0,20.53842 z"
       style="fill:#bfbfbf;fill-opacity:1;fill-rule:evenodd;stroke:none" />
    <path
       inkscape:connector-curvature="0"
       id="path13099"
       d="m 2081.9908,-199.79218 0,-7.06023 -0.6422,-6.57856 -0.9634,-6.41804 -1.4513,-6.09689 -2.0807,-5.77587 -2.4018,-5.61658 -2.8898,-5.29419 -1.6055,-2.4069 -1.6054,-2.4069 -1.9267,-2.40694 -2.0806,-2.2464 -2.2477,-1.92526 -2.4146,-1.92528 -2.4018,-1.76472 -2.7228,-1.6042 -6.1009,-2.88852 -6.5759,-2.08584 -7.3852,-1.60421 -7.8604,-1.1238 -4.3283,-0.32111 -4.3411,-0.15924 -9.7871,0.48035 -4.6494,0.32107 -4.3283,0.48167 -4.3412,0.64218 -4.0072,0.80142 -7.5393,2.08583 -6.8971,2.24638 -5.9338,2.2464 -5.3045,2.40689 -4.1742,2.4069 8.3485,31.12686 3.853,-2.24639 4.3283,-2.08583 9.954,-3.85056 2.7228,-0.64217 2.723,-0.80146 5.6255,-0.96326 5.6127,-0.80147 5.6128,-0.16056 7.5392,0.64091 3.211,0.48167 2.8897,0.80271 4.8164,2.08583 1.7597,1.44363 0.8091,0.6422 0.7963,0.80146 2.2477,3.3702 1.6055,3.20837 0.4752,1.76471 0.488,1.60547 0.1542,3.36893 0,1.92526 -9.62,0.16056 -9.1448,0.80275 -8.5025,1.12253 -8.1815,1.6042 -7.5521,2.08584 -7.0512,2.40689 -6.4219,3.04913 -3.044,1.60416 -3.0568,1.92527 -5.4457,3.85055 -2.4146,2.24639 -2.2477,2.24639 -4.0072,4.81384 -3.2109,5.4547 -1.4386,2.88857 -1.1302,3.04913 -1.1175,3.20836 -0.8091,3.20965 -0.6422,3.36891 -0.6422,3.52948 -0.321,3.53075 -0.1541,3.85055 0.3211,4.81385 0.6421,4.49145 0.9632,4.49274 1.2844,4.33221 1.7596,4.0111 2.2477,4.01238 2.4146,3.68999 3.044,3.52948 3.2108,3.37019 3.5322,2.8873 3.8403,2.40689 4.1742,2.08583 4.4953,1.60422 4.8163,1.28435 5.1248,0.64091 5.4585,0.48163 6.4219,-0.32107 3.2109,-0.48039 3.044,-0.48164 5.7796,-1.60416 5.4587,-2.08583 5.2916,-2.72801 4.6494,-3.37018 4.3284,-3.85061 1.9266,-2.08583 1.9266,-2.24634 0.9632,0 2.5687,15.72458 41.0744,0 -1.1175,-7.5418 -0.8091,-9.14481 -0.321,-10.26854 -0.1541,-10.91078 0,-54.87363 z m -43.9643,35.61959 -0.3211,4.33216 -0.6422,4.01111 -1.4512,3.69004 -1.9139,3.37019 -2.4145,2.88724 -3.0441,2.72803 -3.2109,2.24638 -3.6861,1.60416 -3.8531,0.9633 -4.0201,0.48036 -3.8403,-0.3198 -3.3778,-0.80274 -1.6056,-0.64219 -1.4385,-0.80146 -2.5686,-2.08584 -2.2478,-2.56746 -1.6055,-3.20963 -0.6422,-1.76475 -0.321,-2.08579 -0.4753,-4.33223 0.3211,-3.36892 0.6423,-3.04908 0.9632,-2.72801 1.4385,-2.56617 1.7724,-2.2464 1.9266,-2.08584 2.556,-1.7647 2.7356,-1.60548 3.0439,-1.2831 3.3652,-1.12385 7.0641,-1.76471 4.0073,-0.48035 4.02,-0.48164 8.8236,-0.16055 0,17.00772 z"
       style="fill:#bfbfbf;fill-opacity:1;fill-rule:evenodd;stroke:none" />
    <path
       inkscape:connector-curvature="0"
       id="path13101"
       d="m 2222.5398,-147.16493 -2.5686,1.12254 -2.8899,0.96328 -6.0879,1.60421 -3.3779,0.64219 -3.5321,0.48035 -7.5393,0.32106 -4.1613,-0.1605 -4.0201,-0.48035 -3.8531,-0.96329 -3.6863,-1.28311 -3.365,-1.44492 -3.3778,-1.92527 -3.0441,-2.24639 -2.8898,-2.72673 -2.723,-2.88853 -2.2475,-3.2084 -2.0808,-3.69128 -1.6055,-3.85054 -1.2843,-4.33221 -0.9632,-4.65329 -0.6422,-4.81257 -0.3212,-5.29546 0.1542,-4.81385 0.488,-4.49273 0.9634,-4.17166 1.1174,-4.01111 1.4512,-3.85054 1.7597,-3.52948 2.2477,-3.3702 2.4017,-3.20836 2.7357,-2.72801 1.4385,-1.28309 1.6055,-1.12386 3.2109,-2.08578 3.3652,-1.76476 3.853,-1.28309 1.9265,-0.6422 1.9266,-0.48161 4.1742,-0.6409 4.4825,-0.16057 8.3484,0.32112 6.8972,1.12253 5.6127,1.44364 4.6622,1.92528 7.2183,-36.26049 -7.8605,-2.56745 -4.1742,-1.12386 -4.4952,-0.80142 -4.6495,-0.64218 -4.4953,-0.64223 -9.1447,-0.32107 -6.743,0.16056 -6.409,0.64218 -3.0569,0.48162 -3.044,0.48163 -5.9338,1.28309 -5.6255,1.60421 -5.2916,1.92526 -5.1375,2.2464 -4.8036,2.56745 -4.4953,2.88857 -4.1742,3.20837 -4.0073,3.37019 -3.699,3.52948 -3.365,3.85054 -3.044,4.17167 -2.8898,4.33216 -2.5688,4.49279 -2.2476,4.81379 -1.9266,4.81257 -1.6054,5.13496 -1.4385,5.13491 -0.9633,5.2942 -0.8093,5.45475 -0.4752,5.45602 -0.1669,5.77582 0.1669,4.49273 0.3211,4.49277 0.9634,8.6644 1.7595,8.0222 2.2477,7.54059 3.0567,7.06018 3.5192,6.57856 4.1743,6.09694 2.4146,2.88857 2.4018,2.72801 5.4585,4.97307 2.8898,2.2464 2.8771,2.08584 6.422,3.68997 6.897,3.04913 3.5321,1.28309 3.6861,1.12381 7.8731,1.6042 8.1816,1.12382 8.8237,0.48039 6.4091,-0.16056 6.1008,-0.48035 5.7795,-0.64218 5.4587,-0.80273 5.1246,-1.12259 4.4952,-1.28437 4.0203,-1.44364 3.365,-1.44361 -5.4587,-35.94069 z"
       style="fill:#bfbfbf;fill-opacity:1;fill-rule:evenodd;stroke:none" />
    <path
       inkscape:connector-curvature="0"
       id="path13103"
       d="m 2298.6006,-107.05262 0,-78.4599 0,-78.45991 -45.5697,0 0,78.45991 0,78.4599 45.5697,0 z m -22.7848,-176.17386 2.7229,-0.16056 2.7227,-0.48163 4.6624,-1.28309 2.0807,-0.96329 2.0807,-1.28309 1.7725,-1.44365 1.7595,-1.60543 1.4514,-1.76476 1.2843,-1.92528 2.0807,-4.01111 1.2844,-4.49272 0.3211,-2.40695 0,-2.56746 -0.1671,-2.56617 -0.3209,-2.56746 -1.2716,-4.49273 -0.9633,-2.08584 -1.1302,-2.08582 -2.723,-3.52947 -3.3778,-3.0491 -1.9138,-1.12257 -2.0934,-0.96325 -2.2477,-0.80275 -2.4018,-0.6409 -2.5688,-0.32111 -2.7229,-0.16051 -2.7357,0.16051 -2.5687,0.32111 -4.6495,1.44365 -4.1742,2.08582 -1.7596,1.44361 -1.7724,1.60549 -1.4385,1.7647 -1.4385,1.76477 -1.9265,4.17166 -1.2844,4.49273 -0.3211,2.56746 -0.1671,2.56617 0.1671,2.56746 0.3211,2.40695 0.4752,2.24634 0.6421,2.24638 0.9634,2.08584 1.1302,1.92527 2.7229,3.69004 3.365,3.04908 4.0201,2.24638 2.2348,0.80143 2.4147,0.48166 5.1374,0.64219 0.3212,0 z"
       style="fill:#bfbfbf;fill-opacity:1;fill-rule:evenodd;stroke:none" />
    <path
       inkscape:connector-curvature="0"
       id="path13105"
       d="m 2402.7248,-103.52314 9.787,-0.64219 4.8164,-0.64091 4.6495,-0.96329 4.6494,-1.28309 4.4953,-1.44361 4.4953,-1.92659 4.4954,-2.08583 4.1742,-2.40562 4.1613,-2.72802 3.8531,-2.88857 3.5321,-3.36887 3.532,-3.53075 3.2109,-3.85059 3.044,-4.17162 2.8898,-4.49277 2.5688,-4.81253 2.2477,-5.13494 1.9265,-5.29421 1.6056,-5.77709 1.1173,-6.09694 0.9633,-6.25749 0.6422,-6.73911 0.1541,-6.89836 -0.1541,-4.49277 -0.1542,-4.33217 -1.1303,-8.34333 -1.6053,-8.02348 -2.2477,-7.54058 -1.4385,-3.52943 -1.4513,-3.37024 -3.5193,-6.57857 -1.9266,-3.20836 -2.2476,-3.04907 -4.6623,-5.61531 -2.5558,-2.72801 -2.7358,-2.40691 -5.6128,-4.49278 -3.0439,-1.92526 -3.0567,-1.92528 -6.5761,-3.0478 -6.8971,-2.56751 -7.3851,-1.76472 -7.8605,-1.1238 -8.3355,-0.48035 -8.6696,0.48035 -8.3484,1.1238 -7.8603,1.76472 -3.6863,1.12258 -3.6861,1.28436 -3.532,1.60417 -3.3779,1.6042 -3.1981,1.76472 -3.211,2.08582 -5.9467,4.49278 -5.4456,5.13492 -2.5688,2.88857 -2.4146,2.88725 -4.3284,6.41804 -3.532,6.73913 -3.044,7.38128 -2.4017,7.7011 -1.7724,8.34332 -0.9634,8.82495 -0.4752,9.46586 0.1542,4.65328 0.321,4.65328 1.1302,8.82496 1.7597,8.18271 1.1302,3.8506 1.2716,3.85054 3.0568,7.22075 3.6862,6.57855 2.0935,3.04786 2.2348,3.04908 4.9833,5.45475 5.4458,4.9744 5.7798,4.33218 6.2548,3.69003 6.5888,2.88857 6.8972,2.4069 7.3723,1.7647 7.5521,0.96203 4.0072,0.32108 4.0071,0.16055 0.3212,0 z m 0.6423,-34.97739 -3.5321,-0.32108 -3.2109,-0.64218 -3.1981,-1.12257 -2.7357,-1.44494 -2.7229,-1.92526 -2.4146,-2.24634 -2.2349,-2.72675 -0.9632,-1.44492 -0.9634,-1.6042 -1.7723,-3.36892 -1.6055,-3.53071 -1.2843,-3.85058 -1.1175,-4.01112 -0.809,-4.33216 -0.6423,-4.49279 -0.3212,-4.8138 -0.1541,-4.97312 0.3212,-8.9855 0.6421,-4.17161 0.6422,-4.17167 0.9632,-4.0111 1.2845,-3.85055 1.4385,-3.69131 1.6054,-3.52947 1.9265,-3.36893 2.0808,-2.88852 2.5688,-2.40694 2.7357,-2.08583 3.044,-1.60417 3.2109,-1.28308 3.6861,-0.80275 3.8532,-0.3211 3.6862,0.3211 3.532,0.80275 3.0567,1.28308 3.0439,1.60417 2.5688,2.08583 2.4019,2.40694 2.0935,2.88852 1.9266,3.36893 3.0439,7.22078 1.1174,3.85055 0.9633,3.85055 0.8092,4.17167 0.4751,4.17165 0.3212,4.33218 0,4.49276 -0.1541,5.13492 -0.3211,4.97307 -0.6422,4.81384 -0.8092,4.33223 -1.1174,4.17166 -1.2844,3.85054 -1.6054,3.52948 -1.7596,3.3702 -2.0936,3.04781 -2.2476,2.56744 -2.2477,2.08584 -2.5558,1.92527 -2.8899,1.44493 -2.8898,0.96202 -3.0569,0.64218 -3.365,0.32108 -0.3211,0 z m 5.7797,-193.82376 -25.8289,48.7767 31.1205,0 36.5789,-48.7767 -41.8705,0 z"
       style="fill:#bfbfbf;fill-opacity:1;fill-rule:evenodd;stroke:none" />
    <path
       inkscape:connector-curvature="0"
       id="path13107"
       d="m 2507.8253,-107.05262 45.4026,0 0,-90.49322 0.3212,-6.57856 0.4752,-3.04907 0.809,-2.5675 1.4386,-3.52944 0.8092,-1.6042 0.9633,-1.60548 2.2475,-3.04781 2.7229,-2.72801 1.4386,-1.28309 1.6055,-1.12381 3.5319,-1.76476 4.1742,-1.12254 4.3285,-0.48163 3.0568,0.16051 2.7228,0.48167 2.5688,0.80143 2.2476,0.9633 2.0808,1.28308 1.9265,1.60421 3.2109,4.01237 1.2844,2.40563 1.1174,2.72802 1.6055,5.6153 0.6422,3.20964 0.488,3.36892 0.1541,7.3813 0,86.96374 45.5697,0 0,-92.73956 -0.321,-8.34331 -0.7963,-7.86293 -1.1304,-7.21947 -1.7595,-6.73911 -2.0936,-6.09695 -2.4018,-5.45602 -3.0439,-5.13368 -3.3779,-4.33217 -3.8532,-3.85055 -1.9137,-1.76603 -2.0935,-1.60416 -4.1743,-2.8873 -4.6494,-2.40691 -4.8164,-1.76603 -4.9705,-1.28309 -5.4586,-0.80273 -2.7229,-0.15924 -2.8898,0 -4.4954,0.31979 -4.1742,0.48163 -4.0072,0.64218 -3.8532,1.12258 -3.5191,1.1238 -3.3779,1.44366 -3.2109,1.7647 -2.8899,1.92529 -5.1247,4.01109 -4.4953,4.17295 -3.365,4.17165 -2.7358,4.17167 -0.7963,0 -2.0935,-21.82156 -39.623,0 0.7963,22.94409 0.4881,27.11574 0,106.85998 z"
       style="fill:#bfbfbf;fill-opacity:1;fill-rule:evenodd;stroke:none" />
    <path
       inkscape:connector-curvature="0"
       id="path13109"
       d="m 1281.9855,-644.23869 0,108.1431 0,108.14315 45.5683,0 0,-108.14315 0,-108.1431 -45.5683,0 z"
       style="fill:#bfbfbf;fill-opacity:1;fill-rule:evenodd;stroke:none" />
    <path
       inkscape:connector-curvature="0"
       id="path13111"
       d="m 1357.0765,-435.97466 4.4927,2.24638 4.9731,2.08582 5.2955,1.92527 5.9364,1.76475 6.2575,1.28435 6.418,0.962 6.8997,0.6422 7.0589,0.32109 7.7023,-0.32109 7.0591,-0.80274 6.7391,-1.12254 6.0969,-1.60418 5.777,-2.08583 5.1338,-2.40692 2.4093,-1.44492 2.2478,-1.44364 2.2477,-1.60418 1.9136,-1.60418 3.8532,-3.69129 3.211,-3.85056 2.7356,-4.17167 2.2349,-4.49273 1.6055,-4.6533 1.2843,-4.9731 0.8091,-5.29547 0.1542,-5.45475 -0.1542,-4.17165 -0.321,-4.01109 -0.8091,-3.85185 -0.9633,-3.69003 -1.4386,-3.52943 -1.6054,-3.3702 -1.9266,-3.20835 -2.0807,-3.04913 -2.5686,-2.72675 -2.89,-2.88856 -3.2109,-2.56746 -3.6863,-2.4069 -8.1853,-4.65201 -9.6276,-4.01116 -6.0969,-2.40689 -5.1349,-2.08583 -4.1717,-2.08582 -3.2083,-2.08584 -1.2831,-0.96325 -0.9634,-1.12258 -1.604,-2.24634 -0.9634,-2.40694 -0.3211,-2.56746 0.3211,-2.88856 0.8027,-2.40564 0.641,-1.12381 0.8027,-0.96329 2.0858,-1.76472 2.4069,-1.44365 3.0492,-1.12253 3.3688,-0.64218 4.011,-0.16055 4.6536,0.16055 4.4926,0.64218 4.4927,0.96198 4.3322,1.12385 7.705,2.88724 6.0879,2.88857 7.7063,-33.37318 -3.6863,-1.92659 -4.02,-1.60413 -4.6494,-1.60427 -5.1376,-1.28305 -5.4507,-1.28435 -5.776,-0.80148 -5.9363,-0.64217 -6.418,-0.16062 -6.5785,0.32114 -6.4182,0.80147 -5.9364,1.12384 -5.6166,1.60417 -5.2941,2.08584 -4.8138,2.56745 -4.4928,2.88857 -2.2462,1.60417 -1.9254,1.76471 -3.69,3.69003 -3.369,3.85056 -2.728,4.33222 -2.2463,4.49273 -1.7647,4.65328 -1.2844,4.9744 -0.8015,5.29419 -0.3211,5.61658 0,3.36888 0.3211,3.36892 0.8015,3.3702 0.9633,3.36891 1.283,3.2097 1.7648,3.20836 1.9265,3.20969 2.2464,3.04779 2.7268,3.04909 3.049,2.8873 3.5295,2.72801 3.8505,2.56746 4.1717,2.56746 4.6532,2.40693 5.1351,2.24639 5.4547,2.24506 5.7758,2.08583 4.6534,1.92656 1.9252,1.12255 1.7647,0.96327 2.8886,2.08582 1.9252,2.08583 1.4449,2.24638 0.8016,2.56618 0.1604,2.88856 0,1.44363 -0.321,1.44493 -0.8014,2.40563 -1.445,2.24638 -2.0858,1.92656 -1.1225,0.80146 -1.445,0.64217 -3.3688,0.962 -4.1717,0.64219 -4.8139,0.32109 -5.2942,-0.32109 -5.2955,-0.80273 -5.4547,-1.12254 -5.4561,-1.44364 -5.2942,-1.92529 -4.6532,-1.92656 -4.1717,-1.92528 -3.5294,-2.08582 -8.1828,34.65758 z"
       style="fill:#bfbfbf;fill-opacity:1;fill-rule:evenodd;stroke:none" />
    <path
       inkscape:connector-curvature="0"
       id="path13113"
       d="m 1617.8047,-520.69205 0,-7.06022 -0.6422,-6.57856 -0.9633,-6.41805 -1.4385,-6.09693 -2.0935,-5.93639 -2.4018,-5.4547 -2.8899,-5.29551 -1.6054,-2.40689 -1.6056,-2.56619 -1.9264,-2.24639 -2.0807,-2.24635 -2.2476,-1.92531 -2.4018,-1.92527 -2.4148,-1.76598 -2.7227,-1.60422 -6.1009,-2.88852 -6.576,-2.08584 -7.3851,-1.76478 -7.8605,-0.96192 -4.3282,-0.32112 -4.3284,-0.16062 -9.7869,0.32114 -4.6623,0.48165 -4.3283,0.48034 -4.3284,0.64227 -4.02,0.80261 -7.5394,2.08584 -6.8971,2.24643 -5.9338,2.24638 -5.2917,2.40561 -4.1742,2.40691 8.3356,31.12812 3.8533,-2.4069 4.3411,-2.08582 9.941,-3.69131 2.7229,-0.80146 2.7358,-0.6422 5.6126,-1.12252 5.6127,-0.64219 5.6257,-0.16054 7.5393,0.48166 3.2109,0.64218 2.877,0.80141 4.8164,2.08583 1.7725,1.44366 0.7963,0.64217 0.8091,0.80275 2.2347,3.36892 1.6055,3.20963 0.4882,1.6042 0.4752,1.76473 0,3.37019 0,1.92528 -9.4659,0.16055 -9.1447,0.64091 -8.5026,1.12381 -8.1815,1.76477 -7.5392,1.92527 -7.0641,2.56745 -6.4219,3.04785 -3.044,1.60548 -3.044,1.76472 -5.4586,4.01111 -2.4017,2.08582 -2.2476,2.4069 -4.0201,4.81258 -3.1983,5.45602 -1.4511,2.88857 -1.1175,3.0478 -1.1302,3.04913 -0.7964,3.36891 -0.6422,3.36892 -0.6422,3.53073 -0.3211,3.52946 -0.1669,3.85055 0.3211,4.6533 0.6421,4.65329 0.9634,4.49276 1.2844,4.17164 1.7723,4.17164 2.2478,3.85057 2.4016,3.85055 3.044,3.53076 3.211,3.36891 3.5321,2.88856 3.853,2.40564 4.1744,2.08582 4.4824,1.60546 4.8164,1.12254 5.1374,0.80274 5.4586,0.48165 6.409,-0.3211 3.2109,-0.48164 3.0569,-0.48165 5.7669,-1.60418 5.4585,-2.08582 5.2917,-2.72801 4.6623,-3.36892 4.3284,-3.85056 1.9265,-2.08583 1.9266,-2.24637 0.9632,0 2.5559,15.72334 41.0872,0 -1.1303,-7.54058 -0.7963,-9.14604 -0.3212,-10.26857 -0.1668,-10.91078 0,-54.87364 z m -43.9641,35.61958 -0.3212,4.17166 -0.6422,4.17164 -1.4384,3.6913 -1.9266,3.20837 -2.4018,3.04909 -3.0568,2.72674 -3.211,2.24638 -3.6861,1.60418 -3.8532,0.96329 -4.0071,0.48164 -3.8533,-0.32111 -3.365,-0.80273 -1.6054,-0.6409 -1.4514,-0.80273 -2.556,-2.08583 -2.2475,-2.56746 -1.6055,-3.20838 -0.6422,-1.92528 -0.3211,-1.92527 -0.4881,-4.3322 0.3211,-3.3702 0.6422,-3.04783 0.9632,-2.728 1.4516,-2.56746 1.6053,-2.40695 2.0807,-1.92527 2.5688,-1.76471 2.7228,-1.6042 3.0569,-1.28438 3.365,-1.12253 7.064,-1.76472 3.8403,-0.48166 4.1742,-0.48163 8.8238,-0.16056 0,17.0077 z"
       style="fill:#bfbfbf;fill-opacity:1;fill-rule:evenodd;stroke:none" />
    <path
       inkscape:connector-curvature="0"
       id="path13115"
       d="m 1653.7415,-364.4144 45.5697,0 0,-77.97829 0.6421,0 1.2844,1.92529 1.4513,1.76472 3.5192,3.37021 4.0201,3.04781 4.6494,2.72802 5.1376,2.08583 5.4586,1.60418 3.0439,0.64219 3.0439,0.32109 6.422,0.48165 8.3485,-0.64219 4.0071,-0.6422 4.0074,-0.962 7.8602,-2.88855 3.8532,-1.92527 3.6861,-2.08583 3.6991,-2.40692 3.5321,-2.72802 3.3649,-3.04781 3.211,-3.37021 3.044,-3.52945 2.7356,-4.01111 5.2917,-8.66439 2.2476,-4.81385 1.9266,-5.13364 1.7596,-5.45603 1.2844,-5.77583 1.1174,-5.93639 0.8092,-6.41799 0.4753,-6.73911 0.321,-6.89969 -0.1542,-6.25748 -0.488,-5.93639 -0.6423,-5.6153 -0.9631,-5.45603 -1.2716,-5.2942 -1.4514,-5.1349 -1.7595,-4.81384 -1.9266,-4.49146 -2.2477,-4.33222 -2.2477,-4.01237 -5.2915,-7.38003 -2.8898,-3.36892 -2.89,-3.04908 -3.2109,-2.72805 -3.3651,-2.40691 -3.5319,-2.24638 -3.5321,-1.92527 -3.6861,-1.7647 -3.6991,-1.28313 -3.6861,-1.12384 -4.0072,-0.64085 -3.8532,-0.48166 -4.0073,-0.16062 -4.02,0 -3.8403,0.32114 -3.699,0.64217 -3.532,0.64096 -3.5193,0.96331 -3.3779,1.12252 -3.365,1.28436 -3.044,1.60419 -5.9466,3.52943 -2.723,2.08583 -2.7227,2.24638 -2.4147,2.4069 -2.4018,2.72802 -2.2476,2.72674 -2.0807,3.04912 -0.6422,0 -2.0936,-21.82157 -39.4688,0 0.7963,24.06791 0.3211,28.5594 0,83.91593 0,83.91467 z m 45.5697,-152.42709 0.3209,-4.49274 0.6422,-4.17166 1.4515,-5.2942 1.1174,-2.40693 1.1303,-2.24635 2.7227,-4.17167 3.5321,-3.69002 3.8531,-3.04908 2.0807,-1.12253 2.0806,-0.9633 2.2477,-0.80274 2.2478,-0.48036 4.8164,-0.48161 3.6861,0.16051 3.532,0.64222 3.211,1.12253 3.0439,1.2831 2.7357,1.76599 2.5689,2.24638 2.2347,2.40562 2.0935,2.88858 1.7596,3.20963 1.6055,3.36893 1.2843,3.52947 1.1303,3.85055 0.7964,4.01242 0.6422,4.33218 0.488,4.33093 0,4.81381 -0.167,4.81385 -0.1541,2.40693 -0.1669,2.4069 -0.6422,4.33222 -0.9633,4.17166 -1.1175,3.85052 -1.4513,3.69003 -1.7595,3.36891 -1.9266,3.04911 -2.0807,2.72802 -2.4147,2.56746 -2.5686,1.92527 -2.723,1.76474 -3.044,1.28309 -3.2109,0.96327 -3.3779,0.64091 -3.6862,0.32109 -4.8163,-0.48035 -2.2478,-0.6422 -2.2476,-0.64218 -2.0807,-0.962 -2.0807,-1.12383 -1.9264,-1.28308 -1.7726,-1.44493 -3.2109,-3.52946 -2.723,-3.85056 -2.0805,-4.33219 -1.4515,-4.81384 -0.6422,-4.97312 -0.3209,-5.29547 0,-21.50043 z"
       style="fill:#bfbfbf;fill-opacity:1;fill-rule:evenodd;stroke:none" />
    <path
       inkscape:connector-curvature="0"
       id="path13117"
       d="m 1833.2842,-427.95244 45.4156,0 0,-79.26137 0.3211,-5.93764 0.6422,-4.97314 0.6422,-2.88856 0.9632,-2.72802 2.0807,-4.81258 3.0441,-4.17159 3.6989,-3.53077 2.0807,-1.6042 2.2476,-1.28309 4.8165,-2.08584 5.6127,-1.28436 5.9338,-0.32112 6.7429,0.32112 5.6127,0.96331 0,-45.88821 -4.4951,-0.80269 -5.1247,-0.16062 -5.6257,0.48174 -5.6128,1.28304 -5.6127,2.40689 -5.4585,3.52951 -2.7228,2.08584 -2.5688,2.40689 -2.4017,2.72801 -2.2478,2.88857 -2.0935,3.20836 -1.9265,3.69004 -1.7596,3.85055 -1.4385,4.17293 -1.2844,0 -1.7725,-29.20287 -38.9808,0 0.6424,10.42918 0.3209,11.71346 0.3082,29.52265 0,105.25458 z"
       style="fill:#bfbfbf;fill-opacity:1;fill-rule:evenodd;stroke:none" />
    <path
       inkscape:connector-curvature="0"
       id="path13119"
       d="m 2073.8093,-490.84828 0.9632,-7.8617 0.4752,-5.45603 0.1671,-5.93637 -0.4883,-9.78692 -1.1172,-9.46713 -0.9634,-4.81385 -1.1302,-4.49277 -1.2843,-4.49146 -1.4386,-4.49272 -3.8531,-8.50383 -2.2477,-4.0111 -2.4017,-3.69132 -2.7357,-3.52948 -3.0441,-3.36892 -3.2109,-3.04908 -3.532,-3.04785 -3.6862,-2.56746 -4.0071,-2.24637 -4.3413,-2.08584 -4.6494,-1.60418 -4.8164,-1.28437 -5.2916,-0.96199 -5.4586,-0.64217 -5.6128,-0.16054 -6.2549,0.32106 -5.9338,0.64217 -5.6255,0.96209 -5.2917,1.44357 -5.1375,1.76601 -4.8036,2.24509 -4.4953,2.5675 -4.1742,2.88852 -4.0072,3.20836 -3.699,3.37025 -3.5193,3.68998 -3.0567,3.85055 -3.0439,4.01111 -2.5688,4.17166 -2.4018,4.49273 -2.0936,4.65328 -1.9264,4.81385 -1.6056,4.81383 -1.4385,4.81258 -1.1174,4.97439 -0.8092,4.9744 -0.642,4.97309 -0.4753,10.10804 0.4753,8.98549 0.3209,4.33218 0.6422,4.17166 1.6055,8.18275 2.2478,7.54186 1.2842,3.52945 1.6056,3.52947 3.365,6.41802 2.0935,3.20965 2.0806,2.88856 2.2478,2.88728 2.5686,2.56747 5.2918,4.97437 2.8898,2.24639 2.8897,2.08582 6.4091,3.69001 7.0641,3.04781 3.6862,1.28438 3.6989,1.12256 8.0146,1.60417 8.6695,1.12383 4.4953,0.32109 4.6494,0.16055 7.3852,-0.16055 7.0512,-0.48163 7.0641,-0.80274 6.743,-1.12255 3.365,-0.64217 3.2109,-0.64091 6.422,-1.76603 5.9337,-2.08582 5.7668,-2.24637 -5.9337,-33.0521 -4.6495,1.60417 -4.6493,1.28438 -4.8165,1.12254 -4.8164,0.96329 -5.1375,0.80144 -5.2916,0.48164 -5.4586,0.3211 -5.6127,0.16054 -4.0073,-0.16054 -3.8532,-0.3211 -3.853,-0.64218 -3.5321,-0.80146 -6.7302,-2.24636 -3.2109,-1.44493 -2.8899,-1.76473 -2.8897,-1.92527 -2.4018,-2.24639 -2.0935,-2.40691 -1.9266,-2.72672 -1.4385,-2.88856 -1.1174,-3.20838 -0.9633,-3.53075 -0.4881,-3.52943 94.3503,0 z m -94.6714,-33.37323 0.3211,-2.56746 0.4881,-2.72801 0.6421,-2.56746 0.7964,-2.56623 0.9633,-2.56746 1.2843,-2.56745 2.8899,-5.13492 1.7596,-2.40567 2.0935,-2.24634 2.2348,-1.76603 2.5689,-1.60417 2.7356,-1.12257 3.044,-0.96326 3.2109,-0.6409 3.532,-0.32111 2.4018,0 2.4147,0.32111 4.1613,1.12253 1.9266,0.80274 1.7725,0.96197 1.6053,1.12387 1.4385,1.12253 2.5689,2.88857 2.0806,3.04781 1.7725,3.20968 1.2844,3.52943 0.9632,3.69003 0.6422,3.37019 0.3211,6.57858 -53.9181,0 z"
       style="fill:#bfbfbf;fill-opacity:1;fill-rule:evenodd;stroke:none" />
    <rect
       style="opacity:1;fill:none;fill-opacity:1;stroke:#0056ca;stroke-width:9.95265865;stroke-miterlimit:4;stroke-dasharray:none;stroke-opacity:1"
       id="rect5186"
       width="2824.2664"
       height="2824.3989"
       x="7.9850307"
       y="-1773.0618" />
  </g>
</svg>
