<?xml version="1.0" encoding="UTF-8" standalone="no"?>
<!-- Created with Inkscape (http://www.inkscape.org/) -->

<svg
   xmlns:dc="http://purl.org/dc/elements/1.1/"
   xmlns:cc="http://creativecommons.org/ns#"
   xmlns:rdf="http://www.w3.org/1999/02/22-rdf-syntax-ns#"
   xmlns:svg="http://www.w3.org/2000/svg"
   xmlns="http://www.w3.org/2000/svg"
   xmlns:sodipodi="http://sodipodi.sourceforge.net/DTD/sodipodi-0.dtd"
   xmlns:inkscape="http://www.inkscape.org/namespaces/inkscape"
   width="800mm"
   height="800mm"
   viewBox="0 0 2834.6457 2834.6457"
   id="svg2"
   version="1.1"
   inkscape:version="0.91 r13725"
   sodipodi:docname="la_araucana.svg">
  <defs
     id="defs4">
    <clipPath
       id="clipPath4154"
       clipPathUnits="userSpaceOnUse">
      <path
         inkscape:connector-curvature="0"
         id="path4156"
         d="M 0,792 612,792 612,0 0,0 0,792 Z" />
    </clipPath>
    <clipPath
       id="clipPath4879"
       clipPathUnits="userSpaceOnUse">
      <path
         inkscape:connector-curvature="0"
         id="path4881"
         d="m 0,784.567 793.701,0 L 793.701,0 0,0 0,784.567 Z" />
    </clipPath>
    <clipPath
       id="clipPath5009"
       clipPathUnits="userSpaceOnUse">
      <path
         inkscape:connector-curvature="0"
         id="path5011"
         d="m -336.46,98.8652 672.92,0 0,-197.7314 -672.92,0 0,197.7314 z" />
    </clipPath>
  </defs>
  <sodipodi:namedview
     id="base"
     pagecolor="#ffffff"
     bordercolor="#666666"
     borderopacity="1.0"
     inkscape:pageopacity="0.0"
     inkscape:pageshadow="2"
     inkscape:zoom="0.21465655"
     inkscape:cx="697.08393"
     inkscape:cy="1227.1774"
     inkscape:document-units="px"
     inkscape:current-layer="layer1"
     showgrid="false"
     inkscape:window-width="1920"
     inkscape:window-height="1138"
     inkscape:window-x="1358"
     inkscape:window-y="-8"
     inkscape:window-maximized="1" />
  <metadata
     id="metadata7">
    <rdf:RDF>
      <cc:Work
         rdf:about="">
        <dc:format>image/svg+xml</dc:format>
        <dc:type
           rdf:resource="http://purl.org/dc/dcmitype/StillImage" />
        <dc:title />
      </cc:Work>
    </rdf:RDF>
  </metadata>
  <g
     inkscape:label="Capa 1"
     inkscape:groupmode="layer"
     id="layer1"
     transform="translate(0,1782.2835)">
    <flowRoot
       xml:space="preserve"
       id="flowRoot4823"
       style="fill:black;stroke:none;stroke-opacity:1;stroke-width:1px;stroke-linejoin:miter;stroke-linecap:butt;fill-opacity:1;font-family:sans-serif;font-style:normal;font-weight:normal;font-size:40px;line-height:125%;letter-spacing:0px;word-spacing:0px"><flowRegion
         id="flowRegion4825"><rect
           id="rect4827"
           width="1321.4423"
           height="148.09267"
           x="497.43948"
           y="2621.9998" /></flowRegion><flowPara
         id="flowPara4829" /></flowRoot>    <path
       d="m 158.05538,-618.95478 29.2634,0 0,262.77747 111.71502,0 0,28.07705 -140.97842,0 0,-290.85452 z"
       style="font-style:normal;font-variant:normal;font-weight:normal;font-stretch:normal;font-size:419.39953613px;line-height:125%;font-family:'Century Gothic';-inkscape-font-specification:'Century Gothic';letter-spacing:0px;word-spacing:0px;fill:#007ac8;fill-opacity:1;stroke:none;stroke-width:1px;stroke-linecap:butt;stroke-linejoin:miter;stroke-opacity:1"
       id="path5424"
       inkscape:connector-curvature="0" />
    <path
       d="m 555.28632,-543.22583 0,215.12557 -27.28615,0 0,-36.97471 q -17.39986,21.15664 -39.14969,31.83384 -21.5521,10.67719 -47.25644,10.67719 -45.67464,0 -78.10166,-33.0202 -32.22929,-33.21791 -32.22929,-80.67209 0,-46.46554 32.62474,-79.48573 32.62474,-33.02019 78.49711,-33.02019 26.49524,0 47.84962,11.27036 21.5521,11.27037 37.76561,33.81109 l 0,-39.54513 27.28615,0 z m -110.7264,21.15664 q -23.13391,0 -42.70875,11.4681 -19.57485,11.27036 -31.24066,31.83383 -11.46809,20.56348 -11.46809,43.49966 0,22.73845 11.66581,43.49966 11.66582,20.7612 31.24066,32.42701 19.77258,11.4681 42.31331,11.4681 22.73845,0 43.1042,-11.4681 20.36575,-11.46809 31.24066,-31.04293 11.07264,-19.57485 11.07264,-44.09283 0,-37.37017 -24.71571,-62.48133 -24.51799,-25.11117 -60.50407,-25.11117 z"
       style="font-style:normal;font-variant:normal;font-weight:normal;font-stretch:normal;font-size:419.39953613px;line-height:125%;font-family:'Century Gothic';-inkscape-font-specification:'Century Gothic';letter-spacing:0px;word-spacing:0px;fill:#007ac8;fill-opacity:1;stroke:none;stroke-width:1px;stroke-linecap:butt;stroke-linejoin:miter;stroke-opacity:1"
       id="path5426"
       inkscape:connector-curvature="0" />
    <path
       d="m 853.45667,-618.95478 135.63983,290.85452 -31.24066,0 -45.67463,-95.69925 -125.3581,0 -45.47691,95.69925 -32.42702,0 137.41936,-290.85452 7.11813,0 z m -3.55907,61.69042 -50.02459,105.3878 99.45603,0 -49.43144,-105.3878 z"
       style="font-style:normal;font-variant:normal;font-weight:normal;font-stretch:normal;font-size:419.39953613px;line-height:125%;font-family:'Century Gothic';-inkscape-font-specification:'Century Gothic';letter-spacing:0px;word-spacing:0px;fill:#007ac8;fill-opacity:1;stroke:none;stroke-width:1px;stroke-linecap:butt;stroke-linejoin:miter;stroke-opacity:1"
       id="path5428"
       inkscape:connector-curvature="0" />
    <path
       d="m 1019.3486,-543.22583 28.2747,0 0,31.43838 q 12.6545,-18.58621 26.693,-27.6816 14.0385,-9.2931 29.2634,-9.2931 11.4681,0 24.518,7.31585 l -14.434,23.33163 q -8.6999,-3.75679 -14.6317,-3.75679 -13.8408,0 -26.693,11.46809 -12.8521,11.27036 -19.5748,35.19518 -5.1409,18.38849 -5.1409,74.34486 l 0,72.76307 -28.2747,0 0,-215.12557 z"
       style="font-style:normal;font-variant:normal;font-weight:normal;font-stretch:normal;font-size:419.39953613px;line-height:125%;font-family:'Century Gothic';-inkscape-font-specification:'Century Gothic';letter-spacing:0px;word-spacing:0px;fill:#007ac8;fill-opacity:1;stroke:none;stroke-width:1px;stroke-linecap:butt;stroke-linejoin:miter;stroke-opacity:1"
       id="path5430"
       inkscape:connector-curvature="0" />
    <path
       d="m 1365.9617,-543.22583 0,215.12557 -27.2862,0 0,-36.97471 q -17.3998,21.15664 -39.1497,31.83384 -21.5521,10.67719 -47.2564,10.67719 -45.6746,0 -78.1017,-33.0202 -32.2293,-33.21791 -32.2293,-80.67209 0,-46.46554 32.6248,-79.48573 32.6247,-33.02019 78.4971,-33.02019 26.4952,0 47.8496,11.27036 21.5521,11.27037 37.7656,33.81109 l 0,-39.54513 27.2862,0 z m -110.7264,21.15664 q -23.1339,0 -42.7088,11.4681 -19.5748,11.27036 -31.2406,31.83383 -11.4681,20.56348 -11.4681,43.49966 0,22.73845 11.6658,43.49966 11.6658,20.7612 31.2407,32.42701 19.7725,11.4681 42.3133,11.4681 22.7384,0 43.1042,-11.4681 20.3657,-11.46809 31.2406,-31.04293 11.0727,-19.57485 11.0727,-44.09283 0,-37.37017 -24.7158,-62.48133 -24.5179,-25.11117 -60.504,-25.11117 z"
       style="font-style:normal;font-variant:normal;font-weight:normal;font-stretch:normal;font-size:419.39953613px;line-height:125%;font-family:'Century Gothic';-inkscape-font-specification:'Century Gothic';letter-spacing:0px;word-spacing:0px;fill:#007ac8;fill-opacity:1;stroke:none;stroke-width:1px;stroke-linecap:butt;stroke-linejoin:miter;stroke-opacity:1"
       id="path5432"
       inkscape:connector-curvature="0" />
    <path
       d="m 1424.884,-543.22583 27.8794,0 0,100.44465 q 0,36.77699 3.9545,50.61778 5.9317,19.77257 22.5407,31.24067 16.8067,11.46809 39.9406,11.46809 23.1339,0 39.1496,-11.07264 16.2136,-11.27037 22.343,-29.46113 4.1523,-12.45672 4.1523,-52.79277 l 0,-100.44465 28.2748,0 0,105.58552 q 0,44.48829 -10.4794,67.02902 -10.2819,22.54073 -31.2408,35.3929 -20.7612,12.65445 -52.1995,12.65445 -31.4384,0 -52.5951,-12.65445 -20.9589,-12.85217 -31.4384,-35.59063 -10.2817,-22.93618 -10.2817,-68.80854 l 0,-103.60827 z"
       style="font-style:normal;font-variant:normal;font-weight:normal;font-stretch:normal;font-size:419.39953613px;line-height:125%;font-family:'Century Gothic';-inkscape-font-specification:'Century Gothic';letter-spacing:0px;word-spacing:0px;fill:#007ac8;fill-opacity:1;stroke:none;stroke-width:1px;stroke-linecap:butt;stroke-linejoin:miter;stroke-opacity:1"
       id="path5434"
       inkscape:connector-curvature="0" />
    <path
       d="m 1883.2122,-498.53982 -21.9476,13.64307 q -28.4725,-37.76561 -77.7061,-37.76561 -39.3474,0 -65.4473,25.30889 -25.9021,25.30889 -25.9021,61.49269 0,23.52936 11.8636,44.29057 12.0613,20.76119 32.8225,32.22928 20.9589,11.4681 46.8609,11.4681 47.4542,0 77.5085,-37.76562 l 21.9476,14.43398 q -15.4226,23.13391 -41.5224,35.98608 -25.9021,12.65445 -59.12,12.65445 -51.0132,0 -84.6266,-32.42702 -33.6134,-32.42702 -33.6134,-78.89256 0,-31.24066 15.6203,-57.93363 15.8181,-26.89069 43.3019,-41.91785 27.484,-15.02715 61.4928,-15.02715 21.3543,0 41.1269,6.52494 19.9703,6.52495 33.8112,17.00441 13.8407,10.47947 23.5293,26.69298 z"
       style="font-style:normal;font-variant:normal;font-weight:normal;font-stretch:normal;font-size:419.39953613px;line-height:125%;font-family:'Century Gothic';-inkscape-font-specification:'Century Gothic';letter-spacing:0px;word-spacing:0px;fill:#007ac8;fill-opacity:1;stroke:none;stroke-width:1px;stroke-linecap:butt;stroke-linejoin:miter;stroke-opacity:1"
       id="path5436"
       inkscape:connector-curvature="0" />
    <path
       d="m 2150.5374,-543.22583 0,215.12557 -27.2862,0 0,-36.97471 q -17.3999,21.15664 -39.1496,31.83384 -21.5522,10.67719 -47.2565,10.67719 -45.6747,0 -78.1017,-33.0202 -32.2292,-33.21791 -32.2292,-80.67209 0,-46.46554 32.6247,-79.48573 32.6247,-33.02019 78.4971,-33.02019 26.4952,0 47.8496,11.27036 21.5521,11.27037 37.7656,33.81109 l 0,-39.54513 27.2862,0 z m -110.7265,21.15664 q -23.1338,0 -42.7087,11.4681 -19.5748,11.27036 -31.2406,31.83383 -11.4682,20.56348 -11.4682,43.49966 0,22.73845 11.6659,43.49966 11.6658,20.7612 31.2407,32.42701 19.7725,11.4681 42.3132,11.4681 22.7385,0 43.1043,-11.4681 20.3657,-11.46809 31.2406,-31.04293 11.0726,-19.57485 11.0726,-44.09283 0,-37.37017 -24.7157,-62.48133 -24.5179,-25.11117 -60.5041,-25.11117 z"
       style="font-style:normal;font-variant:normal;font-weight:normal;font-stretch:normal;font-size:419.39953613px;line-height:125%;font-family:'Century Gothic';-inkscape-font-specification:'Century Gothic';letter-spacing:0px;word-spacing:0px;fill:#007ac8;fill-opacity:1;stroke:none;stroke-width:1px;stroke-linecap:butt;stroke-linejoin:miter;stroke-opacity:1"
       id="path5438"
       inkscape:connector-curvature="0" />
    <path
       d="m 2213.0187,-543.22583 27.6816,0 0,38.55651 q 16.6089,-22.14529 36.7769,-33.0202 20.168,-11.07263 43.8951,-11.07263 24.1226,0 42.7088,12.25899 18.7839,12.25899 27.6816,33.0202 8.8977,20.76119 8.8977,64.6563 l 0,110.7264 -27.4839,0 0,-102.61965 q 0,-37.17243 -3.1637,-49.62915 -4.9431,-21.35438 -18.5862,-32.03157 -13.643,-10.87491 -35.5906,-10.87491 -25.1111,0 -45.0814,16.60896 -19.7726,16.60896 -26.0998,41.12695 -3.9545,16.01578 -3.9545,58.52681 l 0,78.89256 -27.6816,0 0,-215.12557 z"
       style="font-style:normal;font-variant:normal;font-weight:normal;font-stretch:normal;font-size:419.39953613px;line-height:125%;font-family:'Century Gothic';-inkscape-font-specification:'Century Gothic';letter-spacing:0px;word-spacing:0px;fill:#007ac8;fill-opacity:1;stroke:none;stroke-width:1px;stroke-linecap:butt;stroke-linejoin:miter;stroke-opacity:1"
       id="path5440"
       inkscape:connector-curvature="0" />
    <path
       d="m 2674.1151,-543.22583 0,215.12557 -27.2861,0 0,-36.97471 q -17.3999,21.15664 -39.1497,31.83384 -21.5521,10.67719 -47.2564,10.67719 -45.6746,0 -78.1017,-33.0202 -32.2293,-33.21791 -32.2293,-80.67209 0,-46.46554 32.6248,-79.48573 32.6247,-33.02019 78.4971,-33.02019 26.4952,0 47.8496,11.27036 21.5521,11.27037 37.7656,33.81109 l 0,-39.54513 27.2861,0 z m -110.7263,21.15664 q -23.134,0 -42.7088,11.4681 -19.5748,11.27036 -31.2406,31.83383 -11.4681,20.56348 -11.4681,43.49966 0,22.73845 11.6658,43.49966 11.6658,20.7612 31.2406,32.42701 19.7726,11.4681 42.3134,11.4681 22.7384,0 43.1042,-11.4681 20.3657,-11.46809 31.2406,-31.04293 11.0727,-19.57485 11.0727,-44.09283 0,-37.37017 -24.7158,-62.48133 -24.518,-25.11117 -60.504,-25.11117 z"
       style="font-style:normal;font-variant:normal;font-weight:normal;font-stretch:normal;font-size:419.39953613px;line-height:125%;font-family:'Century Gothic';-inkscape-font-specification:'Century Gothic';letter-spacing:0px;word-spacing:0px;fill:#007ac8;fill-opacity:1;stroke:none;stroke-width:1px;stroke-linecap:butt;stroke-linejoin:miter;stroke-opacity:1"
       id="path5442"
       inkscape:connector-curvature="0" />
    <g
       id="flowRoot7127"
       style="font-style:normal;font-weight:normal;font-size:125px;line-height:125%;font-family:sans-serif;text-align:center;letter-spacing:0px;word-spacing:0px;text-anchor:middle;fill:#b8b8b8;fill-opacity:1;stroke:none;stroke-width:1px;stroke-linecap:butt;stroke-linejoin:miter;stroke-opacity:1"
       transform="matrix(1.6369164,0,0,1.4037033,-45.490644,-2586.6587)">
      <path
         inkscape:connector-curvature="0"
         id="path5445"
         style="font-size:125px;text-align:center;text-anchor:middle;fill:#b8b8b8;fill-opacity:1"
         d="m 210.53125,1745.7948 q 0,5.3101 -2.50244,10.498 -2.44141,5.188 -6.89697,8.7891 -4.88282,3.9063 -11.41358,6.1035 -6.46972,2.1973 -15.625,2.1973 -9.82666,0 -17.70019,-1.8311 -7.8125,-1.831 -15.93018,-5.4321 l 0,-15.1367 0.85449,0 q 6.89698,5.7373 15.93018,8.8501 9.0332,3.1128 16.96777,3.1128 11.23047,0 17.45606,-4.2114 6.28662,-4.2115 6.28662,-11.2305 0,-6.0425 -2.99072,-8.9111 -2.92969,-2.8687 -8.97217,-4.4556 -4.57764,-1.2207 -9.94873,-2.0142 -5.31006,-0.7934 -11.29151,-2.0141 -12.08496,-2.5635 -17.94433,-8.7281 -5.79834,-6.2255 -5.79834,-16.1743 0,-11.4136 9.64355,-18.6767 9.64356,-7.3243 24.4751,-7.3243 9.58252,0 17.57812,1.8311 7.99561,1.8311 14.16016,4.5166 l 0,14.2822 -0.85449,0 q -5.18799,-4.3945 -13.67188,-7.2632 -8.42285,-2.9296 -17.27295,-2.9296 -9.70459,0 -15.625,4.0283 -5.85937,4.0283 -5.85937,10.376 0,5.6762 2.92969,8.9111 2.92968,3.2349 10.31494,4.9438 3.90625,0.8545 11.1084,2.0752 7.20214,1.2207 12.20703,2.5025 10.13183,2.6855 15.25879,8.1176 5.12695,5.4322 5.12695,15.1978 z" />
      <path
         inkscape:connector-curvature="0"
         id="path5447"
         style="font-size:125px;text-align:center;text-anchor:middle;fill:#b8b8b8;fill-opacity:1"
         d="m 297.68945,1691.2904 q 5.5542,6.1035 8.48389,14.9536 2.99072,8.8501 2.99072,20.0806 0,11.2305 -3.05176,20.1416 -2.99072,8.8501 -8.42285,14.7705 -5.61523,6.1645 -13.30566,9.2773 -7.6294,3.1128 -17.45606,3.1128 -9.58252,0 -17.45605,-3.1738 -7.8125,-3.1738 -13.30566,-9.2163 -5.49317,-6.0425 -8.48389,-14.8315 -2.92969,-8.7891 -2.92969,-20.0806 0,-11.1084 2.92969,-19.8975 2.92969,-8.8501 8.54492,-15.1367 5.37109,-5.9814 13.30566,-9.1553 7.99561,-3.1738 17.39502,-3.1738 9.76563,0 17.51709,3.2349 7.8125,3.1738 13.24463,9.0942 z m -1.09863,35.0342 q 0,-17.7002 -7.93457,-27.2827 -7.93457,-9.6436 -21.66748,-9.6436 -13.85498,0 -21.78955,9.6436 -7.87354,9.5825 -7.87354,27.2827 0,17.8833 8.05664,27.4048 8.05664,9.4604 21.60645,9.4604 13.5498,0 21.54541,-9.4604 8.05664,-9.5215 8.05664,-27.4048 z" />
      <path
         inkscape:connector-curvature="0"
         id="path5449"
         style="font-size:125px;text-align:center;text-anchor:middle;fill:#b8b8b8;fill-opacity:1"
         d="m 385.82422,1771.7347 -57.49512,0 0,-90.8813 12.08496,0 0,80.1392 45.41016,0 0,10.7421 z" />
      <path
         inkscape:connector-curvature="0"
         id="path5451"
         style="font-size:125px;text-align:center;text-anchor:middle;fill:#b8b8b8;fill-opacity:1"
         d="m 466.32959,1735.2357 q 0,9.8877 -2.19727,17.273 -2.13623,7.3242 -7.08007,12.207 -4.69971,4.6387 -10.98633,6.7749 -6.28662,2.1362 -14.64844,2.1362 -8.54492,0 -14.89258,-2.2583 -6.34765,-2.2583 -10.68115,-6.6528 -4.94385,-5.0049 -7.14111,-12.085 -2.13623,-7.08 -2.13623,-17.395 l 0,-54.3823 12.08496,0 0,54.9927 q 0,7.3852 0.97656,11.6577 1.0376,4.2724 3.41797,7.7515 2.68555,3.9672 7.26318,5.9814 4.63867,2.0142 11.1084,2.0142 6.53076,0 11.1084,-1.9532 4.57764,-2.0141 7.32422,-6.0424 2.38037,-3.4791 3.35693,-7.9346 1.0376,-4.5166 1.0376,-11.1695 l 0,-55.2978 12.08496,0 0,54.3823 z" />
      <path
         inkscape:connector-curvature="0"
         id="path5453"
         style="font-size:125px;text-align:center;text-anchor:middle;fill:#b8b8b8;fill-opacity:1"
         d="m 559.65234,1765.1429 q -3.35693,1.4649 -6.10351,2.7466 -2.68555,1.2818 -7.08008,2.6856 -3.72314,1.1596 -8.11768,1.9531 -4.33349,0.8545 -9.58252,0.8545 -9.88769,0 -18.00537,-2.7466 -8.05664,-2.8076 -14.03808,-8.728 -5.85938,-5.7984 -9.15528,-14.7095 -3.29589,-8.9722 -3.29589,-20.813 0,-11.2304 3.17382,-20.0805 3.17383,-8.8501 9.15528,-14.9537 5.79834,-5.9204 13.97705,-9.0332 8.23974,-3.1128 18.24951,-3.1128 7.32422,0 14.5874,1.7701 7.32422,1.77 16.23535,6.2256 l 0,14.3432 -0.91552,0 q -7.50733,-6.2866 -14.89258,-9.1553 -7.38526,-2.8686 -15.80811,-2.8686 -6.89697,0 -12.45117,2.2583 -5.49316,2.1973 -9.82666,6.897 -4.21143,4.5776 -6.5918,11.5966 -2.31933,6.958 -2.31933,16.1133 0,9.5825 2.56347,16.4795 2.62452,6.897 6.71387,11.2305 4.27246,4.5166 9.94873,6.7139 5.73731,2.1362 12.08496,2.1362 8.72803,0 16.35742,-2.9907 7.6294,-2.9908 14.28223,-8.9722 l 0.85449,0 0,14.1601 z" />
      <path
         inkscape:connector-curvature="0"
         id="path5455"
         style="font-size:125px;text-align:center;text-anchor:middle;fill:#b8b8b8;fill-opacity:1"
         d="m 608.90771,1771.7347 -35.88867,0 0,-9.2773 11.90186,0 0,-72.3267 -11.90186,0 0,-9.2773 35.88867,0 0,9.2773 -11.90185,0 0,72.3267 11.90185,0 0,9.2773 z" />
      <path
         inkscape:connector-curvature="0"
         id="path5457"
         style="font-size:125px;text-align:center;text-anchor:middle;fill:#b8b8b8;fill-opacity:1"
         d="m 697.34766,1691.2904 q 5.5542,6.1035 8.48388,14.9536 2.99073,8.8501 2.99073,20.0806 0,11.2305 -3.05176,20.1416 -2.99072,8.8501 -8.42285,14.7705 -5.61524,6.1645 -13.30567,9.2773 -7.62939,3.1128 -17.45605,3.1128 -9.58252,0 -17.45606,-3.1738 -7.8125,-3.1738 -13.30566,-9.2163 -5.49317,-6.0425 -8.48389,-14.8315 -2.92969,-8.7891 -2.92969,-20.0806 0,-11.1084 2.92969,-19.8975 2.92969,-8.8501 8.54492,-15.1367 5.3711,-5.9814 13.30567,-9.1553 7.9956,-3.1738 17.39502,-3.1738 9.76562,0 17.51709,3.2349 7.8125,3.1738 13.24463,9.0942 z m -1.09864,35.0342 q 0,-17.7002 -7.93457,-27.2827 -7.93457,-9.6436 -21.66748,-9.6436 -13.85498,0 -21.78955,9.6436 -7.87353,9.5825 -7.87353,27.2827 0,17.8833 8.05664,27.4048 8.05664,9.4604 21.60644,9.4604 13.54981,0 21.54541,-9.4604 8.05664,-9.5215 8.05664,-27.4048 z" />
      <path
         inkscape:connector-curvature="0"
         id="path5459"
         style="font-size:125px;text-align:center;text-anchor:middle;fill:#b8b8b8;fill-opacity:1"
         d="m 797.32324,1771.7347 -14.95361,0 -43.09082,-81.2988 0,81.2988 -11.29151,0 0,-90.8813 18.7378,0 39.30664,74.2187 0,-74.2187 11.2915,0 0,90.8813 z" />
      <path
         inkscape:connector-curvature="0"
         id="path5461"
         style="font-size:125px;text-align:center;text-anchor:middle;fill:#b8b8b8;fill-opacity:1"
         d="m 881.36865,1771.7347 -59.87549,0 0,-90.8813 59.87549,0 0,10.7422 -47.79053,0 0,24.9023 47.79053,0 0,10.7422 -47.79053,0 0,33.7525 47.79053,0 0,10.7421 z" />
      <path
         inkscape:connector-curvature="0"
         id="path5463"
         style="font-size:125px;text-align:center;text-anchor:middle;fill:#b8b8b8;fill-opacity:1"
         d="m 966.63477,1745.7948 q 0,5.3101 -2.50245,10.498 -2.4414,5.188 -6.89697,8.7891 -4.88281,3.9063 -11.41357,6.1035 -6.46973,2.1973 -15.625,2.1973 -9.82666,0 -17.7002,-1.8311 -7.8125,-1.831 -15.93017,-5.4321 l 0,-15.1367 0.85449,0 q 6.89697,5.7373 15.93017,8.8501 9.03321,3.1128 16.96778,3.1128 11.23047,0 17.45605,-4.2114 6.28662,-4.2115 6.28662,-11.2305 0,-6.0425 -2.99072,-8.9111 -2.92969,-2.8687 -8.97217,-4.4556 -4.57763,-1.2207 -9.94873,-2.0142 -5.31006,-0.7934 -11.2915,-2.0141 -12.08496,-2.5635 -17.94434,-8.7281 -5.79834,-6.2255 -5.79834,-16.1743 0,-11.4136 9.64356,-18.6767 9.64355,-7.3243 24.47509,-7.3243 9.58252,0 17.57813,1.8311 7.99561,1.8311 14.16016,4.5166 l 0,14.2822 -0.8545,0 q -5.18798,-4.3945 -13.67187,-7.2632 -8.42285,-2.9296 -17.27295,-2.9296 -9.70459,0 -15.625,4.0283 -5.85938,4.0283 -5.85938,10.376 0,5.6762 2.92969,8.9111 2.92969,3.2349 10.31494,4.9438 3.90625,0.8545 11.1084,2.0752 7.20215,1.2207 12.20703,2.5025 10.13184,2.6855 15.25879,8.1176 5.12696,5.4322 5.12696,15.1978 z" />
      <path
         inkscape:connector-curvature="0"
         id="path5465"
         style="font-size:125px;text-align:center;text-anchor:middle;fill:#b8b8b8;fill-opacity:1"
         d="m 1096.0293,1745.7948 q 0,5.3101 -2.5024,10.498 -2.4415,5.188 -6.897,8.7891 -4.8828,3.9063 -11.4136,6.1035 -6.4697,2.1973 -15.625,2.1973 -9.8267,0 -17.7002,-1.8311 -7.8125,-1.831 -15.9302,-5.4321 l 0,-15.1367 0.8545,0 q 6.897,5.7373 15.9302,8.8501 9.0332,3.1128 16.9678,3.1128 11.2304,0 17.456,-4.2114 6.2867,-4.2115 6.2867,-11.2305 0,-6.0425 -2.9908,-8.9111 -2.9297,-2.8687 -8.9721,-4.4556 -4.5777,-1.2207 -9.9488,-2.0142 -5.31,-0.7934 -11.2915,-2.0141 -12.0849,-2.5635 -17.9443,-8.7281 -5.7983,-6.2255 -5.7983,-16.1743 0,-11.4136 9.6435,-18.6767 9.6436,-7.3243 24.4751,-7.3243 9.5825,0 17.5781,1.8311 7.9956,1.8311 14.1602,4.5166 l 0,14.2822 -0.8545,0 q -5.188,-4.3945 -13.6719,-7.2632 -8.4228,-2.9296 -17.2729,-2.9296 -9.7046,0 -15.625,4.0283 -5.8594,4.0283 -5.8594,10.376 0,5.6762 2.9297,8.9111 2.9297,3.2349 10.3149,4.9438 3.9063,0.8545 11.1084,2.0752 7.2022,1.2207 12.2071,2.5025 10.1318,2.6855 15.2587,8.1176 5.127,5.4322 5.127,15.1978 z" />
      <path
         inkscape:connector-curvature="0"
         id="path5467"
         style="font-size:125px;text-align:center;text-anchor:middle;fill:#b8b8b8;fill-opacity:1"
         d="m 1183.1875,1691.2904 q 5.5542,6.1035 8.4839,14.9536 2.9907,8.8501 2.9907,20.0806 0,11.2305 -3.0517,20.1416 -2.9908,8.8501 -8.4229,14.7705 -5.6152,6.1645 -13.3057,9.2773 -7.6294,3.1128 -17.456,3.1128 -9.5825,0 -17.4561,-3.1738 -7.8125,-3.1738 -13.3056,-9.2163 -5.4932,-6.0425 -8.4839,-14.8315 -2.9297,-8.7891 -2.9297,-20.0806 0,-11.1084 2.9297,-19.8975 2.9297,-8.8501 8.5449,-15.1367 5.3711,-5.9814 13.3057,-9.1553 7.9956,-3.1738 17.395,-3.1738 9.7656,0 17.5171,3.2349 7.8125,3.1738 13.2446,9.0942 z m -1.0986,35.0342 q 0,-17.7002 -7.9346,-27.2827 -7.9346,-9.6436 -21.6675,-9.6436 -13.855,0 -21.7895,9.6436 -7.8736,9.5825 -7.8736,27.2827 0,17.8833 8.0567,27.4048 8.0566,9.4604 21.6064,9.4604 13.5498,0 21.5454,-9.4604 8.0567,-9.5215 8.0567,-27.4048 z" />
      <path
         inkscape:connector-curvature="0"
         id="path5469"
         style="font-size:125px;text-align:center;text-anchor:middle;fill:#b8b8b8;fill-opacity:1"
         d="m 1284.0176,1765.1429 q -3.357,1.4649 -6.1035,2.7466 -2.6856,1.2818 -7.0801,2.6856 -3.7232,1.1596 -8.1177,1.9531 -4.3335,0.8545 -9.5825,0.8545 -9.8877,0 -18.0054,-2.7466 -8.0566,-2.8076 -14.0381,-8.728 -5.8593,-5.7984 -9.1552,-14.7095 -3.2959,-8.9722 -3.2959,-20.813 0,-11.2304 3.1738,-20.0805 3.1738,-8.8501 9.1553,-14.9537 5.7983,-5.9204 13.977,-9.0332 8.2398,-3.1128 18.2495,-3.1128 7.3242,0 14.5874,1.7701 7.3242,1.77 16.2354,6.2256 l 0,14.3432 -0.9155,0 q -7.5074,-6.2866 -14.8926,-9.1553 -7.3853,-2.8686 -15.8081,-2.8686 -6.897,0 -12.4512,2.2583 -5.4932,2.1973 -9.8267,6.897 -4.2114,4.5776 -6.5918,11.5966 -2.3193,6.958 -2.3193,16.1133 0,9.5825 2.5635,16.4795 2.6245,6.897 6.7138,11.2305 4.2725,4.5166 9.9488,6.7139 5.7373,2.1362 12.0849,2.1362 8.7281,0 16.3575,-2.9907 7.6294,-2.9908 14.2822,-8.9722 l 0.8545,0 0,14.1601 z" />
      <path
         inkscape:connector-curvature="0"
         id="path5471"
         style="font-size:125px;text-align:center;text-anchor:middle;fill:#b8b8b8;fill-opacity:1"
         d="m 1333.2729,1771.7347 -35.8886,0 0,-9.2773 11.9018,0 0,-72.3267 -11.9018,0 0,-9.2773 35.8886,0 0,9.2773 -11.9018,0 0,72.3267 11.9018,0 0,9.2773 z" />
      <path
         inkscape:connector-curvature="0"
         id="path5473"
         style="font-size:125px;text-align:center;text-anchor:middle;fill:#b8b8b8;fill-opacity:1"
         d="m 1425.6191,1771.7347 -12.8784,0 -8.9111,-25.3295 -39.3067,0 -8.9111,25.3295 -12.268,0 33.081,-90.8813 16.1133,0 33.081,90.8813 z m -25.5127,-35.7055 -15.9301,-44.6167 -15.9912,44.6167 31.9213,0 z" />
      <path
         inkscape:connector-curvature="0"
         id="path5475"
         style="font-size:125px;text-align:center;text-anchor:middle;fill:#b8b8b8;fill-opacity:1"
         d="m 1496.9082,1771.7347 -57.4951,0 0,-90.8813 12.0849,0 0,80.1392 45.4102,0 0,10.7421 z" />
      <path
         inkscape:connector-curvature="0"
         id="path5477"
         style="font-size:125px;text-align:center;text-anchor:middle;fill:#b8b8b8;fill-opacity:1"
         d="m 1568.8687,1771.7347 -59.8755,0 0,-90.8813 59.8755,0 0,10.7422 -47.7906,0 0,24.9023 47.7906,0 0,10.7422 -47.7906,0 0,33.7525 47.7906,0 0,10.7421 z" />
      <path
         inkscape:connector-curvature="0"
         id="path5479"
         style="font-size:125px;text-align:center;text-anchor:middle;fill:#b8b8b8;fill-opacity:1"
         d="m 1654.1348,1745.7948 q 0,5.3101 -2.5025,10.498 -2.4414,5.188 -6.8969,8.7891 -4.8829,3.9063 -11.4136,6.1035 -6.4697,2.1973 -15.625,2.1973 -9.8267,0 -17.7002,-1.8311 -7.8125,-1.831 -15.9302,-5.4321 l 0,-15.1367 0.8545,0 q 6.897,5.7373 15.9302,8.8501 9.0332,3.1128 16.9677,3.1128 11.2305,0 17.4561,-4.2114 6.2866,-4.2115 6.2866,-11.2305 0,-6.0425 -2.9907,-8.9111 -2.9297,-2.8687 -8.9722,-4.4556 -4.5776,-1.2207 -9.9487,-2.0142 -5.3101,-0.7934 -11.2915,-2.0141 -12.085,-2.5635 -17.9443,-8.7281 -5.7984,-6.2255 -5.7984,-16.1743 0,-11.4136 9.6436,-18.6767 9.6435,-7.3243 24.4751,-7.3243 9.5825,0 17.5781,1.8311 7.9956,1.8311 14.1602,4.5166 l 0,14.2822 -0.8545,0 q -5.188,-4.3945 -13.6719,-7.2632 -8.4229,-2.9296 -17.273,-2.9296 -9.7045,0 -15.625,4.0283 -5.8593,4.0283 -5.8593,10.376 0,5.6762 2.9297,8.9111 2.9296,3.2349 10.3149,4.9438 3.9062,0.8545 11.1084,2.0752 7.2021,1.2207 12.207,2.5025 10.1319,2.6855 15.2588,8.1176 5.127,5.4322 5.127,15.1978 z" />
    </g>
    <rect
       style="opacity:1;fill:none;fill-opacity:1;stroke:#0056ca;stroke-width:9.95265865;stroke-miterlimit:4;stroke-dasharray:none;stroke-opacity:1"
       id="rect5186"
       width="2824.2664"
       height="2824.3989"
       x="5.1838403"
       y="-1777.1372" />
  </g>
</svg>
