<?xml version="1.0" encoding="UTF-8" standalone="no"?>
<!-- Created with Inkscape (http://www.inkscape.org/) -->

<svg
   xmlns:dc="http://purl.org/dc/elements/1.1/"
   xmlns:cc="http://creativecommons.org/ns#"
   xmlns:rdf="http://www.w3.org/1999/02/22-rdf-syntax-ns#"
   xmlns:svg="http://www.w3.org/2000/svg"
   xmlns="http://www.w3.org/2000/svg"
   xmlns:sodipodi="http://sodipodi.sourceforge.net/DTD/sodipodi-0.dtd"
   xmlns:inkscape="http://www.inkscape.org/namespaces/inkscape"
   width="800mm"
   height="800mm"
   viewBox="0 0 2834.6457 2834.6457"
   id="svg2"
   version="1.1"
   inkscape:version="0.91 r13725"
   sodipodi:docname="los_heroes.svg">
  <defs
     id="defs4">
    <clipPath
       id="clipPath4154"
       clipPathUnits="userSpaceOnUse">
      <path
         inkscape:connector-curvature="0"
         id="path4156"
         d="M 0,792 612,792 612,0 0,0 0,792 Z" />
    </clipPath>
    <clipPath
       id="clipPath4879"
       clipPathUnits="userSpaceOnUse">
      <path
         inkscape:connector-curvature="0"
         id="path4881"
         d="m 0,784.567 793.701,0 L 793.701,0 0,0 0,784.567 Z" />
    </clipPath>
    <clipPath
       id="clipPath5009"
       clipPathUnits="userSpaceOnUse">
      <path
         inkscape:connector-curvature="0"
         id="path5011"
         d="m -336.46,98.8652 672.92,0 0,-197.7314 -672.92,0 0,197.7314 z" />
    </clipPath>
    <clipPath
       id="clipPath9212"
       clipPathUnits="userSpaceOnUse">
      <path
         inkscape:connector-curvature="0"
         id="path9214"
         d="m 0,335 516.475,0 0,-335 L 0,0 0,335 Z" />
    </clipPath>
    <clipPath
       id="clipPath9340"
       clipPathUnits="userSpaceOnUse">
      <path
         inkscape:connector-curvature="0"
         id="path9342"
         d="m -336.46,98.8652 672.92,0 0,-197.7314 -672.92,0 0,197.7314 z" />
    </clipPath>
  </defs>
  <sodipodi:namedview
     id="base"
     pagecolor="#ffffff"
     bordercolor="#666666"
     borderopacity="1.0"
     inkscape:pageopacity="0.0"
     inkscape:pageshadow="2"
     inkscape:zoom="0.27709666"
     inkscape:cx="1376.0141"
     inkscape:cy="1392.5209"
     inkscape:document-units="px"
     inkscape:current-layer="layer1"
     showgrid="false"
     inkscape:window-width="1920"
     inkscape:window-height="1138"
     inkscape:window-x="1358"
     inkscape:window-y="-8"
     inkscape:window-maximized="1"
     showguides="true"
     inkscape:guide-bbox="true" />
  <metadata
     id="metadata7">
    <rdf:RDF>
      <cc:Work
         rdf:about="">
        <dc:format>image/svg+xml</dc:format>
        <dc:type
           rdf:resource="http://purl.org/dc/dcmitype/StillImage" />
        <dc:title />
      </cc:Work>
    </rdf:RDF>
  </metadata>
  <g
     inkscape:label="Capa 1"
     inkscape:groupmode="layer"
     id="layer1"
     transform="translate(0,1782.2835)">
    <flowRoot
       xml:space="preserve"
       id="flowRoot4823"
       style="fill:black;stroke:none;stroke-opacity:1;stroke-width:1px;stroke-linejoin:miter;stroke-linecap:butt;fill-opacity:1;font-family:sans-serif;font-style:normal;font-weight:normal;font-size:40px;line-height:125%;letter-spacing:0px;word-spacing:0px"><flowRegion
         id="flowRegion4825"><rect
           id="rect4827"
           width="1321.4423"
           height="148.09267"
           x="497.43948"
           y="2621.9998" /></flowRegion><flowPara
         id="flowPara4829" /></flowRoot>    <flowRoot
       xml:space="preserve"
       id="flowRoot8594"
       style="fill:black;stroke:none;stroke-opacity:1;stroke-width:1px;stroke-linejoin:miter;stroke-linecap:butt;fill-opacity:1;font-family:sans-serif;font-style:normal;font-weight:normal;font-size:40px;line-height:125%;letter-spacing:0px;word-spacing:0px"><flowRegion
         id="flowRegion8596"><rect
           id="rect8598"
           width="617.56378"
           height="118.14263"
           x="-177.21394"
           y="2533.9189" /></flowRegion><flowPara
         id="flowPara8600" /></flowRoot>    <g
       id="g11348"
       transform="matrix(1.1694838,0,0,1.1694838,622.38482,432.03769)">
      <g
         transform="matrix(6.6288113,0,0,-6.6288113,572.80544,-972.05048)"
         id="g9216">
        <path
           inkscape:connector-curvature="0"
           id="path9218"
           style="fill:#f36717;fill-opacity:1;fill-rule:nonzero;stroke:none"
           d="m 0,0 c 3.119,-6.109 10.603,-8.532 16.718,-5.406 6.104,3.125 8.527,10.615 5.404,16.719 C 18.989,17.423 11.51,19.849 5.394,16.726 -0.714,13.596 -3.134,6.112 0,0" />
      </g>
      <g
         transform="matrix(6.6288113,0,0,-6.6288113,935.7196,-1067.2813)"
         id="g9220">
        <path
           inkscape:connector-curvature="0"
           id="path9222"
           style="fill:#1673c3;fill-opacity:1;fill-rule:nonzero;stroke:none"
           d="m 0,0 c -7.212,15.593 -22.442,24.915 -38.521,25.359 -2.32,-0.019 -8.044,-0.548 -8.134,-0.567 -0.332,-0.014 -0.659,-0.157 -0.901,-0.43 -0.468,-0.526 -0.43,-1.34 0.093,-1.81 0.251,-0.22 0.551,-0.326 0.857,-0.326 0.104,-0.015 5.097,0.212 5.097,0.212 l 0.033,-0.922 -8.353,-0.468 c -0.359,0 -0.728,-0.17 -0.985,-0.463 -0.478,-0.523 -0.434,-1.338 0.098,-1.808 0.274,-0.25 0.682,-0.321 0.974,-0.324 0.141,-0.015 8.179,0.366 8.179,0.366 l 0.039,-0.907 -10.031,-0.577 c -0.384,0 -0.81,-0.137 -1.091,-0.447 -0.473,-0.528 -0.431,-1.343 0.091,-1.813 0.272,-0.236 0.613,-0.339 0.933,-0.326 0.362,0.009 10.189,0.511 10.189,0.511 l 0.059,-0.954 -9.03,-0.47 c -0.328,-0.013 -0.654,-0.151 -0.897,-0.424 -0.306,-0.334 -0.394,-0.789 -0.285,-1.197 0.129,-0.702 0.822,-1.021 1.535,-0.978 l 9.96,0.558 -0.01,-0.825 -3.875,-0.261 c -1.765,-0.26 -2.222,-1.237 -2.31,-2.792 0,0 3.373,0.941 8.336,0.61 0.353,-0.027 0.679,-0.048 0.99,-0.062 9.127,-0.959 17.562,-6.582 21.695,-15.514 6.23,-13.492 0.343,-29.479 -13.139,-35.709 -13.493,-6.235 -29.478,-0.347 -35.711,13.142 -4.298,9.295 -2.823,19.773 2.914,27.436 0.185,0.224 0.384,0.474 0.587,0.738 3.076,3.916 6.024,5.797 6.024,5.797 -1.209,0.976 -2.238,1.286 -3.617,0.138 l -2.784,-2.703 -0.593,0.575 7.047,7.011 c 0.508,0.492 0.731,1.228 0.299,1.789 -0.23,0.357 -0.631,0.59 -1.081,0.59 -0.362,0 -0.681,-0.14 -0.911,-0.383 l -6.396,-6.407 -0.668,0.692 c 0,0 6.94,6.961 7.187,7.229 0.236,0.231 0.383,0.562 0.383,0.912 0,0.71 -0.579,1.285 -1.279,1.285 -0.42,0 -0.803,-0.229 -1.062,-0.514 l -7.131,-7.071 -0.648,0.622 c 0,0 5.658,5.725 5.734,5.85 0.193,0.217 0.419,0.565 0.419,0.938 0,0.71 -0.58,1.285 -1.287,1.285 -0.389,0 -0.762,-0.166 -1.002,-0.426 l -5.939,-5.905 -0.659,0.644 c 0,0 3.509,3.563 3.567,3.656 0.203,0.222 0.321,0.517 0.321,0.84 0,0.712 -0.575,1.289 -1.277,1.289 -0.368,0 -0.694,-0.149 -0.919,-0.388 -0.084,-0.049 -5.004,-4.657 -6.265,-6.143 -0.165,-0.196 -0.324,-0.377 -0.467,-0.544 l -0.004,0.005 C -83.789,-3.323 -86.609,-21.026 -79.381,-36.672 -69.25,-58.59 -43.271,-68.146 -21.354,-58.025 0.561,-47.896 10.12,-21.913 0,0" />
      </g>
      <g
         transform="matrix(6.6288113,0,0,-6.6288113,-368.74495,-562.82811)"
         id="g9224">
        <path
           inkscape:connector-curvature="0"
           id="path9226"
           style="fill:#231f20;fill-opacity:1;fill-rule:nonzero;stroke:none"
           d="m 0,0 5.539,0 0,-33.653 17.423,0 0,-5.041 L 0,-38.694 0,0 Z" />
      </g>
      <g
         transform="matrix(6.6288113,0,0,-6.6288113,-57.074154,-531.61967)"
         id="g9228">
        <path
           inkscape:connector-curvature="0"
           id="path9230"
           style="fill:#231f20;fill-opacity:1;fill-rule:nonzero;stroke:none"
           d="m 0,0 c -4.428,0 -8.067,-1.386 -10.917,-4.155 -2.85,-2.77 -4.275,-6.307 -4.275,-10.61 0,-4.172 1.429,-7.643 4.289,-10.414 2.86,-2.769 6.438,-4.154 10.737,-4.154 4.316,0 7.919,1.412 10.806,4.237 2.887,2.825 4.331,6.343 4.331,10.554 0,4.1 -1.444,7.547 -4.331,10.345 C 7.753,-1.401 4.206,0 0,0 m -0.222,5.262 c 5.979,0 10.956,-1.892 14.934,-5.679 3.976,-3.785 5.965,-8.529 5.965,-14.236 0,-5.705 -2.006,-10.427 -6.021,-14.167 -4.013,-3.739 -9.075,-5.609 -15.182,-5.609 -5.831,0 -10.689,1.87 -14.574,5.609 -3.883,3.74 -5.826,8.424 -5.826,14.055 0,5.781 1.955,10.563 5.868,14.348 3.912,3.787 8.857,5.679 14.836,5.679" />
      </g>
      <g
         transform="matrix(6.6288113,0,0,-6.6288113,188.67709,-413.79652)"
         id="g9232">
        <path
           inkscape:connector-curvature="0"
           id="path9234"
           style="fill:#231f20;fill-opacity:1;fill-rule:nonzero;stroke:none"
           d="m 0,0 -4.21,2.559 c -2.641,1.612 -4.519,3.198 -5.636,4.757 -1.117,1.563 -1.676,3.358 -1.676,5.389 0,3.046 1.056,5.521 3.171,7.423 2.115,1.901 4.861,2.853 8.24,2.853 3.231,0 6.196,-0.906 8.892,-2.722 l 0,-6.286 c -2.789,2.681 -5.79,4.022 -9.003,4.022 -1.81,0 -3.296,-0.419 -4.46,-1.256 -1.163,-0.837 -1.744,-1.907 -1.744,-3.214 0,-1.158 0.429,-2.244 1.286,-3.254 0.857,-1.011 2.234,-2.074 4.133,-3.187 L 3.225,4.58 c 4.718,-2.818 7.079,-6.407 7.079,-10.765 0,-3.102 -1.039,-5.623 -3.116,-7.562 -2.078,-1.939 -4.779,-2.907 -8.102,-2.907 -3.822,0 -7.303,1.174 -10.441,3.524 l 0,7.035 c 2.99,-3.79 6.453,-5.685 10.385,-5.685 1.735,0 3.181,0.483 4.335,1.448 1.154,0.967 1.732,2.177 1.732,3.631 C 5.097,-4.347 3.396,-2.112 0,0" />
      </g>
      <g
         transform="matrix(6.6288113,0,0,-6.6288113,582.69695,-562.82811)"
         id="g9236">
        <path
           inkscape:connector-curvature="0"
           id="path9238"
           style="fill:#231f20;fill-opacity:1;fill-rule:nonzero;stroke:none"
           d="m 0,0 5.539,0 0,-38.694 -5.539,0 0,16.84 -21.744,0 0,-16.84 -5.539,0 0,38.694 5.539,0 0,-16.73 L 0,-16.73 0,0 Z" />
      </g>
      <g
         transform="matrix(6.6288113,0,0,-6.6288113,675.95969,-562.82811)"
         id="g9240">
        <path
           inkscape:connector-curvature="0"
           id="path9242"
           style="fill:#231f20;fill-opacity:1;fill-rule:nonzero;stroke:none"
           d="m 0,0 21.937,0 0,-4.93 -16.398,0 0,-11.8 15.844,0 0,-4.958 -15.844,0 0,-12.021 16.923,0 0,-4.93 L 0,-38.639 0,0 Z" />
      </g>
      <g
         transform="matrix(6.6288113,0,0,-6.6288113,912.8038,-531.61967)"
         id="g9244">
        <path
           inkscape:connector-curvature="0"
           id="path9246"
           style="fill:#231f20;fill-opacity:1;fill-rule:nonzero;stroke:none"
           d="m 0,0 -1.661,0 0,-12.216 2.104,0 c 2.807,0 4.732,0.24 5.776,0.721 1.043,0.48 1.855,1.205 2.436,2.174 0.582,0.968 0.873,2.072 0.873,3.31 0,1.219 -0.324,2.322 -0.969,3.309 C 7.913,-1.714 7.003,-1.017 5.83,-0.61 4.658,-0.204 2.715,0 0,0 m -7.202,-33.986 0,38.694 9.695,0 c 3.914,0 7.022,-0.969 9.32,-2.908 2.299,-1.939 3.449,-4.563 3.449,-7.867 0,-2.252 -0.563,-4.202 -1.69,-5.844 -1.126,-1.643 -2.742,-2.871 -4.848,-3.684 1.238,-0.814 2.448,-1.92 3.63,-3.324 1.181,-1.402 2.844,-3.85 4.986,-7.34 1.348,-2.198 2.429,-3.85 3.239,-4.957 l 2.051,-2.77 -6.593,0 -1.687,2.548 c -0.056,0.094 -0.166,0.25 -0.33,0.474 l -1.081,1.523 -1.714,2.826 -1.854,3.021 c -1.144,1.589 -2.191,2.853 -3.143,3.794 -0.953,0.939 -1.812,1.617 -2.579,2.033 -0.767,0.413 -2.056,0.621 -3.868,0.621 l -1.442,0 0,-16.84 -5.541,0 z" />
      </g>
      <g
         transform="matrix(6.6288113,0,0,-6.6288113,1195.8361,-531.61967)"
         id="g9248">
        <path
           inkscape:connector-curvature="0"
           id="path9250"
           style="fill:#231f20;fill-opacity:1;fill-rule:nonzero;stroke:none"
           d="m 0,0 c -4.428,0 -8.067,-1.386 -10.916,-4.155 -2.852,-2.77 -4.276,-6.307 -4.276,-10.61 0,-4.172 1.429,-7.643 4.289,-10.414 2.86,-2.769 6.438,-4.154 10.737,-4.154 4.316,0 7.919,1.412 10.806,4.237 2.887,2.825 4.331,6.343 4.331,10.554 0,4.1 -1.444,7.547 -4.331,10.345 C 7.753,-1.401 4.206,0 0,0 m -0.223,5.262 c 5.98,0 10.957,-1.892 14.934,-5.679 3.977,-3.785 5.965,-8.529 5.965,-14.236 0,-5.705 -2.005,-10.427 -6.02,-14.167 -4.013,-3.739 -9.074,-5.609 -15.182,-5.609 -5.831,0 -10.69,1.87 -14.575,5.609 -3.882,3.74 -5.825,8.424 -5.825,14.055 0,5.781 1.955,10.563 5.868,14.348 3.912,3.787 8.857,5.679 14.835,5.679" />
      </g>
      <g
         transform="matrix(6.6288113,0,0,-6.6288113,1378.0569,-562.82811)"
         id="g9252">
        <path
           inkscape:connector-curvature="0"
           id="path9254"
           style="fill:#231f20;fill-opacity:1;fill-rule:nonzero;stroke:none"
           d="m 0,0 21.938,0 0,-4.93 -16.399,0 0,-11.8 15.844,0 0,-4.958 -15.844,0 0,-12.021 16.924,0 0,-4.93 L 0,-38.639 0,0 Z" />
      </g>
      <g
         transform="matrix(6.6288113,0,0,-6.6288113,1629.5891,-413.79652)"
         id="g9256">
        <path
           inkscape:connector-curvature="0"
           id="path9258"
           style="fill:#231f20;fill-opacity:1;fill-rule:nonzero;stroke:none"
           d="m 0,0 -4.211,2.559 c -2.641,1.612 -4.518,3.198 -5.635,4.757 -1.117,1.563 -1.677,3.358 -1.677,5.389 0,3.046 1.058,5.521 3.173,7.423 2.114,1.901 4.86,2.853 8.239,2.853 3.23,0 6.195,-0.906 8.892,-2.722 l 0,-6.286 c -2.789,2.681 -5.789,4.022 -9.002,4.022 -1.81,0 -3.297,-0.419 -4.461,-1.256 -1.162,-0.837 -1.744,-1.907 -1.744,-3.214 0,-1.158 0.428,-2.244 1.285,-3.254 0.856,-1.011 2.235,-2.074 4.133,-3.187 L 3.225,4.58 c 4.718,-2.818 7.08,-6.407 7.08,-10.765 0,-3.102 -1.039,-5.623 -3.117,-7.562 -2.079,-1.939 -4.778,-2.907 -8.102,-2.907 -3.822,0 -7.303,1.174 -10.441,3.524 l 0,7.035 c 2.99,-3.79 6.453,-5.685 10.386,-5.685 1.735,0 3.18,0.483 4.334,1.448 1.155,0.967 1.731,2.177 1.731,3.631 0,2.354 -1.7,4.589 -5.096,6.701" />
      </g>
      <g
         transform="matrix(6.6288113,0,0,-6.6288113,-305.0202,-192.11979)"
         id="g9260">
        <path
           inkscape:connector-curvature="0"
           id="path9262"
           style="fill:#231f20;fill-opacity:1;fill-rule:nonzero;stroke:none"
           d="m 0,0 0,-1.652 c -1.101,-0.6 -2.373,-0.902 -3.813,-0.902 -1.171,0 -2.165,0.237 -2.98,0.706 -0.817,0.472 -1.463,1.119 -1.936,1.945 -0.476,0.826 -0.714,1.718 -0.714,2.679 0,1.528 0.544,2.81 1.632,3.852 1.089,1.04 2.431,1.56 4.028,1.56 1.101,0 2.325,-0.288 3.671,-0.862 l 0,-1.614 c -1.228,0.7 -2.425,1.051 -3.596,1.051 -1.202,0 -2.199,-0.379 -2.991,-1.137 -0.794,-0.759 -1.191,-1.708 -1.191,-2.85 0,-1.151 0.392,-2.097 1.171,-2.837 0.781,-0.74 1.779,-1.111 2.995,-1.111 1.272,0 2.512,0.39 3.724,1.172" />
      </g>
      <g
         transform="matrix(6.6288113,0,0,-6.6288113,-208.58492,-205.44834)"
         id="g9264">
        <path
           inkscape:connector-curvature="0"
           id="path9266"
           style="fill:#231f20;fill-opacity:1;fill-rule:nonzero;stroke:none"
           d="M 0,0 -1.691,3.799 -3.261,0 0,0 Z m -2.206,6.104 1.056,0 4.702,-10.547 -1.537,0 -1.397,3.107 -4.475,0 -1.31,-3.107 -1.543,0 4.504,10.547 z" />
      </g>
      <g
         transform="matrix(6.6288113,0,0,-6.6288113,-132.49611,-245.50625)"
         id="g9268">
        <path
           inkscape:connector-curvature="0"
           id="path9270"
           style="fill:#231f20;fill-opacity:1;fill-rule:nonzero;stroke:none"
           d="m 0,0 1.502,0 0,-10.352 c 0,-0.966 -0.099,-1.68 -0.296,-2.143 -0.197,-0.462 -0.517,-0.833 -0.958,-1.11 -0.44,-0.279 -0.971,-0.416 -1.59,-0.416 -0.096,0 -0.259,0.013 -0.489,0.043 l -0.277,1.397 0.382,0 c 0.43,0 0.759,0.052 0.987,0.158 0.227,0.105 0.409,0.29 0.541,0.556 0.132,0.264 0.198,0.828 0.198,1.688 L 0,0 Z" />
      </g>
      <g
         transform="matrix(6.6288113,0,0,-6.6288113,-25.464004,-205.44834)"
         id="g9272">
        <path
           inkscape:connector-curvature="0"
           id="path9274"
           style="fill:#231f20;fill-opacity:1;fill-rule:nonzero;stroke:none"
           d="M 0,0 -1.691,3.799 -3.262,0 0,0 Z m -2.206,6.104 1.056,0 4.701,-10.547 -1.536,0 -1.398,3.107 -4.474,0 -1.311,-3.107 -1.542,0 4.504,10.547 z" />
      </g>
      <g
         transform="matrix(6.6288113,0,0,-6.6288113,146.17249,-236.65082)"
         id="g9276">
        <path
           inkscape:connector-curvature="0"
           id="path9278"
           style="fill:#231f20;fill-opacity:1;fill-rule:nonzero;stroke:none"
           d="m 0,0 -1.877,0 0,-7.8 1.922,0 c 0.751,0 1.334,0.052 1.749,0.154 0.415,0.103 0.762,0.233 1.04,0.391 0.276,0.158 0.531,0.351 0.762,0.582 0.74,0.75 1.111,1.698 1.111,2.845 0,1.126 -0.381,2.044 -1.142,2.755 -0.28,0.264 -0.6,0.481 -0.964,0.653 C 2.238,-0.251 1.894,-0.138 1.569,-0.083 1.243,-0.028 0.722,0 0,0 m -3.378,-9.137 0,10.473 3.535,0 c 1.427,0 2.555,-0.214 3.387,-0.643 0.829,-0.426 1.49,-1.057 1.98,-1.885 0.492,-0.832 0.737,-1.739 0.737,-2.719 0,-0.701 -0.136,-1.371 -0.406,-2.012 C 5.585,-6.564 5.199,-7.127 4.699,-7.611 4.189,-8.112 3.596,-8.489 2.92,-8.745 2.524,-8.9 2.163,-9.003 1.831,-9.057 1.501,-9.11 0.871,-9.137 -0.06,-9.137 l -3.318,0 z" />
      </g>
      <g
         transform="matrix(6.6288113,0,0,-6.6288113,244.95106,-245.50625)"
         id="g9280">
        <path
           inkscape:connector-curvature="0"
           id="path9282"
           style="fill:#231f20;fill-opacity:1;fill-rule:nonzero;stroke:none"
           d="m 0,0 5.946,0 0,-1.336 -4.444,0 0,-3.197 4.293,0 0,-1.346 -4.293,0 0,-3.257 4.585,0 0,-1.337 -6.087,0 L 0,0 Z" />
      </g>
      <g
         transform="matrix(6.6288113,0,0,-6.6288113,473.81342,-192.11979)"
         id="g9284">
        <path
           inkscape:connector-curvature="0"
           id="path9286"
           style="fill:#231f20;fill-opacity:1;fill-rule:nonzero;stroke:none"
           d="m 0,0 0,-1.652 c -1.101,-0.6 -2.373,-0.902 -3.814,-0.902 -1.17,0 -2.164,0.237 -2.979,0.706 -0.816,0.472 -1.462,1.119 -1.936,1.945 -0.476,0.826 -0.714,1.718 -0.714,2.679 0,1.528 0.545,2.81 1.632,3.852 1.089,1.04 2.431,1.56 4.027,1.56 1.102,0 2.326,-0.288 3.672,-0.862 l 0,-1.614 c -1.228,0.7 -2.425,1.051 -3.596,1.051 -1.202,0 -2.199,-0.379 -2.991,-1.137 -0.794,-0.759 -1.19,-1.708 -1.19,-2.85 0,-1.151 0.39,-2.097 1.17,-2.837 0.781,-0.74 1.78,-1.111 2.995,-1.111 1.272,0 2.513,0.39 3.724,1.172" />
      </g>
      <g
         transform="matrix(6.6288113,0,0,-6.6288113,565.3931,-237.05186)"
         id="g9288">
        <path
           inkscape:connector-curvature="0"
           id="path9290"
           style="fill:#231f20;fill-opacity:1;fill-rule:nonzero;stroke:none"
           d="m 0,0 c -1.2,0 -2.187,-0.376 -2.958,-1.127 -0.772,-0.75 -1.159,-1.709 -1.159,-2.875 0,-1.131 0.388,-2.07 1.162,-2.822 0.776,-0.75 1.745,-1.126 2.909,-1.126 1.171,0 2.148,0.384 2.93,1.149 0.781,0.765 1.174,1.718 1.174,2.86 0,1.11 -0.393,2.045 -1.174,2.802 C 2.102,-0.38 1.14,0 0,0 m -0.06,1.426 c 1.62,0 2.969,-0.513 4.047,-1.539 1.077,-1.027 1.617,-2.312 1.617,-3.859 0,-1.546 -0.543,-2.826 -1.632,-3.839 -1.087,-1.015 -2.459,-1.521 -4.114,-1.521 -1.581,0 -2.896,0.506 -3.949,1.521 -1.054,1.013 -1.58,2.284 -1.58,3.809 0,1.567 0.53,2.862 1.591,3.889 1.059,1.026 2.399,1.539 4.02,1.539" />
      </g>
      <g
         transform="matrix(6.6288113,0,0,-6.6288113,714.89732,-245.50625)"
         id="g9292">
        <path
           inkscape:connector-curvature="0"
           id="path9294"
           style="fill:#231f20;fill-opacity:1;fill-rule:nonzero;stroke:none"
           d="m 0,0 1.404,0 0,-10.486 -1.508,0 0,8.159 -3.223,-4.054 -0.279,0 -3.26,4.054 0,-8.159 -1.502,0 0,10.486 1.42,0 3.485,-4.307 L 0,0 Z" />
      </g>
      <g
         transform="matrix(6.6288113,0,0,-6.6288113,803.78438,-236.7476)"
         id="g9296">
        <path
           inkscape:connector-curvature="0"
           id="path9298"
           style="fill:#231f20;fill-opacity:1;fill-rule:nonzero;stroke:none"
           d="m 0,0 -1.555,0 0,-3.279 1.644,0 c 0.611,0 1.082,0.142 1.412,0.43 0.332,0.288 0.495,0.7 0.495,1.236 C 1.996,-0.539 1.331,0 0,0 m -3.063,-9.165 0,10.502 3.326,0 c 1.001,0 1.799,-0.271 2.394,-0.812 0.596,-0.54 0.894,-1.265 0.894,-2.176 0,-0.611 -0.154,-1.151 -0.458,-1.622 C 2.787,-3.742 2.368,-4.085 1.84,-4.298 1.308,-4.51 0.549,-4.615 -0.442,-4.615 l -1.113,0 0,-4.55 -1.508,0 z" />
      </g>
      <g
         transform="matrix(6.6288113,0,0,-6.6288113,880.80586,-245.50625)"
         id="g9300">
        <path
           inkscape:connector-curvature="0"
           id="path9302"
           style="fill:#231f20;fill-opacity:1;fill-rule:nonzero;stroke:none"
           d="m 0,0 5.946,0 0,-1.336 -4.444,0 0,-3.197 4.294,0 0,-1.346 -4.294,0 0,-3.257 4.587,0 0,-1.337 -6.089,0 L 0,0 Z" />
      </g>
      <g
         transform="matrix(6.6288113,0,0,-6.6288113,1031.844,-245.50625)"
         id="g9304">
        <path
           inkscape:connector-curvature="0"
           id="path9306"
           style="fill:#231f20;fill-opacity:1;fill-rule:nonzero;stroke:none"
           d="m 0,0 1.427,0 0,-10.486 -1.293,0 -7.011,8.077 0,-8.077 -1.411,0 0,10.486 1.217,0 L 0,-8.145 0,0 Z" />
      </g>
      <g
         transform="matrix(6.6288113,0,0,-6.6288113,1118.232,-205.12486)"
         id="g9308">
        <path
           inkscape:connector-curvature="0"
           id="path9310"
           style="fill:#231f20;fill-opacity:1;fill-rule:nonzero;stroke:none"
           d="m 0,0 -1.142,0.692 c -0.715,0.437 -1.225,0.868 -1.527,1.289 -0.305,0.423 -0.454,0.911 -0.454,1.461 0,0.825 0.285,1.496 0.858,2.011 0.574,0.516 1.318,0.774 2.235,0.774 0.875,0 1.678,-0.246 2.409,-0.738 l 0,-1.704 C 1.623,4.513 0.81,4.876 -0.062,4.876 c -0.49,0 -0.893,-0.114 -1.209,-0.34 -0.315,-0.228 -0.471,-0.518 -0.471,-0.871 0,-0.313 0.115,-0.609 0.348,-0.884 0.232,-0.273 0.606,-0.56 1.12,-0.862 l 1.146,-0.68 c 1.279,-0.762 1.92,-1.735 1.92,-2.916 0,-0.843 -0.281,-1.524 -0.846,-2.05 -0.561,-0.526 -1.294,-0.789 -2.194,-0.789 -1.036,0 -1.981,0.321 -2.83,0.955 l 0,1.908 c 0.81,-1.027 1.748,-1.541 2.815,-1.541 0.468,0 0.862,0.131 1.174,0.392 0.313,0.263 0.471,0.591 0.471,0.984 C 1.382,-1.18 0.919,-0.574 0,0" />
      </g>
      <g
         transform="matrix(6.6288113,0,0,-6.6288113,1229.3428,-205.44834)"
         id="g9312">
        <path
           inkscape:connector-curvature="0"
           id="path9314"
           style="fill:#231f20;fill-opacity:1;fill-rule:nonzero;stroke:none"
           d="M 0,0 -1.692,3.799 -3.263,0 0,0 Z m -2.206,6.104 1.056,0 4.7,-10.547 -1.536,0 -1.397,3.107 -4.474,0 -1.312,-3.107 -1.542,0 4.505,10.547 z" />
      </g>
      <g
         transform="matrix(6.6288113,0,0,-6.6288113,1361.1613,-192.11979)"
         id="g9316">
        <path
           inkscape:connector-curvature="0"
           id="path9318"
           style="fill:#231f20;fill-opacity:1;fill-rule:nonzero;stroke:none"
           d="m 0,0 0,-1.652 c -1.102,-0.6 -2.372,-0.902 -3.813,-0.902 -1.171,0 -2.166,0.237 -2.981,0.706 -0.815,0.472 -1.462,1.119 -1.935,1.945 -0.476,0.826 -0.714,1.718 -0.714,2.679 0,1.528 0.544,2.81 1.632,3.852 1.089,1.04 2.432,1.56 4.028,1.56 1.101,0 2.325,-0.288 3.672,-0.862 l 0,-1.614 c -1.228,0.7 -2.426,1.051 -3.597,1.051 -1.203,0 -2.198,-0.379 -2.991,-1.137 -0.793,-0.759 -1.19,-1.708 -1.19,-2.85 0,-1.151 0.39,-2.097 1.17,-2.837 0.781,-0.74 1.78,-1.111 2.995,-1.111 1.272,0 2.512,0.39 3.724,1.172" />
      </g>
      <path
         inkscape:connector-curvature="0"
         id="path9320"
         style="fill:#231f20;fill-opacity:1;fill-rule:nonzero;stroke:none"
         d="m 1418.3368,-245.50492 9.9565,0 0,69.50971 -9.9565,0 0,-69.50971 z" />
      <g
         transform="matrix(6.6288113,0,0,-6.6288113,1523.0754,-237.05186)"
         id="g9322">
        <path
           inkscape:connector-curvature="0"
           id="path9324"
           style="fill:#231f20;fill-opacity:1;fill-rule:nonzero;stroke:none"
           d="m 0,0 c -1.203,0 -2.188,-0.376 -2.959,-1.127 -0.771,-0.75 -1.16,-1.709 -1.16,-2.875 0,-1.131 0.389,-2.07 1.164,-2.822 0.775,-0.75 1.744,-1.126 2.908,-1.126 1.17,0 2.149,0.384 2.928,1.149 0.785,0.765 1.174,1.718 1.174,2.86 0,1.11 -0.389,2.045 -1.174,2.802 C 2.102,-0.38 1.139,0 0,0 m -0.061,1.426 c 1.62,0 2.969,-0.513 4.047,-1.539 1.078,-1.027 1.616,-2.312 1.616,-3.859 0,-1.546 -0.543,-2.826 -1.631,-3.839 -1.088,-1.015 -2.459,-1.521 -4.114,-1.521 -1.582,0 -2.898,0.506 -3.951,1.521 -1.052,1.013 -1.578,2.284 -1.578,3.809 0,1.567 0.529,2.862 1.59,3.889 1.059,1.026 2.4,1.539 4.021,1.539" />
      </g>
      <g
         transform="matrix(6.6288113,0,0,-6.6288113,1672.5345,-245.50625)"
         id="g9326">
        <path
           inkscape:connector-curvature="0"
           id="path9328"
           style="fill:#231f20;fill-opacity:1;fill-rule:nonzero;stroke:none"
           d="m 0,0 1.426,0 0,-10.486 -1.293,0 -7.01,8.077 0,-8.077 -1.412,0 0,10.486 1.217,0 L 0,-8.145 0,0 Z" />
      </g>
      <g
         transform="matrix(6.6288113,0,0,-6.6288113,1721.7713,-342.32932)"
         id="g9330">
        <path
           inkscape:connector-curvature="0"
           id="path9332"
           style="fill:#231f20;fill-opacity:1;fill-rule:evenodd;stroke:none"
           d="m 0,0 c -2.09,0 -3.775,-1.68 -3.775,-3.76 0,-2.091 1.685,-3.768 3.775,-3.768 2.076,0 3.766,1.677 3.766,3.768 C 3.766,-1.68 2.076,0 0,0 m 0,-0.736 c 1.672,0 3.033,-1.358 3.033,-3.024 0,-1.677 -1.361,-3.039 -3.033,-3.039 -1.672,0 -3.027,1.362 -3.027,3.039 0,1.666 1.355,3.024 3.027,3.024 m -0.9,-2.764 0,1.096 0.746,0 c 0.539,0 0.826,-0.197 0.826,-0.544 0,-0.284 -0.182,-0.552 -0.738,-0.552 l -0.834,0 z m 2.668,-2.276 -0.461,0.801 c -0.405,0.713 -0.514,0.82 -0.854,0.942 l 0,0.019 c 0.672,0.076 1.074,0.514 1.074,1.118 0,0.634 -0.402,1.115 -1.256,1.115 l -1.978,0 0,-3.995 0.807,0 0,1.633 0.152,0 c 0.348,0 0.49,-0.035 0.656,-0.196 0.162,-0.162 0.401,-0.501 0.545,-0.784 l 0.315,-0.653 1,0 z" />
      </g>
    </g>
    <rect
       style="opacity:1;fill:none;fill-opacity:1;stroke:#0056ca;stroke-width:9.95265865;stroke-miterlimit:4;stroke-dasharray:none;stroke-opacity:1"
       id="rect5186"
       width="2824.2664"
       height="2824.3989"
       x="6.1444411"
       y="-1774.5061" />
  </g>
</svg>
