<?xml version="1.0" encoding="UTF-8" standalone="no"?>
<!-- Created with Inkscape (http://www.inkscape.org/) -->

<svg
   xmlns:dc="http://purl.org/dc/elements/1.1/"
   xmlns:cc="http://creativecommons.org/ns#"
   xmlns:rdf="http://www.w3.org/1999/02/22-rdf-syntax-ns#"
   xmlns:svg="http://www.w3.org/2000/svg"
   xmlns="http://www.w3.org/2000/svg"
   xmlns:sodipodi="http://sodipodi.sourceforge.net/DTD/sodipodi-0.dtd"
   xmlns:inkscape="http://www.inkscape.org/namespaces/inkscape"
   width="800mm"
   height="800mm"
   viewBox="0 0 2834.6457 2834.6457"
   id="svg2"
   version="1.1"
   inkscape:version="0.91 r13725"
   sodipodi:docname="los_andes.svg">
  <defs
     id="defs4">
    <clipPath
       id="clipPath4154"
       clipPathUnits="userSpaceOnUse">
      <path
         inkscape:connector-curvature="0"
         id="path4156"
         d="M 0,792 612,792 612,0 0,0 0,792 Z" />
    </clipPath>
    <clipPath
       id="clipPath4879"
       clipPathUnits="userSpaceOnUse">
      <path
         inkscape:connector-curvature="0"
         id="path4881"
         d="m 0,784.567 793.701,0 L 793.701,0 0,0 0,784.567 Z" />
    </clipPath>
    <clipPath
       id="clipPath5009"
       clipPathUnits="userSpaceOnUse">
      <path
         inkscape:connector-curvature="0"
         id="path5011"
         d="m -336.46,98.8652 672.92,0 0,-197.7314 -672.92,0 0,197.7314 z" />
    </clipPath>
    <clipPath
       id="clipPath9212"
       clipPathUnits="userSpaceOnUse">
      <path
         inkscape:connector-curvature="0"
         id="path9214"
         d="m 0,335 516.475,0 0,-335 L 0,0 0,335 Z" />
    </clipPath>
    <clipPath
       id="clipPath9340"
       clipPathUnits="userSpaceOnUse">
      <path
         inkscape:connector-curvature="0"
         id="path9342"
         d="m -336.46,98.8652 672.92,0 0,-197.7314 -672.92,0 0,197.7314 z" />
    </clipPath>
    <pattern
       y="0"
       x="0"
       height="6"
       width="6"
       patternUnits="userSpaceOnUse"
       id="EMFhbasepattern" />
    <pattern
       y="0"
       x="0"
       height="6"
       width="6"
       patternUnits="userSpaceOnUse"
       id="EMFhbasepattern-3" />
    <pattern
       y="0"
       x="0"
       height="6"
       width="6"
       patternUnits="userSpaceOnUse"
       id="EMFhbasepattern-30" />
    <pattern
       y="0"
       x="0"
       height="6"
       width="6"
       patternUnits="userSpaceOnUse"
       id="EMFhbasepattern-37" />
    <pattern
       y="0"
       x="0"
       height="6"
       width="6"
       patternUnits="userSpaceOnUse"
       id="EMFhbasepattern-5" />
  </defs>
  <sodipodi:namedview
     id="base"
     pagecolor="#ffffff"
     bordercolor="#666666"
     borderopacity="1.0"
     inkscape:pageopacity="0.0"
     inkscape:pageshadow="2"
     inkscape:zoom="0.095550465"
     inkscape:cx="34.711162"
     inkscape:cy="2767.8517"
     inkscape:document-units="px"
     inkscape:current-layer="layer1"
     showgrid="false"
     inkscape:window-width="1920"
     inkscape:window-height="1138"
     inkscape:window-x="1352"
     inkscape:window-y="-8"
     inkscape:window-maximized="1"
     showguides="true"
     inkscape:guide-bbox="true">
    <sodipodi:guide
       position="1369.773,1440.4552"
       orientation="0,1"
       id="guide11511" />
    <sodipodi:guide
       position="957.86614,1440.4552"
       orientation="1,0"
       id="guide11513" />
    <sodipodi:guide
       position="2790.7296,1355.149"
       orientation="1,0"
       id="guide11515" />
  </sodipodi:namedview>
  <metadata
     id="metadata7">
    <rdf:RDF>
      <cc:Work
         rdf:about="">
        <dc:format>image/svg+xml</dc:format>
        <dc:type
           rdf:resource="http://purl.org/dc/dcmitype/StillImage" />
        <dc:title></dc:title>
      </cc:Work>
    </rdf:RDF>
  </metadata>
  <g
     inkscape:label="Capa 1"
     inkscape:groupmode="layer"
     id="layer1"
     transform="translate(0,1782.2835)">
    <flowRoot
       xml:space="preserve"
       id="flowRoot4823"
       style="fill:black;stroke:none;stroke-opacity:1;stroke-width:1px;stroke-linejoin:miter;stroke-linecap:butt;fill-opacity:1;font-family:sans-serif;font-style:normal;font-weight:normal;font-size:40px;line-height:125%;letter-spacing:0px;word-spacing:0px"><flowRegion
         id="flowRegion4825"><rect
           id="rect4827"
           width="1321.4423"
           height="148.09267"
           x="497.43948"
           y="2621.9998" /></flowRegion><flowPara
         id="flowPara4829" /></flowRoot>    <flowRoot
       xml:space="preserve"
       id="flowRoot8594"
       style="fill:black;stroke:none;stroke-opacity:1;stroke-width:1px;stroke-linejoin:miter;stroke-linecap:butt;fill-opacity:1;font-family:sans-serif;font-style:normal;font-weight:normal;font-size:40px;line-height:125%;letter-spacing:0px;word-spacing:0px"><flowRegion
         id="flowRegion8596"><rect
           id="rect8598"
           width="617.56378"
           height="118.14263"
           x="-177.21394"
           y="2533.9189" /></flowRegion><flowPara
         id="flowPara8600" /></flowRoot>    <path
       inkscape:connector-curvature="0"
       id="path13061"
       d=""
       style="fill:#858383;fill-opacity:1;fill-rule:nonzero;stroke:none" />
    <path
       inkscape:connector-curvature="0"
       id="path13065"
       d=""
       style="fill:#858383;fill-opacity:1;fill-rule:nonzero;stroke:none" />
    <path
       inkscape:connector-curvature="0"
       id="path13069"
       d=""
       style="fill:#858383;fill-opacity:1;fill-rule:nonzero;stroke:none" />
    <path
       inkscape:connector-curvature="0"
       id="path13073"
       d=""
       style="fill:#858383;fill-opacity:1;fill-rule:nonzero;stroke:none" />
    <rect
       style="opacity:1;fill:none;fill-opacity:1;stroke:#0056ca;stroke-width:9.95265865;stroke-miterlimit:4;stroke-dasharray:none;stroke-opacity:1"
       id="rect5186"
       width="2824.2664"
       height="2824.3989"
       x="6.0908523"
       y="-1776.3434" />
    <g
       transform="matrix(0.53700256,0,0,0.53700256,1159.7076,-362.9258)"
       id="g4167">
      <path
         style="fill:#0094de;fill-opacity:1;fill-rule:evenodd;stroke:none"
         d="m 414.49587,-649.51522 -11.9888,-4.58357 -12.3388,-4.93579 -14.1026,-6.69882 -13.7499,-8.10881 -6.3471,-4.23079 -5.6417,-4.2308 -4.2305,-4.58329 -3.5249,-4.58329 -1.0584,-2.11553 -0.7055,-2.46775 -0.3528,-4.58358 1.0583,-2.11525 2.8223,-1.41027 3.8777,-0.70527 4.9361,0 6.6971,0.35278 7.4055,1.05749 18.6859,3.5258 22.2109,5.28856 25.7359,7.05104 28.2053,8.46159 30.3219,9.87185 32.083,10.57684 33.1414,11.63461 66.9854,25.38476 64.5217,26.08975 29.9663,13.04488 27.4998,12.6921 109.6489,51.47451 53.9412,26.08862 50.4049,24.68033 44.42173,22.56367 35.9834,19.74427 14.0829,8.46102 10.9502,7.75829 7.7329,5.99157 2.4835,2.82223 1.7498,2.11384 0.3669,1.76389 0.3387,4.23051 -0.3387,2.46662 -1.0724,2.46945 -1.4112,2.46662 -2.794,1.76389 -3.5277,1.41111 -5.3058,0.70273 -6.35,-0.34995 -8.0998,-1.41111 -10.2164,-2.82223 -11.9945,-4.23051 -14.4498,-5.99157 -16.93333,-8.11107 -38.7773,-18.68593 -42.6607,-19.74145 -45.1274,-20.44982 -47.244,-20.79978 -96.6018,-40.89964 -94.1352,-38.78016 -84.9687,-34.55247 -69.1021,-27.14723 -63.1077,-24.67949 z"
         id="path4223"
         inkscape:connector-curvature="0" />
      <path
         style="fill:#ff9e03;fill-opacity:1;fill-rule:evenodd;stroke:none"
         d="m 743.08437,-649.51522 -1.4111,3.52552 -1.7611,4.23079 -1.4111,5.28857 -1.4111,5.99355 -0.7055,6.69854 -0.3528,6.69883 0.7055,6.34605 1.0584,3.17331 1.0583,3.17302 3.525,5.28828 2.4694,2.11554 2.8194,2.11525 7.7555,2.82053 9.5193,1.41027 5.9944,0 6.7,-0.70499 15.1581,-3.17303 18.3332,-5.64106 9.5193,-3.87829 9.1666,-4.2308 18.3332,-10.57684 18.3331,-12.69238 18.336,-14.45514 38.0746,-32.0833 20.1027,-16.5704 20.7998,-16.57068 22.2109,-15.8654 11.6275,-7.40382 11.99453,-7.40382 11.9944,-6.69882 12.6718,-6.34605 13.0669,-5.99356 13.7442,-5.28856 13.7442,-4.58329 14.4498,-3.8783 7.4224,-1.76276 7.7329,-1.76276 15.5223,-2.46803 15.8608,-1.41026 16.9334,-1.05749 17.272,0.35249 17.9775,1.41027 17.6389,1.76276 17.272,2.82053 16.9051,3.17302 15.8891,3.5258 15.494,3.87802 14.8167,4.23079 27.8553,9.51936 25.3718,10.92934 11.9945,5.64106 11.2889,5.64105 20.7997,11.98711 9.5109,5.99355 8.8054,5.64106 16.2277,11.63461 13.7443,11.28212 11.9944,10.22434 9.5109,9.16658 12.3613,13.39766 4.2051,5.28828 -3.8664,-9.16658 -5.2776,-10.57684 -7.4224,-13.75015 -9.8496,-16.2179 -12.7,-17.98066 -15.5222,-19.39121 -8.8053,-9.87157 -9.5109,-9.87185 -10.2447,-9.87185 -11.2606,-9.87185 -24.6945,-19.03843 -13.7442,-8.81408 -14.4498,-8.81409 -15.1835,-7.75631 -16.5665,-7.7566 -16.9051,-6.69868 -18.3444,-5.99358 -19.0218,-5.28845 -20.1225,-4.58335 -21.1384,-3.17308 -22.2109,-2.46794 -11.6276,-0.70513 -11.6557,-0.35256 -24.3276,0 -24.3275,1.41025 -23.622,2.11538 -22.5496,3.52566 -10.922,1.76282 -10.9502,2.11537 -21.1385,4.9359 -20.09423,5.99361 -19.3887,6.34613 -18.3444,7.05121 -17.6276,7.40382 -16.922,8.10909 -16.2165,8.46158 -15.161,8.81409 -14.4554,8.81408 -13.7499,9.51935 -12.6915,9.16658 -12.3416,9.51908 -11.2804,9.16686 -10.5777,9.51907 -9.8722,8.81408 -8.8138,9.16686 -15.8665,16.5704 -12.6915,15.16013 -17.2748,22.21173 -5.2889,8.46159 z"
         id="path4225"
         inkscape:connector-curvature="0" />
      <path
         style="fill:#001d65;fill-opacity:1;fill-rule:evenodd;stroke:none"
         d="m 452.92327,-43.104902 45.8329,-28.91084 53.9439,-33.494128 71.2188,-43.71623 87.0825,-51.82728 99.774,-58.52725 110.7073,-63.10771 119.15993,-65.92993 62.3993,-33.49414 63.1331,-33.49131 129.7376,-66.28271 65.5602,-32.08302 65.5885,-31.37916 32.7942,-15.16041 32.766,-14.80764 65.2498,-28.91028 64.516,-27.14724 63.4435,-25.38476 62.0607,-23.26922 60.6495,-20.80119 29.6051,-9.87185 29.2665,-8.81408 56.7549,-15.86541 27.1498,-6.69882 27.1497,-5.99356 26.1056,-5.28828 25.3718,-4.23079 4.572,-0.70527 6.7169,0 10.2164,0.35249 13.7442,2.11554 17.9776,3.17302 22.9164,5.99356 13.4056,3.5258 14.4498,4.58329 33.4997,11.28211 39.4829,15.16014 45.8329,19.03842 52.5498,23.26923 28.8995,13.75015 31.0163,14.80763 67.7051,34.19856 75.438,39.8399 84.2715,46.18539 -71.9384,-25.7367 -76.1436,-26.79502 -90.9602,-30.67304 -47.9495,-15.51263 -47.9496,-15.16041 -47.244,-14.10264 -44.7604,-12.6921 -41.9665,-10.92962 -37.0275,-8.81408 -16.9052,-3.17303 -14.8166,-2.46803 -13.4056,-1.76276 -11.6275,-0.70528 -10.2165,0.35278 -11.6558,1.05749 -13.3773,2.46803 -15.1553,2.82053 -34.2054,9.16658 -39.8497,11.98739 -44.7605,15.51262 -49.7275,17.98095 -53.594,20.80119 -57.0936,22.91672 -60.3109,25.03198 -63.4435,26.79503 -65.2216,28.20613 -66.9995,29.61358 -137.8656,62.0522 -138.9098,64.51882 -137.1318,64.16605 -130.45153,62.40498 -228.4617,110.70449 -159.0069,78.268678 -59.5827,29.6164 z"
         id="path4227"
         inkscape:connector-curvature="0" />
      <path
         style="fill:#0094de;fill-opacity:1;fill-rule:evenodd;stroke:none"
         d="m -1825.6978,759.68471 0,-200.2564 0,-200.2565 0,-200.2564 0,-200.256422 137.1473,0 0,168.523362 0,168.52616 0,168.5262 0,168.879 174.5203,0 174.8706,0 0,126.571 -243.2699,0 -243.2683,0 z"
         id="path4229"
         inkscape:connector-curvature="0" />
      <path
         style="fill:#0094de;fill-opacity:1;fill-rule:evenodd;stroke:none"
         d="m -1301.435,465.64581 0,-8.461 0,-8.1111 0.3528,-8.461 0.7055,-7.7555 0.7056,-8.111 0.7027,-7.7555 1.0584,-7.7555 1.0583,-7.7583 1.0583,-7.4026 1.4083,-7.4027 1.7639,-7.4055 1.4111,-7.4027 2.1139,-7.0528 1.7639,-7.0499 2.1166,-7.0527 2.4666,-7.0499 2.1167,-6.7 2.8194,-6.6971 2.4666,-6.7 2.8223,-6.3443 3.1721,-6.3472 1.4111,-3.1722 1.7611,-3.175 3.175,-5.9916 3.525,-6.3471 3.5249,-5.9944 3.525,-5.9916 3.8805,-5.6416 4.2305,-5.6417 3.8778,-5.6416 4.5833,-5.6416 4.2305,-5.2888 4.5833,-5.2861 4.936,-5.2888 4.5833,-4.9361 4.9361,-4.936 4.9361,-4.5833 2.4666,-2.4695 2.8222,-2.1138 4.9361,-4.5833 5.2888,-3.8777 5.6388,-4.2306 5.2889,-3.8805 5.6416,-3.525 5.6416,-3.5249 5.6416,-3.525 5.9916,-3.175 5.6416,-3.1722 5.9944,-2.8194 6.3444,-2.8222 5.9944,-2.4666 6.3472,-2.4694 6.3443,-2.1139 6.7,-2.1167 6.3471,-1.761 6.6972,-1.7639 6.6999,-1.7639 7.0499,-1.4083 7.0528,-1.0583 7.0499,-1.0584 7.0527,-1.0583 7.0499,-0.7055 7.4055,-0.35 7.4027,-0.7056 7.4027,0 7.7583,0 8.1083,0 7.7554,0 7.7583,0.7056 7.75547,0.35 7.40269,0.7055 7.40551,1.0583 3.52496,0.3528 3.87773,0.7056 7.05273,1.0583 7.04991,1.4083 7.05274,1.4111 7.04991,1.7639 6.69995,1.7611 6.69714,1.7639 6.34717,2.4666 6.34718,2.1166 6.34436,2.4667 6.34718,2.4694 5.9944,2.8194 5.99157,3.175 5.64163,2.8194 5.9944,3.525 5.64164,3.175 5.286,3.5249 5.6416,3.8778 5.2889,3.8777 4.936,3.8777 2.8194,2.1167 2.4695,2.1138 4.936,4.5833 4.9361,4.2305 4.5833,4.9361 4.5833,4.5833 4.5833,4.9361 4.2305,5.2888 4.2305,5.2888 4.2305,5.2889 3.8777,5.6416 3.8778,5.2889 3.5278,5.9915 3.8777,5.6417 3.1722,5.9944 3.1721,5.9944 3.175,6.3443 3.1722,6.3472 2.8194,6.3443 2.8222,6.3472 2.4667,6.7 2.4694,6.6971 2.1139,7.0527 2.1166,7.05 2.1139,7.0527 1.7639,7.0499 1.7638,7.4055 1.7611,7.4027 1.4111,7.7555 1.4111,7.4055 1.0555,8.1082 1.0584,7.7555 1.0583,8.1111 0.7056,8.1082 0.7055,8.1082 0.3528,8.4611 0.3528,8.461 0.3499,8.8166 0,8.8138 0,8.461 -0.3499,8.8138 -0.3528,8.4611 -0.3528,4.2305 0,3.8777 -0.7055,8.4638 -0.7056,8.1083 -1.0583,8.1082 -1.0584,7.7555 -1.4082,7.7583 -1.0584,7.7555 -1.7639,7.7554 -1.4083,7.4055 -1.7638,7.4027 -2.1139,7.0528 -1.7639,7.4026 -2.4694,6.7 -2.1139,7.0499 -2.4694,6.7 -2.8194,6.6971 -2.8194,6.7 -2.8222,6.3471 -2.8194,6.3444 -3.1722,6.3472 -3.5278,5.9944 -3.5249,5.9915 -3.525,5.9944 -3.8777,5.6417 -3.8806,5.9915 -3.8777,5.2889 -4.2305,5.6416 -4.2305,5.2889 -2.4667,2.4666 -2.1166,2.8222 -4.5833,4.9361 -4.5833,4.936 -4.9361,4.9361 -4.936,4.5833 -4.9361,4.2305 -4.9361,4.2305 -5.2888,4.2305 -5.286,3.8778 -5.6417,3.8777 -5.2888,3.5278 -2.81941,1.761 -2.82222,1.7639 -5.64163,3.525 -5.99157,3.1722 -5.9944,2.8222 -5.9944,2.8194 -6.34436,2.8222 -5.9944,2.4666 -6.34718,2.1167 -6.69713,2.4666 -6.34718,1.7639 -6.69995,2.1138 -6.69714,1.4112 -7.05273,1.761 -7.04991,1.4111 -7.05273,1.0584 -7.04992,1.0583 -7.40268,1.0555 -7.40552,0.7056 -7.40271,0.3527 -7.7583,0.3528 -7.7554,0.3528 -7.7555,0 -8.1111,0 -7.7554,-0.3528 -7.7555,-0.3528 -7.7583,-0.3527 -7.4027,-0.7056 -7.4027,-1.0555 -7.4055,-1.0583 -7.0499,-1.0584 -7.4055,-1.4111 -6.6971,-1.761 -7.0528,-1.7639 -6.6971,-1.7611 -6.6999,-2.1167 -6.3444,-2.1138 -6.7,-2.4695 -5.9944,-2.4666 -6.3443,-2.8222 -5.9944,-2.8194 -5.9944,-2.8222 -5.9944,-3.1722 -5.6388,-3.525 -5.6416,-3.5249 -5.6417,-3.5278 -5.2888,-3.8777 -5.2888,-3.8778 -5.2889,-4.2305 -4.9332,-4.2305 -5.2889,-4.5833 -4.5833,-4.5833 -4.936,-4.936 -4.5833,-4.9361 -4.5833,-5.2888 -4.2305,-5.2889 -4.2305,-5.2888 -4.2334,-5.2889 -3.8777,-5.6388 -3.8777,-5.6416 -3.8778,-5.9944 -3.5249,-5.9944 -3.175,-5.9916 -3.525,-5.9944 -3.1722,-6.3471 -2.8222,-6.3444 -2.8194,-6.3472 -2.8194,-6.6971 -2.4694,-6.7 -2.4666,-6.6999 -2.4695,-6.6972 -2.1138,-7.0527 -2.1167,-7.0499 -0.7056,-3.8777 -1.0555,-3.525 -1.7639,-7.4055 -1.4111,-7.4027 -1.761,-7.4055 -1.0584,-7.7555 -1.4111,-7.7554 -1.0583,-7.7583 -0.7056,-8.1083 -0.7027,-7.7554 -0.7056,-8.4639 -1.0583,-16.5692 0,-8.4611 0,-8.461 z m 137.1487,0 0,11.6332 0.35,11.636 0.7055,11.2805 1.0584,10.5776 1.0583,10.5777 1.4111,9.8722 1.7611,9.5193 2.1166,9.5194 2.1139,8.8138 2.4694,8.461 2.8194,8.1082 3.1722,7.7555 3.175,7.4055 1.7611,3.525 1.7639,3.5249 3.8777,6.7 3.8777,5.9944 2.1167,3.1722 2.4666,2.8194 4.5833,5.2888 4.5833,5.2889 5.2888,4.5832 2.4695,2.4667 2.8194,2.1166 2.8222,1.7639 2.8194,2.1139 5.9944,3.5249 2.8194,1.7639 3.1722,1.4111 6.6999,2.8194 6.3472,2.4695 7.0499,2.1138 3.525,1.0583 3.8777,0.7056 3.5278,0.7056 3.8777,0.7027 7.7555,0.7055 3.8777,0.3528 4.2305,0.3528 8.1111,0.3528 7.7555,-0.3528 3.5249,-0.3528 3.8778,-0.3528 7.0527,-1.0555 3.525,-0.3527 3.5249,-0.7056 6.69996,-1.7639 3.52495,-1.0583 3.175,-1.4083 6.34436,-2.4695 3.17218,-1.4082 3.175,-1.4112 5.9944,-3.5249 5.6388,-3.5278 2.82222,-2.1138 2.8194,-2.1167 2.8194,-2.1138 2.46944,-2.4695 2.8194,-2.4666 2.46945,-2.4695 4.93607,-5.2888 2.46662,-2.8194 2.46944,-2.8194 2.46662,-2.8222 2.11667,-3.1722 4.23051,-6.3472 4.23051,-7.0499 3.87774,-7.0527 3.52495,-7.4027 3.175,-7.7555 2.8194,-8.111 1.41111,-4.2306 1.40829,-4.2305 1.41111,-4.2305 1.05834,-4.5833 1.05833,-4.5833 1.05551,-4.5832 1.76389,-9.5194 1.41111,-9.5194 1.40829,-10.2249 1.05833,-10.5748 0.70556,-10.5777 0.35278,-11.2833 0,-11.2804 0,-11.9888 -0.35278,-11.2804 -0.70556,-10.9305 -1.05833,-10.5777 -1.05551,-10.2249 -1.41111,-9.8693 -1.76389,-9.5193 -1.76107,-9.1666 -2.46944,-8.8138 -2.46662,-8.4639 -2.46945,-8.1082 -3.17218,-7.4027 -1.76389,-3.8777 -1.40828,-3.5278 -3.52778,-6.6971 -3.87774,-6.7 -3.87773,-5.9944 -4.58329,-5.9916 -2.11384,-2.8222 -2.46945,-2.4666 -2.11384,-2.4695 -2.46945,-2.4666 -5.28884,-4.9361 -5.28884,-4.2305 -2.8194,-1.7639 -2.8194,-2.1138 -5.9944,-3.5278 -2.82223,-1.4083 -3.17217,-1.7639 -6.34718,-2.8194 -3.52496,-1.0583 -3.17218,-1.4111 -7.05273,-1.7611 -7.04991,-1.7639 -7.40267,-1.4111 -7.7583,-1.0555 -8.1082,-0.3528 -8.1083,-0.3527 -7.7583,0.3527 -3.5249,0.3528 -3.8778,0.35 -7.0527,0.7055 -3.525,0.7056 -3.5249,0.7055 -6.7,1.7639 -3.5249,1.0555 -3.1722,1.0584 -6.3472,2.8222 -6.3443,2.8194 -5.9944,3.525 -5.9944,3.5249 -2.8194,2.1167 -2.4695,2.1166 -5.6388,4.5833 -2.4694,2.1139 -2.8194,2.8222 -4.9361,5.286 -2.4694,2.8222 -2.4667,2.8194 -4.5832,5.9944 -4.2306,6.3472 -4.2305,6.6972 -2.1166,3.5249 -1.7639,3.8806 -3.525,7.0499 -3.1722,7.7554 -3.1721,8.1111 -2.4695,8.461 -1.4111,4.2305 -1.0555,4.2306 -1.0583,4.5832 -1.0584,4.2306 -1.0583,4.5832 -1.0583,4.9361 -1.4083,9.5194 -1.4111,9.8721 -0.7056,10.2249 -0.7055,10.2221 -0.7028,10.9305 0,11.2832 z"
         id="path4231"
         inkscape:connector-curvature="0" />
      <path
         style="fill:#0094de;fill-opacity:1;fill-rule:evenodd;stroke:none"
         d="m -716.17953,722.31281 46.8913,-109.2962 7.4055,5.9944 3.5249,2.8194 3.8778,2.8222 7.7554,5.2861 7.7583,4.5832 8.1083,4.5833 7.7554,3.8806 8.4639,3.8777 8.1082,3.1722 8.461,2.8194 4.2306,1.4111 4.2305,1.0583 4.2305,1.4112 4.2305,0.7027 8.8138,1.7639 4.5833,0.7055 4.2333,0.7056 9.1666,1.0583 9.1666,0.3528 9.1665,0.35 4.5833,0 4.5833,-0.35 4.5833,0 4.2305,-0.3528 4.2305,-0.7055 3.8778,-0.7056 3.8777,-0.7055 3.8777,-0.7056 3.5278,-1.0583 3.1722,-1.0555 3.1722,-1.0584 1.7639,-0.7055 1.4111,-0.7056 2.8194,-1.4111 2.8194,-1.4083 2.8222,-1.7639 2.4666,-1.4111 2.1167,-2.1138 2.4666,-1.7639 1.7639,-2.1139 2.1138,-2.1166 1.7639,-2.4667 1.4111,-2.1166 1.4083,-2.8194 1.4111,-2.4695 1.0584,-2.8194 1.0583,-2.8194 0.7056,-2.8222 0.7027,-3.1722 0.3528,-3.1721 0.3527,-3.175 0.3528,-3.525 0,-3.525 0,-3.8777 -0.3528,-4.2333 -0.3527,-3.8778 -0.7056,-3.8777 -0.7027,-3.8777 -1.0584,-3.525 -1.0583,-3.5278 -1.4111,-3.5249 -1.7611,-3.525 -1.4111,-3.1721 -2.1166,-3.175 -1.0556,-1.4083 -1.0583,-1.7639 -2.1167,-2.8194 -2.4666,-3.175 -2.8194,-2.8194 -2.4694,-2.4695 -3.1722,-2.8194 -3.5278,-2.8194 -7.7554,-5.6416 -4.5833,-2.8222 -4.5833,-3.1722 -5.2889,-3.1722 -5.2888,-2.8222 -11.986,-6.6971 -13.3971,-6.7 -7.0527,-3.1722 -7.7555,-3.5249 -15.8665,-7.0527 -9.1666,-4.2306 -8.461,-3.8777 -8.461,-4.2305 -8.1083,-4.2305 -8.1082,-4.5833 -7.4055,-4.2305 -7.4027,-4.5833 -6.7,-4.9361 -7.0499,-4.5833 -6.3472,-4.936 -5.9944,-4.9361 -3.1721,-2.4694 -2.8194,-2.8194 -2.8223,-2.4667 -2.4666,-2.4694 -5.2888,-5.2888 -5.2889,-5.2889 -4.5833,-5.6388 -4.2305,-5.6416 -4.2305,-5.6416 -3.8777,-5.6417 -1.7639,-2.8194 -1.7639,-3.175 -3.525,-5.6388 -2.8194,-6.3471 -2.8222,-5.9944 -2.4666,-6.3444 -2.1167,-6.3472 -1.761,-6.3471 -1.4111,-6.6972 -1.4112,-6.6999 -1.0555,-6.6972 -0.7055,-6.6999 -0.3528,-7.0499 -0.3528,-7.0528 0.3528,-9.1665 0.7056,-9.1666 0.3527,-4.5833 0.7028,-4.2305 1.4111,-8.8138 2.1166,-8.1083 1.0556,-4.2305 1.4111,-3.8805 2.8222,-7.7555 3.1722,-7.7555 1.761,-3.5277 2.1167,-3.525 3.8777,-7.0499 4.5833,-6.7 2.4695,-3.5249 2.8194,-3.1722 2.4694,-3.175 2.8194,-3.1722 2.8194,-2.8194 3.175,-2.8222 3.1722,-3.1722 3.1722,-2.8194 3.175,-2.4694 3.5249,-2.8194 3.525,-2.4695 3.5249,-2.8194 7.4055,-4.5833 3.8778,-2.4694 3.8777,-2.1138 7.7555,-4.2306 8.111,-3.8805 8.1083,-3.1722 8.8138,-3.1722 8.8138,-2.8222 8.8138,-2.4666 9.5193,-2.4666 9.5194,-1.7639 9.5194,-1.4111 10.2249,-1.0584 4.936,-0.7027 5.2889,-0.3528 5.2888,0 5.286,-0.3528 10.5777,0 10.9305,0 10.9276,0.3528 10.9305,1.0555 10.5777,1.0584 10.5777,1.4111 10.5749,1.7639 10.5776,2.1138 10.225,2.4695 10.5776,2.4666 10.2221,3.1722 9.8722,3.175 10.2249,3.8777 9.8721,3.8777 9.8721,4.2305 4.9361,2.4695 4.9361,2.4666 9.8721,4.9361 -38.0774,105.7684 -2.8222,-2.4666 -2.8194,-2.1167 -2.8194,-2.1138 -2.8223,-2.1167 -5.9944,-4.2305 -3.1721,-1.7639 -3.1722,-1.7611 -3.175,-1.7639 -3.525,-1.761 -6.6971,-3.175 -7.0527,-2.8194 -7.4027,-2.4695 -7.7583,-2.1138 -7.7555,-2.1167 -8.1082,-1.7611 -4.2305,-0.7055 -4.2305,-0.3528 -4.5833,-0.7055 -4.2305,-0.3528 -8.8167,-0.7056 -9.5165,-0.7055 -9.1694,0 -4.2305,0 -4.2305,0 -3.8778,0.3527 -3.8777,0.3528 -3.8777,0.7056 -3.525,0.7055 -3.5278,0.7056 -3.1721,0.7055 -3.1722,1.0556 -3.175,1.0583 -2.8194,1.0583 -2.8194,1.4111 -2.4695,1.4083 -2.4666,1.4111 -2.4694,1.4111 -2.1139,1.7611 -2.1166,1.7639 -2.1139,2.1167 -1.7639,2.1138 -1.7639,2.1167 -2.8194,4.5833 -2.4694,5.2888 -1.0555,2.8194 -0.7056,2.8194 -0.7055,2.8222 -0.7056,3.1722 -0.3528,3.1722 -0.3527,3.175 -0.3528,3.5249 0,3.525 0,2.8222 0.3528,2.4666 0.3527,2.8194 0.7056,2.8223 0.7056,2.4666 1.0583,2.8222 1.0555,2.4666 1.4111,2.4695 3.1722,4.936 1.7639,2.4667 2.1166,2.4666 2.1139,2.4694 2.4694,2.4667 2.4667,2.1166 2.8194,2.4666 3.175,2.1167 3.5249,2.4666 3.525,2.4695 4.2305,2.8194 4.936,2.4694 4.9361,2.8194 11.2833,5.9944 13.0443,6.3472 7.0527,3.1722 7.4027,3.1722 16.2165,7.0527 17.6304,7.4027 9.1666,3.8777 8.8138,4.2305 8.461,3.8778 8.1082,4.2333 8.1083,4.2305 7.4055,4.2305 7.0499,4.5833 7.0527,4.5833 6.3472,4.5833 6.3444,4.936 5.6416,4.5833 5.6416,4.9361 5.2889,5.2888 4.936,4.9361 4.5833,5.286 2.1139,2.8223 2.1166,2.4666 3.8778,5.6416 3.8777,5.6416 3.1722,5.6416 1.7639,3.1722 1.7639,2.8194 1.4082,3.175 1.4112,2.8194 2.4666,6.3472 2.4694,6.3444 2.4666,6.3471 1.7639,6.7 1.7639,6.6971 1.4083,6.7 1.0583,7.0499 0.7056,7.4055 0.7056,7.0499 0.3527,7.7555 0.3528,7.4055 0,5.2888 -0.3528,4.9361 -0.3527,4.9332 -0.3528,4.9361 -0.3528,4.5833 -0.7056,4.9361 -0.7055,4.5833 -1.0583,4.5832 -1.7611,8.8167 -2.8222,8.8138 -1.4083,4.2305 -1.4111,4.2305 -3.525,8.1082 -1.7639,3.8778 -2.1138,3.8777 -2.1167,3.8806 -2.1138,3.8777 -2.1167,3.8777 -2.4666,3.525 -5.2889,7.0527 -2.8222,3.525 -2.8194,3.1721 -3.1722,3.525 -3.175,3.175 -3.1721,3.1722 -3.525,3.1722 -7.0527,5.9944 -3.525,2.8222 -3.8777,2.8194 -3.8778,2.4666 -3.8805,2.8222 -8.1083,4.9361 -8.461,4.5833 -8.8138,4.2305 -8.8138,3.5249 -4.936,2.1167 -4.5833,1.4083 -9.8722,3.175 -9.8721,2.8194 -5.2888,1.0583 -5.2889,1.4083 -10.5749,1.7639 -11.2832,1.7639 -5.6416,0.7056 -5.6416,0.7027 -5.6388,0.3528 -5.9944,0.3527 -5.9944,0.3528 -5.9916,0.3528 -12.3416,0 -13.7499,0 -13.0443,-0.3528 -6.3472,-0.3528 -5.9915,-0.7055 -5.9944,-0.3528 -5.6417,-0.3499 -10.9304,-1.4112 -10.5749,-1.7638 -9.5193,-2.1139 -4.2306,-1.0583 -4.5832,-1.0584 -8.8138,-2.8194 -9.1694,-3.175 -10.2221,-3.8777 -10.5777,-4.5833 -11.2833,-5.2888 -11.6332,-5.9916 -12.3387,-6.3472 -13.0472,-7.0499 z"
         id="path4233"
         inkscape:connector-curvature="0" />
      <path
         style="fill:#0094de;fill-opacity:1;fill-rule:evenodd;stroke:none"
         d="m 460.32877,759.68471 -56.7634,-162.1818 -266.5391,0 -53.941099,162.1818 -152.6625,0 77.2132004,-203.0787 77.2102996,-203.0758 77.213199,-203.0786 77.5631,-203.075862 60.6411,0 77.5632,203.075862 77.9187,203.0786 77.9159,203.0758 77.9159,203.0787 -151.2485,0 z m -190.3843,-566.9252 -46.8912,147.7264 -46.5385,148.0764 186.8565,0 -46.8884,-148.0764 -46.5384,-147.7264 z"
         id="path4235"
         inkscape:connector-curvature="0" />
      <path
         style="fill:#0094de;fill-opacity:1;fill-rule:evenodd;stroke:none"
         d="m 1017.0206,759.68471 0,-169.5845 0,-169.2318 -0.3387,-17.9803 -1.4111,-16.9221 -2.1167,-15.5137 -1.4111,-7.4027 -1.4111,-7.0528 -3.8946,-13.0443 -4.9107,-11.6332 -5.64453,-10.5777 -6.35,-9.5193 -7.4224,-7.7555 -8.8053,-7.0527 -9.5109,-5.9944 -10.5834,-4.9361 -11.9944,-3.8777 -13.0358,-2.4666 -14.1027,-1.7639 -14.8082,-0.3528 -14.8054,1.0583 -15.1609,3.1722 -15.8666,5.2888 -16.2165,7.4056 -8.111,4.2305 -7.4027,4.5833 -7.0499,4.936 -6.7,5.286 -11.986,10.9305 -10.2249,11.9888 0,211.8896 0,211.8925 -131.8598,0 0,-146.6681 0,-146.3153 0,-146.6652 0,-146.3153 94.8407,0 24.3276,54.6495 7.0499,-7.7583 7.4027,-7.4027 7.4055,-7.0527 8.1082,-6.3444 8.8138,-5.9944 8.8138,-5.6416 9.1666,-4.5833 4.9361,-2.4666 4.9361,-2.1167 10.2249,-3.8777 10.2249,-3.1722 10.9276,-2.8222 11.636,-2.4666 11.6332,-1.7639 11.9888,-1.4083 12.6916,-0.7056 12.6915,-0.3527 24.6945,1.0583 23.2551,3.1722 10.922,2.1138 10.95023,2.4695 20.4329,7.0499 9.5109,4.2305 9.5391,4.5833 9.1722,4.936 8.8053,5.6417 8.4667,6.3471 8.0998,6.6972 7.7611,7.0527 7.3942,7.4027 7.0556,8.1111 6.6886,8.461 11.6558,17.9804 5.2776,9.5193 4.9389,9.8722 4.2333,10.5748 3.8664,10.5777 3.5278,11.2833 2.8222,11.2804 4.572,24.3275 2.8223,25.7387 0.7055,13.3971 0,13.7499 0,179.8066 0,179.8094 -131.8542,0 z"
         id="path4237"
         inkscape:connector-curvature="0" />
      <path
         style="fill:#0094de;fill-opacity:1;fill-rule:evenodd;stroke:none"
         d="m 1625.915,759.68471 0,-35.258 -9.5391,8.8138 -12.6718,8.461 -7.0555,3.8805 -8.128,3.8778 -17.9776,7.4027 -9.8495,3.5249 -9.8778,2.8222 -20.0942,4.2305 -10.2447,1.7611 -10.2164,1.0583 -10.2165,0.7056 -10.5833,0 -28.5609,-1.0583 -13.7442,-1.7611 -13.4056,-2.1167 -13.0386,-2.4666 -12.7,-3.5278 -12.3332,-3.8777 -11.6275,-4.5833 -6.0113,-2.4666 -5.6163,-2.8222 -10.9502,-5.6388 -10.5551,-6.3472 -10.2447,-7.0499 -9.8777,-7.4055 -9.5109,-8.4611 -9.1723,-8.8138 -8.8053,-9.1665 -8.0998,-10.2249 -7.7611,-10.225 -7.0555,-10.9276 -6.6887,-11.636 -6.0113,-11.6332 -5.6445,-12.3416 -4.9106,-13.0443 -4.6003,-13.0443 -3.8664,-14.1027 -3.5278,-14.1026 -2.8222,-14.8082 -2.4836,-15.161 -1.7497,-15.8637 -1.4112,-16.2193 -0.7055,-16.5693 -0.3387,-17.2776 0.3387,-16.9221 0.7055,-16.922 1.7498,-16.2193 2.1167,-16.2165 2.8222,-15.5138 3.1891,-15.1609 3.8665,-14.8082 4.6002,-14.1027 5.2775,-14.1026 5.6445,-13.3971 6.35,-13.3971 7.0555,-12.6915 7.7329,-12.3388 8.128,-11.9888 8.8054,-11.2804 9.5109,-11.2833 9.8777,-10.5777 10.2165,-9.8721 10.5833,-9.1666 10.5833,-8.461 11.2889,-7.7555 11.2607,-7.4055 11.9944,-6.3443 11.9945,-5.9944 12.3331,-4.9361 12.7,-4.5833 12.7,-3.5249 13.3773,-3.1722 13.7725,-2.4695 13.7442,-1.7638 14.0829,-1.0556 14.478,-0.3527 15.8609,0.7055 15.8609,1.0555 15.1553,2.1167 14.8167,3.1722 14.4497,3.8777 14.1112,4.5833 13.7442,5.6416 13.4055,6.3472 0,-234.456122 131.8543,-32.78857 0,209.070222 0,209.42297 0,209.0731 0,209.423 -131.8543,0 z m 0,-445.643 -10.5833,-8.1083 -10.922,-7.0527 -10.9502,-5.9916 -10.922,-4.936 -10.922,-3.8778 -11.2889,-2.8222 -11.2889,-1.4083 -11.2607,-0.7055 -19.4169,0.7055 -9.144,1.0555 -8.8335,1.4111 -16.9051,3.8778 -8.128,2.4694 -7.7329,2.8194 -14.8167,7.0527 -13.4055,8.8138 -6.35,4.9361 -5.9831,5.286 -5.9832,5.6417 -5.3057,5.9944 -5.2776,6.3471 -4.9389,6.6972 -8.4666,14.8082 -3.8665,7.7554 -3.5278,8.1111 -6.0113,17.2748 -4.9389,18.686 -1.7498,9.8721 -1.4111,9.8721 -2.1166,21.5054 -0.7056,22.5636 0.7056,22.2109 1.0724,10.5777 1.0442,10.2249 3.1609,19.3915 4.9389,17.6276 5.6444,16.5693 3.5278,7.7583 3.8947,7.0499 8.8053,13.7498 4.572,6.3472 5.3058,5.6416 5.2776,5.6417 5.9831,5.286 6.0113,4.5833 6.6887,4.5833 6.6886,4.2305 7.0556,3.5277 7.7611,3.525 7.7611,2.8194 16.5665,5.2888 17.9775,3.525 9.1722,1.0583 9.8778,1.0584 20.7998,0.7055 9.8778,-0.7055 11.2606,-2.1167 11.9945,-3.8777 13.4055,-5.2889 12.7,-5.6388 10.2165,-5.9944 7.7611,-5.9944 5.6444,-5.9916 0,-153.0152 0,-153.0124 z"
         id="path4239"
         inkscape:connector-curvature="0" />
      <path
         style="fill:#0094de;fill-opacity:1;fill-rule:evenodd;stroke:none"
         d="m 2363.8133,508.65651 -202.0147,0 -202.0147,0 1.7498,17.2776 2.4836,15.8637 4.2333,15.161 2.4553,7.4027 2.4836,6.7 3.1609,6.6999 3.5277,6.6971 7.3943,11.9888 9.1722,11.2805 4.6002,5.2888 5.2776,4.9361 11.2889,9.1666 5.9831,3.8777 5.9831,3.8777 13.0669,6.7 13.7442,5.2888 15.1553,4.5833 15.5222,2.8194 16.9052,1.7639 17.6388,0.7056 21.8723,-0.7056 10.5551,-1.0583 9.8778,-1.4111 9.8777,-1.4083 9.5109,-2.1167 8.8054,-2.4666 8.8335,-2.8222 16.5665,-6.6972 15.1553,-8.4638 7.0555,-4.5833 6.6887,-5.286 12.3613,-11.2833 51.4492,104.3602 -9.144,7.0499 -9.5392,6.6999 -9.8495,5.9916 -10.5833,5.6416 -11.2889,5.2889 -11.6276,4.936 -11.9944,4.2305 -12.7,3.8778 -13.3774,3.5249 -13.7724,2.8223 -29.2382,4.5832 -31.3831,2.8194 -16.5665,0.7056 -16.9333,0 -15.8609,-0.3528 -15.5222,-0.7055 -15.1554,-1.7611 -14.8166,-2.1167 -14.0829,-2.8194 -13.7725,-3.175 -13.3773,-3.8777 -13.0669,-4.9361 -12.6718,-4.936 -11.9944,-5.9916 -11.9945,-6.3472 -11.2888,-7.0499 -10.5552,-7.7583 -10.5833,-8.1082 -10.2164,-9.1666 -9.5391,-9.5194 -9.1723,-9.8721 -8.4384,-10.5777 -7.7611,-10.9276 -7.3942,-11.6361 -6.7169,-11.9859 -6.35,-12.6916 -5.6445,-12.6943 -4.9106,-13.7499 -2.1167,-6.6971 -2.1167,-7.0528 -3.8946,-14.4554 -3.1609,-15.1581 -2.8223,-15.161 -2.1166,-15.8665 -1.4111,-16.5693 -0.7056,-16.9249 -0.3669,-17.2748 0.3669,-16.922 1.0442,-16.9249 1.4111,-16.2165 2.4836,-15.8665 2.8222,-15.511 3.5278,-15.1609 4.2333,-14.4555 4.572,-14.4554 5.6445,-13.7499 5.9831,-13.397 7.0555,-13.0444 7.3943,-12.3415 7.7611,-12.3388 8.8335,-11.636 4.572,-5.9916 4.9389,-5.6416 9.8778,-10.9305 21.1384,-20.0942 10.922,-9.1666 11.2889,-8.111 11.6276,-7.7555 11.6558,-7.0499 11.9662,-6.3472 12.3613,-5.9944 12.3331,-4.9361 12.7,-4.2305 13.0387,-3.8777 13.4056,-2.8194 13.3773,-2.4695 14.1111,-1.7638 13.7442,-1.0556 14.4498,-0.3527 29.972,1.4083 14.4498,1.4111 14.1111,2.1166 13.4055,2.8194 13.4056,3.1722 13.0387,3.8806 12.3331,4.2305 12.3331,5.2888 11.6275,5.6388 11.2889,6.3472 11.2889,6.7 10.5834,7.4026 10.2164,8.1083 9.8778,8.461 9.5109,9.1666 8.8053,9.8721 8.4667,9.8722 7.7611,10.5776 7.3942,10.5777 6.7169,10.9277 5.9831,11.2832 5.6444,11.6332 4.9389,11.9888 4.2334,12.3388 3.8664,12.6915 3.1891,12.6944 2.4554,13.3971 2.1166,13.397 1.4111,14.1027 1.0725,14.1026 0.3386,14.8082 -0.7055,14.1027 -2.1167,17.2748 -3.5278,20.8026 -4.9388,23.6192 z m -398.3849,-102.9462 276.7471,0 -2.4554,-15.5138 -2.8222,-14.8082 -3.8664,-13.3971 -4.6002,-12.6915 -5.6445,-11.636 -6.35,-10.5777 -3.4995,-4.9333 -3.8947,-4.5861 -3.8665,-4.2305 -4.2333,-4.2305 -8.8335,-7.4027 -9.8496,-6.6999 -10.9502,-5.6388 -11.2607,-4.5833 -12.3613,-3.5278 -13.3774,-2.4666 -14.1111,-1.4111 -14.8166,-0.3528 -13.7443,0.3528 -13.4055,1.4111 -12.3331,2.4666 -11.6276,3.5278 -10.922,4.5833 -10.5833,5.6388 -9.8778,6.6999 -8.8053,7.4027 -8.4667,8.461 -7.7611,9.5194 -7.0556,10.5777 -6.35,11.636 -5.9831,12.6915 -4.9389,13.3971 -4.572,14.8082 -3.5277,15.5138 z"
         id="path4241"
         inkscape:connector-curvature="0" />
      <path
         style="fill:#0094de;fill-opacity:1;fill-rule:evenodd;stroke:none"
         d="m 2415.2906,722.31281 46.9053,-109.2962 7.3942,5.9944 7.3943,5.6416 7.7611,5.2861 7.7611,4.5832 16.2278,8.4639 16.1995,7.0499 16.9334,5.2888 17.272,3.8778 17.9775,2.4694 18.3445,0.7028 9.5108,-0.35 8.4667,-0.7056 8.0998,-1.0583 7.7611,-1.4111 6.6887,-2.1138 6.35,-2.4695 5.6444,-2.8194 5.3058,-3.5249 4.572,-3.5278 3.8664,-4.2305 3.1891,-4.9361 2.8223,-4.9361 2.1166,-5.6388 1.4111,-5.9944 1.0443,-6.3471 0,-7.05 -0.3387,-8.111 -1.0724,-7.7555 -1.7498,-7.4027 -2.4836,-7.0527 -3.1609,-6.6971 -4.2333,-6.3472 -4.572,-5.9944 -5.3058,-5.2889 -6.6886,-5.6388 -7.7612,-5.6416 -19.7555,-12.3387 -25.3718,-13.0472 -30.6775,-14.1026 -17.6389,-7.7555 -16.5665,-8.461 -15.494,-9.1666 -14.1111,-9.1666 -13.4055,-9.5193 -11.9663,-10.2249 -10.5833,-10.2249 -9.8778,-10.9277 -4.2333,-5.6416 -4.2333,-5.6416 -7.3943,-11.6361 -6.35,-11.9859 -4.9389,-12.3388 -4.2333,-12.6943 -2.8222,-13.3971 -1.7498,-13.3971 -0.3669,-14.1027 0.7056,-18.3331 2.8222,-17.6276 1.778,-8.1083 2.4553,-8.111 5.9831,-15.511 8.128,-14.1026 4.572,-7.0527 4.9389,-6.3444 11.2889,-12.3416 13.0387,-10.9276 14.4498,-9.8722 7.7611,-4.5832 7.7611,-4.2306 8.0998,-3.8805 8.128,-3.525 17.6106,-5.6416 18.3445,-4.9332 9.5109,-1.7639 9.5109,-1.4111 20.4611,-2.1139 21.1384,-0.7055 21.8722,0.7055 21.5054,2.1139 21.1666,3.175 21.1385,4.2305 20.4611,5.9916 20.0942,7.0527 9.8778,3.8777 9.8495,4.2305 9.8778,4.5833 9.8778,5.2889 -38.0718,105.7684 -11.2889,-9.1666 -12.3331,-7.7555 -13.4055,-6.3471 -7.0556,-2.8194 -7.3942,-2.4695 -7.7611,-2.4666 -7.7611,-1.7639 -16.5665,-3.1722 -17.6389,-1.7639 -18.6831,-0.3527 -8.4666,0 -7.7329,0.7055 -7.4225,1.0584 -6.6886,1.7638 -6.35,2.1139 -5.6445,2.1167 -4.9389,3.1721 -4.572,3.1722 -4.2333,3.8806 -3.1609,4.2305 -3.1891,4.5833 -2.4553,5.2888 -1.778,5.6388 -1.4112,5.9944 -0.7055,6.3472 -0.3387,7.0499 0.3387,5.2888 1.0724,5.6417 4.2334,10.2249 3.1609,4.936 3.8946,4.9333 4.572,4.9361 5.2776,4.5832 6.7169,4.5833 8.0997,4.9361 20.7998,11.636 27.4885,12.6916 34.2053,14.4554 17.6389,7.7554 16.9051,8.4639 15.1836,8.461 14.0828,9.1666 12.7,9.1666 11.2889,9.8721 10.2165,10.2249 8.8053,10.5749 7.7611,11.2832 6.7169,11.6332 5.6162,12.3416 4.6003,12.6915 3.5277,13.3971 2.4554,13.7499 1.4111,14.4554 0.7055,15.161 -0.3386,10.2249 -0.7056,9.5194 -1.0724,9.5165 -1.4111,9.5193 -2.1167,8.8167 -2.4553,8.8138 -3.1892,8.461 -3.1608,8.1082 -8.4667,15.5138 -9.8778,14.4554 -5.6162,6.6971 -6.35,6.7 -6.35,5.9916 -7.0556,5.9944 -15.5222,11.2832 -8.0998,4.9361 -8.4666,4.2305 -17.6107,8.1082 -19.4169,6.7 -20.4329,5.286 -10.5833,1.7639 -10.922,1.7639 -11.6276,1.4083 -11.6557,0.7055 -24.3276,0.7056 -26.7829,-0.7056 -23.9889,-1.761 -10.922,-1.0584 -10.2164,-1.7638 -9.8778,-2.1139 -8.8053,-2.1167 -17.9776,-5.9944 -20.7998,-8.461 -22.9164,-11.2804 -25.4,-13.3971 z"
         id="path4243"
         inkscape:connector-curvature="0" />
      <path
         style="fill:#0094de;fill-opacity:1;fill-rule:evenodd;stroke:none"
         d="m -1452.3336,-709.09854 -43.0106,89.55109 -4.5833,-4.58329 -4.5833,-3.8783 -5.2889,-3.87802 -5.6416,-3.5258 -2.8194,-1.41026 -2.8222,-1.76276 -3.1722,-1.41027 -3.1722,-1.41026 -3.175,-1.41027 -3.1721,-1.41026 -3.525,-1.05749 -3.5278,-1.05777 -7.0499,-2.11553 -7.7554,-1.76276 -7.7583,-1.76276 -8.1083,-1.05777 -8.461,-1.05777 -8.8138,-0.70499 -9.5194,-0.3525 -9.5199,-0.35249 -8.8141,0.35249 -8.814,0.70499 -4.5833,0.70528 -4.2308,0.70499 -4.2308,0.70527 -4.2308,1.05749 -8.1091,2.11554 -4.2308,1.41026 -3.878,1.41026 -3.8783,1.41027 -3.8783,1.76276 -7.7563,3.8783 -3.8783,1.76276 -3.5255,2.11525 -3.8783,2.46804 -3.5256,2.46803 -7.0513,5.28828 -3.173,2.82053 -3.5258,2.82053 -6.6985,6.34633 -3.1731,3.17302 -3.1733,3.52552 -3.173,3.5258 -2.8205,3.52552 -3.1731,3.8783 -2.8205,3.87802 -5.641,8.10909 -2.8206,4.23079 -2.4677,4.2308 -4.9361,8.46045 -4.5833,8.8138 -2.468,4.58329 -1.7628,4.58611 -3.8783,9.51654 -3.5255,9.51935 -3.173,9.87214 -1.4103,5.28884 -1.4102,4.93607 -1.0578,5.28884 -1.4103,5.28885 -1.7627,10.92764 -1.7628,10.93047 -0.7053,5.64162 -0.705,5.64162 -0.3525,5.64162 -0.3527,5.6388 -0.3525,5.9944 -0.3525,5.9944 0,11.98598 0,11.9888 0.3525,5.99158 0.3525,5.64162 0.7052,11.63602 0.705,5.28603 0.3528,5.64162 1.7628,10.93046 1.7627,10.22492 2.1153,10.22208 2.8205,9.87214 1.0578,4.58329 1.7627,4.93606 3.1731,9.16658 1.763,4.58329 1.7628,4.23051 3.8783,8.46385 2.1152,4.23051 2.1153,4.23051 4.5835,7.75546 4.9358,7.75547 2.8206,3.88056 2.468,3.52495 5.6411,6.69714 2.8205,3.52777 2.8202,3.17218 3.1733,3.17218 2.8206,2.82222 3.173,2.8194 3.173,2.82222 3.173,2.46663 3.1731,2.46662 3.5258,2.46944 3.173,2.46662 3.5255,2.11667 3.5258,2.11667 3.5255,1.76106 3.5258,2.11667 3.878,1.40829 3.5258,1.76389 3.8781,1.41111 3.8783,1.40829 7.7563,2.46944 8.1091,2.11385 4.2308,0.70555 3.8783,0.70556 8.814,1.41111 8.4616,0.35278 4.5833,0.35278 4.5833,0 10.2244,-0.35278 9.8715,-0.70556 4.9361,-0.35278 4.9361,-0.70555 4.5832,-0.70556 4.5833,-1.05833 4.5833,-1.05551 4.5833,-1.05833 4.5833,-1.41112 4.2305,-1.40828 4.2305,-1.41112 4.2305,-1.41111 4.2305,-1.76106 4.2306,-2.11667 3.8805,-1.76389 3.8777,-2.11384 3.8778,-2.46945 3.8777,-2.11384 3.8777,-2.46945 3.5278,-2.8194 3.8778,-2.46944 3.5249,-2.8194 6.7,-6.34718 6.6971,-6.34435 6.3472,-7.05274 5.9916,-7.40269 48.3023,87.43527 -3.8777,4.23051 -4.2306,4.23051 -4.2305,3.87774 -4.5833,4.23333 -4.2305,3.52495 -4.5833,3.87774 -4.936,3.52495 -4.9361,3.175 -4.9361,3.17218 -4.936,3.17218 -5.2889,3.17218 -5.2888,2.82222 -5.6416,2.46662 -5.2889,2.82222 -5.6388,2.11385 -5.9944,2.46944 -5.9944,2.11385 -5.9916,2.11666 -5.9944,1.76107 -6.3471,1.76389 -6.3444,1.41111 -6.3472,1.40829 -6.6999,1.41111 -6.6972,1.05833 -6.6999,1.05834 -7.0499,1.05833 -14.1027,1.40829 -7.4055,0.35278 -7.403,0.35277 -15.1601,0.35278 -7.7563,0 -7.4038,-0.35278 -7.4041,-0.35277 -7.4038,-0.70556 -7.4038,-0.70555 -7.0514,-0.70274 -7.051,-1.05833 -6.6988,-1.41111 -6.6989,-1.41111 -6.6985,-1.40829 -6.6988,-1.76389 -6.3461,-1.76389 -6.3463,-2.11384 -6.3461,-2.46945 -6.346,-2.11384 -5.9938,-2.46945 -5.9936,-2.8194 -5.6411,-2.8194 -5.6407,-3.175 -5.6411,-3.17218 -5.6411,-3.17217 -5.2885,-3.52778 -5.2883,-3.87773 -5.2886,-3.87774 -4.936,-3.87773 -4.9358,-4.23051 -4.9358,-4.23051 -4.5833,-4.58329 -4.9361,-4.58329 -4.2307,-4.93607 -2.4681,-2.46944 -2.1152,-2.46662 -4.2308,-5.28885 -4.2308,-5.28884 -4.2308,-5.28885 -3.878,-5.64162 -3.8783,-5.6388 -7.0513,-11.63602 -6.6989,-12.33876 -5.9935,-12.69153 -5.6409,-13.04713 -2.8206,-6.69714 -2.4679,-6.69995 -2.1154,-7.04991 -2.1154,-7.05274 -2.1154,-7.40269 -2.1154,-7.05273 -1.7628,-7.75547 -1.7628,-7.40269 -1.4103,-7.75828 -1.4102,-7.75547 -1.4103,-7.75547 -1.0577,-8.11106 -1.0576,-8.10825 -0.7052,-8.46102 -0.7051,-8.46102 -0.7051,-8.46103 -0.3526,-8.46384 -0.3526,-8.8138 -0.3525,-8.8138 0,-9.16658 0,-8.46102 0.3525,-8.10824 0.3526,-8.46103 0.3526,-8.11106 0.7051,-8.10825 1.0577,-7.75546 2.1154,-15.86654 1.0577,-7.40269 1.4102,-7.75829 1.4103,-7.40268 1.7628,-7.40552 2.1154,-7.40268 1.7628,-7.40269 2.1154,-7.05274 2.4679,-7.04991 2.468,-7.05273 2.4679,-7.05076 2.8206,-6.69854 2.8203,-6.69883 3.1733,-6.69883 3.1731,-6.69854 3.173,-6.34605 3.5255,-6.69883 3.5258,-6.34605 3.878,-5.99383 3.8783,-6.34605 3.8783,-5.99355 4.2308,-5.99356 4.5833,-5.64105 4.5833,-5.99356 4.5833,-5.64106 4.5833,-5.64105 4.936,-5.28857 4.9358,-5.28828 4.9361,-4.93606 5.2883,-4.93579 4.936,-4.93606 10.9294,-8.81409 5.2885,-4.23079 5.6411,-3.87801 5.6411,-3.8783 5.6407,-3.52552 5.6411,-3.5258 5.9936,-3.17303 5.641,-3.17302 5.9936,-2.82053 6.3463,-2.82053 5.9935,-2.46803 6.3461,-2.46776 6.3463,-2.11553 6.3461,-2.11526 6.6988,-1.76276 6.3461,-1.76304 6.6988,-1.41027 6.6985,-1.41026 7.0513,-1.05749 7.0514,-1.05777 6.6988,-0.70527 7.4038,-0.70499 7.0513,-0.3525 7.0511,-0.35277 7.4041,0 12.6921,0 5.9932,0.35277 5.9944,0 11.986,1.05749 11.636,1.05777 10.9277,1.41026 5.6416,1.05777 5.2889,0.70499 10.5776,2.46804 10.225,2.46803 10.222,2.82053 4.5833,1.41026 4.9361,1.76276 9.1666,3.52552 9.1666,3.52581 8.8166,4.23079 4.2305,2.11526 3.8777,2.46803 4.2305,2.46775 3.8778,2.46803 7.7554,4.93607 z"
         id="path4245"
         inkscape:connector-curvature="0" />
      <path
         style="fill:#0094de;fill-opacity:1;fill-rule:evenodd;stroke:none"
         d="m -1142.0754,-177.07861 -1.7639,2.8194 -1.761,2.8194 -2.1167,2.82223 -2.4666,2.8194 -2.4695,2.46944 -2.4666,2.46662 -2.8222,2.46945 -2.8194,2.46662 -2.8222,2.46944 -3.525,2.11385 -6.6971,4.58329 -7.4055,3.87773 -4.2306,2.11667 -4.2305,1.76389 -4.2305,1.76106 -4.2305,1.76389 -4.2305,1.40829 -4.2305,1.76389 -4.2305,1.05833 -4.5833,1.41111 -4.2333,1.05551 -4.5833,1.05834 -4.2305,0.70555 -4.5833,0.70556 -4.5833,0.70555 -4.2305,0.70556 -4.5833,0.34996 -4.5833,0.35277 -9.1666,0 -8.461,0 -8.461,-0.35277 -8.1083,-0.70274 -7.7583,-1.05833 -7.7554,-1.41111 -7.4055,-1.41111 -3.525,-1.05551 -3.525,-0.70556 -3.5249,-1.05833 -3.5278,-1.05834 -6.6971,-2.46662 -6.3472,-2.82222 -6.3444,-2.8194 -5.9944,-3.17218 -5.6416,-3.52778 -5.6416,-3.87773 -2.8194,-2.11384 -2.4694,-2.11667 -4.9333,-4.23051 -4.9361,-4.58329 -2.4694,-2.46662 -2.1138,-2.46945 -4.2334,-4.93606 -3.8777,-5.28885 -1.7611,-2.8194 -1.7639,-2.8194 -3.1721,-5.9944 -1.4112,-2.82222 -1.4111,-3.17218 -1.4083,-3.17218 -1.4111,-3.175 -2.1166,-6.34435 -2.1139,-6.69996 -1.7639,-7.04991 -1.4083,-7.05273 -0.7055,-3.87774 -0.3528,-3.52495 -0.7055,-7.75547 -0.3528,-8.11106 -0.3528,-8.10825 0.3528,-9.51935 0.7055,-9.16658 0.3528,-4.58329 0.7056,-4.58329 1.4083,-8.8138 2.1166,-8.46102 1.0584,-4.23051 1.0555,-3.88056 2.8222,-8.10824 3.5249,-7.75547 1.7639,-3.52496 1.7611,-3.88055 4.2305,-7.04991 4.5833,-7.05274 2.4694,-3.17217 2.4667,-3.52496 2.8222,-3.17218 2.8194,-3.175 2.8222,-2.8194 2.8194,-3.17217 3.1722,-2.82223 3.175,-3.17217 3.5249,-2.82223 3.1722,-2.46662 3.8778,-2.8194 3.5277,-2.82222 7.4027,-4.93607 3.8778,-2.11384 4.2305,-2.46945 3.8777,-2.11384 4.2305,-2.11667 8.8166,-3.87773 8.8138,-3.52496 9.5194,-3.175 4.5833,-1.40829 4.936,-1.41111 10.2221,-2.8194 10.5777,-2.11666 5.2889,-1.05834 5.2888,-0.70555 11.2804,-1.76107 11.6361,-1.05833 11.9859,-1.05834 5.9944,0 6.3472,-0.35277 12.6915,0 4.5833,0 4.5833,0.35277 4.9361,0.35278 4.9361,0.70556 10.9304,1.76389 5.6388,1.05551 5.9944,1.41111 0,-4.58329 -0.3528,-4.58329 -0.7055,-4.58329 -0.3528,-4.58329 -1.0555,-4.23051 -1.0583,-3.87773 -1.0584,-3.87773 -1.4111,-3.87774 -1.761,-3.52778 -1.7639,-3.52495 -1.7639,-3.17218 -2.1139,-3.175 -1.4111,-1.40829 -1.0583,-1.41111 -2.4666,-2.8194 -1.4111,-1.41111 -1.4083,-1.41111 -2.8223,-2.46662 -3.1721,-2.46945 -3.1722,-2.11384 -3.5278,-2.11667 -3.5249,-1.76107 -3.8778,-1.76388 -3.8777,-1.76389 -4.2305,-1.40829 -4.5833,-1.41111 -4.5833,-1.05834 -4.5833,-1.05833 -4.9361,-0.70273 -5.2888,-0.70556 -5.2888,-0.70555 -5.6417,-0.35278 -5.6416,-0.35278 -5.9916,0 -6.6999,0 -7.0499,0.35278 -6.7,0.35278 -6.3472,0.70555 -6.6971,0.70556 -5.9944,0.70273 -6.3472,1.05833 -5.9916,1.05834 -5.6416,1.41111 -5.6416,1.40829 -5.6416,1.76389 -5.6388,1.76388 -4.9361,1.76107 -5.2888,2.11667 -4.9361,2.11384 -4.9361,2.46945 -21.5053,-81.09091 6.3444,-2.8194 6.6999,-3.175 7.0499,-2.46663 7.0528,-2.46803 7.0499,-2.46803 7.4055,-2.11526 7.4027,-1.76276 7.7554,-1.76304 7.7583,-1.40998 7.7555,-1.41027 4.2305,-0.35278 3.8777,-0.70499 8.1111,-1.05777 8.461,-0.70499 8.461,-0.35277 4.5833,0 4.2305,-0.3525 8.8138,0 11.9888,0 5.9916,0.3525 5.9944,0.35277 10.9305,1.05749 10.9276,1.05777 5.2889,0.70527 5.2888,1.05749 4.9361,0.70527 4.9361,1.05749 4.936,1.41026 4.9361,1.05777 9.1666,2.82053 8.8138,3.17303 4.2305,1.40998 3.8777,1.76389 8.1083,3.87773 7.7582,4.23051 3.525,2.11667 3.525,2.46662 6.6999,4.93607 3.1722,2.46662 3.1722,2.82222 2.8222,2.46662 3.1722,2.82223 2.8222,3.17217 2.4666,3.17218 2.8194,3.175 2.4695,3.52496 4.936,7.40269 2.1139,3.87773 2.1166,4.23333 4.2305,8.8138 2.1167,4.58329 1.7611,4.58329 1.7639,4.93607 1.4111,5.28884 1.761,4.93325 1.4112,5.64162 1.4111,5.64162 1.4083,5.64162 2.1166,11.98598 1.0584,5.9944 1.0555,6.34718 0.7055,6.69713 0.7056,6.69996 1.4111,13.74986 0.7055,14.8082 0.35,7.40269 0.3528,7.75547 0,15.86653 0,95.19074 0.3528,10.93046 0.3527,10.22491 0.7056,9.87214 1.0583,9.16657 1.0584,8.8138 1.4082,8.46103 1.7639,7.75546 2.1167,7.05274 2.1138,6.69995 2.8194,6.34436 1.4112,2.82222 1.4111,2.8194 1.4111,2.8194 1.4083,2.46944 1.7639,2.46663 1.761,2.11666 1.7639,2.11385 1.7639,2.11666 2.1138,1.76389 1.7639,1.76107 2.1139,1.76389 2.1166,1.40829 -3.1721,5.28884 -1.4111,2.46945 -1.7639,2.46662 -3.1722,4.23051 -3.525,3.88056 -3.5249,3.17217 -1.7639,1.41111 -1.7639,1.40829 -3.8777,2.11667 -1.7611,0.70556 -1.7639,0.70273 -3.8777,1.41111 -4.2305,1.05833 -3.8806,0.70556 -4.5833,0.70555 -4.2305,0.70556 -4.5833,0.34996 -4.936,0.35277 -4.5833,0 -5.2861,-0.35277 -2.8222,-0.34996 -2.4666,-0.35278 -5.2888,-1.05833 -2.4695,-1.05833 -2.4666,-1.05834 -2.4695,-1.05833 -2.1138,-1.05551 -2.4694,-1.41111 -2.4667,-1.41111 -4.2305,-3.52496 -4.5833,-3.87773 -4.2305,-4.23051 -3.5278,-4.23052 -1.761,-2.46944 -1.7639,-2.11384 -3.1722,-4.58329 -2.8222,-4.58329 -2.1139,-4.58329 -2.1166,-4.58329 -1.7611,-4.93607 z m -9.8721,-165.70677 -5.9944,-1.40829 -5.9944,-1.05834 -10.2221,-1.41111 -8.8138,-1.05833 -3.8806,-0.35278 -3.5249,0 -7.0499,0 -7.0528,0.35278 -7.0499,0.35278 -6.6999,0.70555 -6.3472,0.70556 -5.9916,0.70555 -5.9944,1.05834 -5.6416,1.05551 -5.2889,1.41111 -5.286,1.76389 -4.936,1.40829 -4.5833,1.76389 -4.5833,2.11666 -4.2334,2.11385 -4.2305,2.46944 -3.8777,2.46662 -1.7611,1.05834 -1.7639,1.41111 -3.1721,2.8194 -3.175,2.8194 -2.8194,3.175 -1.4111,1.76106 -1.4083,1.41112 -2.4695,3.52495 -2.1138,3.52496 -2.1167,3.88055 -1.7639,3.87774 -1.4083,3.87773 -1.4111,4.23051 -0.7055,4.23051 -1.0584,4.58329 -0.3527,4.58329 -0.35,4.93607 -0.3528,4.93606 0,3.87774 0.3528,3.52495 0.35,3.52778 0.3527,3.17218 0.7056,3.17217 0.7055,3.175 0.7056,3.17218 1.0583,2.8194 1.0555,2.82222 1.4112,2.46663 1.4111,2.46944 1.4111,2.46662 1.761,2.46945 1.7639,2.11384 1.7611,2.11667 2.1167,1.76107 2.1166,1.76388 2.1139,1.76389 4.936,3.17218 2.8194,1.41111 2.8223,1.05551 2.8194,1.05834 3.1721,1.05833 6.3472,1.76389 3.525,0.70273 3.5278,0.35278 3.8777,0.35278 3.8777,0.35278 3.8778,0.35277 4.2305,0 5.6416,0 5.2888,-0.35277 4.9361,-0.35278 5.2888,-0.70556 4.5833,-1.05551 4.9361,-0.70555 4.2305,-1.41112 4.5833,-1.41111 1.7611,-0.70273 2.1166,-0.70556 4.2305,-1.76388 3.525,-2.11667 3.525,-2.11385 3.5277,-2.11666 3.1722,-2.46662 3.1722,-2.8194 2.8222,-2.82223 2.8194,-3.17217 2.4695,-3.17218 2.4666,-3.175 2.1166,-3.87774 2.1139,-3.52495 1.7639,-3.87773 1.761,-4.23052 1.4112,-4.58328 1.4111,-4.23334 1.0583,-4.93606 1.0555,-4.58329 0.7056,-5.28603 0.7055,-5.28884 0.3528,-5.28884 0.3528,-5.64163 0,-5.9944 0,-41.60237 z"
         id="path4247"
         inkscape:connector-curvature="0" />
      <path
         style="fill:#0094de;fill-opacity:1;fill-rule:evenodd;stroke:none"
         d="m -840.98663,-750.7012 5.6416,0.3525 3.1722,0.35249 2.8222,0.35278 2.8194,0.70499 2.4667,0.70527 2.8222,1.05749 2.4666,0.70527 2.4694,1.41027 2.4667,1.41026 2.4694,1.41027 2.4666,1.41026 2.4695,1.76276 2.1138,1.76276 2.1167,2.11554 2.4666,2.11525 1.7639,2.46804 2.1138,2.11525 3.5278,4.93607 1.4083,2.46775 1.4111,2.46803 1.4111,2.46804 1.0584,2.82053 1.0555,2.46775 0.7055,2.82053 1.4111,5.64105 0.3528,2.82053 0.3528,3.17303 0.3528,3.1733 0,2.82025 0,3.17331 -0.3528,3.17302 -0.3528,2.82053 -0.3528,3.17303 -0.7055,2.82052 -0.7056,2.82053 -0.7055,2.46804 -1.0555,2.82024 -1.0584,2.82053 -1.4111,2.46804 -2.8194,4.93606 -1.7639,2.46775 -1.7639,2.46804 -2.1138,2.11525 -1.7639,2.46804 -2.4666,2.11553 -2.1167,1.76276 -2.1138,2.11526 -2.4695,1.76276 -2.4666,1.41026 -2.4694,1.41027 -2.4667,1.41026 -2.4694,1.05777 -2.4666,1.05777 -2.8222,1.05777 -2.4667,0.70499 -2.8194,0.70527 -2.8222,0.3525 -3.1722,0.35249 -5.6416,0.3525 -5.9944,-0.3525 -2.8194,-0.35249 -2.8194,-0.3525 -2.8222,-0.70527 -2.8194,-0.70499 -2.4695,-1.05777 -2.8194,-1.05777 -2.4694,-1.05777 -2.4666,-1.41026 -2.4666,-1.41027 -2.4695,-1.41026 -2.1138,-1.76276 -2.4695,-2.11526 -2.1138,-1.76276 -2.1167,-2.11553 -2.11666,-2.46804 -2.11384,-2.11525 -3.17218,-4.93579 -1.76389,-2.46803 -1.41111,-2.46803 -1.05833,-2.46804 -1.40829,-2.82053 -0.70556,-2.82024 -1.05833,-2.46804 -1.41111,-5.64105 -0.34996,-3.17303 -0.35277,-2.82053 -0.35278,-3.17302 0,-3.17331 0,-2.82025 0.35278,-3.1733 0.35277,-3.17303 0.34996,-2.82053 0.70556,-2.82052 0.70555,-2.82053 1.05833,-2.82053 0.70556,-2.46775 1.40829,-2.82053 1.05833,-2.46804 3.175,-4.93578 1.40829,-2.46803 1.76389,-2.46804 2.11384,-2.11525 2.11666,-2.46804 2.1167,-2.11525 2.1138,-2.11554 2.4695,-1.76276 2.1138,-1.76276 2.4695,-1.41026 2.4666,-1.41027 2.4666,-1.41026 2.4694,-1.41027 2.8194,-0.70527 2.4695,-1.05749 2.8194,-0.70527 2.8222,-0.70499 2.8194,-0.35278 2.8194,-0.35249 5.9944,-0.3525 z m -129.03763,696.665838 4.58329,-0.70556 4.23051,-0.34995 8.10824,-1.76389 7.75829,-1.76389 7.04991,-1.76107 6.34718,-2.46944 5.99158,-2.11385 4.93606,-2.82222 2.46945,-1.40829 2.11384,-1.41111 3.52778,-2.82222 1.76107,-1.40829 1.41111,-1.41111 3.17218,-2.8194 2.82222,-3.52778 2.46662,-3.52495 2.11667,-3.87774 2.11384,-3.87773 1.05833,-2.11667 1.05834,-2.46662 1.76106,-4.230508 1.41112,-4.93607 1.05833,-4.93606 1.05833,-5.28885 0.70274,-5.64162 0.35277,-2.8194 0.35278,-3.175 0.35278,-5.99158 0,-5.9944 0,-218.2368 0.35278,-218.23736 99.77683,0 0,217.17903 0,217.53124 0,5.9944 -0.3528,5.9944 0,5.64162 -0.3527,5.6388 -0.7056,5.64163 -0.7056,5.28884 -0.7055,5.28885 -0.7056,5.288838 -2.1138,10.22491 -2.4695,9.51936 -1.4082,4.93606 -1.4112,4.58329 -1.7638,4.58329 -1.7611,4.23051 -1.7639,4.58329 -2.1138,4.23051 -2.1167,3.87774 -2.1139,4.23051 -2.4694,3.87773 -2.4666,3.87773 -2.4695,3.88056 -2.4666,3.52495 -2.8222,3.52496 -3.1722,3.52496 -2.8194,3.175 -3.175,3.17217 -3.1722,3.17218 -3.5249,3.175 -3.175,2.8194 -3.8778,2.8194 -5.2888,4.23051 -5.9916,3.88056 -3.175,2.11384 -3.1722,1.76389 -6.3471,3.52496 -6.6972,3.17217 -7.0527,3.175 -7.40269,2.8194 -7.75547,2.8194 -7.75828,2.46945 -8.46103,2.46662 -8.46102,2.11667 -8.46102,1.76389 -9.16658,1.76106 -9.51935,1.76389 -9.51936,1.05834 -9.87213,1.40828 0,-93.42966 z"
         id="path4249"
         inkscape:connector-curvature="0" />
      <path
         style="fill:#0094de;fill-opacity:1;fill-rule:evenodd;stroke:none"
         d="m -447.87643,-177.07861 -1.7639,2.8194 -1.7639,2.8194 -2.1139,2.82223 -2.4694,2.8194 -2.4666,2.46944 -2.4666,2.46662 -2.8223,2.46945 -2.8194,2.46662 -2.8222,2.46944 -3.5249,2.11385 -6.6972,4.58329 -7.4055,3.87773 -4.2305,2.11667 -3.8777,1.76389 -4.5833,1.76106 -4.2305,1.76389 -4.2305,1.40829 -4.2306,1.76389 -4.2333,1.05833 -4.5833,1.41111 -4.2305,1.05551 -4.5833,1.05834 -4.2305,0.70555 -4.5833,0.70556 -4.5833,0.70555 -4.2305,0.70556 -4.5833,0.34996 -4.5833,0.35277 -9.1665,0 -8.4611,0 -8.461,-0.35277 -8.111,-0.70274 -7.7555,-1.05833 -7.7555,-1.41111 -7.4055,-1.41111 -3.5249,-1.05551 -3.525,-0.70556 -3.525,-1.05833 -3.5277,-1.05834 -6.6972,-2.46662 -6.3471,-2.82222 -6.3444,-2.8194 -5.9944,-3.17218 -5.6416,-3.52778 -5.6416,-3.87773 -2.4667,-2.11384 -2.8222,-2.11667 -4.9361,-4.23051 -4.9332,-4.58329 -2.1167,-2.46662 -2.4666,-2.46945 -4.2333,-4.93606 -3.8778,-5.28885 -1.761,-2.8194 -1.7639,-2.8194 -3.1722,-5.9944 -1.4111,-2.82222 -1.4111,-3.17218 -1.4083,-3.17218 -1.4111,-3.175 -2.1167,-6.34435 -2.1138,-6.69996 -1.7639,-7.04991 -1.4111,-7.05273 -0.35,-3.87774 -0.7055,-3.52495 -0.7056,-7.75547 -0.3528,-8.11106 -0.3527,-8.10825 0.3527,-9.51935 0.7056,-9.16658 0.3528,-4.58329 0.7055,-4.58329 1.4083,-8.8138 2.1167,-8.46102 1.0583,-4.23051 1.0555,-3.88056 2.8222,-8.10824 3.525,-7.75547 1.7639,-3.52496 1.7611,-3.88055 4.2305,-7.04991 4.5833,-7.05274 2.4694,-3.17217 2.4666,-3.52496 2.8222,-3.17218 2.8194,-3.175 2.8194,-2.8194 2.8223,-3.17217 3.1721,-2.82223 3.1722,-3.17217 3.5278,-2.82223 3.525,-2.46662 3.5249,-2.8194 3.525,-2.82222 7.4055,-4.93607 3.8777,-2.11384 4.2305,-2.46945 3.8778,-2.11384 4.2305,-2.11667 8.8138,-3.87773 8.8166,-3.52496 9.5193,-3.175 4.5833,-1.40829 4.9361,-1.41111 10.2221,-2.8194 10.5777,-2.11666 5.2888,-1.05834 5.2889,-0.70555 11.2804,-1.76107 11.636,-1.05833 11.986,-1.05834 5.9944,0 6.3472,-0.35277 12.6915,0 4.5833,0 4.5833,0.35277 4.936,0.35278 4.9361,0.70556 10.9277,1.76389 5.6416,1.05551 5.9944,1.41111 0,-4.58329 -0.3528,-4.58329 -0.3528,-4.58329 -0.7055,-4.58329 -1.0555,-4.23051 -1.0584,-3.87773 -1.0583,-3.87773 -1.4111,-3.87774 -1.7611,-3.52778 -1.7639,-3.52495 -1.7639,-3.17218 -2.1138,-3.175 -1.0583,-1.40829 -1.4112,-1.41111 -2.4666,-2.8194 -1.4111,-1.41111 -1.4083,-1.41111 -2.8222,-2.46662 -3.1722,-2.46945 -3.175,-2.11384 -3.5249,-2.11667 -3.525,-1.76107 -3.8777,-1.76388 -3.8778,-1.76389 -4.2305,-1.40829 -4.5833,-1.41111 -4.5832,-1.05834 -4.5833,-1.05833 -4.9361,-0.70273 -5.2888,-0.70556 -5.2889,-0.70555 -5.6416,-0.35278 -5.6416,-0.35278 -5.9916,0 -6.7,0 -7.0499,0.35278 -6.6999,0.35278 -6.3472,0.70555 -6.6971,0.70556 -5.9944,0.70273 -6.3472,1.05833 -5.9916,1.05834 -5.6416,1.41111 -5.6416,1.40829 -5.6417,1.76389 -5.2888,1.76388 -5.286,1.76107 -5.2889,2.11667 -4.936,2.11384 -4.9361,2.46945 -21.5082,-81.09091 6.7,-2.8194 6.6999,-3.175 6.6972,-2.46663 7.0527,-2.46803 7.0499,-2.46803 7.4055,-2.11526 7.4027,-1.76276 7.7555,-1.76304 7.7583,-1.40998 7.7554,-1.41027 4.2306,-0.35278 3.8777,-0.70499 8.1082,-1.05777 8.4639,-0.70499 8.461,-0.35277 4.5833,0 4.2305,-0.3525 8.8138,0 12.3388,0 5.6416,0.3525 5.9944,0.35277 11.2804,1.05749 10.5777,1.05777 5.2888,0.70527 5.2889,1.05749 4.936,0.70527 4.9361,1.05749 4.9361,1.41026 4.936,1.05777 9.1666,2.82053 8.8138,3.17303 4.2305,1.40998 4.2305,1.76389 7.7555,3.87773 7.7583,4.23051 3.525,2.11667 3.5249,2.46662 6.7,4.93607 3.1721,2.46662 3.1722,2.82222 3.175,2.46662 2.8194,2.82223 2.8194,3.17217 2.4695,3.17218 2.8194,3.175 2.4694,3.52496 4.9361,7.40269 2.1138,3.87773 2.4695,4.23333 3.8777,8.8138 2.1138,4.58329 1.7639,4.58329 1.7639,4.93607 1.4083,5.28884 1.7639,4.93325 1.4111,5.64162 1.4083,5.64162 1.4111,5.64162 2.1167,11.98598 1.0555,5.9944 1.0583,6.34718 0.7056,6.69713 0.7055,6.69996 1.4111,13.74986 0.7028,14.8082 0.3528,7.40269 0.3527,7.75547 0,15.86653 0,95.19074 0.3528,10.93046 0.3528,10.22491 0.7055,9.87214 1.0584,9.16657 1.0583,8.8138 1.4083,8.46103 1.7639,7.75546 2.1138,7.05274 2.1167,6.69995 2.8194,6.34436 1.4111,2.82222 1.4111,2.8194 1.4083,2.8194 1.7639,2.46944 1.4111,2.46663 1.7611,2.11666 1.7639,2.11385 1.7639,2.11666 2.1138,1.76389 1.7639,1.76107 2.1138,1.76389 2.1167,1.40829 -3.1722,5.28884 -1.4111,2.46945 -1.7639,2.46662 -3.1722,4.23051 -3.5249,3.88056 -3.5278,3.17217 -1.7611,1.41111 -1.7638,1.40829 -3.8778,2.11667 -1.7639,0.70556 -1.761,0.70273 -3.8778,1.41111 -4.2305,1.05833 -3.8805,0.70556 -4.5833,0.70555 -4.2305,0.70556 -4.5833,0.34996 -4.5833,0.35277 -4.9361,0 -5.2888,-0.35277 -2.8194,-0.34996 -2.4666,-0.35278 -5.2889,-1.05833 -2.4694,-1.05833 -2.4667,-1.05834 -2.1166,-1.05833 -2.4666,-1.05551 -2.4695,-1.41111 -2.1138,-1.41111 -4.5833,-3.52496 -4.5833,-3.87773 -3.8777,-4.23051 -3.8806,-4.23052 -1.7611,-2.46944 -1.7639,-2.11384 -3.1721,-4.58329 -2.4695,-4.58329 -2.4666,-4.58329 -2.1167,-4.58329 -1.761,-4.93607 z m -9.8722,-165.70677 -5.9944,-1.40829 -5.9944,-1.05834 -10.2221,-1.41111 -8.8166,-1.05833 -3.8777,-0.35278 -3.525,0 -7.0499,0 -7.0527,0.35278 -7.0499,0.35278 -6.3472,0.70555 -6.3472,0.70556 -6.3443,0.70555 -5.9944,1.05834 -5.6417,1.05551 -5.2888,1.41111 -5.2888,1.76389 -4.9333,1.40829 -4.5833,1.76389 -4.5833,2.11666 -4.2333,2.11385 -4.2305,2.46944 -3.8777,2.46662 -1.7611,1.05834 -1.7639,1.41111 -3.1722,2.8194 -3.175,2.8194 -2.8194,3.175 -1.4111,1.76106 -1.4111,1.41112 -2.4666,3.52495 -2.1167,3.52496 -2.1138,3.88055 -1.7639,3.87774 -1.4083,3.87773 -1.0583,4.23051 -1.0584,4.23051 -1.0583,4.58329 -0.3528,4.58329 -0.3528,4.93607 -0.3499,4.93606 0.3499,3.87774 0,3.52495 0.3528,3.52778 0.3528,3.17218 0.7055,3.17217 0.7056,3.175 0.7056,3.17218 1.0583,2.8194 1.0555,2.82222 1.4111,2.46663 1.4111,2.46944 1.4083,2.46662 1.7639,2.46945 1.7639,2.11384 1.7611,2.11667 2.1166,1.76107 2.1139,1.76388 2.1166,1.76389 4.9361,3.17218 2.8194,1.41111 2.8222,1.05551 2.8194,1.05834 3.1722,1.05833 6.3472,1.76389 3.5249,0.70273 3.5278,0.35278 3.8777,0.35278 3.8778,0.35278 3.8777,0.35277 4.2305,0 5.6416,0 5.2889,-0.35277 5.2888,-0.35278 4.9361,-0.70556 4.5833,-1.05551 4.9361,-0.70555 4.2305,-1.41112 4.5833,-1.41111 2.1138,-0.70273 1.7639,-0.70556 4.2305,-1.76388 3.525,-2.11667 3.8777,-2.11385 3.175,-2.11666 3.1722,-2.46662 3.1721,-2.8194 2.8223,-2.82223 2.8194,-3.17217 2.4694,-3.17218 2.4666,-3.175 2.1167,-3.87774 2.1138,-3.52495 1.7639,-3.87773 1.7611,-4.23052 1.4111,-4.58328 1.4111,-4.23334 1.0584,-4.93606 1.0555,-4.58329 0.7055,-5.28603 0.7056,-5.28884 0.3528,-5.28884 0.3527,-5.64163 0,-5.9944 0,-41.60237 z"
         id="path4251"
         inkscape:connector-curvature="0" />
      <path
         style="fill:#0094de;fill-opacity:1;fill-rule:evenodd;stroke:none"
         d="m 671.51287,1057.9512 1.0583,5.9944 1.0583,5.9944 1.4111,5.2889 1.7611,4.936 2.1167,4.5833 2.1138,4.2305 2.4695,3.525 1.4082,1.4111 1.4112,1.7611 2.4694,2.4694 2.8194,2.4666 2.8194,2.1167 1.7639,0.7056 1.4111,1.0555 3.1722,1.4111 2.8194,1.0583 3.5278,0.7056 3.1721,0.7055 0.3528,0 0.7056,0 0.3527,0 0.7056,0 4.2305,-0.3527 3.8777,-0.7056 1.7611,-0.3528 2.1167,-0.7055 3.5249,-1.4111 3.8778,-2.1139 1.7639,-1.0583 1.7638,-1.4111 3.1722,-2.8194 1.7639,-1.4111 1.7611,-1.7611 3.1722,-3.5278 2.8222,-3.5249 2.1138,-4.2306 2.1167,-3.8777 0.7055,-2.1167 0.7056,-2.4666 1.0555,-4.5833 0.3528,-2.1166 0.3528,-2.4667 0,-2.4694 0.3527,-2.4666 -0.3527,-3.8778 -0.3528,-4.2305 -0.7027,-3.8777 -0.3528,-2.1167 -0.7056,-2.4666 -0.3528,-1.4111 0,-1.0583 -0.3527,-0.7056 -0.3528,-0.7055 -0.3528,-1.4083 -0.7055,-1.4111 -0.3528,-0.7056 0,-0.7056 -0.7056,-1.0583 -0.3499,-1.0555 -1.4111,-2.1167 -1.4112,-2.1138 -1.4111,-1.7639 -1.761,-1.7639 -1.7639,-1.7611 -1.7611,-1.4111 -2.1167,-1.7639 -2.1166,-1.4082 -9.5166,-4.5833 -4.936,-2.1167 -5.2889,-2.1138 -1.4111,-0.3528 -0.7055,-0.3528 -0.7056,-0.3528 -1.7611,-0.3528 -0.7055,0 -0.7056,-0.3527 -1.4111,-0.7056 -1.4083,-0.7055 -2.8222,-1.0556 -4.5833,-1.7638 -2.1138,-1.0584 -2.1167,-1.0583 -4.2305,-2.4666 -4.2305,-2.46949 -4.2305,-2.8194 -4.2305,-2.8194 -3.8778,-3.5278 -3.8805,-3.5249 -1.7611,-1.7611 -1.7639,-2.1166 -1.4111,-2.4667 -1.7611,-2.4694 -1.4111,-2.4666 -1.0583,-2.8223 -1.0555,-2.8194 -1.0583,-3.175 -1.0584,-3.5249 -0.7055,-3.1722 -1.0584,-7.7555 -0.3527,-3.8805 -0.35,-4.2305 -0.3528,-4.2305 0,-4.5833 0,-3.525 0.3528,-3.5249 0.35,-3.175 0.3527,-3.1722 0.7056,-3.1722 0.7055,-3.175 1.0584,-2.8194 1.0583,-2.8194 1.4083,-2.4694 1.0583,-2.8194 1.7639,-2.4695 1.4083,-2.1138 1.7639,-2.4695 1.7639,-2.1138 2.1138,-1.7639 2.1167,-2.1138 2.4666,-1.7639 2.4695,-1.7639 2.1138,-1.4083 2.4695,-1.7639 2.4666,-1.4111 2.4694,-1.0555 4.9361,-2.1167 2.4666,-1.0583 2.4695,-0.7056 5.286,-1.4083 2.4694,-0.3527 2.8194,-0.3528 5.2889,0 4.5833,0 4.936,0.7055 2.1167,0.7056 2.4666,0.3499 4.2305,1.7639 4.2305,1.7639 2.1167,1.0555 1.7611,1.4111 2.1166,1.4112 1.7639,1.4111 1.7611,1.4083 1.7639,1.7638 3.5249,3.525 1.7639,1.7639 1.4083,1.7611 2.8222,3.8805 2.8194,3.8777 2.1167,3.8778 2.1138,3.8777 2.1167,3.8777 1.7611,3.8778 1.4111,5.2888 0.7055,2.4695 0.3528,2.4666 0.3528,2.1167 0.3528,2.4666 0.3528,4.5833 0,2.8222 -20.0971,0 -1.0583,-4.9361 -1.4083,-4.5833 -1.4111,-4.5833 -1.4111,-3.8805 -2.1139,-3.8777 -1.7639,-3.525 -2.1166,-3.1722 -2.4667,-2.8222 -2.4666,-2.4666 -2.4694,-2.4695 -2.4666,-2.1138 -2.8223,-1.7639 -2.4666,-1.7611 -2.4694,-1.0583 -2.8194,-1.0583 -2.4695,-0.7056 -1.0555,0 -0.3528,0 -0.3527,-0.3528 -1.0584,0 -0.7055,0 -1.0584,0 -0.3527,0 -0.35,-0.3527 -0.7056,0 -0.7055,0 -3.1722,0 -3.175,0.7055 -3.1722,0.7056 -2.8222,1.0583 -2.8194,1.7611 -1.4111,0.7055 -1.4083,1.0584 -2.8222,2.1166 -1.4083,1.4083 -1.4111,1.0583 -1.4111,1.4112 -1.0584,1.4111 -2.1138,2.8194 -2.1167,3.1721 -0.7027,1.4112 -0.7056,1.7638 -1.4111,3.525 -1.0583,3.8777 -0.3528,3.8778 -0.3528,4.2305 0,0.3528 -0.3527,0.3527 0,0.7056 0,0.7055 -0.3528,0.3528 0,0.7056 0,0.3499 0,5.9944 0.7055,5.9944 1.0584,5.2889 1.4111,4.5833 0.7055,2.1138 1.0556,2.1167 2.1166,3.5249 1.4111,1.7639 1.4083,1.4083 1.4111,1.4111 1.7639,1.0584 6.6972,4.5832 3.8777,1.7639 1.7639,1.0555 1.7639,1.0584 3.8777,1.7639 4.2305,1.4083 4.2305,1.7638 4.2305,1.4112 2.1167,0.7055 2.4666,0.7027 2.1167,0.7056 2.1138,0.7056 4.2305,1.4111 3.8778,1.761 3.8805,1.7639 3.8778,2.1167 7.7554,4.58329 3.525,2.4666 3.8805,2.4694 1.7611,1.4083 1.7639,1.7639 1.4083,1.4111 1.7639,1.7611 1.4111,2.1167 1.4083,2.1138 2.4694,4.2305 2.4666,4.9361 2.1167,5.6416 0.7056,2.8194 0.7055,3.175 1.4083,6.3444 0,1.0583 0,1.4111 0,0.7056 0.3528,0.3527 0,0.7056 0,0.35 0,0.7055 0,0.3528 0.3528,0 0,0.3528 0,2.1166 0,2.1139 0,0.7055 0,0.7056 0.3527,0.3528 0,0.7055 0,1.0555 0,2.1167 0,1.0583 -0.3527,1.0584 0,2.1138 -0.3528,2.4695 0,2.1138 -0.3528,2.1167 -0.3528,2.1138 -0.3499,2.4695 -1.4111,5.2888 -1.7639,5.286 -2.1139,5.2889 -2.4694,5.2888 -2.8194,4.9361 -3.175,4.936 -3.525,4.9361 -2.1138,2.4666 -2.1167,2.4695 -1.761,2.1138 -2.1167,2.1167 -2.1167,1.7639 -2.4666,2.1138 -2.1167,1.4111 -2.4666,1.7639 -2.1167,1.4083 -2.4666,1.0583 -2.8194,1.4112 -2.4694,0.7055 -2.4666,1.0555 -2.8223,0.7056 -2.8194,0.7055 -2.8222,0.3528 -3.1722,0.3528 -2.8194,0 -6.3471,-0.3528 -2.8194,-0.3528 -3.175,-0.3527 -2.8194,-0.7056 -2.8194,-1.0583 -3.175,-0.7028 -2.4667,-1.4111 -2.8222,-1.0583 -2.8194,-1.4111 -5.2888,-3.525 -2.4667,-2.1138 -2.4694,-2.1167 -2.4666,-2.4666 -2.4695,-2.4695 -2.4666,-2.4666 -2.1167,-2.8222 -2.1138,-2.8194 -1.7639,-3.1722 -3.5249,-6.3472 -1.7639,-3.5249 -1.4111,-3.5278 -1.4083,-3.5249 -1.4111,-3.525 -1.0584,-3.8777 -0.7055,-4.2305 -1.0555,-3.8778 -0.7056,-4.2333 -0.7056,-4.5833 -0.3527,-4.2305 22.2109,-0.7056 z"
         id="path4253"
         inkscape:connector-curvature="0" />
      <path
         style="fill:#0094de;fill-opacity:1;fill-rule:evenodd;stroke:none"
         d="m 810.07267,997.66291 0.7027,-11.2804 1.4111,-10.9305 2.4695,-10.9276 3.5249,-10.9305 4.2305,-10.5777 5.6417,-10.2249 6.3443,-10.2221 7.0527,-9.5193 8.1083,-9.1666 8.8138,-7.7583 9.1666,-6.6971 4.936,-2.8222 4.9361,-2.4667 4.9361,-2.1166 5.2888,-2.1139 10.9305,-3.175 11.2804,-1.761 11.636,-0.3528 11.6332,0.3528 10.922,1.761 10.5834,3.175 10.2164,3.8778 4.9389,2.4666 4.6002,2.8222 9.5109,6.6971 8.8053,7.7583 8.12803,8.8138 7.7329,9.5194 6.35,10.2249 5.6445,10.9276 4.6002,11.6361 3.4995,11.9859 2.4836,12.6916 1.4111,13.3971 0.7056,13.75259 -0.3669,13.0444 -1.4111,12.6915 -2.1167,11.636 -3.1609,10.9277 -4.2333,10.5776 -4.572,9.5194 -6.0114,9.1666 -6.35,8.461 -7.39423,7.7555 -7.0555,6.6999 -7.7611,6.3472 -3.4996,2.8194 -3.8947,2.4666 -7.7611,4.5833 -8.0998,3.8806 -8.0997,3.1721 -8.4667,2.1167 -6,1.4083 -5.9916,1.0583 -5.9944,0.3528 -5.6416,0.3528 -0.7056,0 -0.7056,0 -1.0555,-0.3528 -0.3527,0 -1.4112,0 -1.4111,0 -9.5193,-1.7639 -9.1666,-2.4666 -9.5194,-3.8777 -8.8138,-4.5833 -8.8138,-5.6416 -8.8138,-6.7 -8.461,-7.7555 -8.1082,-8.8138 -7.7583,-9.8721 -6.3444,-10.2249 -5.6416,-10.9277 -4.5833,-11.636 -3.5249,-11.986 -2.4695,-13.0471 -1.4111,-13.3971 -0.7027,-14.10259 0,-0.7056 z m 22.2109,-2.8194 0.7055,11.28329 1.0555,10.2221 1.4111,9.8721 2.1167,9.5193 2.4666,8.4611 3.1722,8.111 3.5278,7.7555 4.2305,7.0527 9.1666,11.986 9.5193,10.5777 4.9361,4.2305 4.9361,3.8777 10.2221,6.6972 7.7582,3.175 7.4027,2.4666 3.8778,1.0583 3.5277,0.3528 7.05,0.3528 5.9944,-0.3528 6.3443,-1.0583 6.3472,-1.4083 6.3528,-2.1167 5.9831,-2.1166 6.0114,-2.4667 5.6162,-3.1721 5.6444,-3.8806 5.6445,-3.8777 5.3057,-4.5833 10.5552,-10.5749 4.6002,-6.3472 4.2333,-6.6999 3.52783,-7.7555 3.1609,-8.1082 2.4553,-9.1666 1.778,-9.8721 1.0442,-10.5777 0.7056,-11.2805 0,-5.9944 -0.3387,-10.93039 -1.4111,-10.5777 -2.1167,-10.2221 -2.8222,-9.5194 -3.8664,-9.1665 -4.93893,-8.8138 -5.6445,-8.1111 -6.35,-7.7555 -7.0555,-7.0527 -7.0556,-5.9916 -7.3942,-4.936 -7.7611,-4.2306 -7.7611,-3.175 -8.1026,-2.4666 -8.1083,-1.4111 -8.461,-0.3528 -8.4638,0.3528 -8.461,1.4111 -8.1083,2.4666 -8.1082,3.5278 -7.4055,4.2305 -7.4027,5.2889 -3.8778,2.8194 -3.5249,3.5249 -6.7,7.0528 -6.3472,7.7554 -5.6388,8.1083 -4.5832,8.4638 -3.8806,8.461 -2.8194,8.8138 -2.1167,8.8138 -1.4083,9.5194 -0.3527,9.5194 0,-1.0584 z"
         id="path4255"
         inkscape:connector-curvature="0" />
      <path
         style="fill:#0094de;fill-opacity:1;fill-rule:evenodd;stroke:none"
         d="m 1086.8424,1130.2283 0,-253.84759 31.3831,0 75.7766,216.47579 75.8049,-216.47579 33.4998,0 0,253.84759 -21.844,0 0,-224.58389 -78.6271,224.58389 -17.6389,0 -78.2602,-224.58389 0,224.58389 -20.0942,0 z"
         id="path4257"
         inkscape:connector-curvature="0" />
      <path
         style="fill:#0094de;fill-opacity:1;fill-rule:evenodd;stroke:none"
         d="m 1354.7841,997.66291 0.7056,-11.2804 1.4111,-10.9305 2.4553,-10.9276 3.5278,-10.9305 4.2334,-10.5777 5.6444,-10.2249 6.35,-10.2221 7.0556,-9.5193 8.0997,-9.1666 8.8054,-7.7583 9.1722,-6.6971 4.9389,-2.8222 4.9389,-2.4667 4.9389,-2.1166 5.2775,-2.1139 10.9502,-3.175 11.2607,-1.761 11.6558,-0.3528 11.6275,0.3528 10.922,1.761 10.5834,3.175 10.2164,3.8778 4.9389,2.4666 4.572,2.8222 9.5391,6.6971 8.8053,7.7583 8.0998,8.8138 7.7611,9.5194 6.35,10.2249 5.6445,10.9276 4.572,11.6361 3.5278,11.9859 2.4835,12.6916 1.7498,13.3971 0.3669,13.75259 -0.3669,13.0444 -1.4111,12.6915 -2.1167,11.636 -3.1609,10.9277 -4.2333,10.5776 -4.572,9.5194 -6.0113,9.1666 -6.35,8.461 -7.3943,7.7555 -7.0555,6.6999 -7.7611,6.3472 -3.5278,2.8194 -3.8665,2.4666 -7.7611,4.5833 -8.0997,3.8806 -8.128,3.1721 -8.4385,2.1167 -6.0113,1.4083 -5.9831,1.0583 -6.0114,0.3528 -5.6162,0.3528 -0.7055,0 -0.7056,0 -1.0724,-0.3528 -0.3387,0 -1.4111,0 -1.4111,0 -9.5391,-1.7639 -9.144,-2.4666 -9.5392,-3.8777 -8.8053,-4.5833 -8.8053,-5.6416 -8.8336,-6.7 -8.4384,-7.7555 -8.128,-8.8138 -7.7611,-9.8721 -6.3218,-10.2249 -5.6445,-10.9277 -4.6002,-11.636 -3.5278,-11.986 -2.4553,-13.0471 -1.4111,-13.3971 -0.7056,-14.10259 0,-0.7056 z m 22.2109,-2.8194 0.7056,11.28329 1.0442,10.2221 1.4111,9.8721 2.1167,9.5193 2.4835,8.4611 3.1609,8.111 3.5278,7.7555 4.2333,7.0527 9.1723,11.986 9.5109,10.5777 4.9388,4.2305 4.9389,3.8777 10.2165,6.6972 7.7611,3.175 7.3942,2.4666 3.8947,1.0583 3.5278,0.3528 7.0555,0.3528 5.9831,-0.3528 6.35,-1.0583 6.35,-1.4083 6.35,-2.1167 5.9831,-2.1166 5.9831,-2.4667 5.6445,-3.1721 5.6444,-3.8806 5.6445,-3.8777 5.2775,-4.5833 10.5834,-10.5749 4.6002,-6.3472 4.2051,-6.6999 3.5278,-7.7555 3.1891,-8.1082 2.4553,-9.1666 1.778,-9.8721 1.0442,-10.5777 0.7056,-11.2805 0,-5.9944 -0.3387,-10.93039 -1.4111,-10.5777 -2.1166,-10.2221 -2.8223,-9.5194 -3.8946,-9.1665 -4.9389,-8.8138 -5.6162,-8.1111 -6.35,-7.7555 -7.0556,-7.0527 -7.0556,-5.9916 -7.3942,-4.936 -7.7611,-4.2306 -7.7611,-3.175 -8.0998,-2.4666 -8.128,-1.4111 -8.4384,-0.3528 -8.4667,0.3528 -8.4667,1.4111 -8.0997,2.4666 -8.128,3.5278 -7.3943,4.2305 -7.3942,5.2889 -3.8946,2.8194 -3.5278,3.5249 -6.6887,7.0528 -6.35,7.7554 -5.6444,8.1083 -4.572,8.4638 -3.8947,8.461 -2.8222,8.8138 -2.1167,8.8138 -1.4111,9.5194 -0.3387,9.5194 0,-1.0584 z"
         id="path4259"
         inkscape:connector-curvature="0" />
      <path
         style="fill:#0094de;fill-opacity:1;fill-rule:evenodd;stroke:none"
         d="m 1636.837,1057.6013 0.7056,6.3443 1.4111,5.9944 1.4111,5.2889 1.7498,4.936 1.778,4.5833 2.1167,3.8778 2.4553,3.8777 2.8222,2.8194 5.6445,5.2888 5.9831,3.8778 6.0113,2.4694 6.6887,1.0584 0.3669,0 0.3386,0 0.7056,0 0.7055,0 8.0998,-0.7056 7.4225,-2.4694 3.5277,-2.1139 3.5278,-2.4694 7.0273,-5.9916 3.1892,-3.5278 2.4553,-3.8777 2.4835,-3.8778 1.7498,-4.2305 1.778,-4.2305 1.0442,-4.5833 0.7056,-4.5833 0,-4.936 0,-3.8778 -0.3387,-4.2305 -0.7055,-3.8777 -1.0725,-4.5833 -0.3386,-1.4111 -0.3669,-1.4111 -0.3387,-1.0583 -0.3669,-1.4083 -0.7055,-1.4111 -0.3387,-1.4112 -0.7056,-1.0583 -0.7055,-1.0555 -2.4836,-4.2305 -3.1609,-3.5278 -3.8946,-3.5249 -3.8665,-2.8194 -9.5109,-4.5833 -10.2446,-4.2305 -1.4111,-0.3528 -1.3829,-0.7056 -1.778,-0.3528 -1.4111,-0.3527 -2.8223,-1.4111 -3.1608,-1.0556 -8.4667,-3.8805 -8.8053,-4.93609 -8.128,-5.9916 -7.7612,-6.6999 -3.5277,-3.8777 -3.1609,-4.9361 -2.4554,-5.2889 -2.4835,-5.9944 -1.4111,-7.0499 -1.4111,-7.4027 -0.7056,-8.111 0,-8.8138 0.3669,-7.0499 0.7056,-6.3472 1.4111,-6.3472 2.1166,-5.6388 2.4554,-5.2888 3.1891,-4.5833 3.4995,-4.5833 4.2334,-3.8777 9.5391,-6.7 9.5109,-4.5833 5.2775,-1.7639 4.9389,-1.4083 10.5833,-0.7055 9.5109,0.7055 9.1723,2.4667 3.8946,2.1166 4.2051,2.4666 7.4225,5.9944 6.6886,7.05 5.3058,7.4055 4.572,8.1082 3.5278,7.7555 1.4111,5.2888 1.4111,4.9361 0.7056,4.5833 0,4.5833 0,2.4694 -19.7556,0 -2.4553,-9.1666 -3.1891,-8.4638 -3.8665,-7.4027 -4.2333,-5.9944 -5.2776,-4.9361 -4.9388,-3.8777 -5.3058,-2.8194 -5.2776,-1.7639 -0.7055,0 -0.7056,-0.3528 -1.0724,0 -1.0443,0 -0.7055,0 -0.7056,-0.3527 -1.0442,0 -0.7055,0 -6.0114,0.3527 -5.9831,2.1167 -6.0113,3.525 -5.2776,4.5832 -4.9389,5.6417 -3.5277,6.3471 -1.0443,3.525 -1.0724,3.8777 -0.7056,3.8778 -0.3386,4.2305 0,0.3528 -0.3669,0.3527 0,0.7056 0,0.7055 0,0.3528 0,0.7056 0,0.3499 0.7055,11.9888 2.4836,9.8722 3.8664,7.7554 2.8223,3.1722 3.1891,2.4695 6.6886,4.2305 7.3943,3.8777 8.128,3.525 8.4384,2.8222 2.1167,1.0583 2.1166,0.7027 2.1167,0.7056 2.4836,0.7056 8.0997,3.1721 7.7611,3.8806 7.3943,4.58329 7.4224,4.936 3.4996,3.1722 3.1891,3.1722 5.6444,8.461 2.4554,4.9361 1.778,5.6416 1.7497,5.9944 1.4111,6.3444 0,1.0583 0,1.4111 0,0.3528 0.3669,0.7055 0,0.7056 0,0.35 0,0.7055 0.3387,0 0,0.7056 0,2.1166 0,2.1139 0,0.7055 0.3669,1.0584 0,0.7055 0,0.7056 0,2.4666 -0.3669,1.7639 0,2.4666 -0.3387,2.4695 0,2.1138 -0.7055,2.1167 0,2.1138 -0.7056,2.4695 -3.1891,10.5748 -4.572,10.5777 -6.0113,9.8721 -7.3942,9.5194 -3.8665,4.5833 -4.6002,3.5249 -4.572,3.5278 -4.9389,2.4666 -4.9389,2.1167 -5.6444,1.7611 -5.6445,1.0583 -5.6444,0.3528 -12.3331,-1.0583 -5.9831,-1.7639 -5.6445,-2.1139 -5.2775,-2.4694 -5.3058,-3.525 -5.2776,-4.2305 -4.6002,-4.9361 -4.572,-5.2888 -4.2333,-5.9916 -3.5278,-6.3472 -3.1609,-7.0527 -2.4836,-7.4027 -2.1166,-7.7554 -1.4111,-8.1111 -1.0443,-8.8138 22.2109,-1.0555 z"
         id="path4261"
         inkscape:connector-curvature="0" />
      <path
         style="fill:#0094de;fill-opacity:1;fill-rule:evenodd;stroke:none"
         d="m 1938.6173,984.61861 2.4835,-12.6915 3.1609,-11.986 3.8947,-11.636 4.572,-10.5777 5.3057,-9.8721 5.9832,-9.1666 6.6886,-8.461 7.4225,-7.7555 8.0997,-6.7 8.0998,-5.9915 8.128,-5.2889 8.0998,-4.5833 8.4667,-3.175 8.4666,-2.8194 8.8054,-1.4111 8.8053,-0.7055 0.7056,0 0.7055,0 0.3669,0 0.7056,0 2.1166,0 1.7498,0 1.0442,0 1.0725,0 1.0442,0.3527 1.0724,0 12.7,2.1167 12.6718,4.2305 11.9945,5.6416 11.9944,8.1083 11.6276,9.5193 5.2775,5.6417 4.9389,6.3443 9.1722,14.1027 8.128,16.2193 -24.6944,-0.7056 -6.35,-11.2804 -3.1609,-4.9361 -3.5278,-4.5833 -7.7611,-8.111 -8.4667,-6.3444 -9.1722,-5.2888 -9.144,-3.525 -9.5391,-2.4694 -9.5109,-1.0584 -0.7055,0 -0.7056,0 -0.3387,0 -0.7055,0 -1.778,0 -1.4111,0 -0.7056,0 -0.3387,0 -1.0724,0.3528 -0.7056,0 -7.7611,1.0583 -7.3942,2.1167 -7.3942,2.4666 -7.4225,3.525 -7.3942,4.2305 -7.0555,4.9361 -6.6887,5.9944 -6.7169,6.3471 -3.1609,3.525 -2.8222,3.8777 -5.2776,7.7555 -4.6002,8.4638 -3.5278,8.8138 -2.8222,9.8722 -2.1166,10.2221 -1.0443,10.5777 -0.3669,11.28319 0.3669,13.3971 1.7498,12.6915 2.1167,11.636 2.8222,10.9277 3.5278,9.8721 4.6002,8.8138 4.9389,7.7583 5.9831,6.6971 6.35,5.9944 6.6887,5.2889 6.6886,4.2305 6.7169,3.8777 7.0556,2.8194 7.3942,2.1167 14.8167,2.1138 0.7055,0 0.3387,0 0.7055,0 0.3669,0 0.3387,0 0.3669,0 1.4111,0 1.4111,0 1.4111,0 1.7498,-0.3499 10.5833,-1.4111 10.2165,-2.4695 10.2164,-3.8777 9.8778,-4.9361 9.1722,-5.9915 7.7611,-7.0528 6.6887,-7.7554 5.6444,-8.8138 24.6663,-1.0584 -3.8665,7.7555 -4.2333,7.0527 -9.1722,13.0443 -4.9389,5.6417 -5.2776,5.286 -10.922,9.1694 -5.6444,3.8777 -5.9831,3.1722 -11.6558,5.6416 -11.9662,3.525 -6.0114,1.4111 -6.35,0.7055 -1.4111,0 -1.4111,0.3528 -1.7498,0 -1.4111,0 -1.4111,0 -1.4111,0.35 -1.7498,0 -1.4111,0 -10.2447,-0.35 -10.2164,-1.7639 -9.8778,-2.4694 -9.8778,-3.8778 -9.5108,-4.5832 -9.1723,-5.9916 -8.8053,-7.0528 -8.8053,-8.1082 -8.128,-9.1666 -6.6887,-9.8721 -5.9831,-10.5777 -4.9389,-11.6332 -3.5278,-12.3416 -2.8222,-13.3971 -1.778,-14.1026 -0.3387,-14.8082 0,-1.7611 0,-2.46939 0,-2.1139 0.7056,-2.4694 0,-1.0583 0.3387,-0.7028 0,-1.4111 0,-1.0583 0,-1.0584 0,-1.0555 0,-1.0583 0,-1.0583 0,-0.7056 z"
         id="path4263"
         inkscape:connector-curvature="0" />
      <path
         style="fill:#0094de;fill-opacity:1;fill-rule:evenodd;stroke:none"
         d="m 2185.0819,984.61861 2.4554,-12.6915 2.8222,-11.986 3.8664,-11.636 4.6002,-10.5777 5.2776,-9.8721 6.0113,-9.1666 6.6887,-8.461 7.3942,-7.7555 8.128,-6.7 8.0998,-5.9915 8.0998,-5.2889 8.4666,-4.5833 8.0998,-3.175 8.8336,-2.8194 8.4666,-1.4111 8.8054,-0.7055 0.7055,0 0.7056,0 0.7055,0 0.7056,0 1.7498,0 1.778,0 1.0442,0 1.4111,0 0.7056,0.3527 1.0724,0 12.6718,2.1167 12.7,4.2305 12.3331,5.6416 11.6558,8.1083 11.6275,9.5193 5.2776,5.6417 4.9389,6.3443 9.1722,14.1027 8.0998,16.2193 -24.6662,-0.7056 -6.0114,-11.2804 -3.5278,-4.9361 -3.4995,-4.5833 -7.4225,-8.111 -8.8053,-6.3444 -9.1722,-5.2888 -9.1722,-3.525 -9.5109,-2.4694 -9.5109,-1.0584 -0.7056,0 -0.7055,0 -0.3669,0 -0.3387,0 -1.778,0 -1.4111,0 -0.7055,0 -0.7056,0 -1.0442,0.3528 -0.3669,0 -7.7329,1.0583 -7.7611,2.1167 -7.4225,2.4666 -7.3942,3.525 -7.0555,4.2305 -7.0556,4.9361 -7.0555,5.9944 -6.3218,6.3471 -3.1891,3.525 -3.1609,3.8777 -5.3058,7.7555 -4.2333,8.4638 -3.8665,8.8138 -2.8222,9.8722 -2.1167,10.2221 -1.0442,10.5777 -0.3669,11.28319 0.7056,13.3971 1.4111,12.6915 2.1167,11.636 2.8222,10.9277 3.5278,9.8721 4.572,8.8138 5.3057,7.7583 5.9831,6.6971 6.35,5.9944 6.35,5.2889 6.6887,4.2305 7.0556,3.8777 7.0555,2.8194 7.0556,2.1167 14.7884,2.1138 0.7056,0 0.7055,0 0.3669,0 0.3387,0 0.3669,0 0.3386,0 1.4112,0 1.4111,0 1.4111,0 1.778,-0.3499 10.5551,-1.4111 10.5833,-2.4695 9.8778,-3.8777 9.8778,-4.9361 9.1722,-5.9915 7.7329,-7.0528 6.7169,-7.7554 5.6444,-8.8138 24.6662,-1.0584 -3.8664,7.7555 -4.2333,7.0527 -9.1723,13.0443 -4.9388,5.6417 -4.9389,5.286 -10.922,9.1694 -5.9831,3.8777 -5.6445,3.1722 -11.9944,5.6416 -11.9945,3.525 -5.9831,1.4111 -5.9831,0.7055 -1.778,0 -1.4111,0.3528 -1.7498,0 -1.4111,0 -1.4111,0 -1.4111,0.35 -1.778,0 -1.4111,0 -10.2165,-0.35 -10.2164,-1.7639 -9.8778,-2.4694 -9.8778,-3.8778 -9.1722,-4.5832 -9.5109,-5.9916 -8.8053,-7.0528 -8.8336,-8.1082 -7.7329,-9.1666 -7.0555,-9.8721 -6.0114,-10.5777 -4.9388,-11.6332 -3.4996,-12.3416 -2.8222,-13.3971 -1.4111,-14.1026 -0.7056,-14.8082 0,-1.7611 0,-2.46939 0.3387,-2.1139 0.3669,-2.4694 0,-1.0583 0.3386,-0.7028 0,-1.4111 0,-1.0583 0,-1.0584 0.3669,-1.0555 0,-1.0583 0,-1.0583 0,-0.7056 z"
         id="path4265"
         inkscape:connector-curvature="0" />
      <path
         style="fill:#0094de;fill-opacity:1;fill-rule:evenodd;stroke:none"
         d="m 2437.1628,1130.2283 0,-253.84759 20.0942,0 0,89.1992 4.9389,-5.6388 4.9389,-5.2888 5.2776,-4.5833 5.2775,-3.8806 5.6445,-2.8194 5.6444,-2.4666 5.6445,-1.7639 5.6444,-0.7056 0.7056,0 0.7055,-0.3527 0.7056,0 0.3386,0 1.4111,0 1.4112,0 6.35,0.3527 6.35,1.0584 5.9831,1.7639 6.0113,2.8194 5.6444,3.1721 5.6163,4.2306 5.6444,4.5832 5.3058,5.2889 4.9389,5.9944 4.2333,5.9944 3.4996,6.3443 2.8222,6.7 2.4835,6.6971 1.7498,7.05279 0.7056,7.0499 0.3669,7.4055 0,115.6405 -22.5778,0 0,-116.3461 -2.4553,-11.2832 -3.5278,-9.87209 -4.572,-8.4611 -5.6445,-7.0499 -6.7169,-5.6416 -6.6886,-4.5833 -6.6887,-2.8194 -3.8947,-1.0583 -3.5277,-0.3528 -0.7056,0 -0.3387,-0.3528 -0.7055,0 -0.7056,0 -0.7055,0 -1.0725,0 -8.4666,0.7056 -4.2051,1.0583 -3.8947,1.7611 -7.3942,4.5833 -7.7611,6.3471 -3.1609,3.8778 -2.8223,4.2305 -2.4835,4.5833 -1.7498,4.5833 -1.778,5.2888 -1.0442,5.64159 -0.7056,5.9944 0,6.3444 0,112.8211 -20.0942,0 z"
         id="path4267"
         inkscape:connector-curvature="0" />
      <path
         style="fill:#0094de;fill-opacity:1;fill-rule:evenodd;stroke:none"
         d="m 2618.7164,984.61861 2.4835,-12.6915 3.1609,-11.986 3.8947,-11.636 4.572,-10.5777 5.2775,-9.8721 6.0114,-9.1666 6.6886,-8.461 7.3943,-7.7555 7.7611,-6.7 8.128,-5.9915 8.0997,-5.2889 8.4667,-4.5833 8.4667,-3.175 8.4384,-2.8194 8.8336,-1.4111 8.8053,-0.7055 0.3669,0 0.7056,0 0.6773,0 0.7055,0 1.778,0 2.1167,0 1.0442,0 1.0725,0 1.0442,0.3527 0.7056,0 13.0668,2.1167 12.3332,4.2305 12.3331,5.6416 11.9944,8.1083 11.2889,9.5193 5.2776,5.6417 4.9388,6.3443 9.1723,14.1027 8.0997,16.2193 -24.6944,-0.7056 -5.9831,-11.2804 -3.1609,-4.9361 -3.5278,-4.5833 -7.7611,-8.111 -8.8053,-6.3444 -8.8336,-5.2888 -9.5109,-3.525 -9.5109,-2.4694 -9.5391,-1.0584 -0.7055,0 -0.3387,0 -0.7055,0 -0.3669,0 -1.7498,0 -1.4111,0 -0.7056,0 -0.7055,0 -0.7056,0.3528 -0.7055,0 -7.7612,1.0583 -7.7611,2.1167 -7.3942,2.4666 -7.3942,3.525 -7.0556,4.2305 -7.0555,4.9361 -6.6887,5.9944 -6.7169,6.3471 -3.1609,3.525 -2.8222,3.8777 -5.2775,7.7555 -4.6003,8.4638 -3.5277,8.8138 -2.8223,9.8722 -2.1166,10.2221 -1.4111,10.5777 -0.3387,11.28319 0.7055,13.3971 1.4112,12.6915 2.1166,11.636 2.8222,10.9277 3.8665,9.8721 4.2333,8.8138 5.2776,7.7583 6.0113,6.6971 6.35,5.9944 6.6887,5.2889 6.6886,4.2305 6.7169,3.8777 7.0556,2.8194 7.0273,2.1167 14.8167,2.1138 0.7055,0 0.7056,0 0.3669,0 0.7055,0 0.3387,0 1.7498,0 1.4111,0 1.4111,0 1.778,-0.3499 10.5833,-1.4111 10.2165,-2.4695 10.2164,-3.8777 9.8778,-4.9361 8.8053,-5.9915 7.7612,-7.0528 7.0555,-7.7554 5.6445,-8.8138 24.6662,-1.0584 -4.2334,7.7555 -4.2051,7.0527 -9.1722,13.0443 -4.9389,5.6417 -4.9389,5.286 -10.922,9.1694 -5.6444,3.8777 -6.0113,3.1722 -11.6276,5.6416 -11.9944,3.525 -6.3218,1.4111 -6.0114,0.7055 -1.4111,0 -1.4111,0.3528 -1.7498,0 -1.4111,0 -1.4111,0 -1.4111,0.35 -1.778,0 -1.4111,0 -10.5551,-0.35 -10.2447,-1.7639 -9.8495,-2.4694 -9.5391,-3.8778 -9.5109,-4.5832 -9.1723,-5.9916 -9.1722,-7.0528 -8.4384,-8.1082 -8.128,-9.1666 -7.0556,-9.8721 -5.9831,-10.5777 -4.572,-11.6332 -3.8947,-12.3416 -2.4553,-13.3971 -1.778,-14.1026 -0.7055,-14.8082 0,-1.7611 0,-2.46939 0.3668,-2.1139 0.3387,-2.4694 0,-1.0583 0.3669,-0.7028 0,-1.4111 0,-1.0583 0,-1.0584 0.3387,-1.0555 0,-1.0583 0,-1.0583 0,-0.7056 z"
         id="path4269"
         inkscape:connector-curvature="0" />
    </g>
  </g>
</svg>
