<?xml version="1.0" encoding="UTF-8" standalone="no"?>
<!-- Created with Inkscape (http://www.inkscape.org/) -->

<svg
   xmlns:dc="http://purl.org/dc/elements/1.1/"
   xmlns:cc="http://creativecommons.org/ns#"
   xmlns:rdf="http://www.w3.org/1999/02/22-rdf-syntax-ns#"
   xmlns:svg="http://www.w3.org/2000/svg"
   xmlns="http://www.w3.org/2000/svg"
   xmlns:sodipodi="http://sodipodi.sourceforge.net/DTD/sodipodi-0.dtd"
   xmlns:inkscape="http://www.inkscape.org/namespaces/inkscape"
   width="1157.7994mm"
   height="433.12936mm"
   viewBox="0 0 4102.439 1534.7103"
   id="svg4150"
   version="1.1"
   inkscape:version="0.91 r13725"
   sodipodi:docname="optima.svg">
  <defs
     id="defs4152">
    <pattern
       y="0"
       x="0"
       height="6"
       width="6"
       patternUnits="userSpaceOnUse"
       id="EMFhbasepattern" />
    <pattern
       y="0"
       x="0"
       height="6"
       width="6"
       patternUnits="userSpaceOnUse"
       id="EMFhbasepattern-3" />
  </defs>
  <sodipodi:namedview
     id="base"
     pagecolor="#ffffff"
     bordercolor="#666666"
     borderopacity="1.0"
     inkscape:pageopacity="0.0"
     inkscape:pageshadow="2"
     inkscape:zoom="0.17473802"
     inkscape:cx="1763.54"
     inkscape:cy="1299.4021"
     inkscape:document-units="px"
     inkscape:current-layer="layer1"
     showgrid="false"
     fit-margin-top="0"
     fit-margin-left="0"
     fit-margin-right="0"
     fit-margin-bottom="0"
     inkscape:window-width="1920"
     inkscape:window-height="1138"
     inkscape:window-x="1358"
     inkscape:window-y="-8"
     inkscape:window-maximized="1" />
  <metadata
     id="metadata4155">
    <rdf:RDF>
      <cc:Work
         rdf:about="">
        <dc:format>image/svg+xml</dc:format>
        <dc:type
           rdf:resource="http://purl.org/dc/dcmitype/StillImage" />
        <dc:title></dc:title>
      </cc:Work>
    </rdf:RDF>
  </metadata>
  <g
     inkscape:label="Capa 1"
     inkscape:groupmode="layer"
     id="layer1"
     transform="translate(826.52884,275.83255)">
    <g
       id="g4804">
      <path
         style="fill:#8bb331;fill-opacity:1;fill-rule:evenodd;stroke:none"
         d="m 2750.5814,71.79467 -1.7498,2.82222 11.2607,14.10265 10.5833,10.22491 10.2447,7.75547 5.2776,2.8194 5.2775,2.46944 6.0114,1.76107 6.35,1.76389 14.0828,2.8194 37.7332,4.23051 10.922,0 9.1722,-1.76107 4.2333,-1.76389 3.8665,-2.11384 3.5277,-2.46945 3.1891,-2.8194 5.6445,-6.69995 4.572,-7.75547 3.5278,-9.16658 2.8222,-9.51935 1.7498,-10.22491 0.7055,-10.57769 0,-10.57487 -0.3386,-10.57769 -3.1892,-20.44982 -4.9388,-17.2748199 -3.1609,-7.05132 -3.5278,-4.9357901 -3.8665,-3.52552 -4.6002,-2.46803 -4.572,-0.70528 -4.6002,-0.35249 -9.5109,2.46803 -4.572,1.76276 -4.2333,2.46804 -7.0556,4.5832801 -6.6886,5.64106 -94.1494,75.0950999 z m -50.4049,14.8082 112.0987,-148.78163 112.1269,-148.78191 3.1609,-2.82053 3.5278,-2.46803 4.6002,-1.76276 5.2775,-0.70527 2.4836,0.35278 2.794,0.70499 2.8222,1.76276 2.4836,2.46803 2.4553,3.52552 2.4836,4.58357 3.1608,8.46131 3.8947,15.5129 4.572,20.80119 4.9389,25.73726 4.2333,29.26277 3.8665,32.08331 2.4835,33.84634 1.0443,17.27567 0.3668,17.2756701 0,16.9223299 -0.7055,17.27764 -1.0725,16.56927 -2.1166,16.56927 -2.4554,15.51375 -3.1891,15.16098 -3.8664,14.45542 -4.9389,13.39709 -5.6444,12.33876 -6.6887,10.93046 -7.4225,9.87214 -4.2051,4.58329 -4.6002,4.23051 -9.5109,6.69713 -5.3058,2.82222 -5.6162,2.46662 -6.0113,2.11667 -5.9831,1.40829 -13.4056,1.76389 -26.4442,0 -12.7,-0.70556 -11.6276,-1.40829 -22.2108,-3.88055 -19.7274,-5.6388 -17.6389,-7.05273 -15.5222,-7.75547 -13.7442,-8.8138 -11.9945,-8.8138 -10.2164,-9.16658 -8.4667,-8.81662 -7.0555,-8.10825 -5.6162,-7.75546 -7.0556,-10.93047 -2.1167,-4.58329 z"
         id="path4763"
         inkscape:connector-curvature="0" />
      <path
         style="fill:#0091c7;fill-opacity:1;fill-rule:evenodd;stroke:none"
         d="m 2639.8939,9.3925201 2.4553,2.4666199 16.5664,-5.9929899 13.4056,-6.34604997 10.5833,-7.40382003 4.2334,-3.8782901 4.2051,-4.58329 7.4224,-10.22435 7.0556,-12.69238 7.7329,-15.51291 8.8335,-18.68593 2.1167,-5.28828 1.4111,-4.93607 1.0442,-9.51907 0,-4.2308 -0.7055,-4.58328 -1.4111,-3.8783 -1.4112,-4.2308 -2.1166,-3.87829 -2.4554,-3.52552 -6.0113,-7.05133 -7.3942,-5.99355 -8.0998,-5.64106 -9.1722,-4.93578 -9.5109,-4.23079 -10.2447,-3.8783 -10.2164,-2.82053 -10.2165,-2.11526 -9.8777,-1.76276 -17.9776,-1.05777 -7.3942,1.05777 -6.35,1.76276 -4.6002,2.46775 -3.5278,3.52581 -2.4553,3.87829 -1.4112,4.58329 -1.0442,9.51908 1.0442,9.51935 2.1167,8.46159 3.1609,8.10881 40.2167,113.5264301 z m -2.1167,52.5300199 -104.3658,-154.42184 -103.9989,-154.42297 -1.778,-3.87824 -1.0442,-4.23077 -0.3669,-4.93589 0.3669,-2.46795 0.7056,-2.8205 1.0442,-2.1154 1.778,-2.46795 2.4553,-1.76281 3.5278,-1.76282 3.8664,-1.41026 5.3058,-1.05769 9.1722,0 15.494,1.41026 47.244,6.34614 28.9278,5.28848 31.7218,7.05126 32.7942,8.46165 16.5665,4.58328 16.1995,5.28828 16.5947,5.64106 15.8609,6.34633 15.494,6.34605 14.8166,7.05132 14.1112,7.40382 13.0386,8.10909 12.3331,8.46131 10.9503,8.81436 9.8495,9.51907 4.6002,4.93607 3.8665,4.93579 7.0555,10.22434 2.8223,5.64106 2.1166,5.28828 3.5278,11.63461 1.0442,5.99384 0.3669,5.99355 0,6.34605 -0.3669,6.34605 -1.4111,6.34633 -1.4111,6.69854 -4.2333,13.04488 -4.572,11.98739 -9.8778,22.21145 -5.2776,10.22435 -5.6444,9.51935 -11.6276,16.5704001 -6.35,7.75631 -5.9831,6.69911 -12.7,12.3387599 -12.7,10.22491 -12.3331,8.46102 -11.6275,6.69996 -11.2889,5.28884 -10.2165,3.87773 -8.8335,2.8194 -12.7,2.82223 -4.9107,0.70273 z"
         id="path4765"
         inkscape:connector-curvature="0" />
      <path
         style="fill:#ea3c3d;fill-opacity:1;fill-rule:evenodd;stroke:none"
         d="m 2550.3165,94.00838 3.1891,-1.41111 -0.3668,-9.51935 -0.7056,-8.46103 -2.4553,-14.45542 -1.4111,-6.34718 -2.1167,-5.64162 -2.8222,-5.6388 -2.8223,-5.28884 -3.5277,-4.93607 -2.1167,-2.46944 -2.1167,-2.46663 -9.8495,-10.57768 -12.7,-11.6340499 -15.5222,-14.10265 -8.4667,-6.3463301 -4.2333,-2.11525 -4.572,-1.76276 -4.2334,-1.05777 -4.2333,-0.70499 -4.572,0 -4.2333,0.35249 -8.4667,2.11526 -4.2333,1.76304 -4.2334,1.76276 -8.0998,5.2882801 -3.8664,2.82053 -3.8947,3.5258 -7.3942,7.05132 -6.7169,8.1082499 -6.6886,8.46102 -5.6445,9.16658 -9.5109,17.9832 -3.5278,8.8138 -2.8222,8.10824 -1.4111,7.40269 0,6.34718 1.0725,5.28884 2.4553,4.23052 3.1609,3.52495 3.5278,2.82222 4.6002,2.11385 4.572,1.76389 9.5109,1.76106 8.4666,0.35278 8.4667,-0.70555 120.5653,-5.28603 z m 49.3607,17.27483 -178.0258,54.64668 -178.054,54.64669 -4.2333,0.35278 -4.572,0 -4.6002,-1.05551 -4.572,-2.46944 -2.1167,-2.11385 -1.4111,-2.11667 -1.4111,-3.17217 -0.7056,-3.52778 0,-4.23051 0.7056,-5.28885 1.0724,-3.52495 1.7498,-5.28885 5.6444,-14.45542 8.4667,-19.74144 11.2607,-23.622 13.7724,-26.09145 15.8609,-28.20529 17.6107,-28.90802 9.5391,-14.45542 9.8778,-14.10265 10.2164,-14.1031999 10.2165,-13.39738 5.6444,-6.3463301 5.2776,-6.34605 10.9502,-12.3396 11.2606,-11.28211 11.6558,-10.22435 11.6276,-9.16686 11.6275,-8.10881 11.9945,-6.69883 11.9944,-4.93578 11.9662,-3.5258 6.0114,-1.41027 5.9831,-0.70499 11.6275,0.3525 11.9945,2.11554 11.9944,4.23079 11.6276,6.34605 21.5053,15.51291 18.3445,16.2179 8.0997,8.10881 7.3943,8.10909 12.7,15.8654 5.3057,8.1090901 4.9107,8.10881 8.128,15.5134699 5.9831,15.16098 4.572,14.09982 2.8222,13.39992 1.778,12.33875 0.7056,10.57769 0,9.51936 -0.3669,7.40268 -0.3387,5.64163 -1.0724,4.58329 z"
         id="path4767"
         inkscape:connector-curvature="0" />
      <path
         style="fill:#fa8331;fill-opacity:1;fill-rule:evenodd;stroke:none"
         d="m 2608.1439,201.53787 -0.3387,-3.52495 -17.272,-4.23051 -14.8167,-2.11385 -12.7,0 -11.6275,2.46662 -11.9945,4.23051 -13.0386,6.69996 -14.8167,8.46102 -17.9776,10.57769 -8.4666,6.34436 -3.5278,3.52777 -2.794,3.87774 -2.4836,3.52495 -1.7497,4.23051 -2.1167,8.10825 -0.7056,4.58329 0,4.23051 1.4112,9.16658 2.4553,9.16657 3.5278,9.51936 4.9389,9.16658 5.6444,8.81662 6.35,8.46102 6.6887,8.46102 7.3942,7.40269 7.4224,6.69996 7.0556,5.9944 7.0273,4.93607 6.7169,3.87773 3.1609,1.05551 2.8222,0.70556 5.6445,0.35277 4.572,-0.70555 4.2333,-2.11385 3.8947,-2.82222 3.5277,-3.52495 2.8223,-3.87774 4.2051,-8.46102 2.8222,-8.10824 2.1167,-8.46385 29.972,-116.69889 z m 31.3831,-42.30511 0,186.15378 0,186.50655 -0.7056,4.23052 -1.4111,3.87773 -2.4553,4.58329 -3.8947,3.52495 -2.1167,1.41111 -2.8222,0.70556 -7.0273,0 -3.8947,-1.41111 -4.9389,-2.11667 -7.3942,-4.93606 -12.3331,-9.86932 -16.2278,-14.10264 -19.3886,-17.63042 -21.1667,-20.79978 -22.2109,-23.26922 -22.5496,-25.38589 -21.5053,-26.79418 -10.5833,-13.74987 -9.5109,-14.10264 -9.1722,-13.74987 -8.4667,-14.45542 -7.3942,-13.74987 -6.7169,-14.10264 -5.2776,-13.74987 -4.2333,-13.74986 -2.8222,-13.39709 -1.7498,-12.69154 0.3387,-12.69435 1.778,-11.98598 3.5277,-11.28324 2.4554,-5.28885 3.1609,-5.28602 7.4224,-10.22491 4.572,-4.58329 4.9389,-4.58329 10.5833,-8.46102 10.5834,-7.75829 10.5551,-6.69713 10.2446,-6.34718 10.2165,-5.28885 9.8778,-4.58328 19.0217,-7.40269 18.3445,-5.28885 17.272,-2.82222 16.2278,-1.40829 14.7884,-0.35278 13.7725,1.41111 11.9662,1.76107 10.5833,2.46945 8.8053,2.46662 12.3614,4.93606 4.572,2.11667 z"
         id="path4769"
         inkscape:connector-curvature="0" />
      <path
         style="fill:#fac129;fill-opacity:1;fill-rule:evenodd;stroke:none"
         d="m 2728.7374,188.14078 -3.5278,-0.70273 -5.3057,8.10824 -4.2334,7.04992 -3.8664,6.69995 -2.8222,6.34436 -4.2334,11.9888 -1.0442,5.9944 -0.7055,5.99157 0,6.34718 0.3386,6.34718 1.778,14.4526 7.7329,37.02191 1.4111,5.6388 1.778,4.58329 4.572,8.46384 2.8222,3.52496 3.1892,2.8194 7.3942,4.93607 3.8664,1.76389 4.2334,1.76106 8.8335,1.76389 9.5109,0.70556 10.2164,-0.70556 10.2447,-1.41111 10.2165,-2.46662 10.2164,-3.175 9.8778,-3.87774 9.5109,-4.23051 8.8053,-4.93606 8.128,-4.93607 7.0556,-4.93607 5.2775,-5.28602 3.8665,-4.93607 2.1166,-4.93606 0.7056,-4.93607 -0.3387,-4.58329 -1.4111,-4.58329 -4.9389,-8.11106 -6.6887,-7.04991 -6.7168,-5.28885 -7.3943,-4.58329 -100.4711,-66.63549 z m -29.972,-43.01066 176.276,60.28831 176.276,60.64109 3.5278,2.11384 3.5278,2.82222 3.1891,3.87774 1.3829,2.11384 0.7055,2.46945 0.7056,2.46662 -0.3387,3.175 -0.7055,2.8194 -1.4111,3.52495 -2.4554,3.52496 -3.5278,3.52778 -7.4224,5.6388 -13.3773,8.46384 -18.3445,10.92765 -22.9164,12.34157 -26.4442,13.39709 -14.4498,6.69714 -14.8167,6.69995 -31.3831,13.04431 -32.4273,11.63602 -16.5665,5.28603 -16.2278,4.58329 -32.4273,7.40551 -15.8609,2.8194 -15.1553,1.41111 -14.8167,0.70555 -14.4498,-0.35277 -6.7168,-0.70556 -6.6887,-1.05833 -12.7,-2.8194 -5.9831,-1.76389 -5.6445,-2.46662 -10.922,-5.64163 -4.9389,-3.17217 -4.6002,-3.87774 -4.2051,-4.23333 -4.2333,-4.23051 -7.0556,-10.57487 -5.6444,-11.9888 -8.4667,-25.38307 -5.2775,-23.622 -1.778,-11.28324 -1.0443,-10.93047 -0.7055,-10.57486 -0.3669,-10.22491 0.3669,-9.51936 0.7055,-9.16658 1.4111,-9.16658 1.4112,-8.46102 3.8664,-15.51375 4.9389,-14.10265 5.2775,-12.69153 6.0114,-10.57769 5.6444,-9.51936 5.2776,-7.40268 8.4666,-10.22492 3.5278,-3.17217 z"
         id="path4771"
         inkscape:connector-curvature="0" />
      <path
         style="fill:#0091c7;fill-opacity:1;fill-rule:evenodd;stroke:none"
         d="m 2170.6148,1220.8032 0,-122.3405 26.1055,0 0,122.3405 -26.1055,0 z"
         id="path4773"
         inkscape:connector-curvature="0" />
      <path
         style="fill:#0091c7;fill-opacity:1;fill-rule:evenodd;stroke:none"
         d="m 2321.8576,1205.2894 14.478,-16.5721 3.5278,5.9944 2.4554,2.4695 2.8222,2.1138 3.1609,1.7639 3.1891,1.0584 7.3942,1.0555 4.2333,-0.3528 3.8665,-0.7027 3.5278,-1.4112 2.8222,-1.7638 2.4835,-2.4667 1.4111,-2.8222 1.0443,-3.1722 0.3669,-3.1721 -1.0725,-4.5833 -3.1609,-4.2305 -5.6444,-4.2306 -7.7611,-4.2305 -9.1723,-4.5861 -13.3773,-8.461 -4.9389,-3.8777 -3.8946,-4.2305 -2.8223,-3.8778 -1.7497,-4.5833 -1.0725,-4.936 -0.7055,-5.6417 1.0724,-7.0499 0.7056,-3.5277 1.4111,-3.1722 3.8664,-5.6416 4.9389,-5.2889 6.6887,-4.2305 7.0555,-3.1722 8.4667,-1.7639 9.1722,-0.7027 10.2165,1.0555 8.8335,2.8222 3.8665,2.4667 3.5277,2.8222 6.6887,7.0499 -15.1553,14.8082 -3.5278,-4.5833 -1.7498,-2.1167 -2.1167,-1.4083 -4.9388,-1.7638 -6.0114,-0.7056 -7.0273,0.7056 -5.6445,3.1721 -2.1166,2.1167 -1.4111,2.1138 -0.7056,2.8223 -0.3669,2.8194 0.3669,2.4694 0.7056,2.4666 3.5277,4.5833 5.9832,4.2305 8.0997,3.8778 6.0114,2.8222 13.3773,7.4027 5.3058,4.2305 4.2333,4.2305 3.1609,4.5833 2.4836,4.9361 1.4111,5.2888 0.3386,5.6416 -0.7055,8.1083 -2.1167,7.4055 -3.8664,6.3443 -2.1167,2.8223 -2.8222,2.8194 -6.35,4.2305 -3.5278,1.7639 -3.8664,1.761 -8.4667,1.7639 -9.5109,0.7056 -6.7169,-0.3528 -6.35,-1.0583 -5.6444,-1.4083 -5.2776,-2.1167 -4.572,-2.8194 -4.2333,-3.175 -3.1891,-3.525 -2.8223,-4.2305 z"
         id="path4775"
         inkscape:connector-curvature="0" />
      <path
         style="fill:#0091c7;fill-opacity:1;fill-rule:evenodd;stroke:none"
         d="m 2594.061,1174.2647 -13.7725,-39.4885 -1.7497,-6.3472 -1.778,-10.2221 -2.1167,10.5749 -1.4111,6.3472 -13.3774,39.1357 34.2054,0 z m -77.9216,46.5385 46.5385,-122.3405 29.6051,0 47.244,122.3405 -29.6051,0 -9.8778,-26.0915 -47.6109,0 -8.4384,26.0915 -27.8554,0 z"
         id="path4777"
         inkscape:connector-curvature="0" />
      <path
         style="fill:#0091c7;fill-opacity:1;fill-rule:evenodd;stroke:none"
         d="m 2783.7143,1153.4621 3.8947,0 4.9389,0 4.2333,-1.0583 3.5278,-1.4083 2.8222,-1.7639 2.1167,-2.4666 1.3829,-3.5278 1.0724,-3.8777 0.3387,-4.2305 -0.3387,-4.2305 -1.0724,-3.8778 -1.3829,-2.8222 -2.1167,-2.4666 -2.8222,-1.7639 -3.5278,-1.4083 -4.2333,-0.7055 -4.9389,-0.3528 -3.8947,0 0,35.9607 z m -26.0773,67.3411 0,-122.3405 29.972,0 11.2889,0.3528 9.5109,1.761 8.0997,2.8222 6.7169,4.2306 2.4554,2.4666 2.4835,2.8222 3.4996,6.3444 1.4111,3.5277 0.7055,4.2305 0.7056,8.8138 -0.7056,8.4611 -0.7055,3.8777 -1.4111,3.525 -3.4996,6.6999 -4.9389,5.2889 -6.35,4.5832 -7.7611,3.1722 -8.4667,1.7639 -9.5108,0.7056 -7.4225,0 0,46.8912 -26.0773,0 z"
         id="path4779"
         inkscape:connector-curvature="0" />
      <path
         style="fill:#0091c7;fill-opacity:1;fill-rule:evenodd;stroke:none"
         d="m 3046.3785,1220.8032 -29.972,0 -32.0604,-57.1161 0,57.1161 -26.4442,0 0,-122.3405 37.7049,0 10.2446,0.3528 9.1722,1.761 7.7329,2.4695 6.0114,3.8777 4.9389,4.9361 3.5277,5.9944 1.0443,3.5249 1.0442,3.525 0.7055,8.1082 -0.7055,5.9944 -1.3829,5.6416 -2.1167,5.2889 -3.5278,4.5833 -1.778,2.1138 -2.1166,2.1167 -4.572,2.8194 -5.3058,2.1167 -5.6162,1.4111 33.4715,55.705 z m -62.0324,-70.1605 3.8664,0 13.0387,-1.0583 4.6002,-1.0583 3.1609,-1.4111 2.1167,-2.1139 1.778,-2.8222 1.0442,-3.1722 0.3669,-3.8777 -0.3669,-4.2305 -1.0442,-3.525 -1.778,-2.8222 -1.0442,-1.4083 -1.4112,-1.0583 -3.1891,-1.7639 -4.572,-1.0583 -6.0113,-0.7028 -6.6887,-0.3528 -3.8664,0 0,32.4358 z"
         id="path4781"
         inkscape:connector-curvature="0" />
      <path
         style="fill:#0091c7;fill-opacity:1;fill-rule:evenodd;stroke:none"
         d="m 3166.9721,1220.8032 0,-122.3405 71.9102,0 0,21.8581 -45.8329,0 0,25.3859 45.8329,0 0,22.2109 -45.8329,0 0,30.3191 45.8329,0 0,22.5665 -71.9102,0 z"
         id="path4783"
         inkscape:connector-curvature="0" />
      <path
         style="fill:#0091c7;fill-opacity:1;fill-rule:nonzero;stroke:none"
         d="m 1482.7658,1030.4161 -0.7055,-190.7371 -0.7056,-190.73706 1.0583,-12.33876 2.8223,-14.45542 5.286,-16.56927 7.0527,-18.33315 9.5194,-19.03871 11.6332,-20.09705 6.6999,-10.22491 7.4027,-9.87213 8.1111,-10.22209 8.461,-9.87213 9.1666,-9.87214 9.8721,-9.51935 4.9361,-4.58329 5.286,-4.58329 11.2833,-8.8138 11.636,-8.8138 12.6915,-7.75829 13.0443,-7.75547 13.7499,-7.05273 14.4554,-6.34435 15.5138,-5.64163 15.8637,-5.28884 16.5721,-4.23051 17.2748,-3.17218 18.3331,-2.46944 18.686,-1.76107 19.7442,-0.35278 19.3915,0.35278 18.686,1.05551 17.6276,1.76389 16.5692,2.46944 15.8666,2.8194 14.8082,3.52496 14.1026,3.87773 13.0443,4.58329 12.3388,4.58329 11.636,5.28884 10.5749,5.28885 10.2249,5.64162 17.6276,11.6332 8.111,6.34718 7.4027,5.9944 12.6831,11.98598 10.2447,11.9888 8.4384,10.92764 6.35,9.87213 7.7611,14.8082 2.1167,5.64163 6.35,-11.28325 6.6887,-10.93046 7.4224,-9.86932 7.7329,-9.51935 8.128,-8.8138 8.8053,-8.11107 8.8054,-7.40269 9.1722,-7.05273 18.6831,-12.33876 9.8778,-5.64162 9.5109,-4.93606 19.4168,-8.46103 19.0218,-7.04991 18.3445,-5.64162 17.272,-4.23051 15.494,-3.175 13.7724,-2.11385 19.7273,-2.11666 7.4225,-0.35278 26.0773,0.70556 12.3331,1.05833 11.9945,1.05833 23.2833,3.52496 21.5053,4.58329 20.4329,5.64162 19.05,6.69713 17.9776,7.40551 16.5664,8.46103 15.5223,9.16657 14.0828,9.51936 13.4056,10.57769 12.3331,10.57486 11.2889,11.28325 10.2164,11.28324 9.1723,11.6332 8.4666,11.63603 7.7611,11.98597 7.0556,11.28325 11.2607,22.56366 4.9389,10.92765 3.8946,10.22491 6.6887,19.03871 4.2333,15.86653 2.8222,12.33876 1.7498,10.93047 0,184.38988 0,184.7427 -132.1929,0 0,-174.8706 0,-174.87049 -0.7055,-5.64163 -2.8222,-14.8082 -3.1892,-9.87213 -3.8664,-11.28042 -5.6444,-11.63602 -7.3943,-12.33876 -9.1722,-11.9888 -5.2775,-5.99158 -6.0114,-5.9944 -6.6886,-5.64162 -7.0556,-5.28884 -7.7611,-5.28885 -8.4667,-4.93607 -9.1722,-4.23051 -9.8496,-3.87773 -10.5833,-3.52496 -11.2889,-3.17217 -12.3331,-2.11667 -12.7,-1.76389 -14.0829,-1.40829 -14.8166,-0.35278 -14.8167,0.35278 -14.1111,1.05551 -13.0387,1.76389 -12.6718,2.11667 -11.6557,2.8194 -11.2607,3.17218 -10.5833,3.52777 -9.8778,4.23052 -9.1722,4.23051 -8.4667,4.58329 -8.0998,5.28884 -7.3942,4.93607 -6.7169,5.6388 -6.35,5.28884 -5.6162,5.64162 -5.3058,5.64163 -9.1722,11.28042 -7.7329,10.57769 -5.6445,10.22491 -4.6002,9.16658 -5.2775,13.74986 -1.4111,4.93607 0,180.15936 0,180.5122 -125.1628,0 0,-178.0427 0,-178.04557 -1.4111,-5.28885 -5.2888,-14.10264 -4.2305,-9.51936 -5.9944,-10.57769 -7.05,-11.28042 -8.8138,-11.63602 -10.5776,-11.6332 -12.3388,-11.28324 -14.4554,-10.57487 -16.5721,-9.16658 -19.0359,-8.11107 -10.2249,-3.17217 -10.9305,-2.8194 -11.6332,-2.46945 -12.3416,-1.76389 -13.0443,-1.05551 -13.3971,-0.35278 -13.7498,0.35278 -13.0443,1.05551 -12.3416,1.76389 -11.6332,2.11667 -11.2833,2.8194 -10.5776,3.17218 -9.8694,3.52777 -9.1665,4.23052 -17.2777,8.8138 -15.1581,10.22491 -6.7,5.6388 -6.3472,5.28884 -11.2804,11.28325 -9.5193,11.28042 -7.7583,10.57769 -6.3444,10.22491 -4.9361,9.16658 -3.5249,7.75546 -2.4695,5.9944 -1.761,4.93607 0,180.15936 0,180.5122 -118.8156,0 z m -2180.25615,-426.24872 0.3525,15.16098 1.05777,15.16098 2.11525,15.15815 2.46803,14.8082 3.17303,14.45543 4.23079,14.10264 4.58329,13.74987 5.28856,13.74986 5.99356,13.04431 6.69882,13.0443 7.05133,12.3416 7.75631,11.986 8.46159,11.9888 8.81408,11.2804 9.51907,10.5777 9.87185,10.5777 10.22435,9.8721 10.92962,9.1666 11.28183,8.8138 11.63461,8.461 12.33989,7.7555 12.34045,7.4055 13.04431,6.3443 13.04431,5.9944 13.74987,5.2889 13.74986,4.9361 28.55807,7.4026 14.8082,2.4695 14.8082,1.7611 15.15815,1.4111 15.51376,0.3527 15.16098,-0.3527 15.16098,-1.4111 15.15815,-1.7611 14.45542,-2.4695 14.45543,-3.5249 14.45542,-3.8777 13.74986,-4.9361 13.39709,-5.2889 13.39709,-5.9944 12.69436,-6.3443 12.69153,-7.4055 11.98598,-7.7555 11.63602,-8.461 11.28042,-8.8138 10.93047,-9.1666 10.22491,-9.8721 10.22491,-10.5777 9.16658,-10.5777 8.8138,-11.2804 8.46102,-11.9888 7.75547,-11.986 7.05273,-12.3416 6.69714,-13.0443 5.9944,-13.04431 5.28884,-13.74986 4.58329,-13.74987 7.40269,-28.55807 2.82222,-14.8082 1.76107,-15.15815 1.05833,-15.16098 0.70556,-15.16098 -0.70556,-15.51375 -1.05833,-15.15816 -1.76107,-14.8082 -2.82222,-14.8082 -3.17218,-14.45542 -4.23051,-14.10264 -4.58329,-13.74987 -5.28884,-13.74987 -5.9944,-13.04431 -6.69714,-13.04431 -7.05273,-12.34158 -7.75547,-12.33875 -8.46102,-11.63603 -8.8138,-11.28042 -9.16658,-10.93046 -10.22491,-10.22492 -10.22491,-9.87213 -10.93047,-9.51653 -11.28042,-8.81662 -11.63602,-8.10825 -11.98598,-7.75547 -12.69153,-7.40551 -12.69436,-6.34435 -13.39709,-5.9944 -13.39709,-5.64162 -13.74986,-4.58329 -28.91085,-7.40269 -14.45542,-2.46945 -15.15815,-2.11384 -15.16098,-1.05833 -15.16098,-0.35278 -15.51376,0.35278 -15.15815,1.05833 -14.8082,2.11384 -14.8082,2.46945 -14.45542,3.52495 -14.10265,3.87774 -13.74986,4.58329 -13.74987,5.64162 -13.04431,5.9944 -13.04431,6.34435 -12.34045,7.40551 -12.33989,7.75547 -11.63461,8.10825 -11.28183,8.81662 -10.92962,9.51653 -10.22435,9.87213 -9.87185,10.22492 -9.51907,10.93046 -8.81408,11.28042 -8.46159,11.63603 -7.75631,12.33875 -7.05133,12.34158 -6.69882,13.04431 -5.99356,13.04431 -5.28856,13.74987 -4.58329,13.74987 -7.40382,28.55806 -2.46803,14.8082 -2.11525,14.8082 -1.05777,15.15816 -0.3525,15.51375 z m -129.03849,0 0.70513,-22.21089 1.41026,-21.50815 2.82051,-21.50533 3.87821,-21.15256 4.58332,-20.44982 5.99361,-20.44982 6.69871,-19.74145 7.40382,-19.39149 8.81408,-19.03871 9.16658,-18.33315 10.57712,-17.98038 10.92934,-17.27765 11.98739,-16.92204 12.6921,-16.21931 13.39765,-15.51094 14.10236,-14.8082 14.80764,-14.10264 15.51291,-13.39709 16.2179,-12.69153 16.92317,-11.9888 17.27567,-10.92765 17.98066,-10.22491 18.33344,-9.51935 19.03843,-8.8138 19.39092,-7.40551 19.74229,-6.69714 20.44982,-5.9944 20.44983,-4.58329 21.15255,-3.87773 21.50816,-2.82222 21.50533,-1.40829 22.21089,-0.70556 21.85811,0.70556 21.86093,1.40829 21.15256,2.82222 21.15538,3.87773 20.79978,4.58329 20.09704,5.9944 20.09704,6.69714 19.38867,7.40551 18.68593,8.8138 18.68594,9.51935 17.9832,10.22491 17.27482,10.92765 16.56927,11.9888 16.21931,12.69153 15.51093,13.39709 14.8082,14.10264 14.10265,14.8082 13.39708,15.51094 12.69436,16.21931 11.98598,16.92204 11.28324,17.27765 10.22209,17.98038 9.51936,18.33315 8.4638399,19.03871 7.75547,19.39149 6.69713,19.74145 5.6416201,20.44982 4.93607,20.44982 3.52496,21.15256 2.82222,21.50533 1.76106,21.50815 0.35278,22.21089 -0.35278,21.85811 -1.76106,21.86094 -2.82222,21.50533 -3.52496,20.8026 -4.93607,20.79978 -5.6416201,20.09706 -6.69713,20.0942 -7.75547,19.3915 -8.4638399,19.0387 -9.51936,18.3332 -10.22209,17.9803 -11.28324,17.2777 -11.98598,16.5693 -12.69436,16.2193 -13.39708,15.5109 -14.10265,14.8082 -14.8082,14.4554 -15.51093,13.3971 -16.21931,12.6915 -16.56927,11.6361 -17.27482,11.2832 -17.9832,10.2221 -18.68594,9.5194 -18.68593,8.461 -19.38867,7.7583 -20.09704,6.6971 -20.09704,5.6416 -20.79978,4.9361 -21.15538,3.8777 -21.15256,2.4695 -21.86093,1.761 -21.85811,0.7056 -22.21089,-0.7056 -21.50533,-1.761 -21.50816,-2.4695 -21.15255,-3.8777 -20.44983,-4.9361 -20.44982,-5.6416 -19.74229,-6.6971 -19.39092,-7.7583 -19.03843,-8.461 -18.33344,-9.5194 -17.98066,-10.2221 -17.27567,-11.2832 -16.92317,-11.6361 -16.2179,-12.6915 -15.51291,-13.3971 -14.80764,-14.4554 -14.10236,-14.8082 -13.39765,-15.5109 -12.6921,-16.2193 -11.98739,-16.5693 -10.92934,-17.2777 -10.57712,-17.9803 -9.16658,-18.3332 -8.81408,-19.0387 -7.40382,-19.3915 -6.69871,-20.0942 -5.99361,-20.09706 -4.58332,-20.79978 -3.87821,-20.8026 -2.82051,-21.50533 -1.41026,-21.86094 -0.70513,-21.85811 z m 1034.0707,111.41005 0,195.32037 245.3837,0 5.2889,-1.4111 5.9944,-1.7611 7.7555,-3.1722 19.3914,-9.5193 10.9305,-7.0528 11.2804,-8.8138 5.6417,-5.2888 5.6416,-5.6416 5.2888,-5.9916 5.6388,-6.7 5.2889,-7.4026 4.936,-7.7583 4.5833,-8.4611 4.5833,-9.1665 7.7583,-20.0971 3.1722,-11.2804 2.8194,-11.636 2.1166,-12.6916 1.7639,-13.397 0.7028,-14.1027 0.3527,-14.8082 0,-12.69153 -1.0555,-11.9888 -1.4111,-11.6332 -2.1166,-10.57769 -2.8194,-10.57769 -2.8223,-9.51653 -3.5249,-9.1694 -4.2305,-8.8138 -9.1666,-15.86371 -4.9361,-7.05273 -5.6416,-6.69714 -11.986,-11.9888 -12.6915,-10.22209 -6.7,-4.58611 -7.0499,-3.87773 -14.1026,-7.40269 -14.4554,-5.64162 -14.4555,-4.23051 -14.8082,-3.17218 -14.1026,-2.46944 -13.7499,-1.05834 -12.6915,-0.34995 -18.3332,0.70273 -17.9803,2.82222 -8.8167,1.76107 -8.8138,2.46944 -17.2748,5.64163 -16.5693,7.04991 -15.8665,8.10824 -7.4027,4.93607 -7.4055,4.58329 -14.1026,10.93046 -12.6916,11.63603 -5.9944,5.99157 -5.6416,6.34718 -9.8693,13.04431 -8.8166,14.10265 -6.6972,14.45542 -2.8222,7.40269 -2.4666,7.40551 -3.1722,15.51093 -1.0583,15.51376 z m 0,543.30037 -114.93501,0 0,-155.1263 0,-154.7763 0,-154.7763 0,-154.77632 0,-1.05551 4.23051,-14.8082 4.23051,-11.9888 6.34436,-14.80538 7.75829,-16.92486 10.22491,-18.33316 12.69153,-19.03871 15.51376,-19.74144 8.46102,-9.51936 9.51935,-9.51935 10.22207,-9.51936 10.9305,-9.16658 11.9888,-8.8138 12.6915,-8.46384 13.7499,-7.75547 14.4554,-7.40269 15.5109,-6.69995 16.5721,-6.34718 8.4611,-2.8194 8.8138,-2.46662 18.3331,-4.58329 19.7443,-3.52778 20.4498,-2.8194 21.8581,-1.41111 22.9165,-0.70556 23.622,0.70556 11.6332,0.70555 11.2832,1.41112 21.1526,3.17217 20.4498,4.58329 19.0387,5.28885 18.3331,6.69713 16.9221,7.40551 15.8665,8.46102 14.8082,9.51936 14.1027,9.87213 13.0443,10.57769 11.986,11.28042 11.2832,11.63603 10.5777,12.33875 9.5193,12.69153 8.8138,12.69436 7.7555,13.04431 7.4055,13.39709 6.3444,13.04431 5.9944,13.39709 9.8721,26.09144 7.4027,25.38307 5.2888,23.622 2.1167,11.28325 1.7611,10.57486 1.7639,19.03871 0.7055,15.86652 -0.7055,15.161 -2.1167,18.3332 -3.525,20.7997 -2.4666,11.2833 -3.175,11.6332 -3.5249,11.9888 -3.8778,12.3387 -4.5833,12.6916 -5.2888,12.6943 -5.9944,12.6916 -6.3444,12.6915 -7.4055,12.6943 -7.7554,12.6916 -8.8138,12.3387 -9.1666,11.9888 -10.2249,11.6332 -11.2833,11.2833 -11.6332,10.5748 -12.6915,10.225 -13.7499,9.8721 -14.4554,8.8138 -15.5137,8.1082 -16.5721,7.0528 -17.6276,6.3471 -9.1666,2.8194 -9.5194,2.4667 -9.5193,2.4694 -9.8722,1.7611 -10.222,1.7639 -10.5777,1.4111 -21.8581,2.1138 -22.9165,0.7056 -197.437,0 0,222.4673 z m 556.6974,-1073.55642 121.2822,0 0,181.57049 0,181.57049 245.73944,0 0,115.28778 -245.73944,0 0,86.37976 -0.7055,7.7555 0,8.8138 0.7055,11.2832 2.1167,13.0443 1.4111,7.0499 2.4666,7.4055 2.4695,7.7555 3.5249,7.7555 3.8777,7.7583 4.9361,8.1082 5.6416,7.7555 6.3444,7.4055 7.7583,7.4027 3.8777,3.5249 4.2305,3.5278 9.5194,6.6971 10.5777,6.3472 11.9859,5.6416 13.0444,5.2889 14.4554,4.5833 15.51374,3.5249 17.2749,3.1722 18.3331,2.1167 9.8721,0.7055 10.5777,0.35 21.5054,0.3528 23.622,-0.7028 25.0331,-2.1166 0,126.571 -91.6686,0 -11.986,-1.0583 -13.7499,-1.7639 -17.9803,-3.1722 -21.50824,-4.9361 -23.972,-7.0499 -12.3415,-4.2305 -13.0443,-4.9361 -13.0444,-5.6416 -13.0443,-6.3472 -13.3999,-7.0499 -13.0443,-7.7583 -13.0443,-8.8138 -12.3388,-9.5193 -12.3415,-10.5749 -11.6332,-11.636 -5.6417,-6.3472 -5.2888,-6.3443 -5.2888,-6.7 -4.9361,-6.6971 -9.5194,-14.8082 -4.5833,-7.7555 -3.8777,-8.1111 -7.7555,-16.922 -3.1721,-9.1666 -3.175,-9.1666 -4.9361,-19.3915 -3.8777,-21.1525 -2.4667,-21.8609 -0.7055,-11.6332 0,-11.9888 0.3528,-142.78756 0.7055,-142.78751 0.3528,-142.79034 0.7027,-142.78751 z m 490.77044,240.80047 119.1655,0 0,150.5458 0,150.89855 0,150.543 0,150.8986 -119.1655,0 0,-150.8986 0,-150.543 0,-150.89855 0,-150.5458 z m 1906.3179,289.45558 -1.0724,-15.51376 -1.4111,-7.75546 -1.7498,-7.75547 -5.2775,-14.8082 -3.1892,-7.40269 -3.5277,-7.05273 -4.2334,-7.04991 -4.572,-7.05274 -9.8777,-13.04431 -5.6445,-6.34718 -5.9831,-5.99157 -13.0387,-11.63603 -6.7169,-5.64162 -7.0555,-5.28884 -15.1553,-9.51936 -15.494,-8.10824 -16.9334,-7.04991 -16.9333,-5.64163 -17.6107,-4.23051 -9.1722,-1.76389 -8.8053,-1.05833 -18.3445,-0.70273 -13.0386,0.34995 -13.4056,1.05834 -14.4498,2.46944 -14.4498,3.17218 -14.478,4.23051 -14.4497,5.64162 -14.4498,7.40269 -13.4056,8.46384 -6.6886,4.93325 -6.35,5.28884 -5.9831,5.9944 -5.6445,5.9944 -5.6444,6.69714 -5.2776,7.05273 -9.1722,15.86371 -3.8947,8.8138 -3.4995,9.1694 -3.1891,9.51653 -2.4554,10.57769 -2.1166,10.57769 -1.4112,11.6332 -1.0724,11.9888 -0.3387,12.69153 0.3387,14.8082 1.0724,14.1027 1.7498,13.397 2.1167,12.6916 2.8222,11.636 3.1609,11.2804 7.7611,20.0971 4.6002,9.1665 4.572,8.4611 10.2165,15.1609 5.3058,6.7 5.6444,5.9916 11.2607,10.9304 5.6444,4.5833 5.6445,4.2305 10.922,7.0528 10.2446,5.6388 9.1722,3.8805 7.7329,3.1722 6.0114,1.7611 5.2775,1.4111 245.3922,0 0,-195.32037 z m -197.4426,320.83307 -22.9165,-0.7056 -21.844,-2.1138 -10.5833,-1.4111 -10.2164,-1.7639 -19.7556,-4.2305 -18.3444,-5.2861 -17.6107,-6.3471 -8.4667,-3.525 -8.0998,-3.5278 -15.5222,-8.1082 -14.4498,-8.8138 -13.7442,-9.8721 -12.7,-10.225 -11.9944,-10.5748 -10.922,-11.2833 -10.2447,-11.6332 -9.5109,-11.9888 -8.4666,-12.3387 -7.7329,-12.6916 -7.4225,-12.6943 -6.35,-12.6915 -5.9831,-12.6916 -9.8778,-25.3859 -7.3942,-24.3275 -5.6444,-22.9165 -3.8665,-20.7997 -1.778,-18.3332 -0.7055,-15.161 0.7055,-15.86652 1.778,-19.03871 3.4996,-21.85811 5.6444,-23.622 7.4225,-25.38307 4.572,-13.04713 5.2775,-13.04431 5.6445,-13.39709 6.7169,-13.04431 7.3942,-13.39709 7.7611,-13.04431 8.8053,-12.69436 9.5109,-12.69153 10.5833,-12.33875 10.9503,-11.63603 12.3331,-11.28042 13.0386,-10.57769 13.7443,-9.87213 15.1553,-9.51936 15.8891,-8.46102 16.9051,-7.40551 17.9776,-6.69713 19.3886,-5.28885 20.0943,-4.58329 10.5833,-1.76389 10.922,-1.40828 22.5778,-2.11667 23.9606,-0.70556 22.9165,0.70556 21.8722,1.41111 20.4611,2.8194 19.3887,3.52778 18.6831,4.58329 17.272,5.28602 16.5664,6.34718 15.5223,6.69995 14.4497,7.40269 13.7443,7.75547 12.7,8.46384 11.6275,8.8138 11.2889,9.16658 10.2165,9.51936 9.1722,9.51935 8.8053,9.51936 8.128,9.86931 7.3942,9.87213 12.3331,19.03871 10.2165,18.33316 8.128,16.92486 5.9831,14.80538 4.2333,11.9888 4.2334,14.8082 0,1.05551 0,198.14262 0,198.4925 -156.1818,0 -155.8431,0.3528 z"
         id="path4785"
         inkscape:connector-curvature="0" />
    </g>
  </g>
</svg>
