<?xml version="1.0" encoding="UTF-8" standalone="no"?>
<!-- Created with Inkscape (http://www.inkscape.org/) -->

<svg
   xmlns:dc="http://purl.org/dc/elements/1.1/"
   xmlns:cc="http://creativecommons.org/ns#"
   xmlns:rdf="http://www.w3.org/1999/02/22-rdf-syntax-ns#"
   xmlns:svg="http://www.w3.org/2000/svg"
   xmlns="http://www.w3.org/2000/svg"
   xmlns:xlink="http://www.w3.org/1999/xlink"
   xmlns:sodipodi="http://sodipodi.sourceforge.net/DTD/sodipodi-0.dtd"
   xmlns:inkscape="http://www.inkscape.org/namespaces/inkscape"
   width="1069.0236mm"
   height="328.77594mm"
   viewBox="0 0 3787.8787 1164.9541"
   id="svg2"
   version="1.1"
   inkscape:version="0.91 r13725"
   sodipodi:docname="rio_blanco.svg">
  <defs
     id="defs4">
    <linearGradient
       inkscape:collect="always"
       id="linearGradient4152">
      <stop
         style="stop-color:#e7c028;stop-opacity:1;"
         offset="0"
         id="stop4154" />
      <stop
         style="stop-color:#198d34;stop-opacity:1"
         offset="1"
         id="stop4156" />
    </linearGradient>
    <pattern
       y="0"
       x="0"
       height="6"
       width="6"
       patternUnits="userSpaceOnUse"
       id="EMFhbasepattern" />
    <pattern
       y="0"
       x="0"
       height="6"
       width="6"
       patternUnits="userSpaceOnUse"
       id="EMFhbasepattern-6" />
    <pattern
       y="0"
       x="0"
       height="6"
       width="6"
       patternUnits="userSpaceOnUse"
       id="EMFhbasepattern-9" />
    <linearGradient
       inkscape:collect="always"
       xlink:href="#linearGradient4152"
       id="linearGradient4284"
       x1="-772.42535"
       y1="516.52203"
       x2="3015.4536"
       y2="516.52203"
       gradientUnits="userSpaceOnUse" />
  </defs>
  <sodipodi:namedview
     id="base"
     pagecolor="#ffffff"
     bordercolor="#666666"
     borderopacity="1.0"
     inkscape:pageopacity="0.0"
     inkscape:pageshadow="2"
     inkscape:zoom="0.175"
     inkscape:cx="1050.8405"
     inkscape:cy="2017.953"
     inkscape:document-units="px"
     inkscape:current-layer="layer1"
     showgrid="false"
     fit-margin-top="0"
     fit-margin-left="0"
     fit-margin-right="0"
     fit-margin-bottom="0"
     inkscape:window-width="1920"
     inkscape:window-height="1138"
     inkscape:window-x="1358"
     inkscape:window-y="-8"
     inkscape:window-maximized="1" />
  <metadata
     id="metadata7">
    <rdf:RDF>
      <cc:Work
         rdf:about="">
        <dc:format>image/svg+xml</dc:format>
        <dc:type
           rdf:resource="http://purl.org/dc/dcmitype/StillImage" />
        <dc:title></dc:title>
      </cc:Work>
    </rdf:RDF>
  </metadata>
  <g
     inkscape:label="Capa 1"
     inkscape:groupmode="layer"
     id="layer1"
     transform="translate(772.42533,-41.56085)">
    <path
       inkscape:connector-curvature="0"
       id="path4213"
       d="m 2786.237,1204.1506 0,-184.3114 99.2491,0 0,16.5396 -80.3526,0 0,66.1641 77.988,0 0,16.5415 -77.988,0 0,68.5266 80.3526,0 0,16.5396 -99.2491,0 z m -661.6407,0 0,-184.3114 18.9152,0 0,184.3114 -18.9152,0 z m 42.5408,-51.9851 21.2605,0 0,7.0895 2.3645,7.0895 2.3646,7.0876 4.729,4.7269 7.0932,4.7251 4.7096,4.7269 7.0937,0 7.0931,2.3625 7.093,0 7.0937,-2.3625 7.0744,-4.7269 7.0929,-4.7251 4.7292,-4.7269 2.3639,-4.7251 2.3646,-7.0895 0,-9.452 0,-7.0895 -2.3646,-7.0876 -4.7285,-4.727 -4.7291,-7.0894 -7.0931,-2.3625 -4.7097,-4.7251 -14.1867,-4.7269 -2.3647,0 -2.3645,0 -16.5318,-4.7251 -7.0931,-4.727 -7.0936,-4.725 -7.0932,-7.0895 -4.7096,-7.0895 -2.3646,-9.452 0,-9.452 0,-11.8146 2.3646,-9.452 4.7096,-7.0894 7.0932,-7.0877 9.4581,-7.0895 7.0932,-4.725 9.4388,-2.3644 11.8222,0 9.4575,0 9.439,4.727 9.4575,2.3624 7.0931,7.0895 7.093,7.0877 4.7104,9.4519 2.3645,9.4521 0,9.452 -18.8964,0 0,-7.0876 -2.3646,-4.727 -4.7291,-7.0895 -2.3646,-4.725 -4.7285,-2.3625 -7.0743,-4.727 -4.7291,0 -7.093,-2.3625 -7.0931,2.3625 -4.729,0 -7.0743,4.727 -4.7293,2.3625 -2.3639,7.0895 -4.729,4.725 0,4.727 0,7.0876 0,7.0895 2.3645,7.0895 0,2.3625 2.3645,2.3625 4.7286,2.3644 11.8034,7.0877 11.8222,2.3643 2.3638,2.3626 2.3646,0 4.7291,0 14.1674,7.0895 7.0937,2.3625 2.3639,2.3625 4.7292,2.3626 2.3645,4.7269 4.7097,4.7251 2.3646,2.3625 2.3645,7.0894 4.7285,9.4521 0,11.8145 0,9.452 -4.7285,9.4521 -4.7291,9.452 -7.0742,9.452 -9.4577,4.7269 -9.4575,4.7251 -9.439,4.7269 -11.8221,0 -9.4576,0 -11.8034,-2.3644 -9.4576,-4.725 -9.4577,-7.0895 -2.3646,-4.7251 -4.7096,-4.7269 -2.3646,-4.7251 -2.3646,-4.7269 -2.3645,-9.4521 -2.364,-11.8145 z m 120.5093,51.9851 80.3338,-184.3114 21.2798,0 77.9691,184.3114 -21.261,0 -25.9894,-61.4371 -85.0811,0 -25.9902,61.4371 -21.261,0 z m 54.3443,-77.9786 70.8949,0 -35.4478,-85.0662 -35.4471,85.0662 z m 146.5182,77.9786 0,-184.3114 47.2505,0 25.9902,2.3626 7.0931,0 4.7291,2.3624 7.0931,2.3626 4.7097,2.3645 7.0937,4.725 4.7284,4.7251 2.3647,4.7269 4.7284,7.0895 4.7291,11.8145 0,7.0895 0,7.0876 0,11.8164 -2.3646,4.7251 -2.3645,7.0895 -7.0931,9.452 -7.093,9.452 -11.8034,4.7251 -4.7285,2.3625 -7.0937,2.3644 -11.8222,0 -14.1673,2.3626 -33.0832,0 0,73.2516 -18.8965,0 z m 18.8965,-92.1557 30.7186,0 18.8965,0 9.4576,-2.3625 9.4576,-4.727 7.0744,-4.725 4.729,-7.0895 2.3646,-7.0895 2.3646,-9.452 0,-2.3625 0,-4.7251 -2.3646,-4.7269 -2.3646,-4.7251 -2.3645,-4.727 -2.3645,-4.725 -4.7098,-4.727 -4.7285,-2.3625 -4.7291,-2.3625 -4.7291,-2.3644 -7.0931,0 -11.8034,-2.3626 -4.7285,0 -4.7292,0 -2.3638,0 -2.3646,0 -23.6256,0 0,75.6161 z m 127.6031,92.1557 0,-184.3114 44.8866,0 9.4575,0 7.093,0 18.8965,2.3626 7.0931,2.3624 9.4583,4.7271 7.0742,4.725 4.7286,4.7251 4.729,4.7269 4.7284,7.0895 4.7292,14.1771 2.3646,7.0895 0,9.452 -2.3646,9.452 -2.3645,9.452 -4.7284,9.452 -2.3647,4.7251 -4.729,4.7269 -4.7286,4.7251 -2.3458,2.3625 -9.4575,4.727 -9.4577,2.3624 -11.8033,2.3626 51.9795,68.5266 -23.6256,0 -61.4365,-82.7037 4.7097,0 2.3646,0 7.0929,0 7.0931,0 11.8223,-2.3625 7.0742,-2.3626 4.7291,0 9.4577,-7.0894 4.7291,-4.727 4.7284,-4.725 2.3458,-9.452 2.364,-7.0895 0,-4.725 0,-2.3645 -2.364,-9.452 -2.3458,-7.0876 -4.7284,-7.0895 -7.0937,-7.0895 -7.0931,-4.725 -9.4576,-2.3644 -18.8965,-2.3626 -2.3646,0 -4.7291,0 -28.354,0 0,167.7718 -18.8964,0 z"
       style="fill:#d8713f;fill-opacity:1;fill-rule:nonzero;stroke:none" />
    <path
       inkscape:connector-curvature="0"
       id="path4215"
       d="m 2786.237,1204.1506 0,-184.3114 99.2491,0 0,16.5396 -80.3526,0 0,66.1641 77.988,0 0,16.5415 -77.988,0 0,68.5266 80.3526,0 0,16.5396 -99.2491,0 z"
       style="fill:#d8713f;fill-opacity:1;fill-rule:nonzero;stroke:none" />
    <path
       inkscape:connector-curvature="0"
       id="path4217"
       d="m 2124.5963,1204.1506 0,-184.3114 18.9152,0 0,184.3114 -18.9152,0 z"
       style="fill:#d8713f;fill-opacity:1;fill-rule:nonzero;stroke:none" />
    <path
       inkscape:connector-curvature="0"
       id="path4219"
       d="m 2167.1371,1152.1655 21.2605,0 0,7.0895 2.3645,7.0895 2.3646,7.0876 4.729,4.7269 7.0932,4.7251 4.7096,4.7269 7.0937,0 7.0931,2.3625 7.093,0 7.0937,-2.3625 7.0744,-4.7269 7.0929,-4.7251 4.7292,-4.7269 2.3639,-4.7251 2.3646,-7.0895 0,-9.452 0,-7.0895 -2.3646,-7.0876 -4.7285,-4.727 -4.7291,-7.0894 -7.0931,-2.3625 -4.7097,-4.7251 -14.1867,-4.7269 -2.3647,0 -2.3645,0 -16.5318,-4.7251 -7.0931,-4.727 -7.0936,-4.725 -7.0932,-7.0895 -4.7096,-7.0895 -2.3646,-9.452 0,-9.452 0,-11.8146 2.3646,-9.452 4.7096,-7.0894 7.0932,-7.0877 9.4581,-7.0895 7.0932,-4.725 9.4388,-2.3644 11.8222,0 9.4575,0 9.439,4.727 9.4575,2.3624 7.0931,7.0895 7.093,7.0877 4.7104,9.4519 2.3645,9.4521 0,9.452 -18.8964,0 0,-7.0876 -2.3646,-4.727 -4.7291,-7.0895 -2.3646,-4.725 -4.7285,-2.3625 -7.0743,-4.727 -4.7291,0 -7.093,-2.3625 -7.0931,2.3625 -4.729,0 -7.0743,4.727 -4.7293,2.3625 -2.3639,7.0895 -4.729,4.725 0,4.727 0,7.0876 0,7.0895 2.3645,7.0895 0,2.3625 2.3645,2.3625 4.7286,2.3644 11.8034,7.0877 11.8222,2.3643 2.3638,2.3626 2.3646,0 4.7291,0 14.1674,7.0895 7.0937,2.3625 2.3639,2.3625 4.7292,2.3626 2.3645,4.7269 4.7097,4.7251 2.3646,2.3625 2.3645,7.0894 4.7285,9.4521 0,11.8145 0,9.452 -4.7285,9.4521 -4.7291,9.452 -7.0742,9.452 -9.4577,4.7269 -9.4575,4.7251 -9.439,4.7269 -11.8221,0 -9.4576,0 -11.8034,-2.3644 -9.4576,-4.725 -9.4577,-7.0895 -2.3646,-4.7251 -4.7096,-4.7269 -2.3646,-4.7251 -2.3646,-4.7269 -2.3645,-9.4521 -2.364,-11.8145 z"
       style="fill:#d8713f;fill-opacity:1;fill-rule:nonzero;stroke:none" />
    <path
       inkscape:connector-curvature="0"
       id="path4221"
       d="m 2341.9907,1126.172 70.8949,0 -35.4478,-85.0662 -35.4471,85.0662 z m -54.3443,77.9786 80.3338,-184.3114 18.9152,0 80.3337,184.3114 -21.261,0 -25.9894,-61.4371 -85.0811,0 -25.9902,61.4371 -21.261,0 z"
       style="fill:#d8713f;fill-opacity:1;fill-rule:nonzero;stroke:none" />
    <path
       inkscape:connector-curvature="0"
       id="path4223"
       d="m 2507.4054,1111.9949 30.7186,0 18.8965,0 9.4576,-2.3625 9.4576,-4.727 7.0744,-4.725 4.729,-7.0895 2.3646,-7.0895 2.3646,-9.452 0,-2.3625 0,-4.7251 -2.3646,-4.7269 -2.3646,-4.7251 -2.3645,-4.727 -2.3645,-4.725 -4.7098,-4.727 -4.7285,-2.3625 -4.7291,-2.3625 -4.7291,-2.3644 -7.0931,0 -11.8034,-2.3626 -4.7285,0 -4.7292,0 -2.3638,0 -2.3646,0 -23.6256,0 0,75.6161 z m -18.8965,92.1557 0,-184.3114 47.2505,0 25.9902,2.3626 7.0931,0 4.7291,2.3624 7.0931,2.3626 4.7097,2.3645 7.0937,4.725 4.7284,4.7251 2.3647,4.7269 4.7284,7.0895 4.7291,11.8145 0,7.0895 0,7.0876 0,11.8164 -2.3646,4.7251 -2.3645,7.0895 -7.0931,9.452 -7.093,9.452 -11.8034,4.7251 -4.7285,2.3625 -7.0937,2.3644 -11.8222,0 -14.1673,2.3626 -33.0832,0 0,73.2516 -18.8965,0 z"
       style="fill:#d8713f;fill-opacity:1;fill-rule:nonzero;stroke:none" />
    <path
       inkscape:connector-curvature="0"
       id="path4225"
       d="m 2635.0085,1204.1506 0,-184.3114 44.8866,0 9.4575,0 7.093,0 18.8965,2.3626 7.0931,2.3624 9.4583,4.7271 7.0742,4.725 4.7286,4.7251 4.729,4.7269 4.7284,7.0895 4.7292,14.1771 2.3646,7.0895 0,9.452 -2.3646,9.452 -2.3645,9.452 -4.7284,9.452 -2.3647,4.7251 -4.729,4.7269 -4.7286,4.7251 -2.3458,2.3625 -9.4575,4.727 -9.4577,2.3624 -11.8033,2.3626 51.9795,68.5266 -23.6256,0 -61.4365,-82.7037 4.7097,0 2.3646,0 7.0929,0 7.0931,0 11.8223,-2.3625 7.0742,-2.3626 4.7291,0 9.4577,-7.0894 4.7291,-4.727 4.7284,-4.725 2.3458,-9.452 2.364,-7.0895 0,-4.725 0,-2.3645 -2.364,-9.452 -2.3458,-7.0876 -4.7284,-7.0895 -7.0937,-7.0895 -7.0931,-4.725 -9.4576,-2.3644 -18.8965,-2.3626 -2.3646,0 -4.7291,0 -28.354,0 0,167.7718 -18.8964,0 z"
       style="fill:#d8713f;fill-opacity:1;fill-rule:nonzero;stroke:none" />
    <path
       inkscape:connector-curvature="0"
       id="path4227"
       d="m -354.17652,452.72049 7.0897,0 7.08765,0 4.72708,2.36444 4.72514,2.36248 7.08911,4.72507 4.72706,7.0895 2.36252,4.72506 2.36263,4.72692 0,11.81456 -2.36263,11.81457 -2.36252,11.81641 -9.45221,44.89568 -9.45162,44.89753 -2.36456,16.54148 0,18.90211 0,16.54148 0,18.90407 -2.36251,40.17051 4.72707,42.53495 4.72515,23.62913 4.72647,23.62903 7.08765,23.63098 4.72708,9.45198 4.72514,9.45208 7.08971,11.81456 7.08898,9.45199 16.54204,21.26655 7.08766,9.45198 7.08898,11.81456 7.0897,11.81642 4.72515,11.81456 2.3625,7.0895 0,7.08755 -2.3625,4.72692 -2.36264,7.08765 -4.72707,4.72692 -4.72514,4.72506 -4.72648,2.36443 -7.08765,2.36258 -7.0897,0 -4.72514,-2.36258 -14.17869,-4.72692 -4.72515,-4.72506 -7.0897,-7.0895 -11.81473,-11.81456 -11.81618,-14.17891 -9.45221,-14.17714 -14.17676,-21.26654 -18.90383,-37.80803 -7.08971,-18.90407 -7.08765,-21.26654 -21.26839,-101.60953 0,-11.81456 -2.36252,-11.81456 0,-23.63089 0,-25.99171 -2.36263,-23.63089 0,-37.80812 0,-16.53953 0,-16.54149 2.36263,-16.54148 2.36252,-14.17714 2.36456,-11.81447 4.72514,-11.81642 4.72647,-11.81456 7.08766,-11.81456 4.72719,-2.36258 4.72502,-4.72692 4.7272,-2.36258 7.08898,0 11.81485,-2.36249 11.81413,-4.72692 z M 945.46854,41.56085 l 9.45227,0 7.08764,2.363042 7.08903,0 4.72516,2.36295 11.81679,7.089034 7.08764,9.451892 4.72646,9.451984 2.36267,11.815027 0,14.177791 -2.36267,16.54102 -7.08894,33.08176 -18.90462,54.34877 -21.26636,54.34849 -16.5413,56.71209 -14.17733,59.07458 -7.08903,30.71862 -7.08968,33.08297 -7.08765,63.79973 -4.7271,35.44545 -2.36258,35.4436 -2.36249,35.44554 0,35.44545 2.36249,80.34113 9.45217,44.89752 11.81484,42.53319 21.26636,85.06805 2.36471,11.81456 2.36249,11.81456 0,14.179 0,11.81447 -4.7272,11.81456 -2.36248,4.72507 -2.36249,4.72692 -4.7272,2.36257 -4.72516,2.36249 -4.72645,0 -7.08764,0 -9.45227,-2.36249 -7.08968,-4.72506 -7.08904,-4.72701 -7.08764,-7.08755 -9.45235,-14.17891 -9.45143,-14.17714 -4.7272,-11.81642 -7.08968,-14.17705 -4.72516,-14.17899 -7.08959,-14.17705 -7.08913,-33.08111 -7.08764,-28.35605 -7.08969,-70.89099 -2.36257,-25.99161 -2.36388,-28.35596 0,-56.71209 0,-49.62268 0,-14.17891 0,-14.17705 0,-11.81456 2.36388,-14.17899 4.72515,-73.25163 7.08959,-51.98703 7.08969,-49.62259 4.7246,-51.98508 9.45217,-49.62268 9.45226,-42.53393 2.36258,-18.90388 4.72636,-18.90406 4.72516,-18.90378 7.08968,-16.54093 7.08978,-18.90387 7.08894,-16.541023 4.72516,-9.451798 4.72516,-9.451985 4.72701,-7.089034 7.08978,-7.088942 9.45161,-4.725992 9.45217,-4.725992 18.90387,-9.451984 z m -427.70105,16.540926 11.81485,2.363042 11.81413,0 14.17941,4.725899 11.81412,2.363043 11.81485,7.089034 7.08958,7.088849 2.36264,9.452077 0,4.725993 -2.36264,4.725987 -2.36456,7.08885 -7.08765,7.08904 -16.5412,9.45198 -18.90455,7.08885 -14.17676,9.45199 -23.63091,14.17806 -21.26633,16.54093 -18.90457,18.90388 -18.90382,21.26691 -9.45222,14.1778 -9.45161,16.54176 -18.90444,35.4435 -16.54131,40.17052 -7.08765,18.90396 -4.7272,16.54149 -4.72515,21.26664 -2.3625,18.90396 -2.36384,23.63099 0,21.26664 0,44.89558 2.36384,47.2601 4.72513,44.89753 9.45222,42.53309 9.45222,37.80803 7.0891,16.54149 4.72514,14.17705 14.1793,35.44545 21.26646,30.71862 14.17736,14.179 14.17869,11.81447 11.81485,7.0895 16.54119,7.08764 18.90383,4.72692 9.45222,2.36258 9.45161,0 21.26707,0 18.90383,-2.36258 9.45221,-2.36443 7.08705,-2.36249 16.54193,-7.08764 16.54132,-14.179 14.17736,-18.90397 14.17869,-18.90406 7.08765,-11.81456 4.72719,-11.81447 4.72499,-11.81457 2.36396,-11.81641 4.72514,-14.17705 2.36252,-14.179 0,-14.17705 0,-14.1789 0,-16.53963 -2.36252,-14.179 -4.72514,-54.34765 -7.08895,-25.99347 -9.45234,-23.62903 -11.81473,-21.2685 -7.08909,-9.45208 -7.08959,-11.81447 -16.53926,-16.53962 -9.45234,-9.45199 -9.45222,-7.0895 -9.45162,-7.08949 -11.81678,-4.72507 -11.81411,-4.72692 -11.81486,-4.72506 -11.81473,-2.36444 -16.54131,0 -33.08119,2.36444 -16.54132,0 -16.5412,0 -4.72514,-2.36444 -7.08971,-2.36258 -4.72514,-2.36248 -2.36457,-2.36249 -2.36251,-4.72701 0,-4.72506 0,-9.45199 2.36251,-7.0895 4.7272,-7.08949 2.36251,-4.72507 2.36251,-4.72701 7.0897,-7.08746 9.45161,-4.72701 9.45223,-7.08941 11.81412,-4.72516 14.17941,-2.36248 14.17675,0 14.1793,0 21.26646,4.72506 18.90383,4.72692 21.26707,4.72507 16.5412,7.0895 18.90383,9.45198 16.53999,7.0895 14.17869,9.45198 14.17736,11.81457 14.17865,9.45207 14.17735,14.17705 11.81413,11.81456 9.45234,14.17891 11.81412,14.17714 9.45222,16.54139 7.0897,16.54158 7.08899,18.90406 9.45234,25.99152 9.45221,23.63098 2.36252,14.17714 2.3626,16.54139 0,16.54157 2.36388,16.53963 0,18.90397 0,16.54148 -2.36388,16.54148 -2.3626,14.17715 -2.36252,42.533 -11.81485,40.17246 -14.17869,37.80618 -16.54192,35.44545 -9.44956,14.17899 -9.45222,16.53963 -11.81617,14.179 -9.45234,14.17705 -14.17736,14.1789 -14.17865,11.81456 -14.17736,9.45208 -14.17663,11.81456 -16.54205,7.0895 -18.90383,9.45189 -7.08898,2.36258 -7.08971,0 -14.17736,2.36249 -16.5412,0 -14.17736,2.36258 -14.17881,0 -14.17735,-2.36258 -16.54121,-2.36249 -16.54131,-4.72506 -16.53987,-4.72692 -16.54132,-4.72507 -21.26634,-9.45198 -16.54193,-16.54158 -11.81424,-7.0894 -11.81472,-9.45208 -9.45162,-9.45198 -11.81485,-9.45199 -18.90383,-21.26655 -16.54193,-25.99355 -7.08897,-14.17705 -7.08972,-11.81457 -11.81484,-30.71853 -4.72502,-14.17899 -4.72647,-14.17705 -9.45235,-30.72048 -4.72501,-14.17705 -2.36264,-14.17696 -4.72707,-28.35614 -2.36263,-28.35595 -4.72647,-30.71862 -2.36251,-25.99347 0,-25.99356 0,-25.99161 2.36251,-23.63089 2.36456,-51.98517 9.45161,-54.34961 11.81485,-49.62259 14.17664,-49.6225 7.08971,-23.62912 9.45233,-23.63089 9.45149,-23.62968 9.45234,-18.90388 11.81473,-21.26692 11.81413,-18.90406 14.17941,-18.90378 14.17675,-16.54093 16.5412,-14.17788 16.54193,-14.17789 7.08777,-4.725987 7.08898,-7.088942 18.90443,-9.451984 16.54133,-9.452077 9.45221,-2.36295 9.45162,-4.725992 28.35604,-4.725992 z m 767.97001,189.038944 35.447,2.36248 28.3542,2.36444 25.9902,4.72497 11.8221,2.36258 9.4381,4.72692 9.4584,4.72506 9.4575,4.72702 9.4577,7.08949 9.4388,7.08755 7.0931,9.45199 7.0929,7.0895 7.0939,9.45198 7.0742,11.81456 4.7284,9.45199 4.7293,11.81447 2.3645,11.81651 2.3639,11.81456 2.3645,14.17705 0,14.179 0,14.17705 -4.7284,14.17899 -2.3645,14.17705 -4.7293,11.81456 -11.8026,23.63099 -7.0939,9.45198 -4.7284,7.08764 -16.5318,16.54139 -16.5514,14.179 -14.1868,14.17705 -28.3539,18.90406 -28.3542,18.90397 -56.7081,37.80812 -9.4576,4.72506 -11.8034,4.72692 -18.9152,11.81457 -30.7187,18.90397 -30.7187,18.90406 -25.9894,18.90397 -14.1681,11.81456 -11.8214,11.81456 -21.2671,23.63098 -14.1767,16.53954 -9.4523,16.54148 -9.4515,18.90406 -2.3627,9.45208 -2.3645,9.45198 0,9.45199 0,9.45198 2.3645,9.45198 4.7246,9.45208 2.3625,2.36249 2.3646,2.36258 7.0876,2.36443 7.0898,2.36249 7.0889,0 7.0897,0 7.0878,-2.36249 18.9078,-7.0895 16.5319,-9.45208 14.1867,-9.45198 21.261,-14.1789 23.625,-21.26655 26.009,-25.99171 25.9894,-25.99346 18.8965,-25.99347 16.5507,-25.99161 14.168,-25.99347 11.8221,-25.99356 9.4389,-14.17705 7.093,-11.81456 4.7292,-4.72692 7.093,-9.45198 18.8964,-14.17714 9.4578,-7.0895 4.729,-4.72692 7.093,-2.36249 11.8035,-2.36258 4.7284,0 4.7291,0 4.7286,2.36258 4.7291,4.72692 4.7096,2.36249 2.3647,7.0895 4.7285,11.81456 2.3646,14.17714 2.3645,18.90397 2.3645,16.54148 0,30.71863 0,21.26645 0,21.26655 4.7284,37.80803 9.4578,35.44554 9.4387,33.08111 4.7293,11.81642 4.7284,14.17705 4.7291,11.81456 4.7291,4.72701 4.7097,2.36249 2.3646,0 2.364,-2.36249 2.3645,-2.36258 4.7291,-9.45198 2.3646,-11.81651 2.3639,-14.17705 4.7292,-28.35595 2.3645,-21.26664 7.0743,-40.17052 2.3645,-21.26849 2.364,-21.26655 2.3646,-23.62903 2.3645,-23.63098 0,-44.89558 0,-23.63108 0,-23.62903 -2.3645,-23.62913 -2.3646,-21.2684 -2.364,-21.26655 -4.7104,-18.90406 -4.7284,-18.90397 -4.729,-16.53962 -9.4578,-23.63098 -2.3645,-16.54149 -4.7285,-14.17705 -2.3646,-16.54157 0,-14.17705 4.7286,-11.81447 2.3645,-4.72701 4.7291,-2.36249 4.7285,-2.36258 7.0937,0 11.8028,0 9.4576,4.72507 7.0936,7.0895 4.7286,2.36248 4.7104,4.72692 7.093,14.17714 9.4576,14.17705 7.0931,14.179 11.8034,33.08111 9.4576,30.72048 2.3646,11.81447 4.7291,16.53963 7.093,14.17899 2.3645,4.72507 2.3452,4.72692 4.7292,0 2.3646,0 4.7284,-2.36249 4.7291,-7.0895 4.7286,-9.45198 4.729,-9.45208 7.0743,-21.26655 4.7285,-7.08949 4.7291,-7.08941 11.8223,-21.26655 16.5318,-21.26664 16.5513,-18.90397 16.5319,-16.54157 21.261,-14.17705 9.4577,-7.0895 11.8222,-7.0895 14.1673,-4.72497 11.8222,-4.72692 14.1673,-2.36258 14.1867,-4.72506 14.1868,0 11.8026,0 11.8223,2.36248 11.8033,2.36258 18.9153,9.45199 16.532,7.0895 11.822,7.0894 9.4577,7.08765 9.4388,7.08949 9.4576,9.45199 7.0938,9.45207 9.4388,9.45199 14.1861,21.26655 11.8221,23.63098 9.439,25.99161 7.0929,28.35604 7.0937,28.35605 2.364,44.89753 0,40.17061 -9.4577,70.88914 -7.0929,35.44545 -9.439,33.08111 -16.5506,54.34951 -9.4576,25.99161 -9.4388,23.63098 -18.9159,37.80803 -7.0743,14.17705 -7.0931,14.179 -9.4575,14.17705 -9.4576,14.17899 -9.4389,11.81447 -11.8222,11.81457 -14.1673,9.45207 -11.8221,7.0895 -14.1868,7.08755 -11.8035,2.36443 -7.093,0 -7.0931,-2.36443 -4.7291,-4.72506 -2.3645,-7.0895 0,-7.0895 0,-9.45198 2.3645,-18.90212 4.7291,-21.2684 7.0931,-16.53972 4.7292,-14.1789 25.9895,-63.79965 23.6248,-54.3496 11.8223,-28.35595 7.0937,-28.35605 4.7284,-16.53963 4.7104,-18.90396 2.364,-18.90407 2.3645,-18.90406 0,-18.90397 0,-18.90396 0,-18.90407 -2.3645,-18.90406 -4.7285,-18.90397 -4.7105,-16.54148 -4.7284,-16.53963 -7.0931,-14.1789 -9.4583,-11.81456 -9.4381,-11.81456 -4.7292,-4.72702 -7.0929,-4.72506 -11.8223,-7.0895 -16.5318,-2.36249 -7.0938,0 -7.093,0 -16.5319,4.72507 -9.4576,2.36248 -7.0937,2.36444 -14.1673,7.08764 -14.1867,9.45199 -9.4389,9.45207 -9.4576,7.0895 -11.8223,14.1789 -11.8027,14.17705 -11.8221,18.90406 -9.4577,18.90397 -9.4388,18.90406 -7.0936,21.26655 -14.1863,42.5331 -14.1678,47.26001 -11.8223,47.26011 -18.8965,89.79311 -7.0929,37.80802 -9.4576,40.17061 -7.0743,18.90406 -9.4577,16.54139 -4.7291,7.0895 -4.7285,7.08765 -7.0937,4.72692 -7.0743,2.36257 -9.4576,2.36249 -7.093,2.36443 -18.8965,2.36258 -14.1868,-2.36258 -14.1673,-4.72692 -7.0937,-2.36257 -7.0929,-4.72692 -11.8222,-9.45013 -9.4389,-9.45199 -9.4576,-11.81642 -16.5319,-28.35604 -14.1868,-30.71863 -9.4575,-30.71853 -7.0744,-28.35604 -11.822,-40.17061 -2.3646,-11.81447 -2.3648,-11.81456 -2.3637,-4.72692 -2.3647,-2.36258 -2.3645,-2.36249 -2.3645,-2.36443 -2.364,0 -16.5325,14.17899 -14.1861,16.54139 -23.6255,37.80618 -30.7187,40.17246 -16.532,23.62913 -16.5505,21.26655 -18.8965,18.90406 -21.2611,18.90397 -18.9153,16.54148 -11.8033,7.0895 -9.4577,7.08755 -14.1867,4.72701 -14.1673,4.72506 -28.3602,7.0895 -11.816,0 -14.1775,-2.36258 -11.8142,0 -14.1792,-4.72692 -11.8149,-4.72506 -11.8141,-4.72701 -18.9038,-14.17705 -9.4522,-7.08941 -7.0897,-9.45207 -7.08913,-9.45199 -4.72506,-11.81456 -2.36258,-9.45199 -4.7271,-11.81456 0,-9.45198 -2.36268,-11.81457 2.36268,-21.26849 2.36248,-21.26655 4.7272,-21.26645 7.08903,-21.26664 4.72516,-16.54148 7.0897,-14.17705 16.5412,-30.72048 16.54,-23.62904 18.9038,-23.62903 18.9038,-18.90406 21.2671,-18.90406 23.6248,-16.54139 25.9902,-16.54158 26.0082,-16.53962 54.3444,-28.35596 25.9894,-14.17899 11.8223,-9.45199 14.1673,-7.08764 16.5513,-11.81642 16.5319,-16.53953 11.8221,-9.45208 7.0931,-9.45198 9.4388,-9.45208 9.4577,-11.81447 7.0931,-11.81642 4.729,-11.81456 4.7098,-11.81457 2.3645,-11.81456 0,-11.81642 0,-7.08755 -2.3645,-7.0895 -4.7098,-11.81456 -7.093,-14.17899 -7.0937,-7.08765 -7.0931,-4.72692 -9.4388,-4.72497 -11.8223,-4.72701 -14.186,-4.72507 -11.8033,-2.36434 -14.1868,-2.36258 -16.532,-2.36258 -30.7186,-2.36248 -28.354,0 -28.3541,4.72506 -14.1868,2.36258 -11.8222,2.36434 -33.0751,11.81457 -21.2664,7.0894 -7.0898,2.36258 -4.7251,-2.36258 0,-7.0894 2.3626,-4.72702 2.3625,-7.08755 4.7272,-4.72692 7.089,-7.08949 9.4522,-7.08765 14.1734,-9.45189 11.8222,-9.45198 14.1673,-9.45208 16.5513,-7.0895 33.0826,-14.17705 37.8124,-9.45198 47.2505,-4.72692 z m -1975.45857,44.89753 9.45235,0 9.45152,0 7.08969,2.36248 7.08838,4.72497 7.08897,4.72702 4.72647,4.72506 4.72587,4.72692 2.36251,7.0895 4.72647,14.17705 2.36323,9.45198 0,9.45199 -2.36323,18.90406 -2.36323,18.90406 -2.36324,21.26655 -2.36251,9.45207 0,11.81457 4.72575,2.36434 4.72646,-2.36434 7.08838,-4.72516 14.17797,-14.17891 14.17808,-16.53962 9.45222,-11.81642 11.81412,-9.45208 11.81617,-7.08755 25.99149,-16.54157 25.99354,-11.81447 14.17736,-7.0895 16.54132,-2.36249 14.17941,-2.36258 11.81413,-2.36434 14.17735,0 11.81413,2.36434 11.81678,4.72507 9.45161,4.72701 7.08766,7.08746 4.72719,9.45208 2.36251,9.45198 2.36251,9.45208 -2.36251,9.45198 -2.36251,7.0895 -4.72719,7.0895 -4.72514,7.08755 -4.72648,4.72701 -7.08765,4.72506 -7.08971,4.72692 -9.45222,4.72507 -16.54131,7.0895 -16.53915,4.72692 -14.17941,4.72506 -44.89531,2.36258 -9.45234,2.36443 -9.45223,4.72498 -18.90383,9.45198 -16.54131,9.45208 -16.5412,11.81456 -16.5406,14.179 -14.17808,16.53953 -4.72575,7.0895 -7.0897,7.0894 -4.72575,7.0895 -2.36263,9.45023 -4.72647,14.1789 -2.36251,14.17705 -2.36323,14.17899 0,16.54149 2.36323,30.71853 4.72575,30.71862 4.72586,51.98508 11.81545,42.53495 14.17737,42.53319 14.17808,40.17051 14.17796,40.17052 7.0897,18.90406 4.72515,16.54148 2.36251,14.17714 0,14.17891 0,7.0895 0,7.08755 -2.36251,4.72701 -2.36263,4.72506 -4.72635,2.36249 -4.72587,2.36443 -7.08898,2.36258 -7.08898,-2.36258 -11.81485,-4.72692 -9.45222,-7.08949 -7.08838,-7.08765 -18.90455,-18.90397 -16.54058,-21.26654 -7.08904,-9.45208 -7.08894,-11.81642 -14.17807,-25.99152 -16.54065,-35.44563 -14.17806,-37.80794 -7.08895,-23.62913 -7.08903,-23.63098 -11.81484,-49.62259 -7.08894,-42.53309 -7.08904,-49.6225 -4.72581,-51.98703 -2.36322,-54.34766 0,-25.99356 2.36322,-25.99152 2.36258,-25.99356 4.72646,-23.63098 4.72581,-21.26654 2.36248,-11.81457 4.72646,-9.45207 7.08903,-18.90397 11.81484,-14.17705 7.08895,-9.45208 4.72589,-4.72692 7.08895,-2.36248 23.62959,-11.81447 z m 392.25664,0 14.17748,0 4.72707,2.36248 7.08765,2.36249 4.72648,2.36248 2.36263,4.72702 7.08958,9.45198 2.36264,11.81456 0,11.81447 0,14.179 -2.36264,11.81456 -4.72707,14.17705 -7.08766,11.81651 -7.0891,11.81447 -9.45221,9.45208 -9.45222,7.08941 -9.45161,4.72515 -11.81485,2.36249 -11.81473,0 -9.45162,-4.72507 -4.72707,-4.72692 -4.72514,-2.36257 -2.36456,-4.72507 -4.72514,-4.72692 -2.36192,-9.45208 -2.36251,-11.81447 -2.36456,-11.81456 2.36456,-14.17899 4.72443,-11.81457 7.0897,-14.17705 9.45221,-14.1789 11.81413,-11.81456 11.81485,-7.0895 16.5412,-4.72497 z m 2594.56923,35.44359 25.9894,0 25.9896,2.36434 21.261,4.72507 21.2798,4.72701 21.261,9.45189 16.5319,9.45208 7.093,4.72506 7.0938,7.0895 11.8221,14.17705 7.0743,14.179 4.7284,9.45198 2.3646,9.45199 2.3646,11.81456 0,9.45208 -2.3646,9.45198 -2.3646,2.36249 -2.3646,2.36257 -4.7284,2.36444 -7.0743,2.36248 -14.1867,0 -14.1673,-2.36248 -9.4576,-4.72701 -4.7292,-2.36249 -7.0931,-4.72692 -9.4388,-7.08764 -16.5513,-16.54149 -9.4576,-7.08949 -11.8027,-7.0895 -11.8222,-7.08755 -16.5326,-4.72702 -11.8214,0 -11.8223,0 -11.8035,2.36258 -9.4575,2.36444 -11.8222,2.36248 -9.4388,4.72507 -14.1868,9.45207 -11.8028,7.0895 -9.4575,7.08941 -16.5514,16.54157 -14.1673,18.90202 -7.0936,9.45208 -7.0932,11.81642 -9.4388,23.62903 -9.4576,25.99356 -2.3645,11.81456 -4.7284,14.17705 -4.7294,28.35605 -2.3645,16.54148 -2.3639,18.90406 0,21.26646 2.3639,16.54157 4.7292,21.26655 7.0931,21.26655 7.0936,18.90397 9.4577,16.54148 7.0742,11.81456 9.4577,9.45199 9.4576,9.45198 9.4389,7.0895 16.5505,7.0895 14.168,7.08764 7.0931,0 7.0937,2.36249 14.1673,0 14.1868,-2.36249 7.0929,0 4.7293,-2.36258 14.1672,-4.72506 11.8222,-7.0895 11.8034,-7.0895 11.8216,-7.0895 11.8221,-9.45198 9.4389,-9.45199 37.8117,-30.71853 11.8222,-7.0895 9.4388,-4.72506 11.8222,0 4.7292,0 7.0929,0 4.7292,2.36258 4.7097,0 9.4576,7.0894 4.7291,2.36258 4.7285,4.72692 7.0931,11.81456 7.0749,14.17705 2.3639,14.179 0,9.45198 0,7.0895 0,7.08755 0,9.45208 -4.7285,14.1789 -4.7103,14.17705 -7.0931,14.179 -4.7285,11.81456 -9.4583,9.45199 -9.4381,9.45207 -11.8221,11.81447 -11.8223,9.45199 -28.3541,18.90406 -16.5325,9.45198 -16.5506,7.0895 -16.5319,7.08764 -18.9153,7.0895 -18.8963,4.72692 -18.8965,2.36249 -18.9159,2.36248 -18.8965,2.36258 -21.2604,-2.36258 -18.9159,-2.36248 -28.354,-7.08941 -11.8222,-2.36258 -14.1674,-7.08949 -11.8221,-4.72507 -11.8034,-4.72692 -9.4576,-7.0895 -9.4576,-7.08764 -7.0931,-7.08941 -7.0743,-9.45207 -11.8222,-14.17891 -9.4575,-16.53962 -9.4389,-16.54149 -9.4576,-18.90406 -7.0936,-18.90397 -7.0932,-18.90406 -4.7096,-18.90406 -2.3646,-21.26645 -2.3646,-21.26664 -2.3645,-21.26646 0,-23.63098 0,-21.26655 2.3645,-23.62912 7.093,-42.53495 4.7104,-23.62913 4.7286,-21.26654 7.0936,-16.54149 4.7284,-14.17705 14.1681,-30.72047 9.4575,-14.17705 7.0932,-14.17705 18.8964,-28.35605 23.6255,-25.99356 9.4578,-11.81447 14.186,-11.81651 11.8033,-9.45013 11.8223,-9.45198 28.3539,-14.179 21.2611,-7.0895 23.6444,-4.72497 30.7187,-4.72692 z m -2329.914278,63.8015 -4.725027,0 -7.089702,2.36248 -14.178691,2.36258 -11.814841,2.36444 -11.81485,2.36248 -11.814128,4.72507 -9.452213,7.0895 -18.90383,11.81456 -16.54133,16.54148 -14.17735,16.54148 -14.17869,18.90407 -9.45222,18.90406 -9.45233,21.26645 -9.4515,23.62913 -4.72514,49.62259 -2.36263,18.90406 0,18.90397 2.36263,18.90397 2.36251,16.54157 4.72647,18.90406 4.72514,14.17696 7.08971,16.54148 7.08766,14.17714 9.45221,11.81642 11.81618,11.81456 9.45221,11.81448 11.81425,9.45198 14.17736,7.0895 11.81412,7.0895 14.179297,4.72506 14.176753,4.72507 14.179413,0 14.176632,0 11.8169,-2.36249 11.814127,-4.72507 11.81473,-7.08949 9.4516131,-4.72507 16.5419179,-11.81651 14.176762,-14.17696 14.179293,-14.17899 7.087773,-7.08765 4.726465,-9.45198 11.81473,-16.54148 9.452337,-21.26646 9.451493,-18.90406 7.089711,-21.26664 7.087653,-21.26645 2.364563,-16.54148 2.362637,-16.54158 2.3625,-18.90397 0,-16.54148 -2.3625,-16.53963 0,-18.90406 -4.7272,-16.54139 -2.362514,-14.17714 -4.725139,-16.54148 -7.089711,-14.17705 -4.726465,-11.81642 -9.452216,-11.81456 -7.087662,-11.81457 -4.727189,-4.72692 -4.725028,-4.72506 -11.814238,-7.0895 -9.452216,-4.72506 -14.17869,-4.72702 -16.54192779,-2.36248 -14.17675221,0 -18.90383,0 z m 11.814248,-59.07458 28.3560456,0 14.1792934,0 14.176752,2.36249 11.81485,2.36248 11.814118,2.36453 11.816789,4.72497 11.814118,4.72692 18.904564,9.45208 16.54119,11.81456 9.45162,7.08755 7.08765,7.0895 16.54193,18.90406 14.17675,18.90406 11.81678,21.26655 9.45161,23.63089 9.45222,25.9917 9.45233,25.99347 4.72503,25.99347 4.72647,28.35604 2.36263,28.35605 0,28.3541 -2.36263,28.35604 -4.72647,30.72048 -2.36251,14.17705 -2.36252,14.17705 -11.8169,33.08305 -4.72513,16.54139 -4.72636,7.08765 -2.36263,7.0895 -16.54192,30.71853 -9.45161,14.17899 -9.45222,11.81447 -9.45029,14.17715 -9.45221,11.81641 -11.81618,11.81457 -11.81413,9.45198 -14.177353,9.45199 -11.816176,9.45198 -14.177365,7.08764 -14.177355,9.45208 -16.541204,9.45198 -11.814238,4.72692 -11.8167888,4.72507 -30.7185502,4.72692 -16.539275,2.36248 -16.542039,2.36258 -16.541195,0 -14.177364,-2.36258 -21.268397,-2.36248 -16.53926,-7.08941 -18.90383,-7.0895 -16.54193,-9.45198 -14.17675,-9.45208 -11.81678,-11.81456 -14.17676,-11.81456 -9.45222,-14.17891 -11.81485,-14.17705 -9.45149,-14.17714 -7.0897,-16.54148 -7.08971,-18.90397 -14.17676,-35.44554 -4.72707,-18.90406 -4.72514,-21.26655 -7.08898,-33.08102 -2.36264,-40.17061 0,-18.90406 2.36264,-21.26645 0,-18.90406 4.72646,-16.54149 11.81473,-54.34951 7.08971,-23.62912 9.45162,-23.63098 4.72514,-11.81457 7.0897,-9.45198 14.17664,-21.26655 16.54192,-21.26655 16.54132,-16.54148 21.26634,-16.54148 21.26706,-16.53963 21.26647,-11.81456 23.630903,-11.81642 28.356046,-4.72506 21.266464,-7.0895 23.628977,-2.36249 z m 2807.23223,66.16408 -11.8222,2.36248 -11.8033,2.36258 -11.8215,2.36249 -9.4583,2.36443 -18.8965,9.45199 -9.4576,4.72515 -7.0742,7.08941 -14.1862,14.17714 -14.1867,16.54139 -11.8035,18.90406 -11.8221,18.90406 -7.0931,18.90397 -7.0743,21.26655 -7.093,21.26664 -4.7291,21.26645 -2.3646,21.2685 -2.3646,21.26654 0,21.26655 2.3646,18.90406 2.3646,9.45199 2.3645,9.45207 4.7286,18.90397 4.729,16.53954 9.4389,14.17899 9.4576,16.54149 4.7284,4.72506 7.0939,7.0895 14.1672,11.81447 7.0937,4.72701 7.0931,2.36249 9.4388,4.72506 7.093,2.36444 18.9152,4.72506 14.168,2.36258 11.8222,0 11.8028,-2.36258 11.8222,-2.36249 9.4576,-2.36257 9.4388,-4.72692 16.5513,-9.45208 9.4576,-4.72507 9.439,-7.0894 14.186,-14.179 14.1679,-16.53963 11.8223,-18.90396 11.8221,-18.90406 9.4382,-21.26646 7.0938,-21.26849 4.7284,-25.99162 4.7291,-21.26654 2.3645,-21.2685 2.364,-18.90397 -2.364,-21.26654 -2.3645,-18.90406 -2.3645,-18.90397 -7.093,-18.90406 -7.0938,-16.53963 -2.3639,-7.0895 -4.7104,-7.08941 -11.8222,-14.17704 -11.8215,-11.81457 -11.8034,-9.45207 -16.5513,-9.45199 -16.532,-4.72692 -9.4574,-2.36258 -9.4577,-2.36248 -18.8965,0 z m 2.3646,-66.16408 25.9896,0 23.6256,2.36249 11.8221,2.36248 9.4576,2.36453 11.8028,4.72497 9.4575,2.36249 18.8965,11.81651 9.4584,4.72506 9.4574,7.0895 9.439,7.08755 9.4575,7.0895 14.1861,18.90406 14.1681,18.90406 11.8221,21.26655 7.0931,11.81642 4.7096,11.81447 4.7291,11.81456 4.7286,11.81456 7.0937,25.99347 4.7284,25.99171 2.3647,14.1789 2.3645,14.17705 0,28.35604 0,28.35605 -2.3645,28.35604 -4.7286,30.71854 -4.7291,28.35604 -9.4577,33.08297 -11.8034,28.35604 -14.186,28.3541 -14.168,25.99347 -16.5507,23.63107 -18.8965,23.62903 -21.2797,21.26655 -21.261,16.54148 -11.8222,9.45208 -16.532,7.0895 -16.5318,9.45198 -18.9158,7.08755 -18.8965,4.72692 -21.2798,4.72507 -21.2603,2.36258 -21.2611,-2.36258 -23.6255,-4.72507 -18.9154,-4.72692 -21.261,-7.08755 -16.5506,-7.0895 -16.5319,-9.45198 -14.1868,-9.45208 -14.1679,-11.81456 -11.8215,-11.81642 -11.8034,-14.17705 -9.4576,-14.17705 -9.4577,-16.54148 -7.0937,-16.54157 -7.0742,-16.54139 -7.0931,-18.90406 -11.8221,-42.5331 -4.7293,-18.90406 -2.3638,-21.26655 -2.3458,-21.26654 -2.3646,-23.63089 0,-23.62913 2.3646,-21.26655 2.3458,-21.26654 4.7284,-21.2685 7.0938,-28.35595 7.093,-28.35419 9.4576,-23.63089 4.7097,-14.17714 7.0937,-11.81642 14.1861,-18.90211 7.0744,-11.81642 7.0936,-9.45198 14.1861,-18.90407 18.8964,-16.53962 18.916,-14.179 21.2602,-14.17705 21.2611,-11.81456 23.6256,-9.45208 49.6338,-11.81642 30.7187,-4.72497 z"
       style="fill:url(#linearGradient4284);fill-opacity:1;fill-rule:nonzero;stroke:none" />
  </g>
</svg>
