<?xml version="1.0" encoding="UTF-8" standalone="no"?>
<!-- Created with Inkscape (http://www.inkscape.org/) -->

<svg
   xmlns:dc="http://purl.org/dc/elements/1.1/"
   xmlns:cc="http://creativecommons.org/ns#"
   xmlns:rdf="http://www.w3.org/1999/02/22-rdf-syntax-ns#"
   xmlns:svg="http://www.w3.org/2000/svg"
   xmlns="http://www.w3.org/2000/svg"
   xmlns:xlink="http://www.w3.org/1999/xlink"
   xmlns:sodipodi="http://sodipodi.sourceforge.net/DTD/sodipodi-0.dtd"
   xmlns:inkscape="http://www.inkscape.org/namespaces/inkscape"
   width="1485.6521mm"
   height="379.89645mm"
   viewBox="0 0 5264.1216 1346.0898"
   id="svg2"
   version="1.1"
   inkscape:version="0.91 r13725"
   sodipodi:docname="san_lorenzo.svg">
  <defs
     id="defs4">
    <linearGradient
       inkscape:collect="always"
       id="linearGradient4152">
      <stop
         style="stop-color:#e7c028;stop-opacity:1;"
         offset="0"
         id="stop4154" />
      <stop
         style="stop-color:#198d34;stop-opacity:1"
         offset="1"
         id="stop4156" />
    </linearGradient>
    <pattern
       y="0"
       x="0"
       height="6"
       width="6"
       patternUnits="userSpaceOnUse"
       id="EMFhbasepattern" />
    <pattern
       y="0"
       x="0"
       height="6"
       width="6"
       patternUnits="userSpaceOnUse"
       id="EMFhbasepattern-6" />
    <linearGradient
       inkscape:collect="always"
       xlink:href="#linearGradient4152"
       id="linearGradient4204"
       x1="-2209.9148"
       y1="-892.96301"
       x2="3054.207"
       y2="-892.96301"
       gradientUnits="userSpaceOnUse" />
  </defs>
  <sodipodi:namedview
     id="base"
     pagecolor="#ffffff"
     bordercolor="#666666"
     borderopacity="1.0"
     inkscape:pageopacity="0.0"
     inkscape:pageshadow="2"
     inkscape:zoom="0.175"
     inkscape:cx="2528.3297"
     inkscape:cy="2006.9047"
     inkscape:document-units="px"
     inkscape:current-layer="layer1"
     showgrid="false"
     fit-margin-top="0"
     fit-margin-left="0"
     fit-margin-right="0"
     fit-margin-bottom="0"
     inkscape:window-width="1920"
     inkscape:window-height="1138"
     inkscape:window-x="1358"
     inkscape:window-y="-8"
     inkscape:window-maximized="1" />
  <metadata
     id="metadata7">
    <rdf:RDF>
      <cc:Work
         rdf:about="">
        <dc:format>image/svg+xml</dc:format>
        <dc:type
           rdf:resource="http://purl.org/dc/dcmitype/StillImage" />
        <dc:title></dc:title>
      </cc:Work>
    </rdf:RDF>
  </metadata>
  <g
     inkscape:label="Capa 1"
     inkscape:groupmode="layer"
     id="layer1"
     transform="translate(2249.9145,150.6231)">
    <g
       id="g4163"
       transform="translate(-40,1280)">
      <path
         style="fill:#d8713f;fill-opacity:1;fill-rule:nonzero;stroke:none"
         d="m 2812.004,-87.705427 0,-177.339993 96.9715,0 0,16.2165 -79.3326,0 0,63.81609 76.5104,0 0,15.8637 -76.5104,0 0,65.5771 79.3326,0 0,15.866603 -96.9715,0 z m -639.2051,0 0,-177.339993 17.6388,0 0,177.339993 -17.6388,0 z m 40.9222,-49.713503 19.0218,0 1.0724,7.4055 0.7056,3.1722 1.0442,3.1722 3.5278,6.3472 4.2333,5.2888 5.2775,4.9361 3.1892,1.761 2.8222,1.4111 6.6886,1.7639 7.0556,0.7056 7.3942,-0.3528 6.7169,-2.1167 5.9831,-2.8194 3.1609,-2.1166 2.8222,-2.4666 4.6003,-4.9361 3.1608,-5.9944 2.1167,-6.7 0.7056,-7.4027 -0.7056,-7.0499 -2.4553,-6.6999 -3.8947,-6.3472 -5.2775,-4.9361 -2.8223,-2.4666 -2.8222,-1.7639 -6.35,-3.1722 -13.4055,-3.8777 -1.0443,-0.3528 -0.7055,-0.3527 -1.4111,-0.3528 -1.778,-0.3528 -14.7885,-4.5833 -7.0555,-3.5249 -6.35,-4.5833 -3.5278,-3.1722 -2.8222,-3.5278 -2.4554,-3.8777 -2.1166,-4.2305 -1.778,-4.5833 -1.0443,-4.2305 -0.7055,-4.5833 -0.3669,-4.9361 0.3669,-5.2888 0.7055,-4.9361 1.0443,-4.5833 1.778,-4.5833 2.1166,-4.23049 2.4554,-3.8777 2.8222,-3.525 3.5278,-3.5278 3.8664,-3.1721 3.8947,-2.4667 8.4666,-4.2305 9.5109,-2.4694 4.9389,-0.7056 4.9389,0 9.8778,0.7056 8.8053,2.4694 4.2334,2.1139 4.2333,2.4694 7.3942,5.9916 3.5278,3.5278 2.8222,3.8777 4.572,8.10829 1.4111,4.2305 1.0725,4.5833 0.7055,4.936 0,4.9361 -18.3444,-0.3528 -1.0442,-6.3472 -0.7056,-2.8194 -1.0724,-2.8194 -3.1609,-5.2888 -3.8947,-4.5833 -4.9389,-3.87769 -5.2775,-2.8223 -5.6445,-1.4111 -6.6887,-0.7027 -6.35,0.7027 -5.6444,1.4111 -4.9389,3.1722 -4.9389,3.88059 -3.8664,4.5833 -2.4836,5.2888 -1.7498,5.6388 -0.3668,6.3472 0.3668,7.0499 1.0443,3.175 1.0724,2.8194 3.1609,4.9361 4.6002,3.5249 5.6445,2.8222 5.6444,2.4667 11.9662,3.8777 0.7056,0.3528 0.7055,0 3.1892,1.0583 3.1608,0.7056 14.4498,4.936 6.7169,3.525 6.6887,4.9361 3.5278,3.5249 3.1608,4.2305 2.8223,4.2305 2.4835,4.5833 2.1167,5.2889 1.0442,4.936 1.4111,10.5777 -1.0442,10.2249 -1.4111,4.9361 -1.778,4.9361 -4.9389,8.461 -3.5278,4.2305 -3.4995,3.877703 -8.4667,6.3472 -4.6002,2.8194 -4.572,1.7639 -4.9389,1.7611 -4.9389,1.0583 -5.2776,0.7056 -5.3057,0.3527 -10.922,-1.0583 -4.9389,-1.0583 -4.9389,-1.4083 -4.9389,-2.1167 -4.572,-2.4666 -4.2333,-3.175 -4.2334,-3.525 -3.8664,-3.524903 -3.1891,-4.2305 -2.8222,-4.2305 -2.1167,-4.5833 -1.7498,-4.9361 -1.4111,-5.2888 -0.7056,-5.2889 -0.3386,-5.6416 0,-0.3528 z m 117.0375,49.713503 76.5105,-177.339993 19.7273,0 75.8049,177.339993 -19.0218,0 -25.7386,-59.585603 -82.4936,0 -25.7387,59.585603 -19.05,0 z m 51.816,-75.449303 68.4107,0 -33.8384,-81.44369 -34.5723,81.44369 z m 141.732,75.449303 0,-177.339993 46.5385,0 12.3613,0.7055 12.3331,1.0555 5.9831,1.0584 5.6445,1.4111 5.6444,2.4666 5.6445,3.175 5.2775,3.8777 4.6002,4.5833 4.2334,4.93609 1.7498,2.4666 1.4111,2.8222 2.4553,5.9916 1.778,5.9944 1.4111,6.3472 0.3387,6.6971 -0.3387,5.9944 -1.0724,5.9944 -1.4111,5.6388 -2.4554,5.2889 -2.8222,5.2888 -3.5278,4.5833 -3.8664,4.2305 -4.9389,3.8778 -4.9389,3.5277 -5.6444,2.8194 -5.6445,1.7639 -5.6444,1.4083 -11.6276,1.7639 -12.3331,0.3528 -33.4998,0 0,71.218803 -17.6389,0 z m 17.6389,-87.438103 30.6776,0 9.1722,-0.3528 9.144,-0.7027 4.6002,-0.7056 4.2334,-1.4111 8.4666,-3.8777 3.4996,-2.4695 2.8222,-2.8194 4.9389,-6.6999 1.778,-3.8778 1.4111,-3.8777 1.0442,-8.461 0,-0.7056 0,-0.7055 -0.3386,-5.6417 -1.0725,-4.9332 -1.7498,-4.9361 -2.4835,-4.5833 -3.1609,-3.8805 -3.8947,-3.525 -4.2051,-3.1722 -4.9389,-2.46939 -5.6444,-1.7611 -5.6445,-1.4111 -11.9944,-0.7055 -3.8665,0 -3.8946,0 -3.1609,0 -2.8222,0 -22.9165,0 0,73.68539 z m 124.46,87.438103 0,-177.339993 42.3051,0 8.4667,0.3528 8.8053,0.3527 16.9334,2.1139 8.4384,2.4694 7.7611,3.525 6.35,4.2305 5.3058,4.9361 4.9107,5.28879 3.8946,6.3444 3.1609,6.6999 1.0725,3.525 1.0442,3.5249 1.4111,7.0528 0.3669,7.7554 -1.0725,10.5777 -2.8222,9.5194 -2.1166,4.5833 -2.8223,4.5832 -2.8222,3.8778 -3.8664,4.2305 -3.8665,3.5249 -3.8946,3.175 -4.572,2.8194 -4.6003,2.1167 -9.5109,3.1722 -4.9388,0.7055 -5.2776,0.3528 49.6993,65.930003 -21.844,0 -60.2826,-80.385403 5.2775,0 1.4111,0.3528 1.4111,0 6.6887,0 7.0556,-0.3528 11.2889,-1.0583 5.6444,-1.4111 4.9389,-2.1139 5.2775,-2.8222 4.572,-3.1722 3.8947,-4.2305 1.7498,-2.1138 1.778,-2.1167 2.4553,-4.9361 1.778,-5.2888 1.4111,-5.6416 0.3387,-5.6388 0,-0.7056 0,-0.7056 -0.7056,-4.2305 -1.0442,-4.5833 -1.4111,-4.2305 -1.778,-3.8777 -2.4553,-3.8806 -2.8222,-3.5249 -6.35,-5.9944 -3.8665,-2.4666 -3.8947,-1.76389 -8.4666,-2.4666 -8.8054,-1.0584 -8.8053,-0.7055 -3.1891,0 -3.1609,0 -28.2222,0 0,161.123493 -17.6107,0 z"
         id="path4169"
         inkscape:connector-curvature="0" />
      <path
         style="fill:#d8713f;fill-opacity:1;fill-rule:nonzero;stroke:none"
         d="m 2172.7989,-87.705427 0,-177.339993 17.6388,0 0,177.339993 -17.6388,0 z"
         id="path4173"
         inkscape:connector-curvature="0" />
      <path
         style="fill:#d8713f;fill-opacity:1;fill-rule:nonzero;stroke:none"
         d="m 2213.7211,-137.41893 19.0218,0 1.0724,7.4055 0.7056,3.1722 1.0442,3.1722 3.5278,6.3472 4.2333,5.2888 5.2775,4.9361 3.1892,1.761 2.8222,1.4111 6.6886,1.7639 7.0556,0.7056 7.3942,-0.3528 6.7169,-2.1167 5.9831,-2.8194 3.1609,-2.1166 2.8222,-2.4666 4.6003,-4.9361 3.1608,-5.9944 2.1167,-6.7 0.7056,-7.4027 -0.7056,-7.0499 -2.4553,-6.6999 -3.8947,-6.3472 -5.2775,-4.9361 -2.8223,-2.4666 -2.8222,-1.7639 -6.35,-3.1722 -13.4055,-3.8777 -1.0443,-0.3528 -0.7055,-0.3527 -1.4111,-0.3528 -1.778,-0.3528 -14.7885,-4.5833 -7.0555,-3.5249 -6.35,-4.5833 -3.5278,-3.1722 -2.8222,-3.5278 -2.4554,-3.8777 -2.1166,-4.2305 -1.778,-4.5833 -1.0443,-4.2305 -0.7055,-4.5833 -0.3669,-4.9361 0.3669,-5.2888 0.7055,-4.9361 1.0443,-4.5833 1.778,-4.5833 2.1166,-4.23049 2.4554,-3.8777 2.8222,-3.525 3.5278,-3.5278 3.8664,-3.1721 3.8947,-2.4667 8.4666,-4.2305 9.5109,-2.4694 4.9389,-0.7056 4.9389,0 9.8778,0.7056 8.8053,2.4694 4.2334,2.1139 4.2333,2.4694 7.3942,5.9916 3.5278,3.5278 2.8222,3.8777 4.572,8.10829 1.4111,4.2305 1.0725,4.5833 0.7055,4.936 0,4.9361 -18.3444,-0.3528 -1.0442,-6.3472 -0.7056,-2.8194 -1.0724,-2.8194 -3.1609,-5.2888 -3.8947,-4.5833 -4.9389,-3.87769 -5.2775,-2.8223 -5.6445,-1.4111 -6.6887,-0.7027 -6.35,0.7027 -5.6444,1.4111 -4.9389,3.1722 -4.9389,3.88059 -3.8664,4.5833 -2.4836,5.2888 -1.7498,5.6388 -0.3668,6.3472 0.3668,7.0499 1.0443,3.175 1.0724,2.8194 3.1609,4.9361 4.6002,3.5249 5.6445,2.8222 5.6444,2.4667 11.9662,3.8777 0.7056,0.3528 0.7055,0 3.1892,1.0583 3.1608,0.7056 14.4498,4.936 6.7169,3.525 6.6887,4.9361 3.5278,3.5249 3.1608,4.2305 2.8223,4.2305 2.4835,4.5833 2.1167,5.2889 1.0442,4.936 1.4111,10.5777 -1.0442,10.2249 -1.4111,4.9361 -1.778,4.9361 -4.9389,8.461 -3.5278,4.2305 -3.4995,3.877703 -8.4667,6.3472 -4.6002,2.8194 -4.572,1.7639 -4.9389,1.7611 -4.9389,1.0583 -5.2776,0.7056 -5.3057,0.3527 -10.922,-1.0583 -4.9389,-1.0583 -4.9389,-1.4083 -4.9389,-2.1167 -4.572,-2.4666 -4.2333,-3.175 -4.2334,-3.525 -3.8664,-3.524903 -3.1891,-4.2305 -2.8222,-4.2305 -2.1167,-4.5833 -1.7498,-4.9361 -1.4111,-5.2888 -0.7056,-5.2889 -0.3386,-5.6416 0,-0.3528 z"
         id="path4175"
         inkscape:connector-curvature="0" />
      <path
         style="fill:#d8713f;fill-opacity:1;fill-rule:nonzero;stroke:none"
         d="m 2382.5746,-163.15473 68.4107,0 -33.8384,-81.44369 -34.5723,81.44369 z m -51.816,75.449303 76.5105,-177.339993 19.7273,0 75.8049,177.339993 -19.0218,0 -25.7386,-59.585603 -82.4936,0 -25.7387,59.585603 -19.05,0 z"
         id="path4177"
         inkscape:connector-curvature="0" />
      <path
         style="fill:#d8713f;fill-opacity:1;fill-rule:nonzero;stroke:none"
         d="m 2541.9455,-175.14353 30.6776,0 9.1722,-0.3528 9.144,-0.7027 4.6002,-0.7056 4.2334,-1.4111 8.4666,-3.8777 3.4996,-2.4695 2.8222,-2.8194 4.9389,-6.6999 1.778,-3.8778 1.4111,-3.8777 1.0442,-8.461 0,-0.7056 0,-0.7055 -0.3386,-5.6417 -1.0725,-4.9332 -1.7498,-4.9361 -2.4835,-4.5833 -3.1609,-3.8805 -3.8947,-3.525 -4.2051,-3.1722 -4.9389,-2.46939 -5.6444,-1.7611 -5.6445,-1.4111 -11.9944,-0.7055 -3.8665,0 -3.8946,0 -3.1609,0 -2.8222,0 -22.9165,0 0,73.68539 z m -17.6389,87.438103 0,-177.339993 46.5385,0 12.3613,0.7055 12.3331,1.0555 5.9831,1.0584 5.6445,1.4111 5.6444,2.4666 5.6445,3.175 5.2775,3.8777 4.6002,4.5833 4.2334,4.93609 1.7498,2.4666 1.4111,2.8222 2.4553,5.9916 1.778,5.9944 1.4111,6.3472 0.3387,6.6971 -0.3387,5.9944 -1.0724,5.9944 -1.4111,5.6388 -2.4554,5.2889 -2.8222,5.2888 -3.5278,4.5833 -3.8664,4.2305 -4.9389,3.8778 -4.9389,3.5277 -5.6444,2.8194 -5.6445,1.7639 -5.6444,1.4083 -11.6276,1.7639 -12.3331,0.3528 -33.4998,0 0,71.218803 -17.6389,0 z"
         id="path4179"
         inkscape:connector-curvature="0" />
      <path
         style="fill:#d8713f;fill-opacity:1;fill-rule:nonzero;stroke:none"
         d="m 2666.4055,-87.705427 0,-177.339993 42.3051,0 8.4667,0.3528 8.8053,0.3527 16.9334,2.1139 8.4384,2.4694 7.7611,3.525 6.35,4.2305 5.3058,4.9361 4.9107,5.28879 3.8946,6.3444 3.1609,6.6999 1.0725,3.525 1.0442,3.5249 1.4111,7.0528 0.3669,7.7554 -1.0725,10.5777 -2.8222,9.5194 -2.1166,4.5833 -2.8223,4.5832 -2.8222,3.8778 -3.8664,4.2305 -3.8665,3.5249 -3.8946,3.175 -4.572,2.8194 -4.6003,2.1167 -9.5109,3.1722 -4.9388,0.7055 -5.2776,0.3528 49.6993,65.930003 -21.844,0 -60.2826,-80.385403 5.2775,0 1.4111,0.3528 1.4111,0 6.6887,0 7.0556,-0.3528 11.2889,-1.0583 5.6444,-1.4111 4.9389,-2.1139 5.2775,-2.8222 4.572,-3.1722 3.8947,-4.2305 1.7498,-2.1138 1.778,-2.1167 2.4553,-4.9361 1.778,-5.2888 1.4111,-5.6416 0.3387,-5.6388 0,-0.7056 0,-0.7056 -0.7056,-4.2305 -1.0442,-4.5833 -1.4111,-4.2305 -1.778,-3.8777 -2.4553,-3.8806 -2.8222,-3.5249 -6.35,-5.9944 -3.8665,-2.4666 -3.8947,-1.76389 -8.4666,-2.4666 -8.8054,-1.0584 -8.8053,-0.7055 -3.1891,0 -3.1609,0 -28.2222,0 0,161.123493 -17.6107,0 z"
         id="path4181"
         inkscape:connector-curvature="0" />
      <g
         id="g4159">
        <path
           inkscape:connector-curvature="0"
           id="path4171"
           d="m 2812.004,-87.705427 0,-177.339993 96.9715,0 0,16.2165 -79.3326,0 0,63.81609 76.5104,0 0,15.8637 -76.5104,0 0,65.5771 79.3326,0 0,15.866603 -96.9715,0 z"
           style="fill:#d8713f;fill-opacity:1;fill-rule:nonzero;stroke:none" />
        <path
           inkscape:connector-curvature="0"
           id="path4183"
           d="m 115.24647,-1079.4681 13.397,1.4083 15.511,0.3528 15.161,0.7055 7.0527,1.0583 6.6971,1.7611 8.8138,2.8222 8.8138,3.1722 16.9249,7.4055 16.2165,7.7555 15.5137,8.8138 14.4555,9.8721 14.1026,10.5777 13.0443,11.6332 11.9888,11.9888 11.6332,13.04428 10.5777,13.7499 9.5194,14.8082 9.1665,15.1581 8.1083,16.2194 7.0499,16.922 6.6999,17.2776 5.6417,18.3332 4.936,48.2995 3.1722,16.9249 1.7639,16.922 1.0555,16.5693 0.3528,16.5721 -0.3528,16.5692 -1.0555,16.5721 -2.1167,16.2165 -2.4666,16.2193 -3.175,15.8637 -3.8777,15.8666 -4.5833,15.5137 -5.2889,15.1582 -5.6388,14.8082 -2.8222,7.4055 -3.1722,7.4027 -6.6999,14.1026 -7.4027,14.1027 -7.4055,13.3971 -8.1083,13.0443 -17.2748,25.0331 -9.1666,11.6331 -9.5193,11.2833 -9.8721,10.5777 -9.8722,10.2249 -10.2249,9.5165 -10.5749,8.8166 -10.5776,8.4611 -10.5777,7.7554 -10.9277,6.7 -10.9304,6.3443 -11.2833,5.6416 -10.9276,4.5833 -16.9249,5.9944 -19.0387,5.2889 -20.7998,4.5832 -22.210898,3.1722 -11.2832,1.4111 -11.2833,0.7056 -23.2692,0.3499 -11.6332,-0.7027 -11.636,-1.0583 -11.2803997,-1.7639 -10.9305,-2.1139 -22.2109003,-13.7498 -10.2249,-4.5833 -10.2249,-5.2889 -9.8721,-5.6415 -9.869398,-6.3472 -9.5193,-6.6971 -8.8138,-7.0528 -17.630404,-15.5109 -16.2165,-17.2777 -7.4055,-9.1665 -7.0499,-9.8722 -13.3971,-20.4469 -5.9944,-10.5777 -5.6417,-11.2833 -10.2249,-23.2692 -4.2305,-12.3387 -4.2305,-12.3388 -3.1722,-12.6915 -3.1721,-13.0472 -4.2306,-27.1469 -1.7638,-14.1027 -0.7056,-14.1026 -0.3528,-14.4554 0,-14.8082 2.1167,-29.9664 4.2305,-31.0247 4.2305,-27.8525 3.525,-26.797 2.1166,-13.0443 2.8194,-12.3387 3.525,-12.3416 2.4694,-5.6388 2.4667,-5.9944 12.6943,-10.5777 8.461,-28.2053 14.8082,-22.9164 16.2165,-22.2109 17.980404,-21.1554 19.0387,-19.7415 9.872098,-9.51928 10.5777,-8.8138 10.9277,-8.8138 11.2832,-8.1111 11.6332,-7.4027 11.9888003,-7.0527 12.3388,-6.6971 13.0442997,-5.9944 60.9939,-18.686 35.610798,-2.1138 z m -26.444298,66.2799 -44.069,7.0527 -10.5777,4.9361 -10.2249,5.64158 -9.5193,5.9916 -9.5193997,6.3472 -8.8138,7.4026 -8.4610003,7.4056 -7.7555,8.1082 -7.7583,8.461 -7.4026,8.8138 -6.7,9.1666 -13.0443,19.0387 -5.9916,9.8721 -5.641598,9.8722 -10.5777,20.4498 -7.4027,36.6663 -2.8222,11.6332 -2.8194,11.636 -2.1167,11.2805 -1.761,11.2832 -1.0584,11.2804 -0.7055,11.2833 0,22.2109 1.7639,21.5081 3.5249,20.7998 5.6416,20.097 7.0499,19.0387 8.8138,17.6276 4.936098,8.1083 5.2889,8.1111 5.9944,7.7554 5.9944,7.0499 6.6971,6.7 7.0527,6.3472 7.4027,5.9915 7.7555,5.2889 8.1110003,4.9361 8.4611,4.2305 9.1665,3.8777 9.1665997,3.175 9.5194,2.8194 9.8721,2.1167 9.5194,1.0555 8.8138,0.7055 8.1082,-0.3527 8.1083,-1.0584 7.4055,-1.4083 7.0499,-1.7639 7.0527,-2.4666 6.3444,-2.8222 11.988798,-6.6971 11.2804,-7.4055 19.3915,-14.8054 21.1554,-10.2249 4.5832,-4.2305 5.2861,-5.6417 10.5777,-14.8082 11.636,-18.3331 10.9276,-20.4498 10.5777,-21.5054 9.1666,-20.8026 7.0527,-18.6859 2.8194,-8.1083 2.1139,-7.4026 3.8805,-19.0388 2.1139,-19.0387 0.7055,-19.0387 0,-9.5193 -0.3528,-9.1666 -2.1138,-18.6859 -3.175,-18.3332 -4.2305,-17.9804 -5.2889,-16.9248 -6.6971,-16.2165 -7.4055,-15.5138 -8.1082,-14.4554 -9.1666,-13.0443 -9.5194,-11.6332 -10.5777,-10.5777 -10.9276,-8.8138 -11.2833,-7.05268 -6.3471,-2.8194 -3.525,-1.0584 -3.8777,-1.0583 -7.7555,-1.7611 -8.461,-1.4111 -17.6304,-1.0583 -18.685998,0 z m -260.544702,-417.4349 17.9804,1.0577 9.1666,5.641 3.8805,3.8782 3.1722,3.8782 3.1722,4.5833 2.4694,4.5834 1.7611,5.2885 1.7639,5.2885 2.1166,11.6346 1.0555,12.3396 -0.3527,13.3974 -1.4083,13.3977 -2.1167,13.7498 -2.8194,13.7499 -6.6999,26.4425 -7.05,23.2693 -5.9944,18.6859 -20.8026,57.8203 -10.222,30.3205 -9.1666,29.6158 -4.9361,38.783 -23.2692,91.313 -4.2305,20.44978 -3.175,19.7415 -4.2305,40.1941 -3.1722,40.1912 -2.1167,20.8026 -3.1722,20.7998 -1.7638,11.9888 -1.4083,13.0443 -1.0584,14.1027 -1.0583,14.4554 -0.7056,15.1582 -0.3527,15.5137 0,31.3775 1.0583,31.0275 2.4694,29.6136 3.525,27.1469 4.5833,23.2692 8.461,66.2828 29.6164,114.585 1.0555,9.1665 0.7056,10.2221 0.3528,10.9304 -0.7056,10.5777 -1.4083,10.2249 -2.4694,8.8138 -3.525,7.05 -2.1167,2.8222 -2.4666,1.761 -5.2888,2.8223 -4.5833,1.761 -4.9361,0.7056 -4.5833,0 -4.5833,-1.0583 -4.2305,-1.4083 -4.2305,-2.4695 -3.8777,-2.4666 -7.4055,-6.3472 -3.525,-3.5249 -2.8194,-3.525 -9.8721,-13.0471 -5.9944,-8.8138 -4.9361,-9.1666 -4.2305,-9.8721 -3.5249,-10.5749 -6.3472,-22.2137 -5.6416,-23.2692 -12.3388,-22.2109 -3.525,-14.1026 -2.4694,-13.7498 -3.1722,-26.7942 -2.8194,-27.147 -1.7639,-14.4554 -2.1166,-15.161 -2.8194,-17.9804 -2.4667,-17.9803 -4.2305,-37.0191 -2.8222,-37.7247 -1.7611,-37.7246 -0.7055,-38.4302 0.3528,-38.4302 1.0555,-38.4274 2.1166,-38.0774 2.8194,-38.0774 3.5278,-37.7247 3.8778,-37.01908 4.936,-36.3135 5.2889,-35.9608 5.6388,-34.5524 5.9944,-33.4936 6.3471,-32.4358 9.5194,-66.2821 11.6332,-23.2693 1.7639,-11.2818 0.7055,-11.2821 1.0556,-10.5771 1.0583,-4.9358 1.7639,-4.9358 26.0886,-50.4167 5.6416,-15.1605 3.1722,-6.6985 2.1167,-2.8205 2.8194,-2.468 7.0527,-4.9359 6.6971,-3.8782 7.0528,-3.1731 7.0499,-2.8205 14.8082,-5.2885 17.2748,-6.3461 z m -1744.83887,1.0577 25.0331,0 24.3247,1.4102 22.9165,2.1154 21.8609,2.8205 21.1525,4.2308 20.0971,4.9359 19.0387,6.3462 18.3332,6.6986 17.2748,8.1091 16.2193,8.814 15.5109,9.5194 14.8082,10.5768 13.3971,11.6346 6.7,5.9936 6.3471,6.346 11.986,13.0449 10.9305,14.1027 6.3443,8.1091 7.7583,10.9293 8.1083,13.0449 7.7554,14.1026 3.1722,7.4038 2.8222,7.0514 2.8194,14.8076 0,6.6988 -1.0555,6.6986 -2.4694,6.3463 -3.525,5.641 -7.4055,-0.3527 -7.0499,-1.4103 -7.4055,-2.1152 -7.0499,-2.8206 -13.7499,-7.0513 -6.6999,-4.5833 -6.6972,-4.5833 -12.6915,-9.8718 -11.9888,-9.8719 -10.5777,-9.5191 -9.8693,-7.7565 -13.0471,-9.1666 -14.1027,-8.8141 -15.1581,-8.1091 -15.8666,-7.7563 -16.5692,-6.3461 -16.9249,-5.641 -17.2748,-4.5833 -17.9804,-3.1733 -17.6276,-1.7628 -17.9832,-0.3525 -8.8138,0.3525 -8.8138,0.7053 -17.6276,3.173 -8.461,2.4681 -8.461,2.4677 -8.4639,3.173 -8.1077,3.8783 -8.1091,4.2308 -8.1088,4.9358 -15.1604,11.6346 -20.0962,13.3977 -11.2818,31.7308 -5.2886,13.3974 -4.2308,13.3973 -3.173,13.7499 -2.1155,13.7501 -1.4103,13.3974 -0.3525,13.7502 0.7053,13.3973 1.0575,13.3974 2.1155,13.0443 3.173,12.6915 3.8783,12.3416 4.2308,12.3388 5.2883,11.2832 5.9936,11.2804 6.6988,10.5777 7.4038,9.8722 14.4551,16.922 14.4552,16.5721 30.6739,31.37748 30.6719,31.7302 15.161,16.2193 14.4554,16.5693 13.7498,7.4055 15.8638,21.8581 13.3999,9.5194 10.5748,14.1026 9.5194,14.4554 16.9249,29.6136 16.2164,31.0275 16.2194,32.7886 11.6332,12.6915 8.461,60.9939 5.2888,23.622 4.9361,29.2608 1.7639,15.8665 0.3528,8.1083 0,7.7583 -0.7056,15.8637 -1.0583,7.4055 -1.0584,7.7555 -13.7498,39.8384 -3.1722,32.4358 -2.8194,4.2333 -3.8806,3.1722 -3.8777,2.8194 -1.7611,1.7639 -1.4111,1.7639 -8.461,22.2109 -14.1026,17.2748 -7.4056,8.1082 -7.7554,7.7583 -8.461,7.7555 -8.4611,7.0499 -8.8166,6.6999 -9.5165,6.3472 -9.5194,6.3444 -10.2249,5.6416 -10.5777,4.936 -10.9304,4.9361 -11.2805,4.2305 -11.636,4.2305 -11.986,3.1722 -12.6915,3.175 -53.5909,1.0583 -15.1601,1.4083 -16.5707,0.7056 -16.9229,-1.0583 -7.4041,-0.7056 -7.051,-1.4083 -9.5194,-2.4694 -9.1666,-3.1722 -18.3334,-7.0527 -34.5513,-14.8054 -27.1473,-7.0528 -13.3976,-10.2249 -17.9807,-15.5109 -9.5194,-9.5194 -9.8715,-10.2248 -9.5194,-11.2833 -8.8141,-11.2804 -8.1089,-11.9888 -3.5257,-5.6388 -3.173,-5.9944 -5.2885,-11.636 -3.5257,-11.6332 -1.0576,-10.9304 0.3525,-5.2889 1.0577,-4.936 1.7628,-4.5833 2.468,-4.5833 3.1731,-4.2305 1.7628,-2.1139 2.1154,-2.1166 6.6987,0.3527 5.9936,1.0584 5.9937,1.7639 5.2882,2.1138 10.2244,5.6416 9.1669,7.0499 17.2756,14.8082 8.4613,6.6999 8.8141,5.6388 18.6859,10.225 22.2118,10.9304 25.3845,11.2833 27.5,10.2221 14.1026,4.5832 14.4552,3.5278 14.4551,2.4666 14.8076,1.7639 7.0514,0.3528 7.4038,0.3528 14.1026,-1.0583 7.4038,-0.7056 6.6991,-1.4111 13.7499,-3.8777 8.461,-3.525 7.4027,-4.5833 6.7,-5.2888 5.9944,-5.9944 5.6416,-7.0499 4.5833,-7.4056 4.2305,-8.461 3.8777,-8.8138 2.8194,-9.1666 2.8223,-9.872 3.5249,-21.1526 2.1139,-22.2137 0.7055,-23.2692 0,-13.3971 0,-13.0443 -1.4083,-12.6916 -1.0583,-5.9944 -1.7639,-5.2888 -10.5777,-26.0886 -11.986,-26.0915 -13.7498,-25.0303 -14.1027,-23.622 -3.8777,-5.2888 -4.2305,-5.2889 -9.8722,-10.2249 -9.8724,-9.8721 -4.5833,-5.286 -4.2308,-5.2889 -16.2179,-20.4498 -16.2179,-19.7443 -16.2179,-19.3886 -16.5706,-18.686 -32.7883,-37.019 -31.3783,-37.7247 -14.4552,-19.7443 -14.1023,-20.8026 -13.0449,-21.8581 -11.9874,-23.26918 -10.9293,-25.0331 -4.9361,-13.0443 -4.5833,-13.3971 -7.7563,-28.9108 -3.5258,-15.1582 -2.8203,-15.5138 -1.4102,-7.7554 -0.3528,-7.7583 -0.3525,-15.1596 1.4103,-14.4551 2.1152,-14.1027 5.9939,-26.795 5.9935,-24.3267 2.1153,-24.327 11.6346,-13.7501 5.641,-11.9871 4.5833,-12.3396 2.4681,-5.9936 2.8205,-5.6411 3.173,-5.9935 3.5258,-5.2886 12.3396,-14.8076 7.0513,-7.0513 7.0514,-7.0513 7.7563,-6.6989 8.1091,-6.6985 17.2756,-12.3399 17.9807,-11.6346 18.6859,-10.5769 19.0385,-9.5192 19.0384,-8.109 60.9936,-7.4038 z m 3680.7789,274.2949 15.1554,0.3525 14.8166,0.705 13.7442,1.4103 13.3774,2.1155 12.7,2.8197 11.9944,3.5278 11.6276,3.8777 10.922,4.5833 10.2446,5.2889 9.8496,5.6388 9.1722,6.3471 8.8336,6.7 8.0998,7.4027 7.7611,7.7554 7.3942,8.1111 6.6887,8.461 6.35,9.1666 5.6444,9.1666 5.3058,9.8721 4.9106,10.2221 4.6003,10.5777 3.8664,10.9305 3.5278,10.9304 3.1891,11.63318 2.8222,11.6361 2.4554,11.9859 3.8664,24.6804 2.4836,25.383 0.7055,13.0443 0.3387,13.0472 0,26.7942 -1.4111,26.7941 -2.1167,27.4998 -3.4996,27.1469 -4.2333,27.4998 -4.9389,26.797 -5.6444,26.7941 -6.35,26.0887 -6.6887,25.7386 -7.4224,24.6804 -7.7611,23.9719 -7.7329,22.9165 -8.128,21.5081 -8.4667,20.0971 -8.4384,18.6831 -8.128,17.2776 -15.494,29.9663 -15.8609,28.2053 -16.2278,26.797 -18.6831,26.4414 -12.7,17.6276 -5.2776,3.8777 -6.35,2.8222 -7.0555,2.4666 -7.0556,1.4112 -7.7611,0.3527 -7.3942,-0.7055 -7.0556,-1.7639 -3.1609,-1.4083 -3.5277,-1.7639 -3.1892,-8.8138 -2.1166,-8.8138 -1.0442,-8.461 0,-8.8166 2.1166,-17.2749 2.1167,-8.4609 2.4553,-8.4611 6.35,-16.2193 7.0556,-15.8637 6.6886,-15.161 6.0114,-13.7498 9.144,-25.7386 8.8335,-25.7359 16.9051,-52.8856 15.8892,-53.5884 15.494,-53.5911 9.5391,-83.9104 1.7497,-13.0443 0.7056,-13.7498 0,-14.1027 -0.7056,-14.8082 -1.4111,-14.8082 -2.1166,-14.8054 -2.8223,-14.4554 -3.5277,-14.4554 -3.8665,-13.7499 -4.6002,-13.0443 -4.572,-11.9888 -4.9389,-10.9276 -5.2775,-9.8722 -5.6445,-8.111 -5.6444,-6.6972 -5.9831,-4.936 -5.6445,-3.525 -6.0113,-3.5278 -11.6276,-4.93598 -11.6275,-3.525 -11.2889,-1.761 -10.922,-0.3528 -10.922,0.7055 -10.5834,2.1139 -5.3057,1.4111 -4.9389,1.7611 -10.2165,3.8805 -9.5109,4.93328 -9.5108,4.936 -8.8336,5.9944 -8.8053,5.9944 -8.4667,6.3444 -15.5222,12.3416 -8.4385,7.4026 -8.4666,8.4611 -7.7611,9.1665 -7.3943,9.8722 -7.0555,10.2249 -6.7169,10.9305 -12.3331,23.622 -10.922,25.383 -10.2165,27.147 -9.1722,28.2053 -8.4667,29.2636 -15.1553,60.2883 -13.7442,60.2883 -7.0556,29.2636 -7.0555,28.5581 -7.3942,27.4997 -8.128,25.7359 -5.9832,21.5081 -5.9831,25.3831 -3.1891,13.397 -3.5278,13.4 -4.2333,13.397 -4.572,12.6916 -5.6444,11.9859 -6.35,10.9305 -3.5278,4.936 -3.5278,4.5833 -4.2333,4.2305 -4.2051,3.8778 -4.6003,3.175 -4.572,2.4666 -5.3057,2.1167 -5.6445,1.761 -11.9662,1.0584 -6.7169,-0.3528 -7.0555,-1.4111 -3.1609,-0.7056 -2.8223,-1.0555 -4.9388,-3.5278 -4.2334,-4.2305 -2.8222,-4.936 -2.4553,-5.9916 -1.4111,-6.7 -1.0725,-7.0499 -0.3387,-7.4055 0,-7.7554 0.3387,-7.7555 2.1167,-15.5137 2.4835,-14.4555 2.4554,-12.6915 3.1891,-39.8413 4.572,-22.9164 3.5278,-23.9748 5.6444,-49.7106 5.6444,-49.7106 3.1609,-24.3276 3.8947,-23.9748 2.1167,-104.0073 1.4111,-12.3388 1.0442,-13.3971 0.3669,-28.9108 -0.7056,-14.1027 -1.0724,-14.1026 -1.4111,-13.3971 -1.7498,-11.986 -1.0724,-36.6663 -15.8609,-72.62988 -3.5278,-9.8721 -4.9389,-10.5749 -10.5833,-22.9192 -4.2051,-11.986 -2.4836,-12.3388 -0.7056,-5.9944 0,-6.3471 0.7056,-5.9916 1.4111,-6.3472 6.6887,-2.8194 6.0113,-1.7639 11.6276,-1.0583 5.2775,0.7055 4.9389,1.0584 9.1722,4.2305 8.0998,5.6416 7.4225,7.0499 6.6886,7.4055 5.6445,7.7555 14.8166,22.5637 7.0556,11.636 6.6887,12.3387 6.35,12.6916 5.6444,13.0443 5.2776,13.7498 4.572,14.1027 3.1891,11.63598 2.4553,11.986 4.6002,23.2692 2.8222,10.9305 1.7498,4.936 1.778,4.9361 5.2776,9.1666 3.1609,4.2305 3.5277,3.8777 13.4056,-1.0583 3.5278,-2.1138 3.1609,-2.4695 4.9389,-6.6971 3.8946,-8.1083 3.1609,-9.1665 5.3058,-19.0388 2.794,-9.1665 2.8222,-8.4639 35.6165,-65.22438 9.5108,-12.3387 9.8778,-12.3388 10.9502,-12.3415 11.2607,-11.2805 12.3331,-10.9304 13.0669,-9.8722 13.3773,-8.8138 14.478,-7.0499 68.0438,-14.8085 z m -2425.65203,3.1731 28.5581,0.705 28.9108,2.1155 14.1027,1.7622 13.7498,2.1167 13.0443,3.1721 11.9888,3.8778 1.7611,0.7055 2.1167,1.4111 5.2888,4.5833 12.6915,11.986 20.0971,22.2109 16.922,20.8026 8.4611,11.2832 8.111,11.2805 7.7555,11.9888 7.0499,12.3387 5.6416,13.0443 4.9361,13.7499 6.3472,25.03308 4.2305,25.3831 3.1722,25.7386 1.4111,26.4414 0,26.4414 -1.0584,26.4443 -2.1138,26.4414 -3.175,26.4414 -4.2305,25.7386 -4.5833,25.3831 -11.2804,48.6551 -6.3472,22.9164 -6.7,21.8582 -13.3971,40.194 -3.1721,20.0943 -30.6748,72.6299 -2.1138,7.4026 -1.7639,7.4055 -1.7611,6.6971 -1.7639,2.8223 -2.1138,2.8194 -3.8806,6.3471 -2.8194,7.05 -2.1166,7.4055 -3.525,7.7554 -14.4554,23.9748 -7.7555,11.9859 -7.7554,11.6361 -8.4639,11.2804 -8.8138,10.5777 -9.8721,9.8721 -4.9333,4.5833 -5.2888,4.2305 -6.3472,4.9361 -6.3472,4.2305 -6.6971,3.5249 -6.3472,2.4695 -7.0499,1.0555 -3.5278,0 -3.8777,-0.7027 -3.8777,-1.0584 -3.8778,-1.7639 -8.8138,-5.2888 -2.1166,-16.2165 -0.7056,-7.7583 0,-7.4027 1.4111,-14.4554 2.4695,-13.7499 3.5249,-13.0442 4.5833,-13.0443 5.2889,-12.3416 5.6416,-12.3388 12.3387,-22.2109 8.8138,-32.0829 9.1666,-32.4358 20.0971,-63.8161 19.0387,-64.8716 8.461,-32.7886 7.0499,-33.4913 1.0583,-60.9939 -0.7055,-32.7886 -1.4083,-15.8665 -1.7639,-15.8665 -2.1167,-15.1582 -1.761,-7.0527 -1.4111,-7.4027 -3.8778,-13.7499 -4.5833,-13.0443 -5.6416,-12.3416 -6.6999,-10.9276 -7.4027,-10.2249 -8.8138,-8.8138 -9.5194,-7.7583 -10.9304,-5.9916 -5.9916,-2.4694 -6.3472,-2.46658 -6.7,-1.7639 -6.6971,-1.4111 -9.5193,-0.7028 -9.8722,0.35 -9.5193,1.4111 -9.5194,2.4694 -9.1666,3.17218 -9.1665,4.2305 -9.1666,4.5833 -8.461,5.2889 -16.2194,11.2804 -14.4554,11.9888 -6.3443,5.9944 -5.6417,5.9916 -9.1665,10.2249 -15.5138,20.8026 -7.0499,10.9276 -6.7,10.9305 -11.9859,22.9164 -10.9305,23.622 -9.8721,24.3276 -8.4611,25.383 -8.1082,25.3859 -7.4055,26.4414 -13.3971,53.5912 -13.0443,54.2939 -7.04986,27.4998 -7.4055,27.4997 -8.1083,27.1469 -8.8138,27.1498 -2.8222,8.8138 -2.8194,9.5193 -4.9361,21.1526 -4.936,22.5637 -5.9944,21.8609 -3.525,10.5749 -3.8777,9.872 -4.5833,9.1666 -4.9361,8.461 -5.6416,7.0528 -6.6971,5.9944 -7.4055,4.2305 -8.1083,2.4666 -8.461,1.0583 -7.75551,0 -7.0527,-1.7638 -6.6971,-2.8194 -5.9944,-3.525 -5.2889,-4.9361 -4.5833,-5.2888 -4.2305,-6.3472 -3.1722,-7.0499 -2.8222,-7.7583 -2.1138,-7.7554 -1.4111,-8.461 -0.7056,-8.8138 0,-8.8138 0.7056,-9.1666 1.7638,-8.8138 8.4611,-22.2137 2.8194,-15.5109 2.4694,-15.8665 3.8777,-32.4358 2.1139,-15.8666 2.1167,-15.5109 2.4666,-14.8082 2.8222,-13.7499 6.3444,-110.3517 3.175,-22.9193 2.4666,-25.0302 1.7639,-26.4414 0.7055,-27.1498 0,-27.4998 -1.4111,-27.1469 -2.1167,-25.7359 -3.5249,-24.3275 -6.3472,-64.16608 -4.5833,-13.0471 -6.6971,-16.2165 -7.4055,-17.9804 -7.0499,-18.6859 -3.1722,-9.5193 -2.4695,-9.5194 -3.1721,-18.3332 0,-8.8138 0.7055,-8.111 2.1139,-7.4027 3.5277,-6.7 10.9277,-2.8194 4.5833,-0.3527 4.2305,0 7.0527,0.7055 5.6416,2.4666 4.9361,3.5278 4.9333,3.8777 4.936,4.5833 6.34721,4.9361 5.6416,4.2305 5.6416,4.9361 4.9361,5.6416 4.9333,5.9916 9.1694,13.3971 8.1082,14.4554 7.0499,15.161 5.9944,15.8665 5.6416,15.8637 4.9361,15.8665 3.1722,12.69158 3.1722,13.3971 2.8222,13.3971 3.5249,13.0471 4.2305,11.986 5.2889,10.5777 7.4027,9.1665 4.2305,3.8778 4.93606,3.1721 4.5832,-3.1721 3.8806,-3.8778 3.525,-4.2305 3.5249,-4.5833 5.2889,-10.9304 4.5832,-11.6332 7.7555,-25.0331 3.8777,-12.3388 1.7639,-5.99438 2.1167,-5.2888 4.5833,-10.225 5.6388,-10.2249 13.3999,-20.447 14.4526,-20.097 13.3999,-17.9804 5.9916,-6.3472 9.1666,-7.7554 23.9747,-16.9221 25.7387,-15.5137 11.2804,-5.6417 9.1666,-3.5249 6.7,-1.7639 7.0499,-1.0555 14.8082,-1.4111 7.0527,-0.7056 7.0499,-1.0583 6.3472,-1.7622 5.6388,-2.8205 z m 1176.1555,0 10.2249,0.705 4.5833,1.0577 4.2305,1.0578 7.7554,3.1733 7.0528,4.5833 5.6388,5.2888 4.936,6.3444 3.8806,7.4055 3.1722,7.7555 2.1138,8.8138 1.7639,9.1665 0.7056,9.5194 0,9.8721 -0.3528,10.5777 -1.0583,10.2249 -1.4112,10.5749 -1.761,10.5777 -2.8222,12.3387 -2.1139,12.3416 -0.3528,5.9944 0.3528,5.99158 1.4111,5.2888 2.4666,5.2889 4.2306,0 37.7246,-35.25518 19.0359,-17.6304 19.3887,-16.9221 10.2164,-7.7554 10.5833,-7.7583 10.922,-7.0499 11.6558,-6.7 11.9662,-6.3444 12.7,-5.2888 13.7443,-4.9361 14.478,-4.2305 16.1995,-2.8222 16.2278,-1.4083 7.7611,0 7.7611,0.7027 7.7329,1.0584 7.0556,1.7639 6.7168,2.1138 6.3218,2.8222 5.6445,3.525 4.9389,3.8777 2.1166,2.1167 2.1167,2.4666 3.5278,5.2889 2.8222,5.6416 1.7498,6.6971 1.0724,7.4055 0,6.6972 -0.3669,6.3471 -1.3829,5.9944 -2.1166,5.6417 -2.4836,5.286 -3.5278,4.936 -3.8664,4.5833 -9.1722,8.1111 -10.922,7.0499 -12.7,5.6416 -13.7443,5.2889 -14.4497,4.23048 -14.8167,3.5249 -30.3107,5.9944 -28.5609,5.2889 -12.7,2.8194 -11.2888,2.8194 -9.1723,3.175 -9.144,4.2305 -18.7113,10.5777 -9.144,6.3443 -9.1722,7.4056 -8.8166,7.4026 -8.8167,8.1083 -8.1082,8.8138 -7.7555,8.8166 -7.4055,8.8138 -6.3443,9.1666 -5.9944,9.5193 -4.9361,9.1666 -4.2305,9.1666 -3.1722,9.1666 -1.7639,7.0499 -1.4111,7.4055 -1.7611,15.8637 -0.3527,16.9249 0.7055,16.922 1.4083,17.2748 2.1167,16.5721 5.2888,30.3192 14.8082,66.2827 8.1083,31.7302 3.8777,15.5138 4.2305,15.161 9.1666,30.3191 9.5193,29.6164 10.2278,29.2607 11.6275,28.9109 7.7611,21.8581 3.5278,14.1026 1.4111,7.4056 1.0442,7.0499 0.7056,7.4054 0,6.6972 -0.7056,6.3471 -1.4111,5.9944 -2.4553,4.9361 -3.1891,4.2305 -4.572,3.525 -2.4553,1.0583 -2.8223,0.7056 -3.5277,0.7027 -3.5278,0 -3.1778,0 -3.1722,-1.0555 -6.3472,-2.1167 -5.6388,-3.5249 -9.8721,-7.7555 -7.7583,-7.0527 -11.986,-10.2249 -5.6416,-5.6417 -5.2889,-5.2859 -4.936,-5.9944 -4.5833,-5.6417 -8.8138,-11.9859 -8.1083,-12.6944 -8.1082,-13.3971 -16.2193,-27.8525 -4.9361,-9.5193 -4.5833,-9.1666 -8.1082,-19.7443 -15.8666,-41.6023 -9.8721,-26.0887 -4.5833,-14.1026 -4.2305,-15.5138 -8.461,-32.4358 -7.7555,-35.2552 -6.6999,-37.019 -5.6388,-38.4302 -2.1167,-19.7443 -2.1167,-19.7415 -2.4666,-39.8413 -1.0583,-39.4857 0.7055,-39.1357 1.0584,-19.0387 1.761,-18.686 2.1167,-17.98038 2.4666,-17.9803 3.5278,-16.9221 3.8777,-16.5721 4.5833,-15.8665 4.9361,-14.8054 5.9944,-14.1026 6.6971,-13.3971 3.525,-5.9944 3.5278,-5.9944 8.1082,-11.2804 1.7611,-2.1167 2.1166,-1.7639 5.2889,-2.8194 12.3387,-3.1722 13.0443,-2.8222 5.9944,-1.7619 5.6417,-2.468 z m -1881.63487,5.2882 31.7302,-0.7055 32.4358,-0.7056 31.3775,1.0584 14.8082,1.7639 13.7499,2.8194 15.5137,4.2305 14.8082,5.6416 14.1027,6.6999 13.3971,7.7555 12.6915,9.1666 11.6361,9.8721 10.2221,10.9277 9.1694,11.9888 7.7554,13.0443 3.1722,7.0527 2.8222,7.0499 4.5833,15.161 2.4666,15.8637 0.7056,8.4639 0.3528,8.461 -0.7056,8.81378 -0.7055,9.1666 -1.4112,9.1665 -2.1138,9.5194 -2.8222,9.5193 -3.1722,9.8722 -2.8194,8.1082 -3.525,7.7555 -8.111,15.5137 -8.8138,14.4555 -9.1666,14.1026 -6.3472,8.461 -6.6971,7.7555 -7.7555,7.7583 -8.111,7.4027 -8.4611,7.4055 -8.8138,6.6971 -16.9221,12.3388 -25.7386,19.3915 -25.7359,19.7442 -26.4442,19.7443 -13.3971,9.1666 -13.7498,8.8138 -36.3136,21.1525 -36.6663,20.0971 -35.608,21.1554 -17.6304,10.9276 -16.922,11.636 -24.6804,19.3915 -12.3387,10.5749 -5.9944,5.6416 -5.9916,5.9944 -10.9305,12.3388 -4.936,6.6999 -4.5833,7.0499 -3.8778,7.0528 -3.8777,7.4026 -3.175,7.7555 -2.4666,8.1111 -2.8222,11.986 -2.1139,15.8665 0.3528,15.5109 1.0583,6.7 2.4667,5.6416 2.1166,3.1721 2.4666,2.8194 6.3472,4.5833 3.525,1.7639 3.5249,1.4111 3.8778,1.0584 4.2305,1.0555 8.8166,1.0583 9.5165,0 19.7443,-2.1138 10.2249,-2.1167 9.5194,-2.8194 18.3331,-6.7 15.161,-7.4026 5.9944,-3.8806 4.9332,-3.5249 11.9888,-11.6332 11.2805,-11.2833 10.2249,-11.2804 9.5193,-11.2832 9.1666,-11.986 8.8138,-12.3416 18.6859,-27.8525 15.8666,-14.8082 10.5777,-25.3831 28.2053,-46.8912 14.4526,-23.2692 7.4055,-11.2833 7.7554,-10.9276 13.7499,-19.0387 8.1111,-9.8721 9.1665,-9.8722 4.9361,-4.2305 5.286,-3.8777 5.2889,-3.5278 5.6416,-2.4666 5.9944,-2.1167 6.3444,-1.4083 6.3472,0 6.6999,0.7056 7.0499,8.1082 5.6417,8.8138 4.5833,9.5194 1.761,4.936 1.4111,5.2889 2.4695,10.5749 1.4083,11.2832 1.0583,23.622 0,24.6803 0.3528,25.3831 1.4111,25.0331 1.7611,12.3388 2.8222,12.3415 7.0499,27.147 8.1111,28.2053 9.1665,27.4997 4.9333,13.0443 5.2888,12.3388 6.3472,28.2052 2.8194,6.3472 3.5278,6.3472 8.1082,12.6915 8.461,12.6916 7.4027,12.3387 4.5833,7.0527 4.9361,7.4027 4.9361,7.7583 4.5832,7.7554 3.175,8.4611 1.0556,4.2305 0.3527,4.2305 0,4.5833 -1.0555,4.5833 -1.7639,4.5833 -2.8194,4.5832 -4.5833,1.4112 -4.5832,0.7055 -9.5194,0 -8.8138,-1.7639 -8.8166,-2.8194 -8.461,-3.5249 -7.7555,-4.2305 -13.7499,-8.4639 -8.8138,-6.6971 -8.8138,-7.4055 -7.7583,-8.1083 -7.4027,-8.461 -7.0527,-9.1665 -3.1722,-4.9361 -3.1721,-4.9361 -11.9888,-20.4498 -10.5749,-22.2109 -9.1666,-22.9164 -8.4639,-23.2692 -8.1082,-23.622 -2.8194,-9.8721 -2.1167,-10.9277 -3.8777,-22.9164 -2.4666,-10.5777 -1.7639,-4.5833 -2.1167,-4.5833 -2.4666,-4.2305 -2.4695,-3.525 -3.5249,-2.8222 -3.8778,-2.4666 -5.6416,2.8194 -5.2888,3.525 -4.5833,4.2305 -4.5833,5.2888 -7.7555,11.636 -6.6999,13.0443 -11.986,27.8526 -5.6416,12.6915 -6.6972,11.2832 -29.2636,43.3663 -15.8665,22.2108 -16.9221,21.5054 -9.1665,10.2249 -9.1666,9.8721 -9.8721,9.5193 -9.8722,8.8138 -10.2249,8.1083 -10.9276,7.4055 -10.9305,6.6971 -11.6332,5.6416 -17.6304,7.05 -17.2748,5.2888 -8.4611,2.1167 -8.8138,1.4083 -16.5721,2.1166 -16.5692,0.3528 -15.8666,-1.0583 -7.7554,-1.4111 -7.7555,-1.4083 -7.4055,-2.1167 -7.0499,-2.1138 -13.7499,-5.6417 -13.0443,-7.0527 -5.9944,-3.8777 -5.9944,-4.5833 -10.9305,-9.5194 -4.936,-5.2888 -4.5833,-5.6388 -8.461,-11.9888 -6.6972,-13.3971 -5.6416,-14.4554 -4.2305,-16.922 -2.4694,-16.9249 -0.3528,-8.1082 -0.35,-8.1083 1.4083,-16.2193 2.4695,-15.8637 3.8777,-15.1609 5.2888,-14.8082 5.9916,-14.1027 7.0527,-13.3971 7.7555,-12.6915 8.1111,-11.9888 8.8138,-11.2804 8.461,-10.2249 8.8138,-9.1666 16.922,-15.5138 59.2328,-46.8912 60.2884,-46.5384 61.3438,-45.8329 31.0275,-22.5637 31.0247,-21.8581 34.1997,-23.622 16.922,-12.3388 8.1083,-7.0527 8.111,-7.0499 7.4027,-7.4055 6.7,-7.7555 6.6971,-8.461 5.6416,-9.1666 4.9361,-9.5193 4.2305,-10.225 1.7639,-5.2888 1.4083,-5.6416 2.1166,-11.6332 1.0584,-10.9305 0,-10.5777 -1.0584,-9.51928 -2.1166,-8.8138 -1.7611,-4.2305 -1.4111,-4.2306 -4.2305,-7.4026 -4.5833,-7.0528 -5.6416,-6.3443 -6.3472,-5.6417 -7.0499,-5.2888 -7.7555,-4.5833 -8.111,-3.8777 -8.4611,-3.5278 -9.1665,-2.8194 -19.7443,-4.5833 -20.447,-2.8194 -21.5082,-1.0583 -10.9276,0.3528 -10.9305,0.3527 -21.5053,1.7611 -20.8026,3.175 -20.0942,4.2305 -9.5194,2.8194 -9.1666,2.4695 -16.5721,5.9915 -46.5384,28.5581 -2.8194,1.0583 -3.175,0.7056 -5.9916,0.3528 -5.2888,-1.4111 -4.5833,-2.4667 -3.525,-3.8805 -1.4111,-2.4666 -0.7055,-2.4695 -0.3528,-2.8194 0,-3.1722 0.7055,-3.175 1.0584,-3.5249 3.8777,-5.9916 5.6416,-6.7 6.6972,-6.3471 8.1082,-6.6972 9.5194,-6.6999 9.8721,-6.3444 21.8609,-12.6943 11.6332,-5.9916 11.2833,-5.6416 22.9164,-10.2249 21.1526,-8.1083 17.6276,-5.6416 44.0718,-5.2889 z m 3607.4379,15.8666 69.4549,2.1138 41.9664,6.3472 11.6276,3.8777 11.6275,5.2889 11.6276,6.3443 11.6557,7.0528 5.6163,4.2305 5.6444,4.2305 10.9502,9.5193 10.2165,10.225 9.5109,11.2832 8.0997,12.3388 7.4225,13.397 5.9831,14.4555 2.1167,7.4027 2.1166,7.7582 2.8223,16.21648 0.7055,8.4611 0,8.8138 -1.0442,17.9832 -3.1891,19.0358 -3.1609,12.3416 -4.9389,13.0443 -5.6444,13.3971 -6.35,11.636 -5.2776,8.1083 -6.0113,8.1082 -6.6887,8.1083 -7.3942,8.4638 -15.8891,16.2165 -17.272,15.8665 -35.9551,29.2608 -32.4274,23.622 -7.4224,5.2889 -6.6887,6.3472 -13.0387,13.0443 -13.0386,13.3971 -6.7169,5.9944 -7.0556,5.2888 -11.2606,8.8138 -11.6558,9.1666 -10.922,10.2249 -9.1722,10.9276 -9.5109,11.6361 -11.6276,13.7498 -6.35,7.0499 -6.35,7.7583 -11.9944,16.5693 -5.2776,8.8138 -4.9389,9.1666 -4.2333,9.1666 -3.5278,9.8721 -2.4553,9.8721 -1.4111,10.2249 0,10.5777 1.4111,10.9277 1.7498,6.6999 2.1166,6.6972 6.0114,11.636 3.4995,5.2888 3.8947,4.936 9.1722,8.8138 4.9389,3.8778 5.6162,3.5249 11.9945,6.3472 12.7,4.9361 14.1111,3.8777 14.4498,2.8194 15.1553,1.7639 15.8609,0.7056 15.8609,-0.3528 15.8609,-1.0584 15.8891,-2.1138 15.8609,-2.8222 15.1553,-3.525 11.2889,-2.4694 12.3331,-1.4083 12.3331,0 12.3331,1.0583 10.5833,2.8194 4.9389,2.4666 4.2334,2.4695 3.1609,3.1722 2.8222,3.8777 1.778,4.2305 0.7055,4.9361 -2.8222,6.6999 -3.8947,6.3472 -4.2051,5.6388 -5.3057,5.2889 -5.2776,4.5832 -6.0113,4.5833 -13.3774,7.7583 -7.0555,3.1722 -7.0556,3.1721 -15.5222,5.6417 -15.494,4.5832 -15.8609,4.5833 -21.8722,4.9361 -23.2833,3.8777 -24.6663,2.8223 -25.0331,1.4082 -25.7386,-0.3527 -25.7387,-1.4083 -25.3718,-2.8222 -24.6944,-4.5833 -23.622,-5.9916 -22.5496,-8.1111 -10.5833,-4.5833 -9.8778,-4.936 -18.3162,-11.2805 -8.4667,-6.3471 -7.4224,-7.0499 -7.0274,-7.0527 -6.35,-8.1083 -5.3057,-8.1082 -4.572,-8.8138 -3.5278,-9.5194 -2.8222,-9.8721 -0.3387,-4.9361 0.7055,-4.936 1.7498,-7.7583 2.4554,-15.8637 2.8222,-14.1026 3.1891,-12.6916 4.2333,-11.636 4.9389,-10.9305 5.9831,-10.9276 6.6887,-11.2833 7.4224,-11.6332 27.4885,-26.0914 23.622,-28.2053 13.0386,-14.8054 13.7725,-14.4554 14.0829,-14.1026 14.4498,-13.3971 14.1111,-12.3416 14.1111,-10.9276 16.9051,-8.4639 5.6444,-4.9361 5.3058,-5.6388 10.2165,-11.2832 10.5833,-11.2804 5.6444,-5.2889 5.6163,-4.5833 18.0057,-14.4554 16.9051,-14.8082 15.8609,-16.2193 7.4225,-8.461 7.0555,-9.1666 4.572,-5.9944 4.572,-5.6388 9.8778,-10.9305 19.3887,-21.1525 8.8335,-11.636 8.4385,-12.3388 3.5278,-7.0527 3.5277,-7.4027 5.6445,-16.5721 1.0724,-5.9916 0.7056,-6.6999 0,-13.3971 -0.7056,-6.7 -1.0724,-5.9916 -2.1167,-5.28878 -2.1167,-4.5833 -2.8222,-2.8222 -3.1609,-3.1722 -8.4666,-4.9361 -4.9389,-2.4666 -5.6445,-2.1166 -12.6717,-3.525 -14.478,-3.1722 -15.8609,-2.1166 -16.5665,-1.7639 -17.272,-1.0555 -35.6164,-1.0584 -34.2054,0.7056 -31.0162,1.761 -13.0386,1.4112 -11.2889,1.4111 -21.1385,1.761 -11.9944,0 -11.9945,-0.3527 -11.6275,-1.0556 -10.2165,-1.7638 -8.128,-2.1139 -3.5277,-1.4111 -2.4554,-1.4111 -3.8946,-3.525 -2.8223,-3.5249 -1.7497,-3.5278 -0.7056,-3.8777 0,-3.525 0.3669,-3.8777 3.1609,-7.4055 4.572,-7.4027 2.8222,-3.1722 2.8222,-3.175 10.2447,-9.5194 8.0998,-6.3443 9.1722,-5.6416 20.0942,-9.8722 10.922,-4.5833 11.6276,-3.8777 12.3331,-3.5249 12.7,-2.8223 82.1549,-6.3443 z m 531.6784,71.2159 -14.478,4.5833 -13.7442,2.4695 -13.0387,2.1138 -12.3331,3.5278 -8.4667,3.8777 -8.4666,4.5833 -7.7611,4.9361 -7.7611,5.2888 -7.3943,5.9916 -7.0555,6.3472 -6.6887,6.6999 -6.7169,7.0499 -6.3218,7.04998 -6.0113,7.4055 -11.2889,15.5137 -10.2164,15.8637 -9.8778,15.5138 -3.5278,7.0499 -3.1609,7.0527 -3.8664,14.1027 -3.1891,14.4554 -3.8665,15.1582 -5.3057,19.3914 -2.1167,9.8722 -1.4111,9.8721 -2.4554,19.3915 -1.0442,19.7443 0.3387,19.0387 1.4111,19.0359 2.8222,18.3331 3.8665,17.9832 5.3057,17.2748 5.9832,16.2165 3.5277,8.1111 3.8665,7.4027 3.8946,7.4055 4.2334,7.0499 9.5109,13.3971 4.9389,6.3472 5.2775,5.9916 11.2889,10.5776 5.9831,4.9361 6.0113,4.5833 60.9883,16.5721 5.2775,0.7027 4.9389,0 4.9389,-0.3499 4.6002,-0.7056 16.1996,-4.9361 16.5664,-4.5832 14.1111,-4.5833 11.6276,-4.9361 9.8778,-5.2888 8.8053,-6.3472 8.8336,-7.0499 9.1722,-9.1666 10.2164,-10.5777 9.5109,-10.5777 8.8053,-11.6332 8.4667,-12.6915 8.128,-13.0472 7.0273,-13.397 6.7169,-14.4555 5.9831,-14.4554 5.3058,-15.1581 4.572,-15.161 3.8665,-15.8666 3.1891,-15.5109 2.4553,-15.8665 1.4111,-15.8666 0.7056,-15.8637 0,-15.8665 -0.3387,-7.7555 -0.7055,-7.7554 -1.778,-15.5138 -2.8223,-14.8082 -3.5277,-14.8082 -4.572,-14.1026 -5.6445,-13.3971 -6.6887,-13.0443 -7.7611,-12.3388 -8.4666,-11.63598 -4.9389,-5.2889 -4.9389,-5.2888 -10.922,-9.8693 -11.9945,-8.8166 -13.0386,-7.7555 -14.4498,-6.6971 -15.5222,-5.6417 -8.0998,-2.4694 -8.8053,-1.7611 -17.9776,-3.175 z m 22.2109,-63.8132 25.7104,0.7055 12.3614,1.4111 11.9662,2.1139 11.9944,2.8222 11.2889,3.1722 10.922,3.8777 10.5834,4.2305 10.2164,4.5833 10.2447,5.2889 9.5109,5.9944 9.1722,5.9915 9.144,6.7 8.4667,7.0499 16.2277,15.161 7.3943,8.1082 7.4224,8.4639 13.3773,17.9803 11.9945,18.686 5.2775,9.87208 5.3058,9.8721 9.1722,20.447 7.7329,20.8026 6.35,21.1526 5.3058,21.5082 3.1609,16.5692 3.1891,17.2748 2.8222,17.9804 2.0885,17.9832 1.4111,18.686 0,18.6859 -1.4111,18.3331 -3.1609,18.3332 -4.9389,22.2109 -5.6445,21.1525 -5.6444,20.8026 -6.6887,20.0971 -6.6886,19.7414 -7.7611,18.686 -8.0998,17.9803 -8.8336,17.6305 -9.5109,16.922 -10.5833,15.8665 -11.2889,15.511 -11.9662,14.8082 -13.0669,14.1026 -13.7442,13.0443 -14.7885,12.6943 -16.2277,11.986 -14.8167,9.8722 -17.272,10.5776 -19.7273,9.8694 -10.5834,4.5832 -10.5833,4.5833 -11.2889,3.8806 -11.6276,3.1722 -11.9944,2.8194 -11.9944,1.7638 -12.3332,1.4111 -12.6717,0.3528 -12.7,-0.7056 -12.7,-1.7638 -56.7549,-10.5777 -9.8778,-3.8777 -9.8778,-4.9361 -9.5109,-5.2888 -9.8777,-5.9916 -9.1723,-6.7 -9.144,-7.0499 -18.0057,-16.2193 -8.8054,-8.8138 -8.0998,-9.1666 -8.128,-9.8721 -7.7328,-10.2249 -7.4225,-10.5748 -7.3942,-11.2833 -6.6887,-11.2832 -6.35,-11.986 -6.0113,-12.3388 -5.2776,-12.6943 -9.8777,-26.0886 -4.2334,-13.3971 -3.5278,-13.7499 -3.1608,-14.1026 -2.4836,-14.1027 -2.1167,-14.4554 -1.3829,-14.8082 -1.0724,-29.6136 0.7056,-15.161 1.0442,-15.1609 4.2333,-30.3192 4.2333,-27.1497 3.5278,-25.3831 2.4836,-12.3416 2.4553,-11.986 3.8947,-11.6332 4.572,-11.2832 8.0998,-16.5693 8.4666,-16.2193 8.8054,-15.8665 9.1722,-15.511 9.8778,-15.1609 10.2164,-14.4555 10.5833,-13.74978 11.2889,-13.3971 5.9831,-6.7 6.0114,-6.3443 12.6717,-12.3416 13.0387,-11.6332 14.1111,-10.9305 14.4498,-10.2249 15.5222,-9.5193 16.2278,-8.4611 16.5664,-8.1082 11.2889,-4.2305 11.9663,-3.8777 22.2108,-6.3472 38.8056,-4.2305 z m -1689.1564,10.2249 25.7386,0.7055 11.9945,0.7056 11.6275,1.0555 22.2109,3.5278 20.4611,4.936 9.5109,3.1722 9.5109,3.1722 17.6389,7.7555 8.0998,4.5833 7.7611,4.5861 14.8166,10.2221 13.7443,11.636 12.3331,12.6915 11.2889,14.1027 10.2164,14.8082 9.1722,16.21638 8.4667,17.2777 7.3942,17.9804 6.7169,19.0387 2.4553,8.8138 2.1167,9.8721 3.1891,22.5637 1.3829,12.6915 0.7056,13.0443 1.0724,26.797 -0.3669,13.3971 -0.3386,13.3971 -1.0725,13.0443 -1.0442,12.3388 -1.7498,11.636 -2.1167,10.5777 -2.4835,9.8721 -2.8222,8.1083 -5.6445,11.6332 -3.5278,5.6416 -3.8664,5.2888 -8.4667,10.2249 -9.8777,9.8722 -10.5552,8.8138 -10.9502,7.7554 -11.9662,6.7 -11.9944,5.6388 -7.3943,2.8222 -7.4224,2.4666 -16.5665,3.8778 -17.6388,2.8222 -18.6832,2.1138 -19.0217,0.7056 -19.7556,0 -20.0942,-1.0583 -19.7556,-1.7611 -20.0942,-2.1167 -19.3887,-3.1722 -19.0217,-3.5249 -17.9776,-4.2305 -16.9333,-4.5833 -15.8609,-4.9361 -14.44983,-5.2888 -12.7,-5.2889 -17.9775,-8.461 -10.922,-5.2888 -10.5834,-6.7 -9.1722,-7.4027 -4.2333,-3.8777 -3.1609,-4.2305 -2.8222,-4.5833 -1.778,-4.9361 -0.7056,-4.936 0.3669,-5.2889 2.1167,-5.9944 2.8222,-5.2888 3.8664,-4.5833 4.9389,-4.2305 5.9831,-3.1722 6.35,-2.8194 7.0556,-2.1167 7.3942,-1.4111 8.128,-1.0583 7.7611,-0.35 8.4385,-0.3528 8.128,0.7028 8.09973,0.7055 7.7611,1.4111 14.4498,3.525 17.9776,5.2888 17.9775,4.5833 17.6389,3.8778 17.272,2.8222 16.5665,1.7611 16.2277,0.7055 15.494,-0.7055 14.8167,-2.1139 14.1111,-3.5249 13.4056,-4.9361 6.3218,-3.175 6.35,-3.525 11.2888,-8.461 5.6445,-4.5833 5.2775,-5.6416 4.9389,-5.6416 4.6003,-6.3444 4.2333,-6.6999 4.2051,-7.4027 7.4224,-16.2193 2.1167,-7.4027 1.7498,-7.4055 0.7055,-7.0499 -0.3386,-7.0528 -1.778,-13.7498 -1.7498,-6.6972 -2.4836,-6.3472 -5.6444,-11.9859 -6.3218,-10.9305 -3.5278,-4.9361 -3.5277,-4.5833 -6.7169,-7.7554 -6.35,-6.3472 -6.6887,-5.9944 -6.6887,-5.286 -7.0555,-4.9361 -7.3942,-4.5833 -7.4225,-3.8805 -15.1553,-6.6972 -7.7611,-2.4694 -8.0998,-2.1139 -8.0998,-1.7638 -8.128,-1.0584 -16.1995,-1.4083 -16.5947,0.3528 -16.5664,1.7611 -16.5665,2.8222 -16.5664,4.5833 -15.8609,5.6388 -15.5222,6.6999 -15.1554,7.7555 -14.44983,8.4639 -13.4055,9.5193 -10.922,9.1666 -10.922,11.2804 -10.9502,12.6915 -10.5551,14.4555 -10.2447,15.8665 -9.8778,17.2748 -9.144,18.3332 -8.4667,19.0387 -3.8946,9.8721 -3.4996,10.2249 -6.7169,20.447 -5.2775,21.1554 -3.8947,21.1526 -2.4553,21.1553 -1.0725,21.5054 1.0725,20.8026 1.0442,10.2249 1.4111,10.2221 3.1891,32.7886 12.7,17.6304 7.3942,16.2165 4.2334,7.0527 4.2333,6.6971 9.144,11.9888 4.9389,5.2861 5.3058,5.2888 5.6444,4.5833 5.9831,4.5833 13.0387,8.111 14.4498,7.4027 16.2278,7.0499 6.35,2.1167 6.6886,2.1167 14.44983,2.1138 15.1836,0.7056 15.8608,-0.3528 33.1329,-3.1722 33.8385,-4.2305 16.5946,-1.7639 15.8609,-1.4111 15.494,0 14.8167,1.0583 7.0556,1.0584 6.6886,1.761 6.35,2.1167 6.35,2.4666 5.6445,3.175 5.2775,3.8777 4.9389,4.2305 4.6002,5.2889 4.572,5.9944 3.8665,6.3443 2.4835,5.9944 1.7498,5.9944 1.0725,11.2805 -0.7056,5.6416 -1.0724,5.2888 -4.2334,10.5777 -5.9831,10.2221 -3.5278,5.2888 -3.5277,4.5833 -8.0998,9.8721 -3.8947,3.8778 -4.2333,3.8805 -9.5109,7.4027 -10.5833,6.6971 -11.9663,5.9944 -13.0669,5.2889 -14.0828,4.5833 -14.8167,3.8777 -15.1553,3.175 -15.8609,2.4666 -16.5665,1.7639 -16.2278,1.0555 -16.5664,0 -16.5664,-0.3499 -16.5665,-1.4111 -15.88913,-2.1167 -15.494,-3.1722 -19.3887,-4.9361 -18.0057,-5.9944 -17.272,-6.6971 -15.8609,-8.1111 -15.1554,-8.8138 -14.1111,-9.8721 -13.0386,-10.5749 -11.9945,-11.6359 -5.6444,-6.3444 -5.6163,-6.3472 -10.2446,-13.3971 -9.5109,-14.1026 -8.8053,-15.161 -8.128,-15.8637 -7.3943,-16.572 -6.35,-17.6276 -5.9831,-17.9804 -4.2333,-45.4801 -2.8222,-20.0971 -2.1167,-20.4498 -1.0442,-20.7998 -0.3669,-20.4498 0.3669,-20.7998 1.0442,-20.4498 4.2333,-39.8413 3.1609,-19.7414 3.5278,-19.0388 4.2333,-18.6859 4.6003,-17.9804 10.2164,-33.8469 5.6444,-15.5137 5.9832,-14.8082 4.2333,-9.1666 4.2333,-8.8138 9.5109,-17.2748 9.8778,-16.2165 11.2889,-15.5138 11.6275,-14.8082 12.7,-13.74978 13.3774,-13.0444 14.1111,-12.3415 14.8166,-11.6332 15.8609,-10.9305 16.2278,-10.2249 16.9051,-9.5165 17.272,-8.8167 18.34453,-8.461 37.7331,-15.161 66.2658,-6.3443 z"
           style="fill:url(#linearGradient4204);fill-opacity:1;fill-rule:nonzero;stroke:none" />
      </g>
    </g>
  </g>
</svg>
