<?xml version="1.0" encoding="UTF-8" standalone="no"?>
<!-- Created with Inkscape (http://www.inkscape.org/) -->

<svg
   xmlns:dc="http://purl.org/dc/elements/1.1/"
   xmlns:cc="http://creativecommons.org/ns#"
   xmlns:rdf="http://www.w3.org/1999/02/22-rdf-syntax-ns#"
   xmlns:svg="http://www.w3.org/2000/svg"
   xmlns="http://www.w3.org/2000/svg"
   xmlns:sodipodi="http://sodipodi.sourceforge.net/DTD/sodipodi-0.dtd"
   xmlns:inkscape="http://www.inkscape.org/namespaces/inkscape"
   width="189.96806mm"
   height="93.178375mm"
   viewBox="0 0 673.11519 330.1596"
   id="svg2"
   version="1.1"
   inkscape:version="0.91 r13725"
   sodipodi:docname="digital5.svg">
  <defs
     id="defs4">
    <pattern
       y="0"
       x="0"
       height="6"
       width="6"
       patternUnits="userSpaceOnUse"
       id="EMFhbasepattern" />
    <pattern
       y="0"
       x="0"
       height="6"
       width="6"
       patternUnits="userSpaceOnUse"
       id="EMFhbasepattern-4" />
  </defs>
  <sodipodi:namedview
     id="base"
     pagecolor="#ffffff"
     bordercolor="#666666"
     borderopacity="1.0"
     inkscape:pageopacity="0.0"
     inkscape:pageshadow="2"
     inkscape:zoom="1.0636468"
     inkscape:cx="473.70045"
     inkscape:cy="162.22265"
     inkscape:document-units="px"
     inkscape:current-layer="layer1"
     showgrid="false"
     fit-margin-top="0"
     fit-margin-left="0"
     fit-margin-right="0"
     fit-margin-bottom="0"
     inkscape:window-width="1920"
     inkscape:window-height="1139"
     inkscape:window-x="1357"
     inkscape:window-y="-9"
     inkscape:window-maximized="1" />
  <metadata
     id="metadata7">
    <rdf:RDF>
      <cc:Work
         rdf:about="">
        <dc:format>image/svg+xml</dc:format>
        <dc:type
           rdf:resource="http://purl.org/dc/dcmitype/StillImage" />
        <dc:title></dc:title>
      </cc:Work>
    </rdf:RDF>
  </metadata>
  <g
     inkscape:label="Capa 1"
     inkscape:groupmode="layer"
     id="layer1"
     transform="translate(-26.299551,-84.425267)">
    <g
       id="g4414"
       transform="matrix(0.20504774,0,0,0.20504774,260.33327,197.75876)">
      <path
         style="fill:#004287;fill-opacity:1;fill-rule:evenodd;stroke:none"
         d="m -1141.3621,-552.71759 200.96141,0 201.31532,0 201.31194,0 201.31475,0 201.31478,0 201.314714,0 201.311996,0 201.3147,0 0,200.9614 0,201.31533 0,201.311937 0,201.314753 0,201.31478 0,201.3147 0,201.31195 0,201.31474 -201.3147,0 -201.311996,0 -201.314714,0 -201.31478,0 -201.31475,0 -201.31194,0 -201.31532,0 -200.96141,0 0,-201.31474 0,-201.31195 0,-201.3147 0,-201.31478 0,-201.314753 0,-201.311937 0,-201.31533 0,-200.9614 z"
         id="path4280"
         inkscape:connector-curvature="0" />
      <path
         style="fill:#000000;fill-opacity:1;fill-rule:nonzero;stroke:none"
         d="m -863.5417,84.717987 -59.58332,-157.24294 -59.58332,-157.242927 31.02582,-145.96251 141.37838,-34.90383 153.01242,66.63463 153.3652,66.98715 188.976,0 188.97322,0 153.012414,-66.98715 153.012396,-66.63463 141.732,34.90383 31.0247,145.96251 -59.9355,157.242927 -59.5828,157.24294 37.3719,38.782983 -71.9244,162.179 49.0079,195.32034 -244.3282057,203.42855 16.5721097,63.4633 -161.829094,71.9215 23.97478,24.3276 -94.488,94.8408 -102.59342,0 -102.59625,0 -94.84077,-94.8408 24.32755,-24.3276 -161.82904,-71.9215 16.57209,-63.4633 -244.6799,-203.42855 49.35954,-195.32034 -71.92349,-162.179 37.01909,-38.782983 z"
         id="path4282"
         inkscape:connector-curvature="0" />
      <path
         style="fill:#779fcd;fill-opacity:1;fill-rule:evenodd;stroke:none"
         d="m -610.75328,649.52651 106.82676,150.89565 188.976,-11.2804 -114.93782,-135.73755 -180.86494,-3.8777 z"
         id="path4284"
         inkscape:connector-curvature="0" />
      <path
         style="fill:#004287;fill-opacity:1;fill-rule:evenodd;stroke:none"
         d="m -816.29854,310.71308 -34.90243,149.48463 234.45329,195.3232 -99.77402,-172.4039 -99.77684,-172.40393 z"
         id="path4286"
         inkscape:connector-curvature="0" />
      <path
         style="fill:#ffffff;fill-opacity:1;fill-rule:evenodd;stroke:none"
         d="m -654.11954,183.08372 0,111.05727 209.423,0 -209.423,-111.05727 z"
         id="path4288"
         inkscape:connector-curvature="0" />
      <path
         style="fill:#004287;fill-opacity:1;fill-rule:evenodd;stroke:none"
         d="m -861.42616,141.83412 34.9027,113.17393 157.94849,-163.237333 158.30127,-163.23733 -175.57609,106.47398 -175.57637,106.826753 z"
         id="path4290"
         inkscape:connector-curvature="0" />
      <path
         style="fill:#004287;fill-opacity:1;fill-rule:evenodd;stroke:none"
         d="m -933.34936,-347.17262 -6.34605,139.96841 49.35897,142.434727 49.35756,142.79033 -46.18454,-212.597997 -46.18594,-212.59547 z"
         id="path4292"
         inkscape:connector-curvature="0" />
      <path
         style="fill:#004287;fill-opacity:1;fill-rule:evenodd;stroke:none"
         d="m -908.66988,-357.39695 94.488,-30.67332 262.65858,164.29397 27.14978,131.507087 -129.74602,74.03818 -127.27376,-169.581687 -127.27658,-169.58423 z"
         id="path4294"
         inkscape:connector-curvature="0" />
      <path
         style="fill:#779fcd;fill-opacity:1;fill-rule:evenodd;stroke:none"
         d="m -919.24672,-347.17262 125.15906,167.46814 125.51269,167.467847 -157.94849,105.06286 -46.53731,-219.997857 -46.18595,-220.00099 z"
         id="path4296"
         inkscape:connector-curvature="0" />
      <path
         style="fill:#004287;fill-opacity:1;fill-rule:evenodd;stroke:none"
         d="M -652.00288,137.95639 -454.56586,256.76912 -483.4767,109.7511 -512.38754,-36.916973 -652.00288,137.95639 Z"
         id="path4298"
         inkscape:connector-curvature="0" />
      <path
         style="fill:#779fcd;fill-opacity:1;fill-rule:evenodd;stroke:none"
         d="m -701.36072,170.74497 -90.25749,104.71008 95.54351,172.40396 95.54633,172.7566 -50.41617,-224.93671 -50.41618,-224.93393 z"
         id="path4300"
         inkscape:connector-curvature="0" />
      <path
         style="fill:#004287;fill-opacity:1;fill-rule:evenodd;stroke:none"
         d="m -621.33097,324.81572 183.33438,0 43.01349,150.89579 43.01067,151.2513 -134.67927,-151.2513 -134.67927,-150.89579 z"
         id="path4302"
         inkscape:connector-curvature="0" />
      <path
         style="fill:#004287;fill-opacity:1;fill-rule:evenodd;stroke:none"
         d="m -569.50368,612.50741 160.06516,8.1082 -220.00069,-275.35289 59.93553,267.24469 z"
         id="path4304"
         inkscape:connector-curvature="0" />
      <path
         style="fill:#000000;fill-opacity:1;fill-rule:evenodd;stroke:none"
         d="m -674.56654,665.74296 -149.13469,31.733 -148.78276,32.0831 156.18545,-20.8026 156.18742,-20.4499 -14.45542,-22.5636 z"
         id="path4306"
         inkscape:connector-curvature="0" />
      <path
         style="fill:#000000;fill-opacity:1;fill-rule:evenodd;stroke:none"
         d="m -666.4583,712.98696 -148.07636,31.7302 -147.72498,32.083 149.1361,-19.7414 149.13186,-19.3915 -2.46662,-24.6803 z"
         id="path4308"
         inkscape:connector-curvature="0" />
      <path
         style="fill:#000000;fill-opacity:1;fill-rule:evenodd;stroke:none"
         d="m -654.11954,762.34756 -273.23627,51.4746 150.89858,-18.686 151.24853,-18.336 -28.91084,-14.4526 z"
         id="path4310"
         inkscape:connector-curvature="0" />
      <path
         style="fill:#779fcd;fill-opacity:1;fill-rule:evenodd;stroke:none"
         d="m -19.150596,649.52651 -106.826704,150.89565 -188.97322,-11.2804 114.935,-135.73755 180.864924,-3.8777 z"
         id="path4312"
         inkscape:connector-curvature="0" />
      <path
         style="fill:#004287;fill-opacity:1;fill-rule:nonzero;stroke:none"
         d="m -534.95121,-217.7819 220.00069,0 219.997824,0 L -149.95212,3.6298971 -204.95159,225.03888 -259.95106,446.44785 -314.95052,667.85956 -369.95281,446.44785 -424.95228,225.03888 -479.95174,3.6298971 -534.95121,-217.7819 Z"
         id="path4314"
         inkscape:connector-curvature="0" />
      <path
         style="fill:#004287;fill-opacity:1;fill-rule:evenodd;stroke:none"
         d="m 186.04191,310.71308 35.2552,149.48463 -234.453306,195.3232 99.42131,-172.4039 99.776796,-172.40393 z"
         id="path4316"
         inkscape:connector-curvature="0" />
      <path
         style="fill:#ffffff;fill-opacity:1;fill-rule:evenodd;stroke:none"
         d="m 23.862914,183.08372 0,111.05727 -209.423014,0 209.423014,-111.05727 z"
         id="path4318"
         inkscape:connector-curvature="0" />
      <path
         style="fill:#004287;fill-opacity:1;fill-rule:evenodd;stroke:none"
         d="M 231.52201,141.83412 196.61961,255.00805 38.318314,91.770717 -119.6302,-71.466613 55.945914,35.007367 231.52201,141.83412 Z"
         id="path4320"
         inkscape:connector-curvature="0" />
      <path
         style="fill:#004287;fill-opacity:1;fill-rule:evenodd;stroke:none"
         d="m 303.09361,-347.17262 6.6971,139.96841 -49.7106,142.434727 -49.3579,142.79033 46.1857,-212.597997 46.1857,-212.59547 z"
         id="path4322"
         inkscape:connector-curvature="0" />
      <path
         style="fill:#004287;fill-opacity:1;fill-rule:evenodd;stroke:none"
         d="m 278.76601,-357.39695 -94.488,-30.67332 -263.011306,164.29397 -26.794204,131.507087 129.390414,74.03818 127.273796,-169.581687 127.6293,-169.58423 z"
         id="path4324"
         inkscape:connector-curvature="0" />
      <path
         style="fill:#779fcd;fill-opacity:1;fill-rule:evenodd;stroke:none"
         d="m 288.99091,-347.17262 -125.5127,167.46814 -125.159896,167.467847 158.301296,105.06286 46.1857,-219.997857 46.1856,-220.00099 z"
         id="path4326"
         inkscape:connector-curvature="0" />
      <path
         style="fill:#004287;fill-opacity:1;fill-rule:evenodd;stroke:none"
         d="M 22.099014,137.95639 -175.33519,256.76912 -146.77994,109.7511 -117.8691,-36.916973 22.099014,137.95639 Z"
         id="path4328"
         inkscape:connector-curvature="0" />
      <path
         style="fill:#779fcd;fill-opacity:1;fill-rule:evenodd;stroke:none"
         d="m 71.106914,170.74497 90.607396,104.71008 -95.543496,172.40396 -95.54631,172.7566 50.06341,-224.93671 50.419,-224.93393 z"
         id="path4330"
         inkscape:connector-curvature="0" />
      <path
         style="fill:#004287;fill-opacity:1;fill-rule:evenodd;stroke:none"
         d="m -8.9256957,324.81572 -182.9815843,0 -43.01349,150.89579 -43.01066,151.2513 134.32649,-151.2513 134.6792443,-150.89579 z"
         id="path4332"
         inkscape:connector-curvature="0" />
      <path
         style="fill:#004287;fill-opacity:1;fill-rule:evenodd;stroke:none"
         d="M -60.400196,612.50741 -220.46534,620.61561 -0.81739571,345.26272 -60.400196,612.50741 Z"
         id="path4334"
         inkscape:connector-curvature="0" />
      <path
         style="fill:#000000;fill-opacity:1;fill-rule:evenodd;stroke:none"
         d="m 44.662714,665.74296 148.781896,31.733 148.7819,32.0831 -156.1846,-20.8026 -156.187396,-20.4499 14.8082,-22.5636 z"
         id="path4336"
         inkscape:connector-curvature="0" />
      <path
         style="fill:#000000;fill-opacity:1;fill-rule:evenodd;stroke:none"
         d="m 36.554414,712.98696 147.723596,31.7302 148.0792,32.083 -149.1347,-19.7414 -149.134696,-19.3915 2.4666,-24.6803 z"
         id="path4338"
         inkscape:connector-curvature="0" />
      <path
         style="fill:#779fcd;fill-opacity:1;fill-rule:nonzero;stroke:none"
         d="m -450.68812,842.37736 135.7376,-22.5637 135.382,22.5637 -135.382,82.502 -135.7376,-82.502 z"
         id="path4340"
         inkscape:connector-curvature="0" />
      <path
         style="fill:#000000;fill-opacity:1;fill-rule:evenodd;stroke:none"
         d="m 23.862914,762.34756 273.236296,51.4746 -150.8958,-18.686 -150.8986057,-18.336 28.5581097,-14.4526 z"
         id="path4342"
         inkscape:connector-curvature="0" />
      <path
         style="fill:#ffffff;fill-opacity:1;fill-rule:nonzero;stroke:none"
         d="m -314.95052,734.84786 0,0.7027 -0.70556,0 0,-0.7027 -62.75775,-62.7577 61.34664,0 3.52496,0 61.34664,0 -62.75493,62.7577 z"
         id="path4344"
         inkscape:connector-curvature="0" />
      <path
         style="fill:#004287;fill-opacity:1;fill-rule:evenodd;stroke:none"
         d="m 531.20251,-552.71759 200.962,0 201.3119,0 201.31479,0 201.3147,0 201.3148,0 201.3232,0 201.3091,0 201.3091,0 0,200.9614 0,201.31533 0,201.311937 0,201.314753 0,201.31478 0,201.3147 0,201.31195 0,201.31474 -201.3091,0 -201.3091,0 -201.3232,0 -201.3148,0 -201.3147,0 -201.31479,0 -201.3119,0 -200.962,0 0,-201.31474 0,-201.31195 0,-201.3147 0,-201.31478 0,-201.314753 0,-201.311937 0,-201.31533 0,-200.9614 z"
         id="path4346"
         inkscape:connector-curvature="0" />
      <path
         style="fill:#ffffff;fill-opacity:1;fill-rule:evenodd;stroke:none"
         d="m 822.06641,397.09001 0.7055,23.97478 -0.3528,3.87773 0,3.87773 -0.3527,3.52496 -0.3528,3.52778 -1.0555,6.69713 -1.0584,3.175 -0.7055,3.17219 -1.0583,2.8194 -1.0584,3.175 -2.4666,5.286 -1.4111,2.4695 -1.7611,2.4666 -1.7639,2.1166 -1.7639,2.4667 -2.1138,2.1166 -2.1167,1.7639 -2.4666,1.7611 -2.8194,1.7639 -2.8222,1.4111 -3.1722,1.4083 -3.5249,1.4111 -3.5278,1.0583 -3.8778,1.0555 -4.2305,0.7056 -4.5833,0.7055 -4.5832,0.7056 -4.9361,0.3528 -4.9361,0.3528 -5.6416,0.3527 -5.2888,0 -113.8767,0 0,-142.08474 106.8267,0 10.225,0 4.936,0.35277 4.5833,0.35278 8.8138,1.05833 4.2305,0.35278 4.2305,1.05834 3.8778,0.70273 3.5249,0.70555 3.5278,1.05834 3.1722,1.41111 3.1722,1.05833 2.8222,1.40829 2.8194,1.41111 2.4694,1.41111 2.4666,1.76107 2.1167,1.41111 2.1139,2.11667 2.1166,1.76106 1.7611,2.11667 1.4111,2.46662 1.7639,2.11667 1.0555,2.46662 1.4111,2.82222 0.7056,2.46663 1.0583,2.8194 0.7056,3.175 0.3527,2.8194 0.35,3.17217 0.3528,3.52778 0,3.17218 z m -88.8464,61.3466 6.6999,-0.3527 5.9944,-0.3528 5.6417,-0.7056 4.5833,-0.7055 4.2305,-1.4083 1.761,-0.7056 1.7639,-0.7055 1.4111,-1.0584 1.4083,-1.0583 1.4111,-0.7027 1.0584,-1.0584 0.7055,-1.4111 1.0555,-1.0583 0.7056,-1.40829 1.0583,-1.41111 0.7056,-1.41111 0.3528,-1.76107 1.4082,-3.175 0.7056,-3.87773 0.7056,-4.23051 0.3527,-4.23051 0,-4.93607 0,-21.15256 0,-2.82222 -0.3527,-2.8194 -0.7056,-2.46944 -1.0555,-2.46662 -1.0583,-2.11667 -1.4112,-2.11385 -1.7638,-1.76388 -2.1139,-1.41112 -2.4694,-1.40828 -2.8194,-1.41112 -3.1722,-1.05833 -3.8777,-0.70555 -4.5833,-0.70556 -4.5861,-0.34996 -5.2861,-0.35277 -5.6416,0 -58.88,0 0,82.85193 56.0578,0 z"
         id="path4348"
         inkscape:connector-curvature="0" />
      <path
         style="fill:#ffffff;fill-opacity:1;fill-rule:evenodd;stroke:none"
         d="m 892.93241,344.55717 0,142.08474 -41.6024,0 0,-142.08474 41.6024,0 z"
         id="path4350"
         inkscape:connector-curvature="0" />
      <path
         style="fill:#ffffff;fill-opacity:1;fill-rule:evenodd;stroke:none"
         d="m 1114.6969,436.9285 -0.3527,7.05273 -0.7056,6.69998 -0.3528,3.1722 -0.7055,2.8194 -1.4111,5.2888 -0.7056,2.4694 -1.0555,2.1139 -1.0583,2.1167 -1.0584,1.761 -1.4111,1.7639 -0.7027,1.0583 -0.7056,0.7056 -1.4111,1.4083 -1.7639,1.4111 -3.5249,2.1138 -1.7611,1.0584 -1.7639,1.0583 -4.2305,1.7639 -4.5833,1.0555 -2.4694,0.7056 -2.4666,0.7055 -5.2889,0.7056 -5.6416,0.3528 -5.6416,0 -11.986,0.3527 -14.4554,0.3528 -16.2165,0.7056 -12.6944,0 -5.9916,-0.3528 -5.64159,-0.3528 -10.9304,-0.7055 -9.8722,-1.4112 -4.5833,-0.7055 -4.2305,-1.0555 -3.8777,-0.7056 -3.8777,-1.0583 -3.8778,-1.0583 -3.175,-1.4112 -3.1722,-1.0555 -2.8194,-1.4111 -2.4694,-1.4111 -2.8194,-1.7611 -2.1167,-1.7638 -2.1138,-2.1139 -2.1167,-2.1167 -1.761,-2.4694 -1.7639,-2.4666 -1.4111,-2.8194 -1.0584,-2.8222 -1.0555,-3.1722 -1.0583,-3.1722 -0.7056,-3.52778 -0.7055,-3.52495 -0.3528,-3.87774 -0.3528,-3.87773 0,-4.23051 0,-26.44422 0,-4.58329 0.3528,-4.58329 0.3528,-4.23051 0.7055,-3.87774 0.7056,-3.87773 0.7055,-3.52495 1.0555,-3.52778 1.4112,-3.17218 1.4111,-2.8194 1.4111,-2.82222 1.761,-2.8194 1.7639,-2.11667 2.1139,-2.46662 2.4694,-1.76389 2.1139,-1.76107 2.8222,-1.76389 2.4666,-1.41111 3.175,-1.05551 3.1722,-1.41111 3.1722,-1.05833 3.5249,-1.05834 3.8806,-1.05551 8.1082,-1.41111 4.5833,-0.70555 4.5833,-0.70556 4.9361,-0.70555 4.936,-0.35278 5.2889,-0.35278 5.63879,0 11.636,-0.34996 18.6859,0 10.9305,0.34996 9.8693,0.35278 9.1666,0.70555 8.4638,0.70556 7.4027,1.41111 6.3472,1.40829 5.9916,1.76389 2.4694,1.05833 2.4666,1.05833 2.1167,1.05552 1.7639,1.41111 2.1138,1.41111 1.7639,1.76106 1.4083,1.76389 1.4111,1.76389 1.4111,2.11385 1.0584,2.46944 1.0555,2.46662 1.0583,2.46945 0.7056,2.8194 0.7055,2.8194 0.3528,3.175 0.3528,3.17218 0.3528,3.17217 0,3.52778 -44.4246,0 0,-2.11667 -0.3528,-2.46662 -0.3528,-2.11666 -0.7055,-1.76389 -0.7028,-1.40829 -0.7055,-1.76389 -1.0584,-1.05833 -1.4111,-1.05552 -1.4083,-1.05833 -1.7639,-0.70555 -2.1166,-0.70556 -2.1139,-0.70556 -2.4694,-0.35277 -2.8194,-0.35278 -3.1722,0 -3.5278,-0.35278 -43.0106,0 -5.28889,0.35278 -4.5833,0.35278 -3.8777,0.70555 -3.8806,0.70556 -2.8194,1.05833 -2.8194,1.40829 -2.1166,1.76389 -1.4111,1.76389 -1.0555,2.11384 -1.0584,2.46945 -1.0583,2.46662 -0.7056,3.175 -0.7055,3.17218 -0.3528,3.52495 -0.35,3.87774 0,4.23051 0,27.14977 0.35,4.58329 0.3528,3.87774 0.7055,3.87773 0.7056,2.8194 1.4111,2.8222 1.4111,2.1139 1.0555,1.0583 0.7056,0.7056 1.0583,0.7055 1.0583,0.3528 2.8194,1.0555 3.1722,0.7056 4.2305,0.7055 4.9361,0.7056 5.6416,0.3527 6.34719,0.3528 7.4027,0 7.7583,0.3528 12.3387,-0.3528 10.2249,-0.3528 8.4611,-0.3527 3.5249,-0.7056 3.1722,-0.3528 1.4111,-0.3527 1.4111,-0.3528 1.4111,-0.7056 1.0555,-0.7027 1.0584,-0.7056 1.0583,-1.0583 0.7056,-1.0583 0.7055,-1.4083 0.7028,-1.4111 0.7055,-1.7639 0.3528,-1.76109 0.7055,-1.76389 0,-2.11666 0.3528,-2.11385 0.3528,-4.58329 -54.2939,0 0,-25.73866 98.0129,0 0,27.49973 z"
         id="path4352"
         inkscape:connector-curvature="0" />
      <path
         style="fill:#ffffff;fill-opacity:1;fill-rule:evenodd;stroke:none"
         d="m 1184.1518,344.55717 0,142.08474 -41.9551,0 0,-142.08474 41.9551,0 z"
         id="path4354"
         inkscape:connector-curvature="0" />
      <path
         style="fill:#ffffff;fill-opacity:1;fill-rule:evenodd;stroke:none"
         d="m 1373.4778,344.55717 0,31.38028 -62.7578,0 0,110.70446 -44.7745,0 0,-110.70446 -61.6994,0 0,-31.38028 169.2317,0 z"
         id="path4356"
         inkscape:connector-curvature="0" />
      <path
         style="fill:#ffffff;fill-opacity:1;fill-rule:evenodd;stroke:none"
         d="m 1507.4515,344.55717 73.6854,142.08474 -45.1273,0 -13.7499,-26.4442 -89.5519,0 -13.0443,26.4442 -46.5385,0 72.2771,-142.08474 62.0494,0 z m -60.9939,84.96864 62.405,0 -31.7302,-59.22998 -30.6748,59.22998 z"
         id="path4358"
         inkscape:connector-curvature="0" />
      <path
         style="fill:#ffffff;fill-opacity:1;fill-rule:evenodd;stroke:none"
         d="m 1742.2717,454.91171 0,31.7302 -143.5044,0 0,-142.08474 44.7746,0 0,110.35454 98.7298,0 z"
         id="path4360"
         inkscape:connector-curvature="0" />
      <path
         style="fill:#ffffff;fill-opacity:1;fill-rule:evenodd;stroke:none"
         d="m 1517.3236,112.92328 23.2693,-9.16658 23.2692,-8.461023 22.5636,-6.69996 11.6361,-3.17218 11.2804,-2.8194 22.2137,-4.58329 11.2804,-1.76388 11.2833,-1.41112 22.2109,-2.11384 22.225,-0.35278 21.5053,0.35278 20.7998,1.05551 20.4329,2.11667 20.0942,2.8194 19.05,3.88055 19.0218,4.58329 18.3444,5.28602 8.8053,3.175 8.8336,3.17218 17.272,7.052743 16.5664,7.75546 16.2278,8.8138 15.8609,9.51936 15.1553,10.57769 14.4498,11.28042 14.1111,11.9888 13.7442,13.04431 12.7,13.39709 12.3332,14.10264 10.922,14.45543 10.5833,15.16097 9.5109,15.51094 8.8335,16.21931 7.7329,16.56926 7.0556,17.27765 6.35,17.6276 2.8222,9.16658 2.4836,9.16657 4.572,18.68594 3.8664,19.03871 2.8222,19.74144 2.1167,20.09705 1.4111,20.8026 0.3669,21.15252 -0.7056,23.622 -1.0724,23.2693 -2.4553,22.5636 -1.4112,10.9305 -1.778,10.9305 -3.8664,21.1525 -4.9389,20.8026 -5.6444,20.0942 -6.6887,19.7443 -7.7611,19.0387 -8.4667,18.68585 -9.5109,17.6276 -10.2164,17.6276 -11.2889,16.5721 -11.9944,16.2165 -13.0387,15.5138 -13.7442,15.161 -14.478,14.4554 -15.1554,13.3971 -15.8609,12.3387 -16.2277,11.636 -8.0998,5.2861 -8.4667,5.2888 -8.8053,4.9361 -8.4667,4.5833 -17.9775,8.8138 -18.3163,7.7583 -19.05,7.0499 -19.3886,5.9944 -20.0942,4.936 -20.7998,4.2305 -21.1667,3.1722 -21.5053,2.4695 -22.2109,1.4083 -22.9136,0.3527 -16.2193,0 -15.511,-0.7055 -15.5137,-1.4083 -15.161,-1.4111 -15.1582,-2.1139 -14.4554,-2.4694 -28.5581,-6.3472 -27.1469,-8.1082 -26.4442,-9.8722 -12.6916,-5.6388 -12.3387,-6.3471 -11.9888,-6.3472 -11.986,-7.0499 -11.636,-7.7583 -11.2804,-7.7555 -21.861,-17.2748 -10.5748,-9.5194 -10.225,-9.8721 -20.097,-21.1554 -18.6859,-22.9164 -17.9804,-25.0303 -8.8138,-13.0443 -8.1083,-13.7499 -8.111,-14.1026 -8.1083,-14.45545 87.4353,-64.5188 13.7499,24.6775 14.1026,22.9165 14.8082,21.5081 15.161,19.39145 16.2193,17.9804 16.2165,16.2165 17.2748,14.4554 8.8138,6.7 8.8166,6.3443 18.3332,11.2833 19.3887,9.5193 9.8721,4.5833 10.2249,3.8777 20.8026,6.7 10.9276,2.8194 10.9305,2.4666 22.5637,3.5278 11.636,1.4083 11.986,1.0583 24.3275,0.7056 16.5665,-0.3528 16.2278,-1.0583 15.8608,-1.7611 15.1554,-2.1167 14.8166,-3.1721 14.4498,-3.8778 14.1111,-4.2305 13.7443,-5.2888 13.0386,-5.6417 12.7,-6.3471 12.3331,-7.4027 11.9945,-7.7555 11.2889,-8.4638 11.2606,-9.1666 10.5834,-9.8721 10.2164,-10.5749 9.5391,-10.9305 9.144,-11.6332 8.128,-11.9888 8.0998,-12.33865 7.0556,-13.0443 6.35,-13.4 5.9831,-13.7498 5.3057,-14.4554 4.572,-14.8054 4.2334,-15.161 3.5278,-15.8665 2.8222,-16.2165 2.1166,-16.5721 1.4112,-17.2748 1.0442,-17.6276 0.3669,-17.9804 -0.3669,-16.5721 -1.0442,-16.56927 -1.4112,-15.86653 -2.4835,-15.51093 -2.8222,-15.16098 -3.5278,-14.45542 -3.8665,-14.10265 -4.9388,-13.74986 -5.2776,-13.39709 -6.0113,-12.69154 -6.6887,-12.34157 -7.3942,-11.98598 -8.128,-11.63602 -8.4385,-10.92765 -9.1722,-10.93047 -9.8778,-9.87213 -5.2775,-4.93607 -5.3058,-4.93606 -10.5833,-8.8138 -11.6276,-8.46102 -11.6275,-7.75547 -12.3332,-7.40551 -12.7,-6.34436 -13.0386,-5.9944 -13.7725,-5.28884 -14.0829,-4.58329 -14.4497,-4.23051 -14.8167,-3.52496 -15.5222,-2.82222 -15.8609,-2.11384 -16.5665,-1.41112 -16.9333,-1.05833 -17.2663,-0.35278 -19.0388,0.35278 -18.6859,1.05833 -18.3331,1.76389 -17.9804,2.46663 -17.2777,3.17217 -16.922,3.88056 -16.5693,4.23051 -16.2193,5.28602 -15.5137,5.9944 -15.1582,6.34718 -14.8082,7.40269 -14.1026,8.10824 -13.7499,8.46385 -13.3971,9.51935 -12.6944,9.87214 -12.3387,10.57486 -34.1997,-3.17217 38.783,-153.717983 39.1357,-153.3652 39.133,-153.365197 39.1357,-153.36605 246.7892,0 247.142,0 0,94.13607 -208.7033,0 -208.7231,0 -47.9467,189.678727 -47.9496,189.678743 z"
         id="path4362"
         inkscape:connector-curvature="0" />
      <path
         style="fill:#002c5f;fill-opacity:1;fill-rule:nonzero;stroke:none"
         d="m 2030.6463,-358.10223 1.0725,-0.35249 109.6433,186.50571 0,153.365197 0,153.717983 0,153.71797 0,153.71798 0,153.71799 0,153.71795 0,153.7179 0,153.71804 -172.4095,0 -172.0427,0 -172.4067,0 -172.0512,0 -71.2187,-188.62044 -71.216,-188.6232 7.0499,11.9888 7.7555,11.2804 15.161,21.861 16.2193,20.447 16.922,19.0387 17.9804,17.6276 18.3331,16.2193 19.3915,14.8082 19.7443,13.3971 11.986,7.0499 11.9888,6.3472 12.3387,6.3471 12.6916,5.6388 13.0443,4.9361 13.3999,4.9361 13.3971,4.2305 13.7498,3.8777 14.1027,3.5278 14.4554,2.8194 29.6136,4.5833 30.6747,2.8194 31.7303,0.7055 22.9136,-0.3527 22.2109,-1.4083 21.5053,-2.4695 21.1667,-3.1722 10.5551,-1.7638 10.2447,-2.4667 20.0942,-4.936 19.3886,-5.9944 19.05,-7.0499 18.3163,-7.7583 17.9775,-8.8138 17.272,-9.5194 16.5665,-10.5749 8.4666,-5.6416 7.7611,-5.9944 15.8609,-12.3387 15.1554,-13.3971 14.478,-14.4554 7.0555,-7.4056 6.6887,-7.7554 13.0387,-15.5138 11.9944,-16.2165 11.2889,-16.5721 10.2164,-17.6276 9.5109,-17.6276 8.4667,-18.68585 7.7611,-19.0387 6.6887,-19.7443 5.6444,-20.0942 4.9389,-20.8026 3.8664,-21.1525 3.1892,-21.861 1.4111,-11.2804 1.0442,-11.2832 1.0724,-23.2693 0.7056,-23.622 -0.3669,-21.15252 -1.4111,-20.8026 -2.1167,-20.09705 -2.8222,-19.74144 -3.8664,-19.03871 -4.572,-18.68594 -5.3058,-18.33315 -3.1609,-8.8138 -3.1891,-8.8138 -7.0556,-17.27765 -7.7329,-16.56926 -8.8335,-16.21931 -9.5109,-15.51094 -10.5833,-15.16097 -10.922,-14.45543 -12.3332,-14.10264 -12.7,-13.39709 -13.7442,-13.04431 -14.1111,-11.9888 -14.4498,-11.28042 -15.1553,-10.57769 -15.8609,-9.51936 -16.2278,-8.8138 -16.5664,-7.75546 -17.272,-7.052743 -17.6389,-6.34718 -9.1722,-2.8194 -9.1722,-2.46662 -19.0218,-4.58329 -19.05,-3.88055 -20.0942,-2.8194 -20.4329,-2.11667 -20.7998,-1.05551 -21.5053,-0.35278 -22.225,0.35278 -22.2109,2.11384 -22.5637,3.175 -22.2137,4.58329 -22.9165,5.99158 -22.5636,6.69996 -23.2692,8.461023 -23.2693,9.16658 47.9496,-189.678743 47.9467,-189.678727 208.7231,0 208.7033,0 0,-91.66804 z"
         id="path4364"
         inkscape:connector-curvature="0" />
    </g>
  </g>
</svg>
